%TF.GenerationSoftware,KiCad,Pcbnew,8.0.3*%
%TF.CreationDate,2024-08-02T01:13:42+01:00*%
%TF.ProjectId,corne-light,636f726e-652d-46c6-9967-68742e6b6963,2.0*%
%TF.SameCoordinates,Original*%
%TF.FileFunction,Soldermask,Top*%
%TF.FilePolarity,Negative*%
%FSLAX46Y46*%
G04 Gerber Fmt 4.6, Leading zero omitted, Abs format (unit mm)*
G04 Created by KiCad (PCBNEW 8.0.3) date 2024-08-02 01:13:42*
%MOMM*%
%LPD*%
G01*
G04 APERTURE LIST*
G04 Aperture macros list*
%AMRoundRect*
0 Rectangle with rounded corners*
0 $1 Rounding radius*
0 $2 $3 $4 $5 $6 $7 $8 $9 X,Y pos of 4 corners*
0 Add a 4 corners polygon primitive as box body*
4,1,4,$2,$3,$4,$5,$6,$7,$8,$9,$2,$3,0*
0 Add four circle primitives for the rounded corners*
1,1,$1+$1,$2,$3*
1,1,$1+$1,$4,$5*
1,1,$1+$1,$6,$7*
1,1,$1+$1,$8,$9*
0 Add four rect primitives between the rounded corners*
20,1,$1+$1,$2,$3,$4,$5,0*
20,1,$1+$1,$4,$5,$6,$7,0*
20,1,$1+$1,$6,$7,$8,$9,0*
20,1,$1+$1,$8,$9,$2,$3,0*%
G04 Aperture macros list end*
%ADD10C,4.700000*%
%ADD11O,1.700000X2.178000*%
%ADD12RoundRect,0.200000X0.650000X-0.889000X0.650000X0.889000X-0.650000X0.889000X-0.650000X-0.889000X0*%
%ADD13C,1.600000*%
%ADD14C,2.700000*%
%ADD15C,0.700000*%
G04 APERTURE END LIST*
D10*
%TO.C,Ref\u002A\u002A*%
X175373000Y36258568D03*
%TD*%
%TO.C,Ref\u002A\u002A*%
X175373000Y17258568D03*
%TD*%
%TO.C,Ref\u002A\u002A*%
X-24127000Y36240500D03*
%TD*%
%TO.C,Ref\u002A\u002A*%
X-24127000Y17240500D03*
%TD*%
D11*
%TO.C,D13*%
X-44652000Y10768625D03*
D12*
X-44652000Y4768625D03*
%TD*%
D11*
%TO.C,D14*%
X-41652000Y10765500D03*
D12*
X-41652000Y4765500D03*
%TD*%
D11*
%TO.C,D34*%
X195845347Y10765068D03*
D12*
X195845347Y4765068D03*
%TD*%
D11*
%TO.C,D12*%
X34348000Y34765500D03*
D12*
X34348000Y28765500D03*
%TD*%
D11*
%TO.C,D33*%
X116845347Y34765068D03*
D12*
X116845347Y28765068D03*
%TD*%
D11*
%TO.C,D32*%
X119845347Y34765068D03*
D12*
X119845347Y28765068D03*
%TD*%
D11*
%TO.C,D31*%
X154845347Y34770068D03*
D12*
X154845347Y28770068D03*
%TD*%
D11*
%TO.C,D30*%
X157845347Y34765068D03*
D12*
X157845347Y28765068D03*
%TD*%
D11*
%TO.C,D29*%
X192845347Y29765068D03*
D12*
X192845347Y23765068D03*
%TD*%
D11*
%TO.C,D28*%
X195845347Y29765068D03*
D12*
X195845347Y23765068D03*
%TD*%
D11*
%TO.C,D27*%
X116845347Y53765068D03*
D12*
X116845347Y47765068D03*
%TD*%
D11*
%TO.C,D26*%
X119845347Y53765068D03*
D12*
X119845347Y47765068D03*
%TD*%
D11*
%TO.C,D25*%
X154845347Y53770068D03*
D12*
X154845347Y47770068D03*
%TD*%
D11*
%TO.C,D24*%
X157845347Y53765068D03*
D12*
X157845347Y47765068D03*
%TD*%
D11*
%TO.C,D23*%
X192845347Y48765068D03*
D12*
X192845347Y42765068D03*
%TD*%
D11*
%TO.C,D22*%
X195845347Y48765068D03*
D12*
X195845347Y42765068D03*
%TD*%
D11*
%TO.C,D42*%
X126355347Y-4229932D03*
D12*
X126355347Y-10229932D03*
%TD*%
D11*
%TO.C,D41*%
X129355347Y-4229932D03*
D12*
X129355347Y-10229932D03*
%TD*%
D11*
%TO.C,D40*%
X145345347Y-4244932D03*
D12*
X145345347Y-10244932D03*
%TD*%
D11*
%TO.C,D39*%
X116845347Y15765068D03*
D12*
X116845347Y9765068D03*
%TD*%
D11*
%TO.C,D38*%
X119845347Y15765068D03*
D12*
X119845347Y9765068D03*
%TD*%
D11*
%TO.C,D37*%
X154845347Y15770068D03*
D12*
X154845347Y9770068D03*
%TD*%
D11*
%TO.C,D36*%
X157845347Y15765068D03*
D12*
X157845347Y9765068D03*
%TD*%
D11*
%TO.C,D35*%
X192845347Y10765068D03*
D12*
X192845347Y4765068D03*
%TD*%
D11*
%TO.C,D1*%
X-44652000Y48768625D03*
D12*
X-44652000Y42768625D03*
%TD*%
D11*
%TO.C,D2*%
X-41652000Y48765500D03*
D12*
X-41652000Y42765500D03*
%TD*%
D11*
%TO.C,D3*%
X-6652000Y53765500D03*
D12*
X-6652000Y47765500D03*
%TD*%
D11*
%TO.C,D4*%
X-3652000Y53770500D03*
D12*
X-3652000Y47770500D03*
%TD*%
D11*
%TO.C,D5*%
X31348000Y53765500D03*
D12*
X31348000Y47765500D03*
%TD*%
D11*
%TO.C,D6*%
X34348000Y53765500D03*
D12*
X34348000Y47765500D03*
%TD*%
D11*
%TO.C,D7*%
X-44652000Y29768625D03*
D12*
X-44652000Y23768625D03*
%TD*%
D11*
%TO.C,D8*%
X-41652000Y29765500D03*
D12*
X-41652000Y23765500D03*
%TD*%
D11*
%TO.C,D9*%
X-6652000Y34765500D03*
D12*
X-6652000Y28765500D03*
%TD*%
D11*
%TO.C,D10*%
X-3652000Y34770500D03*
D12*
X-3652000Y28770500D03*
%TD*%
D11*
%TO.C,D11*%
X31348000Y34765500D03*
D12*
X31348000Y28765500D03*
%TD*%
D11*
%TO.C,D15*%
X-6652000Y15765500D03*
D12*
X-6652000Y9765500D03*
%TD*%
D11*
%TO.C,D16*%
X-3652000Y15770500D03*
D12*
X-3652000Y9770500D03*
%TD*%
D11*
%TO.C,D17*%
X31348000Y15765500D03*
D12*
X31348000Y9765500D03*
%TD*%
D11*
%TO.C,D18*%
X34348000Y15765500D03*
D12*
X34348000Y9765500D03*
%TD*%
D11*
%TO.C,D19*%
X5668000Y-4224500D03*
D12*
X5668000Y-10224500D03*
%TD*%
D11*
%TO.C,D20*%
X21848000Y-4219500D03*
D12*
X21848000Y-10219500D03*
%TD*%
D11*
%TO.C,D21*%
X24848000Y-4219500D03*
D12*
X24848000Y-10219500D03*
%TD*%
D13*
%TO.C,J6*%
X88268347Y7120068D03*
X81268347Y7120068D03*
%TD*%
%TO.C,J1*%
X62875000Y7253500D03*
X69875000Y7253500D03*
%TD*%
D14*
%TO.C,Ref\u002A\u002A*%
X96050347Y7143068D03*
%TD*%
%TO.C,Ref\u002A\u002A*%
X81491347Y-1399932D03*
%TD*%
%TO.C,Ref\u002A\u002A*%
X69537000Y-1254500D03*
%TD*%
%TO.C,Ref\u002A\u002A*%
X55105000Y7266500D03*
%TD*%
D10*
%TO.C,Ref\u002A\u002A*%
X194356347Y17258568D03*
%TD*%
%TO.C,Ref\u002A\u002A*%
X194356347Y36258568D03*
%TD*%
%TO.C,Ref\u002A\u002A*%
X151216347Y-11432D03*
%TD*%
%TO.C,Ref\u002A\u002A*%
X104646347Y-7761432D03*
%TD*%
%TO.C,Ref\u002A\u002A*%
X118396347Y39748568D03*
%TD*%
%TO.C,Ref\u002A\u002A*%
X46566000Y-7614500D03*
%TD*%
%TO.C,Ref\u002A\u002A*%
X0Y0D03*
%TD*%
%TO.C,Ref\u002A\u002A*%
X-43144000Y36265000D03*
%TD*%
%TO.C,Ref\u002A\u002A*%
X32811000Y39755000D03*
%TD*%
%TO.C,Ref\u002A\u002A*%
X-43144000Y17265000D03*
%TD*%
D15*
%TO.C,J5*%
X164800500Y-1704500D03*
X163613000Y-1704500D03*
X165394250Y-1704500D03*
X164206750Y-1704500D03*
X168363000Y-1704500D03*
X167769250Y-1704500D03*
X167175500Y-1704500D03*
X166581750Y-1704500D03*
X165988000Y-1704500D03*
%TD*%
%TO.C,J5*%
X202800500Y-1704500D03*
X201613000Y-1704500D03*
X203394250Y-1704500D03*
X202206750Y-1704500D03*
X206363000Y-1704500D03*
X205769250Y-1704500D03*
X205175500Y-1704500D03*
X204581750Y-1704500D03*
X203988000Y-1704500D03*
%TD*%
%TO.C,J5*%
X164770500Y59715500D03*
X163583000Y59715500D03*
X165364250Y59715500D03*
X164176750Y59715500D03*
X168333000Y59715500D03*
X167739250Y59715500D03*
X167145500Y59715500D03*
X166551750Y59715500D03*
X165958000Y59715500D03*
%TD*%
%TO.C,J5*%
X126750500Y59705500D03*
X125563000Y59705500D03*
X127344250Y59705500D03*
X126156750Y59705500D03*
X130313000Y59705500D03*
X129719250Y59705500D03*
X129125500Y59705500D03*
X128531750Y59705500D03*
X127938000Y59705500D03*
%TD*%
%TO.C,J5*%
X22230500Y59715500D03*
X21043000Y59715500D03*
X22824250Y59715500D03*
X21636750Y59715500D03*
X25793000Y59715500D03*
X25199250Y59715500D03*
X24605500Y59715500D03*
X24011750Y59715500D03*
X23418000Y59715500D03*
%TD*%
%TO.C,J5*%
X-15739500Y59715500D03*
X-16927000Y59715500D03*
X-15145750Y59715500D03*
X-16333250Y59715500D03*
X-12177000Y59715500D03*
X-12770750Y59715500D03*
X-13364500Y59715500D03*
X-13958250Y59715500D03*
X-14552000Y59715500D03*
%TD*%
%TO.C,J5*%
X-15842500Y-1694500D03*
X-17030000Y-1694500D03*
X-15248750Y-1694500D03*
X-16436250Y-1694500D03*
X-12280000Y-1694500D03*
X-12873750Y-1694500D03*
X-13467500Y-1694500D03*
X-14061250Y-1694500D03*
X-14655000Y-1694500D03*
%TD*%
%TO.C,J5*%
X-53830750Y-1694500D03*
X-55018250Y-1694500D03*
X-53237000Y-1694500D03*
X-54424500Y-1694500D03*
X-50268250Y-1694500D03*
X-50862000Y-1694500D03*
X-51455750Y-1694500D03*
X-52049500Y-1694500D03*
X-52643250Y-1694500D03*
%TD*%
M02*
