%TF.GenerationSoftware,KiCad,Pcbnew,8.0.3*%
%TF.CreationDate,2024-08-02T01:13:42+01:00*%
%TF.ProjectId,corne-light,636f726e-652d-46c6-9967-68742e6b6963,2.0*%
%TF.SameCoordinates,Original*%
%TF.FileFunction,Copper,L1,Top*%
%TF.FilePolarity,Positive*%
%FSLAX46Y46*%
G04 Gerber Fmt 4.6, Leading zero omitted, Abs format (unit mm)*
G04 Created by KiCad (PCBNEW 8.0.3) date 2024-08-02 01:13:42*
%MOMM*%
%LPD*%
G01*
G04 APERTURE LIST*
G04 Aperture macros list*
%AMHorizOval*
0 Thick line with rounded ends*
0 $1 width*
0 $2 $3 position (X,Y) of the first rounded end (center of the circle)*
0 $4 $5 position (X,Y) of the second rounded end (center of the circle)*
0 Add line between two ends*
20,1,$1,$2,$3,$4,$5,0*
0 Add two circle primitives to create the rounded ends*
1,1,$1,$2,$3*
1,1,$1,$4,$5*%
G04 Aperture macros list end*
%TA.AperFunction,ComponentPad*%
%ADD10O,1.300000X1.778000*%
%TD*%
%TA.AperFunction,ComponentPad*%
%ADD11R,1.300000X1.778000*%
%TD*%
%TA.AperFunction,ComponentPad*%
%ADD12O,1.397000X1.778000*%
%TD*%
%TA.AperFunction,ComponentPad*%
%ADD13O,2.500000X1.700000*%
%TD*%
%TA.AperFunction,ComponentPad*%
%ADD14C,2.000000*%
%TD*%
%TA.AperFunction,ComponentPad*%
%ADD15HorizOval,2.400000X-0.978148X0.207912X0.978148X-0.207912X0*%
%TD*%
%TA.AperFunction,ComponentPad*%
%ADD16HorizOval,2.400000X-0.238157X-0.137500X0.238157X0.137500X0*%
%TD*%
%TA.AperFunction,ComponentPad*%
%ADD17C,2.400000*%
%TD*%
%TA.AperFunction,ComponentPad*%
%ADD18HorizOval,1.500000X0.735931X-1.249362X-0.735931X1.249362X0*%
%TD*%
%TA.AperFunction,ComponentPad*%
%ADD19HorizOval,1.600000X0.150000X-0.259808X-0.150000X0.259808X0*%
%TD*%
%TA.AperFunction,ComponentPad*%
%ADD20HorizOval,1.500000X0.175000X-0.303109X-0.175000X0.303109X0*%
%TD*%
%TA.AperFunction,ComponentPad*%
%ADD21HorizOval,2.400000X-0.309017X0.951057X0.309017X-0.951057X0*%
%TD*%
%TA.AperFunction,ComponentPad*%
%ADD22HorizOval,2.400000X-0.238157X0.137500X0.238157X-0.137500X0*%
%TD*%
%TA.AperFunction,ComponentPad*%
%ADD23HorizOval,1.500000X0.714014X1.262016X-0.714014X-1.262016X0*%
%TD*%
%TA.AperFunction,ComponentPad*%
%ADD24HorizOval,1.600000X0.150000X0.259808X-0.150000X-0.259808X0*%
%TD*%
%TA.AperFunction,ComponentPad*%
%ADD25HorizOval,1.500000X0.175000X0.303109X-0.175000X-0.303109X0*%
%TD*%
%TA.AperFunction,ComponentPad*%
%ADD26HorizOval,2.400000X-0.669131X-0.743145X0.669131X0.743145X0*%
%TD*%
%TA.AperFunction,ComponentPad*%
%ADD27O,2.400000X2.950000*%
%TD*%
%TA.AperFunction,ComponentPad*%
%ADD28HorizOval,1.500000X1.449945X0.012653X-1.449945X-0.012653X0*%
%TD*%
%TA.AperFunction,ComponentPad*%
%ADD29O,2.200000X1.600000*%
%TD*%
%TA.AperFunction,ComponentPad*%
%ADD30O,2.200000X1.500000*%
%TD*%
%TA.AperFunction,ComponentPad*%
%ADD31HorizOval,2.400000X-0.453990X-0.891007X0.453990X0.891007X0*%
%TD*%
%TA.AperFunction,ComponentPad*%
%ADD32HorizOval,2.400000X-0.071175X0.265630X0.071175X-0.265630X0*%
%TD*%
%TA.AperFunction,ComponentPad*%
%ADD33HorizOval,1.500000X1.397264X0.387496X-1.397264X-0.387496X0*%
%TD*%
%TA.AperFunction,ComponentPad*%
%ADD34HorizOval,1.600000X0.289778X0.077646X-0.289778X-0.077646X0*%
%TD*%
%TA.AperFunction,ComponentPad*%
%ADD35HorizOval,1.500000X0.338074X0.090587X-0.338074X-0.090587X0*%
%TD*%
%TA.AperFunction,ComponentPad*%
%ADD36HorizOval,2.400000X-0.838671X-0.544639X0.838671X0.544639X0*%
%TD*%
%TA.AperFunction,ComponentPad*%
%ADD37HorizOval,2.400000X-0.071175X-0.265630X0.071175X0.265630X0*%
%TD*%
%TA.AperFunction,ComponentPad*%
%ADD38HorizOval,1.500000X1.403814X-0.363051X-1.403814X0.363051X0*%
%TD*%
%TA.AperFunction,ComponentPad*%
%ADD39HorizOval,1.600000X0.289778X-0.077646X-0.289778X0.077646X0*%
%TD*%
%TA.AperFunction,ComponentPad*%
%ADD40HorizOval,1.500000X0.338074X-0.090587X-0.338074X0.090587X0*%
%TD*%
%TA.AperFunction,ComponentPad*%
%ADD41C,1.524000*%
%TD*%
%TA.AperFunction,ViaPad*%
%ADD42C,0.600000*%
%TD*%
%TA.AperFunction,Conductor*%
%ADD43C,0.254000*%
%TD*%
%TA.AperFunction,Conductor*%
%ADD44C,0.250000*%
%TD*%
%TA.AperFunction,Conductor*%
%ADD45C,0.508000*%
%TD*%
%TA.AperFunction,Conductor*%
%ADD46C,0.500000*%
%TD*%
G04 APERTURE END LIST*
D10*
%TO.P,D13,2*%
%TO.N,Net-(D13-Pad2)*%
X-44652000Y10768625D03*
D11*
%TO.P,D13,1*%
%TO.N,row2*%
X-44652000Y4768625D03*
%TD*%
D10*
%TO.P,D14,2*%
%TO.N,Net-(D14-Pad2)*%
X-41652000Y10765500D03*
D11*
%TO.P,D14,1*%
%TO.N,row2*%
X-41652000Y4765500D03*
%TD*%
D10*
%TO.P,D34,2*%
%TO.N,Net-(D34-Pad2)*%
X195845347Y10765068D03*
D11*
%TO.P,D34,1*%
%TO.N,row2_r*%
X195845347Y4765068D03*
%TD*%
D10*
%TO.P,D12,2*%
%TO.N,Net-(D12-Pad2)*%
X34348000Y34765500D03*
D11*
%TO.P,D12,1*%
%TO.N,row1*%
X34348000Y28765500D03*
%TD*%
D10*
%TO.P,D33,2*%
%TO.N,Net-(D33-Pad2)*%
X116845347Y34765068D03*
D11*
%TO.P,D33,1*%
%TO.N,row1_r*%
X116845347Y28765068D03*
%TD*%
D10*
%TO.P,D32,2*%
%TO.N,Net-(D32-Pad2)*%
X119845347Y34765068D03*
D11*
%TO.P,D32,1*%
%TO.N,row1_r*%
X119845347Y28765068D03*
%TD*%
D10*
%TO.P,D31,2*%
%TO.N,Net-(D31-Pad2)*%
X154845347Y34770068D03*
D11*
%TO.P,D31,1*%
%TO.N,row1_r*%
X154845347Y28770068D03*
%TD*%
D10*
%TO.P,D30,2*%
%TO.N,Net-(D30-Pad2)*%
X157845347Y34765068D03*
D11*
%TO.P,D30,1*%
%TO.N,row1_r*%
X157845347Y28765068D03*
%TD*%
D10*
%TO.P,D29,2*%
%TO.N,Net-(D29-Pad2)*%
X192845347Y29765068D03*
D11*
%TO.P,D29,1*%
%TO.N,row1_r*%
X192845347Y23765068D03*
%TD*%
D10*
%TO.P,D28,2*%
%TO.N,Net-(D28-Pad2)*%
X195845347Y29765068D03*
D11*
%TO.P,D28,1*%
%TO.N,row1_r*%
X195845347Y23765068D03*
%TD*%
D10*
%TO.P,D27,2*%
%TO.N,Net-(D27-Pad2)*%
X116845347Y53765068D03*
D11*
%TO.P,D27,1*%
%TO.N,row0_r*%
X116845347Y47765068D03*
%TD*%
D10*
%TO.P,D26,2*%
%TO.N,Net-(D26-Pad2)*%
X119845347Y53765068D03*
D11*
%TO.P,D26,1*%
%TO.N,row0_r*%
X119845347Y47765068D03*
%TD*%
D10*
%TO.P,D25,2*%
%TO.N,Net-(D25-Pad2)*%
X154845347Y53770068D03*
D11*
%TO.P,D25,1*%
%TO.N,row0_r*%
X154845347Y47770068D03*
%TD*%
D10*
%TO.P,D24,2*%
%TO.N,Net-(D24-Pad2)*%
X157845347Y53765068D03*
D11*
%TO.P,D24,1*%
%TO.N,row0_r*%
X157845347Y47765068D03*
%TD*%
D10*
%TO.P,D23,2*%
%TO.N,Net-(D23-Pad2)*%
X192845347Y48765068D03*
D11*
%TO.P,D23,1*%
%TO.N,row0_r*%
X192845347Y42765068D03*
%TD*%
D10*
%TO.P,D22,2*%
%TO.N,Net-(D22-Pad2)*%
X195845347Y48765068D03*
D11*
%TO.P,D22,1*%
%TO.N,row0_r*%
X195845347Y42765068D03*
%TD*%
D10*
%TO.P,D42,2*%
%TO.N,Net-(D42-Pad2)*%
X126355347Y-4229932D03*
D11*
%TO.P,D42,1*%
%TO.N,row3_r*%
X126355347Y-10229932D03*
%TD*%
D10*
%TO.P,D41,2*%
%TO.N,Net-(D41-Pad2)*%
X129355347Y-4229932D03*
D11*
%TO.P,D41,1*%
%TO.N,row3_r*%
X129355347Y-10229932D03*
%TD*%
D10*
%TO.P,D40,2*%
%TO.N,Net-(D40-Pad2)*%
X145345347Y-4244932D03*
D11*
%TO.P,D40,1*%
%TO.N,row3_r*%
X145345347Y-10244932D03*
%TD*%
D10*
%TO.P,D39,2*%
%TO.N,Net-(D39-Pad2)*%
X116845347Y15765068D03*
D11*
%TO.P,D39,1*%
%TO.N,row2_r*%
X116845347Y9765068D03*
%TD*%
D10*
%TO.P,D38,2*%
%TO.N,Net-(D38-Pad2)*%
X119845347Y15765068D03*
D11*
%TO.P,D38,1*%
%TO.N,row2_r*%
X119845347Y9765068D03*
%TD*%
D10*
%TO.P,D37,2*%
%TO.N,Net-(D37-Pad2)*%
X154845347Y15770068D03*
D11*
%TO.P,D37,1*%
%TO.N,row2_r*%
X154845347Y9770068D03*
%TD*%
D10*
%TO.P,D36,2*%
%TO.N,Net-(D36-Pad2)*%
X157845347Y15765068D03*
D11*
%TO.P,D36,1*%
%TO.N,row2_r*%
X157845347Y9765068D03*
%TD*%
D10*
%TO.P,D35,2*%
%TO.N,Net-(D35-Pad2)*%
X192845347Y10765068D03*
D11*
%TO.P,D35,1*%
%TO.N,row2_r*%
X192845347Y4765068D03*
%TD*%
D10*
%TO.P,D1,2*%
%TO.N,Net-(D1-Pad2)*%
X-44652000Y48768625D03*
D11*
%TO.P,D1,1*%
%TO.N,row0*%
X-44652000Y42768625D03*
%TD*%
D10*
%TO.P,D2,2*%
%TO.N,Net-(D2-Pad2)*%
X-41652000Y48765500D03*
D11*
%TO.P,D2,1*%
%TO.N,row0*%
X-41652000Y42765500D03*
%TD*%
D10*
%TO.P,D3,2*%
%TO.N,Net-(D3-Pad2)*%
X-6652000Y53765500D03*
D11*
%TO.P,D3,1*%
%TO.N,row0*%
X-6652000Y47765500D03*
%TD*%
D10*
%TO.P,D4,2*%
%TO.N,Net-(D4-Pad2)*%
X-3652000Y53770500D03*
D11*
%TO.P,D4,1*%
%TO.N,row0*%
X-3652000Y47770500D03*
%TD*%
D10*
%TO.P,D5,2*%
%TO.N,Net-(D5-Pad2)*%
X31348000Y53765500D03*
D11*
%TO.P,D5,1*%
%TO.N,row0*%
X31348000Y47765500D03*
%TD*%
D10*
%TO.P,D6,2*%
%TO.N,Net-(D6-Pad2)*%
X34348000Y53765500D03*
D11*
%TO.P,D6,1*%
%TO.N,row0*%
X34348000Y47765500D03*
%TD*%
D10*
%TO.P,D7,2*%
%TO.N,Net-(D7-Pad2)*%
X-44652000Y29768625D03*
D11*
%TO.P,D7,1*%
%TO.N,row1*%
X-44652000Y23768625D03*
%TD*%
D10*
%TO.P,D8,2*%
%TO.N,Net-(D8-Pad2)*%
X-41652000Y29765500D03*
D11*
%TO.P,D8,1*%
%TO.N,row1*%
X-41652000Y23765500D03*
%TD*%
D10*
%TO.P,D9,2*%
%TO.N,Net-(D9-Pad2)*%
X-6652000Y34765500D03*
D11*
%TO.P,D9,1*%
%TO.N,row1*%
X-6652000Y28765500D03*
%TD*%
D10*
%TO.P,D10,2*%
%TO.N,Net-(D10-Pad2)*%
X-3652000Y34770500D03*
D11*
%TO.P,D10,1*%
%TO.N,row1*%
X-3652000Y28770500D03*
%TD*%
D10*
%TO.P,D11,2*%
%TO.N,Net-(D11-Pad2)*%
X31348000Y34765500D03*
D11*
%TO.P,D11,1*%
%TO.N,row1*%
X31348000Y28765500D03*
%TD*%
D10*
%TO.P,D15,2*%
%TO.N,Net-(D15-Pad2)*%
X-6652000Y15765500D03*
D11*
%TO.P,D15,1*%
%TO.N,row2*%
X-6652000Y9765500D03*
%TD*%
D10*
%TO.P,D16,2*%
%TO.N,Net-(D16-Pad2)*%
X-3652000Y15770500D03*
D11*
%TO.P,D16,1*%
%TO.N,row2*%
X-3652000Y9770500D03*
%TD*%
D10*
%TO.P,D17,2*%
%TO.N,Net-(D17-Pad2)*%
X31348000Y15765500D03*
D11*
%TO.P,D17,1*%
%TO.N,row2*%
X31348000Y9765500D03*
%TD*%
D10*
%TO.P,D18,2*%
%TO.N,Net-(D18-Pad2)*%
X34348000Y15765500D03*
D11*
%TO.P,D18,1*%
%TO.N,row2*%
X34348000Y9765500D03*
%TD*%
D10*
%TO.P,D19,2*%
%TO.N,Net-(D19-Pad2)*%
X5668000Y-4224500D03*
D11*
%TO.P,D19,1*%
%TO.N,row3*%
X5668000Y-10224500D03*
%TD*%
D10*
%TO.P,D20,2*%
%TO.N,Net-(D20-Pad2)*%
X21848000Y-4219500D03*
D11*
%TO.P,D20,1*%
%TO.N,row3*%
X21848000Y-10219500D03*
%TD*%
D10*
%TO.P,D21,2*%
%TO.N,Net-(D21-Pad2)*%
X24848000Y-4219500D03*
D11*
%TO.P,D21,1*%
%TO.N,row3*%
X24848000Y-10219500D03*
%TD*%
D12*
%TO.P,J7,4*%
%TO.N,GNDA*%
X93038000Y14375500D03*
%TO.P,J7,3*%
%TO.N,VDD*%
X90498000Y14375500D03*
%TO.P,J7,2*%
%TO.N,SCL_r*%
X87958000Y14375500D03*
%TO.P,J7,1*%
%TO.N,SDA_r*%
X85418000Y14375500D03*
%TD*%
%TO.P,J2,4*%
%TO.N,GND*%
X65809000Y14517500D03*
%TO.P,J2,3*%
%TO.N,VCC*%
X63269000Y14517500D03*
%TO.P,J2,2*%
%TO.N,SCL*%
X60729000Y14517500D03*
%TO.P,J2,1*%
%TO.N,SDA*%
X58189000Y14517500D03*
%TD*%
D13*
%TO.P,J6,A*%
%TO.N,Net-(J6-PadA)*%
X91568347Y5020068D03*
%TO.P,J6,D*%
%TO.N,VDD*%
X90068347Y9220068D03*
%TO.P,J6,C*%
%TO.N,GNDA*%
X86068347Y9220068D03*
%TO.P,J6,B*%
%TO.N,data_r*%
X83068347Y9220068D03*
%TD*%
%TO.P,J1,A*%
%TO.N,Net-(J1-PadA)*%
X59575000Y9353500D03*
%TO.P,J1,D*%
%TO.N,VCC*%
X61075000Y5153500D03*
%TO.P,J1,C*%
%TO.N,GND*%
X65075000Y5153500D03*
%TO.P,J1,B*%
%TO.N,data*%
X68075000Y5153500D03*
%TD*%
D14*
%TO.P,RSW2,2*%
%TO.N,GNDA*%
X81535347Y18118068D03*
%TO.P,RSW2,1*%
%TO.N,reset_r*%
X81535347Y11618068D03*
%TD*%
%TO.P,RSW1,2*%
%TO.N,GND*%
X69665000Y18264500D03*
%TO.P,RSW1,1*%
%TO.N,reset*%
X69665000Y11764500D03*
%TD*%
D15*
%TO.P,SW42,1*%
%TO.N,col5_r*%
X95381860Y-9251947D03*
D16*
%TO.P,SW42,2*%
%TO.N,Net-(D42-Pad2)*%
X99502269Y-13374996D03*
D17*
%TO.P,SW42,1*%
%TO.N,col5_r*%
X96309449Y-9444868D03*
D18*
%TO.P,SW42,2*%
%TO.N,Net-(D42-Pad2)*%
X100843496Y-14217267D03*
D19*
%TO.P,SW42,1*%
%TO.N,col5_r*%
X88167848Y-11143202D03*
D20*
%TO.P,SW42,2*%
%TO.N,Net-(D42-Pad2)*%
X88985797Y-16559932D03*
%TD*%
D21*
%TO.P,SW21,1*%
%TO.N,col5*%
X52680618Y-14674340D03*
D22*
%TO.P,SW21,2*%
%TO.N,Net-(D21-Pad2)*%
X54191078Y-9044436D03*
D17*
%TO.P,SW21,1*%
%TO.N,col5*%
X52383898Y-13774564D03*
D23*
%TO.P,SW21,2*%
%TO.N,Net-(D21-Pad2)*%
X54249893Y-7461764D03*
D24*
%TO.P,SW21,1*%
%TO.N,col5*%
X57925499Y-19976230D03*
D25*
%TO.P,SW21,2*%
%TO.N,Net-(D21-Pad2)*%
X62207550Y-16559500D03*
%TD*%
D26*
%TO.P,SW18,1*%
%TO.N,col5*%
X39217131Y13433645D03*
D27*
%TO.P,SW18,2*%
%TO.N,Net-(D18-Pad2)*%
X44848000Y14940500D03*
D17*
%TO.P,SW18,1*%
%TO.N,col5*%
X39848000Y14140500D03*
D28*
%TO.P,SW18,2*%
%TO.N,Net-(D18-Pad2)*%
X46248042Y15680901D03*
D29*
%TO.P,SW18,1*%
%TO.N,col5*%
X37248000Y6240500D03*
D30*
%TO.P,SW18,2*%
%TO.N,Net-(D18-Pad2)*%
X42348000Y4240500D03*
%TD*%
D26*
%TO.P,SW32,1*%
%TO.N,col4_r*%
X124714478Y34808213D03*
D27*
%TO.P,SW32,2*%
%TO.N,Net-(D32-Pad2)*%
X130345347Y36315068D03*
D17*
%TO.P,SW32,1*%
%TO.N,col4_r*%
X125345347Y35515068D03*
D28*
%TO.P,SW32,2*%
%TO.N,Net-(D32-Pad2)*%
X131745389Y37055469D03*
D29*
%TO.P,SW32,1*%
%TO.N,col4_r*%
X122745347Y27615068D03*
D30*
%TO.P,SW32,2*%
%TO.N,Net-(D32-Pad2)*%
X127845347Y25615068D03*
%TD*%
D26*
%TO.P,SW11,1*%
%TO.N,col4*%
X20217131Y34808645D03*
D27*
%TO.P,SW11,2*%
%TO.N,Net-(D11-Pad2)*%
X25848000Y36315500D03*
D17*
%TO.P,SW11,1*%
%TO.N,col4*%
X20848000Y35515500D03*
D28*
%TO.P,SW11,2*%
%TO.N,Net-(D11-Pad2)*%
X27248042Y37055901D03*
D29*
%TO.P,SW11,1*%
%TO.N,col4*%
X18248000Y27615500D03*
D30*
%TO.P,SW11,2*%
%TO.N,Net-(D11-Pad2)*%
X23348000Y25615500D03*
%TD*%
D26*
%TO.P,SW33,1*%
%TO.N,col5_r*%
X105714478Y32433213D03*
D27*
%TO.P,SW33,2*%
%TO.N,Net-(D33-Pad2)*%
X111345347Y33940068D03*
D17*
%TO.P,SW33,1*%
%TO.N,col5_r*%
X106345347Y33140068D03*
D28*
%TO.P,SW33,2*%
%TO.N,Net-(D33-Pad2)*%
X112745389Y34680469D03*
D29*
%TO.P,SW33,1*%
%TO.N,col5_r*%
X103745347Y25240068D03*
D30*
%TO.P,SW33,2*%
%TO.N,Net-(D33-Pad2)*%
X108845347Y23240068D03*
%TD*%
D31*
%TO.P,SW41,1*%
%TO.N,col4_r*%
X112468830Y-7489327D03*
D32*
%TO.P,SW41,2*%
%TO.N,Net-(D41-Pad2)*%
X117517830Y-4576440D03*
D17*
%TO.P,SW41,1*%
%TO.N,col4_r*%
X112895256Y-6643276D03*
D33*
%TO.P,SW41,2*%
%TO.N,Net-(D41-Pad2)*%
X118678537Y-3498910D03*
D34*
%TO.P,SW41,1*%
%TO.N,col4_r*%
X112428520Y-14947020D03*
D35*
%TO.P,SW41,2*%
%TO.N,Net-(D41-Pad2)*%
X117872379Y-15558894D03*
%TD*%
D26*
%TO.P,SW8,1*%
%TO.N,col1*%
X-36782869Y30058645D03*
D27*
%TO.P,SW8,2*%
%TO.N,Net-(D8-Pad2)*%
X-31152000Y31565500D03*
D17*
%TO.P,SW8,1*%
%TO.N,col1*%
X-36152000Y30765500D03*
D28*
%TO.P,SW8,2*%
%TO.N,Net-(D8-Pad2)*%
X-29751958Y32305901D03*
D29*
%TO.P,SW8,1*%
%TO.N,col1*%
X-38752000Y22865500D03*
D30*
%TO.P,SW8,2*%
%TO.N,Net-(D8-Pad2)*%
X-33652000Y20865500D03*
%TD*%
D26*
%TO.P,SW7,1*%
%TO.N,col0*%
X-55782869Y30058645D03*
D27*
%TO.P,SW7,2*%
%TO.N,Net-(D7-Pad2)*%
X-50152000Y31565500D03*
D17*
%TO.P,SW7,1*%
%TO.N,col0*%
X-55152000Y30765500D03*
D28*
%TO.P,SW7,2*%
%TO.N,Net-(D7-Pad2)*%
X-48751958Y32305901D03*
D29*
%TO.P,SW7,1*%
%TO.N,col0*%
X-57752000Y22865500D03*
D30*
%TO.P,SW7,2*%
%TO.N,Net-(D7-Pad2)*%
X-52652000Y20865500D03*
%TD*%
D26*
%TO.P,SW1,1*%
%TO.N,col0*%
X-55782869Y49058645D03*
D27*
%TO.P,SW1,2*%
%TO.N,Net-(D1-Pad2)*%
X-50152000Y50565500D03*
D17*
%TO.P,SW1,1*%
%TO.N,col0*%
X-55152000Y49765500D03*
D28*
%TO.P,SW1,2*%
%TO.N,Net-(D1-Pad2)*%
X-48751958Y51305901D03*
D29*
%TO.P,SW1,1*%
%TO.N,col0*%
X-57752000Y41865500D03*
D30*
%TO.P,SW1,2*%
%TO.N,Net-(D1-Pad2)*%
X-52652000Y39865500D03*
%TD*%
D26*
%TO.P,SW2,1*%
%TO.N,col1*%
X-36782869Y49058645D03*
D27*
%TO.P,SW2,2*%
%TO.N,Net-(D2-Pad2)*%
X-31152000Y50565500D03*
D17*
%TO.P,SW2,1*%
%TO.N,col1*%
X-36152000Y49765500D03*
D28*
%TO.P,SW2,2*%
%TO.N,Net-(D2-Pad2)*%
X-29751958Y51305901D03*
D29*
%TO.P,SW2,1*%
%TO.N,col1*%
X-38752000Y41865500D03*
D30*
%TO.P,SW2,2*%
%TO.N,Net-(D2-Pad2)*%
X-33652000Y39865500D03*
%TD*%
D26*
%TO.P,SW37,1*%
%TO.N,col3_r*%
X143714478Y18183213D03*
D27*
%TO.P,SW37,2*%
%TO.N,Net-(D37-Pad2)*%
X149345347Y19690068D03*
D17*
%TO.P,SW37,1*%
%TO.N,col3_r*%
X144345347Y18890068D03*
D28*
%TO.P,SW37,2*%
%TO.N,Net-(D37-Pad2)*%
X150745389Y20430469D03*
D29*
%TO.P,SW37,1*%
%TO.N,col3_r*%
X141745347Y10990068D03*
D30*
%TO.P,SW37,2*%
%TO.N,Net-(D37-Pad2)*%
X146845347Y8990068D03*
%TD*%
D26*
%TO.P,SW9,1*%
%TO.N,col2*%
X-17782869Y34808645D03*
D27*
%TO.P,SW9,2*%
%TO.N,Net-(D9-Pad2)*%
X-12152000Y36315500D03*
D17*
%TO.P,SW9,1*%
%TO.N,col2*%
X-17152000Y35515500D03*
D28*
%TO.P,SW9,2*%
%TO.N,Net-(D9-Pad2)*%
X-10751958Y37055901D03*
D29*
%TO.P,SW9,1*%
%TO.N,col2*%
X-19752000Y27615500D03*
D30*
%TO.P,SW9,2*%
%TO.N,Net-(D9-Pad2)*%
X-14652000Y25615500D03*
%TD*%
D26*
%TO.P,SW26,1*%
%TO.N,col4_r*%
X124714478Y53808213D03*
D27*
%TO.P,SW26,2*%
%TO.N,Net-(D26-Pad2)*%
X130345347Y55315068D03*
D17*
%TO.P,SW26,1*%
%TO.N,col4_r*%
X125345347Y54515068D03*
D28*
%TO.P,SW26,2*%
%TO.N,Net-(D26-Pad2)*%
X131745389Y56055469D03*
D29*
%TO.P,SW26,1*%
%TO.N,col4_r*%
X122745347Y46615068D03*
D30*
%TO.P,SW26,2*%
%TO.N,Net-(D26-Pad2)*%
X127845347Y44615068D03*
%TD*%
D26*
%TO.P,SW3,1*%
%TO.N,col2*%
X-17782869Y53808645D03*
D27*
%TO.P,SW3,2*%
%TO.N,Net-(D3-Pad2)*%
X-12152000Y55315500D03*
D17*
%TO.P,SW3,1*%
%TO.N,col2*%
X-17152000Y54515500D03*
D28*
%TO.P,SW3,2*%
%TO.N,Net-(D3-Pad2)*%
X-10751958Y56055901D03*
D29*
%TO.P,SW3,1*%
%TO.N,col2*%
X-19752000Y46615500D03*
D30*
%TO.P,SW3,2*%
%TO.N,Net-(D3-Pad2)*%
X-14652000Y44615500D03*
%TD*%
D26*
%TO.P,SW14,1*%
%TO.N,col1*%
X-36782869Y11058645D03*
D27*
%TO.P,SW14,2*%
%TO.N,Net-(D14-Pad2)*%
X-31152000Y12565500D03*
D17*
%TO.P,SW14,1*%
%TO.N,col1*%
X-36152000Y11765500D03*
D28*
%TO.P,SW14,2*%
%TO.N,Net-(D14-Pad2)*%
X-29751958Y13305901D03*
D29*
%TO.P,SW14,1*%
%TO.N,col1*%
X-38752000Y3865500D03*
D30*
%TO.P,SW14,2*%
%TO.N,Net-(D14-Pad2)*%
X-33652000Y1865500D03*
%TD*%
D26*
%TO.P,SW27,1*%
%TO.N,col5_r*%
X105714478Y51433213D03*
D27*
%TO.P,SW27,2*%
%TO.N,Net-(D27-Pad2)*%
X111345347Y52940068D03*
D17*
%TO.P,SW27,1*%
%TO.N,col5_r*%
X106345347Y52140068D03*
D28*
%TO.P,SW27,2*%
%TO.N,Net-(D27-Pad2)*%
X112745389Y53680469D03*
D29*
%TO.P,SW27,1*%
%TO.N,col5_r*%
X103745347Y44240068D03*
D30*
%TO.P,SW27,2*%
%TO.N,Net-(D27-Pad2)*%
X108845347Y42240068D03*
%TD*%
D26*
%TO.P,SW12,1*%
%TO.N,col5*%
X39217131Y32433645D03*
D27*
%TO.P,SW12,2*%
%TO.N,Net-(D12-Pad2)*%
X44848000Y33940500D03*
D17*
%TO.P,SW12,1*%
%TO.N,col5*%
X39848000Y33140500D03*
D28*
%TO.P,SW12,2*%
%TO.N,Net-(D12-Pad2)*%
X46248042Y34680901D03*
D29*
%TO.P,SW12,1*%
%TO.N,col5*%
X37248000Y25240500D03*
D30*
%TO.P,SW12,2*%
%TO.N,Net-(D12-Pad2)*%
X42348000Y23240500D03*
%TD*%
D36*
%TO.P,SW20,1*%
%TO.N,col4*%
X32676141Y-5868238D03*
D37*
%TO.P,SW20,2*%
%TO.N,Net-(D20-Pad2)*%
X38505146Y-5870104D03*
D17*
%TO.P,SW20,1*%
%TO.N,col4*%
X33468462Y-5348749D03*
D38*
%TO.P,SW20,2*%
%TO.N,Net-(D20-Pad2)*%
X40049113Y-5517289D03*
D39*
%TO.P,SW20,1*%
%TO.N,col4*%
X28912384Y-12306634D03*
D40*
%TO.P,SW20,2*%
%TO.N,Net-(D20-Pad2)*%
X33320968Y-15558462D03*
%TD*%
D26*
%TO.P,SW10,1*%
%TO.N,col3*%
X1217131Y37183645D03*
D27*
%TO.P,SW10,2*%
%TO.N,Net-(D10-Pad2)*%
X6848000Y38690500D03*
D17*
%TO.P,SW10,1*%
%TO.N,col3*%
X1848000Y37890500D03*
D28*
%TO.P,SW10,2*%
%TO.N,Net-(D10-Pad2)*%
X8248042Y39430901D03*
D29*
%TO.P,SW10,1*%
%TO.N,col3*%
X-752000Y29990500D03*
D30*
%TO.P,SW10,2*%
%TO.N,Net-(D10-Pad2)*%
X4348000Y27990500D03*
%TD*%
D26*
%TO.P,SW15,1*%
%TO.N,col2*%
X-17782869Y15808645D03*
D27*
%TO.P,SW15,2*%
%TO.N,Net-(D15-Pad2)*%
X-12152000Y17315500D03*
D17*
%TO.P,SW15,1*%
%TO.N,col2*%
X-17152000Y16515500D03*
D28*
%TO.P,SW15,2*%
%TO.N,Net-(D15-Pad2)*%
X-10751958Y18055901D03*
D29*
%TO.P,SW15,1*%
%TO.N,col2*%
X-19752000Y8615500D03*
D30*
%TO.P,SW15,2*%
%TO.N,Net-(D15-Pad2)*%
X-14652000Y6615500D03*
%TD*%
D26*
%TO.P,SW16,1*%
%TO.N,col3*%
X1217131Y18183645D03*
D27*
%TO.P,SW16,2*%
%TO.N,Net-(D16-Pad2)*%
X6848000Y19690500D03*
D17*
%TO.P,SW16,1*%
%TO.N,col3*%
X1848000Y18890500D03*
D28*
%TO.P,SW16,2*%
%TO.N,Net-(D16-Pad2)*%
X8248042Y20430901D03*
D29*
%TO.P,SW16,1*%
%TO.N,col3*%
X-752000Y10990500D03*
D30*
%TO.P,SW16,2*%
%TO.N,Net-(D16-Pad2)*%
X4348000Y8990500D03*
%TD*%
D26*
%TO.P,SW17,1*%
%TO.N,col4*%
X20217131Y15808645D03*
D27*
%TO.P,SW17,2*%
%TO.N,Net-(D17-Pad2)*%
X25848000Y17315500D03*
D17*
%TO.P,SW17,1*%
%TO.N,col4*%
X20848000Y16515500D03*
D28*
%TO.P,SW17,2*%
%TO.N,Net-(D17-Pad2)*%
X27248042Y18055901D03*
D29*
%TO.P,SW17,1*%
%TO.N,col4*%
X18248000Y8615500D03*
D30*
%TO.P,SW17,2*%
%TO.N,Net-(D17-Pad2)*%
X23348000Y6615500D03*
%TD*%
D26*
%TO.P,SW19,1*%
%TO.N,col3*%
X10717131Y-3816355D03*
D27*
%TO.P,SW19,2*%
%TO.N,Net-(D19-Pad2)*%
X16348000Y-2309500D03*
D17*
%TO.P,SW19,1*%
%TO.N,col3*%
X11348000Y-3109500D03*
D28*
%TO.P,SW19,2*%
%TO.N,Net-(D19-Pad2)*%
X17748042Y-1569099D03*
D29*
%TO.P,SW19,1*%
%TO.N,col3*%
X8748000Y-11009500D03*
D30*
%TO.P,SW19,2*%
%TO.N,Net-(D19-Pad2)*%
X13848000Y-13009500D03*
%TD*%
D26*
%TO.P,SW13,1*%
%TO.N,col0*%
X-55782869Y11058645D03*
D27*
%TO.P,SW13,2*%
%TO.N,Net-(D13-Pad2)*%
X-50152000Y12565500D03*
D17*
%TO.P,SW13,1*%
%TO.N,col0*%
X-55152000Y11765500D03*
D28*
%TO.P,SW13,2*%
%TO.N,Net-(D13-Pad2)*%
X-48751958Y13305901D03*
D29*
%TO.P,SW13,1*%
%TO.N,col0*%
X-57752000Y3865500D03*
D30*
%TO.P,SW13,2*%
%TO.N,Net-(D13-Pad2)*%
X-52652000Y1865500D03*
%TD*%
D26*
%TO.P,SW39,1*%
%TO.N,col5_r*%
X105714478Y13433213D03*
D27*
%TO.P,SW39,2*%
%TO.N,Net-(D39-Pad2)*%
X111345347Y14940068D03*
D17*
%TO.P,SW39,1*%
%TO.N,col5_r*%
X106345347Y14140068D03*
D28*
%TO.P,SW39,2*%
%TO.N,Net-(D39-Pad2)*%
X112745389Y15680469D03*
D29*
%TO.P,SW39,1*%
%TO.N,col5_r*%
X103745347Y6240068D03*
D30*
%TO.P,SW39,2*%
%TO.N,Net-(D39-Pad2)*%
X108845347Y4240068D03*
%TD*%
D26*
%TO.P,SW28,1*%
%TO.N,col0_r*%
X200714478Y30058213D03*
D27*
%TO.P,SW28,2*%
%TO.N,Net-(D28-Pad2)*%
X206345347Y31565068D03*
D17*
%TO.P,SW28,1*%
%TO.N,col0_r*%
X201345347Y30765068D03*
D28*
%TO.P,SW28,2*%
%TO.N,Net-(D28-Pad2)*%
X207745389Y32305469D03*
D29*
%TO.P,SW28,1*%
%TO.N,col0_r*%
X198745347Y22865068D03*
D30*
%TO.P,SW28,2*%
%TO.N,Net-(D28-Pad2)*%
X203845347Y20865068D03*
%TD*%
D26*
%TO.P,SW23,1*%
%TO.N,col1_r*%
X181714478Y49058213D03*
D27*
%TO.P,SW23,2*%
%TO.N,Net-(D23-Pad2)*%
X187345347Y50565068D03*
D17*
%TO.P,SW23,1*%
%TO.N,col1_r*%
X182345347Y49765068D03*
D28*
%TO.P,SW23,2*%
%TO.N,Net-(D23-Pad2)*%
X188745389Y51305469D03*
D29*
%TO.P,SW23,1*%
%TO.N,col1_r*%
X179745347Y41865068D03*
D30*
%TO.P,SW23,2*%
%TO.N,Net-(D23-Pad2)*%
X184845347Y39865068D03*
%TD*%
D26*
%TO.P,SW40,1*%
%TO.N,col3_r*%
X134214478Y-3816787D03*
D27*
%TO.P,SW40,2*%
%TO.N,Net-(D40-Pad2)*%
X139845347Y-2309932D03*
D17*
%TO.P,SW40,1*%
%TO.N,col3_r*%
X134845347Y-3109932D03*
D28*
%TO.P,SW40,2*%
%TO.N,Net-(D40-Pad2)*%
X141245389Y-1569531D03*
D29*
%TO.P,SW40,1*%
%TO.N,col3_r*%
X132245347Y-11009932D03*
D30*
%TO.P,SW40,2*%
%TO.N,Net-(D40-Pad2)*%
X137345347Y-13009932D03*
%TD*%
D26*
%TO.P,SW38,1*%
%TO.N,col4_r*%
X124714478Y15808213D03*
D27*
%TO.P,SW38,2*%
%TO.N,Net-(D38-Pad2)*%
X130345347Y17315068D03*
D17*
%TO.P,SW38,1*%
%TO.N,col4_r*%
X125345347Y16515068D03*
D28*
%TO.P,SW38,2*%
%TO.N,Net-(D38-Pad2)*%
X131745389Y18055469D03*
D29*
%TO.P,SW38,1*%
%TO.N,col4_r*%
X122745347Y8615068D03*
D30*
%TO.P,SW38,2*%
%TO.N,Net-(D38-Pad2)*%
X127845347Y6615068D03*
%TD*%
D26*
%TO.P,SW36,1*%
%TO.N,col2_r*%
X162714478Y15808213D03*
D27*
%TO.P,SW36,2*%
%TO.N,Net-(D36-Pad2)*%
X168345347Y17315068D03*
D17*
%TO.P,SW36,1*%
%TO.N,col2_r*%
X163345347Y16515068D03*
D28*
%TO.P,SW36,2*%
%TO.N,Net-(D36-Pad2)*%
X169745389Y18055469D03*
D29*
%TO.P,SW36,1*%
%TO.N,col2_r*%
X160745347Y8615068D03*
D30*
%TO.P,SW36,2*%
%TO.N,Net-(D36-Pad2)*%
X165845347Y6615068D03*
%TD*%
D26*
%TO.P,SW35,1*%
%TO.N,col1_r*%
X181714478Y11058213D03*
D27*
%TO.P,SW35,2*%
%TO.N,Net-(D35-Pad2)*%
X187345347Y12565068D03*
D17*
%TO.P,SW35,1*%
%TO.N,col1_r*%
X182345347Y11765068D03*
D28*
%TO.P,SW35,2*%
%TO.N,Net-(D35-Pad2)*%
X188745389Y13305469D03*
D29*
%TO.P,SW35,1*%
%TO.N,col1_r*%
X179745347Y3865068D03*
D30*
%TO.P,SW35,2*%
%TO.N,Net-(D35-Pad2)*%
X184845347Y1865068D03*
%TD*%
D26*
%TO.P,SW34,1*%
%TO.N,col0_r*%
X200714478Y11058213D03*
D27*
%TO.P,SW34,2*%
%TO.N,Net-(D34-Pad2)*%
X206345347Y12565068D03*
D17*
%TO.P,SW34,1*%
%TO.N,col0_r*%
X201345347Y11765068D03*
D28*
%TO.P,SW34,2*%
%TO.N,Net-(D34-Pad2)*%
X207745389Y13305469D03*
D29*
%TO.P,SW34,1*%
%TO.N,col0_r*%
X198745347Y3865068D03*
D30*
%TO.P,SW34,2*%
%TO.N,Net-(D34-Pad2)*%
X203845347Y1865068D03*
%TD*%
D26*
%TO.P,SW31,1*%
%TO.N,col3_r*%
X143714478Y37183213D03*
D27*
%TO.P,SW31,2*%
%TO.N,Net-(D31-Pad2)*%
X149345347Y38690068D03*
D17*
%TO.P,SW31,1*%
%TO.N,col3_r*%
X144345347Y37890068D03*
D28*
%TO.P,SW31,2*%
%TO.N,Net-(D31-Pad2)*%
X150745389Y39430469D03*
D29*
%TO.P,SW31,1*%
%TO.N,col3_r*%
X141745347Y29990068D03*
D30*
%TO.P,SW31,2*%
%TO.N,Net-(D31-Pad2)*%
X146845347Y27990068D03*
%TD*%
D26*
%TO.P,SW30,1*%
%TO.N,col2_r*%
X162714478Y34808213D03*
D27*
%TO.P,SW30,2*%
%TO.N,Net-(D30-Pad2)*%
X168345347Y36315068D03*
D17*
%TO.P,SW30,1*%
%TO.N,col2_r*%
X163345347Y35515068D03*
D28*
%TO.P,SW30,2*%
%TO.N,Net-(D30-Pad2)*%
X169745389Y37055469D03*
D29*
%TO.P,SW30,1*%
%TO.N,col2_r*%
X160745347Y27615068D03*
D30*
%TO.P,SW30,2*%
%TO.N,Net-(D30-Pad2)*%
X165845347Y25615068D03*
%TD*%
D26*
%TO.P,SW29,1*%
%TO.N,col1_r*%
X181714478Y30058213D03*
D27*
%TO.P,SW29,2*%
%TO.N,Net-(D29-Pad2)*%
X187345347Y31565068D03*
D17*
%TO.P,SW29,1*%
%TO.N,col1_r*%
X182345347Y30765068D03*
D28*
%TO.P,SW29,2*%
%TO.N,Net-(D29-Pad2)*%
X188745389Y32305469D03*
D29*
%TO.P,SW29,1*%
%TO.N,col1_r*%
X179745347Y22865068D03*
D30*
%TO.P,SW29,2*%
%TO.N,Net-(D29-Pad2)*%
X184845347Y20865068D03*
%TD*%
D26*
%TO.P,SW25,1*%
%TO.N,col3_r*%
X143714478Y56183213D03*
D27*
%TO.P,SW25,2*%
%TO.N,Net-(D25-Pad2)*%
X149345347Y57690068D03*
D17*
%TO.P,SW25,1*%
%TO.N,col3_r*%
X144345347Y56890068D03*
D28*
%TO.P,SW25,2*%
%TO.N,Net-(D25-Pad2)*%
X150745389Y58430469D03*
D29*
%TO.P,SW25,1*%
%TO.N,col3_r*%
X141745347Y48990068D03*
D30*
%TO.P,SW25,2*%
%TO.N,Net-(D25-Pad2)*%
X146845347Y46990068D03*
%TD*%
D26*
%TO.P,SW24,1*%
%TO.N,col2_r*%
X162714478Y53808213D03*
D27*
%TO.P,SW24,2*%
%TO.N,Net-(D24-Pad2)*%
X168345347Y55315068D03*
D17*
%TO.P,SW24,1*%
%TO.N,col2_r*%
X163345347Y54515068D03*
D28*
%TO.P,SW24,2*%
%TO.N,Net-(D24-Pad2)*%
X169745389Y56055469D03*
D29*
%TO.P,SW24,1*%
%TO.N,col2_r*%
X160745347Y46615068D03*
D30*
%TO.P,SW24,2*%
%TO.N,Net-(D24-Pad2)*%
X165845347Y44615068D03*
%TD*%
D26*
%TO.P,SW22,1*%
%TO.N,col0_r*%
X200714478Y49058213D03*
D27*
%TO.P,SW22,2*%
%TO.N,Net-(D22-Pad2)*%
X206345347Y50565068D03*
D17*
%TO.P,SW22,1*%
%TO.N,col0_r*%
X201345347Y49765068D03*
D28*
%TO.P,SW22,2*%
%TO.N,Net-(D22-Pad2)*%
X207745389Y51305469D03*
D29*
%TO.P,SW22,1*%
%TO.N,col0_r*%
X198745347Y41865068D03*
D30*
%TO.P,SW22,2*%
%TO.N,Net-(D22-Pad2)*%
X203845347Y39865068D03*
%TD*%
D26*
%TO.P,SW4,1*%
%TO.N,col3*%
X1217131Y56183645D03*
D27*
%TO.P,SW4,2*%
%TO.N,Net-(D4-Pad2)*%
X6848000Y57690500D03*
D17*
%TO.P,SW4,1*%
%TO.N,col3*%
X1848000Y56890500D03*
D28*
%TO.P,SW4,2*%
%TO.N,Net-(D4-Pad2)*%
X8248042Y58430901D03*
D29*
%TO.P,SW4,1*%
%TO.N,col3*%
X-752000Y48990500D03*
D30*
%TO.P,SW4,2*%
%TO.N,Net-(D4-Pad2)*%
X4348000Y46990500D03*
%TD*%
D26*
%TO.P,SW5,1*%
%TO.N,col4*%
X20217131Y53808645D03*
D27*
%TO.P,SW5,2*%
%TO.N,Net-(D5-Pad2)*%
X25848000Y55315500D03*
D17*
%TO.P,SW5,1*%
%TO.N,col4*%
X20848000Y54515500D03*
D28*
%TO.P,SW5,2*%
%TO.N,Net-(D5-Pad2)*%
X27248042Y56055901D03*
D29*
%TO.P,SW5,1*%
%TO.N,col4*%
X18248000Y46615500D03*
D30*
%TO.P,SW5,2*%
%TO.N,Net-(D5-Pad2)*%
X23348000Y44615500D03*
%TD*%
D26*
%TO.P,SW6,1*%
%TO.N,col5*%
X39217131Y51433645D03*
D27*
%TO.P,SW6,2*%
%TO.N,Net-(D6-Pad2)*%
X44848000Y52940500D03*
D17*
%TO.P,SW6,1*%
%TO.N,col5*%
X39848000Y52140500D03*
D28*
%TO.P,SW6,2*%
%TO.N,Net-(D6-Pad2)*%
X46248042Y53680901D03*
D29*
%TO.P,SW6,1*%
%TO.N,col5*%
X37248000Y44240500D03*
D30*
%TO.P,SW6,2*%
%TO.N,Net-(D6-Pad2)*%
X42348000Y42240500D03*
%TD*%
D41*
%TO.P,U2,24*%
%TO.N,Net-(U2-Pad24)*%
X81614747Y49477068D03*
%TO.P,U2,23*%
%TO.N,GNDA*%
X81614747Y46937068D03*
%TO.P,U2,22*%
%TO.N,reset_r*%
X81614747Y44397068D03*
%TO.P,U2,21*%
%TO.N,VDD*%
X81614747Y41857068D03*
%TO.P,U2,20*%
%TO.N,col0_r*%
X81614747Y39317068D03*
%TO.P,U2,19*%
%TO.N,col1_r*%
X81614747Y36777068D03*
%TO.P,U2,18*%
%TO.N,col2_r*%
X81614747Y34237068D03*
%TO.P,U2,17*%
%TO.N,col3_r*%
X81614747Y31697068D03*
%TO.P,U2,16*%
%TO.N,col4_r*%
X81614747Y29157068D03*
%TO.P,U2,15*%
%TO.N,col5_r*%
X81614747Y26617068D03*
%TO.P,U2,14*%
%TO.N,Net-(U2-Pad14)*%
X81614747Y24077068D03*
%TO.P,U2,13*%
%TO.N,Net-(U2-Pad13)*%
X81614747Y21537068D03*
%TO.P,U2,12*%
%TO.N,Net-(U2-Pad12)*%
X96834747Y21537068D03*
%TO.P,U2,11*%
%TO.N,Net-(U2-Pad11)*%
X96834747Y24077068D03*
%TO.P,U2,10*%
%TO.N,row3_r*%
X96834747Y26617068D03*
%TO.P,U2,9*%
%TO.N,row2_r*%
X96834747Y29157068D03*
%TO.P,U2,8*%
%TO.N,row1_r*%
X96834747Y31697068D03*
%TO.P,U2,7*%
%TO.N,row0_r*%
X96834747Y34237068D03*
%TO.P,U2,6*%
%TO.N,SCL_r*%
X96834747Y36777068D03*
%TO.P,U2,5*%
%TO.N,SDA_r*%
X96834747Y39317068D03*
%TO.P,U2,4*%
%TO.N,GNDA*%
X96834747Y41857068D03*
%TO.P,U2,3*%
X96834747Y44397068D03*
%TO.P,U2,2*%
%TO.N,data_r*%
X96834747Y46937068D03*
%TO.P,U2,1*%
%TO.N,Net-(U2-Pad1)*%
X96834747Y49477068D03*
%TD*%
%TO.P,U1,24*%
%TO.N,Net-(U1-Pad24)*%
X54444400Y49603500D03*
%TO.P,U1,23*%
%TO.N,GND*%
X54444400Y47063500D03*
%TO.P,U1,22*%
%TO.N,reset*%
X54444400Y44523500D03*
%TO.P,U1,21*%
%TO.N,VCC*%
X54444400Y41983500D03*
%TO.P,U1,20*%
%TO.N,col0*%
X54444400Y39443500D03*
%TO.P,U1,19*%
%TO.N,col1*%
X54444400Y36903500D03*
%TO.P,U1,18*%
%TO.N,col2*%
X54444400Y34363500D03*
%TO.P,U1,17*%
%TO.N,col3*%
X54444400Y31823500D03*
%TO.P,U1,16*%
%TO.N,col4*%
X54444400Y29283500D03*
%TO.P,U1,15*%
%TO.N,col5*%
X54444400Y26743500D03*
%TO.P,U1,14*%
%TO.N,Net-(U1-Pad14)*%
X54444400Y24203500D03*
%TO.P,U1,13*%
%TO.N,Net-(U1-Pad13)*%
X54444400Y21663500D03*
%TO.P,U1,12*%
%TO.N,Net-(U1-Pad12)*%
X69664400Y21663500D03*
%TO.P,U1,11*%
%TO.N,Net-(U1-Pad11)*%
X69664400Y24203500D03*
%TO.P,U1,10*%
%TO.N,row3*%
X69664400Y26743500D03*
%TO.P,U1,9*%
%TO.N,row2*%
X69664400Y29283500D03*
%TO.P,U1,8*%
%TO.N,row1*%
X69664400Y31823500D03*
%TO.P,U1,7*%
%TO.N,row0*%
X69664400Y34363500D03*
%TO.P,U1,6*%
%TO.N,SCL*%
X69664400Y36903500D03*
%TO.P,U1,5*%
%TO.N,SDA*%
X69664400Y39443500D03*
%TO.P,U1,4*%
%TO.N,GND*%
X69664400Y41983500D03*
%TO.P,U1,3*%
X69664400Y44523500D03*
%TO.P,U1,2*%
%TO.N,data*%
X69664400Y47063500D03*
%TO.P,U1,1*%
%TO.N,Net-(U1-Pad1)*%
X69664400Y49603500D03*
%TD*%
D42*
%TO.N,col0*%
X-40142000Y24275500D03*
%TO.N,col1*%
X-36855000Y22191500D03*
%TO.N,col2*%
X-17955000Y20224490D03*
%TO.N,col3*%
X798000Y20495500D03*
%TO.N,col4*%
X19958000Y21065500D03*
%TO.N,col5*%
X39145000Y18850438D03*
%TO.N,row2_r*%
X100675347Y16675068D03*
X100675347Y23485067D03*
%TO.N,row3_r*%
X100055347Y15915068D03*
X100125347Y24315068D03*
%TO.N,col0_r*%
X190805347Y22968058D03*
%TO.N,col2_r*%
X161543217Y21838058D03*
%TO.N,col3_r*%
X142605347Y21384047D03*
%TO.N,col4_r*%
X123684297Y20851086D03*
%TO.N,col5_r*%
X105105347Y18445080D03*
%TD*%
D43*
%TO.N,Net-(D1-Pad2)*%
X-50112000Y50845500D02*
X-49783750Y50517250D01*
D44*
X-52652000Y39894500D02*
X-52652000Y39865500D01*
X-49345000Y43201500D02*
X-52652000Y39894500D01*
X-49345000Y50078500D02*
X-49345000Y43201500D01*
X-50112000Y50845500D02*
X-49345000Y50078500D01*
D43*
%TO.N,Net-(D2-Pad2)*%
X-30783750Y50517250D02*
X-31112000Y50845500D01*
D44*
X-33402000Y39865500D02*
X-33652000Y39865500D01*
X-30345000Y50078500D02*
X-30345000Y42922500D01*
X-30345000Y42922500D02*
X-33402000Y39865500D01*
X-31112000Y50845500D02*
X-30345000Y50078500D01*
D43*
%TO.N,Net-(D3-Pad2)*%
X-12112000Y55595500D02*
X-11783750Y55267250D01*
D44*
X-14402000Y44615500D02*
X-14652000Y44615500D01*
X-11375000Y47642500D02*
X-14402000Y44615500D01*
X-11375000Y54858500D02*
X-11375000Y47642500D01*
X-12112000Y55595500D02*
X-11375000Y54858500D01*
D43*
%TO.N,Net-(D4-Pad2)*%
X6888000Y57970500D02*
X7216250Y57642250D01*
D44*
X4598000Y46990500D02*
X4348000Y46990500D01*
X7615000Y50007500D02*
X4598000Y46990500D01*
X7615000Y57243500D02*
X7615000Y50007500D01*
X6888000Y57970500D02*
X7615000Y57243500D01*
D43*
%TO.N,Net-(D5-Pad2)*%
X25888000Y55595500D02*
X26216250Y55267250D01*
D44*
X26645000Y47851500D02*
X23409000Y44615500D01*
X23409000Y44615500D02*
X23348000Y44615500D01*
X26645000Y54838500D02*
X26645000Y47851500D01*
X25888000Y55595500D02*
X26645000Y54838500D01*
D43*
%TO.N,Net-(D6-Pad2)*%
X44888000Y53220500D02*
X45216250Y52892250D01*
D44*
X42598000Y42240500D02*
X42348000Y42240500D01*
X45645000Y45287500D02*
X42598000Y42240500D01*
X45645000Y52463500D02*
X45645000Y45287500D01*
X44888000Y53220500D02*
X45645000Y52463500D01*
D43*
%TO.N,Net-(D7-Pad2)*%
X-49783750Y31517250D02*
X-50112000Y31845500D01*
D44*
X-52402000Y20865500D02*
X-52652000Y20865500D01*
X-49375000Y23892500D02*
X-52402000Y20865500D01*
X-49375000Y31108500D02*
X-49375000Y23892500D01*
X-50112000Y31845500D02*
X-49375000Y31108500D01*
D43*
%TO.N,Net-(D8-Pad2)*%
X-31112000Y31845500D02*
X-30783750Y31517250D01*
D44*
X-33541000Y20865500D02*
X-33652000Y20865500D01*
X-30395000Y24011500D02*
X-33541000Y20865500D01*
X-30395000Y31128500D02*
X-30395000Y24011500D01*
X-31112000Y31845500D02*
X-30395000Y31128500D01*
D43*
%TO.N,Net-(D9-Pad2)*%
X-12112000Y36595500D02*
X-11783750Y36267250D01*
D44*
X-14402000Y25615500D02*
X-14652000Y25615500D01*
X-11235000Y28782500D02*
X-14402000Y25615500D01*
X-11235000Y35718500D02*
X-11235000Y28782500D01*
X-12112000Y36595500D02*
X-11235000Y35718500D01*
D43*
%TO.N,Net-(D10-Pad2)*%
X6888000Y38970500D02*
X7216250Y38642250D01*
D44*
X7605000Y30997500D02*
X4598000Y27990500D01*
X4598000Y27990500D02*
X4348000Y27990500D01*
X7605000Y38253500D02*
X7605000Y30997500D01*
X6888000Y38970500D02*
X7605000Y38253500D01*
D43*
%TO.N,Net-(D11-Pad2)*%
X25888000Y36595500D02*
X26216250Y36267250D01*
D44*
X23598000Y25615500D02*
X23348000Y25615500D01*
X26725000Y28742500D02*
X23598000Y25615500D01*
X26725000Y35758500D02*
X26725000Y28742500D01*
X25888000Y36595500D02*
X26725000Y35758500D01*
D43*
%TO.N,Net-(D12-Pad2)*%
X44888000Y34220500D02*
X45216250Y33892250D01*
D44*
X42598000Y23240500D02*
X42348000Y23240500D01*
X45765000Y26407500D02*
X42598000Y23240500D01*
X45765000Y33343500D02*
X45765000Y26407500D01*
X44888000Y34220500D02*
X45765000Y33343500D01*
D43*
%TO.N,Net-(D13-Pad2)*%
X-50112000Y12845500D02*
X-49783750Y12517250D01*
D44*
X-52402000Y1865500D02*
X-52652000Y1865500D01*
X-49415000Y4852500D02*
X-52402000Y1865500D01*
X-49415000Y12148500D02*
X-49415000Y4852500D01*
X-50112000Y12845500D02*
X-49415000Y12148500D01*
D43*
%TO.N,Net-(D14-Pad2)*%
X-31112000Y12845500D02*
X-30783750Y12517250D01*
D44*
X-33402000Y1865500D02*
X-33652000Y1865500D01*
X-30305000Y4962500D02*
X-33402000Y1865500D01*
X-30305000Y12038500D02*
X-30305000Y4962500D01*
X-31112000Y12845500D02*
X-30305000Y12038500D01*
D43*
%TO.N,Net-(D15-Pad2)*%
X-12112000Y17595500D02*
X-11783750Y17267250D01*
D44*
X-14402000Y6615500D02*
X-14652000Y6615500D01*
X-11305000Y9712500D02*
X-14402000Y6615500D01*
X-11305000Y16788500D02*
X-11305000Y9712500D01*
X-12112000Y17595500D02*
X-11305000Y16788500D01*
D43*
%TO.N,Net-(D16-Pad2)*%
X6888000Y19970500D02*
X7216250Y19642250D01*
D44*
X4598000Y8990500D02*
X4348000Y8990500D01*
X7745000Y12137500D02*
X4598000Y8990500D01*
X7745000Y19113500D02*
X7745000Y12137500D01*
X6888000Y19970500D02*
X7745000Y19113500D01*
D43*
%TO.N,Net-(D17-Pad2)*%
X25888000Y17595500D02*
X26216250Y17267250D01*
D44*
X23598000Y6615500D02*
X23348000Y6615500D01*
X26645000Y9662500D02*
X23598000Y6615500D01*
X26645000Y16838500D02*
X26645000Y9662500D01*
X25888000Y17595500D02*
X26645000Y16838500D01*
D43*
%TO.N,Net-(D18-Pad2)*%
X44888000Y15220500D02*
X45216250Y14892250D01*
D44*
X42598000Y4240500D02*
X42348000Y4240500D01*
X45655000Y14453500D02*
X45655000Y7297500D01*
X45655000Y7297500D02*
X42598000Y4240500D01*
X44888000Y15220500D02*
X45655000Y14453500D01*
D43*
%TO.N,Net-(D19-Pad2)*%
X16388000Y-2029500D02*
X16716250Y-2357750D01*
D44*
X17075000Y-10032500D02*
X14098000Y-13009500D01*
X14098000Y-13009500D02*
X13848000Y-13009500D01*
X17075000Y-2716500D02*
X17075000Y-10032500D01*
X16388000Y-2029500D02*
X17075000Y-2716500D01*
%TO.N,Net-(D20-Pad2)*%
X33745038Y-15558462D02*
X33320968Y-15558462D01*
X38165000Y-11138500D02*
X33745038Y-15558462D01*
X38165000Y-6061249D02*
X38165000Y-11138500D01*
X38616252Y-5609997D02*
X38165000Y-6061249D01*
%TO.N,Net-(D21-Pad2)*%
X62207550Y-14241050D02*
X62207550Y-16559500D01*
X57445000Y-9478500D02*
X62207550Y-14241050D01*
X54577296Y-9478500D02*
X57445000Y-9478500D01*
X53968591Y-8869795D02*
X54577296Y-9478500D01*
D45*
%TO.N,GND*%
X69664400Y44523500D02*
X69664400Y41983500D01*
X71375000Y40272900D02*
X71375000Y18974500D01*
X69664400Y41983500D02*
X71375000Y40272900D01*
X65918000Y14517500D02*
X65809000Y14517500D01*
X69665000Y18264500D02*
X65918000Y14517500D01*
X70375000Y18974500D02*
X69665000Y18264500D01*
X71375000Y18974500D02*
X70375000Y18974500D01*
X65543000Y5153500D02*
X65809000Y4887500D01*
X65497000Y5153500D02*
X65543000Y5153500D01*
X71375000Y11031500D02*
X65497000Y5153500D01*
X71375000Y18974500D02*
X71375000Y11031500D01*
%TO.N,VCC*%
X55660401Y40767499D02*
X55709001Y40767499D01*
X54444400Y41983500D02*
X55660401Y40767499D01*
X55709001Y40767499D02*
X56745000Y39731500D01*
X56745000Y39731500D02*
X56745000Y12931500D01*
X60713000Y11961500D02*
X63269000Y14517500D01*
X57715000Y11961500D02*
X60713000Y11961500D01*
X56745000Y12931500D02*
X57715000Y11961500D01*
X56705000Y12891500D02*
X56745000Y12931500D01*
X56705000Y8371500D02*
X56705000Y12891500D01*
X59923000Y5153500D02*
X56705000Y8371500D01*
X61075000Y5153500D02*
X59923000Y5153500D01*
D43*
%TO.N,col0*%
X-56462000Y10305500D02*
X-56315000Y10158500D01*
X-56315000Y29452500D02*
X-56462000Y29305500D01*
X-56462000Y48305500D02*
X-56315000Y48158500D01*
X-56305000Y19211500D02*
X-56305000Y22841500D01*
X-56305000Y10462500D02*
X-56462000Y10305500D01*
X-56462000Y29305500D02*
X-56305000Y29148500D01*
D44*
X-57509000Y41865500D02*
X-56315000Y40671500D01*
X-57752000Y41865500D02*
X-57509000Y41865500D01*
D43*
X-56315000Y40671500D02*
X-56315000Y29452500D01*
X-56315000Y48158500D02*
X-56315000Y40671500D01*
D44*
X-57509000Y22865500D02*
X-56305000Y21661500D01*
X-57752000Y22865500D02*
X-57509000Y22865500D01*
D43*
X-56305000Y21661500D02*
X-56305000Y10462500D01*
X-56305000Y29148500D02*
X-56305000Y21661500D01*
D44*
X-56165000Y10008500D02*
X-56462000Y10305500D01*
X-56165000Y5511500D02*
X-56165000Y10008500D01*
X-57752000Y3924500D02*
X-56165000Y5511500D01*
X-57752000Y3865500D02*
X-57752000Y3924500D01*
X-56305000Y17362500D02*
X-56305000Y17313500D01*
X-50642000Y20025500D02*
X-51642000Y19025500D01*
X-51642000Y19025500D02*
X-54642000Y19025500D01*
X-40441999Y22350501D02*
X-42767000Y20025500D01*
X-40441999Y23975501D02*
X-40441999Y22350501D01*
X-54642000Y19025500D02*
X-56305000Y17362500D01*
X-42767000Y20025500D02*
X-50642000Y20025500D01*
X-40142000Y24275500D02*
X-40441999Y23975501D01*
D43*
%TO.N,col1*%
X-37462000Y10305500D02*
X-37315000Y10158500D01*
X-37315000Y29452500D02*
X-37462000Y29305500D01*
X-37462000Y48305500D02*
X-37315000Y48158500D01*
X-37455000Y10312500D02*
X-37455000Y18591500D01*
X-37462000Y10305500D02*
X-37455000Y10312500D01*
X-37455000Y18591500D02*
X-37455000Y21591500D01*
X-37455000Y21591500D02*
X-37154999Y21891501D01*
X-37154999Y21891501D02*
X-36855000Y22191500D01*
D44*
X-38559000Y22865500D02*
X-37455000Y21761500D01*
X-38752000Y22865500D02*
X-38559000Y22865500D01*
D43*
X-37455000Y21761500D02*
X-37455000Y18591500D01*
D44*
X-38459000Y41865500D02*
X-37315000Y40721500D01*
X-38752000Y41865500D02*
X-38459000Y41865500D01*
D43*
X-37315000Y40721500D02*
X-37315000Y29452500D01*
X-37315000Y48158500D02*
X-37315000Y40721500D01*
D44*
X-37295000Y10138500D02*
X-37462000Y10305500D01*
X-37295000Y5322500D02*
X-37295000Y10138500D01*
X-38752000Y3865500D02*
X-37295000Y5322500D01*
D43*
X-37225000Y21991500D02*
X-37455000Y21761500D01*
X-37225000Y29068500D02*
X-37225000Y21991500D01*
X-37462000Y29305500D02*
X-37225000Y29068500D01*
%TO.N,col2*%
X-18462000Y15055500D02*
X-18315000Y14908500D01*
X-18315000Y34202500D02*
X-18462000Y34055500D01*
X-18462000Y53055500D02*
X-18315000Y52908500D01*
X-18455000Y15062500D02*
X-18462000Y15055500D01*
X-18455000Y22391500D02*
X-18455000Y15062500D01*
D44*
X-19752000Y46615500D02*
X-19479000Y46615500D01*
X-19479000Y46615500D02*
X-18315000Y45451500D01*
D43*
X-18315000Y45451500D02*
X-18315000Y34202500D01*
X-18315000Y52908500D02*
X-18315000Y45451500D01*
X-18455000Y20724490D02*
X-18254999Y20524489D01*
X-18254999Y20524489D02*
X-17955000Y20224490D01*
X-18455000Y22391500D02*
X-18455000Y20724490D01*
X-18455000Y26421500D02*
X-18455000Y22620000D01*
X-18455000Y22620000D02*
X-18455000Y22391500D01*
D44*
X-18455000Y26481500D02*
X-18455000Y26421500D01*
X-19589000Y27615500D02*
X-18455000Y26481500D01*
X-19752000Y27615500D02*
X-19589000Y27615500D01*
D43*
X-18455000Y26581500D02*
X-18455000Y26421500D01*
X-17985000Y27051500D02*
X-18455000Y26581500D01*
X-17985000Y33578500D02*
X-17985000Y27051500D01*
X-18462000Y34055500D02*
X-17985000Y33578500D01*
D44*
X-18205000Y14798500D02*
X-18462000Y15055500D01*
X-18205000Y9912500D02*
X-18205000Y14798500D01*
X-19502000Y8615500D02*
X-18205000Y9912500D01*
X-19752000Y8615500D02*
X-19502000Y8615500D01*
D43*
%TO.N,col3*%
X10038000Y-4569500D02*
X10185000Y-4716500D01*
X538000Y17430500D02*
X685000Y17283500D01*
X645000Y36537500D02*
X538000Y36430500D01*
X685000Y55283500D02*
X685000Y50427500D01*
X685000Y50427500D02*
X645000Y50387500D01*
X538000Y55430500D02*
X685000Y55283500D01*
X538000Y36430500D02*
X685000Y36283500D01*
X645000Y17537500D02*
X538000Y17430500D01*
X538000Y36430500D02*
X645000Y36323500D01*
D44*
X-514000Y48990500D02*
X645000Y47831500D01*
X-752000Y48990500D02*
X-514000Y48990500D01*
D43*
X645000Y47831500D02*
X645000Y36537500D01*
X645000Y50387500D02*
X645000Y47831500D01*
D44*
X-574000Y29990500D02*
X645000Y28771500D01*
X-752000Y29990500D02*
X-574000Y29990500D01*
D43*
X645000Y28771500D02*
X645000Y17537500D01*
X645000Y36323500D02*
X645000Y28771500D01*
D44*
X-444000Y10990500D02*
X685000Y9861500D01*
X-752000Y10990500D02*
X-444000Y10990500D01*
D43*
X685000Y17283500D02*
X685000Y9861500D01*
D44*
X10335000Y-4866500D02*
X10038000Y-4569500D01*
X10335000Y-9422500D02*
X10335000Y-4866500D01*
X8748000Y-11009500D02*
X10335000Y-9422500D01*
D43*
X10038000Y-3156500D02*
X10038000Y-4569500D01*
X685000Y6196500D02*
X10038000Y-3156500D01*
X685000Y9861500D02*
X685000Y6196500D01*
X745001Y20128489D02*
X745001Y21491499D01*
X773610Y20099880D02*
X745001Y20128489D01*
X798000Y20495500D02*
X773610Y20099880D01*
%TO.N,col4*%
X31825223Y-4961723D02*
X31825223Y-6419948D01*
X19685000Y7178500D02*
X31825223Y-4961723D01*
X19538000Y15055500D02*
X19685000Y14908500D01*
X19645000Y15162500D02*
X19538000Y15055500D01*
X19538000Y34055500D02*
X19685000Y33908500D01*
X19685000Y34202500D02*
X19538000Y34055500D01*
X19538000Y53055500D02*
X19685000Y52908500D01*
X19695000Y15212500D02*
X19538000Y15055500D01*
X19538000Y34055500D02*
X19695000Y33898500D01*
D44*
X31825223Y-9393795D02*
X28912384Y-12306634D01*
X31825223Y-6419948D02*
X31825223Y-9393795D01*
D43*
X19685000Y7191500D02*
X19685000Y7178500D01*
X19685000Y14908500D02*
X19685000Y7191500D01*
D44*
X19655000Y7191500D02*
X19685000Y7191500D01*
X18248000Y8598500D02*
X19655000Y7191500D01*
X18248000Y8615500D02*
X18248000Y8598500D01*
X18521000Y46615500D02*
X19685000Y45451500D01*
X18248000Y46615500D02*
X18521000Y46615500D01*
D43*
X19685000Y45451500D02*
X19685000Y34202500D01*
X19685000Y52908500D02*
X19685000Y45451500D01*
D44*
X18248000Y27615500D02*
X18491000Y27615500D01*
X18491000Y27615500D02*
X19695000Y26411500D01*
D43*
X19695000Y26411500D02*
X19695000Y15212500D01*
X19695000Y33898500D02*
X19695000Y26411500D01*
X19882000Y21065500D02*
X19958000Y21065500D01*
X19695000Y20878500D02*
X19882000Y21065500D01*
X19695000Y19911500D02*
X19695000Y20878500D01*
%TO.N,col5*%
X38685000Y12533500D02*
X38685000Y4803500D01*
X38538000Y12680500D02*
X38685000Y12533500D01*
X38685000Y31827500D02*
X38538000Y31680500D01*
X38538000Y50680500D02*
X38685000Y50533500D01*
X38685000Y12827500D02*
X38538000Y12680500D01*
X38538000Y31680500D02*
X38685000Y31533500D01*
D44*
X38685000Y4803500D02*
X37248000Y6240500D01*
X37248000Y44240500D02*
X37466000Y44240500D01*
X37466000Y44240500D02*
X38685000Y43021500D01*
D43*
X38685000Y43021500D02*
X38685000Y31827500D01*
X38685000Y50533500D02*
X38685000Y43021500D01*
D44*
X37248000Y25240500D02*
X37446000Y25240500D01*
X38625000Y24061500D02*
X38685000Y24061500D01*
X37446000Y25240500D02*
X38625000Y24061500D01*
D43*
X38685000Y24061500D02*
X38685000Y12827500D01*
X38685000Y31533500D02*
X38685000Y24061500D01*
X38720736Y18850438D02*
X39145000Y18850438D01*
X38685000Y18814702D02*
X38720736Y18850438D01*
X38685000Y18751500D02*
X38685000Y18814702D01*
D44*
X57925499Y-19028999D02*
X57925499Y-19976230D01*
X54505000Y-15608500D02*
X57925499Y-19028999D01*
X53023852Y-15608500D02*
X54505000Y-15608500D01*
X52993295Y-15639057D02*
X53023852Y-15608500D01*
D43*
X51145000Y-13790762D02*
X52993295Y-15639057D01*
X51145000Y-13018500D02*
X51145000Y-13790762D01*
D44*
X38685000Y4181500D02*
X38685000Y4803500D01*
X51145000Y-8278500D02*
X38685000Y4181500D01*
X51145000Y-13018500D02*
X51145000Y-8278500D01*
D43*
%TO.N,data*%
X68075000Y4553500D02*
X68075000Y5153500D01*
X65683000Y2161500D02*
X68075000Y4553500D01*
X51985000Y5791500D02*
X55615000Y2161500D01*
X55615000Y2161500D02*
X65683000Y2161500D01*
X51985000Y46561500D02*
X51985000Y5791500D01*
X53755000Y48331500D02*
X51985000Y46561500D01*
X68396400Y48331500D02*
X53755000Y48331500D01*
X69664400Y47063500D02*
X68396400Y48331500D01*
%TO.N,reset*%
X69378000Y11764500D02*
X69665000Y11764500D01*
X62995000Y5381500D02*
X69378000Y11764500D01*
X52439010Y5979556D02*
X55747066Y2671500D01*
X55747066Y2671500D02*
X62185000Y2671500D01*
X62995000Y3481500D02*
X62995000Y5381500D01*
X54444400Y44523500D02*
X52439010Y42518110D01*
X52439010Y42518110D02*
X52439010Y5979556D01*
X62185000Y2671500D02*
X62995000Y3481500D01*
%TO.N,SCL*%
X61427499Y15215999D02*
X60729000Y14517500D01*
X69664400Y36903500D02*
X67799011Y35038111D01*
X62048989Y15837489D02*
X61427499Y15215999D01*
X67799010Y18803442D02*
X64833057Y15837489D01*
X64833057Y15837489D02*
X62048989Y15837489D01*
X67799011Y35038111D02*
X67799010Y18803442D01*
%TO.N,SDA*%
X64645000Y16291500D02*
X59945000Y16291500D01*
X59945000Y16291500D02*
X58189000Y14535500D01*
X67345000Y37124100D02*
X67345000Y18991500D01*
X67345000Y18991500D02*
X64645000Y16291500D01*
X58189000Y14535500D02*
X58189000Y14517500D01*
X69664400Y39443500D02*
X67345000Y37124100D01*
%TO.N,Net-(D22-Pad2)*%
X206385347Y50845068D02*
X206814097Y50416318D01*
D44*
X204095347Y39865068D02*
X203845347Y39865068D01*
X207095347Y42865068D02*
X204095347Y39865068D01*
X207095347Y50135068D02*
X207095347Y42865068D01*
X206385347Y50845068D02*
X207095347Y50135068D01*
D43*
%TO.N,Net-(D23-Pad2)*%
X187385347Y50845068D02*
X187814097Y50416318D01*
D44*
X185095347Y39865068D02*
X184845347Y39865068D01*
X188235347Y43005068D02*
X185095347Y39865068D01*
X188235347Y49995068D02*
X188235347Y43005068D01*
X187385347Y50845068D02*
X188235347Y49995068D01*
D43*
%TO.N,Net-(D24-Pad2)*%
X168385347Y55595068D02*
X168814097Y55166318D01*
D44*
X166095347Y44615068D02*
X165845347Y44615068D01*
X169175347Y47695068D02*
X166095347Y44615068D01*
X169175347Y54805068D02*
X169175347Y47695068D01*
X168385347Y55595068D02*
X169175347Y54805068D01*
D43*
%TO.N,Net-(D25-Pad2)*%
X149385347Y57970068D02*
X149814097Y57541318D01*
D44*
X150155347Y50050068D02*
X147095347Y46990068D01*
X150155347Y57200068D02*
X150155347Y50050068D01*
X147095347Y46990068D02*
X146845347Y46990068D01*
X149385347Y57970068D02*
X150155347Y57200068D01*
D43*
%TO.N,Net-(D26-Pad2)*%
X130385347Y55595068D02*
X130814097Y55166318D01*
D44*
X128095347Y44615068D02*
X127845347Y44615068D01*
X131035347Y47555068D02*
X128095347Y44615068D01*
X131035347Y54945068D02*
X131035347Y47555068D01*
X130385347Y55595068D02*
X131035347Y54945068D01*
D43*
%TO.N,Net-(D27-Pad2)*%
X111385347Y53220068D02*
X111814097Y52791318D01*
D44*
X112345347Y45490068D02*
X109095347Y42240068D01*
X112345347Y52260068D02*
X112345347Y45490068D01*
X109095347Y42240068D02*
X108845347Y42240068D01*
X111385347Y53220068D02*
X112345347Y52260068D01*
D43*
%TO.N,Net-(D28-Pad2)*%
X206385347Y31845068D02*
X206814097Y31416318D01*
D44*
X203875347Y20865068D02*
X203845347Y20865068D01*
X206985347Y23975068D02*
X203875347Y20865068D01*
X206985347Y31245068D02*
X206985347Y23975068D01*
X206385347Y31845068D02*
X206985347Y31245068D01*
D43*
%TO.N,Net-(D29-Pad2)*%
X187385347Y31845068D02*
X187814097Y31416318D01*
D44*
X188025347Y23795068D02*
X185095347Y20865068D01*
X188025347Y31205068D02*
X188025347Y23795068D01*
X185095347Y20865068D02*
X184845347Y20865068D01*
X187385347Y31845068D02*
X188025347Y31205068D01*
D43*
%TO.N,Net-(D30-Pad2)*%
X168385347Y36595068D02*
X168814097Y36166318D01*
D44*
X169175347Y28865068D02*
X165925347Y25615068D01*
X165925347Y25615068D02*
X165845347Y25615068D01*
X169175347Y35805068D02*
X169175347Y28865068D01*
X168385347Y36595068D02*
X169175347Y35805068D01*
D43*
%TO.N,Net-(D31-Pad2)*%
X149385347Y38970068D02*
X149814097Y38541318D01*
D44*
X150215347Y38140068D02*
X150215347Y31110068D01*
X147095347Y27990068D02*
X146845347Y27990068D01*
X150215347Y31110068D02*
X147095347Y27990068D01*
X149385347Y38970068D02*
X150215347Y38140068D01*
D43*
%TO.N,Net-(D32-Pad2)*%
X130385347Y36595068D02*
X130814097Y36166318D01*
D44*
X128095347Y25615068D02*
X127845347Y25615068D01*
X131145347Y28665068D02*
X128095347Y25615068D01*
X131145347Y35835068D02*
X131145347Y28665068D01*
X130385347Y36595068D02*
X131145347Y35835068D01*
D43*
%TO.N,Net-(D33-Pad2)*%
X111385347Y34220068D02*
X111814097Y33791318D01*
D44*
X109095347Y23240068D02*
X108845347Y23240068D01*
X112235347Y33370068D02*
X112235347Y26380068D01*
X112235347Y26380068D02*
X109095347Y23240068D01*
X111385347Y34220068D02*
X112235347Y33370068D01*
D43*
%TO.N,row2_r*%
X100195347Y23005067D02*
X100675347Y23485067D01*
X100195347Y17155068D02*
X100195347Y23005067D01*
X100675347Y16675068D02*
X100195347Y17155068D01*
%TO.N,Net-(D34-Pad2)*%
X206385347Y12845068D02*
X206814097Y12416318D01*
D44*
X204095347Y1865068D02*
X203845347Y1865068D01*
X207095347Y4865068D02*
X204095347Y1865068D01*
X207095347Y12135068D02*
X207095347Y4865068D01*
X206385347Y12845068D02*
X207095347Y12135068D01*
D43*
%TO.N,Net-(D35-Pad2)*%
X187385347Y12845068D02*
X187814097Y12416318D01*
D44*
X185095347Y1865068D02*
X184845347Y1865068D01*
X187975347Y4745068D02*
X185095347Y1865068D01*
X187975347Y12255068D02*
X187975347Y4745068D01*
X187385347Y12845068D02*
X187975347Y12255068D01*
D43*
%TO.N,Net-(D36-Pad2)*%
X168385347Y17595068D02*
X168814097Y17166318D01*
D44*
X169175347Y9695068D02*
X166095347Y6615068D01*
X166095347Y6615068D02*
X165845347Y6615068D01*
X169175347Y16805068D02*
X169175347Y9695068D01*
X168385347Y17595068D02*
X169175347Y16805068D01*
D43*
%TO.N,Net-(D37-Pad2)*%
X149385347Y19970068D02*
X149814097Y19541318D01*
D44*
X147050347Y8990068D02*
X146845347Y8990068D01*
X150215347Y12155068D02*
X147050347Y8990068D01*
X150215347Y19140068D02*
X150215347Y12155068D01*
X149385347Y19970068D02*
X150215347Y19140068D01*
D43*
%TO.N,Net-(D38-Pad2)*%
X130385347Y17595068D02*
X130814097Y17166318D01*
D44*
X130925347Y9445068D02*
X128095347Y6615068D01*
X130925347Y17055068D02*
X130925347Y9445068D01*
X128095347Y6615068D02*
X127845347Y6615068D01*
X130385347Y17595068D02*
X130925347Y17055068D01*
%TO.N,Net-(D39-Pad2)*%
X109095347Y4240068D02*
X108845347Y4240068D01*
X112185347Y7330068D02*
X109095347Y4240068D01*
X112185347Y14420068D02*
X112185347Y7330068D01*
X111385347Y15220068D02*
X112185347Y14420068D01*
D43*
%TO.N,Net-(D40-Pad2)*%
X139885347Y-2029932D02*
X140314097Y-2458682D01*
D44*
X140375347Y-10229932D02*
X137595347Y-13009932D01*
X137595347Y-13009932D02*
X137345347Y-13009932D01*
X140375347Y-2519932D02*
X140375347Y-10229932D01*
X139885347Y-2029932D02*
X140375347Y-2519932D01*
D43*
%TO.N,row3_r*%
X99825348Y24015069D02*
X100125347Y24315068D01*
X99725348Y23915069D02*
X99825348Y24015069D01*
X100055347Y15915068D02*
X99725348Y16245067D01*
X99725348Y16245067D02*
X99725348Y23915069D01*
D44*
%TO.N,Net-(D41-Pad2)*%
X118795556Y-14635717D02*
X117872379Y-15558894D01*
X119245347Y-14185926D02*
X118795556Y-14635717D01*
X119245347Y-6056977D02*
X119245347Y-14185926D01*
X117483998Y-4295628D02*
X119245347Y-6056977D01*
D43*
%TO.N,Net-(D42-Pad2)*%
X99764756Y-13269637D02*
X98947382Y-13269637D01*
D44*
X89350797Y-16924932D02*
X88985797Y-16559932D01*
X94935347Y-16924932D02*
X89350797Y-16924932D01*
X98590642Y-13269637D02*
X94935347Y-16924932D01*
X99764756Y-13269637D02*
X98590642Y-13269637D01*
D43*
%TO.N,data_r*%
X96119358Y2499079D02*
X87685336Y2499079D01*
X98786746Y5166467D02*
X96119358Y2499079D01*
X83068347Y7116068D02*
X83068347Y9220068D01*
X98786746Y23323639D02*
X98786746Y5166467D01*
X83068347Y9220068D02*
X83068347Y8220068D01*
X87685336Y2499079D02*
X83068347Y7116068D01*
X98784336Y23326049D02*
X98786746Y23323639D01*
X98784335Y44987480D02*
X98784336Y23326049D01*
X96834747Y46937068D02*
X98784335Y44987480D01*
%TO.N,SDA_r*%
X96834747Y39317068D02*
X94905347Y37387668D01*
X85270347Y14710068D02*
X85270347Y14375068D01*
X91879358Y16219079D02*
X86779358Y16219079D01*
X94905347Y37387668D02*
X94905347Y19245068D01*
X86779358Y16219079D02*
X85270347Y14710068D01*
X94905347Y19245068D02*
X91879358Y16219079D01*
%TO.N,SCL_r*%
X89200347Y15765068D02*
X87810347Y14375068D01*
X95359358Y35301679D02*
X95359358Y18999079D01*
X92125347Y15765068D02*
X89200347Y15765068D01*
X96834747Y36777068D02*
X95359358Y35301679D01*
X95359358Y18999079D02*
X92125347Y15765068D01*
%TO.N,reset_r*%
X81535347Y10618068D02*
X81535347Y11618068D01*
X79845347Y5773000D02*
X79845347Y8928068D01*
X83573279Y2045068D02*
X79845347Y5773000D01*
X79845347Y8928068D02*
X81535347Y10618068D01*
X96307415Y2045068D02*
X83573279Y2045068D01*
X99240757Y4978410D02*
X96307415Y2045068D01*
X99238346Y23514107D02*
X99240757Y23511696D01*
X81614747Y44397068D02*
X85432747Y48215068D01*
X99238346Y24116029D02*
X99238346Y23514107D01*
X99240757Y24118440D02*
X99238346Y24116029D01*
X99240757Y23511696D02*
X99240757Y4978410D01*
X85432747Y48215068D02*
X97865347Y48215068D01*
X99240757Y46839658D02*
X99240757Y24118440D01*
X97865347Y48215068D02*
X99240757Y46839658D01*
%TO.N,col0_r*%
X200282847Y43402568D02*
X198745347Y41865068D01*
X200282847Y48057568D02*
X200282847Y43402568D01*
X200035347Y48305068D02*
X200282847Y48057568D01*
X200035347Y10305068D02*
X200282847Y10057568D01*
X198745347Y30595068D02*
X200035347Y29305068D01*
X198745347Y41865068D02*
X198745347Y30595068D01*
X198745347Y11595068D02*
X200035347Y10305068D01*
X198745347Y20245068D02*
X198745347Y11595068D01*
X198745347Y22865068D02*
X198745347Y20245068D01*
X198745347Y23685068D02*
X198745347Y22865068D01*
X200282847Y25222568D02*
X198745347Y23685068D01*
X200282847Y29057568D02*
X200282847Y25222568D01*
X200035347Y29305068D02*
X200282847Y29057568D01*
D44*
X198745347Y3945068D02*
X200335347Y5535068D01*
X200335347Y10005068D02*
X200035347Y10305068D01*
X200335347Y5535068D02*
X200335347Y10005068D01*
X198745347Y3865068D02*
X198745347Y3945068D01*
X197608000Y20025500D02*
X198745347Y18888153D01*
X193858000Y20025500D02*
X197608000Y20025500D01*
X190915442Y22968058D02*
X193858000Y20025500D01*
X190805347Y22968058D02*
X190915442Y22968058D01*
D43*
%TO.N,col1_r*%
X181035347Y10305068D02*
X181282847Y10057568D01*
X181205347Y10475068D02*
X181035347Y10305068D01*
X181105347Y29375068D02*
X181035347Y29305068D01*
X181035347Y48305068D02*
X181105347Y48235068D01*
X181105347Y10375068D02*
X181035347Y10305068D01*
X181035347Y29305068D02*
X181105347Y29235068D01*
X180905347Y22745068D02*
X181105347Y22945068D01*
X180905347Y22622568D02*
X180905347Y22745068D01*
X181105347Y29235068D02*
X181105347Y22945068D01*
D44*
X179885347Y22865068D02*
X181105347Y21645068D01*
X179745347Y22865068D02*
X179885347Y22865068D01*
D43*
X181105347Y21645068D02*
X181105347Y10375068D01*
X181105347Y22945068D02*
X181105347Y21645068D01*
D44*
X181105347Y40755068D02*
X181105347Y40725068D01*
X179745347Y41865068D02*
X179995347Y41865068D01*
X179995347Y41865068D02*
X181105347Y40755068D01*
D43*
X181105347Y40725068D02*
X181105347Y29375068D01*
X181105347Y48235068D02*
X181105347Y40725068D01*
D44*
X179745347Y3985068D02*
X179745347Y3865068D01*
X181345347Y9995068D02*
X181345347Y5585068D01*
X181345347Y5585068D02*
X179745347Y3985068D01*
X181035347Y10305068D02*
X181345347Y9995068D01*
D43*
%TO.N,col2_r*%
X162035347Y15055068D02*
X162282847Y14807568D01*
X162105347Y34125068D02*
X162035347Y34055068D01*
X162035347Y53055068D02*
X162105347Y52985068D01*
X162105347Y15125068D02*
X162035347Y15055068D01*
X162035347Y34055068D02*
X162105347Y33985068D01*
D44*
X160915347Y46615068D02*
X162105347Y45425068D01*
X160745347Y46615068D02*
X160915347Y46615068D01*
D43*
X162105347Y45425068D02*
X162105347Y34125068D01*
X162105347Y52985068D02*
X162105347Y45425068D01*
D44*
X160915347Y27615068D02*
X162105347Y26425068D01*
X160745347Y27615068D02*
X160915347Y27615068D01*
D43*
X162105347Y26425068D02*
X162105347Y15125068D01*
X162105347Y33985068D02*
X162105347Y26425068D01*
X161850227Y22145068D02*
X161843216Y22138057D01*
X162105347Y22145068D02*
X161850227Y22145068D01*
X161843216Y22138057D02*
X161543217Y21838058D01*
D44*
X162355347Y14735068D02*
X162035347Y15055068D01*
X162355347Y10235068D02*
X162355347Y14735068D01*
X160745347Y8625068D02*
X162355347Y10235068D01*
X160745347Y8615068D02*
X160745347Y8625068D01*
D43*
%TO.N,col3_r*%
X133535347Y-4569932D02*
X133782847Y-4817432D01*
X143282847Y5177568D02*
X133535347Y-4569932D01*
X143035347Y17430068D02*
X143282847Y17182568D01*
X143105347Y17500068D02*
X143035347Y17430068D01*
X143035347Y36430068D02*
X143105347Y36360068D01*
X143255347Y36650068D02*
X143035347Y36430068D01*
X143035347Y55430068D02*
X143255347Y55210068D01*
D44*
X143052847Y9932568D02*
X143282847Y9932568D01*
X141745347Y10990068D02*
X141995347Y10990068D01*
X141995347Y10990068D02*
X143052847Y9932568D01*
D43*
X143282847Y9932568D02*
X143282847Y5177568D01*
X143282847Y17182568D02*
X143282847Y9932568D01*
D44*
X142050347Y29990068D02*
X143105347Y28935068D01*
X141745347Y29990068D02*
X142050347Y29990068D01*
D43*
X143105347Y28935068D02*
X143105347Y17500068D01*
X143105347Y36360068D02*
X143105347Y28935068D01*
D44*
X141995347Y48990068D02*
X143250347Y47735068D01*
X141745347Y48990068D02*
X141995347Y48990068D01*
X143250347Y47735068D02*
X143255347Y47735068D01*
D43*
X143255347Y47735068D02*
X143255347Y36650068D01*
X143255347Y55210068D02*
X143255347Y47735068D01*
X142966368Y21745068D02*
X142905346Y21684046D01*
X142905346Y21684046D02*
X142605347Y21384047D01*
X143105347Y21745068D02*
X142966368Y21745068D01*
D44*
X132245347Y-9759932D02*
X132245347Y-11009932D01*
X133825347Y-8179932D02*
X132245347Y-9759932D01*
X133825347Y-4859932D02*
X133825347Y-8179932D01*
X133535347Y-4569932D02*
X133825347Y-4859932D01*
D43*
%TO.N,col4_r*%
X112007769Y-8392581D02*
X112007769Y-8459854D01*
X124105347Y34125068D02*
X124035347Y34055068D01*
X124035347Y53055068D02*
X124105347Y52985068D01*
X124005347Y15085068D02*
X124035347Y15055068D01*
X124105347Y15125068D02*
X124035347Y15055068D01*
X124035347Y34055068D02*
X124105347Y33985068D01*
X112007769Y-5697510D02*
X112007769Y-8392581D01*
X124155347Y6450068D02*
X112007769Y-5697510D01*
X124035347Y15055068D02*
X124155347Y14935068D01*
D44*
X113351697Y-14023843D02*
X112428520Y-14947020D01*
X113351697Y-9821282D02*
X113351697Y-14023843D01*
X112007769Y-8477354D02*
X113351697Y-9821282D01*
X112007769Y-8392581D02*
X112007769Y-8477354D01*
X122865347Y46615068D02*
X124105347Y45375068D01*
X122745347Y46615068D02*
X122865347Y46615068D01*
D43*
X124105347Y45375068D02*
X124105347Y34125068D01*
X124105347Y52985068D02*
X124105347Y45375068D01*
D44*
X122915347Y27615068D02*
X124105347Y26425068D01*
X122745347Y27615068D02*
X122915347Y27615068D01*
D43*
X124105347Y26425068D02*
X124105347Y15125068D01*
X124105347Y33985068D02*
X124105347Y26425068D01*
D44*
X123025347Y8615068D02*
X124155347Y9745068D01*
X122745347Y8615068D02*
X123025347Y8615068D01*
D43*
X124155347Y9745068D02*
X124155347Y6450068D01*
X124155347Y14935068D02*
X124155347Y9745068D01*
X124011366Y20551087D02*
X123984296Y20551087D01*
X123984296Y20551087D02*
X123684297Y20851086D01*
X124105347Y20645068D02*
X124011366Y20551087D01*
%TO.N,col5_r*%
X105105347Y12750068D02*
X105035347Y12680068D01*
X105105347Y18445068D02*
X105105347Y12750068D01*
X105035347Y31680068D02*
X105035347Y30426068D01*
X105035347Y30426068D02*
X105132348Y30329067D01*
X94390052Y-6096477D02*
X94390052Y-9040375D01*
X105255347Y4768818D02*
X94390052Y-6096477D01*
X105035347Y12680068D02*
X105255347Y12460068D01*
D44*
X92287225Y-11143202D02*
X88167848Y-11143202D01*
X94390052Y-9040375D02*
X92287225Y-11143202D01*
D43*
X105255347Y7795068D02*
X105255347Y4768818D01*
X105255347Y12460068D02*
X105255347Y7795068D01*
D44*
X105255347Y7750068D02*
X105255347Y7795068D01*
X103745347Y6240068D02*
X105255347Y7750068D01*
X103745347Y25240068D02*
X103924349Y25240068D01*
D43*
X105132348Y24032069D02*
X105132348Y18472069D01*
D44*
X103924349Y25240068D02*
X105132348Y24032069D01*
D43*
X105132348Y30329067D02*
X105132348Y24032069D01*
D44*
X103930347Y44240068D02*
X105105347Y43065068D01*
X103745347Y44240068D02*
X103930347Y44240068D01*
D43*
X105285347Y31930068D02*
X105035347Y31680068D01*
X105285347Y42885068D02*
X105285347Y31930068D01*
X105105347Y43065068D02*
X105285347Y42885068D01*
X105285347Y50430068D02*
X105285347Y42885068D01*
X105035347Y50680068D02*
X105285347Y50430068D01*
X105132348Y18472069D02*
X105105347Y18445068D01*
X105105347Y18445068D02*
X105105347Y18445080D01*
D46*
%TO.N,VDD*%
X90445347Y14375068D02*
X90350347Y14375068D01*
X90475347Y14345068D02*
X90445347Y14375068D01*
X90475347Y13565068D02*
X90475347Y14345068D01*
X88265347Y11355068D02*
X90475347Y13565068D01*
X87330347Y11355068D02*
X88265347Y11355068D01*
X81614747Y41857068D02*
X83355347Y40116468D01*
X83355347Y40116468D02*
X83355347Y13150688D01*
X83355347Y13150688D02*
X85150967Y11355068D01*
X85150967Y11355068D02*
X87330347Y11355068D01*
X90068347Y9712068D02*
X90068347Y9220068D01*
X88425347Y11355068D02*
X90068347Y9712068D01*
X87330347Y11355068D02*
X88425347Y11355068D01*
D45*
%TO.N,GNDA*%
X80015347Y45545068D02*
X80015347Y18638068D01*
X80645348Y46175069D02*
X80015347Y45545068D01*
X80852748Y46175069D02*
X80645348Y46175069D01*
X81614747Y46937068D02*
X80852748Y46175069D01*
D46*
X96834747Y44397068D02*
X96834747Y41857068D01*
X92920347Y14345068D02*
X93015347Y14345068D01*
X92890347Y14375068D02*
X92920347Y14345068D01*
D45*
X80535347Y18118068D02*
X81535347Y18118068D01*
X80015347Y18638068D02*
X80535347Y18118068D01*
X86068347Y9220068D02*
X86068347Y8220068D01*
X86068347Y9442068D02*
X86068347Y9220068D01*
X80015347Y15495068D02*
X86068347Y9442068D01*
X80015347Y18638068D02*
X80015347Y15495068D01*
D46*
X86068347Y6870068D02*
X86068347Y8220068D01*
X86068347Y6852068D02*
X86068347Y6870068D01*
X87155347Y5765068D02*
X86068347Y6852068D01*
X93015347Y9095068D02*
X89685347Y5765068D01*
X89685347Y5765068D02*
X87155347Y5765068D01*
X93015347Y14345068D02*
X93015347Y9095068D01*
%TD*%
M02*
