%TF.GenerationSoftware,KiCad,Pcbnew,8.0.3*%
%TF.CreationDate,2024-08-02T01:13:42+01:00*%
%TF.ProjectId,corne-light,636f726e-652d-46c6-9967-68742e6b6963,2.0*%
%TF.SameCoordinates,Original*%
%TF.FileFunction,Copper,L2,Bot*%
%TF.FilePolarity,Positive*%
%FSLAX46Y46*%
G04 Gerber Fmt 4.6, Leading zero omitted, Abs format (unit mm)*
G04 Created by KiCad (PCBNEW 8.0.3) date 2024-08-02 01:13:42*
%MOMM*%
%LPD*%
G01*
G04 APERTURE LIST*
G04 Aperture macros list*
%AMHorizOval*
0 Thick line with rounded ends*
0 $1 width*
0 $2 $3 position (X,Y) of the first rounded end (center of the circle)*
0 $4 $5 position (X,Y) of the second rounded end (center of the circle)*
0 Add line between two ends*
20,1,$1,$2,$3,$4,$5,0*
0 Add two circle primitives to create the rounded ends*
1,1,$1,$2,$3*
1,1,$1,$4,$5*%
G04 Aperture macros list end*
%TA.AperFunction,SMDPad,CuDef*%
%ADD10R,1.300000X1.400000*%
%TD*%
%TA.AperFunction,ComponentPad*%
%ADD11O,1.300000X1.778000*%
%TD*%
%TA.AperFunction,ComponentPad*%
%ADD12R,1.300000X1.778000*%
%TD*%
%TA.AperFunction,ComponentPad*%
%ADD13O,1.397000X1.778000*%
%TD*%
%TA.AperFunction,ComponentPad*%
%ADD14O,2.500000X1.700000*%
%TD*%
%TA.AperFunction,ComponentPad*%
%ADD15C,2.000000*%
%TD*%
%TA.AperFunction,ComponentPad*%
%ADD16HorizOval,2.400000X-0.978148X0.207912X0.978148X-0.207912X0*%
%TD*%
%TA.AperFunction,ComponentPad*%
%ADD17HorizOval,2.400000X-0.238157X-0.137500X0.238157X0.137500X0*%
%TD*%
%TA.AperFunction,ComponentPad*%
%ADD18C,2.400000*%
%TD*%
%TA.AperFunction,ComponentPad*%
%ADD19HorizOval,1.500000X0.735931X-1.249362X-0.735931X1.249362X0*%
%TD*%
%TA.AperFunction,ComponentPad*%
%ADD20HorizOval,1.600000X0.150000X-0.259808X-0.150000X0.259808X0*%
%TD*%
%TA.AperFunction,ComponentPad*%
%ADD21HorizOval,1.500000X0.175000X-0.303109X-0.175000X0.303109X0*%
%TD*%
%TA.AperFunction,ComponentPad*%
%ADD22HorizOval,2.400000X-0.309017X0.951057X0.309017X-0.951057X0*%
%TD*%
%TA.AperFunction,ComponentPad*%
%ADD23HorizOval,2.400000X-0.238157X0.137500X0.238157X-0.137500X0*%
%TD*%
%TA.AperFunction,ComponentPad*%
%ADD24HorizOval,1.500000X0.714014X1.262016X-0.714014X-1.262016X0*%
%TD*%
%TA.AperFunction,ComponentPad*%
%ADD25HorizOval,1.600000X0.150000X0.259808X-0.150000X-0.259808X0*%
%TD*%
%TA.AperFunction,ComponentPad*%
%ADD26HorizOval,1.500000X0.175000X0.303109X-0.175000X-0.303109X0*%
%TD*%
%TA.AperFunction,ComponentPad*%
%ADD27HorizOval,2.400000X-0.669131X-0.743145X0.669131X0.743145X0*%
%TD*%
%TA.AperFunction,ComponentPad*%
%ADD28O,2.400000X2.950000*%
%TD*%
%TA.AperFunction,ComponentPad*%
%ADD29HorizOval,1.500000X1.449945X0.012653X-1.449945X-0.012653X0*%
%TD*%
%TA.AperFunction,ComponentPad*%
%ADD30O,2.200000X1.600000*%
%TD*%
%TA.AperFunction,ComponentPad*%
%ADD31O,2.200000X1.500000*%
%TD*%
%TA.AperFunction,ComponentPad*%
%ADD32HorizOval,2.400000X-0.453990X-0.891007X0.453990X0.891007X0*%
%TD*%
%TA.AperFunction,ComponentPad*%
%ADD33HorizOval,2.400000X-0.071175X0.265630X0.071175X-0.265630X0*%
%TD*%
%TA.AperFunction,ComponentPad*%
%ADD34HorizOval,1.500000X1.397264X0.387496X-1.397264X-0.387496X0*%
%TD*%
%TA.AperFunction,ComponentPad*%
%ADD35HorizOval,1.600000X0.289778X0.077646X-0.289778X-0.077646X0*%
%TD*%
%TA.AperFunction,ComponentPad*%
%ADD36HorizOval,1.500000X0.338074X0.090587X-0.338074X-0.090587X0*%
%TD*%
%TA.AperFunction,ComponentPad*%
%ADD37HorizOval,2.400000X-0.838671X-0.544639X0.838671X0.544639X0*%
%TD*%
%TA.AperFunction,ComponentPad*%
%ADD38HorizOval,2.400000X-0.071175X-0.265630X0.071175X0.265630X0*%
%TD*%
%TA.AperFunction,ComponentPad*%
%ADD39HorizOval,1.500000X1.403814X-0.363051X-1.403814X0.363051X0*%
%TD*%
%TA.AperFunction,ComponentPad*%
%ADD40HorizOval,1.600000X0.289778X-0.077646X-0.289778X0.077646X0*%
%TD*%
%TA.AperFunction,ComponentPad*%
%ADD41HorizOval,1.500000X0.338074X-0.090587X-0.338074X0.090587X0*%
%TD*%
%TA.AperFunction,ComponentPad*%
%ADD42C,1.524000*%
%TD*%
%TA.AperFunction,ViaPad*%
%ADD43C,0.600000*%
%TD*%
%TA.AperFunction,Conductor*%
%ADD44C,0.254000*%
%TD*%
%TA.AperFunction,Conductor*%
%ADD45C,0.250000*%
%TD*%
%TA.AperFunction,Conductor*%
%ADD46C,0.508000*%
%TD*%
G04 APERTURE END LIST*
D10*
%TO.P,D13,2*%
%TO.N,Net-(D13-Pad2)*%
X-44652000Y9543625D03*
%TO.P,D13,1*%
%TO.N,row2*%
X-44652000Y5993625D03*
D11*
%TO.P,D13,2*%
%TO.N,Net-(D13-Pad2)*%
X-44652000Y10768625D03*
D12*
%TO.P,D13,1*%
%TO.N,row2*%
X-44652000Y4768625D03*
%TD*%
D10*
%TO.P,D14,2*%
%TO.N,Net-(D14-Pad2)*%
X-41652000Y9540500D03*
%TO.P,D14,1*%
%TO.N,row2*%
X-41652000Y5990500D03*
D11*
%TO.P,D14,2*%
%TO.N,Net-(D14-Pad2)*%
X-41652000Y10765500D03*
D12*
%TO.P,D14,1*%
%TO.N,row2*%
X-41652000Y4765500D03*
%TD*%
D10*
%TO.P,D34,2*%
%TO.N,Net-(D34-Pad2)*%
X195845347Y9540068D03*
%TO.P,D34,1*%
%TO.N,row2_r*%
X195845347Y5990068D03*
D11*
%TO.P,D34,2*%
%TO.N,Net-(D34-Pad2)*%
X195845347Y10765068D03*
D12*
%TO.P,D34,1*%
%TO.N,row2_r*%
X195845347Y4765068D03*
%TD*%
D10*
%TO.P,D12,2*%
%TO.N,Net-(D12-Pad2)*%
X34348000Y33540500D03*
%TO.P,D12,1*%
%TO.N,row1*%
X34348000Y29990500D03*
D11*
%TO.P,D12,2*%
%TO.N,Net-(D12-Pad2)*%
X34348000Y34765500D03*
D12*
%TO.P,D12,1*%
%TO.N,row1*%
X34348000Y28765500D03*
%TD*%
D10*
%TO.P,D33,2*%
%TO.N,Net-(D33-Pad2)*%
X116845347Y33540068D03*
%TO.P,D33,1*%
%TO.N,row1_r*%
X116845347Y29990068D03*
D11*
%TO.P,D33,2*%
%TO.N,Net-(D33-Pad2)*%
X116845347Y34765068D03*
D12*
%TO.P,D33,1*%
%TO.N,row1_r*%
X116845347Y28765068D03*
%TD*%
D10*
%TO.P,D32,2*%
%TO.N,Net-(D32-Pad2)*%
X119845347Y33540068D03*
%TO.P,D32,1*%
%TO.N,row1_r*%
X119845347Y29990068D03*
D11*
%TO.P,D32,2*%
%TO.N,Net-(D32-Pad2)*%
X119845347Y34765068D03*
D12*
%TO.P,D32,1*%
%TO.N,row1_r*%
X119845347Y28765068D03*
%TD*%
D10*
%TO.P,D31,2*%
%TO.N,Net-(D31-Pad2)*%
X154845347Y33545068D03*
%TO.P,D31,1*%
%TO.N,row1_r*%
X154845347Y29995068D03*
D11*
%TO.P,D31,2*%
%TO.N,Net-(D31-Pad2)*%
X154845347Y34770068D03*
D12*
%TO.P,D31,1*%
%TO.N,row1_r*%
X154845347Y28770068D03*
%TD*%
D10*
%TO.P,D30,2*%
%TO.N,Net-(D30-Pad2)*%
X157845347Y33540068D03*
%TO.P,D30,1*%
%TO.N,row1_r*%
X157845347Y29990068D03*
D11*
%TO.P,D30,2*%
%TO.N,Net-(D30-Pad2)*%
X157845347Y34765068D03*
D12*
%TO.P,D30,1*%
%TO.N,row1_r*%
X157845347Y28765068D03*
%TD*%
D10*
%TO.P,D29,2*%
%TO.N,Net-(D29-Pad2)*%
X192845347Y28540068D03*
%TO.P,D29,1*%
%TO.N,row1_r*%
X192845347Y24990068D03*
D11*
%TO.P,D29,2*%
%TO.N,Net-(D29-Pad2)*%
X192845347Y29765068D03*
D12*
%TO.P,D29,1*%
%TO.N,row1_r*%
X192845347Y23765068D03*
%TD*%
D10*
%TO.P,D28,2*%
%TO.N,Net-(D28-Pad2)*%
X195845347Y28540068D03*
%TO.P,D28,1*%
%TO.N,row1_r*%
X195845347Y24990068D03*
D11*
%TO.P,D28,2*%
%TO.N,Net-(D28-Pad2)*%
X195845347Y29765068D03*
D12*
%TO.P,D28,1*%
%TO.N,row1_r*%
X195845347Y23765068D03*
%TD*%
D10*
%TO.P,D27,2*%
%TO.N,Net-(D27-Pad2)*%
X116845347Y52540068D03*
%TO.P,D27,1*%
%TO.N,row0_r*%
X116845347Y48990068D03*
D11*
%TO.P,D27,2*%
%TO.N,Net-(D27-Pad2)*%
X116845347Y53765068D03*
D12*
%TO.P,D27,1*%
%TO.N,row0_r*%
X116845347Y47765068D03*
%TD*%
D10*
%TO.P,D26,2*%
%TO.N,Net-(D26-Pad2)*%
X119845347Y52540068D03*
%TO.P,D26,1*%
%TO.N,row0_r*%
X119845347Y48990068D03*
D11*
%TO.P,D26,2*%
%TO.N,Net-(D26-Pad2)*%
X119845347Y53765068D03*
D12*
%TO.P,D26,1*%
%TO.N,row0_r*%
X119845347Y47765068D03*
%TD*%
D10*
%TO.P,D25,2*%
%TO.N,Net-(D25-Pad2)*%
X154845347Y52545068D03*
%TO.P,D25,1*%
%TO.N,row0_r*%
X154845347Y48995068D03*
D11*
%TO.P,D25,2*%
%TO.N,Net-(D25-Pad2)*%
X154845347Y53770068D03*
D12*
%TO.P,D25,1*%
%TO.N,row0_r*%
X154845347Y47770068D03*
%TD*%
D10*
%TO.P,D24,2*%
%TO.N,Net-(D24-Pad2)*%
X157845347Y52540068D03*
%TO.P,D24,1*%
%TO.N,row0_r*%
X157845347Y48990068D03*
D11*
%TO.P,D24,2*%
%TO.N,Net-(D24-Pad2)*%
X157845347Y53765068D03*
D12*
%TO.P,D24,1*%
%TO.N,row0_r*%
X157845347Y47765068D03*
%TD*%
D10*
%TO.P,D23,2*%
%TO.N,Net-(D23-Pad2)*%
X192845347Y47540068D03*
%TO.P,D23,1*%
%TO.N,row0_r*%
X192845347Y43990068D03*
D11*
%TO.P,D23,2*%
%TO.N,Net-(D23-Pad2)*%
X192845347Y48765068D03*
D12*
%TO.P,D23,1*%
%TO.N,row0_r*%
X192845347Y42765068D03*
%TD*%
D10*
%TO.P,D22,2*%
%TO.N,Net-(D22-Pad2)*%
X195845347Y47540068D03*
%TO.P,D22,1*%
%TO.N,row0_r*%
X195845347Y43990068D03*
D11*
%TO.P,D22,2*%
%TO.N,Net-(D22-Pad2)*%
X195845347Y48765068D03*
D12*
%TO.P,D22,1*%
%TO.N,row0_r*%
X195845347Y42765068D03*
%TD*%
D10*
%TO.P,D42,2*%
%TO.N,Net-(D42-Pad2)*%
X126355347Y-5454932D03*
%TO.P,D42,1*%
%TO.N,row3_r*%
X126355347Y-9004932D03*
D11*
%TO.P,D42,2*%
%TO.N,Net-(D42-Pad2)*%
X126355347Y-4229932D03*
D12*
%TO.P,D42,1*%
%TO.N,row3_r*%
X126355347Y-10229932D03*
%TD*%
D10*
%TO.P,D41,2*%
%TO.N,Net-(D41-Pad2)*%
X129355347Y-5454932D03*
%TO.P,D41,1*%
%TO.N,row3_r*%
X129355347Y-9004932D03*
D11*
%TO.P,D41,2*%
%TO.N,Net-(D41-Pad2)*%
X129355347Y-4229932D03*
D12*
%TO.P,D41,1*%
%TO.N,row3_r*%
X129355347Y-10229932D03*
%TD*%
D10*
%TO.P,D40,2*%
%TO.N,Net-(D40-Pad2)*%
X145345347Y-5469932D03*
%TO.P,D40,1*%
%TO.N,row3_r*%
X145345347Y-9019932D03*
D11*
%TO.P,D40,2*%
%TO.N,Net-(D40-Pad2)*%
X145345347Y-4244932D03*
D12*
%TO.P,D40,1*%
%TO.N,row3_r*%
X145345347Y-10244932D03*
%TD*%
D10*
%TO.P,D39,2*%
%TO.N,Net-(D39-Pad2)*%
X116845347Y14540068D03*
%TO.P,D39,1*%
%TO.N,row2_r*%
X116845347Y10990068D03*
D11*
%TO.P,D39,2*%
%TO.N,Net-(D39-Pad2)*%
X116845347Y15765068D03*
D12*
%TO.P,D39,1*%
%TO.N,row2_r*%
X116845347Y9765068D03*
%TD*%
D10*
%TO.P,D38,2*%
%TO.N,Net-(D38-Pad2)*%
X119845347Y14540068D03*
%TO.P,D38,1*%
%TO.N,row2_r*%
X119845347Y10990068D03*
D11*
%TO.P,D38,2*%
%TO.N,Net-(D38-Pad2)*%
X119845347Y15765068D03*
D12*
%TO.P,D38,1*%
%TO.N,row2_r*%
X119845347Y9765068D03*
%TD*%
D10*
%TO.P,D37,2*%
%TO.N,Net-(D37-Pad2)*%
X154845347Y14545068D03*
%TO.P,D37,1*%
%TO.N,row2_r*%
X154845347Y10995068D03*
D11*
%TO.P,D37,2*%
%TO.N,Net-(D37-Pad2)*%
X154845347Y15770068D03*
D12*
%TO.P,D37,1*%
%TO.N,row2_r*%
X154845347Y9770068D03*
%TD*%
D10*
%TO.P,D36,2*%
%TO.N,Net-(D36-Pad2)*%
X157845347Y14540068D03*
%TO.P,D36,1*%
%TO.N,row2_r*%
X157845347Y10990068D03*
D11*
%TO.P,D36,2*%
%TO.N,Net-(D36-Pad2)*%
X157845347Y15765068D03*
D12*
%TO.P,D36,1*%
%TO.N,row2_r*%
X157845347Y9765068D03*
%TD*%
D10*
%TO.P,D35,2*%
%TO.N,Net-(D35-Pad2)*%
X192845347Y9540068D03*
%TO.P,D35,1*%
%TO.N,row2_r*%
X192845347Y5990068D03*
D11*
%TO.P,D35,2*%
%TO.N,Net-(D35-Pad2)*%
X192845347Y10765068D03*
D12*
%TO.P,D35,1*%
%TO.N,row2_r*%
X192845347Y4765068D03*
%TD*%
D10*
%TO.P,D1,2*%
%TO.N,Net-(D1-Pad2)*%
X-44652000Y47543625D03*
%TO.P,D1,1*%
%TO.N,row0*%
X-44652000Y43993625D03*
D11*
%TO.P,D1,2*%
%TO.N,Net-(D1-Pad2)*%
X-44652000Y48768625D03*
D12*
%TO.P,D1,1*%
%TO.N,row0*%
X-44652000Y42768625D03*
%TD*%
D10*
%TO.P,D2,2*%
%TO.N,Net-(D2-Pad2)*%
X-41652000Y47540500D03*
%TO.P,D2,1*%
%TO.N,row0*%
X-41652000Y43990500D03*
D11*
%TO.P,D2,2*%
%TO.N,Net-(D2-Pad2)*%
X-41652000Y48765500D03*
D12*
%TO.P,D2,1*%
%TO.N,row0*%
X-41652000Y42765500D03*
%TD*%
D10*
%TO.P,D3,2*%
%TO.N,Net-(D3-Pad2)*%
X-6652000Y52540500D03*
%TO.P,D3,1*%
%TO.N,row0*%
X-6652000Y48990500D03*
D11*
%TO.P,D3,2*%
%TO.N,Net-(D3-Pad2)*%
X-6652000Y53765500D03*
D12*
%TO.P,D3,1*%
%TO.N,row0*%
X-6652000Y47765500D03*
%TD*%
D10*
%TO.P,D4,2*%
%TO.N,Net-(D4-Pad2)*%
X-3652000Y52545500D03*
%TO.P,D4,1*%
%TO.N,row0*%
X-3652000Y48995500D03*
D11*
%TO.P,D4,2*%
%TO.N,Net-(D4-Pad2)*%
X-3652000Y53770500D03*
D12*
%TO.P,D4,1*%
%TO.N,row0*%
X-3652000Y47770500D03*
%TD*%
D10*
%TO.P,D5,2*%
%TO.N,Net-(D5-Pad2)*%
X31348000Y52540500D03*
%TO.P,D5,1*%
%TO.N,row0*%
X31348000Y48990500D03*
D11*
%TO.P,D5,2*%
%TO.N,Net-(D5-Pad2)*%
X31348000Y53765500D03*
D12*
%TO.P,D5,1*%
%TO.N,row0*%
X31348000Y47765500D03*
%TD*%
D10*
%TO.P,D6,2*%
%TO.N,Net-(D6-Pad2)*%
X34348000Y52540500D03*
%TO.P,D6,1*%
%TO.N,row0*%
X34348000Y48990500D03*
D11*
%TO.P,D6,2*%
%TO.N,Net-(D6-Pad2)*%
X34348000Y53765500D03*
D12*
%TO.P,D6,1*%
%TO.N,row0*%
X34348000Y47765500D03*
%TD*%
D10*
%TO.P,D7,2*%
%TO.N,Net-(D7-Pad2)*%
X-44652000Y28543625D03*
%TO.P,D7,1*%
%TO.N,row1*%
X-44652000Y24993625D03*
D11*
%TO.P,D7,2*%
%TO.N,Net-(D7-Pad2)*%
X-44652000Y29768625D03*
D12*
%TO.P,D7,1*%
%TO.N,row1*%
X-44652000Y23768625D03*
%TD*%
D10*
%TO.P,D8,2*%
%TO.N,Net-(D8-Pad2)*%
X-41652000Y28540500D03*
%TO.P,D8,1*%
%TO.N,row1*%
X-41652000Y24990500D03*
D11*
%TO.P,D8,2*%
%TO.N,Net-(D8-Pad2)*%
X-41652000Y29765500D03*
D12*
%TO.P,D8,1*%
%TO.N,row1*%
X-41652000Y23765500D03*
%TD*%
D10*
%TO.P,D9,2*%
%TO.N,Net-(D9-Pad2)*%
X-6652000Y33540500D03*
%TO.P,D9,1*%
%TO.N,row1*%
X-6652000Y29990500D03*
D11*
%TO.P,D9,2*%
%TO.N,Net-(D9-Pad2)*%
X-6652000Y34765500D03*
D12*
%TO.P,D9,1*%
%TO.N,row1*%
X-6652000Y28765500D03*
%TD*%
D10*
%TO.P,D10,2*%
%TO.N,Net-(D10-Pad2)*%
X-3652000Y33545500D03*
%TO.P,D10,1*%
%TO.N,row1*%
X-3652000Y29995500D03*
D11*
%TO.P,D10,2*%
%TO.N,Net-(D10-Pad2)*%
X-3652000Y34770500D03*
D12*
%TO.P,D10,1*%
%TO.N,row1*%
X-3652000Y28770500D03*
%TD*%
D10*
%TO.P,D11,2*%
%TO.N,Net-(D11-Pad2)*%
X31348000Y33540500D03*
%TO.P,D11,1*%
%TO.N,row1*%
X31348000Y29990500D03*
D11*
%TO.P,D11,2*%
%TO.N,Net-(D11-Pad2)*%
X31348000Y34765500D03*
D12*
%TO.P,D11,1*%
%TO.N,row1*%
X31348000Y28765500D03*
%TD*%
D10*
%TO.P,D15,2*%
%TO.N,Net-(D15-Pad2)*%
X-6652000Y14540500D03*
%TO.P,D15,1*%
%TO.N,row2*%
X-6652000Y10990500D03*
D11*
%TO.P,D15,2*%
%TO.N,Net-(D15-Pad2)*%
X-6652000Y15765500D03*
D12*
%TO.P,D15,1*%
%TO.N,row2*%
X-6652000Y9765500D03*
%TD*%
D10*
%TO.P,D16,2*%
%TO.N,Net-(D16-Pad2)*%
X-3652000Y14545500D03*
%TO.P,D16,1*%
%TO.N,row2*%
X-3652000Y10995500D03*
D11*
%TO.P,D16,2*%
%TO.N,Net-(D16-Pad2)*%
X-3652000Y15770500D03*
D12*
%TO.P,D16,1*%
%TO.N,row2*%
X-3652000Y9770500D03*
%TD*%
D10*
%TO.P,D17,2*%
%TO.N,Net-(D17-Pad2)*%
X31348000Y14540500D03*
%TO.P,D17,1*%
%TO.N,row2*%
X31348000Y10990500D03*
D11*
%TO.P,D17,2*%
%TO.N,Net-(D17-Pad2)*%
X31348000Y15765500D03*
D12*
%TO.P,D17,1*%
%TO.N,row2*%
X31348000Y9765500D03*
%TD*%
D10*
%TO.P,D18,2*%
%TO.N,Net-(D18-Pad2)*%
X34348000Y14540500D03*
%TO.P,D18,1*%
%TO.N,row2*%
X34348000Y10990500D03*
D11*
%TO.P,D18,2*%
%TO.N,Net-(D18-Pad2)*%
X34348000Y15765500D03*
D12*
%TO.P,D18,1*%
%TO.N,row2*%
X34348000Y9765500D03*
%TD*%
D10*
%TO.P,D19,2*%
%TO.N,Net-(D19-Pad2)*%
X5668000Y-5449500D03*
%TO.P,D19,1*%
%TO.N,row3*%
X5668000Y-8999500D03*
D11*
%TO.P,D19,2*%
%TO.N,Net-(D19-Pad2)*%
X5668000Y-4224500D03*
D12*
%TO.P,D19,1*%
%TO.N,row3*%
X5668000Y-10224500D03*
%TD*%
D10*
%TO.P,D20,2*%
%TO.N,Net-(D20-Pad2)*%
X21848000Y-5444500D03*
%TO.P,D20,1*%
%TO.N,row3*%
X21848000Y-8994500D03*
D11*
%TO.P,D20,2*%
%TO.N,Net-(D20-Pad2)*%
X21848000Y-4219500D03*
D12*
%TO.P,D20,1*%
%TO.N,row3*%
X21848000Y-10219500D03*
%TD*%
D10*
%TO.P,D21,2*%
%TO.N,Net-(D21-Pad2)*%
X24848000Y-5444500D03*
%TO.P,D21,1*%
%TO.N,row3*%
X24848000Y-8994500D03*
D11*
%TO.P,D21,2*%
%TO.N,Net-(D21-Pad2)*%
X24848000Y-4219500D03*
D12*
%TO.P,D21,1*%
%TO.N,row3*%
X24848000Y-10219500D03*
%TD*%
D13*
%TO.P,J7,4*%
%TO.N,GNDA*%
X93038000Y14375500D03*
%TO.P,J7,3*%
%TO.N,VDD*%
X90498000Y14375500D03*
%TO.P,J7,2*%
%TO.N,SCL_r*%
X87958000Y14375500D03*
%TO.P,J7,1*%
%TO.N,SDA_r*%
X85418000Y14375500D03*
%TD*%
%TO.P,J2,4*%
%TO.N,GND*%
X65809000Y14517500D03*
%TO.P,J2,3*%
%TO.N,VCC*%
X63269000Y14517500D03*
%TO.P,J2,2*%
%TO.N,SCL*%
X60729000Y14517500D03*
%TO.P,J2,1*%
%TO.N,SDA*%
X58189000Y14517500D03*
%TD*%
D14*
%TO.P,J6,A*%
%TO.N,Net-(J6-PadA)*%
X91568347Y5020068D03*
%TO.P,J6,D*%
%TO.N,VDD*%
X90068347Y9220068D03*
%TO.P,J6,C*%
%TO.N,GNDA*%
X86068347Y9220068D03*
%TO.P,J6,B*%
%TO.N,data_r*%
X83068347Y9220068D03*
%TD*%
%TO.P,J1,A*%
%TO.N,Net-(J1-PadA)*%
X59575000Y9353500D03*
%TO.P,J1,D*%
%TO.N,VCC*%
X61075000Y5153500D03*
%TO.P,J1,C*%
%TO.N,GND*%
X65075000Y5153500D03*
%TO.P,J1,B*%
%TO.N,data*%
X68075000Y5153500D03*
%TD*%
D15*
%TO.P,RSW2,2*%
%TO.N,GNDA*%
X81535347Y18118068D03*
%TO.P,RSW2,1*%
%TO.N,reset_r*%
X81535347Y11618068D03*
%TD*%
%TO.P,RSW1,2*%
%TO.N,GND*%
X69665000Y18264500D03*
%TO.P,RSW1,1*%
%TO.N,reset*%
X69665000Y11764500D03*
%TD*%
D16*
%TO.P,SW42,1*%
%TO.N,col5_r*%
X95381860Y-9251947D03*
D17*
%TO.P,SW42,2*%
%TO.N,Net-(D42-Pad2)*%
X99502269Y-13374996D03*
D18*
%TO.P,SW42,1*%
%TO.N,col5_r*%
X96309449Y-9444868D03*
D19*
%TO.P,SW42,2*%
%TO.N,Net-(D42-Pad2)*%
X100843496Y-14217267D03*
D20*
%TO.P,SW42,1*%
%TO.N,col5_r*%
X88167848Y-11143202D03*
D21*
%TO.P,SW42,2*%
%TO.N,Net-(D42-Pad2)*%
X88985797Y-16559932D03*
%TD*%
D22*
%TO.P,SW21,1*%
%TO.N,col5*%
X52680618Y-14674340D03*
D23*
%TO.P,SW21,2*%
%TO.N,Net-(D21-Pad2)*%
X54191078Y-9044436D03*
D18*
%TO.P,SW21,1*%
%TO.N,col5*%
X52383898Y-13774564D03*
D24*
%TO.P,SW21,2*%
%TO.N,Net-(D21-Pad2)*%
X54249893Y-7461764D03*
D25*
%TO.P,SW21,1*%
%TO.N,col5*%
X57925499Y-19976230D03*
D26*
%TO.P,SW21,2*%
%TO.N,Net-(D21-Pad2)*%
X62207550Y-16559500D03*
%TD*%
D27*
%TO.P,SW18,1*%
%TO.N,col5*%
X39217131Y13433645D03*
D28*
%TO.P,SW18,2*%
%TO.N,Net-(D18-Pad2)*%
X44848000Y14940500D03*
D18*
%TO.P,SW18,1*%
%TO.N,col5*%
X39848000Y14140500D03*
D29*
%TO.P,SW18,2*%
%TO.N,Net-(D18-Pad2)*%
X46248042Y15680901D03*
D30*
%TO.P,SW18,1*%
%TO.N,col5*%
X37248000Y6240500D03*
D31*
%TO.P,SW18,2*%
%TO.N,Net-(D18-Pad2)*%
X42348000Y4240500D03*
%TD*%
D27*
%TO.P,SW32,1*%
%TO.N,col4_r*%
X124714478Y34808213D03*
D28*
%TO.P,SW32,2*%
%TO.N,Net-(D32-Pad2)*%
X130345347Y36315068D03*
D18*
%TO.P,SW32,1*%
%TO.N,col4_r*%
X125345347Y35515068D03*
D29*
%TO.P,SW32,2*%
%TO.N,Net-(D32-Pad2)*%
X131745389Y37055469D03*
D30*
%TO.P,SW32,1*%
%TO.N,col4_r*%
X122745347Y27615068D03*
D31*
%TO.P,SW32,2*%
%TO.N,Net-(D32-Pad2)*%
X127845347Y25615068D03*
%TD*%
D27*
%TO.P,SW11,1*%
%TO.N,col4*%
X20217131Y34808645D03*
D28*
%TO.P,SW11,2*%
%TO.N,Net-(D11-Pad2)*%
X25848000Y36315500D03*
D18*
%TO.P,SW11,1*%
%TO.N,col4*%
X20848000Y35515500D03*
D29*
%TO.P,SW11,2*%
%TO.N,Net-(D11-Pad2)*%
X27248042Y37055901D03*
D30*
%TO.P,SW11,1*%
%TO.N,col4*%
X18248000Y27615500D03*
D31*
%TO.P,SW11,2*%
%TO.N,Net-(D11-Pad2)*%
X23348000Y25615500D03*
%TD*%
D27*
%TO.P,SW33,1*%
%TO.N,col5_r*%
X105714478Y32433213D03*
D28*
%TO.P,SW33,2*%
%TO.N,Net-(D33-Pad2)*%
X111345347Y33940068D03*
D18*
%TO.P,SW33,1*%
%TO.N,col5_r*%
X106345347Y33140068D03*
D29*
%TO.P,SW33,2*%
%TO.N,Net-(D33-Pad2)*%
X112745389Y34680469D03*
D30*
%TO.P,SW33,1*%
%TO.N,col5_r*%
X103745347Y25240068D03*
D31*
%TO.P,SW33,2*%
%TO.N,Net-(D33-Pad2)*%
X108845347Y23240068D03*
%TD*%
D32*
%TO.P,SW41,1*%
%TO.N,col4_r*%
X112468830Y-7489327D03*
D33*
%TO.P,SW41,2*%
%TO.N,Net-(D41-Pad2)*%
X117517830Y-4576440D03*
D18*
%TO.P,SW41,1*%
%TO.N,col4_r*%
X112895256Y-6643276D03*
D34*
%TO.P,SW41,2*%
%TO.N,Net-(D41-Pad2)*%
X118678537Y-3498910D03*
D35*
%TO.P,SW41,1*%
%TO.N,col4_r*%
X112428520Y-14947020D03*
D36*
%TO.P,SW41,2*%
%TO.N,Net-(D41-Pad2)*%
X117872379Y-15558894D03*
%TD*%
D27*
%TO.P,SW8,1*%
%TO.N,col1*%
X-36782869Y30058645D03*
D28*
%TO.P,SW8,2*%
%TO.N,Net-(D8-Pad2)*%
X-31152000Y31565500D03*
D18*
%TO.P,SW8,1*%
%TO.N,col1*%
X-36152000Y30765500D03*
D29*
%TO.P,SW8,2*%
%TO.N,Net-(D8-Pad2)*%
X-29751958Y32305901D03*
D30*
%TO.P,SW8,1*%
%TO.N,col1*%
X-38752000Y22865500D03*
D31*
%TO.P,SW8,2*%
%TO.N,Net-(D8-Pad2)*%
X-33652000Y20865500D03*
%TD*%
D27*
%TO.P,SW7,1*%
%TO.N,col0*%
X-55782869Y30058645D03*
D28*
%TO.P,SW7,2*%
%TO.N,Net-(D7-Pad2)*%
X-50152000Y31565500D03*
D18*
%TO.P,SW7,1*%
%TO.N,col0*%
X-55152000Y30765500D03*
D29*
%TO.P,SW7,2*%
%TO.N,Net-(D7-Pad2)*%
X-48751958Y32305901D03*
D30*
%TO.P,SW7,1*%
%TO.N,col0*%
X-57752000Y22865500D03*
D31*
%TO.P,SW7,2*%
%TO.N,Net-(D7-Pad2)*%
X-52652000Y20865500D03*
%TD*%
D27*
%TO.P,SW1,1*%
%TO.N,col0*%
X-55782869Y49058645D03*
D28*
%TO.P,SW1,2*%
%TO.N,Net-(D1-Pad2)*%
X-50152000Y50565500D03*
D18*
%TO.P,SW1,1*%
%TO.N,col0*%
X-55152000Y49765500D03*
D29*
%TO.P,SW1,2*%
%TO.N,Net-(D1-Pad2)*%
X-48751958Y51305901D03*
D30*
%TO.P,SW1,1*%
%TO.N,col0*%
X-57752000Y41865500D03*
D31*
%TO.P,SW1,2*%
%TO.N,Net-(D1-Pad2)*%
X-52652000Y39865500D03*
%TD*%
D27*
%TO.P,SW2,1*%
%TO.N,col1*%
X-36782869Y49058645D03*
D28*
%TO.P,SW2,2*%
%TO.N,Net-(D2-Pad2)*%
X-31152000Y50565500D03*
D18*
%TO.P,SW2,1*%
%TO.N,col1*%
X-36152000Y49765500D03*
D29*
%TO.P,SW2,2*%
%TO.N,Net-(D2-Pad2)*%
X-29751958Y51305901D03*
D30*
%TO.P,SW2,1*%
%TO.N,col1*%
X-38752000Y41865500D03*
D31*
%TO.P,SW2,2*%
%TO.N,Net-(D2-Pad2)*%
X-33652000Y39865500D03*
%TD*%
D27*
%TO.P,SW37,1*%
%TO.N,col3_r*%
X143714478Y18183213D03*
D28*
%TO.P,SW37,2*%
%TO.N,Net-(D37-Pad2)*%
X149345347Y19690068D03*
D18*
%TO.P,SW37,1*%
%TO.N,col3_r*%
X144345347Y18890068D03*
D29*
%TO.P,SW37,2*%
%TO.N,Net-(D37-Pad2)*%
X150745389Y20430469D03*
D30*
%TO.P,SW37,1*%
%TO.N,col3_r*%
X141745347Y10990068D03*
D31*
%TO.P,SW37,2*%
%TO.N,Net-(D37-Pad2)*%
X146845347Y8990068D03*
%TD*%
D27*
%TO.P,SW9,1*%
%TO.N,col2*%
X-17782869Y34808645D03*
D28*
%TO.P,SW9,2*%
%TO.N,Net-(D9-Pad2)*%
X-12152000Y36315500D03*
D18*
%TO.P,SW9,1*%
%TO.N,col2*%
X-17152000Y35515500D03*
D29*
%TO.P,SW9,2*%
%TO.N,Net-(D9-Pad2)*%
X-10751958Y37055901D03*
D30*
%TO.P,SW9,1*%
%TO.N,col2*%
X-19752000Y27615500D03*
D31*
%TO.P,SW9,2*%
%TO.N,Net-(D9-Pad2)*%
X-14652000Y25615500D03*
%TD*%
D27*
%TO.P,SW26,1*%
%TO.N,col4_r*%
X124714478Y53808213D03*
D28*
%TO.P,SW26,2*%
%TO.N,Net-(D26-Pad2)*%
X130345347Y55315068D03*
D18*
%TO.P,SW26,1*%
%TO.N,col4_r*%
X125345347Y54515068D03*
D29*
%TO.P,SW26,2*%
%TO.N,Net-(D26-Pad2)*%
X131745389Y56055469D03*
D30*
%TO.P,SW26,1*%
%TO.N,col4_r*%
X122745347Y46615068D03*
D31*
%TO.P,SW26,2*%
%TO.N,Net-(D26-Pad2)*%
X127845347Y44615068D03*
%TD*%
D27*
%TO.P,SW3,1*%
%TO.N,col2*%
X-17782869Y53808645D03*
D28*
%TO.P,SW3,2*%
%TO.N,Net-(D3-Pad2)*%
X-12152000Y55315500D03*
D18*
%TO.P,SW3,1*%
%TO.N,col2*%
X-17152000Y54515500D03*
D29*
%TO.P,SW3,2*%
%TO.N,Net-(D3-Pad2)*%
X-10751958Y56055901D03*
D30*
%TO.P,SW3,1*%
%TO.N,col2*%
X-19752000Y46615500D03*
D31*
%TO.P,SW3,2*%
%TO.N,Net-(D3-Pad2)*%
X-14652000Y44615500D03*
%TD*%
D27*
%TO.P,SW14,1*%
%TO.N,col1*%
X-36782869Y11058645D03*
D28*
%TO.P,SW14,2*%
%TO.N,Net-(D14-Pad2)*%
X-31152000Y12565500D03*
D18*
%TO.P,SW14,1*%
%TO.N,col1*%
X-36152000Y11765500D03*
D29*
%TO.P,SW14,2*%
%TO.N,Net-(D14-Pad2)*%
X-29751958Y13305901D03*
D30*
%TO.P,SW14,1*%
%TO.N,col1*%
X-38752000Y3865500D03*
D31*
%TO.P,SW14,2*%
%TO.N,Net-(D14-Pad2)*%
X-33652000Y1865500D03*
%TD*%
D27*
%TO.P,SW27,1*%
%TO.N,col5_r*%
X105714478Y51433213D03*
D28*
%TO.P,SW27,2*%
%TO.N,Net-(D27-Pad2)*%
X111345347Y52940068D03*
D18*
%TO.P,SW27,1*%
%TO.N,col5_r*%
X106345347Y52140068D03*
D29*
%TO.P,SW27,2*%
%TO.N,Net-(D27-Pad2)*%
X112745389Y53680469D03*
D30*
%TO.P,SW27,1*%
%TO.N,col5_r*%
X103745347Y44240068D03*
D31*
%TO.P,SW27,2*%
%TO.N,Net-(D27-Pad2)*%
X108845347Y42240068D03*
%TD*%
D27*
%TO.P,SW12,1*%
%TO.N,col5*%
X39217131Y32433645D03*
D28*
%TO.P,SW12,2*%
%TO.N,Net-(D12-Pad2)*%
X44848000Y33940500D03*
D18*
%TO.P,SW12,1*%
%TO.N,col5*%
X39848000Y33140500D03*
D29*
%TO.P,SW12,2*%
%TO.N,Net-(D12-Pad2)*%
X46248042Y34680901D03*
D30*
%TO.P,SW12,1*%
%TO.N,col5*%
X37248000Y25240500D03*
D31*
%TO.P,SW12,2*%
%TO.N,Net-(D12-Pad2)*%
X42348000Y23240500D03*
%TD*%
D37*
%TO.P,SW20,1*%
%TO.N,col4*%
X32676141Y-5868238D03*
D38*
%TO.P,SW20,2*%
%TO.N,Net-(D20-Pad2)*%
X38505146Y-5870104D03*
D18*
%TO.P,SW20,1*%
%TO.N,col4*%
X33468462Y-5348749D03*
D39*
%TO.P,SW20,2*%
%TO.N,Net-(D20-Pad2)*%
X40049113Y-5517289D03*
D40*
%TO.P,SW20,1*%
%TO.N,col4*%
X28912384Y-12306634D03*
D41*
%TO.P,SW20,2*%
%TO.N,Net-(D20-Pad2)*%
X33320968Y-15558462D03*
%TD*%
D27*
%TO.P,SW10,1*%
%TO.N,col3*%
X1217131Y37183645D03*
D28*
%TO.P,SW10,2*%
%TO.N,Net-(D10-Pad2)*%
X6848000Y38690500D03*
D18*
%TO.P,SW10,1*%
%TO.N,col3*%
X1848000Y37890500D03*
D29*
%TO.P,SW10,2*%
%TO.N,Net-(D10-Pad2)*%
X8248042Y39430901D03*
D30*
%TO.P,SW10,1*%
%TO.N,col3*%
X-752000Y29990500D03*
D31*
%TO.P,SW10,2*%
%TO.N,Net-(D10-Pad2)*%
X4348000Y27990500D03*
%TD*%
D27*
%TO.P,SW15,1*%
%TO.N,col2*%
X-17782869Y15808645D03*
D28*
%TO.P,SW15,2*%
%TO.N,Net-(D15-Pad2)*%
X-12152000Y17315500D03*
D18*
%TO.P,SW15,1*%
%TO.N,col2*%
X-17152000Y16515500D03*
D29*
%TO.P,SW15,2*%
%TO.N,Net-(D15-Pad2)*%
X-10751958Y18055901D03*
D30*
%TO.P,SW15,1*%
%TO.N,col2*%
X-19752000Y8615500D03*
D31*
%TO.P,SW15,2*%
%TO.N,Net-(D15-Pad2)*%
X-14652000Y6615500D03*
%TD*%
D27*
%TO.P,SW16,1*%
%TO.N,col3*%
X1217131Y18183645D03*
D28*
%TO.P,SW16,2*%
%TO.N,Net-(D16-Pad2)*%
X6848000Y19690500D03*
D18*
%TO.P,SW16,1*%
%TO.N,col3*%
X1848000Y18890500D03*
D29*
%TO.P,SW16,2*%
%TO.N,Net-(D16-Pad2)*%
X8248042Y20430901D03*
D30*
%TO.P,SW16,1*%
%TO.N,col3*%
X-752000Y10990500D03*
D31*
%TO.P,SW16,2*%
%TO.N,Net-(D16-Pad2)*%
X4348000Y8990500D03*
%TD*%
D27*
%TO.P,SW17,1*%
%TO.N,col4*%
X20217131Y15808645D03*
D28*
%TO.P,SW17,2*%
%TO.N,Net-(D17-Pad2)*%
X25848000Y17315500D03*
D18*
%TO.P,SW17,1*%
%TO.N,col4*%
X20848000Y16515500D03*
D29*
%TO.P,SW17,2*%
%TO.N,Net-(D17-Pad2)*%
X27248042Y18055901D03*
D30*
%TO.P,SW17,1*%
%TO.N,col4*%
X18248000Y8615500D03*
D31*
%TO.P,SW17,2*%
%TO.N,Net-(D17-Pad2)*%
X23348000Y6615500D03*
%TD*%
D27*
%TO.P,SW19,1*%
%TO.N,col3*%
X10717131Y-3816355D03*
D28*
%TO.P,SW19,2*%
%TO.N,Net-(D19-Pad2)*%
X16348000Y-2309500D03*
D18*
%TO.P,SW19,1*%
%TO.N,col3*%
X11348000Y-3109500D03*
D29*
%TO.P,SW19,2*%
%TO.N,Net-(D19-Pad2)*%
X17748042Y-1569099D03*
D30*
%TO.P,SW19,1*%
%TO.N,col3*%
X8748000Y-11009500D03*
D31*
%TO.P,SW19,2*%
%TO.N,Net-(D19-Pad2)*%
X13848000Y-13009500D03*
%TD*%
D27*
%TO.P,SW13,1*%
%TO.N,col0*%
X-55782869Y11058645D03*
D28*
%TO.P,SW13,2*%
%TO.N,Net-(D13-Pad2)*%
X-50152000Y12565500D03*
D18*
%TO.P,SW13,1*%
%TO.N,col0*%
X-55152000Y11765500D03*
D29*
%TO.P,SW13,2*%
%TO.N,Net-(D13-Pad2)*%
X-48751958Y13305901D03*
D30*
%TO.P,SW13,1*%
%TO.N,col0*%
X-57752000Y3865500D03*
D31*
%TO.P,SW13,2*%
%TO.N,Net-(D13-Pad2)*%
X-52652000Y1865500D03*
%TD*%
D27*
%TO.P,SW39,1*%
%TO.N,col5_r*%
X105714478Y13433213D03*
D28*
%TO.P,SW39,2*%
%TO.N,Net-(D39-Pad2)*%
X111345347Y14940068D03*
D18*
%TO.P,SW39,1*%
%TO.N,col5_r*%
X106345347Y14140068D03*
D29*
%TO.P,SW39,2*%
%TO.N,Net-(D39-Pad2)*%
X112745389Y15680469D03*
D30*
%TO.P,SW39,1*%
%TO.N,col5_r*%
X103745347Y6240068D03*
D31*
%TO.P,SW39,2*%
%TO.N,Net-(D39-Pad2)*%
X108845347Y4240068D03*
%TD*%
D27*
%TO.P,SW28,1*%
%TO.N,col0_r*%
X200714478Y30058213D03*
D28*
%TO.P,SW28,2*%
%TO.N,Net-(D28-Pad2)*%
X206345347Y31565068D03*
D18*
%TO.P,SW28,1*%
%TO.N,col0_r*%
X201345347Y30765068D03*
D29*
%TO.P,SW28,2*%
%TO.N,Net-(D28-Pad2)*%
X207745389Y32305469D03*
D30*
%TO.P,SW28,1*%
%TO.N,col0_r*%
X198745347Y22865068D03*
D31*
%TO.P,SW28,2*%
%TO.N,Net-(D28-Pad2)*%
X203845347Y20865068D03*
%TD*%
D27*
%TO.P,SW23,1*%
%TO.N,col1_r*%
X181714478Y49058213D03*
D28*
%TO.P,SW23,2*%
%TO.N,Net-(D23-Pad2)*%
X187345347Y50565068D03*
D18*
%TO.P,SW23,1*%
%TO.N,col1_r*%
X182345347Y49765068D03*
D29*
%TO.P,SW23,2*%
%TO.N,Net-(D23-Pad2)*%
X188745389Y51305469D03*
D30*
%TO.P,SW23,1*%
%TO.N,col1_r*%
X179745347Y41865068D03*
D31*
%TO.P,SW23,2*%
%TO.N,Net-(D23-Pad2)*%
X184845347Y39865068D03*
%TD*%
D27*
%TO.P,SW40,1*%
%TO.N,col3_r*%
X134214478Y-3816787D03*
D28*
%TO.P,SW40,2*%
%TO.N,Net-(D40-Pad2)*%
X139845347Y-2309932D03*
D18*
%TO.P,SW40,1*%
%TO.N,col3_r*%
X134845347Y-3109932D03*
D29*
%TO.P,SW40,2*%
%TO.N,Net-(D40-Pad2)*%
X141245389Y-1569531D03*
D30*
%TO.P,SW40,1*%
%TO.N,col3_r*%
X132245347Y-11009932D03*
D31*
%TO.P,SW40,2*%
%TO.N,Net-(D40-Pad2)*%
X137345347Y-13009932D03*
%TD*%
D27*
%TO.P,SW38,1*%
%TO.N,col4_r*%
X124714478Y15808213D03*
D28*
%TO.P,SW38,2*%
%TO.N,Net-(D38-Pad2)*%
X130345347Y17315068D03*
D18*
%TO.P,SW38,1*%
%TO.N,col4_r*%
X125345347Y16515068D03*
D29*
%TO.P,SW38,2*%
%TO.N,Net-(D38-Pad2)*%
X131745389Y18055469D03*
D30*
%TO.P,SW38,1*%
%TO.N,col4_r*%
X122745347Y8615068D03*
D31*
%TO.P,SW38,2*%
%TO.N,Net-(D38-Pad2)*%
X127845347Y6615068D03*
%TD*%
D27*
%TO.P,SW36,1*%
%TO.N,col2_r*%
X162714478Y15808213D03*
D28*
%TO.P,SW36,2*%
%TO.N,Net-(D36-Pad2)*%
X168345347Y17315068D03*
D18*
%TO.P,SW36,1*%
%TO.N,col2_r*%
X163345347Y16515068D03*
D29*
%TO.P,SW36,2*%
%TO.N,Net-(D36-Pad2)*%
X169745389Y18055469D03*
D30*
%TO.P,SW36,1*%
%TO.N,col2_r*%
X160745347Y8615068D03*
D31*
%TO.P,SW36,2*%
%TO.N,Net-(D36-Pad2)*%
X165845347Y6615068D03*
%TD*%
D27*
%TO.P,SW35,1*%
%TO.N,col1_r*%
X181714478Y11058213D03*
D28*
%TO.P,SW35,2*%
%TO.N,Net-(D35-Pad2)*%
X187345347Y12565068D03*
D18*
%TO.P,SW35,1*%
%TO.N,col1_r*%
X182345347Y11765068D03*
D29*
%TO.P,SW35,2*%
%TO.N,Net-(D35-Pad2)*%
X188745389Y13305469D03*
D30*
%TO.P,SW35,1*%
%TO.N,col1_r*%
X179745347Y3865068D03*
D31*
%TO.P,SW35,2*%
%TO.N,Net-(D35-Pad2)*%
X184845347Y1865068D03*
%TD*%
D27*
%TO.P,SW34,1*%
%TO.N,col0_r*%
X200714478Y11058213D03*
D28*
%TO.P,SW34,2*%
%TO.N,Net-(D34-Pad2)*%
X206345347Y12565068D03*
D18*
%TO.P,SW34,1*%
%TO.N,col0_r*%
X201345347Y11765068D03*
D29*
%TO.P,SW34,2*%
%TO.N,Net-(D34-Pad2)*%
X207745389Y13305469D03*
D30*
%TO.P,SW34,1*%
%TO.N,col0_r*%
X198745347Y3865068D03*
D31*
%TO.P,SW34,2*%
%TO.N,Net-(D34-Pad2)*%
X203845347Y1865068D03*
%TD*%
D27*
%TO.P,SW31,1*%
%TO.N,col3_r*%
X143714478Y37183213D03*
D28*
%TO.P,SW31,2*%
%TO.N,Net-(D31-Pad2)*%
X149345347Y38690068D03*
D18*
%TO.P,SW31,1*%
%TO.N,col3_r*%
X144345347Y37890068D03*
D29*
%TO.P,SW31,2*%
%TO.N,Net-(D31-Pad2)*%
X150745389Y39430469D03*
D30*
%TO.P,SW31,1*%
%TO.N,col3_r*%
X141745347Y29990068D03*
D31*
%TO.P,SW31,2*%
%TO.N,Net-(D31-Pad2)*%
X146845347Y27990068D03*
%TD*%
D27*
%TO.P,SW30,1*%
%TO.N,col2_r*%
X162714478Y34808213D03*
D28*
%TO.P,SW30,2*%
%TO.N,Net-(D30-Pad2)*%
X168345347Y36315068D03*
D18*
%TO.P,SW30,1*%
%TO.N,col2_r*%
X163345347Y35515068D03*
D29*
%TO.P,SW30,2*%
%TO.N,Net-(D30-Pad2)*%
X169745389Y37055469D03*
D30*
%TO.P,SW30,1*%
%TO.N,col2_r*%
X160745347Y27615068D03*
D31*
%TO.P,SW30,2*%
%TO.N,Net-(D30-Pad2)*%
X165845347Y25615068D03*
%TD*%
D27*
%TO.P,SW29,1*%
%TO.N,col1_r*%
X181714478Y30058213D03*
D28*
%TO.P,SW29,2*%
%TO.N,Net-(D29-Pad2)*%
X187345347Y31565068D03*
D18*
%TO.P,SW29,1*%
%TO.N,col1_r*%
X182345347Y30765068D03*
D29*
%TO.P,SW29,2*%
%TO.N,Net-(D29-Pad2)*%
X188745389Y32305469D03*
D30*
%TO.P,SW29,1*%
%TO.N,col1_r*%
X179745347Y22865068D03*
D31*
%TO.P,SW29,2*%
%TO.N,Net-(D29-Pad2)*%
X184845347Y20865068D03*
%TD*%
D27*
%TO.P,SW25,1*%
%TO.N,col3_r*%
X143714478Y56183213D03*
D28*
%TO.P,SW25,2*%
%TO.N,Net-(D25-Pad2)*%
X149345347Y57690068D03*
D18*
%TO.P,SW25,1*%
%TO.N,col3_r*%
X144345347Y56890068D03*
D29*
%TO.P,SW25,2*%
%TO.N,Net-(D25-Pad2)*%
X150745389Y58430469D03*
D30*
%TO.P,SW25,1*%
%TO.N,col3_r*%
X141745347Y48990068D03*
D31*
%TO.P,SW25,2*%
%TO.N,Net-(D25-Pad2)*%
X146845347Y46990068D03*
%TD*%
D27*
%TO.P,SW24,1*%
%TO.N,col2_r*%
X162714478Y53808213D03*
D28*
%TO.P,SW24,2*%
%TO.N,Net-(D24-Pad2)*%
X168345347Y55315068D03*
D18*
%TO.P,SW24,1*%
%TO.N,col2_r*%
X163345347Y54515068D03*
D29*
%TO.P,SW24,2*%
%TO.N,Net-(D24-Pad2)*%
X169745389Y56055469D03*
D30*
%TO.P,SW24,1*%
%TO.N,col2_r*%
X160745347Y46615068D03*
D31*
%TO.P,SW24,2*%
%TO.N,Net-(D24-Pad2)*%
X165845347Y44615068D03*
%TD*%
D27*
%TO.P,SW22,1*%
%TO.N,col0_r*%
X200714478Y49058213D03*
D28*
%TO.P,SW22,2*%
%TO.N,Net-(D22-Pad2)*%
X206345347Y50565068D03*
D18*
%TO.P,SW22,1*%
%TO.N,col0_r*%
X201345347Y49765068D03*
D29*
%TO.P,SW22,2*%
%TO.N,Net-(D22-Pad2)*%
X207745389Y51305469D03*
D30*
%TO.P,SW22,1*%
%TO.N,col0_r*%
X198745347Y41865068D03*
D31*
%TO.P,SW22,2*%
%TO.N,Net-(D22-Pad2)*%
X203845347Y39865068D03*
%TD*%
D27*
%TO.P,SW4,1*%
%TO.N,col3*%
X1217131Y56183645D03*
D28*
%TO.P,SW4,2*%
%TO.N,Net-(D4-Pad2)*%
X6848000Y57690500D03*
D18*
%TO.P,SW4,1*%
%TO.N,col3*%
X1848000Y56890500D03*
D29*
%TO.P,SW4,2*%
%TO.N,Net-(D4-Pad2)*%
X8248042Y58430901D03*
D30*
%TO.P,SW4,1*%
%TO.N,col3*%
X-752000Y48990500D03*
D31*
%TO.P,SW4,2*%
%TO.N,Net-(D4-Pad2)*%
X4348000Y46990500D03*
%TD*%
D27*
%TO.P,SW5,1*%
%TO.N,col4*%
X20217131Y53808645D03*
D28*
%TO.P,SW5,2*%
%TO.N,Net-(D5-Pad2)*%
X25848000Y55315500D03*
D18*
%TO.P,SW5,1*%
%TO.N,col4*%
X20848000Y54515500D03*
D29*
%TO.P,SW5,2*%
%TO.N,Net-(D5-Pad2)*%
X27248042Y56055901D03*
D30*
%TO.P,SW5,1*%
%TO.N,col4*%
X18248000Y46615500D03*
D31*
%TO.P,SW5,2*%
%TO.N,Net-(D5-Pad2)*%
X23348000Y44615500D03*
%TD*%
D27*
%TO.P,SW6,1*%
%TO.N,col5*%
X39217131Y51433645D03*
D28*
%TO.P,SW6,2*%
%TO.N,Net-(D6-Pad2)*%
X44848000Y52940500D03*
D18*
%TO.P,SW6,1*%
%TO.N,col5*%
X39848000Y52140500D03*
D29*
%TO.P,SW6,2*%
%TO.N,Net-(D6-Pad2)*%
X46248042Y53680901D03*
D30*
%TO.P,SW6,1*%
%TO.N,col5*%
X37248000Y44240500D03*
D31*
%TO.P,SW6,2*%
%TO.N,Net-(D6-Pad2)*%
X42348000Y42240500D03*
%TD*%
D42*
%TO.P,U2,24*%
%TO.N,Net-(U2-Pad24)*%
X81614747Y49477068D03*
%TO.P,U2,23*%
%TO.N,GNDA*%
X81614747Y46937068D03*
%TO.P,U2,22*%
%TO.N,reset_r*%
X81614747Y44397068D03*
%TO.P,U2,21*%
%TO.N,VDD*%
X81614747Y41857068D03*
%TO.P,U2,20*%
%TO.N,col0_r*%
X81614747Y39317068D03*
%TO.P,U2,19*%
%TO.N,col1_r*%
X81614747Y36777068D03*
%TO.P,U2,18*%
%TO.N,col2_r*%
X81614747Y34237068D03*
%TO.P,U2,17*%
%TO.N,col3_r*%
X81614747Y31697068D03*
%TO.P,U2,16*%
%TO.N,col4_r*%
X81614747Y29157068D03*
%TO.P,U2,15*%
%TO.N,col5_r*%
X81614747Y26617068D03*
%TO.P,U2,14*%
%TO.N,Net-(U2-Pad14)*%
X81614747Y24077068D03*
%TO.P,U2,13*%
%TO.N,Net-(U2-Pad13)*%
X81614747Y21537068D03*
%TO.P,U2,12*%
%TO.N,Net-(U2-Pad12)*%
X96834747Y21537068D03*
%TO.P,U2,11*%
%TO.N,Net-(U2-Pad11)*%
X96834747Y24077068D03*
%TO.P,U2,10*%
%TO.N,row3_r*%
X96834747Y26617068D03*
%TO.P,U2,9*%
%TO.N,row2_r*%
X96834747Y29157068D03*
%TO.P,U2,8*%
%TO.N,row1_r*%
X96834747Y31697068D03*
%TO.P,U2,7*%
%TO.N,row0_r*%
X96834747Y34237068D03*
%TO.P,U2,6*%
%TO.N,SCL_r*%
X96834747Y36777068D03*
%TO.P,U2,5*%
%TO.N,SDA_r*%
X96834747Y39317068D03*
%TO.P,U2,4*%
%TO.N,GNDA*%
X96834747Y41857068D03*
%TO.P,U2,3*%
X96834747Y44397068D03*
%TO.P,U2,2*%
%TO.N,data_r*%
X96834747Y46937068D03*
%TO.P,U2,1*%
%TO.N,Net-(U2-Pad1)*%
X96834747Y49477068D03*
%TD*%
%TO.P,U1,24*%
%TO.N,Net-(U1-Pad24)*%
X54444400Y49603500D03*
%TO.P,U1,23*%
%TO.N,GND*%
X54444400Y47063500D03*
%TO.P,U1,22*%
%TO.N,reset*%
X54444400Y44523500D03*
%TO.P,U1,21*%
%TO.N,VCC*%
X54444400Y41983500D03*
%TO.P,U1,20*%
%TO.N,col0*%
X54444400Y39443500D03*
%TO.P,U1,19*%
%TO.N,col1*%
X54444400Y36903500D03*
%TO.P,U1,18*%
%TO.N,col2*%
X54444400Y34363500D03*
%TO.P,U1,17*%
%TO.N,col3*%
X54444400Y31823500D03*
%TO.P,U1,16*%
%TO.N,col4*%
X54444400Y29283500D03*
%TO.P,U1,15*%
%TO.N,col5*%
X54444400Y26743500D03*
%TO.P,U1,14*%
%TO.N,Net-(U1-Pad14)*%
X54444400Y24203500D03*
%TO.P,U1,13*%
%TO.N,Net-(U1-Pad13)*%
X54444400Y21663500D03*
%TO.P,U1,12*%
%TO.N,Net-(U1-Pad12)*%
X69664400Y21663500D03*
%TO.P,U1,11*%
%TO.N,Net-(U1-Pad11)*%
X69664400Y24203500D03*
%TO.P,U1,10*%
%TO.N,row3*%
X69664400Y26743500D03*
%TO.P,U1,9*%
%TO.N,row2*%
X69664400Y29283500D03*
%TO.P,U1,8*%
%TO.N,row1*%
X69664400Y31823500D03*
%TO.P,U1,7*%
%TO.N,row0*%
X69664400Y34363500D03*
%TO.P,U1,6*%
%TO.N,SCL*%
X69664400Y36903500D03*
%TO.P,U1,5*%
%TO.N,SDA*%
X69664400Y39443500D03*
%TO.P,U1,4*%
%TO.N,GND*%
X69664400Y41983500D03*
%TO.P,U1,3*%
X69664400Y44523500D03*
%TO.P,U1,2*%
%TO.N,data*%
X69664400Y47063500D03*
%TO.P,U1,1*%
%TO.N,Net-(U1-Pad1)*%
X69664400Y49603500D03*
%TD*%
D43*
%TO.N,col0*%
X-40142000Y24275500D03*
%TO.N,col1*%
X-36855000Y22191500D03*
%TO.N,col2*%
X-17955000Y20224490D03*
%TO.N,col3*%
X798000Y20495500D03*
%TO.N,col4*%
X19958000Y21065500D03*
%TO.N,col5*%
X39145000Y18850438D03*
%TO.N,row2_r*%
X100675347Y16675068D03*
X100675347Y23485067D03*
%TO.N,row3_r*%
X100055347Y15915068D03*
X100125347Y24315068D03*
%TO.N,col0_r*%
X190805347Y22968058D03*
%TO.N,col2_r*%
X161543217Y21838058D03*
%TO.N,col3_r*%
X142605347Y21384047D03*
%TO.N,col4_r*%
X123684297Y20851086D03*
%TO.N,col5_r*%
X105105347Y18445080D03*
%TD*%
D44*
%TO.N,row0*%
X-41655125Y42768625D02*
X-41652000Y42765500D01*
D45*
X-43529631Y39025500D02*
X-44642000Y40137869D01*
X-42754369Y39025500D02*
X-43529631Y39025500D01*
X-41642000Y42755500D02*
X-41642000Y40137869D01*
X-44642000Y42758625D02*
X-44652000Y42768625D01*
X-41642000Y40137869D02*
X-42754369Y39025500D01*
X-44642000Y40137869D02*
X-44642000Y42758625D01*
X-41652000Y42765500D02*
X-41642000Y42755500D01*
D44*
X21455000Y47461500D02*
X30044000Y47461500D01*
X20295000Y48621500D02*
X21455000Y47461500D01*
X-1838000Y46971500D02*
X995000Y46971500D01*
X995000Y46971500D02*
X2645000Y48621500D01*
X-41642000Y44025500D02*
X-37819000Y44025500D01*
X2645000Y48621500D02*
X20295000Y48621500D01*
X-3892000Y49025500D02*
X-1838000Y46971500D01*
X30044000Y47461500D02*
X31358000Y48775500D01*
X-6517000Y49025500D02*
X-3892000Y49025500D01*
X-13071000Y42471500D02*
X-6517000Y49025500D01*
X-36265000Y42471500D02*
X-13071000Y42471500D01*
X-37819000Y44025500D02*
X-36265000Y42471500D01*
X31483000Y48775500D02*
X34348000Y48775500D01*
X31358000Y48900500D02*
X31483000Y48775500D01*
X68902401Y35125499D02*
X69664400Y34363500D01*
X67709011Y36318889D02*
X68902401Y35125499D01*
X67709011Y40227489D02*
X67709011Y36318889D01*
X34358000Y48775500D02*
X34358000Y48400500D01*
X65545000Y42391500D02*
X67709011Y40227489D01*
X56245000Y42391500D02*
X65545000Y42391500D01*
X55435000Y43201500D02*
X56245000Y42391500D01*
X39155000Y46171500D02*
X40415000Y44911500D01*
X51835000Y44911500D02*
X53545000Y43201500D01*
X34358000Y48400500D02*
X36587000Y46171500D01*
X36587000Y46171500D02*
X39155000Y46171500D01*
X40415000Y44911500D02*
X51835000Y44911500D01*
X53545000Y43201500D02*
X55435000Y43201500D01*
D45*
X-44652000Y42768625D02*
X-44652000Y43993625D01*
X-41652000Y42765500D02*
X-41652000Y43990500D01*
X-6652000Y47765500D02*
X-6652000Y48990500D01*
X-3652000Y47770500D02*
X-3652000Y48995500D01*
X31348000Y47765500D02*
X31348000Y48990500D01*
X34348000Y47765500D02*
X34348000Y48990500D01*
%TO.N,Net-(D1-Pad2)*%
X-44652000Y47543625D02*
X-44642000Y47553625D01*
D44*
X-44642000Y48150500D02*
X-44642000Y47400500D01*
X-47337000Y50845500D02*
X-44642000Y48150500D01*
X-50112000Y50845500D02*
X-47337000Y50845500D01*
D45*
X-44652000Y48768625D02*
X-44652000Y47543625D01*
D44*
%TO.N,row1*%
X-41655125Y23768625D02*
X-41652000Y23765500D01*
X67255000Y39981500D02*
X67255000Y34232900D01*
X65345000Y41891500D02*
X67255000Y39981500D01*
X56245000Y41891500D02*
X65345000Y41891500D01*
X55035000Y40681500D02*
X56245000Y41891500D01*
X53875000Y40681500D02*
X55035000Y40681500D01*
X49680990Y36487490D02*
X53875000Y40681500D01*
X49680989Y25857489D02*
X49680990Y36487490D01*
X47315000Y23491500D02*
X49680989Y25857489D01*
X68902401Y32585499D02*
X69664400Y31823500D01*
X67255000Y34232900D02*
X68902401Y32585499D01*
D45*
X36156940Y21779560D02*
X34348000Y23588500D01*
X45603060Y21779560D02*
X36156940Y21779560D01*
X34348000Y27626500D02*
X34348000Y28765500D01*
X34348000Y23588500D02*
X34348000Y27626500D01*
X47315000Y23491500D02*
X45603060Y21779560D01*
X-44642000Y21025500D02*
X-44642000Y23758625D01*
X-42741738Y20025500D02*
X-43642000Y20025500D01*
X-44642000Y23758625D02*
X-44652000Y23768625D01*
X-43642000Y20025500D02*
X-44642000Y21025500D01*
X-41642000Y21125238D02*
X-42741738Y20025500D01*
X-41642000Y23755500D02*
X-41642000Y21125238D01*
X-41652000Y23765500D02*
X-41642000Y23755500D01*
D44*
X34348000Y29775500D02*
X34348000Y28765500D01*
X31358000Y29775500D02*
X34348000Y29775500D01*
X21155000Y28271500D02*
X29854000Y28271500D01*
X2765000Y29561500D02*
X19865000Y29561500D01*
X-41652000Y24908500D02*
X-41582989Y24977511D01*
X-1928000Y28061500D02*
X1265000Y28061500D01*
X29854000Y28271500D02*
X31358000Y29775500D01*
X-3642000Y29900500D02*
X-3642000Y29775500D01*
X-6392000Y29900500D02*
X-3642000Y29900500D01*
X-36231041Y23557541D02*
X-12734959Y23557541D01*
X-37651011Y24977511D02*
X-36231041Y23557541D01*
X-41652000Y23765500D02*
X-41652000Y24908500D01*
X-3642000Y29775500D02*
X-1928000Y28061500D01*
X-12734959Y23557541D02*
X-6392000Y29900500D01*
X-41582989Y24977511D02*
X-37651011Y24977511D01*
X19865000Y29561500D02*
X21155000Y28271500D01*
X1265000Y28061500D02*
X2765000Y29561500D01*
D45*
X-44652000Y23768625D02*
X-44652000Y24993625D01*
X-41652000Y23765500D02*
X-41652000Y24990500D01*
X-6652000Y28765500D02*
X-6652000Y29990500D01*
X-3652000Y28770500D02*
X-3652000Y29995500D01*
X31348000Y28765500D02*
X31348000Y29990500D01*
X34348000Y28765500D02*
X34348000Y29990500D01*
D44*
%TO.N,Net-(D2-Pad2)*%
X-37807000Y51735500D02*
X-41642000Y47900500D01*
X-41642000Y47900500D02*
X-41642000Y47525500D01*
X-32002000Y51735500D02*
X-37807000Y51735500D01*
X-31112000Y50845500D02*
X-32002000Y51735500D01*
D45*
X-41652000Y48765500D02*
X-41652000Y47540500D01*
D44*
%TO.N,row2*%
X68902401Y28521501D02*
X69664400Y29283500D01*
X67285000Y18911500D02*
X67285000Y26904100D01*
X64785000Y16411500D02*
X67285000Y18911500D01*
X56792400Y16411500D02*
X64785000Y16411500D01*
X67285000Y26904100D02*
X68902401Y28521501D01*
X46716400Y6335500D02*
X56792400Y16411500D01*
X41008000Y6335500D02*
X46716400Y6335500D01*
D45*
X-41642000Y4755500D02*
X-41652000Y4765500D01*
X-41642000Y213000D02*
X-41642000Y4755500D01*
X-43454500Y-974500D02*
X-42829500Y-974500D01*
X-42829500Y-974500D02*
X-41642000Y213000D01*
X-44642000Y213000D02*
X-43454500Y-974500D01*
X-44642000Y4758625D02*
X-44642000Y213000D01*
X-44652000Y4768625D02*
X-44642000Y4758625D01*
D44*
X-6767000Y10650500D02*
X-6767000Y10900500D01*
X-36455000Y4451500D02*
X-12966000Y4451500D01*
X-37904000Y5900500D02*
X-36455000Y4451500D01*
X-41392000Y5900500D02*
X-37904000Y5900500D01*
X-12966000Y4451500D02*
X-6767000Y10650500D01*
X-41517000Y5775500D02*
X-41392000Y5900500D01*
X31108000Y10775500D02*
X34108000Y10775500D01*
X29594000Y9261500D02*
X31108000Y10775500D01*
X34108000Y10775500D02*
X34358000Y10525500D01*
X104000Y9271500D02*
X1554000Y10721500D01*
X-2138000Y9271500D02*
X104000Y9271500D01*
X-6517000Y10900500D02*
X-3767000Y10900500D01*
X21495000Y9261500D02*
X29594000Y9261500D01*
X34358000Y10525500D02*
X34483000Y10525500D01*
X-3767000Y10900500D02*
X-2138000Y9271500D01*
X1554000Y10721500D02*
X20035000Y10721500D01*
X20035000Y10721500D02*
X21495000Y9261500D01*
X-6662000Y10755500D02*
X-6517000Y10900500D01*
D45*
X40888000Y6335500D02*
X40998000Y6335500D01*
X36783000Y7975500D02*
X39248000Y7975500D01*
X34358000Y10400500D02*
X36783000Y7975500D01*
X39248000Y7975500D02*
X40888000Y6335500D01*
X34358000Y10650500D02*
X34358000Y10400500D01*
X-44652000Y4768625D02*
X-44652000Y5993625D01*
X-41652000Y4765500D02*
X-41652000Y5990500D01*
X-6652000Y9765500D02*
X-6652000Y10990500D01*
X-3652000Y9770500D02*
X-3652000Y10995500D01*
X31348000Y10990500D02*
X31348000Y9765500D01*
X34348000Y9765500D02*
X34348000Y10990500D01*
D44*
%TO.N,Net-(D3-Pad2)*%
X-9712000Y55595500D02*
X-6767000Y52650500D01*
X-12112000Y55595500D02*
X-9712000Y55595500D01*
D45*
X-6652000Y53765500D02*
X-6652000Y52540500D01*
D44*
%TO.N,row3*%
X24733000Y-8974500D02*
X24858000Y-9099500D01*
X11626000Y-10219500D02*
X20613000Y-10219500D01*
X5733000Y-8974500D02*
X10381000Y-8974500D01*
X21858000Y-8974500D02*
X24733000Y-8974500D01*
X20613000Y-10219500D02*
X21858000Y-8974500D01*
X10381000Y-8974500D02*
X11626000Y-10219500D01*
D45*
X5668000Y-10224500D02*
X5668000Y-8999500D01*
X21848000Y-10219500D02*
X21848000Y-8994500D01*
X24848000Y-10219500D02*
X24848000Y-8994500D01*
D44*
X20645000Y-7386500D02*
X21848000Y-8589500D01*
X20645000Y-3562500D02*
X20645000Y-7386500D01*
X38745000Y-2408500D02*
X35164068Y-2408500D01*
X26370712Y-2400480D02*
X26362692Y-2408500D01*
X35156047Y-2400479D02*
X26370712Y-2400480D01*
X35164068Y-2408500D02*
X35156047Y-2400479D01*
X67739011Y24818111D02*
X67739011Y18723443D01*
X26362692Y-2408500D02*
X21799000Y-2408500D01*
X69664400Y26743500D02*
X67739011Y24818111D01*
X57110989Y15957489D02*
X38745000Y-2408500D01*
X67739011Y18723443D02*
X64973058Y15957490D01*
X64973058Y15957490D02*
X57110989Y15957489D01*
X21799000Y-2408500D02*
X20645000Y-3562500D01*
%TO.N,Net-(D4-Pad2)*%
X-3642000Y54675500D02*
X-3642000Y52650500D01*
X418000Y58735500D02*
X-3642000Y54675500D01*
X6123000Y58735500D02*
X418000Y58735500D01*
X6888000Y57970500D02*
X6123000Y58735500D01*
D45*
X-3652000Y53770500D02*
X-3652000Y52545500D01*
D44*
%TO.N,Net-(D5-Pad2)*%
X31358000Y52900500D02*
X31358000Y52525500D01*
X28663000Y55595500D02*
X31358000Y52900500D01*
X25888000Y55595500D02*
X28663000Y55595500D01*
D45*
X31348000Y53765500D02*
X31348000Y52540500D01*
D44*
%TO.N,Net-(D6-Pad2)*%
X34358000Y52775500D02*
X34358000Y52650500D01*
X36188000Y54605500D02*
X34358000Y52775500D01*
X43503000Y54605500D02*
X36188000Y54605500D01*
X44888000Y53220500D02*
X43503000Y54605500D01*
D45*
X34348000Y53765500D02*
X34348000Y52540500D01*
D44*
%TO.N,Net-(D7-Pad2)*%
X-47972000Y31845500D02*
X-44652000Y28525500D01*
X-50112000Y31845500D02*
X-47972000Y31845500D01*
D45*
X-44652000Y29768625D02*
X-44652000Y28543625D01*
D44*
%TO.N,Net-(D8-Pad2)*%
X-37727000Y32815500D02*
X-41652000Y28890500D01*
X-32082000Y32815500D02*
X-37727000Y32815500D01*
X-41652000Y28890500D02*
X-41652000Y28650500D01*
X-31112000Y31845500D02*
X-32082000Y32815500D01*
D45*
X-41652000Y29765500D02*
X-41652000Y28540500D01*
D44*
%TO.N,Net-(D9-Pad2)*%
X-9587000Y36595500D02*
X-6767000Y33775500D01*
X-12112000Y36595500D02*
X-9587000Y36595500D01*
D45*
X-6652000Y34765500D02*
X-6652000Y33540500D01*
D44*
%TO.N,Net-(D10-Pad2)*%
X-3652000Y35795500D02*
X-3652000Y34770500D01*
X238000Y39685500D02*
X-3652000Y35795500D01*
X6173000Y39685500D02*
X238000Y39685500D01*
X6888000Y38970500D02*
X6173000Y39685500D01*
D45*
X-3652000Y34770500D02*
X-3652000Y33545500D01*
D44*
%TO.N,Net-(D11-Pad2)*%
X28538000Y36595500D02*
X31358000Y33775500D01*
X31358000Y33775500D02*
X31358000Y33650500D01*
X25888000Y36595500D02*
X28538000Y36595500D01*
D45*
X31348000Y34765500D02*
X31348000Y33540500D01*
D44*
%TO.N,Net-(D12-Pad2)*%
X36358000Y35775500D02*
X34358000Y33775500D01*
X43333000Y35775500D02*
X36358000Y35775500D01*
X44888000Y34220500D02*
X43333000Y35775500D01*
D45*
X34348000Y34765500D02*
X34348000Y33540500D01*
D44*
%TO.N,Net-(D13-Pad2)*%
X-47962000Y12845500D02*
X-44767000Y9650500D01*
X-50112000Y12845500D02*
X-47962000Y12845500D01*
D45*
X-44652000Y10768625D02*
X-44652000Y9543625D01*
D44*
%TO.N,Net-(D14-Pad2)*%
X-40527000Y10900500D02*
X-41652000Y9775500D01*
X-36752000Y14665500D02*
X-40517000Y10900500D01*
X-40517000Y10900500D02*
X-40527000Y10900500D01*
X-32932000Y14665500D02*
X-36752000Y14665500D01*
X-31112000Y12845500D02*
X-32932000Y14665500D01*
D45*
X-41652000Y10765500D02*
X-41652000Y9540500D01*
D44*
%TO.N,Net-(D15-Pad2)*%
X-6652000Y14785500D02*
X-6652000Y14650500D01*
X-9462000Y17595500D02*
X-6652000Y14785500D01*
X-12112000Y17595500D02*
X-9462000Y17595500D01*
D45*
X-6652000Y15765500D02*
X-6652000Y14540500D01*
%TO.N,Net-(D16-Pad2)*%
X-2162000Y13165500D02*
X-3628000Y14631500D01*
X6848000Y19690500D02*
X7718000Y18820500D01*
X1568000Y11175500D02*
X-422000Y13165500D01*
X-3628000Y14631500D02*
X-3652000Y14631500D01*
X6783000Y11175500D02*
X1568000Y11175500D01*
X7718000Y12110500D02*
X6783000Y11175500D01*
X-422000Y13165500D02*
X-2162000Y13165500D01*
X7718000Y18820500D02*
X7718000Y12110500D01*
X-3652000Y15770500D02*
X-3652000Y14545500D01*
D44*
%TO.N,Net-(D17-Pad2)*%
X29993000Y15765500D02*
X31233000Y14525500D01*
X27718000Y15765500D02*
X29993000Y15765500D01*
X25888000Y17595500D02*
X27718000Y15765500D01*
D45*
X31348000Y15765500D02*
X31348000Y14540500D01*
D44*
%TO.N,Net-(D18-Pad2)*%
X34358000Y14900500D02*
X34358000Y14525500D01*
X36093000Y16635500D02*
X34358000Y14900500D01*
X43473000Y16635500D02*
X36093000Y16635500D01*
X44888000Y15220500D02*
X43473000Y16635500D01*
D45*
X34348000Y15765500D02*
X34348000Y14540500D01*
%TO.N,Net-(D19-Pad2)*%
X5668000Y-5449500D02*
X5608000Y-5389500D01*
D44*
X10438000Y-394500D02*
X5733000Y-5099500D01*
X5733000Y-5099500D02*
X5733000Y-5349500D01*
X14753000Y-394500D02*
X10438000Y-394500D01*
X16388000Y-2029500D02*
X14753000Y-394500D01*
D45*
X5668000Y-4224500D02*
X5668000Y-5449500D01*
D44*
%TO.N,Net-(D20-Pad2)*%
X21983000Y-4974500D02*
X21983000Y-5349500D01*
X24094989Y-2862511D02*
X21983000Y-4974500D01*
X26550749Y-2862511D02*
X24094989Y-2862511D01*
X38616252Y-5609997D02*
X37403497Y-5609997D01*
X34647990Y-2854490D02*
X26558770Y-2854490D01*
X37403497Y-5609997D02*
X34647990Y-2854490D01*
X26558770Y-2854490D02*
X26550749Y-2862511D01*
D45*
X21848000Y-4219500D02*
X21848000Y-5444500D01*
D44*
%TO.N,Net-(D21-Pad2)*%
X26890978Y-3316522D02*
X24983000Y-5224500D01*
X34467954Y-3316522D02*
X26890978Y-3316522D01*
X36058000Y-4906568D02*
X34467954Y-3316522D01*
X36058000Y-6444500D02*
X36058000Y-4906568D01*
X38808000Y-9194500D02*
X36058000Y-6444500D01*
X53968591Y-8869795D02*
X51049886Y-11788500D01*
X44135000Y-11788500D02*
X41541000Y-9194500D01*
X41541000Y-9194500D02*
X38808000Y-9194500D01*
X51049886Y-11788500D02*
X44135000Y-11788500D01*
D45*
X24848000Y-4219500D02*
X24848000Y-5444500D01*
D46*
%TO.N,GND*%
X67124400Y47063500D02*
X69664400Y44523500D01*
X54444400Y47063500D02*
X67124400Y47063500D01*
D44*
%TO.N,col0*%
X54444400Y39443500D02*
X50135000Y35134100D01*
X50135000Y35134100D02*
X50135000Y25644440D01*
X50135000Y25644440D02*
X47482073Y22991513D01*
D45*
X47482073Y22991513D02*
X45820111Y21329551D01*
X34244240Y23011500D02*
X34235000Y23011500D01*
X45820111Y21329551D02*
X35926189Y21329551D01*
X35926189Y21329551D02*
X34244240Y23011500D01*
X-39892000Y24525500D02*
X-40142000Y24275500D01*
X34237035Y23009491D02*
X34140996Y23105530D01*
X34140996Y23105530D02*
X-36418270Y23105530D01*
X-37838240Y24525500D02*
X-39892000Y24525500D01*
X-36418270Y23105530D02*
X-37838240Y24525500D01*
D44*
%TO.N,col1*%
X50589010Y25456385D02*
X46010165Y20877541D01*
X46010165Y20877541D02*
X35719719Y20877541D01*
X54444400Y36903500D02*
X50589011Y33048111D01*
X50589011Y33048111D02*
X50589010Y25456385D01*
X35719719Y20877541D02*
X33943738Y22653522D01*
X-36392978Y22653522D02*
X-36555001Y22491499D01*
X-36555001Y22491499D02*
X-36855000Y22191500D01*
X33943738Y22653522D02*
X-36392978Y22653522D01*
%TO.N,col2*%
X-17655001Y20524489D02*
X-17955000Y20224490D01*
X33755681Y22199511D02*
X-15979979Y22199511D01*
X46198223Y20423530D02*
X35531661Y20423531D01*
X51043020Y25268327D02*
X46198223Y20423530D01*
X35531661Y20423531D02*
X33755681Y22199511D01*
X54444400Y34363500D02*
X51043021Y30962121D01*
X-15979979Y22199511D02*
X-17655001Y20524489D01*
X51043021Y30962121D02*
X51043020Y25268327D01*
%TO.N,col3*%
X46386281Y19969519D02*
X51497030Y25080266D01*
X51497031Y28876131D02*
X54444400Y31823500D01*
X35343603Y19969521D02*
X46386281Y19969519D01*
X33567624Y21745500D02*
X35343603Y19969521D01*
X51497030Y25080266D02*
X51497031Y28876131D01*
X2048000Y21745500D02*
X33567624Y21745500D01*
X798000Y20495500D02*
X2048000Y21745500D01*
%TO.N,col4*%
X20178000Y21285500D02*
X19958000Y21065500D01*
X35137989Y19515511D02*
X33368000Y21285500D01*
X46574343Y19515511D02*
X35137989Y19515511D01*
X51951041Y26790141D02*
X51951040Y24892208D01*
X33368000Y21285500D02*
X20178000Y21285500D01*
X51951040Y24892208D02*
X46574343Y19515511D01*
X54444400Y29283500D02*
X51951041Y26790141D01*
%TO.N,col5*%
X39569264Y18850438D02*
X39145000Y18850438D01*
X46762400Y19061500D02*
X39780326Y19061500D01*
X39780326Y19061500D02*
X39569264Y18850438D01*
X54444400Y26743500D02*
X46762400Y19061500D01*
%TO.N,Net-(D22-Pad2)*%
X199628000Y51545500D02*
X195845347Y47762847D01*
X205684915Y51545500D02*
X199628000Y51545500D01*
X195845347Y47762847D02*
X195845347Y47650500D01*
X206385347Y50845068D02*
X205684915Y51545500D01*
D45*
X195845347Y48765068D02*
X195845347Y47540068D01*
D44*
%TO.N,row0_r*%
X195845347Y43717568D02*
X195845347Y42765068D01*
D45*
X195845347Y40012847D02*
X195845347Y42765068D01*
X194858000Y39025500D02*
X195845347Y40012847D01*
X193858000Y39025500D02*
X194858000Y39025500D01*
X192845347Y40038153D02*
X193858000Y39025500D01*
X192845347Y42765068D02*
X192845347Y40038153D01*
D44*
X154858000Y48900500D02*
X154845347Y48887847D01*
X157733000Y48900500D02*
X154858000Y48900500D01*
X157845347Y48788153D02*
X157733000Y48900500D01*
X120137136Y49025500D02*
X116845347Y49025500D01*
X124444915Y48900500D02*
X120262136Y48900500D01*
X126190347Y47155068D02*
X124444915Y48900500D01*
X120262136Y48900500D02*
X120137136Y49025500D01*
X145785347Y48705068D02*
X144235347Y47155068D01*
X154733000Y48900500D02*
X154483000Y48900500D01*
X154287568Y48705068D02*
X145785347Y48705068D01*
X116845347Y46582847D02*
X104499568Y34237068D01*
X104499568Y34237068D02*
X96834747Y34237068D01*
X144235347Y47155068D02*
X126190347Y47155068D01*
X116845347Y49025500D02*
X116845347Y46582847D01*
X154483000Y48900500D02*
X154287568Y48705068D01*
X161725347Y42925068D02*
X157845347Y46805068D01*
X157845347Y46805068D02*
X157845347Y48900500D01*
X178545347Y43735068D02*
X177735347Y42925068D01*
X182145347Y42555068D02*
X180965347Y43735068D01*
X191450068Y42555068D02*
X182145347Y42555068D01*
X177735347Y42925068D02*
X161725347Y42925068D01*
X180965347Y43735068D02*
X178545347Y43735068D01*
X192858000Y43963000D02*
X191450068Y42555068D01*
X192858000Y44025500D02*
X192858000Y43963000D01*
D45*
X116845347Y47765068D02*
X116845347Y48990068D01*
X119845347Y47765068D02*
X119845347Y48990068D01*
X154845347Y47770068D02*
X154845347Y48995068D01*
X157845347Y47765068D02*
X157845347Y48990068D01*
X192845347Y42765068D02*
X192845347Y43990068D01*
X195845347Y42765068D02*
X195845347Y43990068D01*
D44*
%TO.N,Net-(D23-Pad2)*%
X189650779Y50845068D02*
X192845347Y47650500D01*
X187385347Y50845068D02*
X189650779Y50845068D01*
D45*
X192845347Y48765068D02*
X192845347Y47540068D01*
D44*
%TO.N,Net-(D24-Pad2)*%
X157845347Y53137847D02*
X157845347Y52650500D01*
X161403000Y56695500D02*
X157845347Y53137847D01*
X167284915Y56695500D02*
X161403000Y56695500D01*
X168385347Y55595068D02*
X167284915Y56695500D01*
D45*
X157845347Y53765068D02*
X157845347Y52540068D01*
D44*
%TO.N,Net-(D25-Pad2)*%
X149538432Y57970068D02*
X154858000Y52650500D01*
X149385347Y57970068D02*
X149538432Y57970068D01*
D45*
X154845347Y53770068D02*
X154845347Y52545068D01*
D44*
%TO.N,Net-(D26-Pad2)*%
X119845347Y52762847D02*
X119845347Y52525500D01*
X123748000Y56665500D02*
X119845347Y52762847D01*
X129314915Y56665500D02*
X123748000Y56665500D01*
X130385347Y55595068D02*
X129314915Y56665500D01*
D45*
X119845347Y53765068D02*
X119845347Y52540068D01*
D44*
%TO.N,Net-(D27-Pad2)*%
X116288432Y53220068D02*
X116858000Y52650500D01*
X111385347Y53220068D02*
X116288432Y53220068D01*
D45*
X116845347Y53765068D02*
X116845347Y52540068D01*
D44*
%TO.N,row1_r*%
X195845347Y24717568D02*
X195845347Y23765068D01*
D45*
X116845347Y23535068D02*
X116845347Y28765068D01*
X114727358Y21417079D02*
X116845347Y23535068D01*
D44*
X105977767Y21425068D02*
X114685347Y21425068D01*
X98805347Y29726468D02*
X98805347Y27245068D01*
X104625347Y21425068D02*
X105977767Y21425068D01*
X98805347Y27245068D02*
X104625347Y21425068D01*
X96834747Y31697068D02*
X98805347Y29726468D01*
D45*
X192845347Y23765068D02*
X192845347Y21038153D01*
X192845347Y21038153D02*
X193858000Y20025500D01*
X193858000Y20025500D02*
X194858000Y20025500D01*
X195845347Y21012847D02*
X195845347Y23765068D01*
X194858000Y20025500D02*
X195845347Y21012847D01*
D44*
X154687568Y29855068D02*
X154858000Y30025500D01*
X145605347Y29855068D02*
X154687568Y29855068D01*
X143895347Y28145068D02*
X145605347Y29855068D01*
X124264915Y29775500D02*
X125895347Y28145068D01*
X120054915Y29775500D02*
X124264915Y29775500D01*
X125895347Y28145068D02*
X143895347Y28145068D01*
X119804915Y30025500D02*
X120054915Y29775500D01*
X116858000Y30025500D02*
X119804915Y30025500D01*
X116845347Y30012847D02*
X116858000Y30025500D01*
X116845347Y28765068D02*
X116845347Y30012847D01*
X157845347Y29900500D02*
X154733000Y29900500D01*
X157845347Y27622068D02*
X157845347Y29900500D01*
X176875347Y23485068D02*
X161982347Y23485068D01*
X161982347Y23485068D02*
X157845347Y27622068D01*
X178419358Y25029079D02*
X176875347Y23485068D01*
X181001336Y25029079D02*
X178419358Y25029079D01*
X192983000Y25025500D02*
X191552568Y23595068D01*
X191552568Y23595068D02*
X182435347Y23595068D01*
X182435347Y23595068D02*
X181001336Y25029079D01*
D45*
X119845347Y28765068D02*
X119845347Y29990068D01*
X116845347Y28765068D02*
X116845347Y29990068D01*
X154845347Y28770068D02*
X154845347Y29995068D01*
X157845347Y28765068D02*
X157845347Y29990068D01*
X192845347Y23765068D02*
X192845347Y24990068D01*
X195845347Y23765068D02*
X195845347Y24990068D01*
D44*
%TO.N,Net-(D28-Pad2)*%
X195858000Y28775500D02*
X195858000Y28650500D01*
X199778000Y32695500D02*
X195858000Y28775500D01*
X205534915Y32695500D02*
X199778000Y32695500D01*
X206385347Y31845068D02*
X205534915Y32695500D01*
D45*
X195845347Y29765068D02*
X195845347Y28540068D01*
D44*
%TO.N,Net-(D29-Pad2)*%
X189775779Y31845068D02*
X192845347Y28775500D01*
X187385347Y31845068D02*
X189775779Y31845068D01*
D45*
X192845347Y29765068D02*
X192845347Y28540068D01*
D44*
%TO.N,Net-(D30-Pad2)*%
X161748000Y37665500D02*
X157858000Y33775500D01*
X167314915Y37665500D02*
X161748000Y37665500D01*
X168385347Y36595068D02*
X167314915Y37665500D01*
D45*
X157845347Y34765068D02*
X157845347Y33540068D01*
D44*
%TO.N,Net-(D31-Pad2)*%
X154845347Y34038153D02*
X154845347Y33650500D01*
X149913432Y38970068D02*
X154845347Y34038153D01*
X149385347Y38970068D02*
X149913432Y38970068D01*
D45*
X154845347Y34770068D02*
X154845347Y33545068D01*
D44*
%TO.N,Net-(D32-Pad2)*%
X123603000Y37645500D02*
X119845347Y33887847D01*
X129334915Y37645500D02*
X123603000Y37645500D01*
X119845347Y33887847D02*
X119845347Y33525500D01*
X130385347Y36595068D02*
X129334915Y37645500D01*
D45*
X119845347Y34765068D02*
X119845347Y33540068D01*
D44*
%TO.N,Net-(D33-Pad2)*%
X116163432Y34220068D02*
X116858000Y33525500D01*
X111385347Y34220068D02*
X116163432Y34220068D01*
D45*
X116845347Y34765068D02*
X116845347Y33540068D01*
D44*
%TO.N,row2_r*%
X195845347Y5717568D02*
X195845347Y4765068D01*
X96834747Y29157068D02*
X97596746Y28395069D01*
X97596746Y28395069D02*
X97596746Y27811601D01*
X100975346Y24433001D02*
X100975346Y23785066D01*
X97596746Y27811601D02*
X100975346Y24433001D01*
X100975346Y23785066D02*
X100675347Y23485067D01*
X101349179Y16425500D02*
X101099611Y16675068D01*
X107308000Y16425500D02*
X101349179Y16425500D01*
X111988432Y11745068D02*
X107308000Y16425500D01*
X116008347Y11745068D02*
X111988432Y11745068D01*
X116845347Y10908068D02*
X116008347Y11745068D01*
X101099611Y16675068D02*
X100675347Y16675068D01*
D45*
X192858000Y3613415D02*
X192858000Y25500D01*
X194858000Y-974500D02*
X195845347Y12847D01*
X192858000Y25500D02*
X193858000Y-974500D01*
X192845347Y3626068D02*
X192858000Y3613415D01*
X195845347Y12847D02*
X195845347Y4765068D01*
X193858000Y-974500D02*
X194858000Y-974500D01*
X192845347Y4765068D02*
X192845347Y3626068D01*
D44*
X116845347Y10775500D02*
X119845347Y10775500D01*
X125625347Y9095068D02*
X123944915Y10775500D01*
X123944915Y10775500D02*
X119983000Y10775500D01*
X143825347Y9095068D02*
X125625347Y9095068D01*
X154733000Y10935068D02*
X145665347Y10935068D01*
X154767568Y10900500D02*
X154733000Y10935068D01*
X145665347Y10935068D02*
X143825347Y9095068D01*
X157845347Y10900500D02*
X154767568Y10900500D01*
X161505347Y4965068D02*
X157858000Y8612415D01*
X157858000Y8612415D02*
X157858000Y10775500D01*
X177802010Y4965068D02*
X161505347Y4965068D01*
X192983000Y5900500D02*
X191287568Y4205068D01*
X182265347Y4205068D02*
X180875347Y5595068D01*
X180875347Y5595068D02*
X178432010Y5595068D01*
X191287568Y4205068D02*
X182265347Y4205068D01*
X178432010Y5595068D02*
X177802010Y4965068D01*
D45*
X116845347Y9765068D02*
X116845347Y10990068D01*
X119845347Y9765068D02*
X119845347Y10990068D01*
X154845347Y9770068D02*
X154845347Y10995068D01*
X157845347Y9765068D02*
X157845347Y10990068D01*
X195845347Y4765068D02*
X195845347Y5990068D01*
X192845347Y4765068D02*
X192845347Y5990068D01*
D44*
%TO.N,Net-(D34-Pad2)*%
X199768000Y13685500D02*
X195845347Y9762847D01*
X195845347Y9762847D02*
X195845347Y9650500D01*
X205544915Y13685500D02*
X199768000Y13685500D01*
X206385347Y12845068D02*
X205544915Y13685500D01*
D45*
X195845347Y10765068D02*
X195845347Y9540068D01*
D44*
%TO.N,Net-(D35-Pad2)*%
X189650779Y12845068D02*
X192845347Y9650500D01*
X187385347Y12845068D02*
X189650779Y12845068D01*
D45*
X192845347Y10765068D02*
X192845347Y9540068D01*
D44*
%TO.N,Net-(D36-Pad2)*%
X157845347Y14887847D02*
X157845347Y14775500D01*
X161523000Y18565500D02*
X157845347Y14887847D01*
X167414915Y18565500D02*
X161523000Y18565500D01*
X168385347Y17595068D02*
X167414915Y18565500D01*
D45*
X157845347Y15765068D02*
X157845347Y14540068D01*
D44*
%TO.N,Net-(D37-Pad2)*%
X149663432Y19970068D02*
X154845347Y14788153D01*
X154845347Y14788153D02*
X154845347Y14775500D01*
X149385347Y19970068D02*
X149663432Y19970068D01*
D45*
X154845347Y15770068D02*
X154845347Y14545068D01*
D44*
%TO.N,Net-(D38-Pad2)*%
X119858000Y14900500D02*
X119858000Y14650500D01*
X123693000Y18735500D02*
X119858000Y14900500D01*
X129244915Y18735500D02*
X123693000Y18735500D01*
X130385347Y17595068D02*
X129244915Y18735500D01*
D45*
X119845347Y15765068D02*
X119845347Y14540068D01*
D44*
%TO.N,Net-(D39-Pad2)*%
X116163432Y15220068D02*
X116858000Y14525500D01*
X111385347Y15220068D02*
X116163432Y15220068D01*
D45*
X116845347Y15765068D02*
X116845347Y14540068D01*
D44*
%TO.N,Net-(D40-Pad2)*%
X143130347Y-2029932D02*
X145345347Y-4244932D01*
X139885347Y-2029932D02*
X143130347Y-2029932D01*
D45*
X145345347Y-4244932D02*
X145345347Y-5469932D01*
D44*
%TO.N,row3_r*%
X100125347Y24435068D02*
X100125347Y24315068D01*
X97943347Y26617068D02*
X100125347Y24435068D01*
X96834747Y26617068D02*
X97943347Y26617068D01*
D45*
X126355347Y-9004932D02*
X126358000Y-9007585D01*
D44*
X129355347Y-9099500D02*
X126483000Y-9099500D01*
X107176364Y15915068D02*
X100479611Y15915068D01*
X112135347Y10956085D02*
X107176364Y15915068D01*
X100479611Y15915068D02*
X100055347Y15915068D01*
X112135347Y4615068D02*
X112135347Y10956085D01*
X118395347Y-1644932D02*
X112135347Y4615068D01*
X130483000Y-3162585D02*
X128965347Y-1644932D01*
X129358000Y-9099500D02*
X130483000Y-7974500D01*
X130483000Y-7974500D02*
X130483000Y-3162585D01*
X128965347Y-1644932D02*
X118395347Y-1644932D01*
X143824915Y-10224932D02*
X135665347Y-10224932D01*
X134539915Y-9099500D02*
X129233000Y-9099500D01*
X145325347Y-8724500D02*
X143824915Y-10224932D01*
X135665347Y-10224932D02*
X134539915Y-9099500D01*
D45*
X126355347Y-10229932D02*
X126355347Y-9004932D01*
X129355347Y-10229932D02*
X129355347Y-9004932D01*
X145345347Y-10244932D02*
X145345347Y-9019932D01*
D44*
%TO.N,Net-(D41-Pad2)*%
X128656848Y-3531433D02*
X129355347Y-4229932D01*
X127780347Y-2654932D02*
X128656848Y-3531433D01*
X119124694Y-2654932D02*
X127780347Y-2654932D01*
X117483998Y-4295628D02*
X119124694Y-2654932D01*
D45*
X129355347Y-4229932D02*
X129355347Y-5454932D01*
D44*
%TO.N,Net-(D42-Pad2)*%
X125043000Y-6664500D02*
X126358000Y-5349500D01*
X114088000Y-4444500D02*
X116308000Y-6664500D01*
X111798000Y-4444500D02*
X114088000Y-4444500D01*
X109305347Y-6937153D02*
X111798000Y-4444500D01*
X105934097Y-13016182D02*
X109305347Y-9644932D01*
X99764756Y-13269637D02*
X100018211Y-13016182D01*
X109305347Y-9644932D02*
X109305347Y-6937153D01*
X116308000Y-6664500D02*
X125043000Y-6664500D01*
X100018211Y-13016182D02*
X105934097Y-13016182D01*
D45*
X126355347Y-4229932D02*
X126355347Y-5454932D01*
D44*
%TO.N,col0_r*%
X117013122Y23051109D02*
X161774239Y23051108D01*
X161774239Y23051108D02*
X161794290Y23031057D01*
X85295348Y26146807D02*
X91547032Y19895123D01*
X161794290Y23031057D02*
X177081336Y23031057D01*
X177081336Y23031057D02*
X178625347Y24575068D01*
X180813279Y24575068D02*
X182420289Y22968058D01*
X114927087Y20965074D02*
X117013122Y23051109D01*
X182420289Y22968058D02*
X190381083Y22968058D01*
X178625347Y24575068D02*
X180813279Y24575068D01*
X81614747Y39317068D02*
X85295347Y35636468D01*
X91547032Y19895123D02*
X99525062Y19895123D01*
X99525062Y19895123D02*
X100595013Y20965074D01*
X100595013Y20965074D02*
X114927087Y20965074D01*
X85295347Y35636468D02*
X85295348Y26146807D01*
X190381083Y22968058D02*
X190805347Y22968058D01*
%TO.N,col1_r*%
X161592222Y22591057D02*
X161606233Y22577046D01*
X180435561Y22577046D02*
X180481083Y22622568D01*
D45*
X179459326Y22579047D02*
X179745347Y22865068D01*
X161604232Y22579047D02*
X179459326Y22579047D01*
X161592222Y22591057D02*
X161604232Y22579047D01*
D44*
X99713119Y19441112D02*
X100783070Y20511063D01*
X100783070Y20511063D02*
X115115144Y20511063D01*
X115115144Y20511063D02*
X117201179Y22597098D01*
X91358975Y19441112D02*
X99713119Y19441112D01*
X81614747Y36777068D02*
X84841337Y33550478D01*
X117201179Y22597098D02*
X161586181Y22597098D01*
X84841337Y33550478D02*
X84841338Y25958749D01*
X161586181Y22597098D02*
X161592222Y22591057D01*
X84841338Y25958749D02*
X91358975Y19441112D01*
%TO.N,col2_r*%
X99901176Y18987101D02*
X100971127Y20057052D01*
X81614747Y34237068D02*
X84387327Y31464488D01*
X84387328Y25770691D02*
X91170918Y18987101D01*
X91170918Y18987101D02*
X99901176Y18987101D01*
X117384206Y22138057D02*
X161243218Y22138057D01*
X84387327Y31464488D02*
X84387328Y25770691D01*
X100971127Y20057052D02*
X115303201Y20057052D01*
X161243218Y22138057D02*
X161543217Y21838058D01*
X115303201Y20057052D02*
X117384206Y22138057D01*
%TO.N,col3_r*%
X100089233Y18533090D02*
X101159184Y19603041D01*
X117572263Y21684046D02*
X142305348Y21684046D01*
X142305348Y21684046D02*
X142605347Y21384047D01*
X83933318Y25582633D02*
X90982861Y18533090D01*
X83933317Y29378498D02*
X83933318Y25582633D01*
X101159184Y19603041D02*
X115491258Y19603041D01*
X81614747Y31697068D02*
X83933317Y29378498D01*
X90982861Y18533090D02*
X100089233Y18533090D01*
X115491258Y19603041D02*
X117572263Y21684046D01*
%TO.N,col4_r*%
X123369883Y21165500D02*
X123684297Y20851086D01*
X117858000Y21165500D02*
X123369883Y21165500D01*
X115777420Y19084920D02*
X117858000Y21165500D01*
X101283131Y19084920D02*
X115777420Y19084920D01*
X100277290Y18079079D02*
X101283131Y19084920D01*
X90794804Y18079079D02*
X100277290Y18079079D01*
X83479308Y25394575D02*
X90794804Y18079079D01*
X83479307Y27292508D02*
X83479308Y25394575D01*
X81614747Y29157068D02*
X83479307Y27292508D01*
%TO.N,col5_r*%
X104925359Y18625068D02*
X105105347Y18445080D01*
X90626746Y17605069D02*
X100445348Y17605069D01*
X100445348Y17605069D02*
X101465347Y18625068D01*
X81614747Y26617068D02*
X90626746Y17605069D01*
X101465347Y18625068D02*
X104925359Y18625068D01*
D46*
%TO.N,GNDA*%
X94294747Y46937068D02*
X96834747Y44397068D01*
X81614747Y46937068D02*
X94294747Y46937068D01*
%TD*%
M02*
