M48
; DRILL file {KiCad 8.0.3} date 2024-08-02T01:13:42+0100
; FORMAT={-:-/ absolute / inch / decimal}
; #@! TF.CreationDate,2024-08-02T01:13:42+01:00
; #@! TF.GenerationSoftware,Kicad,Pcbnew,8.0.3
; #@! TF.FileFunction,Plated,1,2,PTH
FMAT,2
INCH
; #@! TA.AperFunction,Plated,PTH,ComponentDrill
T1C0.0118
; #@! TA.AperFunction,Plated,PTH,ViaDrill
T2C0.0157
; #@! TA.AperFunction,Plated,PTH,ComponentDrill
T3C0.0157
; #@! TA.AperFunction,Plated,PTH,ComponentDrill
T4C0.0320
; #@! TA.AperFunction,Plated,PTH,ComponentDrill
T5C0.0394
; #@! TA.AperFunction,Plated,PTH,ComponentDrill
T6C0.0512
; #@! TA.AperFunction,Plated,PTH,ComponentDrill
T7C0.0551
%
G90
G05
T2
X-1.5804Y0.9557
X-1.451Y0.8737
X-0.7069Y0.7962
X0.0314Y0.8069
X0.7857Y0.8294
X1.5411Y0.7421
X3.9392Y0.6266
X3.9419Y0.9573
X3.9636Y0.9246
X3.9636Y0.6565
X4.138Y0.7262
X4.8695Y0.8209
X5.6144Y0.8419
X6.36Y0.8598
X7.512Y0.9043
T4
X-1.758Y1.92
X-1.758Y1.6838
X-1.758Y1.172
X-1.758Y0.9358
X-1.758Y0.424
X-1.758Y0.1877
X-1.6398Y1.9199
X-1.6398Y1.6837
X-1.6398Y1.1719
X-1.6398Y0.9356
X-1.6398Y0.4238
X-1.6398Y0.1876
X-0.2619Y2.1168
X-0.2619Y1.8805
X-0.2619Y1.3687
X-0.2619Y1.1325
X-0.2619Y0.6207
X-0.2619Y0.3845
X-0.1438Y2.1169
X-0.1438Y1.8807
X-0.1438Y1.3689
X-0.1438Y1.1327
X-0.1438Y0.6209
X-0.1438Y0.3847
X0.2231Y-0.1663
X0.2231Y-0.4025
X0.8602Y-0.1661
X0.8602Y-0.4023
X0.9783Y-0.1661
X0.9783Y-0.4023
X1.2342Y2.1168
X1.2342Y1.8805
X1.2342Y1.3687
X1.2342Y1.1325
X1.2342Y0.6207
X1.2342Y0.3845
X1.3523Y2.1168
X1.3523Y1.8805
X1.3523Y1.3687
X1.3523Y1.1325
X1.3523Y0.6207
X1.3523Y0.3845
X2.1435Y1.9529
X2.1435Y1.8529
X2.1435Y1.7529
X2.1435Y1.6529
X2.1435Y1.5529
X2.1435Y1.4529
X2.1435Y1.3529
X2.1435Y1.2529
X2.1435Y1.1529
X2.1435Y1.0529
X2.1435Y0.9529
X2.1435Y0.8529
X2.2909Y0.5716
X2.3909Y0.5716
X2.4909Y0.5716
X2.5909Y0.5716
X2.7427Y1.9529
X2.7427Y1.8529
X2.7427Y1.7529
X2.7427Y1.6529
X2.7427Y1.5529
X2.7427Y1.4529
X2.7427Y1.3529
X2.7427Y1.2529
X2.7427Y1.1529
X2.7427Y1.0529
X2.7427Y0.9529
X2.7427Y0.8529
X3.2132Y1.9479
X3.2132Y1.8479
X3.2132Y1.7479
X3.2132Y1.6479
X3.2132Y1.5479
X3.2132Y1.4479
X3.2132Y1.3479
X3.2132Y1.2479
X3.2132Y1.1479
X3.2132Y1.0479
X3.2132Y0.9479
X3.2132Y0.8479
X3.3629Y0.566
X3.4629Y0.566
X3.5629Y0.566
X3.6629Y0.566
X3.8124Y1.9479
X3.8124Y1.8479
X3.8124Y1.7479
X3.8124Y1.6479
X3.8124Y1.5479
X3.8124Y1.4479
X3.8124Y1.3479
X3.8124Y1.2479
X3.8124Y1.1479
X3.8124Y1.0479
X3.8124Y0.9479
X3.8124Y0.8479
X4.6002Y2.1167
X4.6002Y1.8805
X4.6002Y1.3687
X4.6002Y1.1325
X4.6002Y0.6207
X4.6002Y0.3845
X4.7183Y2.1167
X4.7183Y1.8805
X4.7183Y1.3687
X4.7183Y1.1325
X4.7183Y0.6207
X4.7183Y0.3845
X4.9746Y-0.1665
X4.9746Y-0.4028
X5.0927Y-0.1665
X5.0927Y-0.4028
X5.7223Y-0.1671
X5.7223Y-0.4033
X6.0963Y2.1169
X6.0963Y1.8807
X6.0963Y1.3689
X6.0963Y1.1327
X6.0963Y0.6209
X6.0963Y0.3846
X6.2144Y2.1167
X6.2144Y1.8805
X6.2144Y1.3687
X6.2144Y1.1325
X6.2144Y0.6207
X6.2144Y0.3845
X7.5923Y1.9199
X7.5923Y1.6837
X7.5923Y1.1719
X7.5923Y0.9356
X7.5923Y0.4238
X7.5923Y0.1876
X7.7104Y1.9199
X7.7104Y1.6837
X7.7104Y1.1719
X7.7104Y0.9356
X7.7104Y0.4238
X7.7104Y0.1876
T6
X2.7427Y0.7191
X2.7427Y0.4632
X3.2101Y0.7133
X3.2101Y0.4574
T7
X-2.2225Y1.9022
X-2.2225Y1.1542
X-2.2225Y0.4061
X-2.1713Y1.9593
X-2.1713Y1.2112
X-2.1713Y0.4632
X-1.4745Y1.9022
X-1.4745Y1.1542
X-1.4745Y0.4061
X-1.4233Y1.9593
X-1.4233Y1.2112
X-1.4233Y0.4632
X-0.7265Y2.0892
X-0.7265Y1.3412
X-0.7265Y0.5931
X-0.6753Y2.1463
X-0.6753Y1.3982
X-0.6753Y0.6502
X0.0216Y2.1827
X0.0216Y1.4347
X0.0216Y0.6866
X0.0728Y2.2398
X0.0728Y1.4918
X0.0728Y0.7437
X0.3956Y-0.1795
X0.4468Y-0.1224
X0.7696Y2.0892
X0.7696Y1.3412
X0.7696Y0.5931
X0.8208Y2.1463
X0.8208Y1.3982
X0.8208Y0.6502
X1.2534Y-0.2525
X1.3177Y-0.2106
X1.5176Y1.9957
X1.5176Y1.2477
X1.5176Y0.4996
X1.5688Y2.0528
X1.5688Y1.3047
X1.5688Y0.5567
X2.0624Y-0.5423
X2.0862Y-0.6152
X3.7167Y-0.3561
X3.7917Y-0.3718
X4.1356Y1.9957
X4.1356Y1.2476
X4.1356Y0.4996
X4.1868Y2.0528
X4.1868Y1.3047
X4.1868Y0.5567
X4.41Y-0.3299
X4.4447Y-0.2615
X4.8837Y2.0892
X4.8837Y1.3411
X4.8837Y0.5931
X4.9349Y2.1463
X4.9349Y1.3982
X4.9349Y0.6502
X5.2577Y-0.1795
X5.3089Y-0.1224
X5.6317Y2.1827
X5.6317Y1.4346
X5.6317Y0.6866
X5.6829Y2.2398
X5.6829Y1.4917
X5.6829Y0.7437
X6.3797Y2.0892
X6.3797Y1.3411
X6.3797Y0.5931
X6.4309Y2.1463
X6.4309Y1.3982
X6.4309Y0.6502
X7.1278Y1.9022
X7.1278Y1.1541
X7.1278Y0.4061
X7.179Y1.9593
X7.179Y1.2112
X7.179Y0.4632
X7.8758Y1.9022
X7.8758Y1.1541
X7.8758Y0.4061
X7.927Y1.9593
X7.927Y1.2112
X7.927Y0.4632
T1
G00X-2.0867Y1.5695
M15
G01X-2.0591Y1.5695
M16
G05
G00X-2.0867Y0.8215
M15
G01X-2.0591Y0.8215
M16
G05
G00X-2.0867Y0.0734
M15
G01X-2.0591Y0.0734
M16
G05
G00X-1.8898Y2.0202
M15
G01X-1.8623Y2.0204
M16
G05
G00X-1.8898Y1.2721
M15
G01X-1.8623Y1.2724
M16
G05
G00X-1.8898Y0.5241
M15
G01X-1.8623Y0.5244
M16
G05
G00X-1.3387Y1.5695
M15
G01X-1.3111Y1.5695
M16
G05
G00X-1.3387Y0.8215
M15
G01X-1.3111Y0.8215
M16
G05
G00X-1.3387Y0.0734
M15
G01X-1.3111Y0.0734
M16
G05
G00X-1.1418Y2.0202
M15
G01X-1.1143Y2.0204
M16
G05
G00X-1.1418Y1.2721
M15
G01X-1.1143Y1.2724
M16
G05
G00X-1.1418Y0.5241
M15
G01X-1.1143Y0.5244
M16
G05
G00X-0.5906Y1.7565
M15
G01X-0.5631Y1.7565
M16
G05
G00X-0.5906Y1.0085
M15
G01X-0.5631Y1.0085
M16
G05
G00X-0.5906Y0.2605
M15
G01X-0.5631Y0.2605
M16
G05
G00X-0.3938Y2.2072
M15
G01X-0.3662Y2.2074
M16
G05
G00X-0.3938Y1.4592
M15
G01X-0.3662Y1.4594
M16
G05
G00X-0.3938Y0.7111
M15
G01X-0.3662Y0.7114
M16
G05
G00X0.1574Y1.85
M15
G01X0.185Y1.85
M16
G05
G00X0.1574Y1.102
M15
G01X0.185Y1.102
M16
G05
G00X0.1574Y0.354
M15
G01X0.185Y0.354
M16
G05
G00X0.3543Y2.3007
M15
G01X0.3818Y2.3009
M16
G05
G00X0.3543Y1.5527
M15
G01X0.3818Y1.5529
M16
G05
G00X0.3543Y0.8046
M15
G01X0.3818Y0.8049
M16
G05
G00X0.5314Y-0.5122
M15
G01X0.559Y-0.5122
M16
G05
G00X0.7283Y-0.0615
M15
G01X0.7558Y-0.0613
M16
G05
G00X0.9054Y1.7565
M15
G01X0.933Y1.7565
M16
G05
G00X0.9054Y1.0085
M15
G01X0.933Y1.0085
M16
G05
G00X0.9054Y0.2605
M15
G01X0.933Y0.2605
M16
G05
G00X1.1023Y2.2072
M15
G01X1.1298Y2.2074
M16
G05
G00X1.1023Y1.4592
M15
G01X1.1298Y1.4594
M16
G05
G00X1.1023Y0.7111
M15
G01X1.1298Y0.7114
M16
G05
G00X1.2985Y-0.609
M15
G01X1.3252Y-0.6161
M16
G05
G00X1.6053Y-0.2246
M15
G01X1.632Y-0.2315
M16
G05
G00X1.6535Y1.663
M15
G01X1.681Y1.663
M16
G05
G00X1.6535Y0.915
M15
G01X1.681Y0.915
M16
G05
G00X1.6535Y0.1669
M15
G01X1.681Y0.1669
M16
G05
G00X1.8503Y2.1137
M15
G01X1.8779Y2.1139
M16
G05
G00X1.8503Y1.3656
M15
G01X1.8779Y1.3659
M16
G05
G00X1.8503Y0.6176
M15
G01X1.8779Y0.6179
M16
G05
G00X2.1504Y-0.2681
M15
G01X2.1639Y-0.2441
M16
G05
G00X2.4422Y-0.6639
M15
G01X2.456Y-0.64
M16
G05
G00X3.4965Y-0.64
M15
G01X3.5103Y-0.6639
M16
G05
G00X3.9852Y-0.5852
M15
G01X3.9992Y-0.6089
M16
G05
G00X4.2715Y1.663
M15
G01X4.299Y1.663
M16
G05
G00X4.2715Y0.915
M15
G01X4.299Y0.915
M16
G05
G00X4.2715Y0.1669
M15
G01X4.299Y0.1669
M16
G05
G00X4.4683Y2.1137
M15
G01X4.4959Y2.1139
M16
G05
G00X4.4683Y1.3656
M15
G01X4.4959Y1.3659
M16
G05
G00X4.4683Y0.6176
M15
G01X4.4959Y0.6178
M16
G05
G00X4.6273Y-0.6161
M15
G01X4.654Y-0.609
M16
G05
G00X4.7008Y-0.1299
M15
G01X4.7274Y-0.1225
M16
G05
G00X5.0195Y1.7565
M15
G01X5.0471Y1.7565
M16
G05
G00X5.0195Y1.0085
M15
G01X5.0471Y1.0085
M16
G05
G00X5.0195Y0.2604
M15
G01X5.0471Y0.2604
M16
G05
G00X5.2164Y2.2072
M15
G01X5.2439Y2.2074
M16
G05
G00X5.2164Y1.4591
M15
G01X5.2439Y1.4594
M16
G05
G00X5.2164Y0.7111
M15
G01X5.2439Y0.7113
M16
G05
G00X5.3935Y-0.5122
M15
G01X5.4211Y-0.5122
M16
G05
G00X5.5904Y-0.0615
M15
G01X5.6179Y-0.0613
M16
G05
G00X5.7675Y1.85
M15
G01X5.7951Y1.85
M16
G05
G00X5.7675Y1.102
M15
G01X5.7951Y1.102
M16
G05
G00X5.7675Y0.3539
M15
G01X5.7951Y0.3539
M16
G05
G00X5.9644Y2.3007
M15
G01X5.9919Y2.3009
M16
G05
G00X5.9644Y1.5526
M15
G01X5.9919Y1.5529
M16
G05
G00X5.9644Y0.8046
M15
G01X5.9919Y0.8048
M16
G05
G00X6.5156Y1.7565
M15
G01X6.5431Y1.7565
M16
G05
G00X6.5156Y1.0085
M15
G01X6.5431Y1.0085
M16
G05
G00X6.5156Y0.2604
M15
G01X6.5431Y0.2604
M16
G05
G00X6.7124Y2.2072
M15
G01X6.74Y2.2074
M16
G05
G00X6.7124Y1.4591
M15
G01X6.74Y1.4594
M16
G05
G00X6.7124Y0.7111
M15
G01X6.74Y0.7113
M16
G05
G00X7.2636Y1.5695
M15
G01X7.2912Y1.5695
M16
G05
G00X7.2636Y0.8215
M15
G01X7.2912Y0.8215
M16
G05
G00X7.2636Y0.0734
M15
G01X7.2912Y0.0734
M16
G05
G00X7.4604Y2.0202
M15
G01X7.488Y2.0204
M16
G05
G00X7.4604Y1.2721
M15
G01X7.488Y1.2724
M16
G05
G00X7.4604Y0.5241
M15
G01X7.488Y0.5243
M16
G05
G00X8.0116Y1.5695
M15
G01X8.0392Y1.5695
M16
G05
G00X8.0116Y0.8215
M15
G01X8.0392Y0.8215
M16
G05
G00X8.0116Y0.0734
M15
G01X8.0392Y0.0734
M16
G05
G00X8.2085Y2.0202
M15
G01X8.236Y2.0204
M16
G05
G00X8.2085Y1.2721
M15
G01X8.236Y1.2724
M16
G05
G00X8.2085Y0.5241
M15
G01X8.236Y0.5243
M16
G05
T3
G00X-2.2855Y1.6482
M15
G01X-2.2619Y1.6482
M16
G05
G00X-2.2855Y0.9002
M15
G01X-2.2619Y0.9002
M16
G05
G00X-2.2855Y0.1522
M15
G01X-2.2619Y0.1522
M16
G05
G00X-1.5375Y1.6482
M15
G01X-1.5139Y1.6482
M16
G05
G00X-1.5375Y0.9002
M15
G01X-1.5139Y0.9002
M16
G05
G00X-1.5375Y0.1522
M15
G01X-1.5139Y0.1522
M16
G05
G00X-0.7894Y1.8353
M15
G01X-0.7658Y1.8353
M16
G05
G00X-0.7894Y1.0872
M15
G01X-0.7658Y1.0872
M16
G05
G00X-0.7894Y0.3392
M15
G01X-0.7658Y0.3392
M16
G05
G00X-0.0414Y1.9288
M15
G01X-0.0178Y1.9288
M16
G05
G00X-0.0414Y1.1807
M15
G01X-0.0178Y1.1807
M16
G05
G00X-0.0414Y0.4327
M15
G01X-0.0178Y0.4327
M16
G05
G00X0.3326Y-0.4334
M15
G01X0.3562Y-0.4334
M16
G05
G00X0.7066Y1.8353
M15
G01X0.7302Y1.8353
M16
G05
G00X0.7066Y1.0872
M15
G01X0.7302Y1.0872
M16
G05
G00X0.7066Y0.3392
M15
G01X0.7302Y0.3392
M16
G05
G00X1.1269Y-0.4815
M15
G01X1.1497Y-0.4876
M16
G05
G00X1.4546Y1.7418
M15
G01X1.4783Y1.7418
M16
G05
G00X1.4546Y0.9937
M15
G01X1.4783Y0.9937
M16
G05
G00X1.4546Y0.2457
M15
G01X1.4783Y0.2457
M16
G05
G00X2.2746Y-0.7967
M15
G01X2.2864Y-0.7762
M16
G05
G00X3.4653Y-0.4285
M15
G01X3.4771Y-0.4489
M16
G05
G00X4.0727Y1.7417
M15
G01X4.0963Y1.7417
M16
G05
G00X4.0727Y0.9937
M15
G01X4.0963Y0.9937
M16
G05
G00X4.0727Y0.2457
M15
G01X4.0963Y0.2457
M16
G05
G00X4.4149Y-0.5915
M15
G01X4.4377Y-0.5854
M16
G05
G00X4.8207Y1.8352
M15
G01X4.8443Y1.8352
M16
G05
G00X4.8207Y1.0872
M15
G01X4.8443Y1.0872
M16
G05
G00X4.8207Y0.3392
M15
G01X4.8443Y0.3392
M16
G05
G00X5.1947Y-0.4335
M15
G01X5.2183Y-0.4335
M16
G05
G00X5.5687Y1.9287
M15
G01X5.5923Y1.9287
M16
G05
G00X5.5687Y1.1807
M15
G01X5.5923Y1.1807
M16
G05
G00X5.5687Y0.4327
M15
G01X5.5923Y0.4327
M16
G05
G00X6.3167Y1.8352
M15
G01X6.3404Y1.8352
M16
G05
G00X6.3167Y1.0872
M15
G01X6.3404Y1.0872
M16
G05
G00X6.3167Y0.3392
M15
G01X6.3404Y0.3392
M16
G05
G00X7.0648Y1.6482
M15
G01X7.0884Y1.6482
M16
G05
G00X7.0648Y0.9002
M15
G01X7.0884Y0.9002
M16
G05
G00X7.0648Y0.1522
M15
G01X7.0884Y0.1522
M16
G05
G00X7.8128Y1.6482
M15
G01X7.8364Y1.6482
M16
G05
G00X7.8128Y0.9002
M15
G01X7.8364Y0.9002
M16
G05
G00X7.8128Y0.1522
M15
G01X7.8364Y0.1522
M16
G05
T5
G00X2.3553Y0.3682
M15
G01X2.3356Y0.3682
M16
G05
G00X2.4144Y0.2029
M15
G01X2.3947Y0.2029
M16
G05
G00X2.5719Y0.2029
M15
G01X2.5522Y0.2029
M16
G05
G00X2.69Y0.2029
M15
G01X2.6703Y0.2029
M16
G05
G00X3.2606Y0.363
M15
G01X3.2802Y0.363
M16
G05
G00X3.3787Y0.363
M15
G01X3.3984Y0.363
M16
G05
G00X3.5362Y0.363
M15
G01X3.5558Y0.363
M16
G05
G00X3.5952Y0.1976
M15
G01X3.6149Y0.1976
M16
G05
T7
G00X-1.9745Y2.0016
M15
G01X-1.9745Y1.9799
M16
G05
G00X-1.9745Y1.2536
M15
G01X-1.9745Y1.2319
M16
G05
G00X-1.9745Y0.5055
M15
G01X-1.9745Y0.4839
M16
G05
G00X-1.2265Y2.0016
M15
G01X-1.2265Y1.9799
M16
G05
G00X-1.2265Y1.2536
M15
G01X-1.2265Y1.2319
M16
G05
G00X-1.2265Y0.5055
M15
G01X-1.2265Y0.4839
M16
G05
G00X-0.4784Y2.1886
M15
G01X-0.4784Y2.1669
M16
G05
G00X-0.4784Y1.4406
M15
G01X-0.4784Y1.4189
M16
G05
G00X-0.4784Y0.6925
M15
G01X-0.4784Y0.6709
M16
G05
G00X0.2696Y2.2821
M15
G01X0.2696Y2.2605
M16
G05
G00X0.2696Y1.5341
M15
G01X0.2696Y1.5124
M16
G05
G00X0.2696Y0.786
M15
G01X0.2696Y0.7644
M16
G05
G00X0.6436Y-0.0801
M15
G01X0.6436Y-0.1018
M16
G05
G00X1.0176Y2.1886
M15
G01X1.0176Y2.1669
M16
G05
G00X1.0176Y1.4406
M15
G01X1.0176Y1.4189
M16
G05
G00X1.0176Y0.6925
M15
G01X1.0176Y0.6709
M16
G05
G00X1.5188Y-0.2206
M15
G01X1.5131Y-0.2416
M16
G05
G00X1.7657Y2.0951
M15
G01X1.7657Y2.0734
M16
G05
G00X1.7657Y1.3471
M15
G01X1.7657Y1.3254
M16
G05
G00X1.7657Y0.599
M15
G01X1.7657Y0.5774
M16
G05
G00X2.1241Y-0.3507
M15
G01X2.1429Y-0.3615
M16
G05
G00X3.9268Y-0.5212
M15
G01X3.908Y-0.532
M16
G05
G00X4.3837Y2.0951
M15
G01X4.3837Y2.0734
M16
G05
G00X4.3837Y1.347
M15
G01X4.3837Y1.3254
M16
G05
G00X4.3837Y0.599
M15
G01X4.3837Y0.5774
M16
G05
G00X4.6239Y-0.1697
M15
G01X4.6295Y-0.1906
M16
G05
G00X5.1317Y2.1886
M15
G01X5.1317Y2.1669
M16
G05
G00X5.1317Y1.4406
M15
G01X5.1317Y1.4189
M16
G05
G00X5.1317Y0.6925
M15
G01X5.1317Y0.6709
M16
G05
G00X5.5057Y-0.0801
M15
G01X5.5057Y-0.1018
M16
G05
G00X5.8797Y2.2821
M15
G01X5.8797Y2.2604
M16
G05
G00X5.8797Y1.5341
M15
G01X5.8797Y1.5124
M16
G05
G00X5.8797Y0.786
M15
G01X5.8797Y0.7644
M16
G05
G00X6.6278Y2.1886
M15
G01X6.6278Y2.1669
M16
G05
G00X6.6278Y1.4406
M15
G01X6.6278Y1.4189
M16
G05
G00X6.6278Y0.6925
M15
G01X6.6278Y0.6709
M16
G05
G00X7.3758Y2.0016
M15
G01X7.3758Y1.9799
M16
G05
G00X7.3758Y1.2535
M15
G01X7.3758Y1.2319
M16
G05
G00X7.3758Y0.5055
M15
G01X7.3758Y0.4839
M16
G05
G00X8.1238Y2.0016
M15
G01X8.1238Y1.9799
M16
G05
G00X8.1238Y1.2535
M15
G01X8.1238Y1.2319
M16
G05
G00X8.1238Y0.5055
M15
G01X8.1238Y0.4839
M16
G05
M30
