%TF.GenerationSoftware,KiCad,Pcbnew,8.0.3*%
%TF.CreationDate,2024-08-02T01:13:42+01:00*%
%TF.ProjectId,corne-light,636f726e-652d-46c6-9967-68742e6b6963,2.0*%
%TF.SameCoordinates,Original*%
%TF.FileFunction,Legend,Top*%
%TF.FilePolarity,Positive*%
%FSLAX46Y46*%
G04 Gerber Fmt 4.6, Leading zero omitted, Abs format (unit mm)*
G04 Created by KiCad (PCBNEW 8.0.3) date 2024-08-02 01:13:42*
%MOMM*%
%LPD*%
G01*
G04 APERTURE LIST*
G04 Aperture macros list*
%AMRoundRect*
0 Rectangle with rounded corners*
0 $1 Rounding radius*
0 $2 $3 $4 $5 $6 $7 $8 $9 X,Y pos of 4 corners*
0 Add a 4 corners polygon primitive as box body*
4,1,4,$2,$3,$4,$5,$6,$7,$8,$9,$2,$3,0*
0 Add four circle primitives for the rounded corners*
1,1,$1+$1,$2,$3*
1,1,$1+$1,$4,$5*
1,1,$1+$1,$6,$7*
1,1,$1+$1,$8,$9*
0 Add four rect primitives between the rounded corners*
20,1,$1+$1,$2,$3,$4,$5,0*
20,1,$1+$1,$4,$5,$6,$7,0*
20,1,$1+$1,$6,$7,$8,$9,0*
20,1,$1+$1,$8,$9,$2,$3,0*%
G04 Aperture macros list end*
%ADD10C,0.125000*%
%ADD11C,0.150000*%
%ADD12C,0.120000*%
%ADD13C,0.010000*%
%ADD14C,4.700000*%
%ADD15O,1.700000X2.178000*%
%ADD16RoundRect,0.200000X0.650000X-0.889000X0.650000X0.889000X-0.650000X0.889000X-0.650000X-0.889000X0*%
%ADD17C,1.600000*%
%ADD18C,2.700000*%
%ADD19C,0.700000*%
G04 APERTURE END LIST*
D10*
X141329759Y22764620D02*
X141282140Y22717000D01*
X141282140Y22717000D02*
X141139283Y22669381D01*
X141139283Y22669381D02*
X141044045Y22669381D01*
X141044045Y22669381D02*
X140901188Y22717000D01*
X140901188Y22717000D02*
X140805950Y22812239D01*
X140805950Y22812239D02*
X140758331Y22907477D01*
X140758331Y22907477D02*
X140710712Y23097953D01*
X140710712Y23097953D02*
X140710712Y23240810D01*
X140710712Y23240810D02*
X140758331Y23431286D01*
X140758331Y23431286D02*
X140805950Y23526524D01*
X140805950Y23526524D02*
X140901188Y23621762D01*
X140901188Y23621762D02*
X141044045Y23669381D01*
X141044045Y23669381D02*
X141139283Y23669381D01*
X141139283Y23669381D02*
X141282140Y23621762D01*
X141282140Y23621762D02*
X141329759Y23574143D01*
X141901188Y22669381D02*
X141805950Y22717000D01*
X141805950Y22717000D02*
X141758331Y22764620D01*
X141758331Y22764620D02*
X141710712Y22859858D01*
X141710712Y22859858D02*
X141710712Y23145572D01*
X141710712Y23145572D02*
X141758331Y23240810D01*
X141758331Y23240810D02*
X141805950Y23288429D01*
X141805950Y23288429D02*
X141901188Y23336048D01*
X141901188Y23336048D02*
X142044045Y23336048D01*
X142044045Y23336048D02*
X142139283Y23288429D01*
X142139283Y23288429D02*
X142186902Y23240810D01*
X142186902Y23240810D02*
X142234521Y23145572D01*
X142234521Y23145572D02*
X142234521Y22859858D01*
X142234521Y22859858D02*
X142186902Y22764620D01*
X142186902Y22764620D02*
X142139283Y22717000D01*
X142139283Y22717000D02*
X142044045Y22669381D01*
X142044045Y22669381D02*
X141901188Y22669381D01*
X142663093Y22669381D02*
X142663093Y23336048D01*
X142663093Y23145572D02*
X142710712Y23240810D01*
X142710712Y23240810D02*
X142758331Y23288429D01*
X142758331Y23288429D02*
X142853569Y23336048D01*
X142853569Y23336048D02*
X142948807Y23336048D01*
X143282141Y23336048D02*
X143282141Y22669381D01*
X143282141Y23240810D02*
X143329760Y23288429D01*
X143329760Y23288429D02*
X143424998Y23336048D01*
X143424998Y23336048D02*
X143567855Y23336048D01*
X143567855Y23336048D02*
X143663093Y23288429D01*
X143663093Y23288429D02*
X143710712Y23193191D01*
X143710712Y23193191D02*
X143710712Y22669381D01*
X144567855Y22717000D02*
X144472617Y22669381D01*
X144472617Y22669381D02*
X144282141Y22669381D01*
X144282141Y22669381D02*
X144186903Y22717000D01*
X144186903Y22717000D02*
X144139284Y22812239D01*
X144139284Y22812239D02*
X144139284Y23193191D01*
X144139284Y23193191D02*
X144186903Y23288429D01*
X144186903Y23288429D02*
X144282141Y23336048D01*
X144282141Y23336048D02*
X144472617Y23336048D01*
X144472617Y23336048D02*
X144567855Y23288429D01*
X144567855Y23288429D02*
X144615474Y23193191D01*
X144615474Y23193191D02*
X144615474Y23097953D01*
X144615474Y23097953D02*
X144139284Y23002715D01*
X146282141Y22669381D02*
X145805951Y22669381D01*
X145805951Y22669381D02*
X145805951Y23669381D01*
X146615475Y22669381D02*
X146615475Y23336048D01*
X146615475Y23669381D02*
X146567856Y23621762D01*
X146567856Y23621762D02*
X146615475Y23574143D01*
X146615475Y23574143D02*
X146663094Y23621762D01*
X146663094Y23621762D02*
X146615475Y23669381D01*
X146615475Y23669381D02*
X146615475Y23574143D01*
X147520236Y23336048D02*
X147520236Y22526524D01*
X147520236Y22526524D02*
X147472617Y22431286D01*
X147472617Y22431286D02*
X147424998Y22383667D01*
X147424998Y22383667D02*
X147329760Y22336048D01*
X147329760Y22336048D02*
X147186903Y22336048D01*
X147186903Y22336048D02*
X147091665Y22383667D01*
X147520236Y22717000D02*
X147424998Y22669381D01*
X147424998Y22669381D02*
X147234522Y22669381D01*
X147234522Y22669381D02*
X147139284Y22717000D01*
X147139284Y22717000D02*
X147091665Y22764620D01*
X147091665Y22764620D02*
X147044046Y22859858D01*
X147044046Y22859858D02*
X147044046Y23145572D01*
X147044046Y23145572D02*
X147091665Y23240810D01*
X147091665Y23240810D02*
X147139284Y23288429D01*
X147139284Y23288429D02*
X147234522Y23336048D01*
X147234522Y23336048D02*
X147424998Y23336048D01*
X147424998Y23336048D02*
X147520236Y23288429D01*
X147996427Y22669381D02*
X147996427Y23669381D01*
X148424998Y22669381D02*
X148424998Y23193191D01*
X148424998Y23193191D02*
X148377379Y23288429D01*
X148377379Y23288429D02*
X148282141Y23336048D01*
X148282141Y23336048D02*
X148139284Y23336048D01*
X148139284Y23336048D02*
X148044046Y23288429D01*
X148044046Y23288429D02*
X147996427Y23240810D01*
X148758332Y23336048D02*
X149139284Y23336048D01*
X148901189Y23669381D02*
X148901189Y22812239D01*
X148901189Y22812239D02*
X148948808Y22717000D01*
X148948808Y22717000D02*
X149044046Y22669381D01*
X149044046Y22669381D02*
X149139284Y22669381D01*
X150139285Y23336048D02*
X150377380Y22669381D01*
X150377380Y22669381D02*
X150615475Y23336048D01*
X150948809Y23574143D02*
X150996428Y23621762D01*
X150996428Y23621762D02*
X151091666Y23669381D01*
X151091666Y23669381D02*
X151329761Y23669381D01*
X151329761Y23669381D02*
X151424999Y23621762D01*
X151424999Y23621762D02*
X151472618Y23574143D01*
X151472618Y23574143D02*
X151520237Y23478905D01*
X151520237Y23478905D02*
X151520237Y23383667D01*
X151520237Y23383667D02*
X151472618Y23240810D01*
X151472618Y23240810D02*
X150901190Y22669381D01*
X150901190Y22669381D02*
X151520237Y22669381D01*
X151948809Y22764620D02*
X151996428Y22717000D01*
X151996428Y22717000D02*
X151948809Y22669381D01*
X151948809Y22669381D02*
X151901190Y22717000D01*
X151901190Y22717000D02*
X151948809Y22764620D01*
X151948809Y22764620D02*
X151948809Y22669381D01*
X152615475Y23669381D02*
X152710713Y23669381D01*
X152710713Y23669381D02*
X152805951Y23621762D01*
X152805951Y23621762D02*
X152853570Y23574143D01*
X152853570Y23574143D02*
X152901189Y23478905D01*
X152901189Y23478905D02*
X152948808Y23288429D01*
X152948808Y23288429D02*
X152948808Y23050334D01*
X152948808Y23050334D02*
X152901189Y22859858D01*
X152901189Y22859858D02*
X152853570Y22764620D01*
X152853570Y22764620D02*
X152805951Y22717000D01*
X152805951Y22717000D02*
X152710713Y22669381D01*
X152710713Y22669381D02*
X152615475Y22669381D01*
X152615475Y22669381D02*
X152520237Y22717000D01*
X152520237Y22717000D02*
X152472618Y22764620D01*
X152472618Y22764620D02*
X152424999Y22859858D01*
X152424999Y22859858D02*
X152377380Y23050334D01*
X152377380Y23050334D02*
X152377380Y23288429D01*
X152377380Y23288429D02*
X152424999Y23478905D01*
X152424999Y23478905D02*
X152472618Y23574143D01*
X152472618Y23574143D02*
X152520237Y23621762D01*
X152520237Y23621762D02*
X152615475Y23669381D01*
X154139285Y22669381D02*
X154139285Y23669381D01*
X154139285Y23669381D02*
X154520237Y23669381D01*
X154520237Y23669381D02*
X154615475Y23621762D01*
X154615475Y23621762D02*
X154663094Y23574143D01*
X154663094Y23574143D02*
X154710713Y23478905D01*
X154710713Y23478905D02*
X154710713Y23336048D01*
X154710713Y23336048D02*
X154663094Y23240810D01*
X154663094Y23240810D02*
X154615475Y23193191D01*
X154615475Y23193191D02*
X154520237Y23145572D01*
X154520237Y23145572D02*
X154139285Y23145572D01*
X155710713Y22764620D02*
X155663094Y22717000D01*
X155663094Y22717000D02*
X155520237Y22669381D01*
X155520237Y22669381D02*
X155424999Y22669381D01*
X155424999Y22669381D02*
X155282142Y22717000D01*
X155282142Y22717000D02*
X155186904Y22812239D01*
X155186904Y22812239D02*
X155139285Y22907477D01*
X155139285Y22907477D02*
X155091666Y23097953D01*
X155091666Y23097953D02*
X155091666Y23240810D01*
X155091666Y23240810D02*
X155139285Y23431286D01*
X155139285Y23431286D02*
X155186904Y23526524D01*
X155186904Y23526524D02*
X155282142Y23621762D01*
X155282142Y23621762D02*
X155424999Y23669381D01*
X155424999Y23669381D02*
X155520237Y23669381D01*
X155520237Y23669381D02*
X155663094Y23621762D01*
X155663094Y23621762D02*
X155710713Y23574143D01*
X156472618Y23193191D02*
X156615475Y23145572D01*
X156615475Y23145572D02*
X156663094Y23097953D01*
X156663094Y23097953D02*
X156710713Y23002715D01*
X156710713Y23002715D02*
X156710713Y22859858D01*
X156710713Y22859858D02*
X156663094Y22764620D01*
X156663094Y22764620D02*
X156615475Y22717000D01*
X156615475Y22717000D02*
X156520237Y22669381D01*
X156520237Y22669381D02*
X156139285Y22669381D01*
X156139285Y22669381D02*
X156139285Y23669381D01*
X156139285Y23669381D02*
X156472618Y23669381D01*
X156472618Y23669381D02*
X156567856Y23621762D01*
X156567856Y23621762D02*
X156615475Y23574143D01*
X156615475Y23574143D02*
X156663094Y23478905D01*
X156663094Y23478905D02*
X156663094Y23383667D01*
X156663094Y23383667D02*
X156615475Y23288429D01*
X156615475Y23288429D02*
X156567856Y23240810D01*
X156567856Y23240810D02*
X156472618Y23193191D01*
X156472618Y23193191D02*
X156139285Y23193191D01*
X157901190Y22669381D02*
X157901190Y23669381D01*
X157901190Y23669381D02*
X158139285Y23669381D01*
X158139285Y23669381D02*
X158282142Y23621762D01*
X158282142Y23621762D02*
X158377380Y23526524D01*
X158377380Y23526524D02*
X158424999Y23431286D01*
X158424999Y23431286D02*
X158472618Y23240810D01*
X158472618Y23240810D02*
X158472618Y23097953D01*
X158472618Y23097953D02*
X158424999Y22907477D01*
X158424999Y22907477D02*
X158377380Y22812239D01*
X158377380Y22812239D02*
X158282142Y22717000D01*
X158282142Y22717000D02*
X158139285Y22669381D01*
X158139285Y22669381D02*
X157901190Y22669381D01*
X159282142Y22717000D02*
X159186904Y22669381D01*
X159186904Y22669381D02*
X158996428Y22669381D01*
X158996428Y22669381D02*
X158901190Y22717000D01*
X158901190Y22717000D02*
X158853571Y22812239D01*
X158853571Y22812239D02*
X158853571Y23193191D01*
X158853571Y23193191D02*
X158901190Y23288429D01*
X158901190Y23288429D02*
X158996428Y23336048D01*
X158996428Y23336048D02*
X159186904Y23336048D01*
X159186904Y23336048D02*
X159282142Y23288429D01*
X159282142Y23288429D02*
X159329761Y23193191D01*
X159329761Y23193191D02*
X159329761Y23097953D01*
X159329761Y23097953D02*
X158853571Y23002715D01*
X159710714Y22717000D02*
X159805952Y22669381D01*
X159805952Y22669381D02*
X159996428Y22669381D01*
X159996428Y22669381D02*
X160091666Y22717000D01*
X160091666Y22717000D02*
X160139285Y22812239D01*
X160139285Y22812239D02*
X160139285Y22859858D01*
X160139285Y22859858D02*
X160091666Y22955096D01*
X160091666Y22955096D02*
X159996428Y23002715D01*
X159996428Y23002715D02*
X159853571Y23002715D01*
X159853571Y23002715D02*
X159758333Y23050334D01*
X159758333Y23050334D02*
X159710714Y23145572D01*
X159710714Y23145572D02*
X159710714Y23193191D01*
X159710714Y23193191D02*
X159758333Y23288429D01*
X159758333Y23288429D02*
X159853571Y23336048D01*
X159853571Y23336048D02*
X159996428Y23336048D01*
X159996428Y23336048D02*
X160091666Y23288429D01*
X160567857Y22669381D02*
X160567857Y23336048D01*
X160567857Y23669381D02*
X160520238Y23621762D01*
X160520238Y23621762D02*
X160567857Y23574143D01*
X160567857Y23574143D02*
X160615476Y23621762D01*
X160615476Y23621762D02*
X160567857Y23669381D01*
X160567857Y23669381D02*
X160567857Y23574143D01*
X161472618Y23336048D02*
X161472618Y22526524D01*
X161472618Y22526524D02*
X161424999Y22431286D01*
X161424999Y22431286D02*
X161377380Y22383667D01*
X161377380Y22383667D02*
X161282142Y22336048D01*
X161282142Y22336048D02*
X161139285Y22336048D01*
X161139285Y22336048D02*
X161044047Y22383667D01*
X161472618Y22717000D02*
X161377380Y22669381D01*
X161377380Y22669381D02*
X161186904Y22669381D01*
X161186904Y22669381D02*
X161091666Y22717000D01*
X161091666Y22717000D02*
X161044047Y22764620D01*
X161044047Y22764620D02*
X160996428Y22859858D01*
X160996428Y22859858D02*
X160996428Y23145572D01*
X160996428Y23145572D02*
X161044047Y23240810D01*
X161044047Y23240810D02*
X161091666Y23288429D01*
X161091666Y23288429D02*
X161186904Y23336048D01*
X161186904Y23336048D02*
X161377380Y23336048D01*
X161377380Y23336048D02*
X161472618Y23288429D01*
X161948809Y23336048D02*
X161948809Y22669381D01*
X161948809Y23240810D02*
X161996428Y23288429D01*
X161996428Y23288429D02*
X162091666Y23336048D01*
X162091666Y23336048D02*
X162234523Y23336048D01*
X162234523Y23336048D02*
X162329761Y23288429D01*
X162329761Y23288429D02*
X162377380Y23193191D01*
X162377380Y23193191D02*
X162377380Y22669381D01*
X163234523Y22717000D02*
X163139285Y22669381D01*
X163139285Y22669381D02*
X162948809Y22669381D01*
X162948809Y22669381D02*
X162853571Y22717000D01*
X162853571Y22717000D02*
X162805952Y22812239D01*
X162805952Y22812239D02*
X162805952Y23193191D01*
X162805952Y23193191D02*
X162853571Y23288429D01*
X162853571Y23288429D02*
X162948809Y23336048D01*
X162948809Y23336048D02*
X163139285Y23336048D01*
X163139285Y23336048D02*
X163234523Y23288429D01*
X163234523Y23288429D02*
X163282142Y23193191D01*
X163282142Y23193191D02*
X163282142Y23097953D01*
X163282142Y23097953D02*
X162805952Y23002715D01*
X164139285Y22669381D02*
X164139285Y23669381D01*
X164139285Y22717000D02*
X164044047Y22669381D01*
X164044047Y22669381D02*
X163853571Y22669381D01*
X163853571Y22669381D02*
X163758333Y22717000D01*
X163758333Y22717000D02*
X163710714Y22764620D01*
X163710714Y22764620D02*
X163663095Y22859858D01*
X163663095Y22859858D02*
X163663095Y23145572D01*
X163663095Y23145572D02*
X163710714Y23240810D01*
X163710714Y23240810D02*
X163758333Y23288429D01*
X163758333Y23288429D02*
X163853571Y23336048D01*
X163853571Y23336048D02*
X164044047Y23336048D01*
X164044047Y23336048D02*
X164139285Y23288429D01*
X165377381Y22669381D02*
X165377381Y23669381D01*
X165377381Y23288429D02*
X165472619Y23336048D01*
X165472619Y23336048D02*
X165663095Y23336048D01*
X165663095Y23336048D02*
X165758333Y23288429D01*
X165758333Y23288429D02*
X165805952Y23240810D01*
X165805952Y23240810D02*
X165853571Y23145572D01*
X165853571Y23145572D02*
X165853571Y22859858D01*
X165853571Y22859858D02*
X165805952Y22764620D01*
X165805952Y22764620D02*
X165758333Y22717000D01*
X165758333Y22717000D02*
X165663095Y22669381D01*
X165663095Y22669381D02*
X165472619Y22669381D01*
X165472619Y22669381D02*
X165377381Y22717000D01*
X166186905Y23336048D02*
X166425000Y22669381D01*
X166663095Y23336048D02*
X166425000Y22669381D01*
X166425000Y22669381D02*
X166329762Y22431286D01*
X166329762Y22431286D02*
X166282143Y22383667D01*
X166282143Y22383667D02*
X166186905Y22336048D01*
X167663096Y23336048D02*
X168044048Y23336048D01*
X167805953Y22669381D02*
X167805953Y23526524D01*
X167805953Y23526524D02*
X167853572Y23621762D01*
X167853572Y23621762D02*
X167948810Y23669381D01*
X167948810Y23669381D02*
X168044048Y23669381D01*
X168520239Y22669381D02*
X168425001Y22717000D01*
X168425001Y22717000D02*
X168377382Y22764620D01*
X168377382Y22764620D02*
X168329763Y22859858D01*
X168329763Y22859858D02*
X168329763Y23145572D01*
X168329763Y23145572D02*
X168377382Y23240810D01*
X168377382Y23240810D02*
X168425001Y23288429D01*
X168425001Y23288429D02*
X168520239Y23336048D01*
X168520239Y23336048D02*
X168663096Y23336048D01*
X168663096Y23336048D02*
X168758334Y23288429D01*
X168758334Y23288429D02*
X168805953Y23240810D01*
X168805953Y23240810D02*
X168853572Y23145572D01*
X168853572Y23145572D02*
X168853572Y22859858D01*
X168853572Y22859858D02*
X168805953Y22764620D01*
X168805953Y22764620D02*
X168758334Y22717000D01*
X168758334Y22717000D02*
X168663096Y22669381D01*
X168663096Y22669381D02*
X168520239Y22669381D01*
X169425001Y22669381D02*
X169329763Y22717000D01*
X169329763Y22717000D02*
X169282144Y22764620D01*
X169282144Y22764620D02*
X169234525Y22859858D01*
X169234525Y22859858D02*
X169234525Y23145572D01*
X169234525Y23145572D02*
X169282144Y23240810D01*
X169282144Y23240810D02*
X169329763Y23288429D01*
X169329763Y23288429D02*
X169425001Y23336048D01*
X169425001Y23336048D02*
X169567858Y23336048D01*
X169567858Y23336048D02*
X169663096Y23288429D01*
X169663096Y23288429D02*
X169710715Y23240810D01*
X169710715Y23240810D02*
X169758334Y23145572D01*
X169758334Y23145572D02*
X169758334Y22859858D01*
X169758334Y22859858D02*
X169710715Y22764620D01*
X169710715Y22764620D02*
X169663096Y22717000D01*
X169663096Y22717000D02*
X169567858Y22669381D01*
X169567858Y22669381D02*
X169425001Y22669381D01*
X170139287Y22717000D02*
X170234525Y22669381D01*
X170234525Y22669381D02*
X170425001Y22669381D01*
X170425001Y22669381D02*
X170520239Y22717000D01*
X170520239Y22717000D02*
X170567858Y22812239D01*
X170567858Y22812239D02*
X170567858Y22859858D01*
X170567858Y22859858D02*
X170520239Y22955096D01*
X170520239Y22955096D02*
X170425001Y23002715D01*
X170425001Y23002715D02*
X170282144Y23002715D01*
X170282144Y23002715D02*
X170186906Y23050334D01*
X170186906Y23050334D02*
X170139287Y23145572D01*
X170139287Y23145572D02*
X170139287Y23193191D01*
X170139287Y23193191D02*
X170186906Y23288429D01*
X170186906Y23288429D02*
X170282144Y23336048D01*
X170282144Y23336048D02*
X170425001Y23336048D01*
X170425001Y23336048D02*
X170520239Y23288429D01*
X170853573Y23336048D02*
X171234525Y23336048D01*
X170996430Y23669381D02*
X170996430Y22812239D01*
X170996430Y22812239D02*
X171044049Y22717000D01*
X171044049Y22717000D02*
X171139287Y22669381D01*
X171139287Y22669381D02*
X171234525Y22669381D01*
X171996430Y22669381D02*
X171996430Y23193191D01*
X171996430Y23193191D02*
X171948811Y23288429D01*
X171948811Y23288429D02*
X171853573Y23336048D01*
X171853573Y23336048D02*
X171663097Y23336048D01*
X171663097Y23336048D02*
X171567859Y23288429D01*
X171996430Y22717000D02*
X171901192Y22669381D01*
X171901192Y22669381D02*
X171663097Y22669381D01*
X171663097Y22669381D02*
X171567859Y22717000D01*
X171567859Y22717000D02*
X171520240Y22812239D01*
X171520240Y22812239D02*
X171520240Y22907477D01*
X171520240Y22907477D02*
X171567859Y23002715D01*
X171567859Y23002715D02*
X171663097Y23050334D01*
X171663097Y23050334D02*
X171901192Y23050334D01*
X171901192Y23050334D02*
X171996430Y23097953D01*
X172472621Y23336048D02*
X172472621Y22669381D01*
X172472621Y23240810D02*
X172520240Y23288429D01*
X172520240Y23288429D02*
X172615478Y23336048D01*
X172615478Y23336048D02*
X172758335Y23336048D01*
X172758335Y23336048D02*
X172853573Y23288429D01*
X172853573Y23288429D02*
X172901192Y23193191D01*
X172901192Y23193191D02*
X172901192Y22669381D01*
X-20180241Y22724620D02*
X-20227860Y22677000D01*
X-20227860Y22677000D02*
X-20370717Y22629381D01*
X-20370717Y22629381D02*
X-20465955Y22629381D01*
X-20465955Y22629381D02*
X-20608812Y22677000D01*
X-20608812Y22677000D02*
X-20704050Y22772239D01*
X-20704050Y22772239D02*
X-20751669Y22867477D01*
X-20751669Y22867477D02*
X-20799288Y23057953D01*
X-20799288Y23057953D02*
X-20799288Y23200810D01*
X-20799288Y23200810D02*
X-20751669Y23391286D01*
X-20751669Y23391286D02*
X-20704050Y23486524D01*
X-20704050Y23486524D02*
X-20608812Y23581762D01*
X-20608812Y23581762D02*
X-20465955Y23629381D01*
X-20465955Y23629381D02*
X-20370717Y23629381D01*
X-20370717Y23629381D02*
X-20227860Y23581762D01*
X-20227860Y23581762D02*
X-20180241Y23534143D01*
X-19608812Y22629381D02*
X-19704050Y22677000D01*
X-19704050Y22677000D02*
X-19751669Y22724620D01*
X-19751669Y22724620D02*
X-19799288Y22819858D01*
X-19799288Y22819858D02*
X-19799288Y23105572D01*
X-19799288Y23105572D02*
X-19751669Y23200810D01*
X-19751669Y23200810D02*
X-19704050Y23248429D01*
X-19704050Y23248429D02*
X-19608812Y23296048D01*
X-19608812Y23296048D02*
X-19465955Y23296048D01*
X-19465955Y23296048D02*
X-19370717Y23248429D01*
X-19370717Y23248429D02*
X-19323098Y23200810D01*
X-19323098Y23200810D02*
X-19275479Y23105572D01*
X-19275479Y23105572D02*
X-19275479Y22819858D01*
X-19275479Y22819858D02*
X-19323098Y22724620D01*
X-19323098Y22724620D02*
X-19370717Y22677000D01*
X-19370717Y22677000D02*
X-19465955Y22629381D01*
X-19465955Y22629381D02*
X-19608812Y22629381D01*
X-18846907Y22629381D02*
X-18846907Y23296048D01*
X-18846907Y23105572D02*
X-18799288Y23200810D01*
X-18799288Y23200810D02*
X-18751669Y23248429D01*
X-18751669Y23248429D02*
X-18656431Y23296048D01*
X-18656431Y23296048D02*
X-18561193Y23296048D01*
X-18227859Y23296048D02*
X-18227859Y22629381D01*
X-18227859Y23200810D02*
X-18180240Y23248429D01*
X-18180240Y23248429D02*
X-18085002Y23296048D01*
X-18085002Y23296048D02*
X-17942145Y23296048D01*
X-17942145Y23296048D02*
X-17846907Y23248429D01*
X-17846907Y23248429D02*
X-17799288Y23153191D01*
X-17799288Y23153191D02*
X-17799288Y22629381D01*
X-16942145Y22677000D02*
X-17037383Y22629381D01*
X-17037383Y22629381D02*
X-17227859Y22629381D01*
X-17227859Y22629381D02*
X-17323097Y22677000D01*
X-17323097Y22677000D02*
X-17370716Y22772239D01*
X-17370716Y22772239D02*
X-17370716Y23153191D01*
X-17370716Y23153191D02*
X-17323097Y23248429D01*
X-17323097Y23248429D02*
X-17227859Y23296048D01*
X-17227859Y23296048D02*
X-17037383Y23296048D01*
X-17037383Y23296048D02*
X-16942145Y23248429D01*
X-16942145Y23248429D02*
X-16894526Y23153191D01*
X-16894526Y23153191D02*
X-16894526Y23057953D01*
X-16894526Y23057953D02*
X-17370716Y22962715D01*
X-15227859Y22629381D02*
X-15704049Y22629381D01*
X-15704049Y22629381D02*
X-15704049Y23629381D01*
X-14894525Y22629381D02*
X-14894525Y23296048D01*
X-14894525Y23629381D02*
X-14942144Y23581762D01*
X-14942144Y23581762D02*
X-14894525Y23534143D01*
X-14894525Y23534143D02*
X-14846906Y23581762D01*
X-14846906Y23581762D02*
X-14894525Y23629381D01*
X-14894525Y23629381D02*
X-14894525Y23534143D01*
X-13989764Y23296048D02*
X-13989764Y22486524D01*
X-13989764Y22486524D02*
X-14037383Y22391286D01*
X-14037383Y22391286D02*
X-14085002Y22343667D01*
X-14085002Y22343667D02*
X-14180240Y22296048D01*
X-14180240Y22296048D02*
X-14323097Y22296048D01*
X-14323097Y22296048D02*
X-14418335Y22343667D01*
X-13989764Y22677000D02*
X-14085002Y22629381D01*
X-14085002Y22629381D02*
X-14275478Y22629381D01*
X-14275478Y22629381D02*
X-14370716Y22677000D01*
X-14370716Y22677000D02*
X-14418335Y22724620D01*
X-14418335Y22724620D02*
X-14465954Y22819858D01*
X-14465954Y22819858D02*
X-14465954Y23105572D01*
X-14465954Y23105572D02*
X-14418335Y23200810D01*
X-14418335Y23200810D02*
X-14370716Y23248429D01*
X-14370716Y23248429D02*
X-14275478Y23296048D01*
X-14275478Y23296048D02*
X-14085002Y23296048D01*
X-14085002Y23296048D02*
X-13989764Y23248429D01*
X-13513573Y22629381D02*
X-13513573Y23629381D01*
X-13085002Y22629381D02*
X-13085002Y23153191D01*
X-13085002Y23153191D02*
X-13132621Y23248429D01*
X-13132621Y23248429D02*
X-13227859Y23296048D01*
X-13227859Y23296048D02*
X-13370716Y23296048D01*
X-13370716Y23296048D02*
X-13465954Y23248429D01*
X-13465954Y23248429D02*
X-13513573Y23200810D01*
X-12751668Y23296048D02*
X-12370716Y23296048D01*
X-12608811Y23629381D02*
X-12608811Y22772239D01*
X-12608811Y22772239D02*
X-12561192Y22677000D01*
X-12561192Y22677000D02*
X-12465954Y22629381D01*
X-12465954Y22629381D02*
X-12370716Y22629381D01*
X-11370715Y23296048D02*
X-11132620Y22629381D01*
X-11132620Y22629381D02*
X-10894525Y23296048D01*
X-10561191Y23534143D02*
X-10513572Y23581762D01*
X-10513572Y23581762D02*
X-10418334Y23629381D01*
X-10418334Y23629381D02*
X-10180239Y23629381D01*
X-10180239Y23629381D02*
X-10085001Y23581762D01*
X-10085001Y23581762D02*
X-10037382Y23534143D01*
X-10037382Y23534143D02*
X-9989763Y23438905D01*
X-9989763Y23438905D02*
X-9989763Y23343667D01*
X-9989763Y23343667D02*
X-10037382Y23200810D01*
X-10037382Y23200810D02*
X-10608810Y22629381D01*
X-10608810Y22629381D02*
X-9989763Y22629381D01*
X-9561191Y22724620D02*
X-9513572Y22677000D01*
X-9513572Y22677000D02*
X-9561191Y22629381D01*
X-9561191Y22629381D02*
X-9608810Y22677000D01*
X-9608810Y22677000D02*
X-9561191Y22724620D01*
X-9561191Y22724620D02*
X-9561191Y22629381D01*
X-8894525Y23629381D02*
X-8799287Y23629381D01*
X-8799287Y23629381D02*
X-8704049Y23581762D01*
X-8704049Y23581762D02*
X-8656430Y23534143D01*
X-8656430Y23534143D02*
X-8608811Y23438905D01*
X-8608811Y23438905D02*
X-8561192Y23248429D01*
X-8561192Y23248429D02*
X-8561192Y23010334D01*
X-8561192Y23010334D02*
X-8608811Y22819858D01*
X-8608811Y22819858D02*
X-8656430Y22724620D01*
X-8656430Y22724620D02*
X-8704049Y22677000D01*
X-8704049Y22677000D02*
X-8799287Y22629381D01*
X-8799287Y22629381D02*
X-8894525Y22629381D01*
X-8894525Y22629381D02*
X-8989763Y22677000D01*
X-8989763Y22677000D02*
X-9037382Y22724620D01*
X-9037382Y22724620D02*
X-9085001Y22819858D01*
X-9085001Y22819858D02*
X-9132620Y23010334D01*
X-9132620Y23010334D02*
X-9132620Y23248429D01*
X-9132620Y23248429D02*
X-9085001Y23438905D01*
X-9085001Y23438905D02*
X-9037382Y23534143D01*
X-9037382Y23534143D02*
X-8989763Y23581762D01*
X-8989763Y23581762D02*
X-8894525Y23629381D01*
X-7370715Y22629381D02*
X-7370715Y23629381D01*
X-7370715Y23629381D02*
X-6989763Y23629381D01*
X-6989763Y23629381D02*
X-6894525Y23581762D01*
X-6894525Y23581762D02*
X-6846906Y23534143D01*
X-6846906Y23534143D02*
X-6799287Y23438905D01*
X-6799287Y23438905D02*
X-6799287Y23296048D01*
X-6799287Y23296048D02*
X-6846906Y23200810D01*
X-6846906Y23200810D02*
X-6894525Y23153191D01*
X-6894525Y23153191D02*
X-6989763Y23105572D01*
X-6989763Y23105572D02*
X-7370715Y23105572D01*
X-5799287Y22724620D02*
X-5846906Y22677000D01*
X-5846906Y22677000D02*
X-5989763Y22629381D01*
X-5989763Y22629381D02*
X-6085001Y22629381D01*
X-6085001Y22629381D02*
X-6227858Y22677000D01*
X-6227858Y22677000D02*
X-6323096Y22772239D01*
X-6323096Y22772239D02*
X-6370715Y22867477D01*
X-6370715Y22867477D02*
X-6418334Y23057953D01*
X-6418334Y23057953D02*
X-6418334Y23200810D01*
X-6418334Y23200810D02*
X-6370715Y23391286D01*
X-6370715Y23391286D02*
X-6323096Y23486524D01*
X-6323096Y23486524D02*
X-6227858Y23581762D01*
X-6227858Y23581762D02*
X-6085001Y23629381D01*
X-6085001Y23629381D02*
X-5989763Y23629381D01*
X-5989763Y23629381D02*
X-5846906Y23581762D01*
X-5846906Y23581762D02*
X-5799287Y23534143D01*
X-5037382Y23153191D02*
X-4894525Y23105572D01*
X-4894525Y23105572D02*
X-4846906Y23057953D01*
X-4846906Y23057953D02*
X-4799287Y22962715D01*
X-4799287Y22962715D02*
X-4799287Y22819858D01*
X-4799287Y22819858D02*
X-4846906Y22724620D01*
X-4846906Y22724620D02*
X-4894525Y22677000D01*
X-4894525Y22677000D02*
X-4989763Y22629381D01*
X-4989763Y22629381D02*
X-5370715Y22629381D01*
X-5370715Y22629381D02*
X-5370715Y23629381D01*
X-5370715Y23629381D02*
X-5037382Y23629381D01*
X-5037382Y23629381D02*
X-4942144Y23581762D01*
X-4942144Y23581762D02*
X-4894525Y23534143D01*
X-4894525Y23534143D02*
X-4846906Y23438905D01*
X-4846906Y23438905D02*
X-4846906Y23343667D01*
X-4846906Y23343667D02*
X-4894525Y23248429D01*
X-4894525Y23248429D02*
X-4942144Y23200810D01*
X-4942144Y23200810D02*
X-5037382Y23153191D01*
X-5037382Y23153191D02*
X-5370715Y23153191D01*
X-3608810Y22629381D02*
X-3608810Y23629381D01*
X-3608810Y23629381D02*
X-3370715Y23629381D01*
X-3370715Y23629381D02*
X-3227858Y23581762D01*
X-3227858Y23581762D02*
X-3132620Y23486524D01*
X-3132620Y23486524D02*
X-3085001Y23391286D01*
X-3085001Y23391286D02*
X-3037382Y23200810D01*
X-3037382Y23200810D02*
X-3037382Y23057953D01*
X-3037382Y23057953D02*
X-3085001Y22867477D01*
X-3085001Y22867477D02*
X-3132620Y22772239D01*
X-3132620Y22772239D02*
X-3227858Y22677000D01*
X-3227858Y22677000D02*
X-3370715Y22629381D01*
X-3370715Y22629381D02*
X-3608810Y22629381D01*
X-2227858Y22677000D02*
X-2323096Y22629381D01*
X-2323096Y22629381D02*
X-2513572Y22629381D01*
X-2513572Y22629381D02*
X-2608810Y22677000D01*
X-2608810Y22677000D02*
X-2656429Y22772239D01*
X-2656429Y22772239D02*
X-2656429Y23153191D01*
X-2656429Y23153191D02*
X-2608810Y23248429D01*
X-2608810Y23248429D02*
X-2513572Y23296048D01*
X-2513572Y23296048D02*
X-2323096Y23296048D01*
X-2323096Y23296048D02*
X-2227858Y23248429D01*
X-2227858Y23248429D02*
X-2180239Y23153191D01*
X-2180239Y23153191D02*
X-2180239Y23057953D01*
X-2180239Y23057953D02*
X-2656429Y22962715D01*
X-1799286Y22677000D02*
X-1704048Y22629381D01*
X-1704048Y22629381D02*
X-1513572Y22629381D01*
X-1513572Y22629381D02*
X-1418334Y22677000D01*
X-1418334Y22677000D02*
X-1370715Y22772239D01*
X-1370715Y22772239D02*
X-1370715Y22819858D01*
X-1370715Y22819858D02*
X-1418334Y22915096D01*
X-1418334Y22915096D02*
X-1513572Y22962715D01*
X-1513572Y22962715D02*
X-1656429Y22962715D01*
X-1656429Y22962715D02*
X-1751667Y23010334D01*
X-1751667Y23010334D02*
X-1799286Y23105572D01*
X-1799286Y23105572D02*
X-1799286Y23153191D01*
X-1799286Y23153191D02*
X-1751667Y23248429D01*
X-1751667Y23248429D02*
X-1656429Y23296048D01*
X-1656429Y23296048D02*
X-1513572Y23296048D01*
X-1513572Y23296048D02*
X-1418334Y23248429D01*
X-942143Y22629381D02*
X-942143Y23296048D01*
X-942143Y23629381D02*
X-989762Y23581762D01*
X-989762Y23581762D02*
X-942143Y23534143D01*
X-942143Y23534143D02*
X-894524Y23581762D01*
X-894524Y23581762D02*
X-942143Y23629381D01*
X-942143Y23629381D02*
X-942143Y23534143D01*
X-37382Y23296048D02*
X-37382Y22486524D01*
X-37382Y22486524D02*
X-85001Y22391286D01*
X-85001Y22391286D02*
X-132620Y22343667D01*
X-132620Y22343667D02*
X-227858Y22296048D01*
X-227858Y22296048D02*
X-370715Y22296048D01*
X-370715Y22296048D02*
X-465953Y22343667D01*
X-37382Y22677000D02*
X-132620Y22629381D01*
X-132620Y22629381D02*
X-323096Y22629381D01*
X-323096Y22629381D02*
X-418334Y22677000D01*
X-418334Y22677000D02*
X-465953Y22724620D01*
X-465953Y22724620D02*
X-513572Y22819858D01*
X-513572Y22819858D02*
X-513572Y23105572D01*
X-513572Y23105572D02*
X-465953Y23200810D01*
X-465953Y23200810D02*
X-418334Y23248429D01*
X-418334Y23248429D02*
X-323096Y23296048D01*
X-323096Y23296048D02*
X-132620Y23296048D01*
X-132620Y23296048D02*
X-37382Y23248429D01*
X438809Y23296048D02*
X438809Y22629381D01*
X438809Y23200810D02*
X486428Y23248429D01*
X486428Y23248429D02*
X581666Y23296048D01*
X581666Y23296048D02*
X724523Y23296048D01*
X724523Y23296048D02*
X819761Y23248429D01*
X819761Y23248429D02*
X867380Y23153191D01*
X867380Y23153191D02*
X867380Y22629381D01*
X1724523Y22677000D02*
X1629285Y22629381D01*
X1629285Y22629381D02*
X1438809Y22629381D01*
X1438809Y22629381D02*
X1343571Y22677000D01*
X1343571Y22677000D02*
X1295952Y22772239D01*
X1295952Y22772239D02*
X1295952Y23153191D01*
X1295952Y23153191D02*
X1343571Y23248429D01*
X1343571Y23248429D02*
X1438809Y23296048D01*
X1438809Y23296048D02*
X1629285Y23296048D01*
X1629285Y23296048D02*
X1724523Y23248429D01*
X1724523Y23248429D02*
X1772142Y23153191D01*
X1772142Y23153191D02*
X1772142Y23057953D01*
X1772142Y23057953D02*
X1295952Y22962715D01*
X2629285Y22629381D02*
X2629285Y23629381D01*
X2629285Y22677000D02*
X2534047Y22629381D01*
X2534047Y22629381D02*
X2343571Y22629381D01*
X2343571Y22629381D02*
X2248333Y22677000D01*
X2248333Y22677000D02*
X2200714Y22724620D01*
X2200714Y22724620D02*
X2153095Y22819858D01*
X2153095Y22819858D02*
X2153095Y23105572D01*
X2153095Y23105572D02*
X2200714Y23200810D01*
X2200714Y23200810D02*
X2248333Y23248429D01*
X2248333Y23248429D02*
X2343571Y23296048D01*
X2343571Y23296048D02*
X2534047Y23296048D01*
X2534047Y23296048D02*
X2629285Y23248429D01*
X3867381Y22629381D02*
X3867381Y23629381D01*
X3867381Y23248429D02*
X3962619Y23296048D01*
X3962619Y23296048D02*
X4153095Y23296048D01*
X4153095Y23296048D02*
X4248333Y23248429D01*
X4248333Y23248429D02*
X4295952Y23200810D01*
X4295952Y23200810D02*
X4343571Y23105572D01*
X4343571Y23105572D02*
X4343571Y22819858D01*
X4343571Y22819858D02*
X4295952Y22724620D01*
X4295952Y22724620D02*
X4248333Y22677000D01*
X4248333Y22677000D02*
X4153095Y22629381D01*
X4153095Y22629381D02*
X3962619Y22629381D01*
X3962619Y22629381D02*
X3867381Y22677000D01*
X4676905Y23296048D02*
X4915000Y22629381D01*
X5153095Y23296048D02*
X4915000Y22629381D01*
X4915000Y22629381D02*
X4819762Y22391286D01*
X4819762Y22391286D02*
X4772143Y22343667D01*
X4772143Y22343667D02*
X4676905Y22296048D01*
X6153096Y23296048D02*
X6534048Y23296048D01*
X6295953Y22629381D02*
X6295953Y23486524D01*
X6295953Y23486524D02*
X6343572Y23581762D01*
X6343572Y23581762D02*
X6438810Y23629381D01*
X6438810Y23629381D02*
X6534048Y23629381D01*
X7010239Y22629381D02*
X6915001Y22677000D01*
X6915001Y22677000D02*
X6867382Y22724620D01*
X6867382Y22724620D02*
X6819763Y22819858D01*
X6819763Y22819858D02*
X6819763Y23105572D01*
X6819763Y23105572D02*
X6867382Y23200810D01*
X6867382Y23200810D02*
X6915001Y23248429D01*
X6915001Y23248429D02*
X7010239Y23296048D01*
X7010239Y23296048D02*
X7153096Y23296048D01*
X7153096Y23296048D02*
X7248334Y23248429D01*
X7248334Y23248429D02*
X7295953Y23200810D01*
X7295953Y23200810D02*
X7343572Y23105572D01*
X7343572Y23105572D02*
X7343572Y22819858D01*
X7343572Y22819858D02*
X7295953Y22724620D01*
X7295953Y22724620D02*
X7248334Y22677000D01*
X7248334Y22677000D02*
X7153096Y22629381D01*
X7153096Y22629381D02*
X7010239Y22629381D01*
X7915001Y22629381D02*
X7819763Y22677000D01*
X7819763Y22677000D02*
X7772144Y22724620D01*
X7772144Y22724620D02*
X7724525Y22819858D01*
X7724525Y22819858D02*
X7724525Y23105572D01*
X7724525Y23105572D02*
X7772144Y23200810D01*
X7772144Y23200810D02*
X7819763Y23248429D01*
X7819763Y23248429D02*
X7915001Y23296048D01*
X7915001Y23296048D02*
X8057858Y23296048D01*
X8057858Y23296048D02*
X8153096Y23248429D01*
X8153096Y23248429D02*
X8200715Y23200810D01*
X8200715Y23200810D02*
X8248334Y23105572D01*
X8248334Y23105572D02*
X8248334Y22819858D01*
X8248334Y22819858D02*
X8200715Y22724620D01*
X8200715Y22724620D02*
X8153096Y22677000D01*
X8153096Y22677000D02*
X8057858Y22629381D01*
X8057858Y22629381D02*
X7915001Y22629381D01*
X8629287Y22677000D02*
X8724525Y22629381D01*
X8724525Y22629381D02*
X8915001Y22629381D01*
X8915001Y22629381D02*
X9010239Y22677000D01*
X9010239Y22677000D02*
X9057858Y22772239D01*
X9057858Y22772239D02*
X9057858Y22819858D01*
X9057858Y22819858D02*
X9010239Y22915096D01*
X9010239Y22915096D02*
X8915001Y22962715D01*
X8915001Y22962715D02*
X8772144Y22962715D01*
X8772144Y22962715D02*
X8676906Y23010334D01*
X8676906Y23010334D02*
X8629287Y23105572D01*
X8629287Y23105572D02*
X8629287Y23153191D01*
X8629287Y23153191D02*
X8676906Y23248429D01*
X8676906Y23248429D02*
X8772144Y23296048D01*
X8772144Y23296048D02*
X8915001Y23296048D01*
X8915001Y23296048D02*
X9010239Y23248429D01*
X9343573Y23296048D02*
X9724525Y23296048D01*
X9486430Y23629381D02*
X9486430Y22772239D01*
X9486430Y22772239D02*
X9534049Y22677000D01*
X9534049Y22677000D02*
X9629287Y22629381D01*
X9629287Y22629381D02*
X9724525Y22629381D01*
X10486430Y22629381D02*
X10486430Y23153191D01*
X10486430Y23153191D02*
X10438811Y23248429D01*
X10438811Y23248429D02*
X10343573Y23296048D01*
X10343573Y23296048D02*
X10153097Y23296048D01*
X10153097Y23296048D02*
X10057859Y23248429D01*
X10486430Y22677000D02*
X10391192Y22629381D01*
X10391192Y22629381D02*
X10153097Y22629381D01*
X10153097Y22629381D02*
X10057859Y22677000D01*
X10057859Y22677000D02*
X10010240Y22772239D01*
X10010240Y22772239D02*
X10010240Y22867477D01*
X10010240Y22867477D02*
X10057859Y22962715D01*
X10057859Y22962715D02*
X10153097Y23010334D01*
X10153097Y23010334D02*
X10391192Y23010334D01*
X10391192Y23010334D02*
X10486430Y23057953D01*
X10962621Y23296048D02*
X10962621Y22629381D01*
X10962621Y23200810D02*
X11010240Y23248429D01*
X11010240Y23248429D02*
X11105478Y23296048D01*
X11105478Y23296048D02*
X11248335Y23296048D01*
X11248335Y23296048D02*
X11343573Y23248429D01*
X11343573Y23248429D02*
X11391192Y23153191D01*
X11391192Y23153191D02*
X11391192Y22629381D01*
D11*
X87655619Y17070681D02*
X87846095Y17070681D01*
X87846095Y17070681D02*
X87941333Y17023062D01*
X87941333Y17023062D02*
X88036571Y16927824D01*
X88036571Y16927824D02*
X88084190Y16737348D01*
X88084190Y16737348D02*
X88084190Y16404015D01*
X88084190Y16404015D02*
X88036571Y16213539D01*
X88036571Y16213539D02*
X87941333Y16118300D01*
X87941333Y16118300D02*
X87846095Y16070681D01*
X87846095Y16070681D02*
X87655619Y16070681D01*
X87655619Y16070681D02*
X87560381Y16118300D01*
X87560381Y16118300D02*
X87465143Y16213539D01*
X87465143Y16213539D02*
X87417524Y16404015D01*
X87417524Y16404015D02*
X87417524Y16737348D01*
X87417524Y16737348D02*
X87465143Y16927824D01*
X87465143Y16927824D02*
X87560381Y17023062D01*
X87560381Y17023062D02*
X87655619Y17070681D01*
X88988952Y16070681D02*
X88512762Y16070681D01*
X88512762Y16070681D02*
X88512762Y17070681D01*
X89322286Y16594491D02*
X89655619Y16594491D01*
X89798476Y16070681D02*
X89322286Y16070681D01*
X89322286Y16070681D02*
X89322286Y17070681D01*
X89322286Y17070681D02*
X89798476Y17070681D01*
X90227048Y16070681D02*
X90227048Y17070681D01*
X90227048Y17070681D02*
X90465143Y17070681D01*
X90465143Y17070681D02*
X90608000Y17023062D01*
X90608000Y17023062D02*
X90703238Y16927824D01*
X90703238Y16927824D02*
X90750857Y16832586D01*
X90750857Y16832586D02*
X90798476Y16642110D01*
X90798476Y16642110D02*
X90798476Y16499253D01*
X90798476Y16499253D02*
X90750857Y16308777D01*
X90750857Y16308777D02*
X90703238Y16213539D01*
X90703238Y16213539D02*
X90608000Y16118300D01*
X90608000Y16118300D02*
X90465143Y16070681D01*
X90465143Y16070681D02*
X90227048Y16070681D01*
X60642619Y17346681D02*
X60833095Y17346681D01*
X60833095Y17346681D02*
X60928333Y17299062D01*
X60928333Y17299062D02*
X61023571Y17203824D01*
X61023571Y17203824D02*
X61071190Y17013348D01*
X61071190Y17013348D02*
X61071190Y16680015D01*
X61071190Y16680015D02*
X61023571Y16489539D01*
X61023571Y16489539D02*
X60928333Y16394300D01*
X60928333Y16394300D02*
X60833095Y16346681D01*
X60833095Y16346681D02*
X60642619Y16346681D01*
X60642619Y16346681D02*
X60547381Y16394300D01*
X60547381Y16394300D02*
X60452143Y16489539D01*
X60452143Y16489539D02*
X60404524Y16680015D01*
X60404524Y16680015D02*
X60404524Y17013348D01*
X60404524Y17013348D02*
X60452143Y17203824D01*
X60452143Y17203824D02*
X60547381Y17299062D01*
X60547381Y17299062D02*
X60642619Y17346681D01*
X61975952Y16346681D02*
X61499762Y16346681D01*
X61499762Y16346681D02*
X61499762Y17346681D01*
X62309286Y16870491D02*
X62642619Y16870491D01*
X62785476Y16346681D02*
X62309286Y16346681D01*
X62309286Y16346681D02*
X62309286Y17346681D01*
X62309286Y17346681D02*
X62785476Y17346681D01*
X63214048Y16346681D02*
X63214048Y17346681D01*
X63214048Y17346681D02*
X63452143Y17346681D01*
X63452143Y17346681D02*
X63595000Y17299062D01*
X63595000Y17299062D02*
X63690238Y17203824D01*
X63690238Y17203824D02*
X63737857Y17108586D01*
X63737857Y17108586D02*
X63785476Y16918110D01*
X63785476Y16918110D02*
X63785476Y16775253D01*
X63785476Y16775253D02*
X63737857Y16584777D01*
X63737857Y16584777D02*
X63690238Y16489539D01*
X63690238Y16489539D02*
X63595000Y16394300D01*
X63595000Y16394300D02*
X63452143Y16346681D01*
X63452143Y16346681D02*
X63214048Y16346681D01*
X85673166Y4608164D02*
X85673166Y5179592D01*
X86673166Y4893878D02*
X85673166Y4893878D01*
X86673166Y6084354D02*
X86196975Y5751021D01*
X86673166Y5512926D02*
X85673166Y5512926D01*
X85673166Y5512926D02*
X85673166Y5893878D01*
X85673166Y5893878D02*
X85720785Y5989116D01*
X85720785Y5989116D02*
X85768404Y6036735D01*
X85768404Y6036735D02*
X85863642Y6084354D01*
X85863642Y6084354D02*
X86006499Y6084354D01*
X86006499Y6084354D02*
X86101737Y6036735D01*
X86101737Y6036735D02*
X86149356Y5989116D01*
X86149356Y5989116D02*
X86196975Y5893878D01*
X86196975Y5893878D02*
X86196975Y5512926D01*
X86673166Y7084354D02*
X86196975Y6751021D01*
X86673166Y6512926D02*
X85673166Y6512926D01*
X85673166Y6512926D02*
X85673166Y6893878D01*
X85673166Y6893878D02*
X85720785Y6989116D01*
X85720785Y6989116D02*
X85768404Y7036735D01*
X85768404Y7036735D02*
X85863642Y7084354D01*
X85863642Y7084354D02*
X86006499Y7084354D01*
X86006499Y7084354D02*
X86101737Y7036735D01*
X86101737Y7036735D02*
X86149356Y6989116D01*
X86149356Y6989116D02*
X86196975Y6893878D01*
X86196975Y6893878D02*
X86196975Y6512926D01*
X86625547Y7465307D02*
X86673166Y7608164D01*
X86673166Y7608164D02*
X86673166Y7846259D01*
X86673166Y7846259D02*
X86625547Y7941497D01*
X86625547Y7941497D02*
X86577927Y7989116D01*
X86577927Y7989116D02*
X86482689Y8036735D01*
X86482689Y8036735D02*
X86387451Y8036735D01*
X86387451Y8036735D02*
X86292213Y7989116D01*
X86292213Y7989116D02*
X86244594Y7941497D01*
X86244594Y7941497D02*
X86196975Y7846259D01*
X86196975Y7846259D02*
X86149356Y7655783D01*
X86149356Y7655783D02*
X86101737Y7560545D01*
X86101737Y7560545D02*
X86054118Y7512926D01*
X86054118Y7512926D02*
X85958880Y7465307D01*
X85958880Y7465307D02*
X85863642Y7465307D01*
X85863642Y7465307D02*
X85768404Y7512926D01*
X85768404Y7512926D02*
X85720785Y7560545D01*
X85720785Y7560545D02*
X85673166Y7655783D01*
X85673166Y7655783D02*
X85673166Y7893878D01*
X85673166Y7893878D02*
X85720785Y8036735D01*
X64379819Y6241596D02*
X64379819Y6813024D01*
X65379819Y6527310D02*
X64379819Y6527310D01*
X65379819Y7717786D02*
X64903628Y7384453D01*
X65379819Y7146358D02*
X64379819Y7146358D01*
X64379819Y7146358D02*
X64379819Y7527310D01*
X64379819Y7527310D02*
X64427438Y7622548D01*
X64427438Y7622548D02*
X64475057Y7670167D01*
X64475057Y7670167D02*
X64570295Y7717786D01*
X64570295Y7717786D02*
X64713152Y7717786D01*
X64713152Y7717786D02*
X64808390Y7670167D01*
X64808390Y7670167D02*
X64856009Y7622548D01*
X64856009Y7622548D02*
X64903628Y7527310D01*
X64903628Y7527310D02*
X64903628Y7146358D01*
X65379819Y8717786D02*
X64903628Y8384453D01*
X65379819Y8146358D02*
X64379819Y8146358D01*
X64379819Y8146358D02*
X64379819Y8527310D01*
X64379819Y8527310D02*
X64427438Y8622548D01*
X64427438Y8622548D02*
X64475057Y8670167D01*
X64475057Y8670167D02*
X64570295Y8717786D01*
X64570295Y8717786D02*
X64713152Y8717786D01*
X64713152Y8717786D02*
X64808390Y8670167D01*
X64808390Y8670167D02*
X64856009Y8622548D01*
X64856009Y8622548D02*
X64903628Y8527310D01*
X64903628Y8527310D02*
X64903628Y8146358D01*
X65332200Y9098739D02*
X65379819Y9241596D01*
X65379819Y9241596D02*
X65379819Y9479691D01*
X65379819Y9479691D02*
X65332200Y9574929D01*
X65332200Y9574929D02*
X65284580Y9622548D01*
X65284580Y9622548D02*
X65189342Y9670167D01*
X65189342Y9670167D02*
X65094104Y9670167D01*
X65094104Y9670167D02*
X64998866Y9622548D01*
X64998866Y9622548D02*
X64951247Y9574929D01*
X64951247Y9574929D02*
X64903628Y9479691D01*
X64903628Y9479691D02*
X64856009Y9289215D01*
X64856009Y9289215D02*
X64808390Y9193977D01*
X64808390Y9193977D02*
X64760771Y9146358D01*
X64760771Y9146358D02*
X64665533Y9098739D01*
X64665533Y9098739D02*
X64570295Y9098739D01*
X64570295Y9098739D02*
X64475057Y9146358D01*
X64475057Y9146358D02*
X64427438Y9193977D01*
X64427438Y9193977D02*
X64379819Y9289215D01*
X64379819Y9289215D02*
X64379819Y9527310D01*
X64379819Y9527310D02*
X64427438Y9670167D01*
X81990166Y13415687D02*
X81513975Y13082354D01*
X81990166Y12844259D02*
X80990166Y12844259D01*
X80990166Y12844259D02*
X80990166Y13225211D01*
X80990166Y13225211D02*
X81037785Y13320449D01*
X81037785Y13320449D02*
X81085404Y13368068D01*
X81085404Y13368068D02*
X81180642Y13415687D01*
X81180642Y13415687D02*
X81323499Y13415687D01*
X81323499Y13415687D02*
X81418737Y13368068D01*
X81418737Y13368068D02*
X81466356Y13320449D01*
X81466356Y13320449D02*
X81513975Y13225211D01*
X81513975Y13225211D02*
X81513975Y12844259D01*
X81466356Y13844259D02*
X81466356Y14177592D01*
X81990166Y14320449D02*
X81990166Y13844259D01*
X81990166Y13844259D02*
X80990166Y13844259D01*
X80990166Y13844259D02*
X80990166Y14320449D01*
X81942547Y14701402D02*
X81990166Y14844259D01*
X81990166Y14844259D02*
X81990166Y15082354D01*
X81990166Y15082354D02*
X81942547Y15177592D01*
X81942547Y15177592D02*
X81894927Y15225211D01*
X81894927Y15225211D02*
X81799689Y15272830D01*
X81799689Y15272830D02*
X81704451Y15272830D01*
X81704451Y15272830D02*
X81609213Y15225211D01*
X81609213Y15225211D02*
X81561594Y15177592D01*
X81561594Y15177592D02*
X81513975Y15082354D01*
X81513975Y15082354D02*
X81466356Y14891878D01*
X81466356Y14891878D02*
X81418737Y14796640D01*
X81418737Y14796640D02*
X81371118Y14749021D01*
X81371118Y14749021D02*
X81275880Y14701402D01*
X81275880Y14701402D02*
X81180642Y14701402D01*
X81180642Y14701402D02*
X81085404Y14749021D01*
X81085404Y14749021D02*
X81037785Y14796640D01*
X81037785Y14796640D02*
X80990166Y14891878D01*
X80990166Y14891878D02*
X80990166Y15129973D01*
X80990166Y15129973D02*
X81037785Y15272830D01*
X81466356Y15701402D02*
X81466356Y16034735D01*
X81990166Y16177592D02*
X81990166Y15701402D01*
X81990166Y15701402D02*
X80990166Y15701402D01*
X80990166Y15701402D02*
X80990166Y16177592D01*
X80990166Y16463307D02*
X80990166Y17034735D01*
X81990166Y16749021D02*
X80990166Y16749021D01*
X70119819Y13562119D02*
X69643628Y13228786D01*
X70119819Y12990691D02*
X69119819Y12990691D01*
X69119819Y12990691D02*
X69119819Y13371643D01*
X69119819Y13371643D02*
X69167438Y13466881D01*
X69167438Y13466881D02*
X69215057Y13514500D01*
X69215057Y13514500D02*
X69310295Y13562119D01*
X69310295Y13562119D02*
X69453152Y13562119D01*
X69453152Y13562119D02*
X69548390Y13514500D01*
X69548390Y13514500D02*
X69596009Y13466881D01*
X69596009Y13466881D02*
X69643628Y13371643D01*
X69643628Y13371643D02*
X69643628Y12990691D01*
X69596009Y13990691D02*
X69596009Y14324024D01*
X70119819Y14466881D02*
X70119819Y13990691D01*
X70119819Y13990691D02*
X69119819Y13990691D01*
X69119819Y13990691D02*
X69119819Y14466881D01*
X70072200Y14847834D02*
X70119819Y14990691D01*
X70119819Y14990691D02*
X70119819Y15228786D01*
X70119819Y15228786D02*
X70072200Y15324024D01*
X70072200Y15324024D02*
X70024580Y15371643D01*
X70024580Y15371643D02*
X69929342Y15419262D01*
X69929342Y15419262D02*
X69834104Y15419262D01*
X69834104Y15419262D02*
X69738866Y15371643D01*
X69738866Y15371643D02*
X69691247Y15324024D01*
X69691247Y15324024D02*
X69643628Y15228786D01*
X69643628Y15228786D02*
X69596009Y15038310D01*
X69596009Y15038310D02*
X69548390Y14943072D01*
X69548390Y14943072D02*
X69500771Y14895453D01*
X69500771Y14895453D02*
X69405533Y14847834D01*
X69405533Y14847834D02*
X69310295Y14847834D01*
X69310295Y14847834D02*
X69215057Y14895453D01*
X69215057Y14895453D02*
X69167438Y14943072D01*
X69167438Y14943072D02*
X69119819Y15038310D01*
X69119819Y15038310D02*
X69119819Y15276405D01*
X69119819Y15276405D02*
X69167438Y15419262D01*
X69596009Y15847834D02*
X69596009Y16181167D01*
X70119819Y16324024D02*
X70119819Y15847834D01*
X70119819Y15847834D02*
X69119819Y15847834D01*
X69119819Y15847834D02*
X69119819Y16324024D01*
X69119819Y16609739D02*
X69119819Y17181167D01*
X70119819Y16895453D02*
X69119819Y16895453D01*
D10*
X83765727Y49158604D02*
X83542394Y49515747D01*
X83382870Y49158604D02*
X83382870Y49908604D01*
X83382870Y49908604D02*
X83638108Y49908604D01*
X83638108Y49908604D02*
X83701918Y49872890D01*
X83701918Y49872890D02*
X83733823Y49837176D01*
X83733823Y49837176D02*
X83765727Y49765747D01*
X83765727Y49765747D02*
X83765727Y49658604D01*
X83765727Y49658604D02*
X83733823Y49587176D01*
X83733823Y49587176D02*
X83701918Y49551461D01*
X83701918Y49551461D02*
X83638108Y49515747D01*
X83638108Y49515747D02*
X83382870Y49515747D01*
X84020966Y49372890D02*
X84340013Y49372890D01*
X83957156Y49158604D02*
X84180489Y49908604D01*
X84180489Y49908604D02*
X84403823Y49158604D01*
X84563347Y49908604D02*
X84722871Y49158604D01*
X84722871Y49158604D02*
X84850490Y49694318D01*
X84850490Y49694318D02*
X84978109Y49158604D01*
X84978109Y49158604D02*
X85137633Y49908604D01*
X83717871Y47322890D02*
X83654061Y47358604D01*
X83654061Y47358604D02*
X83558347Y47358604D01*
X83558347Y47358604D02*
X83462633Y47322890D01*
X83462633Y47322890D02*
X83398823Y47251461D01*
X83398823Y47251461D02*
X83366918Y47180033D01*
X83366918Y47180033D02*
X83335014Y47037176D01*
X83335014Y47037176D02*
X83335014Y46930033D01*
X83335014Y46930033D02*
X83366918Y46787176D01*
X83366918Y46787176D02*
X83398823Y46715747D01*
X83398823Y46715747D02*
X83462633Y46644318D01*
X83462633Y46644318D02*
X83558347Y46608604D01*
X83558347Y46608604D02*
X83622156Y46608604D01*
X83622156Y46608604D02*
X83717871Y46644318D01*
X83717871Y46644318D02*
X83749775Y46680033D01*
X83749775Y46680033D02*
X83749775Y46930033D01*
X83749775Y46930033D02*
X83622156Y46930033D01*
X84036918Y46608604D02*
X84036918Y47358604D01*
X84036918Y47358604D02*
X84419775Y46608604D01*
X84419775Y46608604D02*
X84419775Y47358604D01*
X84738823Y46608604D02*
X84738823Y47358604D01*
X84738823Y47358604D02*
X84898347Y47358604D01*
X84898347Y47358604D02*
X84994061Y47322890D01*
X84994061Y47322890D02*
X85057871Y47251461D01*
X85057871Y47251461D02*
X85089776Y47180033D01*
X85089776Y47180033D02*
X85121680Y47037176D01*
X85121680Y47037176D02*
X85121680Y46930033D01*
X85121680Y46930033D02*
X85089776Y46787176D01*
X85089776Y46787176D02*
X85057871Y46715747D01*
X85057871Y46715747D02*
X84994061Y46644318D01*
X84994061Y46644318D02*
X84898347Y46608604D01*
X84898347Y46608604D02*
X84738823Y46608604D01*
X83861442Y44058604D02*
X83638109Y44415747D01*
X83478585Y44058604D02*
X83478585Y44808604D01*
X83478585Y44808604D02*
X83733823Y44808604D01*
X83733823Y44808604D02*
X83797633Y44772890D01*
X83797633Y44772890D02*
X83829538Y44737176D01*
X83829538Y44737176D02*
X83861442Y44665747D01*
X83861442Y44665747D02*
X83861442Y44558604D01*
X83861442Y44558604D02*
X83829538Y44487176D01*
X83829538Y44487176D02*
X83797633Y44451461D01*
X83797633Y44451461D02*
X83733823Y44415747D01*
X83733823Y44415747D02*
X83478585Y44415747D01*
X84116681Y44094318D02*
X84212395Y44058604D01*
X84212395Y44058604D02*
X84371919Y44058604D01*
X84371919Y44058604D02*
X84435728Y44094318D01*
X84435728Y44094318D02*
X84467633Y44130033D01*
X84467633Y44130033D02*
X84499538Y44201461D01*
X84499538Y44201461D02*
X84499538Y44272890D01*
X84499538Y44272890D02*
X84467633Y44344318D01*
X84467633Y44344318D02*
X84435728Y44380033D01*
X84435728Y44380033D02*
X84371919Y44415747D01*
X84371919Y44415747D02*
X84244300Y44451461D01*
X84244300Y44451461D02*
X84180490Y44487176D01*
X84180490Y44487176D02*
X84148585Y44522890D01*
X84148585Y44522890D02*
X84116681Y44594318D01*
X84116681Y44594318D02*
X84116681Y44665747D01*
X84116681Y44665747D02*
X84148585Y44737176D01*
X84148585Y44737176D02*
X84180490Y44772890D01*
X84180490Y44772890D02*
X84244300Y44808604D01*
X84244300Y44808604D02*
X84403823Y44808604D01*
X84403823Y44808604D02*
X84499538Y44772890D01*
X84690966Y44808604D02*
X85073823Y44808604D01*
X84882395Y44058604D02*
X84882395Y44808604D01*
X83335013Y42358604D02*
X83558346Y41608604D01*
X83558346Y41608604D02*
X83781680Y42358604D01*
X84387870Y41680033D02*
X84355966Y41644318D01*
X84355966Y41644318D02*
X84260251Y41608604D01*
X84260251Y41608604D02*
X84196442Y41608604D01*
X84196442Y41608604D02*
X84100728Y41644318D01*
X84100728Y41644318D02*
X84036918Y41715747D01*
X84036918Y41715747D02*
X84005013Y41787176D01*
X84005013Y41787176D02*
X83973109Y41930033D01*
X83973109Y41930033D02*
X83973109Y42037176D01*
X83973109Y42037176D02*
X84005013Y42180033D01*
X84005013Y42180033D02*
X84036918Y42251461D01*
X84036918Y42251461D02*
X84100728Y42322890D01*
X84100728Y42322890D02*
X84196442Y42358604D01*
X84196442Y42358604D02*
X84260251Y42358604D01*
X84260251Y42358604D02*
X84355966Y42322890D01*
X84355966Y42322890D02*
X84387870Y42287176D01*
X85057870Y41680033D02*
X85025966Y41644318D01*
X85025966Y41644318D02*
X84930251Y41608604D01*
X84930251Y41608604D02*
X84866442Y41608604D01*
X84866442Y41608604D02*
X84770728Y41644318D01*
X84770728Y41644318D02*
X84706918Y41715747D01*
X84706918Y41715747D02*
X84675013Y41787176D01*
X84675013Y41787176D02*
X84643109Y41930033D01*
X84643109Y41930033D02*
X84643109Y42037176D01*
X84643109Y42037176D02*
X84675013Y42180033D01*
X84675013Y42180033D02*
X84706918Y42251461D01*
X84706918Y42251461D02*
X84770728Y42322890D01*
X84770728Y42322890D02*
X84866442Y42358604D01*
X84866442Y42358604D02*
X84930251Y42358604D01*
X84930251Y42358604D02*
X85025966Y42322890D01*
X85025966Y42322890D02*
X85057870Y42287176D01*
X83392633Y39122890D02*
X83711680Y39122890D01*
X83328823Y38908604D02*
X83552156Y39658604D01*
X83552156Y39658604D02*
X83775490Y38908604D01*
X83935014Y39658604D02*
X84349776Y39658604D01*
X84349776Y39658604D02*
X84126442Y39372890D01*
X84126442Y39372890D02*
X84222157Y39372890D01*
X84222157Y39372890D02*
X84285966Y39337176D01*
X84285966Y39337176D02*
X84317871Y39301461D01*
X84317871Y39301461D02*
X84349776Y39230033D01*
X84349776Y39230033D02*
X84349776Y39051461D01*
X84349776Y39051461D02*
X84317871Y38980033D01*
X84317871Y38980033D02*
X84285966Y38944318D01*
X84285966Y38944318D02*
X84222157Y38908604D01*
X84222157Y38908604D02*
X84030728Y38908604D01*
X84030728Y38908604D02*
X83966919Y38944318D01*
X83966919Y38944318D02*
X83935014Y38980033D01*
X85115490Y39694318D02*
X84541204Y38730033D01*
X85562157Y39301461D02*
X85338823Y39301461D01*
X85338823Y38908604D02*
X85338823Y39658604D01*
X85338823Y39658604D02*
X85657871Y39658604D01*
X86200252Y39408604D02*
X86200252Y38908604D01*
X86040728Y39694318D02*
X85881205Y39158604D01*
X85881205Y39158604D02*
X86295966Y39158604D01*
X83392633Y36622890D02*
X83711680Y36622890D01*
X83328823Y36408604D02*
X83552156Y37158604D01*
X83552156Y37158604D02*
X83775490Y36408604D01*
X83966919Y37087176D02*
X83998823Y37122890D01*
X83998823Y37122890D02*
X84062633Y37158604D01*
X84062633Y37158604D02*
X84222157Y37158604D01*
X84222157Y37158604D02*
X84285966Y37122890D01*
X84285966Y37122890D02*
X84317871Y37087176D01*
X84317871Y37087176D02*
X84349776Y37015747D01*
X84349776Y37015747D02*
X84349776Y36944318D01*
X84349776Y36944318D02*
X84317871Y36837176D01*
X84317871Y36837176D02*
X83935014Y36408604D01*
X83935014Y36408604D02*
X84349776Y36408604D01*
X85115490Y37194318D02*
X84541204Y36230033D01*
X85562157Y36801461D02*
X85338823Y36801461D01*
X85338823Y36408604D02*
X85338823Y37158604D01*
X85338823Y37158604D02*
X85657871Y37158604D01*
X86232157Y37158604D02*
X85913109Y37158604D01*
X85913109Y37158604D02*
X85881205Y36801461D01*
X85881205Y36801461D02*
X85913109Y36837176D01*
X85913109Y36837176D02*
X85976919Y36872890D01*
X85976919Y36872890D02*
X86136443Y36872890D01*
X86136443Y36872890D02*
X86200252Y36837176D01*
X86200252Y36837176D02*
X86232157Y36801461D01*
X86232157Y36801461D02*
X86264062Y36730033D01*
X86264062Y36730033D02*
X86264062Y36551461D01*
X86264062Y36551461D02*
X86232157Y36480033D01*
X86232157Y36480033D02*
X86200252Y36444318D01*
X86200252Y36444318D02*
X86136443Y36408604D01*
X86136443Y36408604D02*
X85976919Y36408604D01*
X85976919Y36408604D02*
X85913109Y36444318D01*
X85913109Y36444318D02*
X85881205Y36480033D01*
X83392633Y34122890D02*
X83711680Y34122890D01*
X83328823Y33908604D02*
X83552156Y34658604D01*
X83552156Y34658604D02*
X83775490Y33908604D01*
X84349776Y33908604D02*
X83966919Y33908604D01*
X84158347Y33908604D02*
X84158347Y34658604D01*
X84158347Y34658604D02*
X84094538Y34551461D01*
X84094538Y34551461D02*
X84030728Y34480033D01*
X84030728Y34480033D02*
X83966919Y34444318D01*
X85115490Y34694318D02*
X84541204Y33730033D01*
X85562157Y34301461D02*
X85338823Y34301461D01*
X85338823Y33908604D02*
X85338823Y34658604D01*
X85338823Y34658604D02*
X85657871Y34658604D01*
X86200252Y34658604D02*
X86072633Y34658604D01*
X86072633Y34658604D02*
X86008824Y34622890D01*
X86008824Y34622890D02*
X85976919Y34587176D01*
X85976919Y34587176D02*
X85913109Y34480033D01*
X85913109Y34480033D02*
X85881205Y34337176D01*
X85881205Y34337176D02*
X85881205Y34051461D01*
X85881205Y34051461D02*
X85913109Y33980033D01*
X85913109Y33980033D02*
X85945014Y33944318D01*
X85945014Y33944318D02*
X86008824Y33908604D01*
X86008824Y33908604D02*
X86136443Y33908604D01*
X86136443Y33908604D02*
X86200252Y33944318D01*
X86200252Y33944318D02*
X86232157Y33980033D01*
X86232157Y33980033D02*
X86264062Y34051461D01*
X86264062Y34051461D02*
X86264062Y34230033D01*
X86264062Y34230033D02*
X86232157Y34301461D01*
X86232157Y34301461D02*
X86200252Y34337176D01*
X86200252Y34337176D02*
X86136443Y34372890D01*
X86136443Y34372890D02*
X86008824Y34372890D01*
X86008824Y34372890D02*
X85945014Y34337176D01*
X85945014Y34337176D02*
X85913109Y34301461D01*
X85913109Y34301461D02*
X85881205Y34230033D01*
X83392633Y31572890D02*
X83711680Y31572890D01*
X83328823Y31358604D02*
X83552156Y32108604D01*
X83552156Y32108604D02*
X83775490Y31358604D01*
X84126442Y32108604D02*
X84190252Y32108604D01*
X84190252Y32108604D02*
X84254061Y32072890D01*
X84254061Y32072890D02*
X84285966Y32037176D01*
X84285966Y32037176D02*
X84317871Y31965747D01*
X84317871Y31965747D02*
X84349776Y31822890D01*
X84349776Y31822890D02*
X84349776Y31644318D01*
X84349776Y31644318D02*
X84317871Y31501461D01*
X84317871Y31501461D02*
X84285966Y31430033D01*
X84285966Y31430033D02*
X84254061Y31394318D01*
X84254061Y31394318D02*
X84190252Y31358604D01*
X84190252Y31358604D02*
X84126442Y31358604D01*
X84126442Y31358604D02*
X84062633Y31394318D01*
X84062633Y31394318D02*
X84030728Y31430033D01*
X84030728Y31430033D02*
X83998823Y31501461D01*
X83998823Y31501461D02*
X83966919Y31644318D01*
X83966919Y31644318D02*
X83966919Y31822890D01*
X83966919Y31822890D02*
X83998823Y31965747D01*
X83998823Y31965747D02*
X84030728Y32037176D01*
X84030728Y32037176D02*
X84062633Y32072890D01*
X84062633Y32072890D02*
X84126442Y32108604D01*
X85115490Y32144318D02*
X84541204Y31180033D01*
X85562157Y31751461D02*
X85338823Y31751461D01*
X85338823Y31358604D02*
X85338823Y32108604D01*
X85338823Y32108604D02*
X85657871Y32108604D01*
X85849300Y32108604D02*
X86295966Y32108604D01*
X86295966Y32108604D02*
X86008824Y31358604D01*
X83695728Y28808604D02*
X83312871Y28808604D01*
X83504299Y28808604D02*
X83504299Y29558604D01*
X83504299Y29558604D02*
X83440490Y29451461D01*
X83440490Y29451461D02*
X83376680Y29380033D01*
X83376680Y29380033D02*
X83312871Y29344318D01*
X84301918Y29558604D02*
X83982870Y29558604D01*
X83982870Y29558604D02*
X83950966Y29201461D01*
X83950966Y29201461D02*
X83982870Y29237176D01*
X83982870Y29237176D02*
X84046680Y29272890D01*
X84046680Y29272890D02*
X84206204Y29272890D01*
X84206204Y29272890D02*
X84270013Y29237176D01*
X84270013Y29237176D02*
X84301918Y29201461D01*
X84301918Y29201461D02*
X84333823Y29130033D01*
X84333823Y29130033D02*
X84333823Y28951461D01*
X84333823Y28951461D02*
X84301918Y28880033D01*
X84301918Y28880033D02*
X84270013Y28844318D01*
X84270013Y28844318D02*
X84206204Y28808604D01*
X84206204Y28808604D02*
X84046680Y28808604D01*
X84046680Y28808604D02*
X83982870Y28844318D01*
X83982870Y28844318D02*
X83950966Y28880033D01*
X85099537Y29594318D02*
X84525251Y28630033D01*
X85546204Y29201461D02*
X85641918Y29165747D01*
X85641918Y29165747D02*
X85673823Y29130033D01*
X85673823Y29130033D02*
X85705727Y29058604D01*
X85705727Y29058604D02*
X85705727Y28951461D01*
X85705727Y28951461D02*
X85673823Y28880033D01*
X85673823Y28880033D02*
X85641918Y28844318D01*
X85641918Y28844318D02*
X85578108Y28808604D01*
X85578108Y28808604D02*
X85322870Y28808604D01*
X85322870Y28808604D02*
X85322870Y29558604D01*
X85322870Y29558604D02*
X85546204Y29558604D01*
X85546204Y29558604D02*
X85610013Y29522890D01*
X85610013Y29522890D02*
X85641918Y29487176D01*
X85641918Y29487176D02*
X85673823Y29415747D01*
X85673823Y29415747D02*
X85673823Y29344318D01*
X85673823Y29344318D02*
X85641918Y29272890D01*
X85641918Y29272890D02*
X85610013Y29237176D01*
X85610013Y29237176D02*
X85546204Y29201461D01*
X85546204Y29201461D02*
X85322870Y29201461D01*
X86343823Y28808604D02*
X85960966Y28808604D01*
X86152394Y28808604D02*
X86152394Y29558604D01*
X86152394Y29558604D02*
X86088585Y29451461D01*
X86088585Y29451461D02*
X86024775Y29380033D01*
X86024775Y29380033D02*
X85960966Y29344318D01*
X83695728Y26258604D02*
X83312871Y26258604D01*
X83504299Y26258604D02*
X83504299Y27008604D01*
X83504299Y27008604D02*
X83440490Y26901461D01*
X83440490Y26901461D02*
X83376680Y26830033D01*
X83376680Y26830033D02*
X83312871Y26794318D01*
X84270013Y26758604D02*
X84270013Y26258604D01*
X84110489Y27044318D02*
X83950966Y26508604D01*
X83950966Y26508604D02*
X84365727Y26508604D01*
X85099537Y27044318D02*
X84525251Y26080033D01*
X85546204Y26651461D02*
X85641918Y26615747D01*
X85641918Y26615747D02*
X85673823Y26580033D01*
X85673823Y26580033D02*
X85705727Y26508604D01*
X85705727Y26508604D02*
X85705727Y26401461D01*
X85705727Y26401461D02*
X85673823Y26330033D01*
X85673823Y26330033D02*
X85641918Y26294318D01*
X85641918Y26294318D02*
X85578108Y26258604D01*
X85578108Y26258604D02*
X85322870Y26258604D01*
X85322870Y26258604D02*
X85322870Y27008604D01*
X85322870Y27008604D02*
X85546204Y27008604D01*
X85546204Y27008604D02*
X85610013Y26972890D01*
X85610013Y26972890D02*
X85641918Y26937176D01*
X85641918Y26937176D02*
X85673823Y26865747D01*
X85673823Y26865747D02*
X85673823Y26794318D01*
X85673823Y26794318D02*
X85641918Y26722890D01*
X85641918Y26722890D02*
X85610013Y26687176D01*
X85610013Y26687176D02*
X85546204Y26651461D01*
X85546204Y26651461D02*
X85322870Y26651461D01*
X85929061Y27008604D02*
X86343823Y27008604D01*
X86343823Y27008604D02*
X86120489Y26722890D01*
X86120489Y26722890D02*
X86216204Y26722890D01*
X86216204Y26722890D02*
X86280013Y26687176D01*
X86280013Y26687176D02*
X86311918Y26651461D01*
X86311918Y26651461D02*
X86343823Y26580033D01*
X86343823Y26580033D02*
X86343823Y26401461D01*
X86343823Y26401461D02*
X86311918Y26330033D01*
X86311918Y26330033D02*
X86280013Y26294318D01*
X86280013Y26294318D02*
X86216204Y26258604D01*
X86216204Y26258604D02*
X86024775Y26258604D01*
X86024775Y26258604D02*
X85960966Y26294318D01*
X85960966Y26294318D02*
X85929061Y26330033D01*
X83695728Y21208604D02*
X83312871Y21208604D01*
X83504299Y21208604D02*
X83504299Y21958604D01*
X83504299Y21958604D02*
X83440490Y21851461D01*
X83440490Y21851461D02*
X83376680Y21780033D01*
X83376680Y21780033D02*
X83312871Y21744318D01*
X84110489Y21958604D02*
X84174299Y21958604D01*
X84174299Y21958604D02*
X84238108Y21922890D01*
X84238108Y21922890D02*
X84270013Y21887176D01*
X84270013Y21887176D02*
X84301918Y21815747D01*
X84301918Y21815747D02*
X84333823Y21672890D01*
X84333823Y21672890D02*
X84333823Y21494318D01*
X84333823Y21494318D02*
X84301918Y21351461D01*
X84301918Y21351461D02*
X84270013Y21280033D01*
X84270013Y21280033D02*
X84238108Y21244318D01*
X84238108Y21244318D02*
X84174299Y21208604D01*
X84174299Y21208604D02*
X84110489Y21208604D01*
X84110489Y21208604D02*
X84046680Y21244318D01*
X84046680Y21244318D02*
X84014775Y21280033D01*
X84014775Y21280033D02*
X83982870Y21351461D01*
X83982870Y21351461D02*
X83950966Y21494318D01*
X83950966Y21494318D02*
X83950966Y21672890D01*
X83950966Y21672890D02*
X83982870Y21815747D01*
X83982870Y21815747D02*
X84014775Y21887176D01*
X84014775Y21887176D02*
X84046680Y21922890D01*
X84046680Y21922890D02*
X84110489Y21958604D01*
X85099537Y21994318D02*
X84525251Y21030033D01*
X85546204Y21601461D02*
X85641918Y21565747D01*
X85641918Y21565747D02*
X85673823Y21530033D01*
X85673823Y21530033D02*
X85705727Y21458604D01*
X85705727Y21458604D02*
X85705727Y21351461D01*
X85705727Y21351461D02*
X85673823Y21280033D01*
X85673823Y21280033D02*
X85641918Y21244318D01*
X85641918Y21244318D02*
X85578108Y21208604D01*
X85578108Y21208604D02*
X85322870Y21208604D01*
X85322870Y21208604D02*
X85322870Y21958604D01*
X85322870Y21958604D02*
X85546204Y21958604D01*
X85546204Y21958604D02*
X85610013Y21922890D01*
X85610013Y21922890D02*
X85641918Y21887176D01*
X85641918Y21887176D02*
X85673823Y21815747D01*
X85673823Y21815747D02*
X85673823Y21744318D01*
X85673823Y21744318D02*
X85641918Y21672890D01*
X85641918Y21672890D02*
X85610013Y21637176D01*
X85610013Y21637176D02*
X85546204Y21601461D01*
X85546204Y21601461D02*
X85322870Y21601461D01*
X86280013Y21958604D02*
X86152394Y21958604D01*
X86152394Y21958604D02*
X86088585Y21922890D01*
X86088585Y21922890D02*
X86056680Y21887176D01*
X86056680Y21887176D02*
X85992870Y21780033D01*
X85992870Y21780033D02*
X85960966Y21637176D01*
X85960966Y21637176D02*
X85960966Y21351461D01*
X85960966Y21351461D02*
X85992870Y21280033D01*
X85992870Y21280033D02*
X86024775Y21244318D01*
X86024775Y21244318D02*
X86088585Y21208604D01*
X86088585Y21208604D02*
X86216204Y21208604D01*
X86216204Y21208604D02*
X86280013Y21244318D01*
X86280013Y21244318D02*
X86311918Y21280033D01*
X86311918Y21280033D02*
X86343823Y21351461D01*
X86343823Y21351461D02*
X86343823Y21530033D01*
X86343823Y21530033D02*
X86311918Y21601461D01*
X86311918Y21601461D02*
X86280013Y21637176D01*
X86280013Y21637176D02*
X86216204Y21672890D01*
X86216204Y21672890D02*
X86088585Y21672890D01*
X86088585Y21672890D02*
X86024775Y21637176D01*
X86024775Y21637176D02*
X85992870Y21601461D01*
X85992870Y21601461D02*
X85960966Y21530033D01*
X83695728Y23708604D02*
X83312871Y23708604D01*
X83504299Y23708604D02*
X83504299Y24458604D01*
X83504299Y24458604D02*
X83440490Y24351461D01*
X83440490Y24351461D02*
X83376680Y24280033D01*
X83376680Y24280033D02*
X83312871Y24244318D01*
X84270013Y24458604D02*
X84142394Y24458604D01*
X84142394Y24458604D02*
X84078585Y24422890D01*
X84078585Y24422890D02*
X84046680Y24387176D01*
X84046680Y24387176D02*
X83982870Y24280033D01*
X83982870Y24280033D02*
X83950966Y24137176D01*
X83950966Y24137176D02*
X83950966Y23851461D01*
X83950966Y23851461D02*
X83982870Y23780033D01*
X83982870Y23780033D02*
X84014775Y23744318D01*
X84014775Y23744318D02*
X84078585Y23708604D01*
X84078585Y23708604D02*
X84206204Y23708604D01*
X84206204Y23708604D02*
X84270013Y23744318D01*
X84270013Y23744318D02*
X84301918Y23780033D01*
X84301918Y23780033D02*
X84333823Y23851461D01*
X84333823Y23851461D02*
X84333823Y24030033D01*
X84333823Y24030033D02*
X84301918Y24101461D01*
X84301918Y24101461D02*
X84270013Y24137176D01*
X84270013Y24137176D02*
X84206204Y24172890D01*
X84206204Y24172890D02*
X84078585Y24172890D01*
X84078585Y24172890D02*
X84014775Y24137176D01*
X84014775Y24137176D02*
X83982870Y24101461D01*
X83982870Y24101461D02*
X83950966Y24030033D01*
X85099537Y24494318D02*
X84525251Y23530033D01*
X85546204Y24101461D02*
X85641918Y24065747D01*
X85641918Y24065747D02*
X85673823Y24030033D01*
X85673823Y24030033D02*
X85705727Y23958604D01*
X85705727Y23958604D02*
X85705727Y23851461D01*
X85705727Y23851461D02*
X85673823Y23780033D01*
X85673823Y23780033D02*
X85641918Y23744318D01*
X85641918Y23744318D02*
X85578108Y23708604D01*
X85578108Y23708604D02*
X85322870Y23708604D01*
X85322870Y23708604D02*
X85322870Y24458604D01*
X85322870Y24458604D02*
X85546204Y24458604D01*
X85546204Y24458604D02*
X85610013Y24422890D01*
X85610013Y24422890D02*
X85641918Y24387176D01*
X85641918Y24387176D02*
X85673823Y24315747D01*
X85673823Y24315747D02*
X85673823Y24244318D01*
X85673823Y24244318D02*
X85641918Y24172890D01*
X85641918Y24172890D02*
X85610013Y24137176D01*
X85610013Y24137176D02*
X85546204Y24101461D01*
X85546204Y24101461D02*
X85322870Y24101461D01*
X85960966Y24387176D02*
X85992870Y24422890D01*
X85992870Y24422890D02*
X86056680Y24458604D01*
X86056680Y24458604D02*
X86216204Y24458604D01*
X86216204Y24458604D02*
X86280013Y24422890D01*
X86280013Y24422890D02*
X86311918Y24387176D01*
X86311918Y24387176D02*
X86343823Y24315747D01*
X86343823Y24315747D02*
X86343823Y24244318D01*
X86343823Y24244318D02*
X86311918Y24137176D01*
X86311918Y24137176D02*
X85929061Y23708604D01*
X85929061Y23708604D02*
X86343823Y23708604D01*
X92795728Y26801461D02*
X93019062Y26801461D01*
X93114776Y26408604D02*
X92795728Y26408604D01*
X92795728Y26408604D02*
X92795728Y27158604D01*
X92795728Y27158604D02*
X93114776Y27158604D01*
X93689061Y27158604D02*
X93561442Y27158604D01*
X93561442Y27158604D02*
X93497633Y27122890D01*
X93497633Y27122890D02*
X93465728Y27087176D01*
X93465728Y27087176D02*
X93401918Y26980033D01*
X93401918Y26980033D02*
X93370014Y26837176D01*
X93370014Y26837176D02*
X93370014Y26551461D01*
X93370014Y26551461D02*
X93401918Y26480033D01*
X93401918Y26480033D02*
X93433823Y26444318D01*
X93433823Y26444318D02*
X93497633Y26408604D01*
X93497633Y26408604D02*
X93625252Y26408604D01*
X93625252Y26408604D02*
X93689061Y26444318D01*
X93689061Y26444318D02*
X93720966Y26480033D01*
X93720966Y26480033D02*
X93752871Y26551461D01*
X93752871Y26551461D02*
X93752871Y26730033D01*
X93752871Y26730033D02*
X93720966Y26801461D01*
X93720966Y26801461D02*
X93689061Y26837176D01*
X93689061Y26837176D02*
X93625252Y26872890D01*
X93625252Y26872890D02*
X93497633Y26872890D01*
X93497633Y26872890D02*
X93433823Y26837176D01*
X93433823Y26837176D02*
X93401918Y26801461D01*
X93401918Y26801461D02*
X93370014Y26730033D01*
X94518585Y27194318D02*
X93944299Y26230033D01*
X94678109Y27158604D02*
X95124775Y27158604D01*
X95124775Y27158604D02*
X94837633Y26408604D01*
X92763823Y28958604D02*
X92763823Y29708604D01*
X92763823Y29708604D02*
X92923347Y29708604D01*
X92923347Y29708604D02*
X93019061Y29672890D01*
X93019061Y29672890D02*
X93082871Y29601461D01*
X93082871Y29601461D02*
X93114776Y29530033D01*
X93114776Y29530033D02*
X93146680Y29387176D01*
X93146680Y29387176D02*
X93146680Y29280033D01*
X93146680Y29280033D02*
X93114776Y29137176D01*
X93114776Y29137176D02*
X93082871Y29065747D01*
X93082871Y29065747D02*
X93019061Y28994318D01*
X93019061Y28994318D02*
X92923347Y28958604D01*
X92923347Y28958604D02*
X92763823Y28958604D01*
X93370014Y29708604D02*
X93816680Y29708604D01*
X93816680Y29708604D02*
X93529538Y28958604D01*
X94550490Y29744318D02*
X93976204Y28780033D01*
X95060966Y29708604D02*
X94933347Y29708604D01*
X94933347Y29708604D02*
X94869538Y29672890D01*
X94869538Y29672890D02*
X94837633Y29637176D01*
X94837633Y29637176D02*
X94773823Y29530033D01*
X94773823Y29530033D02*
X94741919Y29387176D01*
X94741919Y29387176D02*
X94741919Y29101461D01*
X94741919Y29101461D02*
X94773823Y29030033D01*
X94773823Y29030033D02*
X94805728Y28994318D01*
X94805728Y28994318D02*
X94869538Y28958604D01*
X94869538Y28958604D02*
X94997157Y28958604D01*
X94997157Y28958604D02*
X95060966Y28994318D01*
X95060966Y28994318D02*
X95092871Y29030033D01*
X95092871Y29030033D02*
X95124776Y29101461D01*
X95124776Y29101461D02*
X95124776Y29280033D01*
X95124776Y29280033D02*
X95092871Y29351461D01*
X95092871Y29351461D02*
X95060966Y29387176D01*
X95060966Y29387176D02*
X94997157Y29422890D01*
X94997157Y29422890D02*
X94869538Y29422890D01*
X94869538Y29422890D02*
X94805728Y29387176D01*
X94805728Y29387176D02*
X94773823Y29351461D01*
X94773823Y29351461D02*
X94741919Y29280033D01*
X93667871Y44722890D02*
X93604061Y44758604D01*
X93604061Y44758604D02*
X93508347Y44758604D01*
X93508347Y44758604D02*
X93412633Y44722890D01*
X93412633Y44722890D02*
X93348823Y44651461D01*
X93348823Y44651461D02*
X93316918Y44580033D01*
X93316918Y44580033D02*
X93285014Y44437176D01*
X93285014Y44437176D02*
X93285014Y44330033D01*
X93285014Y44330033D02*
X93316918Y44187176D01*
X93316918Y44187176D02*
X93348823Y44115747D01*
X93348823Y44115747D02*
X93412633Y44044318D01*
X93412633Y44044318D02*
X93508347Y44008604D01*
X93508347Y44008604D02*
X93572156Y44008604D01*
X93572156Y44008604D02*
X93667871Y44044318D01*
X93667871Y44044318D02*
X93699775Y44080033D01*
X93699775Y44080033D02*
X93699775Y44330033D01*
X93699775Y44330033D02*
X93572156Y44330033D01*
X93986918Y44008604D02*
X93986918Y44758604D01*
X93986918Y44758604D02*
X94369775Y44008604D01*
X94369775Y44008604D02*
X94369775Y44758604D01*
X94688823Y44008604D02*
X94688823Y44758604D01*
X94688823Y44758604D02*
X94848347Y44758604D01*
X94848347Y44758604D02*
X94944061Y44722890D01*
X94944061Y44722890D02*
X95007871Y44651461D01*
X95007871Y44651461D02*
X95039776Y44580033D01*
X95039776Y44580033D02*
X95071680Y44437176D01*
X95071680Y44437176D02*
X95071680Y44330033D01*
X95071680Y44330033D02*
X95039776Y44187176D01*
X95039776Y44187176D02*
X95007871Y44115747D01*
X95007871Y44115747D02*
X94944061Y44044318D01*
X94944061Y44044318D02*
X94848347Y44008604D01*
X94848347Y44008604D02*
X94688823Y44008604D01*
X93667871Y42272890D02*
X93604061Y42308604D01*
X93604061Y42308604D02*
X93508347Y42308604D01*
X93508347Y42308604D02*
X93412633Y42272890D01*
X93412633Y42272890D02*
X93348823Y42201461D01*
X93348823Y42201461D02*
X93316918Y42130033D01*
X93316918Y42130033D02*
X93285014Y41987176D01*
X93285014Y41987176D02*
X93285014Y41880033D01*
X93285014Y41880033D02*
X93316918Y41737176D01*
X93316918Y41737176D02*
X93348823Y41665747D01*
X93348823Y41665747D02*
X93412633Y41594318D01*
X93412633Y41594318D02*
X93508347Y41558604D01*
X93508347Y41558604D02*
X93572156Y41558604D01*
X93572156Y41558604D02*
X93667871Y41594318D01*
X93667871Y41594318D02*
X93699775Y41630033D01*
X93699775Y41630033D02*
X93699775Y41880033D01*
X93699775Y41880033D02*
X93572156Y41880033D01*
X93986918Y41558604D02*
X93986918Y42308604D01*
X93986918Y42308604D02*
X94369775Y41558604D01*
X94369775Y41558604D02*
X94369775Y42308604D01*
X94688823Y41558604D02*
X94688823Y42308604D01*
X94688823Y42308604D02*
X94848347Y42308604D01*
X94848347Y42308604D02*
X94944061Y42272890D01*
X94944061Y42272890D02*
X95007871Y42201461D01*
X95007871Y42201461D02*
X95039776Y42130033D01*
X95039776Y42130033D02*
X95071680Y41987176D01*
X95071680Y41987176D02*
X95071680Y41880033D01*
X95071680Y41880033D02*
X95039776Y41737176D01*
X95039776Y41737176D02*
X95007871Y41665747D01*
X95007871Y41665747D02*
X94944061Y41594318D01*
X94944061Y41594318D02*
X94848347Y41558604D01*
X94848347Y41558604D02*
X94688823Y41558604D01*
X91639537Y49108604D02*
X91639537Y49858604D01*
X91639537Y49858604D02*
X91799061Y49858604D01*
X91799061Y49858604D02*
X91894775Y49822890D01*
X91894775Y49822890D02*
X91958585Y49751461D01*
X91958585Y49751461D02*
X91990490Y49680033D01*
X91990490Y49680033D02*
X92022394Y49537176D01*
X92022394Y49537176D02*
X92022394Y49430033D01*
X92022394Y49430033D02*
X91990490Y49287176D01*
X91990490Y49287176D02*
X91958585Y49215747D01*
X91958585Y49215747D02*
X91894775Y49144318D01*
X91894775Y49144318D02*
X91799061Y49108604D01*
X91799061Y49108604D02*
X91639537Y49108604D01*
X92245728Y49858604D02*
X92660490Y49858604D01*
X92660490Y49858604D02*
X92437156Y49572890D01*
X92437156Y49572890D02*
X92532871Y49572890D01*
X92532871Y49572890D02*
X92596680Y49537176D01*
X92596680Y49537176D02*
X92628585Y49501461D01*
X92628585Y49501461D02*
X92660490Y49430033D01*
X92660490Y49430033D02*
X92660490Y49251461D01*
X92660490Y49251461D02*
X92628585Y49180033D01*
X92628585Y49180033D02*
X92596680Y49144318D01*
X92596680Y49144318D02*
X92532871Y49108604D01*
X92532871Y49108604D02*
X92341442Y49108604D01*
X92341442Y49108604D02*
X92277633Y49144318D01*
X92277633Y49144318D02*
X92245728Y49180033D01*
X93426204Y49894318D02*
X92851918Y48930033D01*
X93553823Y49858604D02*
X93936680Y49858604D01*
X93745252Y49108604D02*
X93745252Y49858604D01*
X94096204Y49858604D02*
X94542870Y49108604D01*
X94542870Y49858604D02*
X94096204Y49108604D01*
X94925727Y49858604D02*
X94989537Y49858604D01*
X94989537Y49858604D02*
X95053346Y49822890D01*
X95053346Y49822890D02*
X95085251Y49787176D01*
X95085251Y49787176D02*
X95117156Y49715747D01*
X95117156Y49715747D02*
X95149061Y49572890D01*
X95149061Y49572890D02*
X95149061Y49394318D01*
X95149061Y49394318D02*
X95117156Y49251461D01*
X95117156Y49251461D02*
X95085251Y49180033D01*
X95085251Y49180033D02*
X95053346Y49144318D01*
X95053346Y49144318D02*
X94989537Y49108604D01*
X94989537Y49108604D02*
X94925727Y49108604D01*
X94925727Y49108604D02*
X94861918Y49144318D01*
X94861918Y49144318D02*
X94830013Y49180033D01*
X94830013Y49180033D02*
X94798108Y49251461D01*
X94798108Y49251461D02*
X94766204Y49394318D01*
X94766204Y49394318D02*
X94766204Y49572890D01*
X94766204Y49572890D02*
X94798108Y49715747D01*
X94798108Y49715747D02*
X94830013Y49787176D01*
X94830013Y49787176D02*
X94861918Y49822890D01*
X94861918Y49822890D02*
X94925727Y49858604D01*
X92763823Y34058604D02*
X92763823Y34808604D01*
X92763823Y34808604D02*
X92923347Y34808604D01*
X92923347Y34808604D02*
X93019061Y34772890D01*
X93019061Y34772890D02*
X93082871Y34701461D01*
X93082871Y34701461D02*
X93114776Y34630033D01*
X93114776Y34630033D02*
X93146680Y34487176D01*
X93146680Y34487176D02*
X93146680Y34380033D01*
X93146680Y34380033D02*
X93114776Y34237176D01*
X93114776Y34237176D02*
X93082871Y34165747D01*
X93082871Y34165747D02*
X93019061Y34094318D01*
X93019061Y34094318D02*
X92923347Y34058604D01*
X92923347Y34058604D02*
X92763823Y34058604D01*
X93720966Y34558604D02*
X93720966Y34058604D01*
X93561442Y34844318D02*
X93401919Y34308604D01*
X93401919Y34308604D02*
X93816680Y34308604D01*
X94550490Y34844318D02*
X93976204Y33880033D01*
X95060966Y34558604D02*
X95060966Y34058604D01*
X94901442Y34844318D02*
X94741919Y34308604D01*
X94741919Y34308604D02*
X95156680Y34308604D01*
X90189776Y39094318D02*
X90285490Y39058604D01*
X90285490Y39058604D02*
X90445014Y39058604D01*
X90445014Y39058604D02*
X90508823Y39094318D01*
X90508823Y39094318D02*
X90540728Y39130033D01*
X90540728Y39130033D02*
X90572633Y39201461D01*
X90572633Y39201461D02*
X90572633Y39272890D01*
X90572633Y39272890D02*
X90540728Y39344318D01*
X90540728Y39344318D02*
X90508823Y39380033D01*
X90508823Y39380033D02*
X90445014Y39415747D01*
X90445014Y39415747D02*
X90317395Y39451461D01*
X90317395Y39451461D02*
X90253585Y39487176D01*
X90253585Y39487176D02*
X90221680Y39522890D01*
X90221680Y39522890D02*
X90189776Y39594318D01*
X90189776Y39594318D02*
X90189776Y39665747D01*
X90189776Y39665747D02*
X90221680Y39737176D01*
X90221680Y39737176D02*
X90253585Y39772890D01*
X90253585Y39772890D02*
X90317395Y39808604D01*
X90317395Y39808604D02*
X90476918Y39808604D01*
X90476918Y39808604D02*
X90572633Y39772890D01*
X90859775Y39058604D02*
X90859775Y39808604D01*
X90859775Y39808604D02*
X91019299Y39808604D01*
X91019299Y39808604D02*
X91115013Y39772890D01*
X91115013Y39772890D02*
X91178823Y39701461D01*
X91178823Y39701461D02*
X91210728Y39630033D01*
X91210728Y39630033D02*
X91242632Y39487176D01*
X91242632Y39487176D02*
X91242632Y39380033D01*
X91242632Y39380033D02*
X91210728Y39237176D01*
X91210728Y39237176D02*
X91178823Y39165747D01*
X91178823Y39165747D02*
X91115013Y39094318D01*
X91115013Y39094318D02*
X91019299Y39058604D01*
X91019299Y39058604D02*
X90859775Y39058604D01*
X91497871Y39272890D02*
X91816918Y39272890D01*
X91434061Y39058604D02*
X91657394Y39808604D01*
X91657394Y39808604D02*
X91880728Y39058604D01*
X92582633Y39844318D02*
X92008347Y38880033D01*
X92805966Y39058604D02*
X92805966Y39808604D01*
X92805966Y39808604D02*
X92965490Y39808604D01*
X92965490Y39808604D02*
X93061204Y39772890D01*
X93061204Y39772890D02*
X93125014Y39701461D01*
X93125014Y39701461D02*
X93156919Y39630033D01*
X93156919Y39630033D02*
X93188823Y39487176D01*
X93188823Y39487176D02*
X93188823Y39380033D01*
X93188823Y39380033D02*
X93156919Y39237176D01*
X93156919Y39237176D02*
X93125014Y39165747D01*
X93125014Y39165747D02*
X93061204Y39094318D01*
X93061204Y39094318D02*
X92965490Y39058604D01*
X92965490Y39058604D02*
X92805966Y39058604D01*
X93826919Y39058604D02*
X93444062Y39058604D01*
X93635490Y39058604D02*
X93635490Y39808604D01*
X93635490Y39808604D02*
X93571681Y39701461D01*
X93571681Y39701461D02*
X93507871Y39630033D01*
X93507871Y39630033D02*
X93444062Y39594318D01*
X94592633Y39844318D02*
X94018347Y38880033D01*
X94784062Y39737176D02*
X94815966Y39772890D01*
X94815966Y39772890D02*
X94879776Y39808604D01*
X94879776Y39808604D02*
X95039300Y39808604D01*
X95039300Y39808604D02*
X95103109Y39772890D01*
X95103109Y39772890D02*
X95135014Y39737176D01*
X95135014Y39737176D02*
X95166919Y39665747D01*
X95166919Y39665747D02*
X95166919Y39594318D01*
X95166919Y39594318D02*
X95135014Y39487176D01*
X95135014Y39487176D02*
X94752157Y39058604D01*
X94752157Y39058604D02*
X95166919Y39058604D01*
X90205728Y36594318D02*
X90301442Y36558604D01*
X90301442Y36558604D02*
X90460966Y36558604D01*
X90460966Y36558604D02*
X90524775Y36594318D01*
X90524775Y36594318D02*
X90556680Y36630033D01*
X90556680Y36630033D02*
X90588585Y36701461D01*
X90588585Y36701461D02*
X90588585Y36772890D01*
X90588585Y36772890D02*
X90556680Y36844318D01*
X90556680Y36844318D02*
X90524775Y36880033D01*
X90524775Y36880033D02*
X90460966Y36915747D01*
X90460966Y36915747D02*
X90333347Y36951461D01*
X90333347Y36951461D02*
X90269537Y36987176D01*
X90269537Y36987176D02*
X90237632Y37022890D01*
X90237632Y37022890D02*
X90205728Y37094318D01*
X90205728Y37094318D02*
X90205728Y37165747D01*
X90205728Y37165747D02*
X90237632Y37237176D01*
X90237632Y37237176D02*
X90269537Y37272890D01*
X90269537Y37272890D02*
X90333347Y37308604D01*
X90333347Y37308604D02*
X90492870Y37308604D01*
X90492870Y37308604D02*
X90588585Y37272890D01*
X91258584Y36630033D02*
X91226680Y36594318D01*
X91226680Y36594318D02*
X91130965Y36558604D01*
X91130965Y36558604D02*
X91067156Y36558604D01*
X91067156Y36558604D02*
X90971442Y36594318D01*
X90971442Y36594318D02*
X90907632Y36665747D01*
X90907632Y36665747D02*
X90875727Y36737176D01*
X90875727Y36737176D02*
X90843823Y36880033D01*
X90843823Y36880033D02*
X90843823Y36987176D01*
X90843823Y36987176D02*
X90875727Y37130033D01*
X90875727Y37130033D02*
X90907632Y37201461D01*
X90907632Y37201461D02*
X90971442Y37272890D01*
X90971442Y37272890D02*
X91067156Y37308604D01*
X91067156Y37308604D02*
X91130965Y37308604D01*
X91130965Y37308604D02*
X91226680Y37272890D01*
X91226680Y37272890D02*
X91258584Y37237176D01*
X91864775Y36558604D02*
X91545727Y36558604D01*
X91545727Y36558604D02*
X91545727Y37308604D01*
X92566680Y37344318D02*
X91992394Y36380033D01*
X92790013Y36558604D02*
X92790013Y37308604D01*
X92790013Y37308604D02*
X92949537Y37308604D01*
X92949537Y37308604D02*
X93045251Y37272890D01*
X93045251Y37272890D02*
X93109061Y37201461D01*
X93109061Y37201461D02*
X93140966Y37130033D01*
X93140966Y37130033D02*
X93172870Y36987176D01*
X93172870Y36987176D02*
X93172870Y36880033D01*
X93172870Y36880033D02*
X93140966Y36737176D01*
X93140966Y36737176D02*
X93109061Y36665747D01*
X93109061Y36665747D02*
X93045251Y36594318D01*
X93045251Y36594318D02*
X92949537Y36558604D01*
X92949537Y36558604D02*
X92790013Y36558604D01*
X93587632Y37308604D02*
X93651442Y37308604D01*
X93651442Y37308604D02*
X93715251Y37272890D01*
X93715251Y37272890D02*
X93747156Y37237176D01*
X93747156Y37237176D02*
X93779061Y37165747D01*
X93779061Y37165747D02*
X93810966Y37022890D01*
X93810966Y37022890D02*
X93810966Y36844318D01*
X93810966Y36844318D02*
X93779061Y36701461D01*
X93779061Y36701461D02*
X93747156Y36630033D01*
X93747156Y36630033D02*
X93715251Y36594318D01*
X93715251Y36594318D02*
X93651442Y36558604D01*
X93651442Y36558604D02*
X93587632Y36558604D01*
X93587632Y36558604D02*
X93523823Y36594318D01*
X93523823Y36594318D02*
X93491918Y36630033D01*
X93491918Y36630033D02*
X93460013Y36701461D01*
X93460013Y36701461D02*
X93428109Y36844318D01*
X93428109Y36844318D02*
X93428109Y37022890D01*
X93428109Y37022890D02*
X93460013Y37165747D01*
X93460013Y37165747D02*
X93491918Y37237176D01*
X93491918Y37237176D02*
X93523823Y37272890D01*
X93523823Y37272890D02*
X93587632Y37308604D01*
X94576680Y37344318D02*
X94002394Y36380033D01*
X94736204Y37308604D02*
X95150966Y37308604D01*
X95150966Y37308604D02*
X94927632Y37022890D01*
X94927632Y37022890D02*
X95023347Y37022890D01*
X95023347Y37022890D02*
X95087156Y36987176D01*
X95087156Y36987176D02*
X95119061Y36951461D01*
X95119061Y36951461D02*
X95150966Y36880033D01*
X95150966Y36880033D02*
X95150966Y36701461D01*
X95150966Y36701461D02*
X95119061Y36630033D01*
X95119061Y36630033D02*
X95087156Y36594318D01*
X95087156Y36594318D02*
X95023347Y36558604D01*
X95023347Y36558604D02*
X94831918Y36558604D01*
X94831918Y36558604D02*
X94768109Y36594318D01*
X94768109Y36594318D02*
X94736204Y36630033D01*
X93146680Y31580033D02*
X93114776Y31544318D01*
X93114776Y31544318D02*
X93019061Y31508604D01*
X93019061Y31508604D02*
X92955252Y31508604D01*
X92955252Y31508604D02*
X92859538Y31544318D01*
X92859538Y31544318D02*
X92795728Y31615747D01*
X92795728Y31615747D02*
X92763823Y31687176D01*
X92763823Y31687176D02*
X92731919Y31830033D01*
X92731919Y31830033D02*
X92731919Y31937176D01*
X92731919Y31937176D02*
X92763823Y32080033D01*
X92763823Y32080033D02*
X92795728Y32151461D01*
X92795728Y32151461D02*
X92859538Y32222890D01*
X92859538Y32222890D02*
X92955252Y32258604D01*
X92955252Y32258604D02*
X93019061Y32258604D01*
X93019061Y32258604D02*
X93114776Y32222890D01*
X93114776Y32222890D02*
X93146680Y32187176D01*
X93720966Y32258604D02*
X93593347Y32258604D01*
X93593347Y32258604D02*
X93529538Y32222890D01*
X93529538Y32222890D02*
X93497633Y32187176D01*
X93497633Y32187176D02*
X93433823Y32080033D01*
X93433823Y32080033D02*
X93401919Y31937176D01*
X93401919Y31937176D02*
X93401919Y31651461D01*
X93401919Y31651461D02*
X93433823Y31580033D01*
X93433823Y31580033D02*
X93465728Y31544318D01*
X93465728Y31544318D02*
X93529538Y31508604D01*
X93529538Y31508604D02*
X93657157Y31508604D01*
X93657157Y31508604D02*
X93720966Y31544318D01*
X93720966Y31544318D02*
X93752871Y31580033D01*
X93752871Y31580033D02*
X93784776Y31651461D01*
X93784776Y31651461D02*
X93784776Y31830033D01*
X93784776Y31830033D02*
X93752871Y31901461D01*
X93752871Y31901461D02*
X93720966Y31937176D01*
X93720966Y31937176D02*
X93657157Y31972890D01*
X93657157Y31972890D02*
X93529538Y31972890D01*
X93529538Y31972890D02*
X93465728Y31937176D01*
X93465728Y31937176D02*
X93433823Y31901461D01*
X93433823Y31901461D02*
X93401919Y31830033D01*
X94550490Y32294318D02*
X93976204Y31330033D01*
X95092871Y32258604D02*
X94773823Y32258604D01*
X94773823Y32258604D02*
X94741919Y31901461D01*
X94741919Y31901461D02*
X94773823Y31937176D01*
X94773823Y31937176D02*
X94837633Y31972890D01*
X94837633Y31972890D02*
X94997157Y31972890D01*
X94997157Y31972890D02*
X95060966Y31937176D01*
X95060966Y31937176D02*
X95092871Y31901461D01*
X95092871Y31901461D02*
X95124776Y31830033D01*
X95124776Y31830033D02*
X95124776Y31651461D01*
X95124776Y31651461D02*
X95092871Y31580033D01*
X95092871Y31580033D02*
X95060966Y31544318D01*
X95060966Y31544318D02*
X94997157Y31508604D01*
X94997157Y31508604D02*
X94837633Y31508604D01*
X94837633Y31508604D02*
X94773823Y31544318D01*
X94773823Y31544318D02*
X94741919Y31580033D01*
X92987157Y21751461D02*
X93082871Y21715747D01*
X93082871Y21715747D02*
X93114776Y21680033D01*
X93114776Y21680033D02*
X93146680Y21608604D01*
X93146680Y21608604D02*
X93146680Y21501461D01*
X93146680Y21501461D02*
X93114776Y21430033D01*
X93114776Y21430033D02*
X93082871Y21394318D01*
X93082871Y21394318D02*
X93019061Y21358604D01*
X93019061Y21358604D02*
X92763823Y21358604D01*
X92763823Y21358604D02*
X92763823Y22108604D01*
X92763823Y22108604D02*
X92987157Y22108604D01*
X92987157Y22108604D02*
X93050966Y22072890D01*
X93050966Y22072890D02*
X93082871Y22037176D01*
X93082871Y22037176D02*
X93114776Y21965747D01*
X93114776Y21965747D02*
X93114776Y21894318D01*
X93114776Y21894318D02*
X93082871Y21822890D01*
X93082871Y21822890D02*
X93050966Y21787176D01*
X93050966Y21787176D02*
X92987157Y21751461D01*
X92987157Y21751461D02*
X92763823Y21751461D01*
X93752871Y22108604D02*
X93433823Y22108604D01*
X93433823Y22108604D02*
X93401919Y21751461D01*
X93401919Y21751461D02*
X93433823Y21787176D01*
X93433823Y21787176D02*
X93497633Y21822890D01*
X93497633Y21822890D02*
X93657157Y21822890D01*
X93657157Y21822890D02*
X93720966Y21787176D01*
X93720966Y21787176D02*
X93752871Y21751461D01*
X93752871Y21751461D02*
X93784776Y21680033D01*
X93784776Y21680033D02*
X93784776Y21501461D01*
X93784776Y21501461D02*
X93752871Y21430033D01*
X93752871Y21430033D02*
X93720966Y21394318D01*
X93720966Y21394318D02*
X93657157Y21358604D01*
X93657157Y21358604D02*
X93497633Y21358604D01*
X93497633Y21358604D02*
X93433823Y21394318D01*
X93433823Y21394318D02*
X93401919Y21430033D01*
X94550490Y22144318D02*
X93976204Y21180033D01*
X94805728Y21358604D02*
X94933347Y21358604D01*
X94933347Y21358604D02*
X94997157Y21394318D01*
X94997157Y21394318D02*
X95029061Y21430033D01*
X95029061Y21430033D02*
X95092871Y21537176D01*
X95092871Y21537176D02*
X95124776Y21680033D01*
X95124776Y21680033D02*
X95124776Y21965747D01*
X95124776Y21965747D02*
X95092871Y22037176D01*
X95092871Y22037176D02*
X95060966Y22072890D01*
X95060966Y22072890D02*
X94997157Y22108604D01*
X94997157Y22108604D02*
X94869538Y22108604D01*
X94869538Y22108604D02*
X94805728Y22072890D01*
X94805728Y22072890D02*
X94773823Y22037176D01*
X94773823Y22037176D02*
X94741919Y21965747D01*
X94741919Y21965747D02*
X94741919Y21787176D01*
X94741919Y21787176D02*
X94773823Y21715747D01*
X94773823Y21715747D02*
X94805728Y21680033D01*
X94805728Y21680033D02*
X94869538Y21644318D01*
X94869538Y21644318D02*
X94997157Y21644318D01*
X94997157Y21644318D02*
X95060966Y21680033D01*
X95060966Y21680033D02*
X95092871Y21715747D01*
X95092871Y21715747D02*
X95124776Y21787176D01*
X91559775Y46558604D02*
X91559775Y47308604D01*
X91559775Y47308604D02*
X91719299Y47308604D01*
X91719299Y47308604D02*
X91815013Y47272890D01*
X91815013Y47272890D02*
X91878823Y47201461D01*
X91878823Y47201461D02*
X91910728Y47130033D01*
X91910728Y47130033D02*
X91942632Y46987176D01*
X91942632Y46987176D02*
X91942632Y46880033D01*
X91942632Y46880033D02*
X91910728Y46737176D01*
X91910728Y46737176D02*
X91878823Y46665747D01*
X91878823Y46665747D02*
X91815013Y46594318D01*
X91815013Y46594318D02*
X91719299Y46558604D01*
X91719299Y46558604D02*
X91559775Y46558604D01*
X92197871Y47237176D02*
X92229775Y47272890D01*
X92229775Y47272890D02*
X92293585Y47308604D01*
X92293585Y47308604D02*
X92453109Y47308604D01*
X92453109Y47308604D02*
X92516918Y47272890D01*
X92516918Y47272890D02*
X92548823Y47237176D01*
X92548823Y47237176D02*
X92580728Y47165747D01*
X92580728Y47165747D02*
X92580728Y47094318D01*
X92580728Y47094318D02*
X92548823Y46987176D01*
X92548823Y46987176D02*
X92165966Y46558604D01*
X92165966Y46558604D02*
X92580728Y46558604D01*
X93346442Y47344318D02*
X92772156Y46380033D01*
X93952632Y46558604D02*
X93729299Y46915747D01*
X93569775Y46558604D02*
X93569775Y47308604D01*
X93569775Y47308604D02*
X93825013Y47308604D01*
X93825013Y47308604D02*
X93888823Y47272890D01*
X93888823Y47272890D02*
X93920728Y47237176D01*
X93920728Y47237176D02*
X93952632Y47165747D01*
X93952632Y47165747D02*
X93952632Y47058604D01*
X93952632Y47058604D02*
X93920728Y46987176D01*
X93920728Y46987176D02*
X93888823Y46951461D01*
X93888823Y46951461D02*
X93825013Y46915747D01*
X93825013Y46915747D02*
X93569775Y46915747D01*
X94175966Y47308604D02*
X94622632Y46558604D01*
X94622632Y47308604D02*
X94175966Y46558604D01*
X95228823Y46558604D02*
X94845966Y46558604D01*
X95037394Y46558604D02*
X95037394Y47308604D01*
X95037394Y47308604D02*
X94973585Y47201461D01*
X94973585Y47201461D02*
X94909775Y47130033D01*
X94909775Y47130033D02*
X94845966Y47094318D01*
X92987157Y24251461D02*
X93082871Y24215747D01*
X93082871Y24215747D02*
X93114776Y24180033D01*
X93114776Y24180033D02*
X93146680Y24108604D01*
X93146680Y24108604D02*
X93146680Y24001461D01*
X93146680Y24001461D02*
X93114776Y23930033D01*
X93114776Y23930033D02*
X93082871Y23894318D01*
X93082871Y23894318D02*
X93019061Y23858604D01*
X93019061Y23858604D02*
X92763823Y23858604D01*
X92763823Y23858604D02*
X92763823Y24608604D01*
X92763823Y24608604D02*
X92987157Y24608604D01*
X92987157Y24608604D02*
X93050966Y24572890D01*
X93050966Y24572890D02*
X93082871Y24537176D01*
X93082871Y24537176D02*
X93114776Y24465747D01*
X93114776Y24465747D02*
X93114776Y24394318D01*
X93114776Y24394318D02*
X93082871Y24322890D01*
X93082871Y24322890D02*
X93050966Y24287176D01*
X93050966Y24287176D02*
X92987157Y24251461D01*
X92987157Y24251461D02*
X92763823Y24251461D01*
X93720966Y24358604D02*
X93720966Y23858604D01*
X93561442Y24644318D02*
X93401919Y24108604D01*
X93401919Y24108604D02*
X93816680Y24108604D01*
X94550490Y24644318D02*
X93976204Y23680033D01*
X94869538Y24287176D02*
X94805728Y24322890D01*
X94805728Y24322890D02*
X94773823Y24358604D01*
X94773823Y24358604D02*
X94741919Y24430033D01*
X94741919Y24430033D02*
X94741919Y24465747D01*
X94741919Y24465747D02*
X94773823Y24537176D01*
X94773823Y24537176D02*
X94805728Y24572890D01*
X94805728Y24572890D02*
X94869538Y24608604D01*
X94869538Y24608604D02*
X94997157Y24608604D01*
X94997157Y24608604D02*
X95060966Y24572890D01*
X95060966Y24572890D02*
X95092871Y24537176D01*
X95092871Y24537176D02*
X95124776Y24465747D01*
X95124776Y24465747D02*
X95124776Y24430033D01*
X95124776Y24430033D02*
X95092871Y24358604D01*
X95092871Y24358604D02*
X95060966Y24322890D01*
X95060966Y24322890D02*
X94997157Y24287176D01*
X94997157Y24287176D02*
X94869538Y24287176D01*
X94869538Y24287176D02*
X94805728Y24251461D01*
X94805728Y24251461D02*
X94773823Y24215747D01*
X94773823Y24215747D02*
X94741919Y24144318D01*
X94741919Y24144318D02*
X94741919Y24001461D01*
X94741919Y24001461D02*
X94773823Y23930033D01*
X94773823Y23930033D02*
X94805728Y23894318D01*
X94805728Y23894318D02*
X94869538Y23858604D01*
X94869538Y23858604D02*
X94997157Y23858604D01*
X94997157Y23858604D02*
X95060966Y23894318D01*
X95060966Y23894318D02*
X95092871Y23930033D01*
X95092871Y23930033D02*
X95124776Y24001461D01*
X95124776Y24001461D02*
X95124776Y24144318D01*
X95124776Y24144318D02*
X95092871Y24215747D01*
X95092871Y24215747D02*
X95060966Y24251461D01*
X95060966Y24251461D02*
X94997157Y24287176D01*
D12*
X86726918Y53608344D02*
X86726918Y54358344D01*
X86726918Y54358344D02*
X86976918Y53822630D01*
X86976918Y53822630D02*
X87226918Y54358344D01*
X87226918Y54358344D02*
X87226918Y53608344D01*
X87584061Y53608344D02*
X87584061Y54108344D01*
X87584061Y54358344D02*
X87548347Y54322630D01*
X87548347Y54322630D02*
X87584061Y54286916D01*
X87584061Y54286916D02*
X87619775Y54322630D01*
X87619775Y54322630D02*
X87584061Y54358344D01*
X87584061Y54358344D02*
X87584061Y54286916D01*
X88262633Y53644058D02*
X88191204Y53608344D01*
X88191204Y53608344D02*
X88048347Y53608344D01*
X88048347Y53608344D02*
X87976918Y53644058D01*
X87976918Y53644058D02*
X87941204Y53679773D01*
X87941204Y53679773D02*
X87905490Y53751201D01*
X87905490Y53751201D02*
X87905490Y53965487D01*
X87905490Y53965487D02*
X87941204Y54036916D01*
X87941204Y54036916D02*
X87976918Y54072630D01*
X87976918Y54072630D02*
X88048347Y54108344D01*
X88048347Y54108344D02*
X88191204Y54108344D01*
X88191204Y54108344D02*
X88262633Y54072630D01*
X88584061Y53608344D02*
X88584061Y54108344D01*
X88584061Y53965487D02*
X88619775Y54036916D01*
X88619775Y54036916D02*
X88655490Y54072630D01*
X88655490Y54072630D02*
X88726918Y54108344D01*
X88726918Y54108344D02*
X88798347Y54108344D01*
X89155490Y53608344D02*
X89084061Y53644058D01*
X89084061Y53644058D02*
X89048347Y53679773D01*
X89048347Y53679773D02*
X89012633Y53751201D01*
X89012633Y53751201D02*
X89012633Y53965487D01*
X89012633Y53965487D02*
X89048347Y54036916D01*
X89048347Y54036916D02*
X89084061Y54072630D01*
X89084061Y54072630D02*
X89155490Y54108344D01*
X89155490Y54108344D02*
X89262633Y54108344D01*
X89262633Y54108344D02*
X89334061Y54072630D01*
X89334061Y54072630D02*
X89369776Y54036916D01*
X89369776Y54036916D02*
X89405490Y53965487D01*
X89405490Y53965487D02*
X89405490Y53751201D01*
X89405490Y53751201D02*
X89369776Y53679773D01*
X89369776Y53679773D02*
X89334061Y53644058D01*
X89334061Y53644058D02*
X89262633Y53608344D01*
X89262633Y53608344D02*
X89155490Y53608344D01*
X89726918Y54358344D02*
X89726918Y53751201D01*
X89726918Y53751201D02*
X89762632Y53679773D01*
X89762632Y53679773D02*
X89798347Y53644058D01*
X89798347Y53644058D02*
X89869775Y53608344D01*
X89869775Y53608344D02*
X90012632Y53608344D01*
X90012632Y53608344D02*
X90084061Y53644058D01*
X90084061Y53644058D02*
X90119775Y53679773D01*
X90119775Y53679773D02*
X90155489Y53751201D01*
X90155489Y53751201D02*
X90155489Y54358344D01*
X90476918Y53644058D02*
X90584061Y53608344D01*
X90584061Y53608344D02*
X90762632Y53608344D01*
X90762632Y53608344D02*
X90834061Y53644058D01*
X90834061Y53644058D02*
X90869775Y53679773D01*
X90869775Y53679773D02*
X90905489Y53751201D01*
X90905489Y53751201D02*
X90905489Y53822630D01*
X90905489Y53822630D02*
X90869775Y53894058D01*
X90869775Y53894058D02*
X90834061Y53929773D01*
X90834061Y53929773D02*
X90762632Y53965487D01*
X90762632Y53965487D02*
X90619775Y54001201D01*
X90619775Y54001201D02*
X90548346Y54036916D01*
X90548346Y54036916D02*
X90512632Y54072630D01*
X90512632Y54072630D02*
X90476918Y54144058D01*
X90476918Y54144058D02*
X90476918Y54215487D01*
X90476918Y54215487D02*
X90512632Y54286916D01*
X90512632Y54286916D02*
X90548346Y54322630D01*
X90548346Y54322630D02*
X90619775Y54358344D01*
X90619775Y54358344D02*
X90798346Y54358344D01*
X90798346Y54358344D02*
X90905489Y54322630D01*
X91476918Y54001201D02*
X91584061Y53965487D01*
X91584061Y53965487D02*
X91619775Y53929773D01*
X91619775Y53929773D02*
X91655489Y53858344D01*
X91655489Y53858344D02*
X91655489Y53751201D01*
X91655489Y53751201D02*
X91619775Y53679773D01*
X91619775Y53679773D02*
X91584061Y53644058D01*
X91584061Y53644058D02*
X91512632Y53608344D01*
X91512632Y53608344D02*
X91226918Y53608344D01*
X91226918Y53608344D02*
X91226918Y54358344D01*
X91226918Y54358344D02*
X91476918Y54358344D01*
X91476918Y54358344D02*
X91548347Y54322630D01*
X91548347Y54322630D02*
X91584061Y54286916D01*
X91584061Y54286916D02*
X91619775Y54215487D01*
X91619775Y54215487D02*
X91619775Y54144058D01*
X91619775Y54144058D02*
X91584061Y54072630D01*
X91584061Y54072630D02*
X91548347Y54036916D01*
X91548347Y54036916D02*
X91476918Y54001201D01*
X91476918Y54001201D02*
X91226918Y54001201D01*
X86726918Y53608344D02*
X86726918Y54358344D01*
X86726918Y54358344D02*
X86976918Y53822630D01*
X86976918Y53822630D02*
X87226918Y54358344D01*
X87226918Y54358344D02*
X87226918Y53608344D01*
X87584061Y53608344D02*
X87584061Y54108344D01*
X87584061Y54358344D02*
X87548347Y54322630D01*
X87548347Y54322630D02*
X87584061Y54286916D01*
X87584061Y54286916D02*
X87619775Y54322630D01*
X87619775Y54322630D02*
X87584061Y54358344D01*
X87584061Y54358344D02*
X87584061Y54286916D01*
X88262633Y53644058D02*
X88191204Y53608344D01*
X88191204Y53608344D02*
X88048347Y53608344D01*
X88048347Y53608344D02*
X87976918Y53644058D01*
X87976918Y53644058D02*
X87941204Y53679773D01*
X87941204Y53679773D02*
X87905490Y53751201D01*
X87905490Y53751201D02*
X87905490Y53965487D01*
X87905490Y53965487D02*
X87941204Y54036916D01*
X87941204Y54036916D02*
X87976918Y54072630D01*
X87976918Y54072630D02*
X88048347Y54108344D01*
X88048347Y54108344D02*
X88191204Y54108344D01*
X88191204Y54108344D02*
X88262633Y54072630D01*
X88584061Y53608344D02*
X88584061Y54108344D01*
X88584061Y53965487D02*
X88619775Y54036916D01*
X88619775Y54036916D02*
X88655490Y54072630D01*
X88655490Y54072630D02*
X88726918Y54108344D01*
X88726918Y54108344D02*
X88798347Y54108344D01*
X89155490Y53608344D02*
X89084061Y53644058D01*
X89084061Y53644058D02*
X89048347Y53679773D01*
X89048347Y53679773D02*
X89012633Y53751201D01*
X89012633Y53751201D02*
X89012633Y53965487D01*
X89012633Y53965487D02*
X89048347Y54036916D01*
X89048347Y54036916D02*
X89084061Y54072630D01*
X89084061Y54072630D02*
X89155490Y54108344D01*
X89155490Y54108344D02*
X89262633Y54108344D01*
X89262633Y54108344D02*
X89334061Y54072630D01*
X89334061Y54072630D02*
X89369776Y54036916D01*
X89369776Y54036916D02*
X89405490Y53965487D01*
X89405490Y53965487D02*
X89405490Y53751201D01*
X89405490Y53751201D02*
X89369776Y53679773D01*
X89369776Y53679773D02*
X89334061Y53644058D01*
X89334061Y53644058D02*
X89262633Y53608344D01*
X89262633Y53608344D02*
X89155490Y53608344D01*
X89726918Y54358344D02*
X89726918Y53751201D01*
X89726918Y53751201D02*
X89762632Y53679773D01*
X89762632Y53679773D02*
X89798347Y53644058D01*
X89798347Y53644058D02*
X89869775Y53608344D01*
X89869775Y53608344D02*
X90012632Y53608344D01*
X90012632Y53608344D02*
X90084061Y53644058D01*
X90084061Y53644058D02*
X90119775Y53679773D01*
X90119775Y53679773D02*
X90155489Y53751201D01*
X90155489Y53751201D02*
X90155489Y54358344D01*
X90476918Y53644058D02*
X90584061Y53608344D01*
X90584061Y53608344D02*
X90762632Y53608344D01*
X90762632Y53608344D02*
X90834061Y53644058D01*
X90834061Y53644058D02*
X90869775Y53679773D01*
X90869775Y53679773D02*
X90905489Y53751201D01*
X90905489Y53751201D02*
X90905489Y53822630D01*
X90905489Y53822630D02*
X90869775Y53894058D01*
X90869775Y53894058D02*
X90834061Y53929773D01*
X90834061Y53929773D02*
X90762632Y53965487D01*
X90762632Y53965487D02*
X90619775Y54001201D01*
X90619775Y54001201D02*
X90548346Y54036916D01*
X90548346Y54036916D02*
X90512632Y54072630D01*
X90512632Y54072630D02*
X90476918Y54144058D01*
X90476918Y54144058D02*
X90476918Y54215487D01*
X90476918Y54215487D02*
X90512632Y54286916D01*
X90512632Y54286916D02*
X90548346Y54322630D01*
X90548346Y54322630D02*
X90619775Y54358344D01*
X90619775Y54358344D02*
X90798346Y54358344D01*
X90798346Y54358344D02*
X90905489Y54322630D01*
X91476918Y54001201D02*
X91584061Y53965487D01*
X91584061Y53965487D02*
X91619775Y53929773D01*
X91619775Y53929773D02*
X91655489Y53858344D01*
X91655489Y53858344D02*
X91655489Y53751201D01*
X91655489Y53751201D02*
X91619775Y53679773D01*
X91619775Y53679773D02*
X91584061Y53644058D01*
X91584061Y53644058D02*
X91512632Y53608344D01*
X91512632Y53608344D02*
X91226918Y53608344D01*
X91226918Y53608344D02*
X91226918Y54358344D01*
X91226918Y54358344D02*
X91476918Y54358344D01*
X91476918Y54358344D02*
X91548347Y54322630D01*
X91548347Y54322630D02*
X91584061Y54286916D01*
X91584061Y54286916D02*
X91619775Y54215487D01*
X91619775Y54215487D02*
X91619775Y54144058D01*
X91619775Y54144058D02*
X91584061Y54072630D01*
X91584061Y54072630D02*
X91548347Y54036916D01*
X91548347Y54036916D02*
X91476918Y54001201D01*
X91476918Y54001201D02*
X91226918Y54001201D01*
D10*
X56595380Y49285036D02*
X56372047Y49642179D01*
X56212523Y49285036D02*
X56212523Y50035036D01*
X56212523Y50035036D02*
X56467761Y50035036D01*
X56467761Y50035036D02*
X56531571Y49999322D01*
X56531571Y49999322D02*
X56563476Y49963608D01*
X56563476Y49963608D02*
X56595380Y49892179D01*
X56595380Y49892179D02*
X56595380Y49785036D01*
X56595380Y49785036D02*
X56563476Y49713608D01*
X56563476Y49713608D02*
X56531571Y49677893D01*
X56531571Y49677893D02*
X56467761Y49642179D01*
X56467761Y49642179D02*
X56212523Y49642179D01*
X56850619Y49499322D02*
X57169666Y49499322D01*
X56786809Y49285036D02*
X57010142Y50035036D01*
X57010142Y50035036D02*
X57233476Y49285036D01*
X57393000Y50035036D02*
X57552524Y49285036D01*
X57552524Y49285036D02*
X57680143Y49820750D01*
X57680143Y49820750D02*
X57807762Y49285036D01*
X57807762Y49285036D02*
X57967286Y50035036D01*
X56547524Y47449322D02*
X56483714Y47485036D01*
X56483714Y47485036D02*
X56388000Y47485036D01*
X56388000Y47485036D02*
X56292286Y47449322D01*
X56292286Y47449322D02*
X56228476Y47377893D01*
X56228476Y47377893D02*
X56196571Y47306465D01*
X56196571Y47306465D02*
X56164667Y47163608D01*
X56164667Y47163608D02*
X56164667Y47056465D01*
X56164667Y47056465D02*
X56196571Y46913608D01*
X56196571Y46913608D02*
X56228476Y46842179D01*
X56228476Y46842179D02*
X56292286Y46770750D01*
X56292286Y46770750D02*
X56388000Y46735036D01*
X56388000Y46735036D02*
X56451809Y46735036D01*
X56451809Y46735036D02*
X56547524Y46770750D01*
X56547524Y46770750D02*
X56579428Y46806465D01*
X56579428Y46806465D02*
X56579428Y47056465D01*
X56579428Y47056465D02*
X56451809Y47056465D01*
X56866571Y46735036D02*
X56866571Y47485036D01*
X56866571Y47485036D02*
X57249428Y46735036D01*
X57249428Y46735036D02*
X57249428Y47485036D01*
X57568476Y46735036D02*
X57568476Y47485036D01*
X57568476Y47485036D02*
X57728000Y47485036D01*
X57728000Y47485036D02*
X57823714Y47449322D01*
X57823714Y47449322D02*
X57887524Y47377893D01*
X57887524Y47377893D02*
X57919429Y47306465D01*
X57919429Y47306465D02*
X57951333Y47163608D01*
X57951333Y47163608D02*
X57951333Y47056465D01*
X57951333Y47056465D02*
X57919429Y46913608D01*
X57919429Y46913608D02*
X57887524Y46842179D01*
X57887524Y46842179D02*
X57823714Y46770750D01*
X57823714Y46770750D02*
X57728000Y46735036D01*
X57728000Y46735036D02*
X57568476Y46735036D01*
X56691095Y44185036D02*
X56467762Y44542179D01*
X56308238Y44185036D02*
X56308238Y44935036D01*
X56308238Y44935036D02*
X56563476Y44935036D01*
X56563476Y44935036D02*
X56627286Y44899322D01*
X56627286Y44899322D02*
X56659191Y44863608D01*
X56659191Y44863608D02*
X56691095Y44792179D01*
X56691095Y44792179D02*
X56691095Y44685036D01*
X56691095Y44685036D02*
X56659191Y44613608D01*
X56659191Y44613608D02*
X56627286Y44577893D01*
X56627286Y44577893D02*
X56563476Y44542179D01*
X56563476Y44542179D02*
X56308238Y44542179D01*
X56946334Y44220750D02*
X57042048Y44185036D01*
X57042048Y44185036D02*
X57201572Y44185036D01*
X57201572Y44185036D02*
X57265381Y44220750D01*
X57265381Y44220750D02*
X57297286Y44256465D01*
X57297286Y44256465D02*
X57329191Y44327893D01*
X57329191Y44327893D02*
X57329191Y44399322D01*
X57329191Y44399322D02*
X57297286Y44470750D01*
X57297286Y44470750D02*
X57265381Y44506465D01*
X57265381Y44506465D02*
X57201572Y44542179D01*
X57201572Y44542179D02*
X57073953Y44577893D01*
X57073953Y44577893D02*
X57010143Y44613608D01*
X57010143Y44613608D02*
X56978238Y44649322D01*
X56978238Y44649322D02*
X56946334Y44720750D01*
X56946334Y44720750D02*
X56946334Y44792179D01*
X56946334Y44792179D02*
X56978238Y44863608D01*
X56978238Y44863608D02*
X57010143Y44899322D01*
X57010143Y44899322D02*
X57073953Y44935036D01*
X57073953Y44935036D02*
X57233476Y44935036D01*
X57233476Y44935036D02*
X57329191Y44899322D01*
X57520619Y44935036D02*
X57903476Y44935036D01*
X57712048Y44185036D02*
X57712048Y44935036D01*
X56164666Y42485036D02*
X56387999Y41735036D01*
X56387999Y41735036D02*
X56611333Y42485036D01*
X57217523Y41806465D02*
X57185619Y41770750D01*
X57185619Y41770750D02*
X57089904Y41735036D01*
X57089904Y41735036D02*
X57026095Y41735036D01*
X57026095Y41735036D02*
X56930381Y41770750D01*
X56930381Y41770750D02*
X56866571Y41842179D01*
X56866571Y41842179D02*
X56834666Y41913608D01*
X56834666Y41913608D02*
X56802762Y42056465D01*
X56802762Y42056465D02*
X56802762Y42163608D01*
X56802762Y42163608D02*
X56834666Y42306465D01*
X56834666Y42306465D02*
X56866571Y42377893D01*
X56866571Y42377893D02*
X56930381Y42449322D01*
X56930381Y42449322D02*
X57026095Y42485036D01*
X57026095Y42485036D02*
X57089904Y42485036D01*
X57089904Y42485036D02*
X57185619Y42449322D01*
X57185619Y42449322D02*
X57217523Y42413608D01*
X57887523Y41806465D02*
X57855619Y41770750D01*
X57855619Y41770750D02*
X57759904Y41735036D01*
X57759904Y41735036D02*
X57696095Y41735036D01*
X57696095Y41735036D02*
X57600381Y41770750D01*
X57600381Y41770750D02*
X57536571Y41842179D01*
X57536571Y41842179D02*
X57504666Y41913608D01*
X57504666Y41913608D02*
X57472762Y42056465D01*
X57472762Y42056465D02*
X57472762Y42163608D01*
X57472762Y42163608D02*
X57504666Y42306465D01*
X57504666Y42306465D02*
X57536571Y42377893D01*
X57536571Y42377893D02*
X57600381Y42449322D01*
X57600381Y42449322D02*
X57696095Y42485036D01*
X57696095Y42485036D02*
X57759904Y42485036D01*
X57759904Y42485036D02*
X57855619Y42449322D01*
X57855619Y42449322D02*
X57887523Y42413608D01*
X56222286Y39249322D02*
X56541333Y39249322D01*
X56158476Y39035036D02*
X56381809Y39785036D01*
X56381809Y39785036D02*
X56605143Y39035036D01*
X56764667Y39785036D02*
X57179429Y39785036D01*
X57179429Y39785036D02*
X56956095Y39499322D01*
X56956095Y39499322D02*
X57051810Y39499322D01*
X57051810Y39499322D02*
X57115619Y39463608D01*
X57115619Y39463608D02*
X57147524Y39427893D01*
X57147524Y39427893D02*
X57179429Y39356465D01*
X57179429Y39356465D02*
X57179429Y39177893D01*
X57179429Y39177893D02*
X57147524Y39106465D01*
X57147524Y39106465D02*
X57115619Y39070750D01*
X57115619Y39070750D02*
X57051810Y39035036D01*
X57051810Y39035036D02*
X56860381Y39035036D01*
X56860381Y39035036D02*
X56796572Y39070750D01*
X56796572Y39070750D02*
X56764667Y39106465D01*
X57945143Y39820750D02*
X57370857Y38856465D01*
X58391810Y39427893D02*
X58168476Y39427893D01*
X58168476Y39035036D02*
X58168476Y39785036D01*
X58168476Y39785036D02*
X58487524Y39785036D01*
X59029905Y39535036D02*
X59029905Y39035036D01*
X58870381Y39820750D02*
X58710858Y39285036D01*
X58710858Y39285036D02*
X59125619Y39285036D01*
X56222286Y36749322D02*
X56541333Y36749322D01*
X56158476Y36535036D02*
X56381809Y37285036D01*
X56381809Y37285036D02*
X56605143Y36535036D01*
X56796572Y37213608D02*
X56828476Y37249322D01*
X56828476Y37249322D02*
X56892286Y37285036D01*
X56892286Y37285036D02*
X57051810Y37285036D01*
X57051810Y37285036D02*
X57115619Y37249322D01*
X57115619Y37249322D02*
X57147524Y37213608D01*
X57147524Y37213608D02*
X57179429Y37142179D01*
X57179429Y37142179D02*
X57179429Y37070750D01*
X57179429Y37070750D02*
X57147524Y36963608D01*
X57147524Y36963608D02*
X56764667Y36535036D01*
X56764667Y36535036D02*
X57179429Y36535036D01*
X57945143Y37320750D02*
X57370857Y36356465D01*
X58391810Y36927893D02*
X58168476Y36927893D01*
X58168476Y36535036D02*
X58168476Y37285036D01*
X58168476Y37285036D02*
X58487524Y37285036D01*
X59061810Y37285036D02*
X58742762Y37285036D01*
X58742762Y37285036D02*
X58710858Y36927893D01*
X58710858Y36927893D02*
X58742762Y36963608D01*
X58742762Y36963608D02*
X58806572Y36999322D01*
X58806572Y36999322D02*
X58966096Y36999322D01*
X58966096Y36999322D02*
X59029905Y36963608D01*
X59029905Y36963608D02*
X59061810Y36927893D01*
X59061810Y36927893D02*
X59093715Y36856465D01*
X59093715Y36856465D02*
X59093715Y36677893D01*
X59093715Y36677893D02*
X59061810Y36606465D01*
X59061810Y36606465D02*
X59029905Y36570750D01*
X59029905Y36570750D02*
X58966096Y36535036D01*
X58966096Y36535036D02*
X58806572Y36535036D01*
X58806572Y36535036D02*
X58742762Y36570750D01*
X58742762Y36570750D02*
X58710858Y36606465D01*
X56222286Y34249322D02*
X56541333Y34249322D01*
X56158476Y34035036D02*
X56381809Y34785036D01*
X56381809Y34785036D02*
X56605143Y34035036D01*
X57179429Y34035036D02*
X56796572Y34035036D01*
X56988000Y34035036D02*
X56988000Y34785036D01*
X56988000Y34785036D02*
X56924191Y34677893D01*
X56924191Y34677893D02*
X56860381Y34606465D01*
X56860381Y34606465D02*
X56796572Y34570750D01*
X57945143Y34820750D02*
X57370857Y33856465D01*
X58391810Y34427893D02*
X58168476Y34427893D01*
X58168476Y34035036D02*
X58168476Y34785036D01*
X58168476Y34785036D02*
X58487524Y34785036D01*
X59029905Y34785036D02*
X58902286Y34785036D01*
X58902286Y34785036D02*
X58838477Y34749322D01*
X58838477Y34749322D02*
X58806572Y34713608D01*
X58806572Y34713608D02*
X58742762Y34606465D01*
X58742762Y34606465D02*
X58710858Y34463608D01*
X58710858Y34463608D02*
X58710858Y34177893D01*
X58710858Y34177893D02*
X58742762Y34106465D01*
X58742762Y34106465D02*
X58774667Y34070750D01*
X58774667Y34070750D02*
X58838477Y34035036D01*
X58838477Y34035036D02*
X58966096Y34035036D01*
X58966096Y34035036D02*
X59029905Y34070750D01*
X59029905Y34070750D02*
X59061810Y34106465D01*
X59061810Y34106465D02*
X59093715Y34177893D01*
X59093715Y34177893D02*
X59093715Y34356465D01*
X59093715Y34356465D02*
X59061810Y34427893D01*
X59061810Y34427893D02*
X59029905Y34463608D01*
X59029905Y34463608D02*
X58966096Y34499322D01*
X58966096Y34499322D02*
X58838477Y34499322D01*
X58838477Y34499322D02*
X58774667Y34463608D01*
X58774667Y34463608D02*
X58742762Y34427893D01*
X58742762Y34427893D02*
X58710858Y34356465D01*
X56222286Y31699322D02*
X56541333Y31699322D01*
X56158476Y31485036D02*
X56381809Y32235036D01*
X56381809Y32235036D02*
X56605143Y31485036D01*
X56956095Y32235036D02*
X57019905Y32235036D01*
X57019905Y32235036D02*
X57083714Y32199322D01*
X57083714Y32199322D02*
X57115619Y32163608D01*
X57115619Y32163608D02*
X57147524Y32092179D01*
X57147524Y32092179D02*
X57179429Y31949322D01*
X57179429Y31949322D02*
X57179429Y31770750D01*
X57179429Y31770750D02*
X57147524Y31627893D01*
X57147524Y31627893D02*
X57115619Y31556465D01*
X57115619Y31556465D02*
X57083714Y31520750D01*
X57083714Y31520750D02*
X57019905Y31485036D01*
X57019905Y31485036D02*
X56956095Y31485036D01*
X56956095Y31485036D02*
X56892286Y31520750D01*
X56892286Y31520750D02*
X56860381Y31556465D01*
X56860381Y31556465D02*
X56828476Y31627893D01*
X56828476Y31627893D02*
X56796572Y31770750D01*
X56796572Y31770750D02*
X56796572Y31949322D01*
X56796572Y31949322D02*
X56828476Y32092179D01*
X56828476Y32092179D02*
X56860381Y32163608D01*
X56860381Y32163608D02*
X56892286Y32199322D01*
X56892286Y32199322D02*
X56956095Y32235036D01*
X57945143Y32270750D02*
X57370857Y31306465D01*
X58391810Y31877893D02*
X58168476Y31877893D01*
X58168476Y31485036D02*
X58168476Y32235036D01*
X58168476Y32235036D02*
X58487524Y32235036D01*
X58678953Y32235036D02*
X59125619Y32235036D01*
X59125619Y32235036D02*
X58838477Y31485036D01*
X56525381Y28935036D02*
X56142524Y28935036D01*
X56333952Y28935036D02*
X56333952Y29685036D01*
X56333952Y29685036D02*
X56270143Y29577893D01*
X56270143Y29577893D02*
X56206333Y29506465D01*
X56206333Y29506465D02*
X56142524Y29470750D01*
X57131571Y29685036D02*
X56812523Y29685036D01*
X56812523Y29685036D02*
X56780619Y29327893D01*
X56780619Y29327893D02*
X56812523Y29363608D01*
X56812523Y29363608D02*
X56876333Y29399322D01*
X56876333Y29399322D02*
X57035857Y29399322D01*
X57035857Y29399322D02*
X57099666Y29363608D01*
X57099666Y29363608D02*
X57131571Y29327893D01*
X57131571Y29327893D02*
X57163476Y29256465D01*
X57163476Y29256465D02*
X57163476Y29077893D01*
X57163476Y29077893D02*
X57131571Y29006465D01*
X57131571Y29006465D02*
X57099666Y28970750D01*
X57099666Y28970750D02*
X57035857Y28935036D01*
X57035857Y28935036D02*
X56876333Y28935036D01*
X56876333Y28935036D02*
X56812523Y28970750D01*
X56812523Y28970750D02*
X56780619Y29006465D01*
X57929190Y29720750D02*
X57354904Y28756465D01*
X58375857Y29327893D02*
X58471571Y29292179D01*
X58471571Y29292179D02*
X58503476Y29256465D01*
X58503476Y29256465D02*
X58535380Y29185036D01*
X58535380Y29185036D02*
X58535380Y29077893D01*
X58535380Y29077893D02*
X58503476Y29006465D01*
X58503476Y29006465D02*
X58471571Y28970750D01*
X58471571Y28970750D02*
X58407761Y28935036D01*
X58407761Y28935036D02*
X58152523Y28935036D01*
X58152523Y28935036D02*
X58152523Y29685036D01*
X58152523Y29685036D02*
X58375857Y29685036D01*
X58375857Y29685036D02*
X58439666Y29649322D01*
X58439666Y29649322D02*
X58471571Y29613608D01*
X58471571Y29613608D02*
X58503476Y29542179D01*
X58503476Y29542179D02*
X58503476Y29470750D01*
X58503476Y29470750D02*
X58471571Y29399322D01*
X58471571Y29399322D02*
X58439666Y29363608D01*
X58439666Y29363608D02*
X58375857Y29327893D01*
X58375857Y29327893D02*
X58152523Y29327893D01*
X59173476Y28935036D02*
X58790619Y28935036D01*
X58982047Y28935036D02*
X58982047Y29685036D01*
X58982047Y29685036D02*
X58918238Y29577893D01*
X58918238Y29577893D02*
X58854428Y29506465D01*
X58854428Y29506465D02*
X58790619Y29470750D01*
X56525381Y26385036D02*
X56142524Y26385036D01*
X56333952Y26385036D02*
X56333952Y27135036D01*
X56333952Y27135036D02*
X56270143Y27027893D01*
X56270143Y27027893D02*
X56206333Y26956465D01*
X56206333Y26956465D02*
X56142524Y26920750D01*
X57099666Y26885036D02*
X57099666Y26385036D01*
X56940142Y27170750D02*
X56780619Y26635036D01*
X56780619Y26635036D02*
X57195380Y26635036D01*
X57929190Y27170750D02*
X57354904Y26206465D01*
X58375857Y26777893D02*
X58471571Y26742179D01*
X58471571Y26742179D02*
X58503476Y26706465D01*
X58503476Y26706465D02*
X58535380Y26635036D01*
X58535380Y26635036D02*
X58535380Y26527893D01*
X58535380Y26527893D02*
X58503476Y26456465D01*
X58503476Y26456465D02*
X58471571Y26420750D01*
X58471571Y26420750D02*
X58407761Y26385036D01*
X58407761Y26385036D02*
X58152523Y26385036D01*
X58152523Y26385036D02*
X58152523Y27135036D01*
X58152523Y27135036D02*
X58375857Y27135036D01*
X58375857Y27135036D02*
X58439666Y27099322D01*
X58439666Y27099322D02*
X58471571Y27063608D01*
X58471571Y27063608D02*
X58503476Y26992179D01*
X58503476Y26992179D02*
X58503476Y26920750D01*
X58503476Y26920750D02*
X58471571Y26849322D01*
X58471571Y26849322D02*
X58439666Y26813608D01*
X58439666Y26813608D02*
X58375857Y26777893D01*
X58375857Y26777893D02*
X58152523Y26777893D01*
X58758714Y27135036D02*
X59173476Y27135036D01*
X59173476Y27135036D02*
X58950142Y26849322D01*
X58950142Y26849322D02*
X59045857Y26849322D01*
X59045857Y26849322D02*
X59109666Y26813608D01*
X59109666Y26813608D02*
X59141571Y26777893D01*
X59141571Y26777893D02*
X59173476Y26706465D01*
X59173476Y26706465D02*
X59173476Y26527893D01*
X59173476Y26527893D02*
X59141571Y26456465D01*
X59141571Y26456465D02*
X59109666Y26420750D01*
X59109666Y26420750D02*
X59045857Y26385036D01*
X59045857Y26385036D02*
X58854428Y26385036D01*
X58854428Y26385036D02*
X58790619Y26420750D01*
X58790619Y26420750D02*
X58758714Y26456465D01*
X56525381Y21335036D02*
X56142524Y21335036D01*
X56333952Y21335036D02*
X56333952Y22085036D01*
X56333952Y22085036D02*
X56270143Y21977893D01*
X56270143Y21977893D02*
X56206333Y21906465D01*
X56206333Y21906465D02*
X56142524Y21870750D01*
X56940142Y22085036D02*
X57003952Y22085036D01*
X57003952Y22085036D02*
X57067761Y22049322D01*
X57067761Y22049322D02*
X57099666Y22013608D01*
X57099666Y22013608D02*
X57131571Y21942179D01*
X57131571Y21942179D02*
X57163476Y21799322D01*
X57163476Y21799322D02*
X57163476Y21620750D01*
X57163476Y21620750D02*
X57131571Y21477893D01*
X57131571Y21477893D02*
X57099666Y21406465D01*
X57099666Y21406465D02*
X57067761Y21370750D01*
X57067761Y21370750D02*
X57003952Y21335036D01*
X57003952Y21335036D02*
X56940142Y21335036D01*
X56940142Y21335036D02*
X56876333Y21370750D01*
X56876333Y21370750D02*
X56844428Y21406465D01*
X56844428Y21406465D02*
X56812523Y21477893D01*
X56812523Y21477893D02*
X56780619Y21620750D01*
X56780619Y21620750D02*
X56780619Y21799322D01*
X56780619Y21799322D02*
X56812523Y21942179D01*
X56812523Y21942179D02*
X56844428Y22013608D01*
X56844428Y22013608D02*
X56876333Y22049322D01*
X56876333Y22049322D02*
X56940142Y22085036D01*
X57929190Y22120750D02*
X57354904Y21156465D01*
X58375857Y21727893D02*
X58471571Y21692179D01*
X58471571Y21692179D02*
X58503476Y21656465D01*
X58503476Y21656465D02*
X58535380Y21585036D01*
X58535380Y21585036D02*
X58535380Y21477893D01*
X58535380Y21477893D02*
X58503476Y21406465D01*
X58503476Y21406465D02*
X58471571Y21370750D01*
X58471571Y21370750D02*
X58407761Y21335036D01*
X58407761Y21335036D02*
X58152523Y21335036D01*
X58152523Y21335036D02*
X58152523Y22085036D01*
X58152523Y22085036D02*
X58375857Y22085036D01*
X58375857Y22085036D02*
X58439666Y22049322D01*
X58439666Y22049322D02*
X58471571Y22013608D01*
X58471571Y22013608D02*
X58503476Y21942179D01*
X58503476Y21942179D02*
X58503476Y21870750D01*
X58503476Y21870750D02*
X58471571Y21799322D01*
X58471571Y21799322D02*
X58439666Y21763608D01*
X58439666Y21763608D02*
X58375857Y21727893D01*
X58375857Y21727893D02*
X58152523Y21727893D01*
X59109666Y22085036D02*
X58982047Y22085036D01*
X58982047Y22085036D02*
X58918238Y22049322D01*
X58918238Y22049322D02*
X58886333Y22013608D01*
X58886333Y22013608D02*
X58822523Y21906465D01*
X58822523Y21906465D02*
X58790619Y21763608D01*
X58790619Y21763608D02*
X58790619Y21477893D01*
X58790619Y21477893D02*
X58822523Y21406465D01*
X58822523Y21406465D02*
X58854428Y21370750D01*
X58854428Y21370750D02*
X58918238Y21335036D01*
X58918238Y21335036D02*
X59045857Y21335036D01*
X59045857Y21335036D02*
X59109666Y21370750D01*
X59109666Y21370750D02*
X59141571Y21406465D01*
X59141571Y21406465D02*
X59173476Y21477893D01*
X59173476Y21477893D02*
X59173476Y21656465D01*
X59173476Y21656465D02*
X59141571Y21727893D01*
X59141571Y21727893D02*
X59109666Y21763608D01*
X59109666Y21763608D02*
X59045857Y21799322D01*
X59045857Y21799322D02*
X58918238Y21799322D01*
X58918238Y21799322D02*
X58854428Y21763608D01*
X58854428Y21763608D02*
X58822523Y21727893D01*
X58822523Y21727893D02*
X58790619Y21656465D01*
X56525381Y23835036D02*
X56142524Y23835036D01*
X56333952Y23835036D02*
X56333952Y24585036D01*
X56333952Y24585036D02*
X56270143Y24477893D01*
X56270143Y24477893D02*
X56206333Y24406465D01*
X56206333Y24406465D02*
X56142524Y24370750D01*
X57099666Y24585036D02*
X56972047Y24585036D01*
X56972047Y24585036D02*
X56908238Y24549322D01*
X56908238Y24549322D02*
X56876333Y24513608D01*
X56876333Y24513608D02*
X56812523Y24406465D01*
X56812523Y24406465D02*
X56780619Y24263608D01*
X56780619Y24263608D02*
X56780619Y23977893D01*
X56780619Y23977893D02*
X56812523Y23906465D01*
X56812523Y23906465D02*
X56844428Y23870750D01*
X56844428Y23870750D02*
X56908238Y23835036D01*
X56908238Y23835036D02*
X57035857Y23835036D01*
X57035857Y23835036D02*
X57099666Y23870750D01*
X57099666Y23870750D02*
X57131571Y23906465D01*
X57131571Y23906465D02*
X57163476Y23977893D01*
X57163476Y23977893D02*
X57163476Y24156465D01*
X57163476Y24156465D02*
X57131571Y24227893D01*
X57131571Y24227893D02*
X57099666Y24263608D01*
X57099666Y24263608D02*
X57035857Y24299322D01*
X57035857Y24299322D02*
X56908238Y24299322D01*
X56908238Y24299322D02*
X56844428Y24263608D01*
X56844428Y24263608D02*
X56812523Y24227893D01*
X56812523Y24227893D02*
X56780619Y24156465D01*
X57929190Y24620750D02*
X57354904Y23656465D01*
X58375857Y24227893D02*
X58471571Y24192179D01*
X58471571Y24192179D02*
X58503476Y24156465D01*
X58503476Y24156465D02*
X58535380Y24085036D01*
X58535380Y24085036D02*
X58535380Y23977893D01*
X58535380Y23977893D02*
X58503476Y23906465D01*
X58503476Y23906465D02*
X58471571Y23870750D01*
X58471571Y23870750D02*
X58407761Y23835036D01*
X58407761Y23835036D02*
X58152523Y23835036D01*
X58152523Y23835036D02*
X58152523Y24585036D01*
X58152523Y24585036D02*
X58375857Y24585036D01*
X58375857Y24585036D02*
X58439666Y24549322D01*
X58439666Y24549322D02*
X58471571Y24513608D01*
X58471571Y24513608D02*
X58503476Y24442179D01*
X58503476Y24442179D02*
X58503476Y24370750D01*
X58503476Y24370750D02*
X58471571Y24299322D01*
X58471571Y24299322D02*
X58439666Y24263608D01*
X58439666Y24263608D02*
X58375857Y24227893D01*
X58375857Y24227893D02*
X58152523Y24227893D01*
X58790619Y24513608D02*
X58822523Y24549322D01*
X58822523Y24549322D02*
X58886333Y24585036D01*
X58886333Y24585036D02*
X59045857Y24585036D01*
X59045857Y24585036D02*
X59109666Y24549322D01*
X59109666Y24549322D02*
X59141571Y24513608D01*
X59141571Y24513608D02*
X59173476Y24442179D01*
X59173476Y24442179D02*
X59173476Y24370750D01*
X59173476Y24370750D02*
X59141571Y24263608D01*
X59141571Y24263608D02*
X58758714Y23835036D01*
X58758714Y23835036D02*
X59173476Y23835036D01*
X65625381Y26927893D02*
X65848715Y26927893D01*
X65944429Y26535036D02*
X65625381Y26535036D01*
X65625381Y26535036D02*
X65625381Y27285036D01*
X65625381Y27285036D02*
X65944429Y27285036D01*
X66518714Y27285036D02*
X66391095Y27285036D01*
X66391095Y27285036D02*
X66327286Y27249322D01*
X66327286Y27249322D02*
X66295381Y27213608D01*
X66295381Y27213608D02*
X66231571Y27106465D01*
X66231571Y27106465D02*
X66199667Y26963608D01*
X66199667Y26963608D02*
X66199667Y26677893D01*
X66199667Y26677893D02*
X66231571Y26606465D01*
X66231571Y26606465D02*
X66263476Y26570750D01*
X66263476Y26570750D02*
X66327286Y26535036D01*
X66327286Y26535036D02*
X66454905Y26535036D01*
X66454905Y26535036D02*
X66518714Y26570750D01*
X66518714Y26570750D02*
X66550619Y26606465D01*
X66550619Y26606465D02*
X66582524Y26677893D01*
X66582524Y26677893D02*
X66582524Y26856465D01*
X66582524Y26856465D02*
X66550619Y26927893D01*
X66550619Y26927893D02*
X66518714Y26963608D01*
X66518714Y26963608D02*
X66454905Y26999322D01*
X66454905Y26999322D02*
X66327286Y26999322D01*
X66327286Y26999322D02*
X66263476Y26963608D01*
X66263476Y26963608D02*
X66231571Y26927893D01*
X66231571Y26927893D02*
X66199667Y26856465D01*
X67348238Y27320750D02*
X66773952Y26356465D01*
X67507762Y27285036D02*
X67954428Y27285036D01*
X67954428Y27285036D02*
X67667286Y26535036D01*
X65593476Y29085036D02*
X65593476Y29835036D01*
X65593476Y29835036D02*
X65753000Y29835036D01*
X65753000Y29835036D02*
X65848714Y29799322D01*
X65848714Y29799322D02*
X65912524Y29727893D01*
X65912524Y29727893D02*
X65944429Y29656465D01*
X65944429Y29656465D02*
X65976333Y29513608D01*
X65976333Y29513608D02*
X65976333Y29406465D01*
X65976333Y29406465D02*
X65944429Y29263608D01*
X65944429Y29263608D02*
X65912524Y29192179D01*
X65912524Y29192179D02*
X65848714Y29120750D01*
X65848714Y29120750D02*
X65753000Y29085036D01*
X65753000Y29085036D02*
X65593476Y29085036D01*
X66199667Y29835036D02*
X66646333Y29835036D01*
X66646333Y29835036D02*
X66359191Y29085036D01*
X67380143Y29870750D02*
X66805857Y28906465D01*
X67890619Y29835036D02*
X67763000Y29835036D01*
X67763000Y29835036D02*
X67699191Y29799322D01*
X67699191Y29799322D02*
X67667286Y29763608D01*
X67667286Y29763608D02*
X67603476Y29656465D01*
X67603476Y29656465D02*
X67571572Y29513608D01*
X67571572Y29513608D02*
X67571572Y29227893D01*
X67571572Y29227893D02*
X67603476Y29156465D01*
X67603476Y29156465D02*
X67635381Y29120750D01*
X67635381Y29120750D02*
X67699191Y29085036D01*
X67699191Y29085036D02*
X67826810Y29085036D01*
X67826810Y29085036D02*
X67890619Y29120750D01*
X67890619Y29120750D02*
X67922524Y29156465D01*
X67922524Y29156465D02*
X67954429Y29227893D01*
X67954429Y29227893D02*
X67954429Y29406465D01*
X67954429Y29406465D02*
X67922524Y29477893D01*
X67922524Y29477893D02*
X67890619Y29513608D01*
X67890619Y29513608D02*
X67826810Y29549322D01*
X67826810Y29549322D02*
X67699191Y29549322D01*
X67699191Y29549322D02*
X67635381Y29513608D01*
X67635381Y29513608D02*
X67603476Y29477893D01*
X67603476Y29477893D02*
X67571572Y29406465D01*
X66497524Y44849322D02*
X66433714Y44885036D01*
X66433714Y44885036D02*
X66338000Y44885036D01*
X66338000Y44885036D02*
X66242286Y44849322D01*
X66242286Y44849322D02*
X66178476Y44777893D01*
X66178476Y44777893D02*
X66146571Y44706465D01*
X66146571Y44706465D02*
X66114667Y44563608D01*
X66114667Y44563608D02*
X66114667Y44456465D01*
X66114667Y44456465D02*
X66146571Y44313608D01*
X66146571Y44313608D02*
X66178476Y44242179D01*
X66178476Y44242179D02*
X66242286Y44170750D01*
X66242286Y44170750D02*
X66338000Y44135036D01*
X66338000Y44135036D02*
X66401809Y44135036D01*
X66401809Y44135036D02*
X66497524Y44170750D01*
X66497524Y44170750D02*
X66529428Y44206465D01*
X66529428Y44206465D02*
X66529428Y44456465D01*
X66529428Y44456465D02*
X66401809Y44456465D01*
X66816571Y44135036D02*
X66816571Y44885036D01*
X66816571Y44885036D02*
X67199428Y44135036D01*
X67199428Y44135036D02*
X67199428Y44885036D01*
X67518476Y44135036D02*
X67518476Y44885036D01*
X67518476Y44885036D02*
X67678000Y44885036D01*
X67678000Y44885036D02*
X67773714Y44849322D01*
X67773714Y44849322D02*
X67837524Y44777893D01*
X67837524Y44777893D02*
X67869429Y44706465D01*
X67869429Y44706465D02*
X67901333Y44563608D01*
X67901333Y44563608D02*
X67901333Y44456465D01*
X67901333Y44456465D02*
X67869429Y44313608D01*
X67869429Y44313608D02*
X67837524Y44242179D01*
X67837524Y44242179D02*
X67773714Y44170750D01*
X67773714Y44170750D02*
X67678000Y44135036D01*
X67678000Y44135036D02*
X67518476Y44135036D01*
X66497524Y42399322D02*
X66433714Y42435036D01*
X66433714Y42435036D02*
X66338000Y42435036D01*
X66338000Y42435036D02*
X66242286Y42399322D01*
X66242286Y42399322D02*
X66178476Y42327893D01*
X66178476Y42327893D02*
X66146571Y42256465D01*
X66146571Y42256465D02*
X66114667Y42113608D01*
X66114667Y42113608D02*
X66114667Y42006465D01*
X66114667Y42006465D02*
X66146571Y41863608D01*
X66146571Y41863608D02*
X66178476Y41792179D01*
X66178476Y41792179D02*
X66242286Y41720750D01*
X66242286Y41720750D02*
X66338000Y41685036D01*
X66338000Y41685036D02*
X66401809Y41685036D01*
X66401809Y41685036D02*
X66497524Y41720750D01*
X66497524Y41720750D02*
X66529428Y41756465D01*
X66529428Y41756465D02*
X66529428Y42006465D01*
X66529428Y42006465D02*
X66401809Y42006465D01*
X66816571Y41685036D02*
X66816571Y42435036D01*
X66816571Y42435036D02*
X67199428Y41685036D01*
X67199428Y41685036D02*
X67199428Y42435036D01*
X67518476Y41685036D02*
X67518476Y42435036D01*
X67518476Y42435036D02*
X67678000Y42435036D01*
X67678000Y42435036D02*
X67773714Y42399322D01*
X67773714Y42399322D02*
X67837524Y42327893D01*
X67837524Y42327893D02*
X67869429Y42256465D01*
X67869429Y42256465D02*
X67901333Y42113608D01*
X67901333Y42113608D02*
X67901333Y42006465D01*
X67901333Y42006465D02*
X67869429Y41863608D01*
X67869429Y41863608D02*
X67837524Y41792179D01*
X67837524Y41792179D02*
X67773714Y41720750D01*
X67773714Y41720750D02*
X67678000Y41685036D01*
X67678000Y41685036D02*
X67518476Y41685036D01*
X64469190Y49235036D02*
X64469190Y49985036D01*
X64469190Y49985036D02*
X64628714Y49985036D01*
X64628714Y49985036D02*
X64724428Y49949322D01*
X64724428Y49949322D02*
X64788238Y49877893D01*
X64788238Y49877893D02*
X64820143Y49806465D01*
X64820143Y49806465D02*
X64852047Y49663608D01*
X64852047Y49663608D02*
X64852047Y49556465D01*
X64852047Y49556465D02*
X64820143Y49413608D01*
X64820143Y49413608D02*
X64788238Y49342179D01*
X64788238Y49342179D02*
X64724428Y49270750D01*
X64724428Y49270750D02*
X64628714Y49235036D01*
X64628714Y49235036D02*
X64469190Y49235036D01*
X65075381Y49985036D02*
X65490143Y49985036D01*
X65490143Y49985036D02*
X65266809Y49699322D01*
X65266809Y49699322D02*
X65362524Y49699322D01*
X65362524Y49699322D02*
X65426333Y49663608D01*
X65426333Y49663608D02*
X65458238Y49627893D01*
X65458238Y49627893D02*
X65490143Y49556465D01*
X65490143Y49556465D02*
X65490143Y49377893D01*
X65490143Y49377893D02*
X65458238Y49306465D01*
X65458238Y49306465D02*
X65426333Y49270750D01*
X65426333Y49270750D02*
X65362524Y49235036D01*
X65362524Y49235036D02*
X65171095Y49235036D01*
X65171095Y49235036D02*
X65107286Y49270750D01*
X65107286Y49270750D02*
X65075381Y49306465D01*
X66255857Y50020750D02*
X65681571Y49056465D01*
X66383476Y49985036D02*
X66766333Y49985036D01*
X66574905Y49235036D02*
X66574905Y49985036D01*
X66925857Y49985036D02*
X67372523Y49235036D01*
X67372523Y49985036D02*
X66925857Y49235036D01*
X67755380Y49985036D02*
X67819190Y49985036D01*
X67819190Y49985036D02*
X67882999Y49949322D01*
X67882999Y49949322D02*
X67914904Y49913608D01*
X67914904Y49913608D02*
X67946809Y49842179D01*
X67946809Y49842179D02*
X67978714Y49699322D01*
X67978714Y49699322D02*
X67978714Y49520750D01*
X67978714Y49520750D02*
X67946809Y49377893D01*
X67946809Y49377893D02*
X67914904Y49306465D01*
X67914904Y49306465D02*
X67882999Y49270750D01*
X67882999Y49270750D02*
X67819190Y49235036D01*
X67819190Y49235036D02*
X67755380Y49235036D01*
X67755380Y49235036D02*
X67691571Y49270750D01*
X67691571Y49270750D02*
X67659666Y49306465D01*
X67659666Y49306465D02*
X67627761Y49377893D01*
X67627761Y49377893D02*
X67595857Y49520750D01*
X67595857Y49520750D02*
X67595857Y49699322D01*
X67595857Y49699322D02*
X67627761Y49842179D01*
X67627761Y49842179D02*
X67659666Y49913608D01*
X67659666Y49913608D02*
X67691571Y49949322D01*
X67691571Y49949322D02*
X67755380Y49985036D01*
X65593476Y34185036D02*
X65593476Y34935036D01*
X65593476Y34935036D02*
X65753000Y34935036D01*
X65753000Y34935036D02*
X65848714Y34899322D01*
X65848714Y34899322D02*
X65912524Y34827893D01*
X65912524Y34827893D02*
X65944429Y34756465D01*
X65944429Y34756465D02*
X65976333Y34613608D01*
X65976333Y34613608D02*
X65976333Y34506465D01*
X65976333Y34506465D02*
X65944429Y34363608D01*
X65944429Y34363608D02*
X65912524Y34292179D01*
X65912524Y34292179D02*
X65848714Y34220750D01*
X65848714Y34220750D02*
X65753000Y34185036D01*
X65753000Y34185036D02*
X65593476Y34185036D01*
X66550619Y34685036D02*
X66550619Y34185036D01*
X66391095Y34970750D02*
X66231572Y34435036D01*
X66231572Y34435036D02*
X66646333Y34435036D01*
X67380143Y34970750D02*
X66805857Y34006465D01*
X67890619Y34685036D02*
X67890619Y34185036D01*
X67731095Y34970750D02*
X67571572Y34435036D01*
X67571572Y34435036D02*
X67986333Y34435036D01*
X63019429Y39220750D02*
X63115143Y39185036D01*
X63115143Y39185036D02*
X63274667Y39185036D01*
X63274667Y39185036D02*
X63338476Y39220750D01*
X63338476Y39220750D02*
X63370381Y39256465D01*
X63370381Y39256465D02*
X63402286Y39327893D01*
X63402286Y39327893D02*
X63402286Y39399322D01*
X63402286Y39399322D02*
X63370381Y39470750D01*
X63370381Y39470750D02*
X63338476Y39506465D01*
X63338476Y39506465D02*
X63274667Y39542179D01*
X63274667Y39542179D02*
X63147048Y39577893D01*
X63147048Y39577893D02*
X63083238Y39613608D01*
X63083238Y39613608D02*
X63051333Y39649322D01*
X63051333Y39649322D02*
X63019429Y39720750D01*
X63019429Y39720750D02*
X63019429Y39792179D01*
X63019429Y39792179D02*
X63051333Y39863608D01*
X63051333Y39863608D02*
X63083238Y39899322D01*
X63083238Y39899322D02*
X63147048Y39935036D01*
X63147048Y39935036D02*
X63306571Y39935036D01*
X63306571Y39935036D02*
X63402286Y39899322D01*
X63689428Y39185036D02*
X63689428Y39935036D01*
X63689428Y39935036D02*
X63848952Y39935036D01*
X63848952Y39935036D02*
X63944666Y39899322D01*
X63944666Y39899322D02*
X64008476Y39827893D01*
X64008476Y39827893D02*
X64040381Y39756465D01*
X64040381Y39756465D02*
X64072285Y39613608D01*
X64072285Y39613608D02*
X64072285Y39506465D01*
X64072285Y39506465D02*
X64040381Y39363608D01*
X64040381Y39363608D02*
X64008476Y39292179D01*
X64008476Y39292179D02*
X63944666Y39220750D01*
X63944666Y39220750D02*
X63848952Y39185036D01*
X63848952Y39185036D02*
X63689428Y39185036D01*
X64327524Y39399322D02*
X64646571Y39399322D01*
X64263714Y39185036D02*
X64487047Y39935036D01*
X64487047Y39935036D02*
X64710381Y39185036D01*
X65412286Y39970750D02*
X64838000Y39006465D01*
X65635619Y39185036D02*
X65635619Y39935036D01*
X65635619Y39935036D02*
X65795143Y39935036D01*
X65795143Y39935036D02*
X65890857Y39899322D01*
X65890857Y39899322D02*
X65954667Y39827893D01*
X65954667Y39827893D02*
X65986572Y39756465D01*
X65986572Y39756465D02*
X66018476Y39613608D01*
X66018476Y39613608D02*
X66018476Y39506465D01*
X66018476Y39506465D02*
X65986572Y39363608D01*
X65986572Y39363608D02*
X65954667Y39292179D01*
X65954667Y39292179D02*
X65890857Y39220750D01*
X65890857Y39220750D02*
X65795143Y39185036D01*
X65795143Y39185036D02*
X65635619Y39185036D01*
X66656572Y39185036D02*
X66273715Y39185036D01*
X66465143Y39185036D02*
X66465143Y39935036D01*
X66465143Y39935036D02*
X66401334Y39827893D01*
X66401334Y39827893D02*
X66337524Y39756465D01*
X66337524Y39756465D02*
X66273715Y39720750D01*
X67422286Y39970750D02*
X66848000Y39006465D01*
X67613715Y39863608D02*
X67645619Y39899322D01*
X67645619Y39899322D02*
X67709429Y39935036D01*
X67709429Y39935036D02*
X67868953Y39935036D01*
X67868953Y39935036D02*
X67932762Y39899322D01*
X67932762Y39899322D02*
X67964667Y39863608D01*
X67964667Y39863608D02*
X67996572Y39792179D01*
X67996572Y39792179D02*
X67996572Y39720750D01*
X67996572Y39720750D02*
X67964667Y39613608D01*
X67964667Y39613608D02*
X67581810Y39185036D01*
X67581810Y39185036D02*
X67996572Y39185036D01*
X63035381Y36720750D02*
X63131095Y36685036D01*
X63131095Y36685036D02*
X63290619Y36685036D01*
X63290619Y36685036D02*
X63354428Y36720750D01*
X63354428Y36720750D02*
X63386333Y36756465D01*
X63386333Y36756465D02*
X63418238Y36827893D01*
X63418238Y36827893D02*
X63418238Y36899322D01*
X63418238Y36899322D02*
X63386333Y36970750D01*
X63386333Y36970750D02*
X63354428Y37006465D01*
X63354428Y37006465D02*
X63290619Y37042179D01*
X63290619Y37042179D02*
X63163000Y37077893D01*
X63163000Y37077893D02*
X63099190Y37113608D01*
X63099190Y37113608D02*
X63067285Y37149322D01*
X63067285Y37149322D02*
X63035381Y37220750D01*
X63035381Y37220750D02*
X63035381Y37292179D01*
X63035381Y37292179D02*
X63067285Y37363608D01*
X63067285Y37363608D02*
X63099190Y37399322D01*
X63099190Y37399322D02*
X63163000Y37435036D01*
X63163000Y37435036D02*
X63322523Y37435036D01*
X63322523Y37435036D02*
X63418238Y37399322D01*
X64088237Y36756465D02*
X64056333Y36720750D01*
X64056333Y36720750D02*
X63960618Y36685036D01*
X63960618Y36685036D02*
X63896809Y36685036D01*
X63896809Y36685036D02*
X63801095Y36720750D01*
X63801095Y36720750D02*
X63737285Y36792179D01*
X63737285Y36792179D02*
X63705380Y36863608D01*
X63705380Y36863608D02*
X63673476Y37006465D01*
X63673476Y37006465D02*
X63673476Y37113608D01*
X63673476Y37113608D02*
X63705380Y37256465D01*
X63705380Y37256465D02*
X63737285Y37327893D01*
X63737285Y37327893D02*
X63801095Y37399322D01*
X63801095Y37399322D02*
X63896809Y37435036D01*
X63896809Y37435036D02*
X63960618Y37435036D01*
X63960618Y37435036D02*
X64056333Y37399322D01*
X64056333Y37399322D02*
X64088237Y37363608D01*
X64694428Y36685036D02*
X64375380Y36685036D01*
X64375380Y36685036D02*
X64375380Y37435036D01*
X65396333Y37470750D02*
X64822047Y36506465D01*
X65619666Y36685036D02*
X65619666Y37435036D01*
X65619666Y37435036D02*
X65779190Y37435036D01*
X65779190Y37435036D02*
X65874904Y37399322D01*
X65874904Y37399322D02*
X65938714Y37327893D01*
X65938714Y37327893D02*
X65970619Y37256465D01*
X65970619Y37256465D02*
X66002523Y37113608D01*
X66002523Y37113608D02*
X66002523Y37006465D01*
X66002523Y37006465D02*
X65970619Y36863608D01*
X65970619Y36863608D02*
X65938714Y36792179D01*
X65938714Y36792179D02*
X65874904Y36720750D01*
X65874904Y36720750D02*
X65779190Y36685036D01*
X65779190Y36685036D02*
X65619666Y36685036D01*
X66417285Y37435036D02*
X66481095Y37435036D01*
X66481095Y37435036D02*
X66544904Y37399322D01*
X66544904Y37399322D02*
X66576809Y37363608D01*
X66576809Y37363608D02*
X66608714Y37292179D01*
X66608714Y37292179D02*
X66640619Y37149322D01*
X66640619Y37149322D02*
X66640619Y36970750D01*
X66640619Y36970750D02*
X66608714Y36827893D01*
X66608714Y36827893D02*
X66576809Y36756465D01*
X66576809Y36756465D02*
X66544904Y36720750D01*
X66544904Y36720750D02*
X66481095Y36685036D01*
X66481095Y36685036D02*
X66417285Y36685036D01*
X66417285Y36685036D02*
X66353476Y36720750D01*
X66353476Y36720750D02*
X66321571Y36756465D01*
X66321571Y36756465D02*
X66289666Y36827893D01*
X66289666Y36827893D02*
X66257762Y36970750D01*
X66257762Y36970750D02*
X66257762Y37149322D01*
X66257762Y37149322D02*
X66289666Y37292179D01*
X66289666Y37292179D02*
X66321571Y37363608D01*
X66321571Y37363608D02*
X66353476Y37399322D01*
X66353476Y37399322D02*
X66417285Y37435036D01*
X67406333Y37470750D02*
X66832047Y36506465D01*
X67565857Y37435036D02*
X67980619Y37435036D01*
X67980619Y37435036D02*
X67757285Y37149322D01*
X67757285Y37149322D02*
X67853000Y37149322D01*
X67853000Y37149322D02*
X67916809Y37113608D01*
X67916809Y37113608D02*
X67948714Y37077893D01*
X67948714Y37077893D02*
X67980619Y37006465D01*
X67980619Y37006465D02*
X67980619Y36827893D01*
X67980619Y36827893D02*
X67948714Y36756465D01*
X67948714Y36756465D02*
X67916809Y36720750D01*
X67916809Y36720750D02*
X67853000Y36685036D01*
X67853000Y36685036D02*
X67661571Y36685036D01*
X67661571Y36685036D02*
X67597762Y36720750D01*
X67597762Y36720750D02*
X67565857Y36756465D01*
X65976333Y31706465D02*
X65944429Y31670750D01*
X65944429Y31670750D02*
X65848714Y31635036D01*
X65848714Y31635036D02*
X65784905Y31635036D01*
X65784905Y31635036D02*
X65689191Y31670750D01*
X65689191Y31670750D02*
X65625381Y31742179D01*
X65625381Y31742179D02*
X65593476Y31813608D01*
X65593476Y31813608D02*
X65561572Y31956465D01*
X65561572Y31956465D02*
X65561572Y32063608D01*
X65561572Y32063608D02*
X65593476Y32206465D01*
X65593476Y32206465D02*
X65625381Y32277893D01*
X65625381Y32277893D02*
X65689191Y32349322D01*
X65689191Y32349322D02*
X65784905Y32385036D01*
X65784905Y32385036D02*
X65848714Y32385036D01*
X65848714Y32385036D02*
X65944429Y32349322D01*
X65944429Y32349322D02*
X65976333Y32313608D01*
X66550619Y32385036D02*
X66423000Y32385036D01*
X66423000Y32385036D02*
X66359191Y32349322D01*
X66359191Y32349322D02*
X66327286Y32313608D01*
X66327286Y32313608D02*
X66263476Y32206465D01*
X66263476Y32206465D02*
X66231572Y32063608D01*
X66231572Y32063608D02*
X66231572Y31777893D01*
X66231572Y31777893D02*
X66263476Y31706465D01*
X66263476Y31706465D02*
X66295381Y31670750D01*
X66295381Y31670750D02*
X66359191Y31635036D01*
X66359191Y31635036D02*
X66486810Y31635036D01*
X66486810Y31635036D02*
X66550619Y31670750D01*
X66550619Y31670750D02*
X66582524Y31706465D01*
X66582524Y31706465D02*
X66614429Y31777893D01*
X66614429Y31777893D02*
X66614429Y31956465D01*
X66614429Y31956465D02*
X66582524Y32027893D01*
X66582524Y32027893D02*
X66550619Y32063608D01*
X66550619Y32063608D02*
X66486810Y32099322D01*
X66486810Y32099322D02*
X66359191Y32099322D01*
X66359191Y32099322D02*
X66295381Y32063608D01*
X66295381Y32063608D02*
X66263476Y32027893D01*
X66263476Y32027893D02*
X66231572Y31956465D01*
X67380143Y32420750D02*
X66805857Y31456465D01*
X67922524Y32385036D02*
X67603476Y32385036D01*
X67603476Y32385036D02*
X67571572Y32027893D01*
X67571572Y32027893D02*
X67603476Y32063608D01*
X67603476Y32063608D02*
X67667286Y32099322D01*
X67667286Y32099322D02*
X67826810Y32099322D01*
X67826810Y32099322D02*
X67890619Y32063608D01*
X67890619Y32063608D02*
X67922524Y32027893D01*
X67922524Y32027893D02*
X67954429Y31956465D01*
X67954429Y31956465D02*
X67954429Y31777893D01*
X67954429Y31777893D02*
X67922524Y31706465D01*
X67922524Y31706465D02*
X67890619Y31670750D01*
X67890619Y31670750D02*
X67826810Y31635036D01*
X67826810Y31635036D02*
X67667286Y31635036D01*
X67667286Y31635036D02*
X67603476Y31670750D01*
X67603476Y31670750D02*
X67571572Y31706465D01*
X65816810Y21877893D02*
X65912524Y21842179D01*
X65912524Y21842179D02*
X65944429Y21806465D01*
X65944429Y21806465D02*
X65976333Y21735036D01*
X65976333Y21735036D02*
X65976333Y21627893D01*
X65976333Y21627893D02*
X65944429Y21556465D01*
X65944429Y21556465D02*
X65912524Y21520750D01*
X65912524Y21520750D02*
X65848714Y21485036D01*
X65848714Y21485036D02*
X65593476Y21485036D01*
X65593476Y21485036D02*
X65593476Y22235036D01*
X65593476Y22235036D02*
X65816810Y22235036D01*
X65816810Y22235036D02*
X65880619Y22199322D01*
X65880619Y22199322D02*
X65912524Y22163608D01*
X65912524Y22163608D02*
X65944429Y22092179D01*
X65944429Y22092179D02*
X65944429Y22020750D01*
X65944429Y22020750D02*
X65912524Y21949322D01*
X65912524Y21949322D02*
X65880619Y21913608D01*
X65880619Y21913608D02*
X65816810Y21877893D01*
X65816810Y21877893D02*
X65593476Y21877893D01*
X66582524Y22235036D02*
X66263476Y22235036D01*
X66263476Y22235036D02*
X66231572Y21877893D01*
X66231572Y21877893D02*
X66263476Y21913608D01*
X66263476Y21913608D02*
X66327286Y21949322D01*
X66327286Y21949322D02*
X66486810Y21949322D01*
X66486810Y21949322D02*
X66550619Y21913608D01*
X66550619Y21913608D02*
X66582524Y21877893D01*
X66582524Y21877893D02*
X66614429Y21806465D01*
X66614429Y21806465D02*
X66614429Y21627893D01*
X66614429Y21627893D02*
X66582524Y21556465D01*
X66582524Y21556465D02*
X66550619Y21520750D01*
X66550619Y21520750D02*
X66486810Y21485036D01*
X66486810Y21485036D02*
X66327286Y21485036D01*
X66327286Y21485036D02*
X66263476Y21520750D01*
X66263476Y21520750D02*
X66231572Y21556465D01*
X67380143Y22270750D02*
X66805857Y21306465D01*
X67635381Y21485036D02*
X67763000Y21485036D01*
X67763000Y21485036D02*
X67826810Y21520750D01*
X67826810Y21520750D02*
X67858714Y21556465D01*
X67858714Y21556465D02*
X67922524Y21663608D01*
X67922524Y21663608D02*
X67954429Y21806465D01*
X67954429Y21806465D02*
X67954429Y22092179D01*
X67954429Y22092179D02*
X67922524Y22163608D01*
X67922524Y22163608D02*
X67890619Y22199322D01*
X67890619Y22199322D02*
X67826810Y22235036D01*
X67826810Y22235036D02*
X67699191Y22235036D01*
X67699191Y22235036D02*
X67635381Y22199322D01*
X67635381Y22199322D02*
X67603476Y22163608D01*
X67603476Y22163608D02*
X67571572Y22092179D01*
X67571572Y22092179D02*
X67571572Y21913608D01*
X67571572Y21913608D02*
X67603476Y21842179D01*
X67603476Y21842179D02*
X67635381Y21806465D01*
X67635381Y21806465D02*
X67699191Y21770750D01*
X67699191Y21770750D02*
X67826810Y21770750D01*
X67826810Y21770750D02*
X67890619Y21806465D01*
X67890619Y21806465D02*
X67922524Y21842179D01*
X67922524Y21842179D02*
X67954429Y21913608D01*
X64389428Y46685036D02*
X64389428Y47435036D01*
X64389428Y47435036D02*
X64548952Y47435036D01*
X64548952Y47435036D02*
X64644666Y47399322D01*
X64644666Y47399322D02*
X64708476Y47327893D01*
X64708476Y47327893D02*
X64740381Y47256465D01*
X64740381Y47256465D02*
X64772285Y47113608D01*
X64772285Y47113608D02*
X64772285Y47006465D01*
X64772285Y47006465D02*
X64740381Y46863608D01*
X64740381Y46863608D02*
X64708476Y46792179D01*
X64708476Y46792179D02*
X64644666Y46720750D01*
X64644666Y46720750D02*
X64548952Y46685036D01*
X64548952Y46685036D02*
X64389428Y46685036D01*
X65027524Y47363608D02*
X65059428Y47399322D01*
X65059428Y47399322D02*
X65123238Y47435036D01*
X65123238Y47435036D02*
X65282762Y47435036D01*
X65282762Y47435036D02*
X65346571Y47399322D01*
X65346571Y47399322D02*
X65378476Y47363608D01*
X65378476Y47363608D02*
X65410381Y47292179D01*
X65410381Y47292179D02*
X65410381Y47220750D01*
X65410381Y47220750D02*
X65378476Y47113608D01*
X65378476Y47113608D02*
X64995619Y46685036D01*
X64995619Y46685036D02*
X65410381Y46685036D01*
X66176095Y47470750D02*
X65601809Y46506465D01*
X66782285Y46685036D02*
X66558952Y47042179D01*
X66399428Y46685036D02*
X66399428Y47435036D01*
X66399428Y47435036D02*
X66654666Y47435036D01*
X66654666Y47435036D02*
X66718476Y47399322D01*
X66718476Y47399322D02*
X66750381Y47363608D01*
X66750381Y47363608D02*
X66782285Y47292179D01*
X66782285Y47292179D02*
X66782285Y47185036D01*
X66782285Y47185036D02*
X66750381Y47113608D01*
X66750381Y47113608D02*
X66718476Y47077893D01*
X66718476Y47077893D02*
X66654666Y47042179D01*
X66654666Y47042179D02*
X66399428Y47042179D01*
X67005619Y47435036D02*
X67452285Y46685036D01*
X67452285Y47435036D02*
X67005619Y46685036D01*
X68058476Y46685036D02*
X67675619Y46685036D01*
X67867047Y46685036D02*
X67867047Y47435036D01*
X67867047Y47435036D02*
X67803238Y47327893D01*
X67803238Y47327893D02*
X67739428Y47256465D01*
X67739428Y47256465D02*
X67675619Y47220750D01*
X65816810Y24377893D02*
X65912524Y24342179D01*
X65912524Y24342179D02*
X65944429Y24306465D01*
X65944429Y24306465D02*
X65976333Y24235036D01*
X65976333Y24235036D02*
X65976333Y24127893D01*
X65976333Y24127893D02*
X65944429Y24056465D01*
X65944429Y24056465D02*
X65912524Y24020750D01*
X65912524Y24020750D02*
X65848714Y23985036D01*
X65848714Y23985036D02*
X65593476Y23985036D01*
X65593476Y23985036D02*
X65593476Y24735036D01*
X65593476Y24735036D02*
X65816810Y24735036D01*
X65816810Y24735036D02*
X65880619Y24699322D01*
X65880619Y24699322D02*
X65912524Y24663608D01*
X65912524Y24663608D02*
X65944429Y24592179D01*
X65944429Y24592179D02*
X65944429Y24520750D01*
X65944429Y24520750D02*
X65912524Y24449322D01*
X65912524Y24449322D02*
X65880619Y24413608D01*
X65880619Y24413608D02*
X65816810Y24377893D01*
X65816810Y24377893D02*
X65593476Y24377893D01*
X66550619Y24485036D02*
X66550619Y23985036D01*
X66391095Y24770750D02*
X66231572Y24235036D01*
X66231572Y24235036D02*
X66646333Y24235036D01*
X67380143Y24770750D02*
X66805857Y23806465D01*
X67699191Y24413608D02*
X67635381Y24449322D01*
X67635381Y24449322D02*
X67603476Y24485036D01*
X67603476Y24485036D02*
X67571572Y24556465D01*
X67571572Y24556465D02*
X67571572Y24592179D01*
X67571572Y24592179D02*
X67603476Y24663608D01*
X67603476Y24663608D02*
X67635381Y24699322D01*
X67635381Y24699322D02*
X67699191Y24735036D01*
X67699191Y24735036D02*
X67826810Y24735036D01*
X67826810Y24735036D02*
X67890619Y24699322D01*
X67890619Y24699322D02*
X67922524Y24663608D01*
X67922524Y24663608D02*
X67954429Y24592179D01*
X67954429Y24592179D02*
X67954429Y24556465D01*
X67954429Y24556465D02*
X67922524Y24485036D01*
X67922524Y24485036D02*
X67890619Y24449322D01*
X67890619Y24449322D02*
X67826810Y24413608D01*
X67826810Y24413608D02*
X67699191Y24413608D01*
X67699191Y24413608D02*
X67635381Y24377893D01*
X67635381Y24377893D02*
X67603476Y24342179D01*
X67603476Y24342179D02*
X67571572Y24270750D01*
X67571572Y24270750D02*
X67571572Y24127893D01*
X67571572Y24127893D02*
X67603476Y24056465D01*
X67603476Y24056465D02*
X67635381Y24020750D01*
X67635381Y24020750D02*
X67699191Y23985036D01*
X67699191Y23985036D02*
X67826810Y23985036D01*
X67826810Y23985036D02*
X67890619Y24020750D01*
X67890619Y24020750D02*
X67922524Y24056465D01*
X67922524Y24056465D02*
X67954429Y24127893D01*
X67954429Y24127893D02*
X67954429Y24270750D01*
X67954429Y24270750D02*
X67922524Y24342179D01*
X67922524Y24342179D02*
X67890619Y24377893D01*
X67890619Y24377893D02*
X67826810Y24413608D01*
D12*
X59556571Y53734776D02*
X59556571Y54484776D01*
X59556571Y54484776D02*
X59806571Y53949062D01*
X59806571Y53949062D02*
X60056571Y54484776D01*
X60056571Y54484776D02*
X60056571Y53734776D01*
X60413714Y53734776D02*
X60413714Y54234776D01*
X60413714Y54484776D02*
X60378000Y54449062D01*
X60378000Y54449062D02*
X60413714Y54413348D01*
X60413714Y54413348D02*
X60449428Y54449062D01*
X60449428Y54449062D02*
X60413714Y54484776D01*
X60413714Y54484776D02*
X60413714Y54413348D01*
X61092286Y53770490D02*
X61020857Y53734776D01*
X61020857Y53734776D02*
X60878000Y53734776D01*
X60878000Y53734776D02*
X60806571Y53770490D01*
X60806571Y53770490D02*
X60770857Y53806205D01*
X60770857Y53806205D02*
X60735143Y53877633D01*
X60735143Y53877633D02*
X60735143Y54091919D01*
X60735143Y54091919D02*
X60770857Y54163348D01*
X60770857Y54163348D02*
X60806571Y54199062D01*
X60806571Y54199062D02*
X60878000Y54234776D01*
X60878000Y54234776D02*
X61020857Y54234776D01*
X61020857Y54234776D02*
X61092286Y54199062D01*
X61413714Y53734776D02*
X61413714Y54234776D01*
X61413714Y54091919D02*
X61449428Y54163348D01*
X61449428Y54163348D02*
X61485143Y54199062D01*
X61485143Y54199062D02*
X61556571Y54234776D01*
X61556571Y54234776D02*
X61628000Y54234776D01*
X61985143Y53734776D02*
X61913714Y53770490D01*
X61913714Y53770490D02*
X61878000Y53806205D01*
X61878000Y53806205D02*
X61842286Y53877633D01*
X61842286Y53877633D02*
X61842286Y54091919D01*
X61842286Y54091919D02*
X61878000Y54163348D01*
X61878000Y54163348D02*
X61913714Y54199062D01*
X61913714Y54199062D02*
X61985143Y54234776D01*
X61985143Y54234776D02*
X62092286Y54234776D01*
X62092286Y54234776D02*
X62163714Y54199062D01*
X62163714Y54199062D02*
X62199429Y54163348D01*
X62199429Y54163348D02*
X62235143Y54091919D01*
X62235143Y54091919D02*
X62235143Y53877633D01*
X62235143Y53877633D02*
X62199429Y53806205D01*
X62199429Y53806205D02*
X62163714Y53770490D01*
X62163714Y53770490D02*
X62092286Y53734776D01*
X62092286Y53734776D02*
X61985143Y53734776D01*
X62556571Y54484776D02*
X62556571Y53877633D01*
X62556571Y53877633D02*
X62592285Y53806205D01*
X62592285Y53806205D02*
X62628000Y53770490D01*
X62628000Y53770490D02*
X62699428Y53734776D01*
X62699428Y53734776D02*
X62842285Y53734776D01*
X62842285Y53734776D02*
X62913714Y53770490D01*
X62913714Y53770490D02*
X62949428Y53806205D01*
X62949428Y53806205D02*
X62985142Y53877633D01*
X62985142Y53877633D02*
X62985142Y54484776D01*
X63306571Y53770490D02*
X63413714Y53734776D01*
X63413714Y53734776D02*
X63592285Y53734776D01*
X63592285Y53734776D02*
X63663714Y53770490D01*
X63663714Y53770490D02*
X63699428Y53806205D01*
X63699428Y53806205D02*
X63735142Y53877633D01*
X63735142Y53877633D02*
X63735142Y53949062D01*
X63735142Y53949062D02*
X63699428Y54020490D01*
X63699428Y54020490D02*
X63663714Y54056205D01*
X63663714Y54056205D02*
X63592285Y54091919D01*
X63592285Y54091919D02*
X63449428Y54127633D01*
X63449428Y54127633D02*
X63377999Y54163348D01*
X63377999Y54163348D02*
X63342285Y54199062D01*
X63342285Y54199062D02*
X63306571Y54270490D01*
X63306571Y54270490D02*
X63306571Y54341919D01*
X63306571Y54341919D02*
X63342285Y54413348D01*
X63342285Y54413348D02*
X63377999Y54449062D01*
X63377999Y54449062D02*
X63449428Y54484776D01*
X63449428Y54484776D02*
X63627999Y54484776D01*
X63627999Y54484776D02*
X63735142Y54449062D01*
X64306571Y54127633D02*
X64413714Y54091919D01*
X64413714Y54091919D02*
X64449428Y54056205D01*
X64449428Y54056205D02*
X64485142Y53984776D01*
X64485142Y53984776D02*
X64485142Y53877633D01*
X64485142Y53877633D02*
X64449428Y53806205D01*
X64449428Y53806205D02*
X64413714Y53770490D01*
X64413714Y53770490D02*
X64342285Y53734776D01*
X64342285Y53734776D02*
X64056571Y53734776D01*
X64056571Y53734776D02*
X64056571Y54484776D01*
X64056571Y54484776D02*
X64306571Y54484776D01*
X64306571Y54484776D02*
X64378000Y54449062D01*
X64378000Y54449062D02*
X64413714Y54413348D01*
X64413714Y54413348D02*
X64449428Y54341919D01*
X64449428Y54341919D02*
X64449428Y54270490D01*
X64449428Y54270490D02*
X64413714Y54199062D01*
X64413714Y54199062D02*
X64378000Y54163348D01*
X64378000Y54163348D02*
X64306571Y54127633D01*
X64306571Y54127633D02*
X64056571Y54127633D01*
X59556571Y53734776D02*
X59556571Y54484776D01*
X59556571Y54484776D02*
X59806571Y53949062D01*
X59806571Y53949062D02*
X60056571Y54484776D01*
X60056571Y54484776D02*
X60056571Y53734776D01*
X60413714Y53734776D02*
X60413714Y54234776D01*
X60413714Y54484776D02*
X60378000Y54449062D01*
X60378000Y54449062D02*
X60413714Y54413348D01*
X60413714Y54413348D02*
X60449428Y54449062D01*
X60449428Y54449062D02*
X60413714Y54484776D01*
X60413714Y54484776D02*
X60413714Y54413348D01*
X61092286Y53770490D02*
X61020857Y53734776D01*
X61020857Y53734776D02*
X60878000Y53734776D01*
X60878000Y53734776D02*
X60806571Y53770490D01*
X60806571Y53770490D02*
X60770857Y53806205D01*
X60770857Y53806205D02*
X60735143Y53877633D01*
X60735143Y53877633D02*
X60735143Y54091919D01*
X60735143Y54091919D02*
X60770857Y54163348D01*
X60770857Y54163348D02*
X60806571Y54199062D01*
X60806571Y54199062D02*
X60878000Y54234776D01*
X60878000Y54234776D02*
X61020857Y54234776D01*
X61020857Y54234776D02*
X61092286Y54199062D01*
X61413714Y53734776D02*
X61413714Y54234776D01*
X61413714Y54091919D02*
X61449428Y54163348D01*
X61449428Y54163348D02*
X61485143Y54199062D01*
X61485143Y54199062D02*
X61556571Y54234776D01*
X61556571Y54234776D02*
X61628000Y54234776D01*
X61985143Y53734776D02*
X61913714Y53770490D01*
X61913714Y53770490D02*
X61878000Y53806205D01*
X61878000Y53806205D02*
X61842286Y53877633D01*
X61842286Y53877633D02*
X61842286Y54091919D01*
X61842286Y54091919D02*
X61878000Y54163348D01*
X61878000Y54163348D02*
X61913714Y54199062D01*
X61913714Y54199062D02*
X61985143Y54234776D01*
X61985143Y54234776D02*
X62092286Y54234776D01*
X62092286Y54234776D02*
X62163714Y54199062D01*
X62163714Y54199062D02*
X62199429Y54163348D01*
X62199429Y54163348D02*
X62235143Y54091919D01*
X62235143Y54091919D02*
X62235143Y53877633D01*
X62235143Y53877633D02*
X62199429Y53806205D01*
X62199429Y53806205D02*
X62163714Y53770490D01*
X62163714Y53770490D02*
X62092286Y53734776D01*
X62092286Y53734776D02*
X61985143Y53734776D01*
X62556571Y54484776D02*
X62556571Y53877633D01*
X62556571Y53877633D02*
X62592285Y53806205D01*
X62592285Y53806205D02*
X62628000Y53770490D01*
X62628000Y53770490D02*
X62699428Y53734776D01*
X62699428Y53734776D02*
X62842285Y53734776D01*
X62842285Y53734776D02*
X62913714Y53770490D01*
X62913714Y53770490D02*
X62949428Y53806205D01*
X62949428Y53806205D02*
X62985142Y53877633D01*
X62985142Y53877633D02*
X62985142Y54484776D01*
X63306571Y53770490D02*
X63413714Y53734776D01*
X63413714Y53734776D02*
X63592285Y53734776D01*
X63592285Y53734776D02*
X63663714Y53770490D01*
X63663714Y53770490D02*
X63699428Y53806205D01*
X63699428Y53806205D02*
X63735142Y53877633D01*
X63735142Y53877633D02*
X63735142Y53949062D01*
X63735142Y53949062D02*
X63699428Y54020490D01*
X63699428Y54020490D02*
X63663714Y54056205D01*
X63663714Y54056205D02*
X63592285Y54091919D01*
X63592285Y54091919D02*
X63449428Y54127633D01*
X63449428Y54127633D02*
X63377999Y54163348D01*
X63377999Y54163348D02*
X63342285Y54199062D01*
X63342285Y54199062D02*
X63306571Y54270490D01*
X63306571Y54270490D02*
X63306571Y54341919D01*
X63306571Y54341919D02*
X63342285Y54413348D01*
X63342285Y54413348D02*
X63377999Y54449062D01*
X63377999Y54449062D02*
X63449428Y54484776D01*
X63449428Y54484776D02*
X63627999Y54484776D01*
X63627999Y54484776D02*
X63735142Y54449062D01*
X64306571Y54127633D02*
X64413714Y54091919D01*
X64413714Y54091919D02*
X64449428Y54056205D01*
X64449428Y54056205D02*
X64485142Y53984776D01*
X64485142Y53984776D02*
X64485142Y53877633D01*
X64485142Y53877633D02*
X64449428Y53806205D01*
X64449428Y53806205D02*
X64413714Y53770490D01*
X64413714Y53770490D02*
X64342285Y53734776D01*
X64342285Y53734776D02*
X64056571Y53734776D01*
X64056571Y53734776D02*
X64056571Y54484776D01*
X64056571Y54484776D02*
X64306571Y54484776D01*
X64306571Y54484776D02*
X64378000Y54449062D01*
X64378000Y54449062D02*
X64413714Y54413348D01*
X64413714Y54413348D02*
X64449428Y54341919D01*
X64449428Y54341919D02*
X64449428Y54270490D01*
X64449428Y54270490D02*
X64413714Y54199062D01*
X64413714Y54199062D02*
X64378000Y54163348D01*
X64378000Y54163348D02*
X64306571Y54127633D01*
X64306571Y54127633D02*
X64056571Y54127633D01*
D11*
%TO.C,J7*%
X84268000Y13225500D02*
X84268000Y15525500D01*
X94168000Y15525500D02*
X94168000Y13225500D01*
X84268000Y15525500D02*
X94168000Y15525500D01*
X84268000Y13225500D02*
X94168000Y13225500D01*
%TO.C,J2*%
X57039000Y13367500D02*
X57039000Y15667500D01*
X66939000Y15667500D02*
X66939000Y13367500D01*
X57039000Y15667500D02*
X66939000Y15667500D01*
X57039000Y13367500D02*
X66939000Y13367500D01*
%TO.C,J6*%
X91668347Y4220068D02*
X79918347Y4220068D01*
X91668347Y10020068D02*
X91668347Y4220068D01*
X79918347Y10020068D02*
X91668347Y10020068D01*
X79918347Y4220068D02*
X79918347Y10020068D01*
%TO.C,J1*%
X59475000Y10153500D02*
X71225000Y10153500D01*
X59475000Y4353500D02*
X59475000Y10153500D01*
X71225000Y4353500D02*
X59475000Y4353500D01*
X71225000Y10153500D02*
X71225000Y4353500D01*
%TO.C,RSW2*%
X83135347Y12018068D02*
X82885347Y12018068D01*
X83135347Y17718068D02*
X83135347Y12018068D01*
X83135347Y17718068D02*
X82885347Y17718068D01*
X79935347Y17718068D02*
X80185347Y17718068D01*
X79935347Y12018068D02*
X80185347Y12018068D01*
X79935347Y17718068D02*
X79935347Y12018068D01*
%TO.C,RSW1*%
X71265000Y12164500D02*
X71015000Y12164500D01*
X71265000Y17864500D02*
X71265000Y12164500D01*
X71265000Y17864500D02*
X71015000Y17864500D01*
X68065000Y17864500D02*
X68315000Y17864500D01*
X68065000Y12164500D02*
X68315000Y12164500D01*
X68065000Y17864500D02*
X68065000Y12164500D01*
%TO.C,U2*%
X97973347Y20399068D02*
X97113347Y20399068D01*
X80473347Y20399068D02*
X81323347Y20399068D01*
X97973347Y21249068D02*
X97973347Y20399068D01*
X80473347Y21299068D02*
X80473347Y20399068D01*
X97973347Y50599068D02*
X97173347Y50599068D01*
X80473347Y50599068D02*
X81323347Y50599068D01*
X97973347Y50599068D02*
X97973347Y49749068D01*
X80473347Y50599068D02*
X80473347Y49749068D01*
X85473347Y56199068D02*
X85473347Y54899068D01*
X85473347Y54899068D02*
X92973347Y54899068D01*
X92973347Y54899068D02*
X92973347Y56199068D01*
X92973347Y56199068D02*
X85473347Y56199068D01*
X88723347Y55849068D02*
X89723347Y55849068D01*
X89723347Y55849068D02*
X89223347Y55199068D01*
X89223347Y55199068D02*
X88723347Y55849068D01*
X88873347Y55699068D02*
X89573347Y55699068D01*
X88973347Y55549068D02*
X89473347Y55549068D01*
X89073347Y55399068D02*
X89373347Y55399068D01*
%TO.C,U1*%
X70803000Y20525500D02*
X69943000Y20525500D01*
X53303000Y20525500D02*
X54153000Y20525500D01*
X70803000Y21375500D02*
X70803000Y20525500D01*
X53303000Y21425500D02*
X53303000Y20525500D01*
X70803000Y50725500D02*
X70003000Y50725500D01*
X53303000Y50725500D02*
X54153000Y50725500D01*
X70803000Y50725500D02*
X70803000Y49875500D01*
X53303000Y50725500D02*
X53303000Y49875500D01*
X58303000Y56325500D02*
X58303000Y55025500D01*
X58303000Y55025500D02*
X65803000Y55025500D01*
X65803000Y55025500D02*
X65803000Y56325500D01*
X65803000Y56325500D02*
X58303000Y56325500D01*
X61553000Y55975500D02*
X62553000Y55975500D01*
X62553000Y55975500D02*
X62053000Y55325500D01*
X62053000Y55325500D02*
X61553000Y55975500D01*
X61703000Y55825500D02*
X62403000Y55825500D01*
X61803000Y55675500D02*
X62303000Y55675500D01*
X61903000Y55525500D02*
X62203000Y55525500D01*
D13*
%TO.C,G\u002A\u002A\u002A*%
X161717549Y1899512D02*
X161832248Y1873398D01*
X162053350Y1782861D01*
X162244793Y1656464D01*
X162401722Y1498512D01*
X162519282Y1313312D01*
X162553937Y1233246D01*
X162587964Y1139769D01*
X162599583Y1080739D01*
X162582298Y1048239D01*
X162529612Y1034351D01*
X162435029Y1031157D01*
X162388069Y1031100D01*
X162174139Y1031101D01*
X162143233Y1124746D01*
X162076643Y1250606D01*
X161970138Y1361997D01*
X161833963Y1452488D01*
X161678364Y1515646D01*
X161513585Y1545039D01*
X161471699Y1546358D01*
X161289369Y1523590D01*
X161119065Y1459279D01*
X160969516Y1359411D01*
X160849453Y1229974D01*
X160767605Y1076953D01*
X160761407Y1059233D01*
X160727856Y900576D01*
X160722073Y725098D01*
X160742759Y551173D01*
X160788613Y397178D01*
X160811675Y348969D01*
X160917404Y198362D01*
X161052279Y86197D01*
X161199602Y14585D01*
X161378289Y-28426D01*
X161557759Y-28273D01*
X161729572Y11715D01*
X161885290Y88209D01*
X162016474Y197878D01*
X162114684Y337394D01*
X162136267Y384111D01*
X162182900Y497510D01*
X162392450Y497605D01*
X162495168Y496939D01*
X162557284Y492880D01*
X162588995Y482508D01*
X162600497Y462906D01*
X162602000Y437613D01*
X162586475Y362598D01*
X162544924Y262719D01*
X162484878Y151248D01*
X162413869Y41459D01*
X162339429Y-53376D01*
X162300538Y-93619D01*
X162120764Y-228631D01*
X161911907Y-329311D01*
X161685060Y-392413D01*
X161451318Y-414694D01*
X161255800Y-399164D01*
X161062587Y-348443D01*
X160874951Y-265377D01*
X160705260Y-157360D01*
X160565883Y-31789D01*
X160498989Y53335D01*
X160417660Y187659D01*
X160361770Y312613D01*
X160327191Y443362D01*
X160309793Y595070D01*
X160305414Y764400D01*
X160306919Y905306D01*
X160312621Y1009312D01*
X160324298Y1090264D01*
X160343730Y1162006D01*
X160363351Y1215303D01*
X160468997Y1414957D01*
X160615262Y1591474D01*
X160794376Y1737184D01*
X160998569Y1844415D01*
X161001800Y1845698D01*
X161157783Y1889586D01*
X161341755Y1913608D01*
X161534687Y1917128D01*
X161717549Y1899512D01*
G36*
X161717549Y1899512D02*
G01*
X161832248Y1873398D01*
X162053350Y1782861D01*
X162244793Y1656464D01*
X162401722Y1498512D01*
X162519282Y1313312D01*
X162553937Y1233246D01*
X162587964Y1139769D01*
X162599583Y1080739D01*
X162582298Y1048239D01*
X162529612Y1034351D01*
X162435029Y1031157D01*
X162388069Y1031100D01*
X162174139Y1031101D01*
X162143233Y1124746D01*
X162076643Y1250606D01*
X161970138Y1361997D01*
X161833963Y1452488D01*
X161678364Y1515646D01*
X161513585Y1545039D01*
X161471699Y1546358D01*
X161289369Y1523590D01*
X161119065Y1459279D01*
X160969516Y1359411D01*
X160849453Y1229974D01*
X160767605Y1076953D01*
X160761407Y1059233D01*
X160727856Y900576D01*
X160722073Y725098D01*
X160742759Y551173D01*
X160788613Y397178D01*
X160811675Y348969D01*
X160917404Y198362D01*
X161052279Y86197D01*
X161199602Y14585D01*
X161378289Y-28426D01*
X161557759Y-28273D01*
X161729572Y11715D01*
X161885290Y88209D01*
X162016474Y197878D01*
X162114684Y337394D01*
X162136267Y384111D01*
X162182900Y497510D01*
X162392450Y497605D01*
X162495168Y496939D01*
X162557284Y492880D01*
X162588995Y482508D01*
X162600497Y462906D01*
X162602000Y437613D01*
X162586475Y362598D01*
X162544924Y262719D01*
X162484878Y151248D01*
X162413869Y41459D01*
X162339429Y-53376D01*
X162300538Y-93619D01*
X162120764Y-228631D01*
X161911907Y-329311D01*
X161685060Y-392413D01*
X161451318Y-414694D01*
X161255800Y-399164D01*
X161062587Y-348443D01*
X160874951Y-265377D01*
X160705260Y-157360D01*
X160565883Y-31789D01*
X160498989Y53335D01*
X160417660Y187659D01*
X160361770Y312613D01*
X160327191Y443362D01*
X160309793Y595070D01*
X160305414Y764400D01*
X160306919Y905306D01*
X160312621Y1009312D01*
X160324298Y1090264D01*
X160343730Y1162006D01*
X160363351Y1215303D01*
X160468997Y1414957D01*
X160615262Y1591474D01*
X160794376Y1737184D01*
X160998569Y1844415D01*
X161001800Y1845698D01*
X161157783Y1889586D01*
X161341755Y1913608D01*
X161534687Y1917128D01*
X161717549Y1899512D01*
G37*
X164100486Y1913660D02*
X164353940Y1878389D01*
X164582025Y1801693D01*
X164781675Y1685635D01*
X164949825Y1532278D01*
X165083408Y1343684D01*
X165147956Y1208900D01*
X165179518Y1094795D01*
X165199785Y947129D01*
X165208530Y781920D01*
X165205525Y615187D01*
X165190543Y462949D01*
X165163356Y341225D01*
X165160405Y332600D01*
X165064019Y135328D01*
X164924775Y-41074D01*
X164748179Y-191269D01*
X164539741Y-309921D01*
X164464840Y-341270D01*
X164332821Y-377519D01*
X164169835Y-400967D01*
X163994281Y-410787D01*
X163824560Y-406150D01*
X163679074Y-386229D01*
X163646253Y-378099D01*
X163432353Y-295901D01*
X163237621Y-177593D01*
X163070655Y-30135D01*
X162940056Y139514D01*
X162889182Y234605D01*
X162850837Y337398D01*
X162816651Y461624D01*
X162796599Y564872D01*
X162789248Y706276D01*
X163213574Y706276D01*
X163227909Y558634D01*
X163248041Y477293D01*
X163301294Y364559D01*
X163381695Y249167D01*
X163475678Y147798D01*
X163569674Y77135D01*
X163576458Y73480D01*
X163773198Y-2618D01*
X163978189Y-32963D01*
X164181604Y-16743D01*
X164294164Y14032D01*
X164471444Y101153D01*
X164615910Y224823D01*
X164723087Y381159D01*
X164727520Y390034D01*
X164780510Y546099D01*
X164802493Y723202D01*
X164793139Y902483D01*
X164752121Y1065079D01*
X164739789Y1094600D01*
X164642458Y1253594D01*
X164514761Y1378408D01*
X164364064Y1468877D01*
X164197736Y1524834D01*
X164023142Y1546114D01*
X163847649Y1532551D01*
X163678624Y1483978D01*
X163523434Y1400230D01*
X163389445Y1281140D01*
X163284465Y1127399D01*
X163242919Y1009693D01*
X163218933Y862974D01*
X163213574Y706276D01*
X162789248Y706276D01*
X162783738Y812264D01*
X162816150Y1046807D01*
X162891350Y1263448D01*
X163006857Y1457135D01*
X163160187Y1622813D01*
X163348860Y1755431D01*
X163392919Y1778697D01*
X163567205Y1853447D01*
X163738530Y1898219D01*
X163924405Y1916353D01*
X164100486Y1913660D01*
G36*
X164100486Y1913660D02*
G01*
X164353940Y1878389D01*
X164582025Y1801693D01*
X164781675Y1685635D01*
X164949825Y1532278D01*
X165083408Y1343684D01*
X165147956Y1208900D01*
X165179518Y1094795D01*
X165199785Y947129D01*
X165208530Y781920D01*
X165205525Y615187D01*
X165190543Y462949D01*
X165163356Y341225D01*
X165160405Y332600D01*
X165064019Y135328D01*
X164924775Y-41074D01*
X164748179Y-191269D01*
X164539741Y-309921D01*
X164464840Y-341270D01*
X164332821Y-377519D01*
X164169835Y-400967D01*
X163994281Y-410787D01*
X163824560Y-406150D01*
X163679074Y-386229D01*
X163646253Y-378099D01*
X163432353Y-295901D01*
X163237621Y-177593D01*
X163070655Y-30135D01*
X162940056Y139514D01*
X162889182Y234605D01*
X162850837Y337398D01*
X162816651Y461624D01*
X162796599Y564872D01*
X162789248Y706276D01*
X163213574Y706276D01*
X163227909Y558634D01*
X163248041Y477293D01*
X163301294Y364559D01*
X163381695Y249167D01*
X163475678Y147798D01*
X163569674Y77135D01*
X163576458Y73480D01*
X163773198Y-2618D01*
X163978189Y-32963D01*
X164181604Y-16743D01*
X164294164Y14032D01*
X164471444Y101153D01*
X164615910Y224823D01*
X164723087Y381159D01*
X164727520Y390034D01*
X164780510Y546099D01*
X164802493Y723202D01*
X164793139Y902483D01*
X164752121Y1065079D01*
X164739789Y1094600D01*
X164642458Y1253594D01*
X164514761Y1378408D01*
X164364064Y1468877D01*
X164197736Y1524834D01*
X164023142Y1546114D01*
X163847649Y1532551D01*
X163678624Y1483978D01*
X163523434Y1400230D01*
X163389445Y1281140D01*
X163284465Y1127399D01*
X163242919Y1009693D01*
X163218933Y862974D01*
X163213574Y706276D01*
X162789248Y706276D01*
X162783738Y812264D01*
X162816150Y1046807D01*
X162891350Y1263448D01*
X163006857Y1457135D01*
X163160187Y1622813D01*
X163348860Y1755431D01*
X163392919Y1778697D01*
X163567205Y1853447D01*
X163738530Y1898219D01*
X163924405Y1916353D01*
X164100486Y1913660D01*
G37*
X170892030Y1897094D02*
X171114394Y1830795D01*
X171312633Y1725287D01*
X171482579Y1584653D01*
X171620059Y1412976D01*
X171720904Y1214338D01*
X171780943Y992822D01*
X171796800Y797164D01*
X171796800Y650100D01*
X169891800Y650100D01*
X169891800Y577002D01*
X169914717Y453851D01*
X169978155Y326328D01*
X170074143Y205202D01*
X170194711Y101244D01*
X170283888Y47261D01*
X170419742Y-4147D01*
X170580404Y-29183D01*
X170593372Y-30096D01*
X170775629Y-27627D01*
X170929303Y9171D01*
X171066995Y84886D01*
X171181693Y184081D01*
X171317513Y319900D01*
X171520768Y319900D01*
X171621311Y319254D01*
X171680533Y315378D01*
X171707910Y305367D01*
X171712919Y286318D01*
X171707230Y262750D01*
X171668917Y177102D01*
X171603999Y74414D01*
X171524274Y-29106D01*
X171441544Y-117246D01*
X171411357Y-143673D01*
X171212490Y-273273D01*
X170989802Y-362737D01*
X170753096Y-410009D01*
X170512173Y-413035D01*
X170300857Y-376504D01*
X170079745Y-292379D01*
X169884925Y-168523D01*
X169721325Y-10054D01*
X169593874Y177910D01*
X169507501Y390251D01*
X169488344Y467201D01*
X169457808Y717258D01*
X169471541Y956839D01*
X169483722Y1005700D01*
X169893057Y1005700D01*
X170616328Y1005700D01*
X170828914Y1005972D01*
X170995999Y1006979D01*
X171122879Y1009006D01*
X171214851Y1012342D01*
X171277212Y1017271D01*
X171315259Y1024080D01*
X171334288Y1033056D01*
X171339597Y1044486D01*
X171339600Y1044812D01*
X171319223Y1126742D01*
X171264525Y1222327D01*
X171185152Y1319778D01*
X171090748Y1407305D01*
X170990961Y1473117D01*
X170987903Y1474674D01*
X170848847Y1522223D01*
X170684733Y1543486D01*
X170513928Y1538540D01*
X170354798Y1507461D01*
X170263060Y1471656D01*
X170116526Y1370014D01*
X169997649Y1228703D01*
X169917265Y1069373D01*
X169893057Y1005700D01*
X169483722Y1005700D01*
X169527367Y1180765D01*
X169623106Y1383857D01*
X169756579Y1560937D01*
X169925608Y1706828D01*
X170038499Y1774811D01*
X170233103Y1858754D01*
X170430426Y1905599D01*
X170649713Y1920100D01*
X170892030Y1897094D01*
G36*
X170892030Y1897094D02*
G01*
X171114394Y1830795D01*
X171312633Y1725287D01*
X171482579Y1584653D01*
X171620059Y1412976D01*
X171720904Y1214338D01*
X171780943Y992822D01*
X171796800Y797164D01*
X171796800Y650100D01*
X169891800Y650100D01*
X169891800Y577002D01*
X169914717Y453851D01*
X169978155Y326328D01*
X170074143Y205202D01*
X170194711Y101244D01*
X170283888Y47261D01*
X170419742Y-4147D01*
X170580404Y-29183D01*
X170593372Y-30096D01*
X170775629Y-27627D01*
X170929303Y9171D01*
X171066995Y84886D01*
X171181693Y184081D01*
X171317513Y319900D01*
X171520768Y319900D01*
X171621311Y319254D01*
X171680533Y315378D01*
X171707910Y305367D01*
X171712919Y286318D01*
X171707230Y262750D01*
X171668917Y177102D01*
X171603999Y74414D01*
X171524274Y-29106D01*
X171441544Y-117246D01*
X171411357Y-143673D01*
X171212490Y-273273D01*
X170989802Y-362737D01*
X170753096Y-410009D01*
X170512173Y-413035D01*
X170300857Y-376504D01*
X170079745Y-292379D01*
X169884925Y-168523D01*
X169721325Y-10054D01*
X169593874Y177910D01*
X169507501Y390251D01*
X169488344Y467201D01*
X169457808Y717258D01*
X169471541Y956839D01*
X169483722Y1005700D01*
X169893057Y1005700D01*
X170616328Y1005700D01*
X170828914Y1005972D01*
X170995999Y1006979D01*
X171122879Y1009006D01*
X171214851Y1012342D01*
X171277212Y1017271D01*
X171315259Y1024080D01*
X171334288Y1033056D01*
X171339597Y1044486D01*
X171339600Y1044812D01*
X171319223Y1126742D01*
X171264525Y1222327D01*
X171185152Y1319778D01*
X171090748Y1407305D01*
X170990961Y1473117D01*
X170987903Y1474674D01*
X170848847Y1522223D01*
X170684733Y1543486D01*
X170513928Y1538540D01*
X170354798Y1507461D01*
X170263060Y1471656D01*
X170116526Y1370014D01*
X169997649Y1228703D01*
X169917265Y1069373D01*
X169893057Y1005700D01*
X169483722Y1005700D01*
X169527367Y1180765D01*
X169623106Y1383857D01*
X169756579Y1560937D01*
X169925608Y1706828D01*
X170038499Y1774811D01*
X170233103Y1858754D01*
X170430426Y1905599D01*
X170649713Y1920100D01*
X170892030Y1897094D01*
G37*
X166697737Y1930064D02*
X166843800Y1913539D01*
X166843800Y1542771D01*
X166710450Y1556432D01*
X166526351Y1551361D01*
X166356952Y1499578D01*
X166208381Y1404444D01*
X166086766Y1269321D01*
X166037889Y1187631D01*
X165954800Y1026662D01*
X165954800Y-365900D01*
X165523000Y-365900D01*
X165523000Y1896755D01*
X165732550Y1889378D01*
X165942100Y1882000D01*
X165967500Y1660142D01*
X166018269Y1716554D01*
X166136446Y1813143D01*
X166288298Y1884233D01*
X166461542Y1925964D01*
X166643890Y1934475D01*
X166697737Y1930064D01*
G36*
X166697737Y1930064D02*
G01*
X166843800Y1913539D01*
X166843800Y1542771D01*
X166710450Y1556432D01*
X166526351Y1551361D01*
X166356952Y1499578D01*
X166208381Y1404444D01*
X166086766Y1269321D01*
X166037889Y1187631D01*
X165954800Y1026662D01*
X165954800Y-365900D01*
X165523000Y-365900D01*
X165523000Y1896755D01*
X165732550Y1889378D01*
X165942100Y1882000D01*
X165967500Y1660142D01*
X166018269Y1716554D01*
X166136446Y1813143D01*
X166288298Y1884233D01*
X166461542Y1925964D01*
X166643890Y1934475D01*
X166697737Y1930064D01*
G37*
X168359991Y1906709D02*
X168454075Y1903049D01*
X168524490Y1894045D01*
X168584801Y1877319D01*
X168648570Y1850495D01*
X168702751Y1824329D01*
X168873798Y1715987D01*
X169007048Y1576827D01*
X169104379Y1404122D01*
X169167668Y1195146D01*
X169179075Y1132700D01*
X169186364Y1061730D01*
X169192903Y948975D01*
X169198403Y803451D01*
X169202574Y634170D01*
X169205127Y450147D01*
X169205808Y300850D01*
X169206000Y-365900D01*
X168774200Y-365900D01*
X168774200Y353390D01*
X168773593Y582043D01*
X168771600Y765742D01*
X168767963Y910323D01*
X168762422Y1021618D01*
X168754719Y1105463D01*
X168744595Y1167691D01*
X168736697Y1198966D01*
X168671937Y1337193D01*
X168571030Y1440394D01*
X168435603Y1507516D01*
X168267280Y1537501D01*
X168212812Y1539100D01*
X168050341Y1528683D01*
X167920362Y1493806D01*
X167808264Y1429028D01*
X167728360Y1358774D01*
X167674173Y1301769D01*
X167630791Y1245999D01*
X167597023Y1185135D01*
X167571679Y1112848D01*
X167553567Y1022811D01*
X167541496Y908695D01*
X167534277Y764173D01*
X167530717Y582915D01*
X167529626Y358593D01*
X167529600Y302590D01*
X167529600Y-365900D01*
X167097800Y-365900D01*
X167097800Y1894700D01*
X167529600Y1894700D01*
X167529600Y1636793D01*
X167611864Y1719058D01*
X167698252Y1794664D01*
X167788955Y1847931D01*
X167894978Y1882218D01*
X168027324Y1900884D01*
X168196995Y1907289D01*
X168228674Y1907400D01*
X168359991Y1906709D01*
G36*
X168359991Y1906709D02*
G01*
X168454075Y1903049D01*
X168524490Y1894045D01*
X168584801Y1877319D01*
X168648570Y1850495D01*
X168702751Y1824329D01*
X168873798Y1715987D01*
X169007048Y1576827D01*
X169104379Y1404122D01*
X169167668Y1195146D01*
X169179075Y1132700D01*
X169186364Y1061730D01*
X169192903Y948975D01*
X169198403Y803451D01*
X169202574Y634170D01*
X169205127Y450147D01*
X169205808Y300850D01*
X169206000Y-365900D01*
X168774200Y-365900D01*
X168774200Y353390D01*
X168773593Y582043D01*
X168771600Y765742D01*
X168767963Y910323D01*
X168762422Y1021618D01*
X168754719Y1105463D01*
X168744595Y1167691D01*
X168736697Y1198966D01*
X168671937Y1337193D01*
X168571030Y1440394D01*
X168435603Y1507516D01*
X168267280Y1537501D01*
X168212812Y1539100D01*
X168050341Y1528683D01*
X167920362Y1493806D01*
X167808264Y1429028D01*
X167728360Y1358774D01*
X167674173Y1301769D01*
X167630791Y1245999D01*
X167597023Y1185135D01*
X167571679Y1112848D01*
X167553567Y1022811D01*
X167541496Y908695D01*
X167534277Y764173D01*
X167530717Y582915D01*
X167529626Y358593D01*
X167529600Y302590D01*
X167529600Y-365900D01*
X167097800Y-365900D01*
X167097800Y1894700D01*
X167529600Y1894700D01*
X167529600Y1636793D01*
X167611864Y1719058D01*
X167698252Y1794664D01*
X167788955Y1847931D01*
X167894978Y1882218D01*
X168027324Y1900884D01*
X168196995Y1907289D01*
X168228674Y1907400D01*
X168359991Y1906709D01*
G37*
X-12420009Y1986709D02*
X-12325925Y1983049D01*
X-12255510Y1974045D01*
X-12195199Y1957319D01*
X-12131430Y1930495D01*
X-12077249Y1904329D01*
X-11906202Y1795987D01*
X-11772952Y1656827D01*
X-11675621Y1484122D01*
X-11612332Y1275146D01*
X-11600925Y1212700D01*
X-11593636Y1141730D01*
X-11587097Y1028975D01*
X-11581597Y883451D01*
X-11577426Y714170D01*
X-11574873Y530147D01*
X-11574192Y380850D01*
X-11574000Y-285900D01*
X-12005800Y-285900D01*
X-12005800Y433390D01*
X-12006407Y662043D01*
X-12008400Y845742D01*
X-12012037Y990323D01*
X-12017578Y1101618D01*
X-12025281Y1185463D01*
X-12035405Y1247691D01*
X-12043303Y1278966D01*
X-12108063Y1417193D01*
X-12208970Y1520394D01*
X-12344397Y1587516D01*
X-12512720Y1617501D01*
X-12567188Y1619100D01*
X-12729659Y1608683D01*
X-12859638Y1573806D01*
X-12971736Y1509028D01*
X-13051640Y1438774D01*
X-13105827Y1381769D01*
X-13149209Y1325999D01*
X-13182977Y1265135D01*
X-13208321Y1192848D01*
X-13226433Y1102811D01*
X-13238504Y988695D01*
X-13245723Y844173D01*
X-13249283Y662915D01*
X-13250374Y438593D01*
X-13250400Y382590D01*
X-13250400Y-285900D01*
X-13682200Y-285900D01*
X-13682200Y1974700D01*
X-13250400Y1974700D01*
X-13250400Y1716793D01*
X-13168136Y1799058D01*
X-13081748Y1874664D01*
X-12991045Y1927931D01*
X-12885022Y1962218D01*
X-12752676Y1980884D01*
X-12583005Y1987289D01*
X-12551326Y1987400D01*
X-12420009Y1986709D01*
G36*
X-12420009Y1986709D02*
G01*
X-12325925Y1983049D01*
X-12255510Y1974045D01*
X-12195199Y1957319D01*
X-12131430Y1930495D01*
X-12077249Y1904329D01*
X-11906202Y1795987D01*
X-11772952Y1656827D01*
X-11675621Y1484122D01*
X-11612332Y1275146D01*
X-11600925Y1212700D01*
X-11593636Y1141730D01*
X-11587097Y1028975D01*
X-11581597Y883451D01*
X-11577426Y714170D01*
X-11574873Y530147D01*
X-11574192Y380850D01*
X-11574000Y-285900D01*
X-12005800Y-285900D01*
X-12005800Y433390D01*
X-12006407Y662043D01*
X-12008400Y845742D01*
X-12012037Y990323D01*
X-12017578Y1101618D01*
X-12025281Y1185463D01*
X-12035405Y1247691D01*
X-12043303Y1278966D01*
X-12108063Y1417193D01*
X-12208970Y1520394D01*
X-12344397Y1587516D01*
X-12512720Y1617501D01*
X-12567188Y1619100D01*
X-12729659Y1608683D01*
X-12859638Y1573806D01*
X-12971736Y1509028D01*
X-13051640Y1438774D01*
X-13105827Y1381769D01*
X-13149209Y1325999D01*
X-13182977Y1265135D01*
X-13208321Y1192848D01*
X-13226433Y1102811D01*
X-13238504Y988695D01*
X-13245723Y844173D01*
X-13249283Y662915D01*
X-13250374Y438593D01*
X-13250400Y382590D01*
X-13250400Y-285900D01*
X-13682200Y-285900D01*
X-13682200Y1974700D01*
X-13250400Y1974700D01*
X-13250400Y1716793D01*
X-13168136Y1799058D01*
X-13081748Y1874664D01*
X-12991045Y1927931D01*
X-12885022Y1962218D01*
X-12752676Y1980884D01*
X-12583005Y1987289D01*
X-12551326Y1987400D01*
X-12420009Y1986709D01*
G37*
X-14082263Y2010064D02*
X-13936200Y1993539D01*
X-13936200Y1622771D01*
X-14069550Y1636432D01*
X-14253649Y1631361D01*
X-14423048Y1579578D01*
X-14571619Y1484444D01*
X-14693234Y1349321D01*
X-14742111Y1267631D01*
X-14825200Y1106662D01*
X-14825200Y-285900D01*
X-15257000Y-285900D01*
X-15257000Y1976755D01*
X-15047450Y1969378D01*
X-14837900Y1962000D01*
X-14812500Y1740142D01*
X-14761731Y1796554D01*
X-14643554Y1893143D01*
X-14491702Y1964233D01*
X-14318458Y2005964D01*
X-14136110Y2014475D01*
X-14082263Y2010064D01*
G36*
X-14082263Y2010064D02*
G01*
X-13936200Y1993539D01*
X-13936200Y1622771D01*
X-14069550Y1636432D01*
X-14253649Y1631361D01*
X-14423048Y1579578D01*
X-14571619Y1484444D01*
X-14693234Y1349321D01*
X-14742111Y1267631D01*
X-14825200Y1106662D01*
X-14825200Y-285900D01*
X-15257000Y-285900D01*
X-15257000Y1976755D01*
X-15047450Y1969378D01*
X-14837900Y1962000D01*
X-14812500Y1740142D01*
X-14761731Y1796554D01*
X-14643554Y1893143D01*
X-14491702Y1964233D01*
X-14318458Y2005964D01*
X-14136110Y2014475D01*
X-14082263Y2010064D01*
G37*
X-9887970Y1977094D02*
X-9665606Y1910795D01*
X-9467367Y1805287D01*
X-9297421Y1664653D01*
X-9159941Y1492976D01*
X-9059096Y1294338D01*
X-8999057Y1072822D01*
X-8983200Y877164D01*
X-8983200Y730100D01*
X-10888200Y730100D01*
X-10888200Y657002D01*
X-10865283Y533851D01*
X-10801845Y406328D01*
X-10705857Y285202D01*
X-10585289Y181244D01*
X-10496112Y127261D01*
X-10360258Y75853D01*
X-10199596Y50817D01*
X-10186628Y49904D01*
X-10004371Y52373D01*
X-9850697Y89171D01*
X-9713005Y164886D01*
X-9598307Y264081D01*
X-9462487Y399900D01*
X-9259232Y399900D01*
X-9158689Y399254D01*
X-9099467Y395378D01*
X-9072090Y385367D01*
X-9067081Y366318D01*
X-9072770Y342750D01*
X-9111083Y257102D01*
X-9176001Y154414D01*
X-9255726Y50894D01*
X-9338456Y-37246D01*
X-9368643Y-63673D01*
X-9567510Y-193273D01*
X-9790198Y-282737D01*
X-10026904Y-330009D01*
X-10267827Y-333035D01*
X-10479143Y-296504D01*
X-10700255Y-212379D01*
X-10895075Y-88523D01*
X-11058675Y69946D01*
X-11186126Y257910D01*
X-11272499Y470251D01*
X-11291656Y547201D01*
X-11322192Y797258D01*
X-11308459Y1036839D01*
X-11296278Y1085700D01*
X-10886943Y1085700D01*
X-10163672Y1085700D01*
X-9951086Y1085972D01*
X-9784001Y1086979D01*
X-9657121Y1089006D01*
X-9565149Y1092342D01*
X-9502788Y1097271D01*
X-9464741Y1104080D01*
X-9445712Y1113056D01*
X-9440403Y1124486D01*
X-9440400Y1124812D01*
X-9460777Y1206742D01*
X-9515475Y1302327D01*
X-9594848Y1399778D01*
X-9689252Y1487305D01*
X-9789039Y1553117D01*
X-9792097Y1554674D01*
X-9931153Y1602223D01*
X-10095267Y1623486D01*
X-10266072Y1618540D01*
X-10425202Y1587461D01*
X-10516940Y1551656D01*
X-10663474Y1450014D01*
X-10782351Y1308703D01*
X-10862735Y1149373D01*
X-10886943Y1085700D01*
X-11296278Y1085700D01*
X-11252633Y1260765D01*
X-11156894Y1463857D01*
X-11023421Y1640937D01*
X-10854392Y1786828D01*
X-10741501Y1854811D01*
X-10546897Y1938754D01*
X-10349574Y1985599D01*
X-10130287Y2000100D01*
X-9887970Y1977094D01*
G36*
X-9887970Y1977094D02*
G01*
X-9665606Y1910795D01*
X-9467367Y1805287D01*
X-9297421Y1664653D01*
X-9159941Y1492976D01*
X-9059096Y1294338D01*
X-8999057Y1072822D01*
X-8983200Y877164D01*
X-8983200Y730100D01*
X-10888200Y730100D01*
X-10888200Y657002D01*
X-10865283Y533851D01*
X-10801845Y406328D01*
X-10705857Y285202D01*
X-10585289Y181244D01*
X-10496112Y127261D01*
X-10360258Y75853D01*
X-10199596Y50817D01*
X-10186628Y49904D01*
X-10004371Y52373D01*
X-9850697Y89171D01*
X-9713005Y164886D01*
X-9598307Y264081D01*
X-9462487Y399900D01*
X-9259232Y399900D01*
X-9158689Y399254D01*
X-9099467Y395378D01*
X-9072090Y385367D01*
X-9067081Y366318D01*
X-9072770Y342750D01*
X-9111083Y257102D01*
X-9176001Y154414D01*
X-9255726Y50894D01*
X-9338456Y-37246D01*
X-9368643Y-63673D01*
X-9567510Y-193273D01*
X-9790198Y-282737D01*
X-10026904Y-330009D01*
X-10267827Y-333035D01*
X-10479143Y-296504D01*
X-10700255Y-212379D01*
X-10895075Y-88523D01*
X-11058675Y69946D01*
X-11186126Y257910D01*
X-11272499Y470251D01*
X-11291656Y547201D01*
X-11322192Y797258D01*
X-11308459Y1036839D01*
X-11296278Y1085700D01*
X-10886943Y1085700D01*
X-10163672Y1085700D01*
X-9951086Y1085972D01*
X-9784001Y1086979D01*
X-9657121Y1089006D01*
X-9565149Y1092342D01*
X-9502788Y1097271D01*
X-9464741Y1104080D01*
X-9445712Y1113056D01*
X-9440403Y1124486D01*
X-9440400Y1124812D01*
X-9460777Y1206742D01*
X-9515475Y1302327D01*
X-9594848Y1399778D01*
X-9689252Y1487305D01*
X-9789039Y1553117D01*
X-9792097Y1554674D01*
X-9931153Y1602223D01*
X-10095267Y1623486D01*
X-10266072Y1618540D01*
X-10425202Y1587461D01*
X-10516940Y1551656D01*
X-10663474Y1450014D01*
X-10782351Y1308703D01*
X-10862735Y1149373D01*
X-10886943Y1085700D01*
X-11296278Y1085700D01*
X-11252633Y1260765D01*
X-11156894Y1463857D01*
X-11023421Y1640937D01*
X-10854392Y1786828D01*
X-10741501Y1854811D01*
X-10546897Y1938754D01*
X-10349574Y1985599D01*
X-10130287Y2000100D01*
X-9887970Y1977094D01*
G37*
X-16679514Y1993660D02*
X-16426060Y1958389D01*
X-16197975Y1881693D01*
X-15998325Y1765635D01*
X-15830175Y1612278D01*
X-15696592Y1423684D01*
X-15632044Y1288900D01*
X-15600482Y1174795D01*
X-15580215Y1027129D01*
X-15571470Y861920D01*
X-15574475Y695187D01*
X-15589457Y542949D01*
X-15616644Y421225D01*
X-15619595Y412600D01*
X-15715981Y215328D01*
X-15855225Y38926D01*
X-16031821Y-111269D01*
X-16240259Y-229921D01*
X-16315160Y-261270D01*
X-16447179Y-297519D01*
X-16610165Y-320967D01*
X-16785719Y-330787D01*
X-16955440Y-326150D01*
X-17100926Y-306229D01*
X-17133747Y-298099D01*
X-17347647Y-215901D01*
X-17542379Y-97593D01*
X-17709345Y49865D01*
X-17839944Y219514D01*
X-17890818Y314605D01*
X-17929163Y417398D01*
X-17963349Y541624D01*
X-17983401Y644872D01*
X-17990752Y786276D01*
X-17566426Y786276D01*
X-17552091Y638634D01*
X-17531959Y557293D01*
X-17478706Y444559D01*
X-17398305Y329167D01*
X-17304322Y227798D01*
X-17210326Y157135D01*
X-17203542Y153480D01*
X-17006802Y77382D01*
X-16801811Y47037D01*
X-16598396Y63257D01*
X-16485836Y94032D01*
X-16308556Y181153D01*
X-16164090Y304823D01*
X-16056913Y461159D01*
X-16052480Y470034D01*
X-15999490Y626099D01*
X-15977507Y803202D01*
X-15986861Y982483D01*
X-16027879Y1145079D01*
X-16040211Y1174600D01*
X-16137542Y1333594D01*
X-16265239Y1458408D01*
X-16415936Y1548877D01*
X-16582264Y1604834D01*
X-16756858Y1626114D01*
X-16932351Y1612551D01*
X-17101376Y1563978D01*
X-17256566Y1480230D01*
X-17390555Y1361140D01*
X-17495535Y1207399D01*
X-17537081Y1089693D01*
X-17561067Y942974D01*
X-17566426Y786276D01*
X-17990752Y786276D01*
X-17996262Y892264D01*
X-17963850Y1126807D01*
X-17888650Y1343448D01*
X-17773143Y1537135D01*
X-17619813Y1702813D01*
X-17431140Y1835431D01*
X-17387081Y1858697D01*
X-17212795Y1933447D01*
X-17041470Y1978219D01*
X-16855595Y1996353D01*
X-16679514Y1993660D01*
G36*
X-16679514Y1993660D02*
G01*
X-16426060Y1958389D01*
X-16197975Y1881693D01*
X-15998325Y1765635D01*
X-15830175Y1612278D01*
X-15696592Y1423684D01*
X-15632044Y1288900D01*
X-15600482Y1174795D01*
X-15580215Y1027129D01*
X-15571470Y861920D01*
X-15574475Y695187D01*
X-15589457Y542949D01*
X-15616644Y421225D01*
X-15619595Y412600D01*
X-15715981Y215328D01*
X-15855225Y38926D01*
X-16031821Y-111269D01*
X-16240259Y-229921D01*
X-16315160Y-261270D01*
X-16447179Y-297519D01*
X-16610165Y-320967D01*
X-16785719Y-330787D01*
X-16955440Y-326150D01*
X-17100926Y-306229D01*
X-17133747Y-298099D01*
X-17347647Y-215901D01*
X-17542379Y-97593D01*
X-17709345Y49865D01*
X-17839944Y219514D01*
X-17890818Y314605D01*
X-17929163Y417398D01*
X-17963349Y541624D01*
X-17983401Y644872D01*
X-17990752Y786276D01*
X-17566426Y786276D01*
X-17552091Y638634D01*
X-17531959Y557293D01*
X-17478706Y444559D01*
X-17398305Y329167D01*
X-17304322Y227798D01*
X-17210326Y157135D01*
X-17203542Y153480D01*
X-17006802Y77382D01*
X-16801811Y47037D01*
X-16598396Y63257D01*
X-16485836Y94032D01*
X-16308556Y181153D01*
X-16164090Y304823D01*
X-16056913Y461159D01*
X-16052480Y470034D01*
X-15999490Y626099D01*
X-15977507Y803202D01*
X-15986861Y982483D01*
X-16027879Y1145079D01*
X-16040211Y1174600D01*
X-16137542Y1333594D01*
X-16265239Y1458408D01*
X-16415936Y1548877D01*
X-16582264Y1604834D01*
X-16756858Y1626114D01*
X-16932351Y1612551D01*
X-17101376Y1563978D01*
X-17256566Y1480230D01*
X-17390555Y1361140D01*
X-17495535Y1207399D01*
X-17537081Y1089693D01*
X-17561067Y942974D01*
X-17566426Y786276D01*
X-17990752Y786276D01*
X-17996262Y892264D01*
X-17963850Y1126807D01*
X-17888650Y1343448D01*
X-17773143Y1537135D01*
X-17619813Y1702813D01*
X-17431140Y1835431D01*
X-17387081Y1858697D01*
X-17212795Y1933447D01*
X-17041470Y1978219D01*
X-16855595Y1996353D01*
X-16679514Y1993660D01*
G37*
X-19062451Y1979512D02*
X-18947752Y1953398D01*
X-18726650Y1862861D01*
X-18535207Y1736464D01*
X-18378278Y1578512D01*
X-18260718Y1393312D01*
X-18226063Y1313246D01*
X-18192036Y1219769D01*
X-18180417Y1160739D01*
X-18197702Y1128239D01*
X-18250388Y1114351D01*
X-18344971Y1111157D01*
X-18391931Y1111100D01*
X-18605861Y1111101D01*
X-18636767Y1204746D01*
X-18703357Y1330606D01*
X-18809862Y1441997D01*
X-18946037Y1532488D01*
X-19101636Y1595646D01*
X-19266415Y1625039D01*
X-19308301Y1626358D01*
X-19490631Y1603590D01*
X-19660935Y1539279D01*
X-19810484Y1439411D01*
X-19930547Y1309974D01*
X-20012395Y1156953D01*
X-20018593Y1139233D01*
X-20052144Y980576D01*
X-20057927Y805098D01*
X-20037241Y631173D01*
X-19991387Y477178D01*
X-19968325Y428969D01*
X-19862596Y278362D01*
X-19727721Y166197D01*
X-19580398Y94585D01*
X-19401711Y51574D01*
X-19222241Y51727D01*
X-19050428Y91715D01*
X-18894710Y168209D01*
X-18763526Y277878D01*
X-18665316Y417394D01*
X-18643733Y464111D01*
X-18597100Y577510D01*
X-18387550Y577605D01*
X-18284832Y576939D01*
X-18222716Y572880D01*
X-18191005Y562508D01*
X-18179503Y542906D01*
X-18178000Y517613D01*
X-18193525Y442598D01*
X-18235076Y342719D01*
X-18295122Y231248D01*
X-18366131Y121459D01*
X-18440571Y26624D01*
X-18479462Y-13619D01*
X-18659236Y-148631D01*
X-18868093Y-249311D01*
X-19094940Y-312413D01*
X-19328682Y-334694D01*
X-19524200Y-319164D01*
X-19717413Y-268443D01*
X-19905049Y-185377D01*
X-20074740Y-77360D01*
X-20214117Y48211D01*
X-20281011Y133335D01*
X-20362340Y267659D01*
X-20418230Y392613D01*
X-20452809Y523362D01*
X-20470207Y675070D01*
X-20474586Y844400D01*
X-20473081Y985306D01*
X-20467379Y1089312D01*
X-20455702Y1170264D01*
X-20436270Y1242006D01*
X-20416649Y1295303D01*
X-20311003Y1494957D01*
X-20164738Y1671474D01*
X-19985624Y1817184D01*
X-19781431Y1924415D01*
X-19778200Y1925698D01*
X-19622217Y1969586D01*
X-19438245Y1993608D01*
X-19245313Y1997128D01*
X-19062451Y1979512D01*
G36*
X-19062451Y1979512D02*
G01*
X-18947752Y1953398D01*
X-18726650Y1862861D01*
X-18535207Y1736464D01*
X-18378278Y1578512D01*
X-18260718Y1393312D01*
X-18226063Y1313246D01*
X-18192036Y1219769D01*
X-18180417Y1160739D01*
X-18197702Y1128239D01*
X-18250388Y1114351D01*
X-18344971Y1111157D01*
X-18391931Y1111100D01*
X-18605861Y1111101D01*
X-18636767Y1204746D01*
X-18703357Y1330606D01*
X-18809862Y1441997D01*
X-18946037Y1532488D01*
X-19101636Y1595646D01*
X-19266415Y1625039D01*
X-19308301Y1626358D01*
X-19490631Y1603590D01*
X-19660935Y1539279D01*
X-19810484Y1439411D01*
X-19930547Y1309974D01*
X-20012395Y1156953D01*
X-20018593Y1139233D01*
X-20052144Y980576D01*
X-20057927Y805098D01*
X-20037241Y631173D01*
X-19991387Y477178D01*
X-19968325Y428969D01*
X-19862596Y278362D01*
X-19727721Y166197D01*
X-19580398Y94585D01*
X-19401711Y51574D01*
X-19222241Y51727D01*
X-19050428Y91715D01*
X-18894710Y168209D01*
X-18763526Y277878D01*
X-18665316Y417394D01*
X-18643733Y464111D01*
X-18597100Y577510D01*
X-18387550Y577605D01*
X-18284832Y576939D01*
X-18222716Y572880D01*
X-18191005Y562508D01*
X-18179503Y542906D01*
X-18178000Y517613D01*
X-18193525Y442598D01*
X-18235076Y342719D01*
X-18295122Y231248D01*
X-18366131Y121459D01*
X-18440571Y26624D01*
X-18479462Y-13619D01*
X-18659236Y-148631D01*
X-18868093Y-249311D01*
X-19094940Y-312413D01*
X-19328682Y-334694D01*
X-19524200Y-319164D01*
X-19717413Y-268443D01*
X-19905049Y-185377D01*
X-20074740Y-77360D01*
X-20214117Y48211D01*
X-20281011Y133335D01*
X-20362340Y267659D01*
X-20418230Y392613D01*
X-20452809Y523362D01*
X-20470207Y675070D01*
X-20474586Y844400D01*
X-20473081Y985306D01*
X-20467379Y1089312D01*
X-20455702Y1170264D01*
X-20436270Y1242006D01*
X-20416649Y1295303D01*
X-20311003Y1494957D01*
X-20164738Y1671474D01*
X-19985624Y1817184D01*
X-19781431Y1924415D01*
X-19778200Y1925698D01*
X-19622217Y1969586D01*
X-19438245Y1993608D01*
X-19245313Y1997128D01*
X-19062451Y1979512D01*
G37*
%TD*%
%LPC*%
D14*
%TO.C,Ref\u002A\u002A*%
X175373000Y36258568D03*
%TD*%
%TO.C,Ref\u002A\u002A*%
X175373000Y17258568D03*
%TD*%
%TO.C,Ref\u002A\u002A*%
X-24127000Y36240500D03*
%TD*%
%TO.C,Ref\u002A\u002A*%
X-24127000Y17240500D03*
%TD*%
D15*
%TO.C,D13*%
X-44652000Y10768625D03*
D16*
X-44652000Y4768625D03*
%TD*%
D15*
%TO.C,D14*%
X-41652000Y10765500D03*
D16*
X-41652000Y4765500D03*
%TD*%
D15*
%TO.C,D34*%
X195845347Y10765068D03*
D16*
X195845347Y4765068D03*
%TD*%
D15*
%TO.C,D12*%
X34348000Y34765500D03*
D16*
X34348000Y28765500D03*
%TD*%
D15*
%TO.C,D33*%
X116845347Y34765068D03*
D16*
X116845347Y28765068D03*
%TD*%
D15*
%TO.C,D32*%
X119845347Y34765068D03*
D16*
X119845347Y28765068D03*
%TD*%
D15*
%TO.C,D31*%
X154845347Y34770068D03*
D16*
X154845347Y28770068D03*
%TD*%
D15*
%TO.C,D30*%
X157845347Y34765068D03*
D16*
X157845347Y28765068D03*
%TD*%
D15*
%TO.C,D29*%
X192845347Y29765068D03*
D16*
X192845347Y23765068D03*
%TD*%
D15*
%TO.C,D28*%
X195845347Y29765068D03*
D16*
X195845347Y23765068D03*
%TD*%
D15*
%TO.C,D27*%
X116845347Y53765068D03*
D16*
X116845347Y47765068D03*
%TD*%
D15*
%TO.C,D26*%
X119845347Y53765068D03*
D16*
X119845347Y47765068D03*
%TD*%
D15*
%TO.C,D25*%
X154845347Y53770068D03*
D16*
X154845347Y47770068D03*
%TD*%
D15*
%TO.C,D24*%
X157845347Y53765068D03*
D16*
X157845347Y47765068D03*
%TD*%
D15*
%TO.C,D23*%
X192845347Y48765068D03*
D16*
X192845347Y42765068D03*
%TD*%
D15*
%TO.C,D22*%
X195845347Y48765068D03*
D16*
X195845347Y42765068D03*
%TD*%
D15*
%TO.C,D42*%
X126355347Y-4229932D03*
D16*
X126355347Y-10229932D03*
%TD*%
D15*
%TO.C,D41*%
X129355347Y-4229932D03*
D16*
X129355347Y-10229932D03*
%TD*%
D15*
%TO.C,D40*%
X145345347Y-4244932D03*
D16*
X145345347Y-10244932D03*
%TD*%
D15*
%TO.C,D39*%
X116845347Y15765068D03*
D16*
X116845347Y9765068D03*
%TD*%
D15*
%TO.C,D38*%
X119845347Y15765068D03*
D16*
X119845347Y9765068D03*
%TD*%
D15*
%TO.C,D37*%
X154845347Y15770068D03*
D16*
X154845347Y9770068D03*
%TD*%
D15*
%TO.C,D36*%
X157845347Y15765068D03*
D16*
X157845347Y9765068D03*
%TD*%
D15*
%TO.C,D35*%
X192845347Y10765068D03*
D16*
X192845347Y4765068D03*
%TD*%
D15*
%TO.C,D1*%
X-44652000Y48768625D03*
D16*
X-44652000Y42768625D03*
%TD*%
D15*
%TO.C,D2*%
X-41652000Y48765500D03*
D16*
X-41652000Y42765500D03*
%TD*%
D15*
%TO.C,D3*%
X-6652000Y53765500D03*
D16*
X-6652000Y47765500D03*
%TD*%
D15*
%TO.C,D4*%
X-3652000Y53770500D03*
D16*
X-3652000Y47770500D03*
%TD*%
D15*
%TO.C,D5*%
X31348000Y53765500D03*
D16*
X31348000Y47765500D03*
%TD*%
D15*
%TO.C,D6*%
X34348000Y53765500D03*
D16*
X34348000Y47765500D03*
%TD*%
D15*
%TO.C,D7*%
X-44652000Y29768625D03*
D16*
X-44652000Y23768625D03*
%TD*%
D15*
%TO.C,D8*%
X-41652000Y29765500D03*
D16*
X-41652000Y23765500D03*
%TD*%
D15*
%TO.C,D9*%
X-6652000Y34765500D03*
D16*
X-6652000Y28765500D03*
%TD*%
D15*
%TO.C,D10*%
X-3652000Y34770500D03*
D16*
X-3652000Y28770500D03*
%TD*%
D15*
%TO.C,D11*%
X31348000Y34765500D03*
D16*
X31348000Y28765500D03*
%TD*%
D15*
%TO.C,D15*%
X-6652000Y15765500D03*
D16*
X-6652000Y9765500D03*
%TD*%
D15*
%TO.C,D16*%
X-3652000Y15770500D03*
D16*
X-3652000Y9770500D03*
%TD*%
D15*
%TO.C,D17*%
X31348000Y15765500D03*
D16*
X31348000Y9765500D03*
%TD*%
D15*
%TO.C,D18*%
X34348000Y15765500D03*
D16*
X34348000Y9765500D03*
%TD*%
D15*
%TO.C,D19*%
X5668000Y-4224500D03*
D16*
X5668000Y-10224500D03*
%TD*%
D15*
%TO.C,D20*%
X21848000Y-4219500D03*
D16*
X21848000Y-10219500D03*
%TD*%
D15*
%TO.C,D21*%
X24848000Y-4219500D03*
D16*
X24848000Y-10219500D03*
%TD*%
D17*
%TO.C,J6*%
X88268347Y7120068D03*
X81268347Y7120068D03*
%TD*%
%TO.C,J1*%
X62875000Y7253500D03*
X69875000Y7253500D03*
%TD*%
D18*
%TO.C,Ref\u002A\u002A*%
X96050347Y7143068D03*
%TD*%
%TO.C,Ref\u002A\u002A*%
X81491347Y-1399932D03*
%TD*%
%TO.C,Ref\u002A\u002A*%
X69537000Y-1254500D03*
%TD*%
%TO.C,Ref\u002A\u002A*%
X55105000Y7266500D03*
%TD*%
D14*
%TO.C,Ref\u002A\u002A*%
X194356347Y17258568D03*
%TD*%
%TO.C,Ref\u002A\u002A*%
X194356347Y36258568D03*
%TD*%
%TO.C,Ref\u002A\u002A*%
X151216347Y-11432D03*
%TD*%
%TO.C,Ref\u002A\u002A*%
X104646347Y-7761432D03*
%TD*%
%TO.C,Ref\u002A\u002A*%
X118396347Y39748568D03*
%TD*%
%TO.C,Ref\u002A\u002A*%
X46566000Y-7614500D03*
%TD*%
%TO.C,Ref\u002A\u002A*%
X0Y0D03*
%TD*%
%TO.C,Ref\u002A\u002A*%
X-43144000Y36265000D03*
%TD*%
%TO.C,Ref\u002A\u002A*%
X32811000Y39755000D03*
%TD*%
%TO.C,Ref\u002A\u002A*%
X-43144000Y17265000D03*
%TD*%
D19*
%TO.C,J5*%
X164800500Y-1704500D03*
X163613000Y-1704500D03*
X165394250Y-1704500D03*
X164206750Y-1704500D03*
X168363000Y-1704500D03*
X167769250Y-1704500D03*
X167175500Y-1704500D03*
X166581750Y-1704500D03*
X165988000Y-1704500D03*
%TD*%
%TO.C,J5*%
X202800500Y-1704500D03*
X201613000Y-1704500D03*
X203394250Y-1704500D03*
X202206750Y-1704500D03*
X206363000Y-1704500D03*
X205769250Y-1704500D03*
X205175500Y-1704500D03*
X204581750Y-1704500D03*
X203988000Y-1704500D03*
%TD*%
%TO.C,J5*%
X164770500Y59715500D03*
X163583000Y59715500D03*
X165364250Y59715500D03*
X164176750Y59715500D03*
X168333000Y59715500D03*
X167739250Y59715500D03*
X167145500Y59715500D03*
X166551750Y59715500D03*
X165958000Y59715500D03*
%TD*%
%TO.C,J5*%
X126750500Y59705500D03*
X125563000Y59705500D03*
X127344250Y59705500D03*
X126156750Y59705500D03*
X130313000Y59705500D03*
X129719250Y59705500D03*
X129125500Y59705500D03*
X128531750Y59705500D03*
X127938000Y59705500D03*
%TD*%
%TO.C,J5*%
X22230500Y59715500D03*
X21043000Y59715500D03*
X22824250Y59715500D03*
X21636750Y59715500D03*
X25793000Y59715500D03*
X25199250Y59715500D03*
X24605500Y59715500D03*
X24011750Y59715500D03*
X23418000Y59715500D03*
%TD*%
%TO.C,J5*%
X-15739500Y59715500D03*
X-16927000Y59715500D03*
X-15145750Y59715500D03*
X-16333250Y59715500D03*
X-12177000Y59715500D03*
X-12770750Y59715500D03*
X-13364500Y59715500D03*
X-13958250Y59715500D03*
X-14552000Y59715500D03*
%TD*%
%TO.C,J5*%
X-15842500Y-1694500D03*
X-17030000Y-1694500D03*
X-15248750Y-1694500D03*
X-16436250Y-1694500D03*
X-12280000Y-1694500D03*
X-12873750Y-1694500D03*
X-13467500Y-1694500D03*
X-14061250Y-1694500D03*
X-14655000Y-1694500D03*
%TD*%
%TO.C,J5*%
X-53830750Y-1694500D03*
X-55018250Y-1694500D03*
X-53237000Y-1694500D03*
X-54424500Y-1694500D03*
X-50268250Y-1694500D03*
X-50862000Y-1694500D03*
X-51455750Y-1694500D03*
X-52049500Y-1694500D03*
X-52643250Y-1694500D03*
%TD*%
%LPD*%
M02*
