%TF.GenerationSoftware,KiCad,Pcbnew,8.0.3*%
%TF.CreationDate,2024-08-02T01:13:42+01:00*%
%TF.ProjectId,corne-light,636f726e-652d-46c6-9967-68742e6b6963,2.0*%
%TF.SameCoordinates,Original*%
%TF.FileFunction,Paste,Bot*%
%TF.FilePolarity,Positive*%
%FSLAX46Y46*%
G04 Gerber Fmt 4.6, Leading zero omitted, Abs format (unit mm)*
G04 Created by KiCad (PCBNEW 8.0.3) date 2024-08-02 01:13:42*
%MOMM*%
%LPD*%
G01*
G04 APERTURE LIST*
%ADD10R,1.300000X1.400000*%
G04 APERTURE END LIST*
D10*
%TO.C,D13*%
X-44652000Y9543625D03*
X-44652000Y5993625D03*
%TD*%
%TO.C,D14*%
X-41652000Y9540500D03*
X-41652000Y5990500D03*
%TD*%
%TO.C,D34*%
X195845347Y9540068D03*
X195845347Y5990068D03*
%TD*%
%TO.C,D12*%
X34348000Y33540500D03*
X34348000Y29990500D03*
%TD*%
%TO.C,D33*%
X116845347Y33540068D03*
X116845347Y29990068D03*
%TD*%
%TO.C,D32*%
X119845347Y33540068D03*
X119845347Y29990068D03*
%TD*%
%TO.C,D31*%
X154845347Y33545068D03*
X154845347Y29995068D03*
%TD*%
%TO.C,D30*%
X157845347Y33540068D03*
X157845347Y29990068D03*
%TD*%
%TO.C,D29*%
X192845347Y28540068D03*
X192845347Y24990068D03*
%TD*%
%TO.C,D28*%
X195845347Y28540068D03*
X195845347Y24990068D03*
%TD*%
%TO.C,D27*%
X116845347Y52540068D03*
X116845347Y48990068D03*
%TD*%
%TO.C,D26*%
X119845347Y52540068D03*
X119845347Y48990068D03*
%TD*%
%TO.C,D25*%
X154845347Y52545068D03*
X154845347Y48995068D03*
%TD*%
%TO.C,D24*%
X157845347Y52540068D03*
X157845347Y48990068D03*
%TD*%
%TO.C,D23*%
X192845347Y47540068D03*
X192845347Y43990068D03*
%TD*%
%TO.C,D22*%
X195845347Y47540068D03*
X195845347Y43990068D03*
%TD*%
%TO.C,D42*%
X126355347Y-5454932D03*
X126355347Y-9004932D03*
%TD*%
%TO.C,D41*%
X129355347Y-5454932D03*
X129355347Y-9004932D03*
%TD*%
%TO.C,D40*%
X145345347Y-5469932D03*
X145345347Y-9019932D03*
%TD*%
%TO.C,D39*%
X116845347Y14540068D03*
X116845347Y10990068D03*
%TD*%
%TO.C,D38*%
X119845347Y14540068D03*
X119845347Y10990068D03*
%TD*%
%TO.C,D37*%
X154845347Y14545068D03*
X154845347Y10995068D03*
%TD*%
%TO.C,D36*%
X157845347Y14540068D03*
X157845347Y10990068D03*
%TD*%
%TO.C,D35*%
X192845347Y9540068D03*
X192845347Y5990068D03*
%TD*%
%TO.C,D1*%
X-44652000Y47543625D03*
X-44652000Y43993625D03*
%TD*%
%TO.C,D2*%
X-41652000Y47540500D03*
X-41652000Y43990500D03*
%TD*%
%TO.C,D3*%
X-6652000Y52540500D03*
X-6652000Y48990500D03*
%TD*%
%TO.C,D4*%
X-3652000Y52545500D03*
X-3652000Y48995500D03*
%TD*%
%TO.C,D5*%
X31348000Y52540500D03*
X31348000Y48990500D03*
%TD*%
%TO.C,D6*%
X34348000Y52540500D03*
X34348000Y48990500D03*
%TD*%
%TO.C,D7*%
X-44652000Y28543625D03*
X-44652000Y24993625D03*
%TD*%
%TO.C,D8*%
X-41652000Y28540500D03*
X-41652000Y24990500D03*
%TD*%
%TO.C,D9*%
X-6652000Y33540500D03*
X-6652000Y29990500D03*
%TD*%
%TO.C,D10*%
X-3652000Y33545500D03*
X-3652000Y29995500D03*
%TD*%
%TO.C,D11*%
X31348000Y33540500D03*
X31348000Y29990500D03*
%TD*%
%TO.C,D15*%
X-6652000Y14540500D03*
X-6652000Y10990500D03*
%TD*%
%TO.C,D16*%
X-3652000Y14545500D03*
X-3652000Y10995500D03*
%TD*%
%TO.C,D17*%
X31348000Y14540500D03*
X31348000Y10990500D03*
%TD*%
%TO.C,D18*%
X34348000Y14540500D03*
X34348000Y10990500D03*
%TD*%
%TO.C,D19*%
X5668000Y-5449500D03*
X5668000Y-8999500D03*
%TD*%
%TO.C,D20*%
X21848000Y-5444500D03*
X21848000Y-8994500D03*
%TD*%
%TO.C,D21*%
X24848000Y-5444500D03*
X24848000Y-8994500D03*
%TD*%
M02*
