M48
; DRILL file {KiCad 8.0.3} date 2024-08-02T01:13:42+0100
; FORMAT={-:-/ absolute / inch / decimal}
; #@! TF.CreationDate,2024-08-02T01:13:42+01:00
; #@! TF.GenerationSoftware,Kicad,Pcbnew,8.0.3
; #@! TF.FileFunction,NonPlated,1,2,NPTH
FMAT,2
INCH
; #@! TA.AperFunction,NonPlated,NPTH,ComponentDrill
T1C0.0118
; #@! TA.AperFunction,NonPlated,NPTH,ComponentDrill
T2C0.0472
; #@! TA.AperFunction,NonPlated,NPTH,ComponentDrill
T3C0.0669
; #@! TA.AperFunction,NonPlated,NPTH,ComponentDrill
T4C0.0709
; #@! TA.AperFunction,NonPlated,NPTH,ComponentDrill
T5C0.0906
; #@! TA.AperFunction,NonPlated,NPTH,ComponentDrill
T6C0.1693
; #@! TA.AperFunction,NonPlated,NPTH,ComponentDrill
T7C0.1929
%
G90
G05
T1
X-2.1661Y-0.0667
X-2.1427Y-0.0667
X-2.1193Y-0.0667
X-2.0959Y-0.0667
X-2.0726Y-0.0667
X-2.0492Y-0.0667
X-2.0258Y-0.0667
X-2.0024Y-0.0667
X-1.9791Y-0.0667
X-0.6705Y-0.0667
X-0.6664Y2.351
X-0.6471Y-0.0667
X-0.643Y2.351
X-0.6237Y-0.0667
X-0.6197Y2.351
X-0.6003Y-0.0667
X-0.5963Y2.351
X-0.577Y-0.0667
X-0.5729Y2.351
X-0.5536Y-0.0667
X-0.5495Y2.351
X-0.5302Y-0.0667
X-0.5262Y2.351
X-0.5068Y-0.0667
X-0.5028Y2.351
X-0.4835Y-0.0667
X-0.4794Y2.351
X0.8285Y2.351
X0.8518Y2.351
X0.8752Y2.351
X0.8986Y2.351
X0.922Y2.351
X0.9453Y2.351
X0.9687Y2.351
X0.9921Y2.351
X1.0155Y2.351
X4.9434Y2.3506
X4.9668Y2.3506
X4.9902Y2.3506
X5.0136Y2.3506
X5.0369Y2.3506
X5.0603Y2.3506
X5.0837Y2.3506
X5.1071Y2.3506
X5.1304Y2.3506
X6.4403Y2.351
X6.4415Y-0.0671
X6.4637Y2.351
X6.4648Y-0.0671
X6.487Y2.351
X6.4882Y-0.0671
X6.5104Y2.351
X6.5116Y-0.0671
X6.5338Y2.351
X6.535Y-0.0671
X6.5572Y2.351
X6.5583Y-0.0671
X6.5805Y2.351
X6.5817Y-0.0671
X6.6039Y2.351
X6.6051Y-0.0671
X6.6273Y2.351
X6.6285Y-0.0671
X7.9375Y-0.0671
X7.9609Y-0.0671
X7.9843Y-0.0671
X8.0076Y-0.0671
X8.031Y-0.0671
X8.0544Y-0.0671
X8.0778Y-0.0671
X8.1012Y-0.0671
X8.1245Y-0.0671
T2
X2.4754Y0.2856
X2.751Y0.2856
X3.1995Y0.2803
X3.4751Y0.2803
T3
X-2.2729Y1.8018
X-2.2729Y1.0538
X-2.2729Y0.3057
X-1.8729Y1.8018
X-1.8729Y1.0538
X-1.8729Y0.3057
X-1.5249Y1.8018
X-1.5249Y1.0538
X-1.5249Y0.3057
X-1.1249Y1.8018
X-1.1249Y1.0538
X-1.1249Y0.3057
X-0.7769Y1.9888
X-0.7769Y1.2408
X-0.7769Y0.4927
X-0.3769Y1.9888
X-0.3769Y1.2408
X-0.3769Y0.4927
X-0.0288Y2.0823
X-0.0288Y1.3343
X-0.0288Y0.5862
X0.3452Y-0.2799
X0.3712Y2.0823
X0.3712Y1.3343
X0.3712Y0.5862
X0.7192Y1.9888
X0.7192Y1.2408
X0.7192Y0.4927
X0.7452Y-0.2799
X1.1192Y1.9888
X1.1192Y1.2408
X1.1192Y0.4927
X1.1788Y-0.3364
X1.4672Y1.8953
X1.4672Y1.1473
X1.4672Y0.3992
X1.5652Y-0.4399
X1.8672Y1.8953
X1.8672Y1.1473
X1.8672Y0.3992
X2.148Y-0.709
X2.348Y-0.3626
X3.6045Y-0.3626
X3.8045Y-0.709
X4.0852Y1.8953
X4.0852Y1.1472
X4.0852Y0.3992
X4.3873Y-0.44
X4.4852Y1.8953
X4.4852Y1.1472
X4.4852Y0.3992
X4.7737Y-0.3364
X4.8333Y1.9888
X4.8333Y1.2408
X4.8333Y0.4927
X5.2073Y-0.2799
X5.2333Y1.9888
X5.2333Y1.2408
X5.2333Y0.4927
X5.5813Y2.0823
X5.5813Y1.3343
X5.5813Y0.5862
X5.6073Y-0.2799
X5.9813Y2.0823
X5.9813Y1.3343
X5.9813Y0.5862
X6.3293Y1.9888
X6.3293Y1.2408
X6.3293Y0.4927
X6.7293Y1.9888
X6.7293Y1.2408
X6.7293Y0.4927
X7.0774Y1.8018
X7.0774Y1.0537
X7.0774Y0.3057
X7.4774Y1.8018
X7.4774Y1.0537
X7.4774Y0.3057
X7.8254Y1.8018
X7.8254Y1.0537
X7.8254Y0.3057
X8.2254Y1.8018
X8.2254Y1.0537
X8.2254Y0.3057
T4
X-2.2894Y1.8018
X-2.2894Y1.0538
X-2.2894Y0.3057
X-1.8564Y1.8018
X-1.8564Y1.0538
X-1.8564Y0.3057
X-1.5414Y1.8018
X-1.5414Y1.0538
X-1.5414Y0.3057
X-1.1083Y1.8018
X-1.1083Y1.0538
X-1.1083Y0.3057
X-0.7934Y1.9888
X-0.7934Y1.2408
X-0.7934Y0.4927
X-0.3603Y1.9888
X-0.3603Y1.2408
X-0.3603Y0.4927
X-0.0454Y2.0823
X-0.0454Y1.3343
X-0.0454Y0.5862
X0.3287Y-0.2799
X0.3877Y2.0823
X0.3877Y1.3343
X0.3877Y0.5862
X0.7027Y1.9888
X0.7027Y1.2408
X0.7027Y0.4927
X0.7617Y-0.2799
X1.1357Y1.9888
X1.1357Y1.2408
X1.1357Y0.4927
X1.1628Y-0.3321
X1.4507Y1.8953
X1.4507Y1.1473
X1.4507Y0.3992
X1.5811Y-0.4442
X1.8838Y1.8953
X1.8838Y1.1473
X1.8838Y0.3992
X2.1397Y-0.7233
X2.3562Y-0.3483
X3.5963Y-0.3483
X3.8128Y-0.7233
X4.0687Y1.8953
X4.0687Y1.1472
X4.0687Y0.3992
X4.3714Y-0.4442
X4.5018Y1.8953
X4.5018Y1.1472
X4.5018Y0.3992
X4.7897Y-0.3321
X4.8167Y1.9888
X4.8167Y1.2408
X4.8167Y0.4927
X5.1908Y-0.2799
X5.2498Y1.9888
X5.2498Y1.2408
X5.2498Y0.4927
X5.5648Y2.0823
X5.5648Y1.3343
X5.5648Y0.5862
X5.6238Y-0.2799
X5.9978Y2.0823
X5.9978Y1.3343
X5.9978Y0.5862
X6.3128Y1.9888
X6.3128Y1.2408
X6.3128Y0.4927
X6.7459Y1.9888
X6.7459Y1.2408
X6.7459Y0.4927
X7.0608Y1.8018
X7.0608Y1.0537
X7.0608Y0.3057
X7.4939Y1.8018
X7.4939Y1.0537
X7.4939Y0.3057
X7.8089Y1.8018
X7.8089Y1.0537
X7.8089Y0.3057
X8.2419Y1.8018
X8.2419Y1.0537
X8.2419Y0.3057
T5
X2.1695Y0.2861
X2.7377Y-0.0494
X3.2083Y-0.0551
X3.7815Y0.2812
T6
X-1.6986Y1.4278
X-1.6986Y0.6797
X-0.9499Y1.4268
X-0.9499Y0.6788
X0.0Y0.0
X1.2918Y1.5652
X1.8333Y-0.2998
X4.1199Y-0.3056
X4.6613Y1.5649
X5.9534Y-0.0005
X6.9044Y1.4275
X6.9044Y0.6795
X7.6518Y1.4275
X7.6518Y0.6795
T7
X-2.0729Y1.8018
X-2.0729Y1.0538
X-2.0729Y0.3057
X-1.3249Y1.8018
X-1.3249Y1.0538
X-1.3249Y0.3057
X-0.5769Y1.9888
X-0.5769Y1.2408
X-0.5769Y0.4927
X0.1712Y2.0823
X0.1712Y1.3343
X0.1712Y0.5862
X0.5452Y-0.2799
X0.9192Y1.9888
X0.9192Y1.2408
X0.9192Y0.4927
X1.372Y-0.3882
X1.6672Y1.8953
X1.6672Y1.1473
X1.6672Y0.3992
X2.248Y-0.5358
X3.7045Y-0.5358
X4.2852Y1.8953
X4.2852Y1.1472
X4.2852Y0.3992
X4.5805Y-0.3882
X5.0333Y1.9888
X5.0333Y1.2408
X5.0333Y0.4927
X5.4073Y-0.2799
X5.7813Y2.0823
X5.7813Y1.3343
X5.7813Y0.5862
X6.5293Y1.9888
X6.5293Y1.2408
X6.5293Y0.4927
X7.2774Y1.8018
X7.2774Y1.0537
X7.2774Y0.3057
X8.0254Y1.8018
X8.0254Y1.0537
X8.0254Y0.3057
M30
