%TF.GenerationSoftware,KiCad,Pcbnew,8.0.3*%
%TF.CreationDate,2024-08-02T01:13:42+01:00*%
%TF.ProjectId,corne-light,636f726e-652d-46c6-9967-68742e6b6963,2.0*%
%TF.SameCoordinates,Original*%
%TF.FileFunction,Profile,NP*%
%FSLAX46Y46*%
G04 Gerber Fmt 4.6, Leading zero omitted, Abs format (unit mm)*
G04 Created by KiCad (PCBNEW 8.0.3) date 2024-08-02 01:13:42*
%MOMM*%
%LPD*%
G01*
G04 APERTURE LIST*
%TA.AperFunction,Profile*%
%ADD10C,0.200000*%
%TD*%
G04 APERTURE END LIST*
D10*
X194576750Y-443250D02*
X194733000Y-349500D01*
X194826750Y-162000D02*
X194858000Y25500D01*
X193889250Y-162000D02*
X193983000Y-349500D01*
X193983000Y-349500D02*
X194170500Y-443250D01*
X194826750Y-162000D02*
X194733000Y-349500D01*
X194170500Y-443250D02*
X194358000Y-474500D01*
X194576750Y-443250D02*
X194358000Y-474500D01*
X193858000Y25500D02*
X193889250Y-162000D01*
X194139250Y13994250D02*
X194358000Y14025500D01*
X194858000Y13525500D02*
X194826750Y13713000D01*
X194545500Y13994250D02*
X194358000Y14025500D01*
X194139250Y13994250D02*
X193983000Y13900500D01*
X193889250Y13713000D02*
X193858000Y13525500D01*
X194733000Y13900500D02*
X194545500Y13994250D01*
X193889250Y13713000D02*
X193983000Y13900500D01*
X194826750Y13713000D02*
X194733000Y13900500D01*
X193889250Y20838000D02*
X193983000Y20650500D01*
X193983000Y20650500D02*
X194170500Y20556750D01*
X194826750Y20838000D02*
X194733000Y20650500D01*
X194170500Y20556750D02*
X194358000Y20525500D01*
X194576750Y20556750D02*
X194733000Y20650500D01*
X193858000Y21025500D02*
X193889250Y20838000D01*
X194826750Y20838000D02*
X194858000Y21025500D01*
X194576750Y20556750D02*
X194358000Y20525500D01*
X194858000Y32525500D02*
X194826750Y32713000D01*
X193889250Y32713000D02*
X193983000Y32900500D01*
X194139250Y32994250D02*
X193983000Y32900500D01*
X194545500Y32994250D02*
X194358000Y33025500D01*
X194826750Y32713000D02*
X194733000Y32900500D01*
X194733000Y32900500D02*
X194545500Y32994250D01*
X193889250Y32713000D02*
X193858000Y32525500D01*
X194139250Y32994250D02*
X194358000Y33025500D01*
X193858000Y40025500D02*
X193889250Y39838000D01*
X193983000Y39650500D02*
X194170500Y39556750D01*
X194826750Y39838000D02*
X194858000Y40025500D01*
X194576750Y39556750D02*
X194358000Y39525500D01*
X194170500Y39556750D02*
X194358000Y39525500D01*
X193889250Y39838000D02*
X193983000Y39650500D01*
X194576750Y39556750D02*
X194733000Y39650500D01*
X194826750Y39838000D02*
X194733000Y39650500D01*
X194733000Y53650500D02*
X194545500Y53744250D01*
X194139250Y53744250D02*
X194358000Y53775500D01*
X193889250Y53463000D02*
X193983000Y53650500D01*
X194139250Y53744250D02*
X193983000Y53650500D01*
X193889250Y53463000D02*
X193858000Y53275500D01*
X194858000Y53275500D02*
X194826750Y53463000D01*
X194826750Y53463000D02*
X194733000Y53650500D01*
X194545500Y53744250D02*
X194358000Y53775500D01*
X-43517000Y-349500D02*
X-43329500Y-443250D01*
X-43329500Y-443250D02*
X-43142000Y-474500D01*
X-43610750Y-162000D02*
X-43517000Y-349500D01*
X-43642000Y25500D02*
X-43610750Y-162000D01*
X-42673250Y-162000D02*
X-42767000Y-349500D01*
X-42923250Y-443250D02*
X-43142000Y-474500D01*
X-42923250Y-443250D02*
X-42767000Y-349500D01*
X-42673250Y-162000D02*
X-42642000Y25500D01*
X-43360750Y13744250D02*
X-43142000Y13775500D01*
X-42642000Y13275500D02*
X-42673250Y13463000D01*
X-43610750Y13463000D02*
X-43642000Y13275500D01*
X-42767000Y13650500D02*
X-42954500Y13744250D01*
X-42954500Y13744250D02*
X-43142000Y13775500D01*
X-42673250Y13463000D02*
X-42767000Y13650500D01*
X-43610750Y13463000D02*
X-43517000Y13650500D01*
X-43360750Y13744250D02*
X-43517000Y13650500D01*
X-43642000Y21025500D02*
X-43610750Y20838000D01*
X-42923250Y20556750D02*
X-43142000Y20525500D01*
X-43517000Y20650500D02*
X-43329500Y20556750D01*
X-42923250Y20556750D02*
X-42767000Y20650500D01*
X-43610750Y20838000D02*
X-43517000Y20650500D01*
X-42673250Y20838000D02*
X-42767000Y20650500D01*
X-42673250Y20838000D02*
X-42642000Y21025500D01*
X-43329500Y20556750D02*
X-43142000Y20525500D01*
X-42767000Y32900500D02*
X-42954500Y32994250D01*
X-43360750Y32994250D02*
X-43142000Y33025500D01*
X-43610750Y32713000D02*
X-43517000Y32900500D01*
X-43360750Y32994250D02*
X-43517000Y32900500D01*
X-43610750Y32713000D02*
X-43642000Y32525500D01*
X-42642000Y32525500D02*
X-42673250Y32713000D01*
X-42673250Y32713000D02*
X-42767000Y32900500D01*
X-42954500Y32994250D02*
X-43142000Y33025500D01*
X-43517000Y39650500D02*
X-43329500Y39556750D01*
X-42923250Y39556750D02*
X-43142000Y39525500D01*
X-42673250Y39838000D02*
X-42767000Y39650500D01*
X-42923250Y39556750D02*
X-42767000Y39650500D01*
X-42673250Y39838000D02*
X-42642000Y40025500D01*
X-43642000Y40025500D02*
X-43610750Y39838000D01*
X-43610750Y39838000D02*
X-43517000Y39650500D01*
X-43329500Y39556750D02*
X-43142000Y39525500D01*
X-42642000Y53275500D02*
X-42673250Y53463000D01*
X-42673250Y53463000D02*
X-42767000Y53650500D01*
X-43610750Y53463000D02*
X-43642000Y53275500D01*
X-43610750Y53463000D02*
X-43517000Y53650500D01*
X-42767000Y53650500D02*
X-42954500Y53744250D01*
X-43360750Y53744250D02*
X-43517000Y53650500D01*
X-42954500Y53744250D02*
X-43142000Y53775500D01*
X-43360750Y53744250D02*
X-43142000Y53775500D01*
X194858000Y25500D02*
X194858000Y13525500D01*
X193858000Y13525500D02*
X193858000Y25500D01*
X194858000Y21025500D02*
X194858000Y32525500D01*
X193858000Y32525500D02*
X193858000Y21025500D01*
X193858000Y53275500D02*
X193858000Y40025500D01*
X194858000Y40025500D02*
X194858000Y53275500D01*
X-42642000Y32525500D02*
X-42642000Y21025500D01*
X-43642000Y21025500D02*
X-43642000Y32525500D01*
X-42642000Y13275500D02*
X-42642000Y25500D01*
X-43642000Y25500D02*
X-43642000Y13275500D01*
X-43642000Y40025500D02*
X-43642000Y53275500D01*
X-42642000Y53275500D02*
X-42642000Y40025500D01*
X-24255732Y54756022D02*
X-61142000Y54756022D01*
X-54982082Y-1967202D02*
X-55050662Y-2188181D01*
X-55050662Y-2188181D02*
X-55050662Y-2188181D01*
X-55050662Y-2188181D02*
X-55053202Y-2193261D01*
X-55053202Y-2193261D02*
X-55053202Y-2198341D01*
X-55053202Y-2198341D02*
X-55162422Y-2401541D01*
X-55162422Y-2401541D02*
X-55162422Y-2401541D01*
X-55162422Y-2401541D02*
X-55164962Y-2406621D01*
X-8014988Y-3061940D02*
X-8014988Y-3061940D01*
X-8014988Y-3061940D02*
X-8014988Y-3064480D01*
X-8014988Y-3064480D02*
X-8009908Y-3064480D01*
X-8009908Y-3064480D02*
X-8007368Y-3069560D01*
X-8007368Y-3069560D02*
X-7827028Y-3214340D01*
X-7827028Y-3214340D02*
X-7827028Y-3214340D01*
X-7827028Y-3214340D02*
X-7824488Y-3219420D01*
X-7824488Y-3219420D02*
X-7821948Y-3221960D01*
X-7821948Y-3221960D02*
X-7672089Y-3399760D01*
X-7672089Y-3399760D02*
X-7672089Y-3399760D01*
X-7672089Y-3399760D02*
X-7669549Y-3404840D01*
X-7669549Y-3404840D02*
X-7667009Y-3407380D01*
X-7667009Y-3407380D02*
X-7557789Y-3613120D01*
X-7557789Y-3613120D02*
X-7557789Y-3613120D01*
X-7557789Y-3613120D02*
X-7557789Y-3613120D01*
X-7557789Y-3613120D02*
X-7557789Y-3613120D01*
X-7557789Y-3613120D02*
X-7555249Y-3615660D01*
X-7555249Y-3615660D02*
X-7552709Y-3620740D01*
X-7552709Y-3620740D02*
X-7484129Y-3841720D01*
X-7484129Y-3841720D02*
X-7484129Y-3844260D01*
X-7484129Y-3844260D02*
X-7484129Y-3846800D01*
X-7484129Y-3846800D02*
X-7484129Y-3851880D01*
X-7484129Y-3851880D02*
X-7458729Y-4083019D01*
X-7458729Y-4083019D02*
X-7458729Y-4083019D01*
X-7458729Y-4083019D02*
X-7458729Y-4085559D01*
X-7458729Y-4085559D02*
X-7458729Y-4088099D01*
X-7458729Y-4088099D02*
X-7458729Y-4093179D01*
X-7458729Y-4093179D02*
X-7458729Y-4093179D01*
X-7458729Y-4093179D02*
X-7458729Y-31271153D01*
X-7458729Y-31271153D02*
X-7458729Y-31276233D01*
X-7458729Y-31276233D02*
X-7435869Y-31499752D01*
X-7435869Y-31499752D02*
X-7369829Y-31710572D01*
X-7369829Y-31710572D02*
X-7263149Y-31906152D01*
X-7263149Y-31906152D02*
X-7123449Y-32076332D01*
X-7123449Y-32076332D02*
X-6950729Y-32218572D01*
X-6755150Y-32322712D02*
X-6541790Y-32386212D01*
X-6541790Y-32386212D02*
X-6318270Y-32409071D01*
X-6318270Y-32409071D02*
X158847607Y-32398911D01*
X158847607Y-32398911D02*
X158855227Y-32398911D01*
X158855227Y-32398911D02*
X159076207Y-32376052D01*
X159076207Y-32376052D02*
X159289566Y-32310012D01*
X159289566Y-32310012D02*
X159485146Y-32203332D01*
X159485146Y-32203332D02*
X159655326Y-32063632D01*
X159655326Y-32063632D02*
X159797566Y-31890912D01*
X159797566Y-31890912D02*
X159899166Y-31695332D01*
X159899166Y-31695332D02*
X159965206Y-31481972D01*
X159965206Y-31481972D02*
X159985526Y-31258453D01*
X159985526Y-31258453D02*
X159985526Y-4085559D01*
X159985526Y-4085559D02*
X159985526Y-4083019D01*
X159985526Y-4083019D02*
X159985526Y-4083019D01*
X159985526Y-4083019D02*
X160008386Y-3851880D01*
X160008386Y-3851880D02*
X160008386Y-3851880D01*
X160008386Y-3851880D02*
X160008386Y-3851880D01*
X160008386Y-3851880D02*
X160008386Y-3849340D01*
X160008386Y-3849340D02*
X160010926Y-3846800D01*
X160010926Y-3846800D02*
X160010926Y-3841720D01*
X160010926Y-3841720D02*
X160079506Y-3620740D01*
X160079506Y-3620740D02*
X160079506Y-3620740D01*
X160079506Y-3620740D02*
X160079506Y-3615660D01*
X160079506Y-3615660D02*
X160082046Y-3610580D01*
X160082046Y-3610580D02*
X160191266Y-3407380D01*
X160191266Y-3407380D02*
X160191266Y-3407380D01*
X160191266Y-3407380D02*
X160191266Y-3407380D01*
X160191266Y-3407380D02*
X160191266Y-3404840D01*
X160191266Y-3404840D02*
X160193806Y-3402300D01*
X160193806Y-3402300D02*
X160196346Y-3399760D01*
X160196346Y-3399760D02*
X160341125Y-3219420D01*
X160341125Y-3219420D02*
X160343665Y-3219420D01*
X160343665Y-3219420D02*
X160346205Y-3214340D01*
X160346205Y-3214340D02*
X160348745Y-3211800D01*
X160348745Y-3211800D02*
X160529085Y-3064480D01*
X160529085Y-3064480D02*
X160529085Y-3064480D01*
X160529085Y-3064480D02*
X160531625Y-3061940D01*
X160531625Y-3061940D02*
X160536705Y-3059400D01*
X160536705Y-3059400D02*
X160739905Y-2947641D01*
X160739905Y-2947641D02*
X160739905Y-2947641D01*
X160739905Y-2947641D02*
X160739905Y-2947641D01*
X160739905Y-2947641D02*
X160739905Y-2947641D01*
X160739905Y-2947641D02*
X160744985Y-2947641D01*
X160744985Y-2947641D02*
X160750065Y-2945101D01*
X160750065Y-2945101D02*
X160971045Y-2876521D01*
X160971045Y-2876521D02*
X160971045Y-2876521D01*
X160971045Y-2876521D02*
X160971045Y-2876521D01*
X160971045Y-2876521D02*
X160976125Y-2873981D01*
X160976125Y-2873981D02*
X160978665Y-2873981D01*
X160978665Y-2873981D02*
X161209805Y-2848581D01*
X161209805Y-2848581D02*
X161212345Y-2848581D01*
X161212345Y-2848581D02*
X161212345Y-2848581D01*
X161212345Y-2848581D02*
X161214885Y-2848581D01*
X161214885Y-2848581D02*
X161222505Y-2848581D01*
X161222505Y-2848581D02*
X161222505Y-2848581D01*
X161222505Y-2848581D02*
X162411223Y-2848581D01*
X162411223Y-2848581D02*
X162416303Y-2848581D01*
X162416303Y-2848581D02*
X162639823Y-2825721D01*
X162639823Y-2825721D02*
X162853183Y-2759681D01*
X162853183Y-2759681D02*
X163046223Y-2655541D01*
X163046223Y-2655541D02*
X163218943Y-2513301D01*
X163218943Y-2513301D02*
X163358642Y-2340581D01*
X163358642Y-2340581D02*
X163462782Y-2145001D01*
X163462782Y-2145001D02*
X163526282Y-1931642D01*
X163526282Y-1931642D02*
X163549142Y-1710662D01*
X163549142Y-1710662D02*
X163556762Y-1502382D01*
X125555860Y59500738D02*
X125548240Y62411575D01*
X125548240Y62411575D02*
X125548240Y62419195D01*
X125548240Y62419195D02*
X125525380Y62642715D01*
X125525380Y62642715D02*
X125459340Y62853534D01*
X125459340Y62853534D02*
X125355200Y63049114D01*
X125355200Y63049114D02*
X125212960Y63219294D01*
X124844660Y63463134D02*
X124631301Y63529174D01*
X124631301Y63529174D02*
X124410321Y63549494D01*
X124410321Y63549494D02*
X26930297Y63541874D01*
X26930297Y63541874D02*
X26922677Y63541874D01*
X26922677Y63541874D02*
X26701697Y63519014D01*
X26701697Y63519014D02*
X26488338Y63452974D01*
X26488338Y63452974D02*
X26292758Y63346294D01*
X26292758Y63346294D02*
X26122578Y63204054D01*
X26122578Y63204054D02*
X25980338Y63033874D01*
X25980338Y63033874D02*
X25876198Y62838294D01*
X25876198Y62838294D02*
X25812698Y62624935D01*
X25812698Y62624935D02*
X25792378Y62401415D01*
X25792378Y62401415D02*
X25797458Y59505818D01*
X168405617Y-1499842D02*
X168400537Y-1710662D01*
X168400537Y-1710662D02*
X168400537Y-1718282D01*
X168400537Y-1718282D02*
X168423397Y-1941802D01*
X168423397Y-1941802D02*
X168489437Y-2152621D01*
X168489437Y-2152621D02*
X168593577Y-2348201D01*
X168593577Y-2348201D02*
X168735817Y-2518381D01*
X168735817Y-2518381D02*
X168908537Y-2660621D01*
X168908537Y-2660621D02*
X169104117Y-2764761D01*
X169104117Y-2764761D02*
X169314937Y-2828261D01*
X169314937Y-2828261D02*
X169538456Y-2848581D01*
X169538456Y-2848581D02*
X200412126Y-2848581D01*
X200412126Y-2848581D02*
X200417206Y-2848581D01*
X200417206Y-2848581D02*
X200640726Y-2825721D01*
X200640726Y-2825721D02*
X200851545Y-2759681D01*
X200851545Y-2759681D02*
X201047125Y-2655541D01*
X201047125Y-2655541D02*
X201217305Y-2513301D01*
X201217305Y-2513301D02*
X201359545Y-2340581D01*
X201359545Y-2340581D02*
X201461145Y-2145001D01*
X201461145Y-2145001D02*
X201527185Y-1931642D01*
X201527185Y-1931642D02*
X201547505Y-1710662D01*
X201547505Y-1710662D02*
X201555125Y-1499842D01*
X-50184027Y-1949422D02*
X-50120527Y-2162781D01*
X-50120527Y-2162781D02*
X-50013847Y-2355821D01*
X-50013847Y-2355821D02*
X-49871607Y-2528541D01*
X-49871607Y-2528541D02*
X-49701427Y-2668241D01*
X-49701427Y-2668241D02*
X-49503307Y-2772381D01*
X-49503307Y-2772381D02*
X-49292488Y-2835881D01*
X-49292488Y-2835881D02*
X-49068968Y-2858741D01*
X-49068968Y-2858741D02*
X-18195298Y-2858741D01*
X-18195298Y-2858741D02*
X-18190218Y-2858741D01*
X-18190218Y-2858741D02*
X-17966698Y-2835881D01*
X-17966698Y-2835881D02*
X-17755879Y-2769841D01*
X-17755879Y-2769841D02*
X-17560299Y-2663161D01*
X-17560299Y-2663161D02*
X-17390119Y-2523461D01*
X-17390119Y-2523461D02*
X-17247879Y-2350741D01*
X-17247879Y-2350741D02*
X-17143739Y-2155161D01*
X-17143739Y-2155161D02*
X-17080239Y-1941802D01*
X-17080239Y-1941802D02*
X-17057379Y-1718282D01*
X-17057379Y-1718282D02*
X-17052299Y-1499842D01*
X163546602Y59500738D02*
X163549142Y62411575D01*
X163549142Y62411575D02*
X163549142Y62419195D01*
X163549142Y62419195D02*
X163526282Y62642715D01*
X163526282Y62642715D02*
X163460242Y62853534D01*
X163460242Y62853534D02*
X163353562Y63049114D01*
X163353562Y63049114D02*
X163211323Y63219294D01*
X163211323Y63219294D02*
X163041143Y63358994D01*
X163041143Y63358994D02*
X162845563Y63463134D01*
X162845563Y63463134D02*
X162632203Y63529174D01*
X162632203Y63529174D02*
X162408683Y63549494D01*
X162408683Y63549494D02*
X131537554Y63549494D01*
X131537554Y63549494D02*
X131529934Y63549494D01*
X131529934Y63549494D02*
X131306414Y63526634D01*
X131306414Y63526634D02*
X131095594Y63460594D01*
X131095594Y63460594D02*
X130900015Y63356454D01*
X130900015Y63356454D02*
X130729835Y63214214D01*
X130729835Y63214214D02*
X130590135Y63041494D01*
X130590135Y63041494D02*
X130485995Y62845914D01*
X130485995Y62845914D02*
X130419955Y62632555D01*
X130419955Y62632555D02*
X130399635Y62411575D01*
X130399635Y62411575D02*
X130397095Y59498198D01*
X20946063Y59505818D02*
X20940983Y62403955D01*
X20940983Y62403955D02*
X20940983Y62409035D01*
X20940983Y62409035D02*
X20918123Y62632555D01*
X20918123Y62632555D02*
X20852083Y62843374D01*
X20852083Y62843374D02*
X20747943Y63038954D01*
X20747943Y63038954D02*
X20605703Y63211674D01*
X20605703Y63211674D02*
X20432984Y63351374D01*
X20432984Y63351374D02*
X20237404Y63455514D01*
X20237404Y63455514D02*
X20024044Y63519014D01*
X20024044Y63519014D02*
X19800524Y63541874D01*
X19800524Y63541874D02*
X-11070605Y63541874D01*
X-11070605Y63541874D02*
X-11075685Y63541874D01*
X-11075685Y63541874D02*
X-11299205Y63519014D01*
X-11299205Y63519014D02*
X-11512565Y63452974D01*
X-11512565Y63452974D02*
X-11708145Y63346294D01*
X-11708145Y63346294D02*
X-11878324Y63204054D01*
X-11878324Y63204054D02*
X-12018024Y63033874D01*
X-12018024Y63033874D02*
X-12122164Y62838294D01*
X-12122164Y62838294D02*
X-12185664Y62624935D01*
X-12185664Y62624935D02*
X-12208524Y62401415D01*
X-12208524Y62401415D02*
X-12203444Y59505818D01*
X207531739Y-2950181D02*
X207300599Y-2927321D01*
X213094333Y-35764408D02*
X213234033Y-35591688D01*
X125040240Y63358994D02*
X124844660Y63463134D01*
X125212960Y63219294D02*
X125040240Y63358994D01*
X-6950729Y-32218572D02*
X-6755150Y-32322712D01*
X213424533Y-4080479D02*
X213424533Y-34959229D01*
X-62083915Y-4098259D02*
X-62083915Y-34969389D01*
X-54964302Y-1494762D02*
X-54959222Y-1723362D01*
X-54959222Y-1723362D02*
X-54959222Y-1725902D01*
X-54959222Y-1725902D02*
X-54959222Y-1725902D01*
X-54959222Y-1725902D02*
X-54982082Y-1957042D01*
X-54982082Y-1957042D02*
X-54982082Y-1957042D01*
X-54982082Y-1957042D02*
X-54982082Y-1957042D01*
X-54982082Y-1957042D02*
X-54982082Y-1957042D01*
X-54982082Y-1957042D02*
X-54982082Y-1962122D01*
X-54982082Y-1962122D02*
X-54982082Y-1967202D01*
X-50204347Y-1499842D02*
X-50209427Y-1720822D01*
X-50209427Y-1720822D02*
X-50209427Y-1725902D01*
X-50209427Y-1725902D02*
X-50184027Y-1949422D01*
X41824842Y-21034963D02*
X41664823Y-21014643D01*
X41997562Y-21062903D02*
X41824842Y-21034963D01*
X42162662Y-21101003D02*
X41997562Y-21062903D01*
X42320142Y-21144183D02*
X42162662Y-21101003D01*
X71994933Y-5304758D02*
X71994933Y-5220938D01*
X71977153Y-5490178D02*
X71994933Y-5304758D01*
X71944133Y-5657818D02*
X71977153Y-5490178D01*
X71895873Y-5815298D02*
X71944133Y-5657818D01*
X71837453Y-5957538D02*
X71895873Y-5815298D01*
X71768873Y-6092157D02*
X71837453Y-5957538D01*
X32246512Y57504300D02*
X32246512Y59005438D01*
X50745314Y57006460D02*
X32744351Y57006460D01*
X71662193Y54725542D02*
X71494553Y54756022D01*
X71794273Y54656963D02*
X71662193Y54725542D01*
X71893333Y54555363D02*
X71794273Y54656963D01*
X71964453Y54425823D02*
X71893333Y54555363D01*
X71994933Y54255643D02*
X71964453Y54425823D01*
X71994933Y54255643D02*
X71994933Y-5220938D01*
X-54964302Y-1494762D02*
X-61253336Y-1494762D01*
X-61753715Y54255643D02*
X-61753715Y-994383D01*
X12744411Y61756256D02*
X-4255792Y61756256D01*
X13244791Y60006197D02*
X13244791Y61255876D01*
X20946063Y59505818D02*
X13745170Y59505818D01*
X42320142Y-21144183D02*
X56615248Y-29406794D01*
X51245693Y56506081D02*
X51245693Y55256402D01*
X50912954Y56975980D02*
X50745314Y57006460D01*
X51045033Y56904860D02*
X50912954Y56975980D01*
X51144093Y56805800D02*
X51045033Y56904860D01*
X51215213Y56676261D02*
X51144093Y56805800D01*
X51245693Y56506081D02*
X51215213Y56676261D01*
X-23755353Y59005438D02*
X-23755353Y55256402D01*
X-16953239Y59505818D02*
X-23254973Y59505818D01*
X-4753632Y61255876D02*
X-4756172Y60006197D01*
X71494553Y54756022D02*
X51746073Y54756022D01*
X-6165870Y-1502382D02*
X-6254770Y-1474500D01*
X-6018550Y-1555722D02*
X-6165870Y-1502382D01*
X-5901710Y-1642082D02*
X-6018550Y-1555722D01*
X-61423516Y-1464282D02*
X-61253336Y-1494762D01*
X-61553055Y-1395702D02*
X-61423516Y-1464282D01*
X-61654655Y-1294102D02*
X-61553055Y-1395702D01*
X-61725775Y-1164562D02*
X-61654655Y-1294102D01*
X-61753715Y-994383D02*
X-61725775Y-1164562D01*
X-61253336Y-1494762D02*
X-61253336Y-1494762D01*
X-61725775Y54423283D02*
X-61753715Y54255643D01*
X-61654655Y54552823D02*
X-61725775Y54423283D01*
X-61555595Y54654423D02*
X-61654655Y54552823D01*
X-61426056Y54725542D02*
X-61555595Y54654423D01*
X-61142000Y54756022D02*
X-61426056Y54725542D01*
X-61753715Y54255643D02*
X-61753715Y54255643D01*
X-23783293Y55086222D02*
X-23755353Y55253862D01*
X-23854413Y54956682D02*
X-23783293Y55086222D01*
X-23953473Y54855082D02*
X-23854413Y54956682D01*
X-24083012Y54783962D02*
X-23953473Y54855082D01*
X-24255732Y54756022D02*
X-24083012Y54783962D01*
X-23755353Y55253862D02*
X-23755353Y55256402D01*
X-23724873Y59173078D02*
X-23755353Y59005438D01*
X-23656293Y59302618D02*
X-23724873Y59173078D01*
X-23554693Y59404218D02*
X-23656293Y59302618D01*
X-23425153Y59475338D02*
X-23554693Y59404218D01*
X-23254973Y59505818D02*
X-23425153Y59475338D01*
X-4784111Y59836017D02*
X-4753632Y60006197D01*
X-4852691Y59706478D02*
X-4784111Y59836017D01*
X-4954291Y59604878D02*
X-4852691Y59706478D01*
X-5083831Y59533758D02*
X-4954291Y59604878D01*
X-5254011Y59505818D02*
X-5083831Y59533758D01*
X-4753632Y60006197D02*
X-4753632Y60006197D01*
X-4725692Y61423516D02*
X-4753632Y61255876D01*
X-4654572Y61553056D02*
X-4725692Y61423516D01*
X-4555512Y61654656D02*
X-4654572Y61553056D01*
X-4425972Y61725776D02*
X-4555512Y61654656D01*
X-4255792Y61756256D02*
X-4425972Y61725776D01*
X-4753632Y61255876D02*
X-4753632Y61255876D01*
X12914591Y61725776D02*
X12744411Y61756256D01*
X13044131Y61657196D02*
X12914591Y61725776D01*
X13145731Y61555596D02*
X13044131Y61657196D01*
X13216851Y61426056D02*
X13145731Y61555596D01*
X13244791Y61255876D02*
X13216851Y61426056D01*
X12744411Y61756256D02*
X12744411Y61756256D01*
X13577530Y59533758D02*
X13745170Y59505818D01*
X13445451Y59604878D02*
X13577530Y59533758D01*
X13346391Y59703938D02*
X13445451Y59604878D01*
X13275271Y59833477D02*
X13346391Y59703938D01*
X13244791Y60006197D02*
X13275271Y59833477D01*
X13745170Y59505818D02*
X13745170Y59505818D01*
X31913772Y59475338D02*
X31746132Y59505818D01*
X32043312Y59406758D02*
X31913772Y59475338D01*
X32144912Y59305158D02*
X32043312Y59406758D01*
X32216032Y59175618D02*
X32144912Y59305158D01*
X32246512Y59005438D02*
X32216032Y59175618D01*
X32576712Y57034400D02*
X32744351Y57006460D01*
X32447172Y57105520D02*
X32576712Y57034400D01*
X32345572Y57204580D02*
X32447172Y57105520D01*
X32274452Y57334120D02*
X32345572Y57204580D01*
X32246512Y57504300D02*
X32274452Y57334120D01*
X58543106Y-29025795D02*
X71768873Y-6092157D01*
X58540566Y-29030875D02*
X58543106Y-29025795D01*
X58484686Y-29107075D02*
X58540566Y-29030875D01*
X58390706Y-29216295D02*
X58484686Y-29107075D01*
X58286566Y-29312815D02*
X58390706Y-29216295D01*
X58164646Y-29406794D02*
X58286566Y-29312815D01*
X58040186Y-29480454D02*
X58164646Y-29406794D01*
X57895407Y-29546494D02*
X58040186Y-29480454D01*
X57743007Y-29597294D02*
X57895407Y-29546494D01*
X57575367Y-29630314D02*
X57743007Y-29597294D01*
X57387407Y-29643014D02*
X57575367Y-29630314D01*
X57199447Y-29630314D02*
X57387407Y-29643014D01*
X57031807Y-29594754D02*
X57199447Y-29630314D01*
X56879408Y-29543954D02*
X57031807Y-29594754D01*
X56739708Y-29480454D02*
X56879408Y-29543954D01*
X56615248Y-29406794D02*
X56739708Y-29480454D01*
X4994879Y-16244527D02*
X41664823Y-21014643D01*
X4905979Y-16236907D02*
X4994879Y-16244527D01*
X4756119Y-16183568D02*
X4905979Y-16236907D01*
X4641819Y-16097208D02*
X4756119Y-16183568D01*
X-5901710Y-1642082D02*
X4641819Y-16097208D01*
X51575893Y54783962D02*
X51746073Y54756022D01*
X51446353Y54855082D02*
X51575893Y54783962D01*
X51344753Y54954142D02*
X51446353Y54855082D01*
X51276173Y55083682D02*
X51344753Y54954142D01*
X51245693Y55256402D02*
X51276173Y55083682D01*
X51746073Y54756022D02*
X51746073Y54756022D01*
X109353216Y-21042583D02*
X109513236Y-21022263D01*
X109180496Y-21070523D02*
X109353216Y-21042583D01*
X109015396Y-21108623D02*
X109180496Y-21070523D01*
X108857916Y-21151803D02*
X109015396Y-21108623D01*
X79185666Y-5319998D02*
X79183126Y-5226018D01*
X79203446Y-5502878D02*
X79185666Y-5319998D01*
X79236466Y-5667978D02*
X79203446Y-5502878D01*
X79282185Y-5822918D02*
X79236466Y-5667978D01*
X79343145Y-5967698D02*
X79282185Y-5822918D01*
X79411725Y-6099777D02*
X79343145Y-5967698D01*
X118934086Y57501760D02*
X118934086Y59000358D01*
X100432745Y57001380D02*
X118433707Y57001380D01*
X79515865Y54720462D02*
X79683505Y54748402D01*
X79386325Y54649343D02*
X79515865Y54720462D01*
X79284725Y54547743D02*
X79386325Y54649343D01*
X79213606Y54418203D02*
X79284725Y54547743D01*
X79183126Y54248023D02*
X79213606Y54418203D01*
X79183126Y54250563D02*
X79183126Y-5223478D01*
X168405617Y-1499842D02*
X201555125Y-1499842D01*
X212934314Y54248023D02*
X212934314Y-999463D01*
X175433791Y54750942D02*
X212433934Y54748402D01*
X138433647Y61751176D02*
X155433850Y61751176D01*
X137933268Y60001117D02*
X137933268Y61250796D01*
X119434466Y59500738D02*
X125555860Y59500738D01*
X108857916Y-21151803D02*
X94565350Y-29411874D01*
X99932365Y56498461D02*
X99932365Y55248782D01*
X100265105Y56968360D02*
X100432745Y56998840D01*
X100135565Y56899780D02*
X100265105Y56968360D01*
X100033965Y56798180D02*
X100135565Y56899780D01*
X99962845Y56668641D02*
X100033965Y56798180D01*
X99932365Y56498461D02*
X99962845Y56668641D01*
X174933411Y59000358D02*
X174933411Y55251322D01*
X156434609Y59500738D02*
X163546602Y59500738D01*
X155934230Y61250796D02*
X155934230Y60001117D01*
X79683505Y54750942D02*
X99434526Y54748402D01*
X157341388Y-1510002D02*
X157432828Y-1502382D01*
X157194069Y-1563342D02*
X157341388Y-1510002D01*
X157079769Y-1647162D02*
X157194069Y-1563342D01*
X212601574Y-1471902D02*
X212433934Y-1502382D01*
X212731114Y-1403322D02*
X212601574Y-1471902D01*
X212832714Y-1301722D02*
X212731114Y-1403322D01*
X212903834Y-1172182D02*
X212832714Y-1301722D01*
X212934314Y-1002003D02*
X212903834Y-1172182D01*
X212433934Y-1502382D02*
X212433934Y-1502382D01*
X212903834Y54415663D02*
X212934314Y54248023D01*
X212835254Y54547743D02*
X212903834Y54415663D01*
X212733654Y54646803D02*
X212835254Y54547743D01*
X212604114Y54717922D02*
X212733654Y54646803D01*
X212433934Y54748402D02*
X212604114Y54717922D01*
X212934314Y54248023D02*
X212934314Y54248023D01*
X174961351Y55081142D02*
X174933411Y55248782D01*
X175032471Y54949062D02*
X174961351Y55081142D01*
X175131531Y54850002D02*
X175032471Y54949062D01*
X175263611Y54778882D02*
X175131531Y54850002D01*
X175433791Y54748402D02*
X175263611Y54778882D01*
X174933411Y55248782D02*
X174933411Y55248782D01*
X174905471Y59165458D02*
X174933411Y58997818D01*
X174834351Y59297538D02*
X174905471Y59165458D01*
X174732751Y59396598D02*
X174834351Y59297538D01*
X174603211Y59467718D02*
X174732751Y59396598D01*
X174433032Y59498198D02*
X174603211Y59467718D01*
X155962170Y59830937D02*
X155934230Y59998577D01*
X156033290Y59698858D02*
X155962170Y59830937D01*
X156132350Y59599798D02*
X156033290Y59698858D01*
X156264429Y59528678D02*
X156132350Y59599798D01*
X156434609Y59498198D02*
X156264429Y59528678D01*
X155934230Y59998577D02*
X155934230Y59998577D01*
X155903750Y61418436D02*
X155934230Y61248256D01*
X155832630Y61547976D02*
X155903750Y61418436D01*
X155733570Y61647036D02*
X155832630Y61547976D01*
X155604030Y61718156D02*
X155733570Y61647036D01*
X155433850Y61748636D02*
X155604030Y61718156D01*
X155934230Y61248256D02*
X155934230Y61248256D01*
X138263467Y61718156D02*
X138433647Y61748636D01*
X138133927Y61649576D02*
X138263467Y61718156D01*
X138034867Y61547976D02*
X138133927Y61649576D01*
X137963748Y61418436D02*
X138034867Y61547976D01*
X137933268Y61248256D02*
X137963748Y61418436D01*
X138433647Y61748636D02*
X138433647Y61748636D01*
X137603068Y59526138D02*
X137432888Y59498198D01*
X137732608Y59597258D02*
X137603068Y59526138D01*
X137834208Y59696318D02*
X137732608Y59597258D01*
X137902788Y59828397D02*
X137834208Y59696318D01*
X137933268Y59998577D02*
X137902788Y59828397D01*
X137432888Y59498198D02*
X137432888Y59498198D01*
X119266826Y59470258D02*
X119434466Y59498198D01*
X119134746Y59399138D02*
X119266826Y59470258D01*
X119033146Y59297538D02*
X119134746Y59399138D01*
X118964566Y59167998D02*
X119033146Y59297538D01*
X118934086Y58997818D02*
X118964566Y59167998D01*
X118601347Y57026780D02*
X118433707Y56998840D01*
X118730887Y57097900D02*
X118601347Y57026780D01*
X118832486Y57196960D02*
X118730887Y57097900D01*
X118903606Y57326500D02*
X118832486Y57196960D01*
X118934086Y57499220D02*
X118903606Y57326500D01*
X92634952Y-29033415D02*
X79409185Y-6099777D01*
X92640032Y-29038495D02*
X92634952Y-29033415D01*
X92700992Y-29122315D02*
X92640032Y-29038495D01*
X92797512Y-29231535D02*
X92700992Y-29122315D01*
X92901652Y-29330595D02*
X92797512Y-29231535D01*
X93018492Y-29416954D02*
X92901652Y-29330595D01*
X93145492Y-29490614D02*
X93018492Y-29416954D01*
X93282652Y-29554114D02*
X93145492Y-29490614D01*
X93437592Y-29604914D02*
X93282652Y-29554114D01*
X-55164962Y-2406621D02*
X-55167502Y-2409161D01*
X-55167502Y-2409161D02*
X-55314822Y-2589501D01*
X-55314822Y-2589501D02*
X-55314822Y-2589501D01*
X-55314822Y-2589501D02*
X-55314822Y-2589501D01*
X-55314822Y-2589501D02*
X-55314822Y-2589501D01*
X-55314822Y-2589501D02*
X-55317362Y-2594581D01*
X-55317362Y-2594581D02*
X-55322442Y-2597121D01*
X-55322442Y-2597121D02*
X-55500241Y-2744441D01*
X-55500241Y-2744441D02*
X-55500241Y-2744441D01*
X-55500241Y-2744441D02*
X-55505321Y-2746981D01*
X-55505321Y-2746981D02*
X-55507861Y-2749521D01*
X-55507861Y-2749521D02*
X-55711061Y-2858741D01*
X-55711061Y-2858741D02*
X-55711061Y-2858741D01*
X-55711061Y-2858741D02*
X-55711061Y-2858741D01*
X-55711061Y-2858741D02*
X-55713601Y-2861281D01*
X-55713601Y-2861281D02*
X-55716141Y-2861281D01*
X-55716141Y-2861281D02*
X-55721221Y-2863821D01*
X-55721221Y-2863821D02*
X-55942201Y-2932401D01*
X-55942201Y-2932401D02*
X-55942201Y-2932401D01*
X-55942201Y-2932401D02*
X-55947281Y-2932401D01*
X-55947281Y-2932401D02*
X-55952361Y-2932401D01*
X-55952361Y-2932401D02*
X-56183501Y-2957801D01*
X-56183501Y-2957801D02*
X-56183501Y-2957801D01*
X-56183501Y-2957801D02*
X-56186041Y-2957801D01*
X-56186041Y-2957801D02*
X-56188581Y-2957801D01*
X-56188581Y-2957801D02*
X-56193661Y-2957801D01*
X-56193661Y-2957801D02*
X-56193661Y-2957801D01*
X-56193661Y-2957801D02*
X-60945996Y-2957801D01*
X-60945996Y-2957801D02*
X-60951076Y-2957801D01*
X-60951076Y-2957801D02*
X-61174596Y-2980661D01*
X-61174596Y-2980661D02*
X-61385416Y-3046700D01*
X-61385416Y-3046700D02*
X-61580995Y-3153380D01*
X-61580995Y-3153380D02*
X-61753715Y-3295620D01*
X-61753715Y-3295620D02*
X-61893415Y-3465800D01*
X-61893415Y-3465800D02*
X-61997555Y-3661380D01*
X-61997555Y-3661380D02*
X-62061055Y-3874740D01*
X-62061055Y-3874740D02*
X-62083915Y-4098259D01*
X-62083915Y-34969389D02*
X-62083915Y-34977009D01*
X-62083915Y-34977009D02*
X-62061055Y-35200529D01*
X-62061055Y-35200529D02*
X-61995015Y-35411349D01*
X-61995015Y-35411349D02*
X-61888335Y-35606928D01*
X-61888335Y-35606928D02*
X-61746095Y-35777108D01*
X-61746095Y-35777108D02*
X-61575915Y-35919348D01*
X-61575915Y-35919348D02*
X-61380336Y-36023488D01*
X-61380336Y-36023488D02*
X-61166976Y-36086988D01*
X-61166976Y-36086988D02*
X-60943456Y-36107308D01*
X-60943456Y-36107308D02*
X212286614Y-36099688D01*
X212286614Y-36099688D02*
X212291694Y-36099688D01*
X212291694Y-36099688D02*
X212515214Y-36076828D01*
X212515214Y-36076828D02*
X212726034Y-36010788D01*
X212726034Y-36010788D02*
X212921614Y-35904108D01*
X212921614Y-35904108D02*
X213094333Y-35764408D01*
X213234033Y-35591688D02*
X213338173Y-35396109D01*
X213338173Y-35396109D02*
X213401673Y-35182749D01*
X213401673Y-35182749D02*
X213424533Y-34959229D01*
X213424533Y-4080479D02*
X213399133Y-3859500D01*
X213399133Y-3859500D02*
X213333093Y-3646140D01*
X213333093Y-3646140D02*
X213228953Y-3450560D01*
X213228953Y-3450560D02*
X213086713Y-3280380D01*
X213086713Y-3280380D02*
X212916534Y-3140680D01*
X212916534Y-3140680D02*
X212718414Y-3036540D01*
X212718414Y-3036540D02*
X212507594Y-2970501D01*
X212507594Y-2970501D02*
X212284074Y-2950181D01*
X212284074Y-2950181D02*
X207534279Y-2950181D01*
X207534279Y-2950181D02*
X207531739Y-2950181D01*
X207531739Y-2950181D02*
X207531739Y-2950181D01*
X207300599Y-2927321D02*
X207300599Y-2927321D01*
X207300599Y-2927321D02*
X207300599Y-2927321D01*
X207300599Y-2927321D02*
X207300599Y-2927321D01*
X207300599Y-2927321D02*
X207295519Y-2924781D01*
X207295519Y-2924781D02*
X207290439Y-2924781D01*
X207290439Y-2924781D02*
X207069459Y-2858741D01*
X207069459Y-2858741D02*
X207069459Y-2858741D01*
X207069459Y-2858741D02*
X207064379Y-2856201D01*
X207064379Y-2856201D02*
X207059299Y-2853661D01*
X207059299Y-2853661D02*
X206856100Y-2744441D01*
X206856100Y-2744441D02*
X206856100Y-2744441D01*
X206856100Y-2744441D02*
X206856100Y-2744441D01*
X206856100Y-2744441D02*
X206851020Y-2741901D01*
X206851020Y-2741901D02*
X206848480Y-2739361D01*
X206848480Y-2739361D02*
X206668140Y-2594581D01*
X206668140Y-2594581D02*
X206668140Y-2594581D01*
X206668140Y-2594581D02*
X206668140Y-2594581D01*
X206668140Y-2594581D02*
X206668140Y-2592041D01*
X206668140Y-2592041D02*
X206663060Y-2589501D01*
X206663060Y-2589501D02*
X206660520Y-2586961D01*
X206660520Y-2586961D02*
X206513200Y-2406621D01*
X206513200Y-2406621D02*
X206513200Y-2406621D01*
X206513200Y-2406621D02*
X206510660Y-2404081D01*
X206510660Y-2404081D02*
X206508120Y-2399001D01*
X206508120Y-2399001D02*
X206396360Y-2195801D01*
X206396360Y-2195801D02*
X206396360Y-2195801D01*
X206396360Y-2195801D02*
X206396360Y-2195801D01*
X206396360Y-2195801D02*
X206396360Y-2195801D01*
X206396360Y-2195801D02*
X206396360Y-2190721D01*
X206396360Y-2190721D02*
X206393820Y-2185641D01*
X206393820Y-2185641D02*
X206325240Y-1964662D01*
X206325240Y-1964662D02*
X206325240Y-1964662D01*
X206325240Y-1964662D02*
X206325240Y-1959582D01*
X206325240Y-1959582D02*
X206322700Y-1957042D01*
X206322700Y-1957042D02*
X206299840Y-1725902D01*
X206299840Y-1725902D02*
X206299840Y-1723362D01*
X206299840Y-1723362D02*
X206299840Y-1723362D01*
X206299840Y-1723362D02*
X206299840Y-1720822D01*
X206299840Y-1720822D02*
X206299840Y-1715742D01*
X206299840Y-1715742D02*
X206297300Y-1715742D01*
X206297300Y-1715742D02*
X206307460Y-1502382D01*
X168306558Y59498198D02*
X168298938Y62414115D01*
X168298938Y62414115D02*
X168298938Y62416655D01*
X168298938Y62416655D02*
X168321798Y62647795D01*
X168321798Y62647795D02*
X168321798Y62647795D01*
X168321798Y62647795D02*
X168321798Y62647795D01*
X168321798Y62647795D02*
X168321798Y62647795D01*
X168321798Y62647795D02*
X168321798Y62652875D01*
X168321798Y62652875D02*
X168324338Y62657955D01*
X168324338Y62657955D02*
X168390377Y62878934D01*
X168390377Y62878934D02*
X168390377Y62881474D01*
X168390377Y62881474D02*
X168392917Y62884014D01*
X168392917Y62884014D02*
X168395457Y62889094D01*
X168395457Y62889094D02*
X168502137Y63092294D01*
X168502137Y63092294D02*
X168502137Y63092294D01*
X168502137Y63092294D02*
X168502137Y63092294D01*
X168502137Y63092294D02*
X168502137Y63094834D01*
X168502137Y63094834D02*
X168507217Y63097374D01*
X168507217Y63097374D02*
X168507217Y63102454D01*
X168507217Y63102454D02*
X168654537Y63280254D01*
X168654537Y63280254D02*
X168654537Y63282794D01*
X168654537Y63282794D02*
X168657077Y63285334D01*
X168657077Y63285334D02*
X168662157Y63287874D01*
X168662157Y63287874D02*
X168839957Y63435194D01*
X168839957Y63435194D02*
X168842497Y63435194D01*
X168842497Y63435194D02*
X168845037Y63437734D01*
X168845037Y63437734D02*
X168847577Y63440274D01*
X168847577Y63440274D02*
X169053317Y63552034D01*
X169053317Y63552034D02*
X169053317Y63552034D01*
X169053317Y63552034D02*
X169053317Y63552034D01*
X169053317Y63552034D02*
X169053317Y63552034D01*
X169053317Y63552034D02*
X169058397Y63554574D01*
X169058397Y63554574D02*
X169060937Y63554574D01*
X169060937Y63554574D02*
X169281917Y63623154D01*
X169281917Y63623154D02*
X169281917Y63623154D01*
X169281917Y63623154D02*
X169284457Y63623154D01*
X169284457Y63623154D02*
X169289537Y63625694D01*
X169289537Y63625694D02*
X169292077Y63625694D01*
X169292077Y63625694D02*
X169523216Y63651094D01*
X169523216Y63651094D02*
X169523216Y63651094D01*
X169523216Y63651094D02*
X169525756Y63651094D01*
X169525756Y63651094D02*
X169528296Y63651094D01*
X169528296Y63651094D02*
X169533376Y63651094D01*
X169533376Y63651094D02*
X169533376Y63651094D01*
X169533376Y63651094D02*
X212286614Y63651094D01*
X212286614Y63651094D02*
X212291694Y63651094D01*
X212291694Y63651094D02*
X212515214Y63673954D01*
X212515214Y63673954D02*
X212726034Y63739994D01*
X212726034Y63739994D02*
X212921614Y63844133D01*
X212921614Y63844133D02*
X213094333Y63986373D01*
X213094333Y63986373D02*
X213234033Y64159093D01*
X213234033Y64159093D02*
X213338173Y64354673D01*
X213338173Y64354673D02*
X213401673Y64568033D01*
X213401673Y64568033D02*
X213424533Y64789013D01*
X213424533Y64789013D02*
X213424533Y68350089D01*
X213424533Y68350089D02*
X213424533Y68355169D01*
X213424533Y68355169D02*
X213399133Y68578689D01*
X213399133Y68578689D02*
X213333093Y68792049D01*
X213333093Y68792049D02*
X213228953Y68985088D01*
X213228953Y68985088D02*
X213086713Y69157808D01*
X213086713Y69157808D02*
X212916534Y69297508D01*
X212916534Y69297508D02*
X212718414Y69401648D01*
X212718414Y69401648D02*
X212507594Y69465148D01*
X212507594Y69465148D02*
X212284074Y69488008D01*
X212284074Y69488008D02*
X-60945996Y69477848D01*
X-60945996Y69477848D02*
X-60951076Y69477848D01*
X-60951076Y69477848D02*
X-61174596Y69454988D01*
X-61174596Y69454988D02*
X-61385416Y69388948D01*
X-61385416Y69388948D02*
X-61580995Y69284808D01*
X-61580995Y69284808D02*
X-61753715Y69142568D01*
X-61753715Y69142568D02*
X-61893415Y68969848D01*
X-61893415Y68969848D02*
X-61997555Y68774269D01*
X-61997555Y68774269D02*
X-62061055Y68563449D01*
X-62061055Y68563449D02*
X-62083915Y68339929D01*
X-62083915Y68339929D02*
X-62083915Y64778853D01*
X-62083915Y64778853D02*
X-62083915Y64773773D01*
X-62083915Y64773773D02*
X-62061055Y64550253D01*
X-62061055Y64550253D02*
X-61995015Y64336893D01*
X-61995015Y64336893D02*
X-61888335Y64143853D01*
X-61888335Y64143853D02*
X-61746095Y63971133D01*
X-61746095Y63971133D02*
X-61575915Y63831433D01*
X-61575915Y63831433D02*
X-61380336Y63727294D01*
X-61380336Y63727294D02*
X-61166976Y63663794D01*
X-61166976Y63663794D02*
X-60943456Y63640934D01*
X-60943456Y63640934D02*
X-18192758Y63640934D01*
X-18192758Y63640934D02*
X-18190218Y63640934D01*
X-18190218Y63640934D02*
X-18190218Y63640934D01*
X-18190218Y63640934D02*
X-17961618Y63618074D01*
X-17961618Y63618074D02*
X-17961618Y63618074D01*
X-17961618Y63618074D02*
X-17961618Y63618074D01*
X-17961618Y63618074D02*
X-17959078Y63618074D01*
X-17959078Y63618074D02*
X-17956538Y63618074D01*
X-17956538Y63618074D02*
X-17951458Y63615534D01*
X-17951458Y63615534D02*
X-17727939Y63549494D01*
X-17727939Y63549494D02*
X-17727939Y63549494D01*
X-17727939Y63549494D02*
X-17725399Y63546954D01*
X-17725399Y63546954D02*
X-17720319Y63546954D01*
X-17720319Y63546954D02*
X-17514579Y63437734D01*
X-17514579Y63437734D02*
X-17514579Y63437734D01*
X-17514579Y63437734D02*
X-17514579Y63437734D01*
X-17514579Y63437734D02*
X-17514579Y63437734D01*
X-17514579Y63437734D02*
X-17512039Y63435194D01*
X-17512039Y63435194D02*
X-17506959Y63432654D01*
X-17506959Y63432654D02*
X-17326619Y63285334D01*
X-17326619Y63285334D02*
X-17326619Y63285334D01*
X-17326619Y63285334D02*
X-17324079Y63282794D01*
X-17324079Y63282794D02*
X-17321539Y63277714D01*
X-17321539Y63277714D02*
X-17174219Y63099914D01*
X-17174219Y63099914D02*
X-17171679Y63099914D01*
X-17171679Y63099914D02*
X-17169139Y63094834D01*
X-17169139Y63094834D02*
X-17166599Y63092294D01*
X-17166599Y63092294D02*
X-17057379Y62886554D01*
X-17057379Y62886554D02*
X-17057379Y62886554D01*
X-17057379Y62886554D02*
X-17057379Y62886554D01*
X-17057379Y62886554D02*
X-17057379Y62886554D01*
X-17057379Y62886554D02*
X-17054839Y62884014D01*
X-17054839Y62884014D02*
X-17052299Y62878934D01*
X-17052299Y62878934D02*
X-16986259Y62657955D01*
X-16986259Y62657955D02*
X-16983719Y62657955D01*
X-16983719Y62657955D02*
X-16983719Y62652875D01*
X-16983719Y62652875D02*
X-16983719Y62647795D01*
X-16983719Y62647795D02*
X-16958319Y62416655D01*
X-16958319Y62416655D02*
X-16958319Y62416655D01*
X-16958319Y62416655D02*
X-16958319Y62414115D01*
X-16958319Y62414115D02*
X-16958319Y62411575D01*
X-16958319Y62411575D02*
X-16958319Y62406495D01*
X-16958319Y62406495D02*
X-16958319Y62406495D01*
X-16958319Y62406495D02*
X-16953239Y59505818D01*
X-12213604Y-1474500D02*
X-12208524Y-1720822D01*
X-12208524Y-1720822D02*
X-12208524Y-1725902D01*
X-12208524Y-1725902D02*
X-12185664Y-1949422D01*
X-12185664Y-1949422D02*
X-12119624Y-2162781D01*
X-12119624Y-2162781D02*
X-12012944Y-2355821D01*
X-12012944Y-2355821D02*
X-11873244Y-2528541D01*
X-11873244Y-2528541D02*
X-11700525Y-2668241D01*
X-11700525Y-2668241D02*
X-11504945Y-2772381D01*
X-11504945Y-2772381D02*
X-11291585Y-2835881D01*
X-11291585Y-2835881D02*
X-11068065Y-2858741D01*
X-11068065Y-2858741D02*
X-8693168Y-2858741D01*
X-8693168Y-2858741D02*
X-8690628Y-2858741D01*
X-8690628Y-2858741D02*
X-8690628Y-2858741D01*
X-8690628Y-2858741D02*
X-8459488Y-2881601D01*
X-8459488Y-2881601D02*
X-8459488Y-2881601D01*
X-8459488Y-2881601D02*
X-8459488Y-2881601D01*
X-8459488Y-2881601D02*
X-8459488Y-2881601D01*
X-8459488Y-2881601D02*
X-8454408Y-2881601D01*
X-8454408Y-2881601D02*
X-8451868Y-2884141D01*
X-8451868Y-2884141D02*
X-8228348Y-2950181D01*
X-8228348Y-2950181D02*
X-8228348Y-2950181D01*
X-8228348Y-2950181D02*
X-8223268Y-2952721D01*
X-8223268Y-2952721D02*
X-8220728Y-2952721D01*
X-8220728Y-2952721D02*
X-8014988Y-3061940D01*
X-8014988Y-3061940D02*
X-8014988Y-3061940D01*
X157432828Y-1502382D02*
X163556762Y-1502382D01*
X31746132Y59505818D02*
X25797458Y59505818D01*
X212433934Y-1502382D02*
X206307460Y-1502382D01*
X99833305Y54946522D02*
X99731705Y54847462D01*
X99904425Y55076062D02*
X99833305Y54946522D01*
X94438351Y-29488074D02*
X94301191Y-29551574D01*
X94565350Y-29411874D02*
X94438351Y-29488074D01*
X146183179Y-16252147D02*
X109513236Y-21022263D01*
X146274619Y-16244527D02*
X146183179Y-16252147D01*
X146421939Y-16191188D02*
X146274619Y-16244527D01*
X146536239Y-16104828D02*
X146421939Y-16191188D01*
X157079769Y-1647162D02*
X146536239Y-16104828D01*
X99602165Y54776342D02*
X99434526Y54748402D01*
X99731705Y54847462D02*
X99602165Y54776342D01*
X-50204347Y-1499842D02*
X-17052299Y-1499842D01*
X93605231Y-29637934D02*
X93437592Y-29604914D01*
X93793191Y-29650634D02*
X93605231Y-29637934D01*
X93981151Y-29635394D02*
X93793191Y-29650634D01*
X94148791Y-29602374D02*
X93981151Y-29635394D01*
X94301191Y-29551574D02*
X94148791Y-29602374D01*
X99932365Y55248782D02*
X99904425Y55076062D01*
X99434526Y54748402D02*
X99434526Y54748402D01*
X174433032Y59498198D02*
X168306558Y59498198D01*
X137432888Y59498198D02*
X130397095Y59498198D01*
X-5254011Y59505818D02*
X-12203444Y59505818D01*
X-6254770Y-1474500D02*
X-12213604Y-1474500D01*
M02*
