%TF.GenerationSoftware,KiCad,Pcbnew,8.0.3*%
%TF.CreationDate,2024-08-02T01:13:42+01:00*%
%TF.ProjectId,corne-light,636f726e-652d-46c6-9967-68742e6b6963,2.0*%
%TF.SameCoordinates,Original*%
%TF.FileFunction,Soldermask,Bot*%
%TF.FilePolarity,Negative*%
%FSLAX46Y46*%
G04 Gerber Fmt 4.6, Leading zero omitted, Abs format (unit mm)*
G04 Created by KiCad (PCBNEW 8.0.3) date 2024-08-02 01:13:42*
%MOMM*%
%LPD*%
G01*
G04 APERTURE LIST*
G04 Aperture macros list*
%AMRoundRect*
0 Rectangle with rounded corners*
0 $1 Rounding radius*
0 $2 $3 $4 $5 $6 $7 $8 $9 X,Y pos of 4 corners*
0 Add a 4 corners polygon primitive as box body*
4,1,4,$2,$3,$4,$5,$6,$7,$8,$9,$2,$3,0*
0 Add four circle primitives for the rounded corners*
1,1,$1+$1,$2,$3*
1,1,$1+$1,$4,$5*
1,1,$1+$1,$6,$7*
1,1,$1+$1,$8,$9*
0 Add four rect primitives between the rounded corners*
20,1,$1+$1,$2,$3,$4,$5,0*
20,1,$1+$1,$4,$5,$6,$7,0*
20,1,$1+$1,$6,$7,$8,$9,0*
20,1,$1+$1,$8,$9,$2,$3,0*%
%AMHorizOval*
0 Thick line with rounded ends*
0 $1 width*
0 $2 $3 position (X,Y) of the first rounded end (center of the circle)*
0 $4 $5 position (X,Y) of the second rounded end (center of the circle)*
0 Add line between two ends*
20,1,$1,$2,$3,$4,$5,0*
0 Add two circle primitives to create the rounded ends*
1,1,$1,$2,$3*
1,1,$1,$4,$5*%
G04 Aperture macros list end*
%ADD10C,4.700000*%
%ADD11RoundRect,0.200000X-0.650000X0.700000X-0.650000X-0.700000X0.650000X-0.700000X0.650000X0.700000X0*%
%ADD12O,1.797000X2.178000*%
%ADD13O,2.900000X2.100000*%
%ADD14C,1.600000*%
%ADD15C,2.400000*%
%ADD16C,2.700000*%
%ADD17HorizOval,2.800000X-0.978148X0.207912X0.978148X-0.207912X0*%
%ADD18HorizOval,2.800000X-0.238157X-0.137500X0.238157X0.137500X0*%
%ADD19C,2.800000*%
%ADD20HorizOval,1.900000X0.735931X-1.249362X-0.735931X1.249362X0*%
%ADD21HorizOval,2.000000X0.150000X-0.259808X-0.150000X0.259808X0*%
%ADD22HorizOval,1.900000X0.175000X-0.303109X-0.175000X0.303109X0*%
%ADD23HorizOval,2.800000X-0.309017X0.951057X0.309017X-0.951057X0*%
%ADD24HorizOval,2.800000X-0.238157X0.137500X0.238157X-0.137500X0*%
%ADD25HorizOval,1.900000X0.714014X1.262016X-0.714014X-1.262016X0*%
%ADD26HorizOval,2.000000X0.150000X0.259808X-0.150000X-0.259808X0*%
%ADD27HorizOval,1.900000X0.175000X0.303109X-0.175000X-0.303109X0*%
%ADD28HorizOval,2.800000X-0.669131X-0.743145X0.669131X0.743145X0*%
%ADD29O,2.800000X3.350000*%
%ADD30HorizOval,1.900000X1.449945X0.012653X-1.449945X-0.012653X0*%
%ADD31O,2.600000X2.000000*%
%ADD32O,2.600000X1.900000*%
%ADD33HorizOval,2.800000X-0.453990X-0.891007X0.453990X0.891007X0*%
%ADD34HorizOval,2.800000X-0.071175X0.265630X0.071175X-0.265630X0*%
%ADD35HorizOval,1.900000X1.397264X0.387496X-1.397264X-0.387496X0*%
%ADD36HorizOval,2.000000X0.289778X0.077646X-0.289778X-0.077646X0*%
%ADD37HorizOval,1.900000X0.338074X0.090587X-0.338074X-0.090587X0*%
%ADD38HorizOval,2.800000X-0.838671X-0.544639X0.838671X0.544639X0*%
%ADD39HorizOval,2.800000X-0.071175X-0.265630X0.071175X0.265630X0*%
%ADD40HorizOval,1.900000X1.403814X-0.363051X-1.403814X0.363051X0*%
%ADD41HorizOval,2.000000X0.289778X-0.077646X-0.289778X0.077646X0*%
%ADD42HorizOval,1.900000X0.338074X-0.090587X-0.338074X0.090587X0*%
%ADD43C,1.924000*%
%ADD44C,0.700000*%
G04 APERTURE END LIST*
D10*
%TO.C,Ref\u002A\u002A*%
X175373000Y36258568D03*
%TD*%
%TO.C,Ref\u002A\u002A*%
X175373000Y17258568D03*
%TD*%
%TO.C,Ref\u002A\u002A*%
X-24127000Y36240500D03*
%TD*%
%TO.C,Ref\u002A\u002A*%
X-24127000Y17240500D03*
%TD*%
D11*
%TO.C,D13*%
X-44652000Y9543625D03*
X-44652000Y5993625D03*
%TD*%
%TO.C,D14*%
X-41652000Y9540500D03*
X-41652000Y5990500D03*
%TD*%
%TO.C,D34*%
X195845347Y9540068D03*
X195845347Y5990068D03*
%TD*%
%TO.C,D12*%
X34348000Y33540500D03*
X34348000Y29990500D03*
%TD*%
%TO.C,D33*%
X116845347Y33540068D03*
X116845347Y29990068D03*
%TD*%
%TO.C,D32*%
X119845347Y33540068D03*
X119845347Y29990068D03*
%TD*%
%TO.C,D31*%
X154845347Y33545068D03*
X154845347Y29995068D03*
%TD*%
%TO.C,D30*%
X157845347Y33540068D03*
X157845347Y29990068D03*
%TD*%
%TO.C,D29*%
X192845347Y28540068D03*
X192845347Y24990068D03*
%TD*%
%TO.C,D28*%
X195845347Y28540068D03*
X195845347Y24990068D03*
%TD*%
%TO.C,D27*%
X116845347Y52540068D03*
X116845347Y48990068D03*
%TD*%
%TO.C,D26*%
X119845347Y52540068D03*
X119845347Y48990068D03*
%TD*%
%TO.C,D25*%
X154845347Y52545068D03*
X154845347Y48995068D03*
%TD*%
%TO.C,D24*%
X157845347Y52540068D03*
X157845347Y48990068D03*
%TD*%
%TO.C,D23*%
X192845347Y47540068D03*
X192845347Y43990068D03*
%TD*%
%TO.C,D22*%
X195845347Y47540068D03*
X195845347Y43990068D03*
%TD*%
%TO.C,D42*%
X126355347Y-5454932D03*
X126355347Y-9004932D03*
%TD*%
%TO.C,D41*%
X129355347Y-5454932D03*
X129355347Y-9004932D03*
%TD*%
%TO.C,D40*%
X145345347Y-5469932D03*
X145345347Y-9019932D03*
%TD*%
%TO.C,D39*%
X116845347Y14540068D03*
X116845347Y10990068D03*
%TD*%
%TO.C,D38*%
X119845347Y14540068D03*
X119845347Y10990068D03*
%TD*%
%TO.C,D37*%
X154845347Y14545068D03*
X154845347Y10995068D03*
%TD*%
%TO.C,D36*%
X157845347Y14540068D03*
X157845347Y10990068D03*
%TD*%
%TO.C,D35*%
X192845347Y9540068D03*
X192845347Y5990068D03*
%TD*%
%TO.C,D1*%
X-44652000Y47543625D03*
X-44652000Y43993625D03*
%TD*%
%TO.C,D2*%
X-41652000Y47540500D03*
X-41652000Y43990500D03*
%TD*%
%TO.C,D3*%
X-6652000Y52540500D03*
X-6652000Y48990500D03*
%TD*%
%TO.C,D4*%
X-3652000Y52545500D03*
X-3652000Y48995500D03*
%TD*%
%TO.C,D5*%
X31348000Y52540500D03*
X31348000Y48990500D03*
%TD*%
%TO.C,D6*%
X34348000Y52540500D03*
X34348000Y48990500D03*
%TD*%
%TO.C,D7*%
X-44652000Y28543625D03*
X-44652000Y24993625D03*
%TD*%
%TO.C,D8*%
X-41652000Y28540500D03*
X-41652000Y24990500D03*
%TD*%
%TO.C,D9*%
X-6652000Y33540500D03*
X-6652000Y29990500D03*
%TD*%
%TO.C,D10*%
X-3652000Y33545500D03*
X-3652000Y29995500D03*
%TD*%
%TO.C,D11*%
X31348000Y33540500D03*
X31348000Y29990500D03*
%TD*%
%TO.C,D15*%
X-6652000Y14540500D03*
X-6652000Y10990500D03*
%TD*%
%TO.C,D16*%
X-3652000Y14545500D03*
X-3652000Y10995500D03*
%TD*%
%TO.C,D17*%
X31348000Y14540500D03*
X31348000Y10990500D03*
%TD*%
%TO.C,D18*%
X34348000Y14540500D03*
X34348000Y10990500D03*
%TD*%
%TO.C,D19*%
X5668000Y-5449500D03*
X5668000Y-8999500D03*
%TD*%
%TO.C,D20*%
X21848000Y-5444500D03*
X21848000Y-8994500D03*
%TD*%
%TO.C,D21*%
X24848000Y-5444500D03*
X24848000Y-8994500D03*
%TD*%
D12*
%TO.C,J7*%
X93038000Y14375500D03*
X90498000Y14375500D03*
X87958000Y14375500D03*
X85418000Y14375500D03*
%TD*%
%TO.C,J2*%
X65809000Y14517500D03*
X63269000Y14517500D03*
X60729000Y14517500D03*
X58189000Y14517500D03*
%TD*%
D13*
%TO.C,J6*%
X91568347Y5020068D03*
X90068347Y9220068D03*
X86068347Y9220068D03*
X83068347Y9220068D03*
D14*
X88268347Y7120068D03*
X81268347Y7120068D03*
%TD*%
D13*
%TO.C,J1*%
X59575000Y9353500D03*
X61075000Y5153500D03*
X65075000Y5153500D03*
X68075000Y5153500D03*
D14*
X62875000Y7253500D03*
X69875000Y7253500D03*
%TD*%
D15*
%TO.C,RSW2*%
X81535347Y18118068D03*
X81535347Y11618068D03*
%TD*%
%TO.C,RSW1*%
X69665000Y18264500D03*
X69665000Y11764500D03*
%TD*%
D16*
%TO.C,Ref\u002A\u002A*%
X96050347Y7143068D03*
%TD*%
%TO.C,Ref\u002A\u002A*%
X81491347Y-1399932D03*
%TD*%
%TO.C,Ref\u002A\u002A*%
X69537000Y-1254500D03*
%TD*%
%TO.C,Ref\u002A\u002A*%
X55105000Y7266500D03*
%TD*%
D10*
%TO.C,Ref\u002A\u002A*%
X194356347Y17258568D03*
%TD*%
%TO.C,Ref\u002A\u002A*%
X194356347Y36258568D03*
%TD*%
%TO.C,Ref\u002A\u002A*%
X151216347Y-11432D03*
%TD*%
%TO.C,Ref\u002A\u002A*%
X104646347Y-7761432D03*
%TD*%
%TO.C,Ref\u002A\u002A*%
X118396347Y39748568D03*
%TD*%
%TO.C,Ref\u002A\u002A*%
X46566000Y-7614500D03*
%TD*%
%TO.C,Ref\u002A\u002A*%
X0Y0D03*
%TD*%
%TO.C,Ref\u002A\u002A*%
X-43144000Y36265000D03*
%TD*%
%TO.C,Ref\u002A\u002A*%
X32811000Y39755000D03*
%TD*%
%TO.C,Ref\u002A\u002A*%
X-43144000Y17265000D03*
%TD*%
D17*
%TO.C,SW42*%
X95381860Y-9251947D03*
D18*
X99502269Y-13374996D03*
D19*
X96309449Y-9444868D03*
D20*
X100843496Y-14217267D03*
D21*
X88167848Y-11143202D03*
D22*
X88985797Y-16559932D03*
%TD*%
D23*
%TO.C,SW21*%
X52680618Y-14674340D03*
D24*
X54191078Y-9044436D03*
D19*
X52383898Y-13774564D03*
D25*
X54249893Y-7461764D03*
D26*
X57925499Y-19976230D03*
D27*
X62207550Y-16559500D03*
%TD*%
D28*
%TO.C,SW18*%
X39217131Y13433645D03*
D29*
X44848000Y14940500D03*
D19*
X39848000Y14140500D03*
D30*
X46248042Y15680901D03*
D31*
X37248000Y6240500D03*
D32*
X42348000Y4240500D03*
%TD*%
D28*
%TO.C,SW32*%
X124714478Y34808213D03*
D29*
X130345347Y36315068D03*
D19*
X125345347Y35515068D03*
D30*
X131745389Y37055469D03*
D31*
X122745347Y27615068D03*
D32*
X127845347Y25615068D03*
%TD*%
D28*
%TO.C,SW11*%
X20217131Y34808645D03*
D29*
X25848000Y36315500D03*
D19*
X20848000Y35515500D03*
D30*
X27248042Y37055901D03*
D31*
X18248000Y27615500D03*
D32*
X23348000Y25615500D03*
%TD*%
D28*
%TO.C,SW33*%
X105714478Y32433213D03*
D29*
X111345347Y33940068D03*
D19*
X106345347Y33140068D03*
D30*
X112745389Y34680469D03*
D31*
X103745347Y25240068D03*
D32*
X108845347Y23240068D03*
%TD*%
D33*
%TO.C,SW41*%
X112468830Y-7489327D03*
D34*
X117517830Y-4576440D03*
D19*
X112895256Y-6643276D03*
D35*
X118678537Y-3498910D03*
D36*
X112428520Y-14947020D03*
D37*
X117872379Y-15558894D03*
%TD*%
D28*
%TO.C,SW8*%
X-36782869Y30058645D03*
D29*
X-31152000Y31565500D03*
D19*
X-36152000Y30765500D03*
D30*
X-29751958Y32305901D03*
D31*
X-38752000Y22865500D03*
D32*
X-33652000Y20865500D03*
%TD*%
D28*
%TO.C,SW7*%
X-55782869Y30058645D03*
D29*
X-50152000Y31565500D03*
D19*
X-55152000Y30765500D03*
D30*
X-48751958Y32305901D03*
D31*
X-57752000Y22865500D03*
D32*
X-52652000Y20865500D03*
%TD*%
D28*
%TO.C,SW1*%
X-55782869Y49058645D03*
D29*
X-50152000Y50565500D03*
D19*
X-55152000Y49765500D03*
D30*
X-48751958Y51305901D03*
D31*
X-57752000Y41865500D03*
D32*
X-52652000Y39865500D03*
%TD*%
D28*
%TO.C,SW2*%
X-36782869Y49058645D03*
D29*
X-31152000Y50565500D03*
D19*
X-36152000Y49765500D03*
D30*
X-29751958Y51305901D03*
D31*
X-38752000Y41865500D03*
D32*
X-33652000Y39865500D03*
%TD*%
D28*
%TO.C,SW37*%
X143714478Y18183213D03*
D29*
X149345347Y19690068D03*
D19*
X144345347Y18890068D03*
D30*
X150745389Y20430469D03*
D31*
X141745347Y10990068D03*
D32*
X146845347Y8990068D03*
%TD*%
D28*
%TO.C,SW9*%
X-17782869Y34808645D03*
D29*
X-12152000Y36315500D03*
D19*
X-17152000Y35515500D03*
D30*
X-10751958Y37055901D03*
D31*
X-19752000Y27615500D03*
D32*
X-14652000Y25615500D03*
%TD*%
D28*
%TO.C,SW26*%
X124714478Y53808213D03*
D29*
X130345347Y55315068D03*
D19*
X125345347Y54515068D03*
D30*
X131745389Y56055469D03*
D31*
X122745347Y46615068D03*
D32*
X127845347Y44615068D03*
%TD*%
D28*
%TO.C,SW3*%
X-17782869Y53808645D03*
D29*
X-12152000Y55315500D03*
D19*
X-17152000Y54515500D03*
D30*
X-10751958Y56055901D03*
D31*
X-19752000Y46615500D03*
D32*
X-14652000Y44615500D03*
%TD*%
D28*
%TO.C,SW14*%
X-36782869Y11058645D03*
D29*
X-31152000Y12565500D03*
D19*
X-36152000Y11765500D03*
D30*
X-29751958Y13305901D03*
D31*
X-38752000Y3865500D03*
D32*
X-33652000Y1865500D03*
%TD*%
D28*
%TO.C,SW27*%
X105714478Y51433213D03*
D29*
X111345347Y52940068D03*
D19*
X106345347Y52140068D03*
D30*
X112745389Y53680469D03*
D31*
X103745347Y44240068D03*
D32*
X108845347Y42240068D03*
%TD*%
D28*
%TO.C,SW12*%
X39217131Y32433645D03*
D29*
X44848000Y33940500D03*
D19*
X39848000Y33140500D03*
D30*
X46248042Y34680901D03*
D31*
X37248000Y25240500D03*
D32*
X42348000Y23240500D03*
%TD*%
D38*
%TO.C,SW20*%
X32676141Y-5868238D03*
D39*
X38505146Y-5870104D03*
D19*
X33468462Y-5348749D03*
D40*
X40049113Y-5517289D03*
D41*
X28912384Y-12306634D03*
D42*
X33320968Y-15558462D03*
%TD*%
D28*
%TO.C,SW10*%
X1217131Y37183645D03*
D29*
X6848000Y38690500D03*
D19*
X1848000Y37890500D03*
D30*
X8248042Y39430901D03*
D31*
X-752000Y29990500D03*
D32*
X4348000Y27990500D03*
%TD*%
D28*
%TO.C,SW15*%
X-17782869Y15808645D03*
D29*
X-12152000Y17315500D03*
D19*
X-17152000Y16515500D03*
D30*
X-10751958Y18055901D03*
D31*
X-19752000Y8615500D03*
D32*
X-14652000Y6615500D03*
%TD*%
D28*
%TO.C,SW16*%
X1217131Y18183645D03*
D29*
X6848000Y19690500D03*
D19*
X1848000Y18890500D03*
D30*
X8248042Y20430901D03*
D31*
X-752000Y10990500D03*
D32*
X4348000Y8990500D03*
%TD*%
D28*
%TO.C,SW17*%
X20217131Y15808645D03*
D29*
X25848000Y17315500D03*
D19*
X20848000Y16515500D03*
D30*
X27248042Y18055901D03*
D31*
X18248000Y8615500D03*
D32*
X23348000Y6615500D03*
%TD*%
D28*
%TO.C,SW19*%
X10717131Y-3816355D03*
D29*
X16348000Y-2309500D03*
D19*
X11348000Y-3109500D03*
D30*
X17748042Y-1569099D03*
D31*
X8748000Y-11009500D03*
D32*
X13848000Y-13009500D03*
%TD*%
D28*
%TO.C,SW13*%
X-55782869Y11058645D03*
D29*
X-50152000Y12565500D03*
D19*
X-55152000Y11765500D03*
D30*
X-48751958Y13305901D03*
D31*
X-57752000Y3865500D03*
D32*
X-52652000Y1865500D03*
%TD*%
D28*
%TO.C,SW39*%
X105714478Y13433213D03*
D29*
X111345347Y14940068D03*
D19*
X106345347Y14140068D03*
D30*
X112745389Y15680469D03*
D31*
X103745347Y6240068D03*
D32*
X108845347Y4240068D03*
%TD*%
D28*
%TO.C,SW28*%
X200714478Y30058213D03*
D29*
X206345347Y31565068D03*
D19*
X201345347Y30765068D03*
D30*
X207745389Y32305469D03*
D31*
X198745347Y22865068D03*
D32*
X203845347Y20865068D03*
%TD*%
D28*
%TO.C,SW23*%
X181714478Y49058213D03*
D29*
X187345347Y50565068D03*
D19*
X182345347Y49765068D03*
D30*
X188745389Y51305469D03*
D31*
X179745347Y41865068D03*
D32*
X184845347Y39865068D03*
%TD*%
D28*
%TO.C,SW40*%
X134214478Y-3816787D03*
D29*
X139845347Y-2309932D03*
D19*
X134845347Y-3109932D03*
D30*
X141245389Y-1569531D03*
D31*
X132245347Y-11009932D03*
D32*
X137345347Y-13009932D03*
%TD*%
D28*
%TO.C,SW38*%
X124714478Y15808213D03*
D29*
X130345347Y17315068D03*
D19*
X125345347Y16515068D03*
D30*
X131745389Y18055469D03*
D31*
X122745347Y8615068D03*
D32*
X127845347Y6615068D03*
%TD*%
D28*
%TO.C,SW36*%
X162714478Y15808213D03*
D29*
X168345347Y17315068D03*
D19*
X163345347Y16515068D03*
D30*
X169745389Y18055469D03*
D31*
X160745347Y8615068D03*
D32*
X165845347Y6615068D03*
%TD*%
D28*
%TO.C,SW35*%
X181714478Y11058213D03*
D29*
X187345347Y12565068D03*
D19*
X182345347Y11765068D03*
D30*
X188745389Y13305469D03*
D31*
X179745347Y3865068D03*
D32*
X184845347Y1865068D03*
%TD*%
D28*
%TO.C,SW34*%
X200714478Y11058213D03*
D29*
X206345347Y12565068D03*
D19*
X201345347Y11765068D03*
D30*
X207745389Y13305469D03*
D31*
X198745347Y3865068D03*
D32*
X203845347Y1865068D03*
%TD*%
D28*
%TO.C,SW31*%
X143714478Y37183213D03*
D29*
X149345347Y38690068D03*
D19*
X144345347Y37890068D03*
D30*
X150745389Y39430469D03*
D31*
X141745347Y29990068D03*
D32*
X146845347Y27990068D03*
%TD*%
D28*
%TO.C,SW30*%
X162714478Y34808213D03*
D29*
X168345347Y36315068D03*
D19*
X163345347Y35515068D03*
D30*
X169745389Y37055469D03*
D31*
X160745347Y27615068D03*
D32*
X165845347Y25615068D03*
%TD*%
D28*
%TO.C,SW29*%
X181714478Y30058213D03*
D29*
X187345347Y31565068D03*
D19*
X182345347Y30765068D03*
D30*
X188745389Y32305469D03*
D31*
X179745347Y22865068D03*
D32*
X184845347Y20865068D03*
%TD*%
D28*
%TO.C,SW25*%
X143714478Y56183213D03*
D29*
X149345347Y57690068D03*
D19*
X144345347Y56890068D03*
D30*
X150745389Y58430469D03*
D31*
X141745347Y48990068D03*
D32*
X146845347Y46990068D03*
%TD*%
D28*
%TO.C,SW24*%
X162714478Y53808213D03*
D29*
X168345347Y55315068D03*
D19*
X163345347Y54515068D03*
D30*
X169745389Y56055469D03*
D31*
X160745347Y46615068D03*
D32*
X165845347Y44615068D03*
%TD*%
D28*
%TO.C,SW22*%
X200714478Y49058213D03*
D29*
X206345347Y50565068D03*
D19*
X201345347Y49765068D03*
D30*
X207745389Y51305469D03*
D31*
X198745347Y41865068D03*
D32*
X203845347Y39865068D03*
%TD*%
D28*
%TO.C,SW4*%
X1217131Y56183645D03*
D29*
X6848000Y57690500D03*
D19*
X1848000Y56890500D03*
D30*
X8248042Y58430901D03*
D31*
X-752000Y48990500D03*
D32*
X4348000Y46990500D03*
%TD*%
D28*
%TO.C,SW5*%
X20217131Y53808645D03*
D29*
X25848000Y55315500D03*
D19*
X20848000Y54515500D03*
D30*
X27248042Y56055901D03*
D31*
X18248000Y46615500D03*
D32*
X23348000Y44615500D03*
%TD*%
D28*
%TO.C,SW6*%
X39217131Y51433645D03*
D29*
X44848000Y52940500D03*
D19*
X39848000Y52140500D03*
D30*
X46248042Y53680901D03*
D31*
X37248000Y44240500D03*
D32*
X42348000Y42240500D03*
%TD*%
D43*
%TO.C,U2*%
X81614747Y49477068D03*
X81614747Y46937068D03*
X81614747Y44397068D03*
X81614747Y41857068D03*
X81614747Y39317068D03*
X81614747Y36777068D03*
X81614747Y34237068D03*
X81614747Y31697068D03*
X81614747Y29157068D03*
X81614747Y26617068D03*
X81614747Y24077068D03*
X81614747Y21537068D03*
X96834747Y21537068D03*
X96834747Y24077068D03*
X96834747Y26617068D03*
X96834747Y29157068D03*
X96834747Y31697068D03*
X96834747Y34237068D03*
X96834747Y36777068D03*
X96834747Y39317068D03*
X96834747Y41857068D03*
X96834747Y44397068D03*
X96834747Y46937068D03*
X96834747Y49477068D03*
%TD*%
%TO.C,U1*%
X54444400Y49603500D03*
X54444400Y47063500D03*
X54444400Y44523500D03*
X54444400Y41983500D03*
X54444400Y39443500D03*
X54444400Y36903500D03*
X54444400Y34363500D03*
X54444400Y31823500D03*
X54444400Y29283500D03*
X54444400Y26743500D03*
X54444400Y24203500D03*
X54444400Y21663500D03*
X69664400Y21663500D03*
X69664400Y24203500D03*
X69664400Y26743500D03*
X69664400Y29283500D03*
X69664400Y31823500D03*
X69664400Y34363500D03*
X69664400Y36903500D03*
X69664400Y39443500D03*
X69664400Y41983500D03*
X69664400Y44523500D03*
X69664400Y47063500D03*
X69664400Y49603500D03*
%TD*%
D44*
%TO.C,J5*%
X164800500Y-1704500D03*
X163613000Y-1704500D03*
X165394250Y-1704500D03*
X164206750Y-1704500D03*
X168363000Y-1704500D03*
X167769250Y-1704500D03*
X167175500Y-1704500D03*
X166581750Y-1704500D03*
X165988000Y-1704500D03*
%TD*%
%TO.C,J5*%
X202800500Y-1704500D03*
X201613000Y-1704500D03*
X203394250Y-1704500D03*
X202206750Y-1704500D03*
X206363000Y-1704500D03*
X205769250Y-1704500D03*
X205175500Y-1704500D03*
X204581750Y-1704500D03*
X203988000Y-1704500D03*
%TD*%
%TO.C,J5*%
X164770500Y59715500D03*
X163583000Y59715500D03*
X165364250Y59715500D03*
X164176750Y59715500D03*
X168333000Y59715500D03*
X167739250Y59715500D03*
X167145500Y59715500D03*
X166551750Y59715500D03*
X165958000Y59715500D03*
%TD*%
%TO.C,J5*%
X126750500Y59705500D03*
X125563000Y59705500D03*
X127344250Y59705500D03*
X126156750Y59705500D03*
X130313000Y59705500D03*
X129719250Y59705500D03*
X129125500Y59705500D03*
X128531750Y59705500D03*
X127938000Y59705500D03*
%TD*%
%TO.C,J5*%
X22230500Y59715500D03*
X21043000Y59715500D03*
X22824250Y59715500D03*
X21636750Y59715500D03*
X25793000Y59715500D03*
X25199250Y59715500D03*
X24605500Y59715500D03*
X24011750Y59715500D03*
X23418000Y59715500D03*
%TD*%
%TO.C,J5*%
X-15739500Y59715500D03*
X-16927000Y59715500D03*
X-15145750Y59715500D03*
X-16333250Y59715500D03*
X-12177000Y59715500D03*
X-12770750Y59715500D03*
X-13364500Y59715500D03*
X-13958250Y59715500D03*
X-14552000Y59715500D03*
%TD*%
%TO.C,J5*%
X-15842500Y-1694500D03*
X-17030000Y-1694500D03*
X-15248750Y-1694500D03*
X-16436250Y-1694500D03*
X-12280000Y-1694500D03*
X-12873750Y-1694500D03*
X-13467500Y-1694500D03*
X-14061250Y-1694500D03*
X-14655000Y-1694500D03*
%TD*%
%TO.C,J5*%
X-53830750Y-1694500D03*
X-55018250Y-1694500D03*
X-53237000Y-1694500D03*
X-54424500Y-1694500D03*
X-50268250Y-1694500D03*
X-50862000Y-1694500D03*
X-51455750Y-1694500D03*
X-52049500Y-1694500D03*
X-52643250Y-1694500D03*
%TD*%
M02*
