%TF.GenerationSoftware,KiCad,Pcbnew,(6.0.9-0)*%
%TF.CreationDate,2022-12-17T11:16:42-06:00*%
%TF.ProjectId,corne-ice,636f726e-652d-4696-9365-2e6b69636164,0.1*%
%TF.SameCoordinates,Original*%
%TF.FileFunction,Paste,Bot*%
%TF.FilePolarity,Positive*%
%FSLAX46Y46*%
G04 Gerber Fmt 4.6, Leading zero omitted, Abs format (unit mm)*
G04 Created by KiCad (PCBNEW (6.0.9-0)) date 2022-12-17 11:16:42*
%MOMM*%
%LPD*%
G01*
G04 APERTURE LIST*
G04 Aperture macros list*
%AMRotRect*
0 Rectangle, with rotation*
0 The origin of the aperture is its center*
0 $1 length*
0 $2 width*
0 $3 Rotation angle, in degrees counterclockwise*
0 Add horizontal line*
21,1,$1,$2,0,0,$3*%
G04 Aperture macros list end*
%ADD10R,2.550000X2.500000*%
%ADD11RotRect,2.550000X2.500000X165.000000*%
%ADD12RotRect,2.550000X2.500000X240.000000*%
%ADD13RotRect,2.550000X2.500000X120.000000*%
%ADD14RotRect,2.550000X2.500000X195.000000*%
%ADD15R,1.000000X1.400000*%
%ADD16R,0.700000X1.500000*%
%ADD17R,1.000000X0.800000*%
G04 APERTURE END LIST*
D10*
X32022500Y-33240000D03*
X44949500Y-30700000D03*
X51022500Y-28490000D03*
X63949500Y-25950000D03*
X70022500Y-26115000D03*
X82949500Y-23575000D03*
X89022500Y-28490000D03*
X101949500Y-25950000D03*
X13022500Y-52240000D03*
X25949500Y-49700000D03*
X32022500Y-52240000D03*
X44949500Y-49700000D03*
X51022500Y-47490000D03*
X63949500Y-44950000D03*
X70022500Y-45115000D03*
X82949500Y-42575000D03*
X89022500Y-47490000D03*
X101949500Y-44950000D03*
X108022500Y-49865000D03*
X120949500Y-47325000D03*
X13022500Y-71240000D03*
X25949500Y-68700000D03*
X32022500Y-71240000D03*
X44949500Y-68700000D03*
X51022500Y-66490000D03*
X63949500Y-63950000D03*
X70022500Y-64115000D03*
X82949500Y-61575000D03*
X89022500Y-66490000D03*
X101949500Y-63950000D03*
X108022500Y-68865000D03*
X120949500Y-66325000D03*
X79522500Y-86115000D03*
X92449500Y-83575000D03*
D11*
X101421316Y-87117815D03*
X114565239Y-88010118D03*
D12*
X124115295Y-100020790D03*
X128379091Y-87555680D03*
D13*
X165521705Y-87744210D03*
X174184909Y-97669320D03*
D10*
X212529500Y-64110000D03*
X225456500Y-61570000D03*
X193529500Y-66485000D03*
X206456500Y-63945000D03*
X174529500Y-68860000D03*
X187456500Y-66320000D03*
X203029500Y-86110000D03*
X215956500Y-83570000D03*
D14*
X181613515Y-90780281D03*
X193442638Y-84981076D03*
D10*
X212529500Y-26110000D03*
X225456500Y-23570000D03*
X193529500Y-28485000D03*
X206456500Y-25945000D03*
X269529500Y-52235000D03*
X282456500Y-49695000D03*
X231529500Y-28485000D03*
X244456500Y-25945000D03*
X250529500Y-52235000D03*
X263456500Y-49695000D03*
X250529500Y-71235000D03*
X263456500Y-68695000D03*
X231529500Y-66485000D03*
X244456500Y-63945000D03*
X269529500Y-33235000D03*
X282456500Y-30695000D03*
X250529500Y-33235000D03*
X263456500Y-30695000D03*
X231529500Y-47485000D03*
X244456500Y-44945000D03*
X212529500Y-45110000D03*
X225456500Y-42570000D03*
X193529500Y-47485000D03*
X206456500Y-44945000D03*
X174529500Y-49860000D03*
X187456500Y-47320000D03*
X269529500Y-71235000D03*
X282456500Y-68695000D03*
X13022500Y-33240000D03*
X25949500Y-30700000D03*
X108022500Y-30865000D03*
X120949500Y-28325000D03*
X174522500Y-30865000D03*
X187449500Y-28325000D03*
D15*
X27734500Y-37551875D03*
X27734500Y-34001875D03*
X46734500Y-37555000D03*
X46734500Y-34005000D03*
X65707500Y-32555000D03*
X65707500Y-29005000D03*
X84707500Y-30430000D03*
X84707500Y-26880000D03*
X103707500Y-32805000D03*
X103707500Y-29255000D03*
X122707500Y-35180000D03*
X122707500Y-31630000D03*
X27734500Y-56551875D03*
X27734500Y-53001875D03*
X46734500Y-56555000D03*
X46734500Y-53005000D03*
X65707500Y-51805000D03*
X65707500Y-48255000D03*
X84707500Y-49430000D03*
X84707500Y-45880000D03*
X103707500Y-51805000D03*
X103707500Y-48255000D03*
X122707500Y-54180000D03*
X122707500Y-50630000D03*
X27734500Y-75551875D03*
X27734500Y-72001875D03*
X46734500Y-75555000D03*
X46734500Y-72005000D03*
X65707500Y-70805000D03*
X65707500Y-67255000D03*
X84707500Y-68430000D03*
X84707500Y-64880000D03*
X103707500Y-70805000D03*
X103707500Y-67255000D03*
X122707500Y-73180000D03*
X122707500Y-69630000D03*
X76157500Y-90545000D03*
X76157500Y-86995000D03*
X95164500Y-90540000D03*
X95164500Y-86990000D03*
X98007500Y-90540000D03*
X98007500Y-86990000D03*
X265214500Y-37550000D03*
X265214500Y-34000000D03*
X246214500Y-32800000D03*
X246214500Y-29250000D03*
X227214500Y-30425000D03*
X227214500Y-26875000D03*
X189207500Y-35180000D03*
X189207500Y-31630000D03*
X284214500Y-56400000D03*
X284214500Y-52850000D03*
X265214500Y-56550000D03*
X265214500Y-53000000D03*
X246214500Y-51800000D03*
X246214500Y-48250000D03*
X227214500Y-49425000D03*
X227214500Y-45875000D03*
X208214500Y-51800000D03*
X208214500Y-48250000D03*
X189207500Y-54180000D03*
X189207500Y-50630000D03*
X284214500Y-75550000D03*
X284214500Y-72000000D03*
X265214500Y-75550000D03*
X265214500Y-72000000D03*
X246214500Y-70800000D03*
X246214500Y-67250000D03*
X227214500Y-68425000D03*
X227214500Y-64875000D03*
X208214500Y-70800000D03*
X208214500Y-67250000D03*
X189207500Y-73180000D03*
X189207500Y-69630000D03*
X217714500Y-90410000D03*
X217714500Y-86860000D03*
X199664500Y-90425000D03*
X199664500Y-86875000D03*
X196814500Y-90425000D03*
X196814500Y-86875000D03*
X284214500Y-37550000D03*
X284214500Y-34000000D03*
X208214500Y-32800000D03*
X208214500Y-29250000D03*
D16*
X159757500Y-30410000D03*
X162757500Y-30410000D03*
X164257500Y-30410000D03*
D17*
X158357500Y-27560000D03*
X158357500Y-29760000D03*
X165657500Y-29760000D03*
X165657500Y-27560000D03*
D16*
X132557500Y-30380000D03*
X135557500Y-30380000D03*
X137057500Y-30380000D03*
D17*
X131157500Y-27530000D03*
X131157500Y-29730000D03*
X138457500Y-29730000D03*
X138457500Y-27530000D03*
M02*
