%TF.GenerationSoftware,KiCad,Pcbnew,(6.0.9-0)*%
%TF.CreationDate,2022-12-17T11:17:15-06:00*%
%TF.ProjectId,corne-ice,636f726e-652d-4696-9365-2e6b69636164,0.1*%
%TF.SameCoordinates,Original*%
%TF.FileFunction,Drillmap*%
%TF.FilePolarity,Positive*%
%FSLAX45Y45*%
G04 Gerber Fmt 4.5, Leading zero omitted, Abs format (unit mm)*
G04 Created by KiCad (PCBNEW (6.0.9-0)) date 2022-12-17 11:17:15*
%MOMM*%
%LPD*%
G01*
G04 APERTURE LIST*
%ADD10C,0.200000*%
%ADD11C,0.040000*%
%ADD12C,0.081280*%
%ADD13C,0.100000*%
G04 APERTURE END LIST*
D10*
X1780750Y-8302031D02*
X1781250Y-8325000D01*
X1781250Y-8325000D02*
X1781230Y-8325200D01*
X1781230Y-8325200D02*
X1781230Y-8325200D01*
X1781230Y-8325200D02*
X1778960Y-8348300D01*
X1778960Y-8348300D02*
X1778960Y-8348300D01*
X1778960Y-8348300D02*
X1778960Y-8348300D01*
X1778960Y-8348300D02*
X1778960Y-8348400D01*
X1778960Y-8348400D02*
X1778860Y-8348800D01*
X1778860Y-8348800D02*
X1778770Y-8349300D01*
X1778770Y-8349300D02*
X1772080Y-8371400D01*
X1772080Y-8371400D02*
X1772060Y-8371500D01*
X1772060Y-8371500D02*
X1771880Y-8371900D01*
X1771880Y-8371900D02*
X1771700Y-8372400D01*
X1771700Y-8372400D02*
X1760820Y-8392800D01*
X1760820Y-8392800D02*
X1760790Y-8392900D01*
X1760790Y-8392900D02*
X1760540Y-8393200D01*
X1760540Y-8393200D02*
X1760280Y-8393600D01*
X1760280Y-8393600D02*
X1745640Y-8411600D01*
X1745640Y-8411600D02*
X1745640Y-8411600D01*
X1745640Y-8411600D02*
X1745640Y-8411600D01*
X1745640Y-8411600D02*
X1745590Y-8411600D01*
X1745590Y-8411600D02*
X1745270Y-8412000D01*
X1745270Y-8412000D02*
X1744950Y-8412300D01*
X1744950Y-8412300D02*
X1727090Y-8427100D01*
X1727090Y-8427100D02*
X1727040Y-8427100D01*
X1727040Y-8427100D02*
X1726660Y-8427300D01*
X1726660Y-8427300D02*
X1726280Y-8427600D01*
X1726280Y-8427600D02*
X1705900Y-8438600D01*
X1705900Y-8438600D02*
X1705900Y-8438600D01*
X1705900Y-8438600D02*
X1705900Y-8438600D01*
X1705900Y-8438600D02*
X1705830Y-8438700D01*
X1705830Y-8438700D02*
X1705420Y-8438800D01*
X1705420Y-8438800D02*
X1705000Y-8439000D01*
X1705000Y-8439000D02*
X1682860Y-8445900D01*
X1682860Y-8445900D02*
X1682790Y-8445900D01*
X1682790Y-8445900D02*
X1682350Y-8446000D01*
X1682350Y-8446000D02*
X1681900Y-8446000D01*
X1681900Y-8446000D02*
X1658850Y-8448500D01*
X1658850Y-8448500D02*
X1658780Y-8448500D01*
X1658780Y-8448500D02*
X1658560Y-8448500D01*
X1658560Y-8448500D02*
X1658350Y-8448500D01*
X1658350Y-8448500D02*
X1657750Y-8448500D01*
X1657750Y-8448500D02*
X1657740Y-8448500D01*
X1657740Y-8448500D02*
X1182520Y-8448500D01*
X1182520Y-8448500D02*
X1181940Y-8448500D01*
X1181940Y-8448500D02*
X1159630Y-8450800D01*
X1159630Y-8450800D02*
X1138430Y-8457400D01*
X1138430Y-8457400D02*
X1118910Y-8468000D01*
X1118910Y-8468000D02*
X1101800Y-8482100D01*
X1101800Y-8482100D02*
X1087780Y-8499300D01*
X1087780Y-8499300D02*
X1077360Y-8518900D01*
X1077360Y-8518900D02*
X1070940Y-8540200D01*
X1070940Y-8540200D02*
X1068750Y-8562500D01*
X1068750Y-11649700D02*
X1068750Y-11650300D01*
X1068750Y-11650300D02*
X1071100Y-11672600D01*
X1071100Y-11672600D02*
X1077660Y-11693800D01*
X1077660Y-11693800D02*
X1088220Y-11713300D01*
X1088220Y-11713300D02*
X1102360Y-11730400D01*
X1102360Y-11730400D02*
X1119570Y-11744500D01*
X1119570Y-11744500D02*
X1139160Y-11754900D01*
X1139160Y-11754900D02*
X1160410Y-11761300D01*
X1160410Y-11761300D02*
X1182740Y-11763500D01*
X1182740Y-11763500D02*
X28505750Y-11762600D01*
X28505550Y-1203850D02*
X1182520Y-1204750D01*
X1182520Y-1204750D02*
X1181940Y-1204750D01*
X1181940Y-1204750D02*
X1159630Y-1207100D01*
X1159630Y-1207100D02*
X1138430Y-1213660D01*
X1138430Y-1213660D02*
X1118910Y-1224220D01*
X1118910Y-1224220D02*
X1101800Y-1238370D01*
X1101800Y-1238370D02*
X1087780Y-1255570D01*
X1087780Y-1255570D02*
X1077360Y-1275160D01*
X1077360Y-1275160D02*
X1070940Y-1296410D01*
X1070940Y-1296410D02*
X1068750Y-1318750D01*
X1068750Y-1318750D02*
X1068750Y-1674730D01*
X1068750Y-1674730D02*
X1068750Y-1675310D01*
X1068750Y-1675310D02*
X1071100Y-1697620D01*
X1071100Y-1697620D02*
X1077660Y-1718820D01*
X1077660Y-1718820D02*
X1088220Y-1738350D01*
X1088220Y-1738350D02*
X1102360Y-1755450D01*
X1102360Y-1755450D02*
X1119570Y-1769480D01*
X1119570Y-1769480D02*
X1139160Y-1779900D01*
X1139160Y-1779900D02*
X1160410Y-1786310D01*
X1160410Y-1786310D02*
X1182740Y-1788500D01*
X1182740Y-1788500D02*
X5457740Y-1788500D01*
X5457740Y-1788500D02*
X5457990Y-1788530D01*
X5457990Y-1788530D02*
X5457990Y-1788530D01*
X5457990Y-1788530D02*
X5481050Y-1790790D01*
X5481050Y-1790790D02*
X5481050Y-1790790D01*
X5481050Y-1790790D02*
X5481050Y-1790790D01*
X5481050Y-1790790D02*
X5481120Y-1790790D01*
X5481120Y-1790790D02*
X5481560Y-1790890D01*
X5481560Y-1790890D02*
X5482010Y-1790980D01*
X5482010Y-1790980D02*
X5504200Y-1797680D01*
X5504200Y-1797680D02*
X5504260Y-1797700D01*
X5504260Y-1797700D02*
X5504680Y-1797870D01*
X5504680Y-1797870D02*
X5505100Y-1798050D01*
X5505100Y-1798050D02*
X5525560Y-1808930D01*
X5525560Y-1808930D02*
X5525560Y-1808930D01*
X5525560Y-1808930D02*
X5525560Y-1808930D01*
X5525560Y-1808930D02*
X5525620Y-1808960D01*
X5525620Y-1808960D02*
X5526000Y-1809220D01*
X5526000Y-1809220D02*
X5526380Y-1809470D01*
X5526380Y-1809470D02*
X5544340Y-1824120D01*
X5544340Y-1824120D02*
X5544390Y-1824160D01*
X5544390Y-1824160D02*
X5544700Y-1824480D01*
X5544700Y-1824480D02*
X5545030Y-1824800D01*
X5545030Y-1824800D02*
X5559800Y-1842660D01*
X5559800Y-1842660D02*
X5559840Y-1842710D01*
X5559840Y-1842710D02*
X5560090Y-1843090D01*
X5560090Y-1843090D02*
X5560350Y-1843470D01*
X5560350Y-1843470D02*
X5571370Y-1863860D01*
X5571370Y-1863860D02*
X5571370Y-1863860D01*
X5571370Y-1863860D02*
X5571370Y-1863860D01*
X5571370Y-1863860D02*
X5571400Y-1863920D01*
X5571400Y-1863920D02*
X5571570Y-1864340D01*
X5571570Y-1864340D02*
X5571750Y-1864760D01*
X5571750Y-1864760D02*
X5578600Y-1886900D01*
X5578600Y-1886900D02*
X5578620Y-1886960D01*
X5578620Y-1886960D02*
X5578710Y-1887410D01*
X5578710Y-1887410D02*
X5578800Y-1887850D01*
X5578800Y-1887850D02*
X5581220Y-1910900D01*
X5581220Y-1910900D02*
X5581230Y-1910970D01*
X5581230Y-1910970D02*
X5581220Y-1911190D01*
X5581220Y-1911190D02*
X5581250Y-1911410D01*
X5581250Y-1911410D02*
X5581250Y-1912000D01*
X5581250Y-1912000D02*
X5581250Y-1912010D01*
X5581250Y-1912010D02*
X5581750Y-2202025D01*
X6055750Y-8302107D02*
X6056250Y-8324700D01*
X6056250Y-8324700D02*
X6056250Y-8325300D01*
X6056250Y-8325300D02*
X6058600Y-8347600D01*
X6058600Y-8347600D02*
X6065160Y-8368800D01*
X6065160Y-8368800D02*
X6075720Y-8388300D01*
X6075720Y-8388300D02*
X6089860Y-8405400D01*
X6089860Y-8405400D02*
X6107070Y-8419500D01*
X6107070Y-8419500D02*
X6126660Y-8429900D01*
X6126660Y-8429900D02*
X6147910Y-8436300D01*
X6147910Y-8436300D02*
X6170240Y-8438500D01*
X6170240Y-8438500D02*
X6407740Y-8438500D01*
X6407740Y-8438500D02*
X6407990Y-8438500D01*
X6407990Y-8438500D02*
X6407990Y-8438500D01*
X6407990Y-8438500D02*
X6431050Y-8440800D01*
X6431050Y-8440800D02*
X6431050Y-8440800D01*
X6431050Y-8440800D02*
X6431050Y-8440800D01*
X6431050Y-8440800D02*
X6431120Y-8440800D01*
X6431120Y-8440800D02*
X6431560Y-8440900D01*
X6431560Y-8440900D02*
X6432010Y-8441000D01*
X6432010Y-8441000D02*
X6454200Y-8447700D01*
X6454200Y-8447700D02*
X6454260Y-8447700D01*
X6454260Y-8447700D02*
X6454680Y-8447900D01*
X6454680Y-8447900D02*
X6455100Y-8448000D01*
X6455100Y-8448000D02*
X6475560Y-8458900D01*
X6475560Y-8458900D02*
X6475560Y-8458900D01*
X6475560Y-8458900D02*
X6475560Y-8458900D01*
X6475560Y-8458900D02*
X6475620Y-8459000D01*
X6475620Y-8459000D02*
X6476000Y-8459200D01*
X6476000Y-8459200D02*
X6476380Y-8459500D01*
X6476380Y-8459500D02*
X6494340Y-8474100D01*
X6494340Y-8474100D02*
X6494390Y-8474200D01*
X6494390Y-8474200D02*
X6494700Y-8474500D01*
X6494700Y-8474500D02*
X6495030Y-8474800D01*
X6495030Y-8474800D02*
X6509800Y-8492700D01*
X6509800Y-8492700D02*
X6509840Y-8492700D01*
X6509840Y-8492700D02*
X6510090Y-8493100D01*
X6510090Y-8493100D02*
X6510350Y-8493500D01*
X6510350Y-8493500D02*
X6521370Y-8513900D01*
X6521370Y-8513900D02*
X6521370Y-8513900D01*
X6521370Y-8513900D02*
X6521370Y-8513900D01*
X6521370Y-8513900D02*
X6521400Y-8513900D01*
X6521400Y-8513900D02*
X6521570Y-8514300D01*
X6521570Y-8514300D02*
X6521750Y-8514800D01*
X6521750Y-8514800D02*
X6528600Y-8536900D01*
X6528600Y-8536900D02*
X6528620Y-8537000D01*
X6528620Y-8537000D02*
X6528710Y-8537400D01*
X6528710Y-8537400D02*
X6528800Y-8537900D01*
X6528800Y-8537900D02*
X6531220Y-8560900D01*
X6531220Y-8560900D02*
X6531230Y-8561000D01*
X6531230Y-8561000D02*
X6531220Y-8561200D01*
X6531220Y-8561200D02*
X6531250Y-8561400D01*
X6531250Y-8561400D02*
X6531250Y-8562000D01*
X6531250Y-8562000D02*
X6531250Y-8562000D01*
X6531250Y-8562000D02*
X6531250Y-11279700D01*
X6531250Y-11279700D02*
X6531250Y-11280300D01*
X6531250Y-11280300D02*
X6533600Y-11302600D01*
X6533600Y-11302600D02*
X6540160Y-11323800D01*
X6540160Y-11323800D02*
X6550720Y-11343300D01*
X6550720Y-11343300D02*
X6564860Y-11360400D01*
X6564860Y-11360400D02*
X6582070Y-11374500D01*
X6582070Y-11374500D02*
X6601660Y-11384900D01*
X6601660Y-11384900D02*
X6622910Y-11391300D01*
X6622910Y-11391300D02*
X6645240Y-11393500D01*
X6645450Y-11393400D02*
X23161950Y-11392600D01*
X19718050Y-1797600D02*
X9970050Y-1798500D01*
X9970050Y-1798500D02*
X9969450Y-1798500D01*
X9969450Y-1798500D02*
X9947150Y-1800850D01*
X9947150Y-1800850D02*
X9925950Y-1807410D01*
X9925950Y-1807410D02*
X9906450Y-1817970D01*
X9906450Y-1817970D02*
X9889350Y-1832120D01*
X9889350Y-1832120D02*
X9875250Y-1849320D01*
X9875250Y-1849320D02*
X9864850Y-1868910D01*
X9864850Y-1868910D02*
X9858450Y-1890160D01*
X9858450Y-1890160D02*
X9856250Y-1912500D01*
X9856250Y-1912500D02*
X9856750Y-2201873D01*
X2256750Y-8302031D02*
X2256250Y-8324700D01*
X2256250Y-8324700D02*
X2256250Y-8325300D01*
X2256250Y-8325300D02*
X2258600Y-8347600D01*
X2258600Y-8347600D02*
X2265160Y-8368800D01*
X2265160Y-8368800D02*
X2275720Y-8388300D01*
X2275720Y-8388300D02*
X2289860Y-8405400D01*
X2289860Y-8405400D02*
X2307070Y-8419500D01*
X2307070Y-8419500D02*
X2326660Y-8429900D01*
X2326660Y-8429900D02*
X2347910Y-8436300D01*
X2347910Y-8436300D02*
X2370240Y-8438500D01*
X2370240Y-8438500D02*
X5457480Y-8438500D01*
X5457480Y-8438500D02*
X5458060Y-8438500D01*
X5458060Y-8438500D02*
X5480370Y-8436200D01*
X5480370Y-8436200D02*
X5501570Y-8429600D01*
X5501570Y-8429600D02*
X5521090Y-8419000D01*
X5521090Y-8419000D02*
X5538200Y-8404900D01*
X5538200Y-8404900D02*
X5552220Y-8387700D01*
X5552220Y-8387700D02*
X5562640Y-8368100D01*
X5562640Y-8368100D02*
X5569060Y-8346800D01*
X5569060Y-8346800D02*
X5571250Y-8324500D01*
X5571250Y-8324500D02*
X5571750Y-8302031D01*
X9372750Y-2202025D02*
X9371250Y-1912270D01*
X9371250Y-1912270D02*
X9371250Y-1911690D01*
X9371250Y-1911690D02*
X9368900Y-1889380D01*
X9368900Y-1889380D02*
X9362340Y-1868180D01*
X9362340Y-1868180D02*
X9351780Y-1848660D01*
X9351780Y-1848660D02*
X9337630Y-1831560D01*
X9337630Y-1831560D02*
X9320430Y-1817530D01*
X9320430Y-1817530D02*
X9300840Y-1807110D01*
X9300840Y-1807110D02*
X9279590Y-1800690D01*
X9279590Y-1800690D02*
X9257260Y-1798500D01*
X9257260Y-1798500D02*
X6170020Y-1798500D01*
X6170020Y-1798500D02*
X6169440Y-1798500D01*
X6169440Y-1798500D02*
X6147130Y-1800850D01*
X6147130Y-1800850D02*
X6125930Y-1807410D01*
X6125930Y-1807410D02*
X6106410Y-1817970D01*
X6106410Y-1817970D02*
X6089300Y-1832120D01*
X6089300Y-1832120D02*
X6075280Y-1849320D01*
X6075280Y-1849320D02*
X6064860Y-1868910D01*
X6064860Y-1868910D02*
X6058440Y-1890160D01*
X6058440Y-1890160D02*
X6056250Y-1912500D01*
X6056250Y-1912500D02*
X6057750Y-2201873D01*
X1068750Y-8562500D02*
X1068750Y-11649700D01*
X23631750Y-2202673D02*
X23631950Y-1911370D01*
X23631950Y-1911370D02*
X23631950Y-1910790D01*
X23631950Y-1910790D02*
X23629650Y-1888480D01*
X23629650Y-1888480D02*
X23623050Y-1867280D01*
X23623050Y-1867280D02*
X23612550Y-1847760D01*
X23612550Y-1847760D02*
X23598350Y-1830660D01*
X23598350Y-1830660D02*
X23581150Y-1816630D01*
X23581150Y-1816630D02*
X23561550Y-1806210D01*
X23561550Y-1806210D02*
X23540350Y-1799790D01*
X23540350Y-1799790D02*
X23518050Y-1797600D01*
X23518050Y-1797600D02*
X20430750Y-1797600D01*
X20430750Y-1797600D02*
X20430150Y-1797600D01*
X20430150Y-1797600D02*
X20407850Y-1799950D01*
X20407850Y-1799950D02*
X20386650Y-1806510D01*
X20386650Y-1806510D02*
X20367150Y-1817070D01*
X20367150Y-1817070D02*
X20350050Y-1831220D01*
X20350050Y-1831220D02*
X20336050Y-1848420D01*
X20336050Y-1848420D02*
X20325650Y-1868010D01*
X20325650Y-1868010D02*
X20319150Y-1889260D01*
X20319150Y-1889260D02*
X20317050Y-1911600D01*
X20317050Y-1911600D02*
X20316750Y-2202825D01*
X28030250Y-8447600D02*
X28007150Y-8445300D01*
X28586450Y-11729000D02*
X28600450Y-11711800D01*
X19781150Y-1816630D02*
X19761550Y-1806210D01*
X19798350Y-1830660D02*
X19781150Y-1816630D01*
X28619450Y-8560800D02*
X28619550Y-11648600D01*
X19832750Y-2202673D02*
X19831950Y-1911370D01*
X19831950Y-1911370D02*
X19831950Y-1910790D01*
X19831950Y-1910790D02*
X19829650Y-1888480D01*
X19829650Y-1888480D02*
X19823050Y-1867280D01*
X19823050Y-1867280D02*
X19812550Y-1847760D01*
X19812550Y-1847760D02*
X19798350Y-1830660D01*
X19761550Y-1806210D02*
X19740350Y-1799790D01*
X19740350Y-1799790D02*
X19718050Y-1797600D01*
X24117750Y-8302731D02*
X24117050Y-8323800D01*
X24117050Y-8323800D02*
X24117050Y-8324400D01*
X24117050Y-8324400D02*
X24119350Y-8346700D01*
X24119350Y-8346700D02*
X24125950Y-8367900D01*
X24125950Y-8367900D02*
X24136450Y-8387400D01*
X24136450Y-8387400D02*
X24150650Y-8404500D01*
X24150650Y-8404500D02*
X24167850Y-8418600D01*
X24167850Y-8418600D02*
X24187450Y-8429000D01*
X24187450Y-8429000D02*
X24208650Y-8435400D01*
X24208650Y-8435400D02*
X24230950Y-8437600D01*
X24230950Y-8437600D02*
X27318250Y-8437600D01*
X27318250Y-8437600D02*
X27318850Y-8437600D01*
X27318850Y-8437600D02*
X27341150Y-8435300D01*
X27341150Y-8435300D02*
X27362350Y-8428700D01*
X27362350Y-8428700D02*
X27381850Y-8418100D01*
X27381850Y-8418100D02*
X27398950Y-8404000D01*
X27398950Y-8404000D02*
X27412950Y-8386800D01*
X27412950Y-8386800D02*
X27423350Y-8367200D01*
X27423350Y-8367200D02*
X27429850Y-8345900D01*
X27429850Y-8345900D02*
X27431950Y-8323600D01*
X27431950Y-8323600D02*
X27432750Y-8302731D01*
X23161950Y-11392600D02*
X23162550Y-11392600D01*
X23162550Y-11392600D02*
X23184850Y-11390300D01*
X23184850Y-11390300D02*
X23206050Y-11383700D01*
X23206050Y-11383700D02*
X23225550Y-11373100D01*
X23225550Y-11373100D02*
X23242650Y-11359000D01*
X23242650Y-11359000D02*
X23256750Y-11341800D01*
X23256750Y-11341800D02*
X23267150Y-11322200D01*
X23267150Y-11322200D02*
X23273550Y-11300900D01*
X23273550Y-11300900D02*
X23275750Y-11278600D01*
X23275750Y-11278600D02*
X23275750Y-8561100D01*
X23275750Y-8561100D02*
X23275750Y-8560900D01*
X23275750Y-8560900D02*
X23275750Y-8560900D01*
X23275750Y-8560900D02*
X23278050Y-8537800D01*
X23278050Y-8537800D02*
X23278050Y-8537800D01*
X23278050Y-8537800D02*
X23278050Y-8537800D01*
X23278050Y-8537800D02*
X23278050Y-8537700D01*
X23278050Y-8537700D02*
X23278150Y-8537300D01*
X23278150Y-8537300D02*
X23278250Y-8536800D01*
X23278250Y-8536800D02*
X23284950Y-8514700D01*
X23284950Y-8514700D02*
X23284950Y-8514600D01*
X23284950Y-8514600D02*
X23285150Y-8514200D01*
X23285150Y-8514200D02*
X23285250Y-8513800D01*
X23285250Y-8513800D02*
X23296150Y-8493300D01*
X23296150Y-8493300D02*
X23296150Y-8493300D01*
X23296150Y-8493300D02*
X23296150Y-8493300D01*
X23296150Y-8493300D02*
X23296250Y-8493200D01*
X23296250Y-8493200D02*
X23296450Y-8492900D01*
X23296450Y-8492900D02*
X23296750Y-8492500D01*
X23296750Y-8492500D02*
X23311350Y-8474500D01*
X23311350Y-8474500D02*
X23311450Y-8474500D01*
X23311450Y-8474500D02*
X23311750Y-8474100D01*
X23311750Y-8474100D02*
X23312050Y-8473800D01*
X23312050Y-8473800D02*
X23329950Y-8459100D01*
X23329950Y-8459100D02*
X23329950Y-8459000D01*
X23329950Y-8459000D02*
X23330350Y-8458800D01*
X23330350Y-8458800D02*
X23330750Y-8458500D01*
X23330750Y-8458500D02*
X23351150Y-8447500D01*
X23351150Y-8447500D02*
X23351150Y-8447500D01*
X23351150Y-8447500D02*
X23351150Y-8447500D01*
X23351150Y-8447500D02*
X23351150Y-8447400D01*
X23351150Y-8447400D02*
X23351550Y-8447300D01*
X23351550Y-8447300D02*
X23352050Y-8447100D01*
X23352050Y-8447100D02*
X23374150Y-8440300D01*
X23374150Y-8440300D02*
X23374150Y-8440300D01*
X23374150Y-8440300D02*
X23374250Y-8440200D01*
X23374250Y-8440200D02*
X23374650Y-8440100D01*
X23374650Y-8440100D02*
X23375050Y-8440100D01*
X23375050Y-8440100D02*
X23398150Y-8437600D01*
X23398150Y-8437600D02*
X23398250Y-8437600D01*
X23398250Y-8437600D02*
X23398450Y-8437600D01*
X23398450Y-8437600D02*
X23398650Y-8437600D01*
X23398650Y-8437600D02*
X23399250Y-8437600D01*
X23399250Y-8437600D02*
X23399250Y-8437600D01*
X23399250Y-8437600D02*
X23518250Y-8437600D01*
X23518250Y-8437600D02*
X23518850Y-8437600D01*
X23518850Y-8437600D02*
X23541150Y-8435300D01*
X23541150Y-8435300D02*
X23562350Y-8428700D01*
X23562350Y-8428700D02*
X23581850Y-8418100D01*
X23581850Y-8418100D02*
X23598950Y-8404000D01*
X23598950Y-8404000D02*
X23612950Y-8386800D01*
X23612950Y-8386800D02*
X23623350Y-8367200D01*
X23623350Y-8367200D02*
X23629850Y-8345900D01*
X23629850Y-8345900D02*
X23632050Y-8323600D01*
X23632050Y-8323600D02*
X23632750Y-8302807D01*
X24109250Y-1887730D02*
X24109350Y-1887290D01*
X24109350Y-1887290D02*
X24109450Y-1886840D01*
X24109450Y-1886840D02*
X24116150Y-1864650D01*
X24116150Y-1864650D02*
X24116150Y-1864590D01*
X24116150Y-1864590D02*
X24116350Y-1864170D01*
X24116350Y-1864170D02*
X24116550Y-1863750D01*
X24116550Y-1863750D02*
X24127450Y-1843290D01*
X24127450Y-1843290D02*
X24127450Y-1843290D01*
X24127450Y-1843290D02*
X24127450Y-1843290D01*
X24127450Y-1843290D02*
X24127450Y-1843230D01*
X24127450Y-1843230D02*
X24127750Y-1842850D01*
X24127750Y-1842850D02*
X24127950Y-1842480D01*
X24127950Y-1842480D02*
X24142650Y-1824520D01*
X24142650Y-1824520D02*
X24142650Y-1824460D01*
X24142650Y-1824460D02*
X24142950Y-1824150D01*
X24142950Y-1824150D02*
X24143350Y-1823820D01*
X24143350Y-1823820D02*
X24161150Y-1809050D01*
X24161150Y-1809050D02*
X24161250Y-1809010D01*
X24161250Y-1809010D02*
X24161550Y-1808760D01*
X24161550Y-1808760D02*
X24161950Y-1808510D01*
X24161950Y-1808510D02*
X24182350Y-1797480D01*
X24182350Y-1797480D02*
X24182350Y-1797480D01*
X24182350Y-1797480D02*
X24182350Y-1797480D01*
X24182350Y-1797480D02*
X24182450Y-1797450D01*
X24182450Y-1797450D02*
X24182850Y-1797280D01*
X24182850Y-1797280D02*
X24183250Y-1797100D01*
X24183250Y-1797100D02*
X24205350Y-1790250D01*
X24205350Y-1790250D02*
X24205350Y-1790250D01*
X24205350Y-1790250D02*
X24205450Y-1790230D01*
X24205450Y-1790230D02*
X24205950Y-1790150D01*
X24205950Y-1790150D02*
X24206350Y-1790050D01*
X24206350Y-1790050D02*
X24229350Y-1787630D01*
X24229350Y-1787630D02*
X24229450Y-1787630D01*
X24229450Y-1787630D02*
X24229650Y-1787630D01*
X24229650Y-1787630D02*
X24229950Y-1787600D01*
X24229950Y-1787600D02*
X24230450Y-1787600D01*
X24230450Y-1787600D02*
X24230550Y-1787600D01*
X24230550Y-1787600D02*
X28505750Y-1787600D01*
X28505750Y-1787600D02*
X28506350Y-1787600D01*
X28506350Y-1787600D02*
X28528650Y-1785260D01*
X28528650Y-1785260D02*
X28549850Y-1778690D01*
X28549850Y-1778690D02*
X28569350Y-1768140D01*
X28569350Y-1768140D02*
X28586450Y-1753990D01*
X28586450Y-1753990D02*
X28600450Y-1736790D01*
X28600450Y-1736790D02*
X28610850Y-1717190D01*
X28610850Y-1717190D02*
X28617350Y-1695940D01*
X28617350Y-1695940D02*
X28619550Y-1673610D01*
X28619550Y-1673610D02*
X28619450Y-1317620D01*
X28619450Y-1317620D02*
X28619450Y-1317040D01*
X28619450Y-1317040D02*
X28617150Y-1294730D01*
X28617150Y-1294730D02*
X28610550Y-1273530D01*
X28610550Y-1273530D02*
X28600050Y-1254010D01*
X28600050Y-1254010D02*
X28585850Y-1236910D01*
X28585850Y-1236910D02*
X28568650Y-1222880D01*
X28568650Y-1222880D02*
X28549050Y-1212460D01*
X28549050Y-1212460D02*
X28527850Y-1206040D01*
X28527850Y-1206040D02*
X28505550Y-1203850D01*
X24107750Y-2202825D02*
X24106950Y-1911110D01*
X24106950Y-1911110D02*
X24107050Y-1910860D01*
X24107050Y-1910860D02*
X24109250Y-1887800D01*
X24109250Y-1887800D02*
X24109250Y-1887800D01*
X24109250Y-1887800D02*
X24109250Y-1887800D01*
X24109250Y-1887800D02*
X24109250Y-1887730D01*
X27907050Y-8325100D02*
X27907050Y-8324900D01*
X27907050Y-8324900D02*
X27907050Y-8324700D01*
X27907050Y-8324700D02*
X27907050Y-8324100D01*
X27907050Y-8324100D02*
X27906950Y-8324100D01*
X27906950Y-8324100D02*
X27907750Y-8302807D01*
X27916550Y-8371300D02*
X27909650Y-8349200D01*
X27909650Y-8349200D02*
X27909650Y-8349100D01*
X27909650Y-8349100D02*
X27909550Y-8348700D01*
X27909550Y-8348700D02*
X27909450Y-8348300D01*
X27909450Y-8348300D02*
X27907050Y-8325200D01*
X27907050Y-8325200D02*
X27907050Y-8325100D01*
X28505750Y-11762600D02*
X28506350Y-11762600D01*
X28506350Y-11762600D02*
X28528650Y-11760300D01*
X28528650Y-11760300D02*
X28549850Y-11753700D01*
X28549850Y-11753700D02*
X28569350Y-11743100D01*
X28569350Y-11743100D02*
X28586450Y-11729000D01*
X28600450Y-11711800D02*
X28610850Y-11692200D01*
X28610850Y-11692200D02*
X28617350Y-11670900D01*
X28617350Y-11670900D02*
X28619550Y-11648600D01*
X28619450Y-8560800D02*
X28617150Y-8538500D01*
X28617150Y-8538500D02*
X28610550Y-8517300D01*
X28610550Y-8517300D02*
X28600050Y-8497800D01*
X28600050Y-8497800D02*
X28585850Y-8480700D01*
X28585850Y-8480700D02*
X28568650Y-8466600D01*
X28568650Y-8466600D02*
X28549050Y-8456200D01*
X28549050Y-8456200D02*
X28527850Y-8449800D01*
X28527850Y-8449800D02*
X28505550Y-8447600D01*
X28505550Y-8447600D02*
X28030550Y-8447600D01*
X28030550Y-8447600D02*
X28030250Y-8447600D01*
X28030250Y-8447600D02*
X28030250Y-8447600D01*
X28007150Y-8445300D02*
X28007150Y-8445300D01*
X28007150Y-8445300D02*
X28007150Y-8445300D01*
X28007150Y-8445300D02*
X28007150Y-8445300D01*
X28007150Y-8445300D02*
X28006650Y-8445200D01*
X28006650Y-8445200D02*
X28006250Y-8445100D01*
X28006250Y-8445100D02*
X27984050Y-8438400D01*
X27984050Y-8438400D02*
X27983950Y-8438400D01*
X27983950Y-8438400D02*
X27983550Y-8438200D01*
X27983550Y-8438200D02*
X27983150Y-8438100D01*
X27983150Y-8438100D02*
X27962650Y-8427200D01*
X27962650Y-8427200D02*
X27962650Y-8427200D01*
X27962650Y-8427200D02*
X27962650Y-8427100D01*
X27962650Y-8427100D02*
X27962250Y-8426900D01*
X27962250Y-8426900D02*
X27961850Y-8426600D01*
X27961850Y-8426600D02*
X27943950Y-8412000D01*
X27943950Y-8412000D02*
X27943950Y-8412000D01*
X27943950Y-8412000D02*
X27943950Y-8412000D01*
X27943950Y-8412000D02*
X27943850Y-8411900D01*
X27943850Y-8411900D02*
X27943550Y-8411600D01*
X27943550Y-8411600D02*
X27943250Y-8411300D01*
X27943250Y-8411300D02*
X27928450Y-8393400D01*
X27928450Y-8393400D02*
X27928450Y-8393400D01*
X27928450Y-8393400D02*
X27928150Y-8393000D01*
X27928150Y-8393000D02*
X27927950Y-8392600D01*
X27927950Y-8392600D02*
X27916850Y-8372200D01*
X27916850Y-8372200D02*
X27916850Y-8372200D01*
X27916850Y-8372200D02*
X27916850Y-8372200D01*
X27916850Y-8372200D02*
X27916850Y-8372200D01*
X27916850Y-8372200D02*
X27916650Y-8371800D01*
X27916650Y-8371800D02*
X27916550Y-8371300D01*
X18162950Y-10267800D02*
X18183119Y-10262377D01*
X18203571Y-10258200D01*
X18224248Y-10255278D01*
X18228406Y-10254846D01*
X15218179Y-8762572D02*
X15209231Y-8744685D01*
X15201683Y-8723223D01*
X15197065Y-8700959D01*
X15195456Y-8678190D01*
X15195470Y-8675323D01*
X19170618Y-2402571D02*
X19170618Y-2252711D01*
X17320484Y-2452609D02*
X19120580Y-2452609D01*
X15195470Y-2727817D02*
X15200402Y-2706148D01*
X15213664Y-2689248D01*
X15232967Y-2679406D01*
X15245458Y-2677830D01*
X15195522Y-2727690D02*
X15195522Y-6450000D01*
X24117750Y-8302731D02*
X27432750Y-8302731D01*
X28570463Y-2727817D02*
X28570640Y-8252693D01*
X24820588Y-2677653D02*
X28520450Y-2677830D01*
X21120574Y-1977629D02*
X22820594Y-1977629D01*
X21070536Y-2152635D02*
X21070536Y-2027667D01*
X19220656Y-2202673D02*
X19832750Y-2202673D01*
X18162950Y-10267800D02*
X16733542Y-11093908D01*
X17270700Y-2502647D02*
X17270471Y-2627818D01*
X17270471Y-2502824D02*
X17275397Y-2481146D01*
X17288657Y-2464238D01*
X17307962Y-2454390D01*
X17320458Y-2452812D01*
X24770550Y-2252711D02*
X24770550Y-2627615D01*
X22920670Y-2202673D02*
X23631750Y-2202673D01*
X22870632Y-2027667D02*
X22870632Y-2152635D01*
X15245559Y-2677653D02*
X17220459Y-2677830D01*
X28570463Y-8252820D02*
X28565527Y-8274496D01*
X28552258Y-8291398D01*
X28532947Y-8301236D01*
X28520451Y-8302807D01*
X28520451Y-8302807D02*
X28520450Y-8302807D01*
X28520450Y-2677830D02*
X28542128Y-2682755D01*
X28559037Y-2696015D01*
X28568885Y-2715322D01*
X28570463Y-2727817D01*
X28570463Y-2727817D02*
X28570463Y-2727817D01*
X24820461Y-2677830D02*
X24798783Y-2672905D01*
X24781874Y-2659644D01*
X24772026Y-2640338D01*
X24770449Y-2627843D01*
X24770449Y-2627843D02*
X24770449Y-2627818D01*
X24720462Y-2202825D02*
X24742131Y-2207758D01*
X24759030Y-2221019D01*
X24768873Y-2240321D01*
X24770449Y-2252813D01*
X22920466Y-2202825D02*
X22898788Y-2197900D01*
X22881880Y-2184640D01*
X22872032Y-2165333D01*
X22870454Y-2152838D01*
X22870454Y-2152838D02*
X22870454Y-2152813D01*
X22820467Y-1977807D02*
X22842143Y-1982743D01*
X22859045Y-1996012D01*
X22868883Y-2015323D01*
X22870454Y-2027819D01*
X22870454Y-2027819D02*
X22870454Y-2027819D01*
X21070459Y-2027819D02*
X21075384Y-2006141D01*
X21088645Y-1989232D01*
X21107951Y-1979384D01*
X21120447Y-1977807D01*
X21120447Y-1977807D02*
X21120447Y-1977807D01*
X21070459Y-2152813D02*
X21065534Y-2174491D01*
X21052274Y-2191400D01*
X21032967Y-2201248D01*
X21020472Y-2202825D01*
X21020472Y-2202825D02*
X21020447Y-2202825D01*
X19170465Y-2252813D02*
X19175398Y-2231143D01*
X19188659Y-2214244D01*
X19207961Y-2204401D01*
X19220452Y-2202825D01*
X19170465Y-2402825D02*
X19165529Y-2424500D01*
X19152260Y-2441402D01*
X19132949Y-2451241D01*
X19120453Y-2452812D01*
X16540730Y-11055961D02*
X15218128Y-8762725D01*
X16541040Y-11056423D02*
X16540730Y-11055961D01*
X16733542Y-11093908D02*
X16715136Y-11104387D01*
X16695861Y-11111787D01*
X16676044Y-11116172D01*
X16656010Y-11117605D01*
X16629527Y-11115034D01*
X16604014Y-11107479D01*
X16585982Y-11098634D01*
X16569258Y-11087133D01*
X16554168Y-11073042D01*
X16541040Y-11056423D01*
X21895451Y-9777809D02*
X18228406Y-10254846D01*
X21930807Y-9763179D02*
X21913452Y-9774462D01*
X21895451Y-9777809D01*
X22985109Y-8317463D02*
X21930807Y-9763179D01*
X17270471Y-2627818D02*
X17265546Y-2649496D01*
X17252285Y-2666405D01*
X17232978Y-2676253D01*
X17220483Y-2677830D01*
X17220483Y-2677830D02*
X17220459Y-2677830D01*
X6669034Y-8302007D02*
X6055750Y-8302107D01*
X1169050Y-8302007D02*
X1780750Y-8302031D01*
X4969038Y-2202025D02*
X5581750Y-2202025D01*
X8669053Y-2202025D02*
X9372750Y-2202025D01*
X12469017Y-2677030D02*
X12469041Y-2677030D01*
X12419029Y-2627018D02*
X12423954Y-2648696D01*
X12437215Y-2665605D01*
X12456521Y-2675453D01*
X12469017Y-2677030D01*
X6704390Y-8316663D02*
X7758693Y-9762379D01*
X7794049Y-9777009D02*
X11461094Y-10254046D01*
X12955958Y-11093108D02*
X12974364Y-11103587D01*
X12993639Y-11110987D01*
X13013456Y-11115372D01*
X13033490Y-11116805D01*
X13059973Y-11114234D01*
X13085486Y-11106679D01*
X13103518Y-11097834D01*
X13120242Y-11086333D01*
X13135332Y-11072242D01*
X13148460Y-11055623D01*
X13148460Y-11055623D02*
X13148770Y-11055161D01*
X13148770Y-11055161D02*
X14471372Y-8761925D01*
X10519035Y-2402025D02*
X10523971Y-2423700D01*
X10537240Y-2440602D01*
X10556551Y-2450441D01*
X10569047Y-2452012D01*
X10519035Y-2252013D02*
X10514102Y-2230343D01*
X10500841Y-2213444D01*
X10481539Y-2203601D01*
X10469048Y-2202025D01*
X8669028Y-2202025D02*
X8669053Y-2202025D01*
X8619041Y-2152013D02*
X8623966Y-2173691D01*
X8637226Y-2190600D01*
X8656533Y-2200448D01*
X8669028Y-2202025D01*
X8569053Y-1977007D02*
X8569053Y-1977007D01*
X8619041Y-2027019D02*
X8614116Y-2005341D01*
X8600855Y-1988432D01*
X8581549Y-1978584D01*
X8569053Y-1977007D01*
X6819046Y-2027019D02*
X6819046Y-2027019D01*
X6869033Y-1977007D02*
X6847357Y-1981943D01*
X6830455Y-1995212D01*
X6820616Y-2014523D01*
X6819046Y-2027019D01*
X6819046Y-2152038D02*
X6819046Y-2152013D01*
X6769033Y-2202025D02*
X6790712Y-2197100D01*
X6807620Y-2183840D01*
X6817468Y-2164533D01*
X6819046Y-2152038D01*
X4969038Y-2202025D02*
X4947369Y-2206958D01*
X4930469Y-2220219D01*
X4920627Y-2239521D01*
X4919051Y-2252013D01*
X4919051Y-2627043D02*
X4919051Y-2627018D01*
X4869039Y-2677030D02*
X4890717Y-2672105D01*
X4907626Y-2658844D01*
X4917474Y-2639538D01*
X4919051Y-2627043D01*
X1119037Y-2727017D02*
X1119037Y-2727017D01*
X1169050Y-2677030D02*
X1147372Y-2681955D01*
X1130463Y-2695215D01*
X1120615Y-2714522D01*
X1119037Y-2727017D01*
X1169049Y-8302007D02*
X1169050Y-8302007D01*
X1119037Y-8252020D02*
X1123973Y-8273696D01*
X1137242Y-8290598D01*
X1156553Y-8300436D01*
X1169049Y-8302007D01*
X14443940Y-2676853D02*
X12469041Y-2677030D01*
X6819046Y-2027019D02*
X6818868Y-2151835D01*
X6768830Y-2201873D02*
X6057750Y-2201873D01*
X4918950Y-2251911D02*
X4918950Y-2626815D01*
X12419029Y-2502024D02*
X12414103Y-2480346D01*
X12400843Y-2463438D01*
X12381538Y-2453590D01*
X12369042Y-2452012D01*
X12418800Y-2501847D02*
X12419029Y-2627018D01*
X11526550Y-10267000D02*
X12955958Y-11093108D01*
X10468844Y-2201873D02*
X9856750Y-2201873D01*
X8618964Y-2151835D02*
X8618964Y-2026867D01*
X8568926Y-1976829D02*
X6868906Y-1976829D01*
X4868912Y-2676853D02*
X1169050Y-2677030D01*
X1119037Y-2727017D02*
X1118860Y-8251893D01*
X5571750Y-8302031D02*
X2256750Y-8302031D01*
X14493978Y-2726890D02*
X14493978Y-6450000D01*
X14494030Y-2727017D02*
X14489097Y-2705348D01*
X14475836Y-2688448D01*
X14456533Y-2678606D01*
X14444042Y-2677030D01*
X12369016Y-2451809D02*
X10568920Y-2451809D01*
X10518882Y-2401771D02*
X10518882Y-2251911D01*
X14471321Y-8761772D02*
X14480269Y-8743885D01*
X14487817Y-8722423D01*
X14492435Y-8700159D01*
X14494044Y-8677390D01*
X14494030Y-8674523D01*
X22985109Y-8317463D02*
X23002462Y-8306165D01*
X23020466Y-8302807D01*
X7758693Y-9762379D02*
X7776048Y-9773662D01*
X7794049Y-9777009D01*
X6704390Y-8316663D02*
X6687037Y-8305365D01*
X6669034Y-8302007D01*
X11526550Y-10267000D02*
X11506380Y-10261577D01*
X11485928Y-10257400D01*
X11465252Y-10254478D01*
X11461094Y-10254046D01*
X15195750Y-7000500D02*
X15195470Y-8675323D01*
X15215750Y-6988000D02*
X15330750Y-6988000D01*
X23020466Y-8302807D02*
X23632750Y-8302807D01*
X14473750Y-6468000D02*
G75*
G03*
X14493750Y-6448000I0J20000D01*
G01*
X15215750Y-6988000D02*
G75*
G03*
X15195750Y-7008000I0J-20000D01*
G01*
X15195750Y-6458000D02*
G75*
G03*
X15215750Y-6478000I20000J0D01*
G01*
X14310750Y-6518000D02*
X14310750Y-6928000D01*
X15380750Y-6528000D02*
G75*
G03*
X15330750Y-6478000I-50000J0D01*
G01*
X14493950Y-6998000D02*
G75*
G03*
X14473750Y-6978000I-20100J-100D01*
G01*
X28520450Y-8302807D02*
X27907750Y-8302807D01*
X14310750Y-6928000D02*
G75*
G03*
X14360750Y-6978000I50000J0D01*
G01*
X14493950Y-6995500D02*
X14494030Y-8674523D01*
X14360750Y-6978000D02*
X14473750Y-6978000D01*
X24720462Y-2202825D02*
X24107750Y-2202825D01*
X14360750Y-6468000D02*
X14473750Y-6468000D01*
X15380750Y-6528000D02*
X15380750Y-6938000D01*
X21020447Y-2202825D02*
X20316750Y-2202825D01*
X15330750Y-6988000D02*
G75*
G03*
X15380750Y-6938000I0J50000D01*
G01*
X14360750Y-6468000D02*
G75*
G03*
X14310750Y-6518000I0J-50000D01*
G01*
X15215750Y-6478000D02*
X15330750Y-6478000D01*
D11*
X1280750Y-3500500D02*
X1320750Y-3540500D01*
X1320750Y-3500500D02*
X1280750Y-3540500D01*
X1280750Y-5000500D02*
X1320750Y-5040500D01*
X1320750Y-5000500D02*
X1280750Y-5040500D01*
X1280750Y-5400500D02*
X1320750Y-5440500D01*
X1320750Y-5400500D02*
X1280750Y-5440500D01*
X1280750Y-6650500D02*
X1320750Y-6690500D01*
X1320750Y-6650500D02*
X1280750Y-6690500D01*
X1280750Y-6900500D02*
X1320750Y-6940500D01*
X1320750Y-6900500D02*
X1280750Y-6940500D01*
X3150750Y-5420500D02*
X3190750Y-5460500D01*
X3190750Y-5420500D02*
X3150750Y-5460500D01*
X3176484Y-4999491D02*
X3216484Y-5039491D01*
X3216484Y-4999491D02*
X3176484Y-5039491D01*
X3180750Y-3500500D02*
X3220750Y-3540500D01*
X3220750Y-3500500D02*
X3180750Y-3540500D01*
X3190750Y-6900500D02*
X3230750Y-6940500D01*
X3230750Y-6900500D02*
X3190750Y-6940500D01*
X3259695Y-6569445D02*
X3299695Y-6609445D01*
X3299695Y-6569445D02*
X3259695Y-6609445D01*
X5010750Y-3490500D02*
X5050750Y-3530500D01*
X5050750Y-3490500D02*
X5010750Y-3530500D01*
X5080750Y-3030500D02*
X5120750Y-3070500D01*
X5120750Y-3030500D02*
X5080750Y-3070500D01*
X5080750Y-4530500D02*
X5120750Y-4570500D01*
X5120750Y-4530500D02*
X5080750Y-4570500D01*
X5080750Y-4930500D02*
X5120750Y-4970500D01*
X5120750Y-4930500D02*
X5080750Y-4970500D01*
X5080750Y-6430500D02*
X5120750Y-6470500D01*
X5120750Y-6430500D02*
X5080750Y-6470500D01*
X5090750Y-2630500D02*
X5130750Y-2670500D01*
X5130750Y-2630500D02*
X5090750Y-2670500D01*
X5237708Y-6097458D02*
X5277708Y-6137458D01*
X5277708Y-6097458D02*
X5237708Y-6137458D01*
X6918250Y-6110500D02*
X6958250Y-6150500D01*
X6958250Y-6110500D02*
X6918250Y-6150500D01*
X6918250Y-6820500D02*
X6958250Y-6860500D01*
X6958250Y-6820500D02*
X6918250Y-6860500D01*
X6980750Y-2790500D02*
X7020750Y-2830500D01*
X7020750Y-2790500D02*
X6980750Y-2830500D01*
X6980750Y-4290500D02*
X7020750Y-4330500D01*
X7020750Y-4290500D02*
X6980750Y-4330500D01*
X6980750Y-4690500D02*
X7020750Y-4730500D01*
X7020750Y-4690500D02*
X6980750Y-4730500D01*
X6980750Y-6190500D02*
X7020750Y-6230500D01*
X7020750Y-6190500D02*
X6980750Y-6230500D01*
X6980750Y-6550500D02*
X7020750Y-6590500D01*
X7020750Y-6550500D02*
X6980750Y-6590500D01*
X7020750Y-5950500D02*
X7060750Y-5990500D01*
X7060750Y-5950500D02*
X7020750Y-5990500D01*
X7930750Y-8410500D02*
X7970750Y-8450500D01*
X7970750Y-8410500D02*
X7930750Y-8450500D01*
X8880750Y-3030500D02*
X8920750Y-3070500D01*
X8920750Y-3030500D02*
X8880750Y-3070500D01*
X8880750Y-4530500D02*
X8920750Y-4570500D01*
X8920750Y-4530500D02*
X8880750Y-4570500D01*
X8880750Y-4930500D02*
X8920750Y-4970500D01*
X8920750Y-4930500D02*
X8880750Y-4970500D01*
X8880750Y-6430500D02*
X8920750Y-6470500D01*
X8920750Y-6430500D02*
X8880750Y-6470500D01*
X8880750Y-6830500D02*
X8920750Y-6870500D01*
X8920750Y-6830500D02*
X8880750Y-6870500D01*
X8920750Y-6010500D02*
X8960750Y-6050500D01*
X8960750Y-6010500D02*
X8920750Y-6050500D01*
X9980750Y-8500500D02*
X10020750Y-8540500D01*
X10020750Y-8500500D02*
X9980750Y-8540500D01*
X10780750Y-3260500D02*
X10820750Y-3300500D01*
X10820750Y-3260500D02*
X10780750Y-3300500D01*
X10780750Y-4770500D02*
X10820750Y-4810500D01*
X10820750Y-4770500D02*
X10780750Y-4810500D01*
X10780750Y-5160500D02*
X10820750Y-5200500D01*
X10820750Y-5160500D02*
X10780750Y-5200500D01*
X10780750Y-6660500D02*
X10820750Y-6700500D01*
X10820750Y-6660500D02*
X10780750Y-6700500D01*
X10780750Y-7060500D02*
X10820750Y-7100500D01*
X10820750Y-7060500D02*
X10780750Y-7100500D01*
X10820750Y-6260500D02*
X10860750Y-6300500D01*
X10860750Y-6260500D02*
X10820750Y-6300500D01*
X12240750Y-9880500D02*
X12280750Y-9920500D01*
X12280750Y-9880500D02*
X12240750Y-9920500D01*
X12340750Y-5400500D02*
X12380750Y-5440500D01*
X12380750Y-5400500D02*
X12340750Y-5440500D01*
X12440750Y-6758000D02*
X12480750Y-6798000D01*
X12480750Y-6758000D02*
X12440750Y-6798000D01*
X12460750Y-7060500D02*
X12500750Y-7100500D01*
X12500750Y-7060500D02*
X12460750Y-7100500D01*
X12629374Y-8618235D02*
X12669374Y-8658235D01*
X12669374Y-8618235D02*
X12629374Y-8658235D01*
X13430750Y-3018000D02*
X13470750Y-3058000D01*
X13470750Y-3018000D02*
X13430750Y-3058000D01*
X13950750Y-7658000D02*
X13990750Y-7698000D01*
X13990750Y-7658000D02*
X13950750Y-7698000D01*
X14070750Y-6938000D02*
X14110750Y-6978000D01*
X14110750Y-6938000D02*
X14070750Y-6978000D01*
X15570750Y-6067500D02*
X15610750Y-6107500D01*
X15610750Y-6067500D02*
X15570750Y-6107500D01*
X15750750Y-7458000D02*
X15790750Y-7498000D01*
X15790750Y-7458000D02*
X15750750Y-7498000D01*
X16668750Y-8647500D02*
X16708750Y-8687500D01*
X16708750Y-8647500D02*
X16668750Y-8687500D01*
X16691056Y-8542806D02*
X16731056Y-8582806D01*
X16731056Y-8542806D02*
X16691056Y-8582806D01*
X16848850Y-2979900D02*
X16888850Y-3019900D01*
X16888850Y-2979900D02*
X16848850Y-3019900D01*
X17256100Y-5773350D02*
X17296100Y-5813350D01*
X17296100Y-5773350D02*
X17256100Y-5813350D01*
X17260750Y-4381520D02*
X17300750Y-4421520D01*
X17300750Y-4381520D02*
X17260750Y-4421520D01*
X17386352Y-2776500D02*
X17426352Y-2816500D01*
X17426352Y-2776500D02*
X17386352Y-2816500D01*
X17409750Y-6281500D02*
X17449750Y-6321500D01*
X17449750Y-6281500D02*
X17409750Y-6321500D01*
X17421750Y-7047500D02*
X17461750Y-7087500D01*
X17461750Y-7047500D02*
X17421750Y-7087500D01*
X17430750Y-3260500D02*
X17470750Y-3300500D01*
X17470750Y-3260500D02*
X17430750Y-3300500D01*
X17430750Y-4760500D02*
X17470750Y-4800500D01*
X17470750Y-4760500D02*
X17430750Y-4800500D01*
X17430750Y-6670500D02*
X17470750Y-6710500D01*
X17470750Y-6670500D02*
X17430750Y-6710500D01*
X17440750Y-5170500D02*
X17480750Y-5210500D01*
X17480750Y-5170500D02*
X17440750Y-5210500D01*
X17503250Y-5821501D02*
X17543250Y-5861501D01*
X17543250Y-5821501D02*
X17503250Y-5861501D01*
X17503250Y-6230000D02*
X17543250Y-6270000D01*
X17543250Y-6230000D02*
X17503250Y-6270000D01*
X18098750Y-8869500D02*
X18138750Y-8909500D01*
X18138750Y-8869500D02*
X18098750Y-8909500D01*
X19293750Y-6167500D02*
X19333750Y-6207500D01*
X19333750Y-6167500D02*
X19293750Y-6207500D01*
X19330750Y-3020500D02*
X19370750Y-3060500D01*
X19370750Y-3020500D02*
X19330750Y-3060500D01*
X19330750Y-4530500D02*
X19370750Y-4570500D01*
X19370750Y-4530500D02*
X19330750Y-4570500D01*
X19330750Y-4910500D02*
X19370750Y-4950500D01*
X19370750Y-4910500D02*
X19330750Y-4950500D01*
X19330750Y-6430500D02*
X19370750Y-6470500D01*
X19370750Y-6430500D02*
X19330750Y-6470500D01*
X19331750Y-6812500D02*
X19371750Y-6852500D01*
X19371750Y-6812500D02*
X19331750Y-6852500D01*
X20288750Y-8413500D02*
X20328750Y-8453500D01*
X20328750Y-8413500D02*
X20288750Y-8453500D01*
X21190750Y-5882000D02*
X21230750Y-5922000D01*
X21230750Y-5882000D02*
X21190750Y-5922000D01*
X21230750Y-2780500D02*
X21270750Y-2820500D01*
X21270750Y-2780500D02*
X21230750Y-2820500D01*
X21230750Y-4290500D02*
X21270750Y-4330500D01*
X21270750Y-4290500D02*
X21230750Y-4330500D01*
X21230750Y-4690500D02*
X21270750Y-4730500D01*
X21270750Y-4690500D02*
X21230750Y-4730500D01*
X21230750Y-6200500D02*
X21270750Y-6240500D01*
X21270750Y-6200500D02*
X21230750Y-6240500D01*
X21235750Y-6578500D02*
X21275750Y-6618500D01*
X21275750Y-6578500D02*
X21235750Y-6618500D01*
X23103445Y-5831305D02*
X23143445Y-5871305D01*
X23143445Y-5831305D02*
X23103445Y-5871305D01*
X23130750Y-3010500D02*
X23170750Y-3050500D01*
X23170750Y-3010500D02*
X23130750Y-3050500D01*
X23130750Y-4530500D02*
X23170750Y-4570500D01*
X23170750Y-4530500D02*
X23130750Y-4570500D01*
X23140750Y-4930500D02*
X23180750Y-4970500D01*
X23180750Y-4930500D02*
X23140750Y-4970500D01*
X23140750Y-6430500D02*
X23180750Y-6470500D01*
X23180750Y-6430500D02*
X23140750Y-6470500D01*
X24979750Y-6390001D02*
X25019750Y-6430001D01*
X25019750Y-6390001D02*
X24979750Y-6430001D01*
X25030750Y-3490500D02*
X25070750Y-3530500D01*
X25070750Y-3490500D02*
X25030750Y-3530500D01*
X25030750Y-5010500D02*
X25070750Y-5050500D01*
X25070750Y-5010500D02*
X25030750Y-5050500D01*
X25030750Y-5400500D02*
X25070750Y-5440500D01*
X25070750Y-5400500D02*
X25030750Y-5440500D01*
X25030750Y-6900500D02*
X25070750Y-6940500D01*
X25070750Y-6900500D02*
X25030750Y-6940500D01*
X26930750Y-6910500D02*
X26970750Y-6950500D01*
X26970750Y-6910500D02*
X26930750Y-6950500D01*
X26934750Y-6635000D02*
X26974750Y-6675000D01*
X26974750Y-6635000D02*
X26934750Y-6675000D01*
X26939251Y-5000500D02*
X26979251Y-5040500D01*
X26979251Y-5000500D02*
X26939251Y-5040500D01*
X26940750Y-3500500D02*
X26980750Y-3540500D01*
X26980750Y-3500500D02*
X26940750Y-3540500D01*
X26941750Y-5435500D02*
X26981750Y-5475500D01*
X26981750Y-5435500D02*
X26941750Y-5475500D01*
D12*
X12761030Y-3194200D02*
G75*
G03*
X12761030Y-3194200I-40640J0D01*
G01*
X12761030Y-3448200D02*
G75*
G03*
X12761030Y-3448200I-40640J0D01*
G01*
X12761030Y-3702200D02*
G75*
G03*
X12761030Y-3702200I-40640J0D01*
G01*
X12761030Y-3956200D02*
G75*
G03*
X12761030Y-3956200I-40640J0D01*
G01*
X12761030Y-4210200D02*
G75*
G03*
X12761030Y-4210200I-40640J0D01*
G01*
X12761030Y-4464200D02*
G75*
G03*
X12761030Y-4464200I-40640J0D01*
G01*
X12761030Y-4718200D02*
G75*
G03*
X12761030Y-4718200I-40640J0D01*
G01*
X12761030Y-4972200D02*
G75*
G03*
X12761030Y-4972200I-40640J0D01*
G01*
X12761030Y-5226200D02*
G75*
G03*
X12761030Y-5226200I-40640J0D01*
G01*
X12761030Y-5480200D02*
G75*
G03*
X12761030Y-5480200I-40640J0D01*
G01*
X12761030Y-5734200D02*
G75*
G03*
X12761030Y-5734200I-40640J0D01*
G01*
X12761030Y-5988200D02*
G75*
G03*
X12761030Y-5988200I-40640J0D01*
G01*
X14283030Y-3194200D02*
G75*
G03*
X14283030Y-3194200I-40640J0D01*
G01*
X14283030Y-3448200D02*
G75*
G03*
X14283030Y-3448200I-40640J0D01*
G01*
X14283030Y-3702200D02*
G75*
G03*
X14283030Y-3702200I-40640J0D01*
G01*
X14283030Y-3956200D02*
G75*
G03*
X14283030Y-3956200I-40640J0D01*
G01*
X14283030Y-4210200D02*
G75*
G03*
X14283030Y-4210200I-40640J0D01*
G01*
X14283030Y-4464200D02*
G75*
G03*
X14283030Y-4464200I-40640J0D01*
G01*
X14283030Y-4718200D02*
G75*
G03*
X14283030Y-4718200I-40640J0D01*
G01*
X14283030Y-4972200D02*
G75*
G03*
X14283030Y-4972200I-40640J0D01*
G01*
X14283030Y-5226200D02*
G75*
G03*
X14283030Y-5226200I-40640J0D01*
G01*
X14283030Y-5480200D02*
G75*
G03*
X14283030Y-5480200I-40640J0D01*
G01*
X14283030Y-5734200D02*
G75*
G03*
X14283030Y-5734200I-40640J0D01*
G01*
X14283030Y-5988200D02*
G75*
G03*
X14283030Y-5988200I-40640J0D01*
G01*
X15478530Y-3191200D02*
G75*
G03*
X15478530Y-3191200I-40640J0D01*
G01*
X15478530Y-3445200D02*
G75*
G03*
X15478530Y-3445200I-40640J0D01*
G01*
X15478530Y-3699200D02*
G75*
G03*
X15478530Y-3699200I-40640J0D01*
G01*
X15478530Y-3953200D02*
G75*
G03*
X15478530Y-3953200I-40640J0D01*
G01*
X15478530Y-4207200D02*
G75*
G03*
X15478530Y-4207200I-40640J0D01*
G01*
X15478530Y-4461200D02*
G75*
G03*
X15478530Y-4461200I-40640J0D01*
G01*
X15478530Y-4715200D02*
G75*
G03*
X15478530Y-4715200I-40640J0D01*
G01*
X15478530Y-4969200D02*
G75*
G03*
X15478530Y-4969200I-40640J0D01*
G01*
X15478530Y-5223200D02*
G75*
G03*
X15478530Y-5223200I-40640J0D01*
G01*
X15478530Y-5477200D02*
G75*
G03*
X15478530Y-5477200I-40640J0D01*
G01*
X15478530Y-5731200D02*
G75*
G03*
X15478530Y-5731200I-40640J0D01*
G01*
X15478530Y-5985200D02*
G75*
G03*
X15478530Y-5985200I-40640J0D01*
G01*
X17000530Y-3191200D02*
G75*
G03*
X17000530Y-3191200I-40640J0D01*
G01*
X17000530Y-3445200D02*
G75*
G03*
X17000530Y-3445200I-40640J0D01*
G01*
X17000530Y-3699200D02*
G75*
G03*
X17000530Y-3699200I-40640J0D01*
G01*
X17000530Y-3953200D02*
G75*
G03*
X17000530Y-3953200I-40640J0D01*
G01*
X17000530Y-4207200D02*
G75*
G03*
X17000530Y-4207200I-40640J0D01*
G01*
X17000530Y-4461200D02*
G75*
G03*
X17000530Y-4461200I-40640J0D01*
G01*
X17000530Y-4715200D02*
G75*
G03*
X17000530Y-4715200I-40640J0D01*
G01*
X17000530Y-4969200D02*
G75*
G03*
X17000530Y-4969200I-40640J0D01*
G01*
X17000530Y-5223200D02*
G75*
G03*
X17000530Y-5223200I-40640J0D01*
G01*
X17000530Y-5477200D02*
G75*
G03*
X17000530Y-5477200I-40640J0D01*
G01*
X17000530Y-5731200D02*
G75*
G03*
X17000530Y-5731200I-40640J0D01*
G01*
X17000530Y-5985200D02*
G75*
G03*
X17000530Y-5985200I-40640J0D01*
G01*
D13*
X12978250Y-6653000D02*
X12978250Y-6753000D01*
X12928250Y-6703000D02*
X13028250Y-6703000D01*
X13232250Y-6653000D02*
X13232250Y-6753000D01*
X13182250Y-6703000D02*
X13282250Y-6703000D01*
X13486250Y-6653000D02*
X13486250Y-6753000D01*
X13436250Y-6703000D02*
X13536250Y-6703000D01*
X13740250Y-6653000D02*
X13740250Y-6753000D01*
X13690250Y-6703000D02*
X13790250Y-6703000D01*
X13994250Y-6653000D02*
X13994250Y-6753000D01*
X13944250Y-6703000D02*
X14044250Y-6703000D01*
X15693250Y-6653000D02*
X15693250Y-6753000D01*
X15643250Y-6703000D02*
X15743250Y-6703000D01*
X15947250Y-6653000D02*
X15947250Y-6753000D01*
X15897250Y-6703000D02*
X15997250Y-6703000D01*
X16201250Y-6653000D02*
X16201250Y-6753000D01*
X16151250Y-6703000D02*
X16251250Y-6703000D01*
X16455250Y-6653000D02*
X16455250Y-6753000D01*
X16405250Y-6703000D02*
X16505250Y-6703000D01*
X16709250Y-6653000D02*
X16709250Y-6753000D01*
X16659250Y-6703000D02*
X16759250Y-6703000D01*
D10*
X1316369Y-12083976D02*
X1316369Y-11883976D01*
X1363988Y-11883976D01*
X1392560Y-11893500D01*
X1411607Y-11912548D01*
X1421131Y-11931595D01*
X1430655Y-11969690D01*
X1430655Y-11998262D01*
X1421131Y-12036357D01*
X1411607Y-12055405D01*
X1392560Y-12074452D01*
X1363988Y-12083976D01*
X1316369Y-12083976D01*
X1516369Y-12083976D02*
X1516369Y-11950643D01*
X1516369Y-11988738D02*
X1525893Y-11969690D01*
X1535417Y-11960167D01*
X1554464Y-11950643D01*
X1573512Y-11950643D01*
X1640178Y-12083976D02*
X1640178Y-11950643D01*
X1640178Y-11883976D02*
X1630655Y-11893500D01*
X1640178Y-11903024D01*
X1649702Y-11893500D01*
X1640178Y-11883976D01*
X1640178Y-11903024D01*
X1763988Y-12083976D02*
X1744940Y-12074452D01*
X1735417Y-12055405D01*
X1735417Y-11883976D01*
X1868750Y-12083976D02*
X1849702Y-12074452D01*
X1840178Y-12055405D01*
X1840178Y-11883976D01*
X2097321Y-12083976D02*
X2097321Y-11883976D01*
X2163988Y-12026833D01*
X2230655Y-11883976D01*
X2230655Y-12083976D01*
X2411607Y-12083976D02*
X2411607Y-11979214D01*
X2402083Y-11960167D01*
X2383036Y-11950643D01*
X2344940Y-11950643D01*
X2325893Y-11960167D01*
X2411607Y-12074452D02*
X2392560Y-12083976D01*
X2344940Y-12083976D01*
X2325893Y-12074452D01*
X2316369Y-12055405D01*
X2316369Y-12036357D01*
X2325893Y-12017309D01*
X2344940Y-12007786D01*
X2392560Y-12007786D01*
X2411607Y-11998262D01*
X2506845Y-11950643D02*
X2506845Y-12150643D01*
X2506845Y-11960167D02*
X2525893Y-11950643D01*
X2563988Y-11950643D01*
X2583036Y-11960167D01*
X2592560Y-11969690D01*
X2602083Y-11988738D01*
X2602083Y-12045881D01*
X2592560Y-12064928D01*
X2583036Y-12074452D01*
X2563988Y-12083976D01*
X2525893Y-12083976D01*
X2506845Y-12074452D01*
X2687798Y-12064928D02*
X2697321Y-12074452D01*
X2687798Y-12083976D01*
X2678274Y-12074452D01*
X2687798Y-12064928D01*
X2687798Y-12083976D01*
X2687798Y-11960167D02*
X2697321Y-11969690D01*
X2687798Y-11979214D01*
X2678274Y-11969690D01*
X2687798Y-11960167D01*
X2687798Y-11979214D01*
D11*
X1018750Y-12393500D02*
X1058750Y-12433500D01*
X1058750Y-12393500D02*
X1018750Y-12433500D01*
D10*
X1354464Y-12303976D02*
X1373512Y-12303976D01*
X1392560Y-12313500D01*
X1402083Y-12323024D01*
X1411607Y-12342071D01*
X1421131Y-12380167D01*
X1421131Y-12427786D01*
X1411607Y-12465881D01*
X1402083Y-12484928D01*
X1392560Y-12494452D01*
X1373512Y-12503976D01*
X1354464Y-12503976D01*
X1335417Y-12494452D01*
X1325893Y-12484928D01*
X1316369Y-12465881D01*
X1306845Y-12427786D01*
X1306845Y-12380167D01*
X1316369Y-12342071D01*
X1325893Y-12323024D01*
X1335417Y-12313500D01*
X1354464Y-12303976D01*
X1506845Y-12484928D02*
X1516369Y-12494452D01*
X1506845Y-12503976D01*
X1497321Y-12494452D01*
X1506845Y-12484928D01*
X1506845Y-12503976D01*
X1687798Y-12370643D02*
X1687798Y-12503976D01*
X1640178Y-12294452D02*
X1592559Y-12437309D01*
X1716369Y-12437309D01*
X1830655Y-12303976D02*
X1849702Y-12303976D01*
X1868750Y-12313500D01*
X1878274Y-12323024D01*
X1887798Y-12342071D01*
X1897321Y-12380167D01*
X1897321Y-12427786D01*
X1887798Y-12465881D01*
X1878274Y-12484928D01*
X1868750Y-12494452D01*
X1849702Y-12503976D01*
X1830655Y-12503976D01*
X1811607Y-12494452D01*
X1802083Y-12484928D01*
X1792559Y-12465881D01*
X1783036Y-12427786D01*
X1783036Y-12380167D01*
X1792559Y-12342071D01*
X1802083Y-12323024D01*
X1811607Y-12313500D01*
X1830655Y-12303976D01*
X2021131Y-12303976D02*
X2040178Y-12303976D01*
X2059226Y-12313500D01*
X2068750Y-12323024D01*
X2078274Y-12342071D01*
X2087798Y-12380167D01*
X2087798Y-12427786D01*
X2078274Y-12465881D01*
X2068750Y-12484928D01*
X2059226Y-12494452D01*
X2040178Y-12503976D01*
X2021131Y-12503976D01*
X2002083Y-12494452D01*
X1992559Y-12484928D01*
X1983036Y-12465881D01*
X1973512Y-12427786D01*
X1973512Y-12380167D01*
X1983036Y-12342071D01*
X1992559Y-12323024D01*
X2002083Y-12313500D01*
X2021131Y-12303976D01*
X2173512Y-12503976D02*
X2173512Y-12370643D01*
X2173512Y-12389690D02*
X2183036Y-12380167D01*
X2202083Y-12370643D01*
X2230655Y-12370643D01*
X2249702Y-12380167D01*
X2259226Y-12399214D01*
X2259226Y-12503976D01*
X2259226Y-12399214D02*
X2268750Y-12380167D01*
X2287798Y-12370643D01*
X2316369Y-12370643D01*
X2335417Y-12380167D01*
X2344940Y-12399214D01*
X2344940Y-12503976D01*
X2440179Y-12503976D02*
X2440179Y-12370643D01*
X2440179Y-12389690D02*
X2449702Y-12380167D01*
X2468750Y-12370643D01*
X2497321Y-12370643D01*
X2516369Y-12380167D01*
X2525893Y-12399214D01*
X2525893Y-12503976D01*
X2525893Y-12399214D02*
X2535417Y-12380167D01*
X2554464Y-12370643D01*
X2583036Y-12370643D01*
X2602083Y-12380167D01*
X2611607Y-12399214D01*
X2611607Y-12503976D01*
X3002083Y-12294452D02*
X2830655Y-12551595D01*
X3259226Y-12303976D02*
X3278274Y-12303976D01*
X3297321Y-12313500D01*
X3306845Y-12323024D01*
X3316369Y-12342071D01*
X3325893Y-12380167D01*
X3325893Y-12427786D01*
X3316369Y-12465881D01*
X3306845Y-12484928D01*
X3297321Y-12494452D01*
X3278274Y-12503976D01*
X3259226Y-12503976D01*
X3240178Y-12494452D01*
X3230655Y-12484928D01*
X3221131Y-12465881D01*
X3211607Y-12427786D01*
X3211607Y-12380167D01*
X3221131Y-12342071D01*
X3230655Y-12323024D01*
X3240178Y-12313500D01*
X3259226Y-12303976D01*
X3411607Y-12484928D02*
X3421131Y-12494452D01*
X3411607Y-12503976D01*
X3402083Y-12494452D01*
X3411607Y-12484928D01*
X3411607Y-12503976D01*
X3544940Y-12303976D02*
X3563988Y-12303976D01*
X3583036Y-12313500D01*
X3592559Y-12323024D01*
X3602083Y-12342071D01*
X3611607Y-12380167D01*
X3611607Y-12427786D01*
X3602083Y-12465881D01*
X3592559Y-12484928D01*
X3583036Y-12494452D01*
X3563988Y-12503976D01*
X3544940Y-12503976D01*
X3525893Y-12494452D01*
X3516369Y-12484928D01*
X3506845Y-12465881D01*
X3497321Y-12427786D01*
X3497321Y-12380167D01*
X3506845Y-12342071D01*
X3516369Y-12323024D01*
X3525893Y-12313500D01*
X3544940Y-12303976D01*
X3802083Y-12503976D02*
X3687798Y-12503976D01*
X3744940Y-12503976D02*
X3744940Y-12303976D01*
X3725893Y-12332548D01*
X3706845Y-12351595D01*
X3687798Y-12361119D01*
X3983036Y-12303976D02*
X3887798Y-12303976D01*
X3878274Y-12399214D01*
X3887798Y-12389690D01*
X3906845Y-12380167D01*
X3954464Y-12380167D01*
X3973512Y-12389690D01*
X3983036Y-12399214D01*
X3992559Y-12418262D01*
X3992559Y-12465881D01*
X3983036Y-12484928D01*
X3973512Y-12494452D01*
X3954464Y-12503976D01*
X3906845Y-12503976D01*
X3887798Y-12494452D01*
X3878274Y-12484928D01*
X4059226Y-12303976D02*
X4192559Y-12303976D01*
X4106845Y-12503976D01*
X4259226Y-12303976D02*
X4259226Y-12342071D01*
X4335417Y-12303976D02*
X4335417Y-12342071D01*
X4630655Y-12580167D02*
X4621131Y-12570643D01*
X4602083Y-12542071D01*
X4592560Y-12523024D01*
X4583036Y-12494452D01*
X4573512Y-12446833D01*
X4573512Y-12408738D01*
X4583036Y-12361119D01*
X4592560Y-12332548D01*
X4602083Y-12313500D01*
X4621131Y-12284928D01*
X4630655Y-12275405D01*
X4716369Y-12503976D02*
X4754464Y-12503976D01*
X4773512Y-12494452D01*
X4783036Y-12484928D01*
X4802083Y-12456357D01*
X4811607Y-12418262D01*
X4811607Y-12342071D01*
X4802083Y-12323024D01*
X4792560Y-12313500D01*
X4773512Y-12303976D01*
X4735417Y-12303976D01*
X4716369Y-12313500D01*
X4706845Y-12323024D01*
X4697321Y-12342071D01*
X4697321Y-12389690D01*
X4706845Y-12408738D01*
X4716369Y-12418262D01*
X4735417Y-12427786D01*
X4773512Y-12427786D01*
X4792560Y-12418262D01*
X4802083Y-12408738D01*
X4811607Y-12389690D01*
X4887798Y-12323024D02*
X4897321Y-12313500D01*
X4916369Y-12303976D01*
X4963988Y-12303976D01*
X4983036Y-12313500D01*
X4992560Y-12323024D01*
X5002083Y-12342071D01*
X5002083Y-12361119D01*
X4992560Y-12389690D01*
X4878274Y-12503976D01*
X5002083Y-12503976D01*
X5240179Y-12503976D02*
X5240179Y-12303976D01*
X5325893Y-12503976D02*
X5325893Y-12399214D01*
X5316369Y-12380167D01*
X5297321Y-12370643D01*
X5268750Y-12370643D01*
X5249702Y-12380167D01*
X5240179Y-12389690D01*
X5449702Y-12503976D02*
X5430655Y-12494452D01*
X5421131Y-12484928D01*
X5411607Y-12465881D01*
X5411607Y-12408738D01*
X5421131Y-12389690D01*
X5430655Y-12380167D01*
X5449702Y-12370643D01*
X5478274Y-12370643D01*
X5497321Y-12380167D01*
X5506845Y-12389690D01*
X5516369Y-12408738D01*
X5516369Y-12465881D01*
X5506845Y-12484928D01*
X5497321Y-12494452D01*
X5478274Y-12503976D01*
X5449702Y-12503976D01*
X5630655Y-12503976D02*
X5611607Y-12494452D01*
X5602083Y-12475405D01*
X5602083Y-12303976D01*
X5783036Y-12494452D02*
X5763988Y-12503976D01*
X5725893Y-12503976D01*
X5706845Y-12494452D01*
X5697321Y-12475405D01*
X5697321Y-12399214D01*
X5706845Y-12380167D01*
X5725893Y-12370643D01*
X5763988Y-12370643D01*
X5783036Y-12380167D01*
X5792559Y-12399214D01*
X5792559Y-12418262D01*
X5697321Y-12437309D01*
X5868750Y-12494452D02*
X5887798Y-12503976D01*
X5925893Y-12503976D01*
X5944940Y-12494452D01*
X5954464Y-12475405D01*
X5954464Y-12465881D01*
X5944940Y-12446833D01*
X5925893Y-12437309D01*
X5897321Y-12437309D01*
X5878274Y-12427786D01*
X5868750Y-12408738D01*
X5868750Y-12399214D01*
X5878274Y-12380167D01*
X5897321Y-12370643D01*
X5925893Y-12370643D01*
X5944940Y-12380167D01*
X6021131Y-12580167D02*
X6030655Y-12570643D01*
X6049702Y-12542071D01*
X6059226Y-12523024D01*
X6068750Y-12494452D01*
X6078274Y-12446833D01*
X6078274Y-12408738D01*
X6068750Y-12361119D01*
X6059226Y-12332548D01*
X6049702Y-12313500D01*
X6030655Y-12284928D01*
X6021131Y-12275405D01*
D12*
X1058750Y-12677500D02*
G75*
G03*
X1058750Y-12677500I-40640J0D01*
G01*
D10*
X1354464Y-12567976D02*
X1373512Y-12567976D01*
X1392560Y-12577500D01*
X1402083Y-12587024D01*
X1411607Y-12606071D01*
X1421131Y-12644167D01*
X1421131Y-12691786D01*
X1411607Y-12729881D01*
X1402083Y-12748928D01*
X1392560Y-12758452D01*
X1373512Y-12767976D01*
X1354464Y-12767976D01*
X1335417Y-12758452D01*
X1325893Y-12748928D01*
X1316369Y-12729881D01*
X1306845Y-12691786D01*
X1306845Y-12644167D01*
X1316369Y-12606071D01*
X1325893Y-12587024D01*
X1335417Y-12577500D01*
X1354464Y-12567976D01*
X1506845Y-12748928D02*
X1516369Y-12758452D01*
X1506845Y-12767976D01*
X1497321Y-12758452D01*
X1506845Y-12748928D01*
X1506845Y-12767976D01*
X1630655Y-12653690D02*
X1611607Y-12644167D01*
X1602083Y-12634643D01*
X1592559Y-12615595D01*
X1592559Y-12606071D01*
X1602083Y-12587024D01*
X1611607Y-12577500D01*
X1630655Y-12567976D01*
X1668750Y-12567976D01*
X1687798Y-12577500D01*
X1697321Y-12587024D01*
X1706845Y-12606071D01*
X1706845Y-12615595D01*
X1697321Y-12634643D01*
X1687798Y-12644167D01*
X1668750Y-12653690D01*
X1630655Y-12653690D01*
X1611607Y-12663214D01*
X1602083Y-12672738D01*
X1592559Y-12691786D01*
X1592559Y-12729881D01*
X1602083Y-12748928D01*
X1611607Y-12758452D01*
X1630655Y-12767976D01*
X1668750Y-12767976D01*
X1687798Y-12758452D01*
X1697321Y-12748928D01*
X1706845Y-12729881D01*
X1706845Y-12691786D01*
X1697321Y-12672738D01*
X1687798Y-12663214D01*
X1668750Y-12653690D01*
X1897321Y-12767976D02*
X1783036Y-12767976D01*
X1840178Y-12767976D02*
X1840178Y-12567976D01*
X1821131Y-12596548D01*
X1802083Y-12615595D01*
X1783036Y-12625119D01*
X1963988Y-12567976D02*
X2087798Y-12567976D01*
X2021131Y-12644167D01*
X2049702Y-12644167D01*
X2068750Y-12653690D01*
X2078274Y-12663214D01*
X2087798Y-12682262D01*
X2087798Y-12729881D01*
X2078274Y-12748928D01*
X2068750Y-12758452D01*
X2049702Y-12767976D01*
X1992559Y-12767976D01*
X1973512Y-12758452D01*
X1963988Y-12748928D01*
X2173512Y-12767976D02*
X2173512Y-12634643D01*
X2173512Y-12653690D02*
X2183036Y-12644167D01*
X2202083Y-12634643D01*
X2230655Y-12634643D01*
X2249702Y-12644167D01*
X2259226Y-12663214D01*
X2259226Y-12767976D01*
X2259226Y-12663214D02*
X2268750Y-12644167D01*
X2287798Y-12634643D01*
X2316369Y-12634643D01*
X2335417Y-12644167D01*
X2344940Y-12663214D01*
X2344940Y-12767976D01*
X2440179Y-12767976D02*
X2440179Y-12634643D01*
X2440179Y-12653690D02*
X2449702Y-12644167D01*
X2468750Y-12634643D01*
X2497321Y-12634643D01*
X2516369Y-12644167D01*
X2525893Y-12663214D01*
X2525893Y-12767976D01*
X2525893Y-12663214D02*
X2535417Y-12644167D01*
X2554464Y-12634643D01*
X2583036Y-12634643D01*
X2602083Y-12644167D01*
X2611607Y-12663214D01*
X2611607Y-12767976D01*
X3002083Y-12558452D02*
X2830655Y-12815595D01*
X3259226Y-12567976D02*
X3278274Y-12567976D01*
X3297321Y-12577500D01*
X3306845Y-12587024D01*
X3316369Y-12606071D01*
X3325893Y-12644167D01*
X3325893Y-12691786D01*
X3316369Y-12729881D01*
X3306845Y-12748928D01*
X3297321Y-12758452D01*
X3278274Y-12767976D01*
X3259226Y-12767976D01*
X3240178Y-12758452D01*
X3230655Y-12748928D01*
X3221131Y-12729881D01*
X3211607Y-12691786D01*
X3211607Y-12644167D01*
X3221131Y-12606071D01*
X3230655Y-12587024D01*
X3240178Y-12577500D01*
X3259226Y-12567976D01*
X3411607Y-12748928D02*
X3421131Y-12758452D01*
X3411607Y-12767976D01*
X3402083Y-12758452D01*
X3411607Y-12748928D01*
X3411607Y-12767976D01*
X3544940Y-12567976D02*
X3563988Y-12567976D01*
X3583036Y-12577500D01*
X3592559Y-12587024D01*
X3602083Y-12606071D01*
X3611607Y-12644167D01*
X3611607Y-12691786D01*
X3602083Y-12729881D01*
X3592559Y-12748928D01*
X3583036Y-12758452D01*
X3563988Y-12767976D01*
X3544940Y-12767976D01*
X3525893Y-12758452D01*
X3516369Y-12748928D01*
X3506845Y-12729881D01*
X3497321Y-12691786D01*
X3497321Y-12644167D01*
X3506845Y-12606071D01*
X3516369Y-12587024D01*
X3525893Y-12577500D01*
X3544940Y-12567976D01*
X3678274Y-12567976D02*
X3802083Y-12567976D01*
X3735417Y-12644167D01*
X3763988Y-12644167D01*
X3783036Y-12653690D01*
X3792559Y-12663214D01*
X3802083Y-12682262D01*
X3802083Y-12729881D01*
X3792559Y-12748928D01*
X3783036Y-12758452D01*
X3763988Y-12767976D01*
X3706845Y-12767976D01*
X3687798Y-12758452D01*
X3678274Y-12748928D01*
X3878274Y-12587024D02*
X3887798Y-12577500D01*
X3906845Y-12567976D01*
X3954464Y-12567976D01*
X3973512Y-12577500D01*
X3983036Y-12587024D01*
X3992559Y-12606071D01*
X3992559Y-12625119D01*
X3983036Y-12653690D01*
X3868750Y-12767976D01*
X3992559Y-12767976D01*
X4116369Y-12567976D02*
X4135417Y-12567976D01*
X4154464Y-12577500D01*
X4163988Y-12587024D01*
X4173512Y-12606071D01*
X4183036Y-12644167D01*
X4183036Y-12691786D01*
X4173512Y-12729881D01*
X4163988Y-12748928D01*
X4154464Y-12758452D01*
X4135417Y-12767976D01*
X4116369Y-12767976D01*
X4097321Y-12758452D01*
X4087798Y-12748928D01*
X4078274Y-12729881D01*
X4068750Y-12691786D01*
X4068750Y-12644167D01*
X4078274Y-12606071D01*
X4087798Y-12587024D01*
X4097321Y-12577500D01*
X4116369Y-12567976D01*
X4259226Y-12567976D02*
X4259226Y-12606071D01*
X4335417Y-12567976D02*
X4335417Y-12606071D01*
X4630655Y-12844167D02*
X4621131Y-12834643D01*
X4602083Y-12806071D01*
X4592560Y-12787024D01*
X4583036Y-12758452D01*
X4573512Y-12710833D01*
X4573512Y-12672738D01*
X4583036Y-12625119D01*
X4592560Y-12596548D01*
X4602083Y-12577500D01*
X4621131Y-12548928D01*
X4630655Y-12539405D01*
X4792560Y-12634643D02*
X4792560Y-12767976D01*
X4744940Y-12558452D02*
X4697321Y-12701309D01*
X4821131Y-12701309D01*
X4925893Y-12653690D02*
X4906845Y-12644167D01*
X4897321Y-12634643D01*
X4887798Y-12615595D01*
X4887798Y-12606071D01*
X4897321Y-12587024D01*
X4906845Y-12577500D01*
X4925893Y-12567976D01*
X4963988Y-12567976D01*
X4983036Y-12577500D01*
X4992560Y-12587024D01*
X5002083Y-12606071D01*
X5002083Y-12615595D01*
X4992560Y-12634643D01*
X4983036Y-12644167D01*
X4963988Y-12653690D01*
X4925893Y-12653690D01*
X4906845Y-12663214D01*
X4897321Y-12672738D01*
X4887798Y-12691786D01*
X4887798Y-12729881D01*
X4897321Y-12748928D01*
X4906845Y-12758452D01*
X4925893Y-12767976D01*
X4963988Y-12767976D01*
X4983036Y-12758452D01*
X4992560Y-12748928D01*
X5002083Y-12729881D01*
X5002083Y-12691786D01*
X4992560Y-12672738D01*
X4983036Y-12663214D01*
X4963988Y-12653690D01*
X5240179Y-12767976D02*
X5240179Y-12567976D01*
X5325893Y-12767976D02*
X5325893Y-12663214D01*
X5316369Y-12644167D01*
X5297321Y-12634643D01*
X5268750Y-12634643D01*
X5249702Y-12644167D01*
X5240179Y-12653690D01*
X5449702Y-12767976D02*
X5430655Y-12758452D01*
X5421131Y-12748928D01*
X5411607Y-12729881D01*
X5411607Y-12672738D01*
X5421131Y-12653690D01*
X5430655Y-12644167D01*
X5449702Y-12634643D01*
X5478274Y-12634643D01*
X5497321Y-12644167D01*
X5506845Y-12653690D01*
X5516369Y-12672738D01*
X5516369Y-12729881D01*
X5506845Y-12748928D01*
X5497321Y-12758452D01*
X5478274Y-12767976D01*
X5449702Y-12767976D01*
X5630655Y-12767976D02*
X5611607Y-12758452D01*
X5602083Y-12739405D01*
X5602083Y-12567976D01*
X5783036Y-12758452D02*
X5763988Y-12767976D01*
X5725893Y-12767976D01*
X5706845Y-12758452D01*
X5697321Y-12739405D01*
X5697321Y-12663214D01*
X5706845Y-12644167D01*
X5725893Y-12634643D01*
X5763988Y-12634643D01*
X5783036Y-12644167D01*
X5792559Y-12663214D01*
X5792559Y-12682262D01*
X5697321Y-12701309D01*
X5868750Y-12758452D02*
X5887798Y-12767976D01*
X5925893Y-12767976D01*
X5944940Y-12758452D01*
X5954464Y-12739405D01*
X5954464Y-12729881D01*
X5944940Y-12710833D01*
X5925893Y-12701309D01*
X5897321Y-12701309D01*
X5878274Y-12691786D01*
X5868750Y-12672738D01*
X5868750Y-12663214D01*
X5878274Y-12644167D01*
X5897321Y-12634643D01*
X5925893Y-12634643D01*
X5944940Y-12644167D01*
X6021131Y-12844167D02*
X6030655Y-12834643D01*
X6049702Y-12806071D01*
X6059226Y-12787024D01*
X6068750Y-12758452D01*
X6078274Y-12710833D01*
X6078274Y-12672738D01*
X6068750Y-12625119D01*
X6059226Y-12596548D01*
X6049702Y-12577500D01*
X6030655Y-12548928D01*
X6021131Y-12539405D01*
D13*
X1008750Y-12891500D02*
X1008750Y-12991500D01*
X958750Y-12941500D02*
X1058750Y-12941500D01*
D10*
X1421131Y-13031976D02*
X1306845Y-13031976D01*
X1363988Y-13031976D02*
X1363988Y-12831976D01*
X1344940Y-12860548D01*
X1325893Y-12879595D01*
X1306845Y-12889119D01*
X1506845Y-13012928D02*
X1516369Y-13022452D01*
X1506845Y-13031976D01*
X1497321Y-13022452D01*
X1506845Y-13012928D01*
X1506845Y-13031976D01*
X1640178Y-12831976D02*
X1659226Y-12831976D01*
X1678274Y-12841500D01*
X1687798Y-12851024D01*
X1697321Y-12870071D01*
X1706845Y-12908167D01*
X1706845Y-12955786D01*
X1697321Y-12993881D01*
X1687798Y-13012928D01*
X1678274Y-13022452D01*
X1659226Y-13031976D01*
X1640178Y-13031976D01*
X1621131Y-13022452D01*
X1611607Y-13012928D01*
X1602083Y-12993881D01*
X1592559Y-12955786D01*
X1592559Y-12908167D01*
X1602083Y-12870071D01*
X1611607Y-12851024D01*
X1621131Y-12841500D01*
X1640178Y-12831976D01*
X1830655Y-12831976D02*
X1849702Y-12831976D01*
X1868750Y-12841500D01*
X1878274Y-12851024D01*
X1887798Y-12870071D01*
X1897321Y-12908167D01*
X1897321Y-12955786D01*
X1887798Y-12993881D01*
X1878274Y-13012928D01*
X1868750Y-13022452D01*
X1849702Y-13031976D01*
X1830655Y-13031976D01*
X1811607Y-13022452D01*
X1802083Y-13012928D01*
X1792559Y-12993881D01*
X1783036Y-12955786D01*
X1783036Y-12908167D01*
X1792559Y-12870071D01*
X1802083Y-12851024D01*
X1811607Y-12841500D01*
X1830655Y-12831976D01*
X2021131Y-12831976D02*
X2040178Y-12831976D01*
X2059226Y-12841500D01*
X2068750Y-12851024D01*
X2078274Y-12870071D01*
X2087798Y-12908167D01*
X2087798Y-12955786D01*
X2078274Y-12993881D01*
X2068750Y-13012928D01*
X2059226Y-13022452D01*
X2040178Y-13031976D01*
X2021131Y-13031976D01*
X2002083Y-13022452D01*
X1992559Y-13012928D01*
X1983036Y-12993881D01*
X1973512Y-12955786D01*
X1973512Y-12908167D01*
X1983036Y-12870071D01*
X1992559Y-12851024D01*
X2002083Y-12841500D01*
X2021131Y-12831976D01*
X2173512Y-13031976D02*
X2173512Y-12898643D01*
X2173512Y-12917690D02*
X2183036Y-12908167D01*
X2202083Y-12898643D01*
X2230655Y-12898643D01*
X2249702Y-12908167D01*
X2259226Y-12927214D01*
X2259226Y-13031976D01*
X2259226Y-12927214D02*
X2268750Y-12908167D01*
X2287798Y-12898643D01*
X2316369Y-12898643D01*
X2335417Y-12908167D01*
X2344940Y-12927214D01*
X2344940Y-13031976D01*
X2440179Y-13031976D02*
X2440179Y-12898643D01*
X2440179Y-12917690D02*
X2449702Y-12908167D01*
X2468750Y-12898643D01*
X2497321Y-12898643D01*
X2516369Y-12908167D01*
X2525893Y-12927214D01*
X2525893Y-13031976D01*
X2525893Y-12927214D02*
X2535417Y-12908167D01*
X2554464Y-12898643D01*
X2583036Y-12898643D01*
X2602083Y-12908167D01*
X2611607Y-12927214D01*
X2611607Y-13031976D01*
X3002083Y-12822452D02*
X2830655Y-13079595D01*
X3259226Y-12831976D02*
X3278274Y-12831976D01*
X3297321Y-12841500D01*
X3306845Y-12851024D01*
X3316369Y-12870071D01*
X3325893Y-12908167D01*
X3325893Y-12955786D01*
X3316369Y-12993881D01*
X3306845Y-13012928D01*
X3297321Y-13022452D01*
X3278274Y-13031976D01*
X3259226Y-13031976D01*
X3240178Y-13022452D01*
X3230655Y-13012928D01*
X3221131Y-12993881D01*
X3211607Y-12955786D01*
X3211607Y-12908167D01*
X3221131Y-12870071D01*
X3230655Y-12851024D01*
X3240178Y-12841500D01*
X3259226Y-12831976D01*
X3411607Y-13012928D02*
X3421131Y-13022452D01*
X3411607Y-13031976D01*
X3402083Y-13022452D01*
X3411607Y-13012928D01*
X3411607Y-13031976D01*
X3544940Y-12831976D02*
X3563988Y-12831976D01*
X3583036Y-12841500D01*
X3592559Y-12851024D01*
X3602083Y-12870071D01*
X3611607Y-12908167D01*
X3611607Y-12955786D01*
X3602083Y-12993881D01*
X3592559Y-13012928D01*
X3583036Y-13022452D01*
X3563988Y-13031976D01*
X3544940Y-13031976D01*
X3525893Y-13022452D01*
X3516369Y-13012928D01*
X3506845Y-12993881D01*
X3497321Y-12955786D01*
X3497321Y-12908167D01*
X3506845Y-12870071D01*
X3516369Y-12851024D01*
X3525893Y-12841500D01*
X3544940Y-12831976D01*
X3678274Y-12831976D02*
X3802083Y-12831976D01*
X3735417Y-12908167D01*
X3763988Y-12908167D01*
X3783036Y-12917690D01*
X3792559Y-12927214D01*
X3802083Y-12946262D01*
X3802083Y-12993881D01*
X3792559Y-13012928D01*
X3783036Y-13022452D01*
X3763988Y-13031976D01*
X3706845Y-13031976D01*
X3687798Y-13022452D01*
X3678274Y-13012928D01*
X3897321Y-13031976D02*
X3935417Y-13031976D01*
X3954464Y-13022452D01*
X3963988Y-13012928D01*
X3983036Y-12984357D01*
X3992559Y-12946262D01*
X3992559Y-12870071D01*
X3983036Y-12851024D01*
X3973512Y-12841500D01*
X3954464Y-12831976D01*
X3916369Y-12831976D01*
X3897321Y-12841500D01*
X3887798Y-12851024D01*
X3878274Y-12870071D01*
X3878274Y-12917690D01*
X3887798Y-12936738D01*
X3897321Y-12946262D01*
X3916369Y-12955786D01*
X3954464Y-12955786D01*
X3973512Y-12946262D01*
X3983036Y-12936738D01*
X3992559Y-12917690D01*
X4163988Y-12898643D02*
X4163988Y-13031976D01*
X4116369Y-12822452D02*
X4068750Y-12965309D01*
X4192559Y-12965309D01*
X4259226Y-12831976D02*
X4259226Y-12870071D01*
X4335417Y-12831976D02*
X4335417Y-12870071D01*
X4630655Y-13108167D02*
X4621131Y-13098643D01*
X4602083Y-13070071D01*
X4592560Y-13051024D01*
X4583036Y-13022452D01*
X4573512Y-12974833D01*
X4573512Y-12936738D01*
X4583036Y-12889119D01*
X4592560Y-12860548D01*
X4602083Y-12841500D01*
X4621131Y-12812928D01*
X4630655Y-12803405D01*
X4811607Y-13031976D02*
X4697321Y-13031976D01*
X4754464Y-13031976D02*
X4754464Y-12831976D01*
X4735417Y-12860548D01*
X4716369Y-12879595D01*
X4697321Y-12889119D01*
X4935417Y-12831976D02*
X4954464Y-12831976D01*
X4973512Y-12841500D01*
X4983036Y-12851024D01*
X4992560Y-12870071D01*
X5002083Y-12908167D01*
X5002083Y-12955786D01*
X4992560Y-12993881D01*
X4983036Y-13012928D01*
X4973512Y-13022452D01*
X4954464Y-13031976D01*
X4935417Y-13031976D01*
X4916369Y-13022452D01*
X4906845Y-13012928D01*
X4897321Y-12993881D01*
X4887798Y-12955786D01*
X4887798Y-12908167D01*
X4897321Y-12870071D01*
X4906845Y-12851024D01*
X4916369Y-12841500D01*
X4935417Y-12831976D01*
X5240179Y-13031976D02*
X5240179Y-12831976D01*
X5325893Y-13031976D02*
X5325893Y-12927214D01*
X5316369Y-12908167D01*
X5297321Y-12898643D01*
X5268750Y-12898643D01*
X5249702Y-12908167D01*
X5240179Y-12917690D01*
X5449702Y-13031976D02*
X5430655Y-13022452D01*
X5421131Y-13012928D01*
X5411607Y-12993881D01*
X5411607Y-12936738D01*
X5421131Y-12917690D01*
X5430655Y-12908167D01*
X5449702Y-12898643D01*
X5478274Y-12898643D01*
X5497321Y-12908167D01*
X5506845Y-12917690D01*
X5516369Y-12936738D01*
X5516369Y-12993881D01*
X5506845Y-13012928D01*
X5497321Y-13022452D01*
X5478274Y-13031976D01*
X5449702Y-13031976D01*
X5630655Y-13031976D02*
X5611607Y-13022452D01*
X5602083Y-13003405D01*
X5602083Y-12831976D01*
X5783036Y-13022452D02*
X5763988Y-13031976D01*
X5725893Y-13031976D01*
X5706845Y-13022452D01*
X5697321Y-13003405D01*
X5697321Y-12927214D01*
X5706845Y-12908167D01*
X5725893Y-12898643D01*
X5763988Y-12898643D01*
X5783036Y-12908167D01*
X5792559Y-12927214D01*
X5792559Y-12946262D01*
X5697321Y-12965309D01*
X5868750Y-13022452D02*
X5887798Y-13031976D01*
X5925893Y-13031976D01*
X5944940Y-13022452D01*
X5954464Y-13003405D01*
X5954464Y-12993881D01*
X5944940Y-12974833D01*
X5925893Y-12965309D01*
X5897321Y-12965309D01*
X5878274Y-12955786D01*
X5868750Y-12936738D01*
X5868750Y-12927214D01*
X5878274Y-12908167D01*
X5897321Y-12898643D01*
X5925893Y-12898643D01*
X5944940Y-12908167D01*
X6021131Y-13108167D02*
X6030655Y-13098643D01*
X6049702Y-13070071D01*
X6059226Y-13051024D01*
X6068750Y-13022452D01*
X6078274Y-12974833D01*
X6078274Y-12936738D01*
X6068750Y-12889119D01*
X6059226Y-12860548D01*
X6049702Y-12841500D01*
X6030655Y-12812928D01*
X6021131Y-12803405D01*
M02*
