M48
; DRILL file {KiCad (6.0.9-0)} date Saturday, December 17, 2022 at 11:17:14 AM
; FORMAT={-:-/ absolute / metric / decimal}
; #@! TF.CreationDate,2022-12-17T11:17:14-06:00
; #@! TF.GenerationSoftware,Kicad,Pcbnew,(6.0.9-0)
; #@! TF.FileFunction,Plated,1,2,PTH
FMAT,2
METRIC
; #@! TA.AperFunction,Plated,PTH,ViaDrill
T1C0.400
; #@! TA.AperFunction,Plated,PTH,ComponentDrill
T2C0.813
; #@! TA.AperFunction,Plated,PTH,ComponentDrill
T3C1.000
%
G90
G05
T1
X13.008Y-35.205
X13.008Y-50.205
X13.008Y-54.205
X13.008Y-66.705
X13.008Y-69.205
X31.707Y-54.405
X31.965Y-50.195
X32.008Y-35.205
X32.108Y-69.205
X32.797Y-65.894
X50.307Y-35.105
X51.008Y-30.505
X51.008Y-45.505
X51.008Y-49.505
X51.008Y-64.505
X51.107Y-26.505
X52.577Y-61.175
X69.382Y-61.305
X69.382Y-68.405
X70.007Y-28.105
X70.007Y-43.105
X70.007Y-47.105
X70.007Y-62.105
X70.007Y-65.705
X70.407Y-59.705
X79.507Y-84.305
X89.007Y-30.505
X89.007Y-45.505
X89.007Y-49.505
X89.007Y-64.505
X89.007Y-68.505
X89.407Y-60.305
X100.007Y-85.205
X108.007Y-32.805
X108.007Y-47.905
X108.007Y-51.805
X108.007Y-66.805
X108.007Y-70.805
X108.408Y-62.805
X122.607Y-99.005
X123.607Y-54.205
X124.607Y-67.78
X124.807Y-70.805
X126.494Y-86.382
X134.507Y-30.38
X139.707Y-76.78
X140.907Y-69.58
X155.907Y-60.875
X157.707Y-74.78
X166.887Y-86.675
X167.111Y-85.628
X168.689Y-29.999
X172.761Y-57.933
X172.808Y-44.015
X174.064Y-27.965
X174.297Y-63.015
X174.417Y-70.675
X174.507Y-32.805
X174.507Y-47.805
X174.507Y-66.905
X174.607Y-51.905
X175.232Y-58.415
X175.232Y-62.5
X181.188Y-88.895
X193.137Y-61.875
X193.507Y-30.405
X193.507Y-45.505
X193.507Y-49.305
X193.507Y-64.505
X193.517Y-68.325
X203.087Y-84.335
X212.107Y-59.02
X212.507Y-28.005
X212.507Y-43.105
X212.507Y-47.105
X212.507Y-62.205
X212.558Y-65.985
X231.234Y-58.513
X231.507Y-30.305
X231.507Y-45.505
X231.607Y-49.505
X231.607Y-64.505
X249.998Y-64.1
X250.507Y-35.105
X250.507Y-50.305
X250.507Y-54.205
X250.507Y-69.205
X269.507Y-69.305
X269.548Y-66.55
X269.593Y-50.205
X269.608Y-35.205
X269.618Y-54.555
T2
X127.204Y-31.942
X127.204Y-34.482
X127.204Y-37.022
X127.204Y-39.562
X127.204Y-42.102
X127.204Y-44.642
X127.204Y-47.182
X127.204Y-49.722
X127.204Y-52.262
X127.204Y-54.802
X127.204Y-57.342
X127.204Y-59.882
X142.424Y-31.942
X142.424Y-34.482
X142.424Y-37.022
X142.424Y-39.562
X142.424Y-42.102
X142.424Y-44.642
X142.424Y-47.182
X142.424Y-49.722
X142.424Y-52.262
X142.424Y-54.802
X142.424Y-57.342
X142.424Y-59.882
X154.379Y-31.912
X154.379Y-34.452
X154.379Y-36.992
X154.379Y-39.532
X154.379Y-42.072
X154.379Y-44.612
X154.379Y-47.152
X154.379Y-49.692
X154.379Y-52.232
X154.379Y-54.772
X154.379Y-57.312
X154.379Y-59.852
X169.599Y-31.912
X169.599Y-34.452
X169.599Y-36.992
X169.599Y-39.532
X169.599Y-42.072
X169.599Y-44.612
X169.599Y-47.152
X169.599Y-49.692
X169.599Y-52.232
X169.599Y-54.772
X169.599Y-57.312
X169.599Y-59.852
T3
X129.782Y-67.03
X132.322Y-67.03
X134.862Y-67.03
X137.403Y-67.03
X139.942Y-67.03
X156.933Y-67.03
X159.472Y-67.03
X162.012Y-67.03
X164.552Y-67.03
X167.093Y-67.03
T0
M30
