%TF.GenerationSoftware,KiCad,Pcbnew,(6.0.9-0)*%
%TF.CreationDate,2022-12-17T11:16:42-06:00*%
%TF.ProjectId,corne-ice,636f726e-652d-4696-9365-2e6b69636164,0.1*%
%TF.SameCoordinates,Original*%
%TF.FileFunction,Legend,Bot*%
%TF.FilePolarity,Positive*%
%FSLAX46Y46*%
G04 Gerber Fmt 4.6, Leading zero omitted, Abs format (unit mm)*
G04 Created by KiCad (PCBNEW (6.0.9-0)) date 2022-12-17 11:16:42*
%MOMM*%
%LPD*%
G01*
G04 APERTURE LIST*
G04 Aperture macros list*
%AMRoundRect*
0 Rectangle with rounded corners*
0 $1 Rounding radius*
0 $2 $3 $4 $5 $6 $7 $8 $9 X,Y pos of 4 corners*
0 Add a 4 corners polygon primitive as box body*
4,1,4,$2,$3,$4,$5,$6,$7,$8,$9,$2,$3,0*
0 Add four circle primitives for the rounded corners*
1,1,$1+$1,$2,$3*
1,1,$1+$1,$4,$5*
1,1,$1+$1,$6,$7*
1,1,$1+$1,$8,$9*
0 Add four rect primitives between the rounded corners*
20,1,$1+$1,$2,$3,$4,$5,0*
20,1,$1+$1,$4,$5,$6,$7,0*
20,1,$1+$1,$6,$7,$8,$9,0*
20,1,$1+$1,$8,$9,$2,$3,0*%
G04 Aperture macros list end*
%ADD10C,0.500000*%
%ADD11C,0.300000*%
%ADD12C,0.150000*%
%ADD13C,3.500000*%
%ADD14C,3.000000*%
%ADD15C,1.000000*%
%ADD16C,0.400000*%
%ADD17C,0.800000*%
%ADD18C,0.010000*%
%ADD19RoundRect,0.200000X0.850000X-0.850000X0.850000X0.850000X-0.850000X0.850000X-0.850000X-0.850000X0*%
%ADD20O,2.100000X2.100000*%
%ADD21C,4.500000*%
%ADD22C,2.300000*%
%ADD23C,3.400000*%
%ADD24RoundRect,0.200000X1.275000X1.250000X-1.275000X1.250000X-1.275000X-1.250000X1.275000X-1.250000X0*%
%ADD25RoundRect,0.200000X1.555079X0.877413X-0.908032X1.537402X-1.555079X-0.877413X0.908032X-1.537402X0*%
%ADD26RoundRect,0.200000X-0.445032X1.729182X-1.720032X-0.479182X0.445032X-1.729182X1.720032X0.479182X0*%
%ADD27RoundRect,0.200000X1.720032X-0.479182X0.445032X1.729182X-1.720032X0.479182X-0.445032X-1.729182X0*%
%ADD28RoundRect,0.200000X0.908032X1.537402X-1.555079X0.877413X-0.908032X-1.537402X1.555079X-0.877413X0*%
%ADD29C,4.700000*%
%ADD30C,2.600000*%
%ADD31C,1.924000*%
%ADD32C,0.700000*%
%ADD33RoundRect,0.200000X0.500000X-0.700000X0.500000X0.700000X-0.500000X0.700000X-0.500000X-0.700000X0*%
%ADD34C,1.300000*%
%ADD35RoundRect,0.200000X-0.350000X-0.750000X0.350000X-0.750000X0.350000X0.750000X-0.350000X0.750000X0*%
%ADD36RoundRect,0.200000X-0.500000X-0.400000X0.500000X-0.400000X0.500000X0.400000X-0.500000X0.400000X0*%
G04 APERTURE END LIST*
D10*
X43307500Y-32530000D02*
X42007500Y-32480000D01*
D11*
X33307500Y-31730000D02*
X33307500Y-31080000D01*
D12*
X38707500Y-32780000D02*
X43507500Y-32780000D01*
D13*
X41707500Y-30980000D02*
X35007500Y-30980000D01*
D14*
X34937500Y-30680000D02*
X34937500Y-32920000D01*
D12*
X43507500Y-32780000D02*
X43507500Y-29180000D01*
X43507500Y-29180000D02*
X35307499Y-29180000D01*
X33207500Y-31080000D02*
X33207500Y-31830000D01*
D10*
X33657500Y-34480000D02*
X36107500Y-34480000D01*
D15*
X43007500Y-29780000D02*
X43007500Y-32280000D01*
D16*
X43357500Y-29380000D02*
X42107500Y-29380000D01*
D12*
X33457500Y-30230000D02*
X33457500Y-34680000D01*
X33207500Y-31830000D02*
X33407500Y-31830000D01*
D17*
X33807500Y-34180000D02*
X33807500Y-32380001D01*
D12*
X43487500Y-31780000D02*
X43487500Y-29530000D01*
X33457500Y-34680000D02*
X36487500Y-34680000D01*
X38707500Y-32780000D02*
G75*
G03*
X36491182Y-34658529I-65001J-2169999D01*
G01*
X35307499Y-29179999D02*
G75*
G03*
X33207500Y-31080001I-100000J-1999999D01*
G01*
D15*
X38307500Y-32380000D02*
G75*
G03*
X36091182Y-34258529I-65001J-2169999D01*
G01*
D12*
X52457500Y-25480000D02*
X52457500Y-29930000D01*
D13*
X60707500Y-26230000D02*
X54007500Y-26230000D01*
D10*
X62307500Y-27780000D02*
X61007500Y-27730000D01*
D17*
X52807500Y-29430000D02*
X52807500Y-27630001D01*
D12*
X52207500Y-27080000D02*
X52407500Y-27080000D01*
X52207500Y-26330000D02*
X52207500Y-27080000D01*
X62507500Y-24430000D02*
X54307499Y-24430000D01*
D15*
X62007500Y-25030000D02*
X62007500Y-27530000D01*
D12*
X62507500Y-28030000D02*
X62507500Y-24430000D01*
D14*
X53937500Y-25930000D02*
X53937500Y-28170000D01*
D11*
X52307500Y-26980000D02*
X52307500Y-26330000D01*
D12*
X62487500Y-27030000D02*
X62487500Y-24780000D01*
D16*
X62357500Y-24630000D02*
X61107500Y-24630000D01*
D10*
X52657500Y-29730000D02*
X55107500Y-29730000D01*
D12*
X52457500Y-29930000D02*
X55487500Y-29930000D01*
X57707500Y-28030000D02*
X62507500Y-28030000D01*
D15*
X57307500Y-27630000D02*
G75*
G03*
X55091182Y-29508529I-65001J-2169999D01*
G01*
D12*
X54307499Y-24429999D02*
G75*
G03*
X52207500Y-26330001I-100000J-1999999D01*
G01*
X57707500Y-28030000D02*
G75*
G03*
X55491182Y-29908529I-65001J-2169999D01*
G01*
X81487500Y-24655000D02*
X81487500Y-22405000D01*
D10*
X81307500Y-25405000D02*
X80007500Y-25355000D01*
D12*
X71457500Y-27555000D02*
X74487500Y-27555000D01*
D16*
X81357500Y-22255000D02*
X80107500Y-22255000D01*
D12*
X71207500Y-24705000D02*
X71407500Y-24705000D01*
D13*
X79707500Y-23855000D02*
X73007500Y-23855000D01*
D15*
X81007500Y-22655000D02*
X81007500Y-25155000D01*
D10*
X71657500Y-27355000D02*
X74107500Y-27355000D01*
D11*
X71307500Y-24605000D02*
X71307500Y-23955000D01*
D12*
X81507500Y-25655000D02*
X81507500Y-22055000D01*
X81507500Y-22055000D02*
X73307499Y-22055000D01*
D17*
X71807500Y-27055000D02*
X71807500Y-25255001D01*
D14*
X72937500Y-23555000D02*
X72937500Y-25795000D01*
D12*
X76707500Y-25655000D02*
X81507500Y-25655000D01*
X71207500Y-23955000D02*
X71207500Y-24705000D01*
X71457500Y-23105000D02*
X71457500Y-27555000D01*
X76707500Y-25655000D02*
G75*
G03*
X74491182Y-27533529I-65001J-2169999D01*
G01*
X73307499Y-22054999D02*
G75*
G03*
X71207500Y-23955001I-100000J-1999999D01*
G01*
D15*
X76307500Y-25255000D02*
G75*
G03*
X74091182Y-27133529I-65001J-2169999D01*
G01*
D13*
X98707500Y-26230000D02*
X92007500Y-26230000D01*
D12*
X100507500Y-24430000D02*
X92307499Y-24430000D01*
D10*
X100307500Y-27780000D02*
X99007500Y-27730000D01*
X90657500Y-29730000D02*
X93107500Y-29730000D01*
D17*
X90807500Y-29430000D02*
X90807500Y-27630001D01*
D12*
X100487500Y-27030000D02*
X100487500Y-24780000D01*
X90207500Y-26330000D02*
X90207500Y-27080000D01*
X90457500Y-25480000D02*
X90457500Y-29930000D01*
D15*
X100007500Y-25030000D02*
X100007500Y-27530000D01*
D12*
X95707500Y-28030000D02*
X100507500Y-28030000D01*
X90207500Y-27080000D02*
X90407500Y-27080000D01*
D14*
X91937500Y-25930000D02*
X91937500Y-28170000D01*
D16*
X100357500Y-24630000D02*
X99107500Y-24630000D01*
D12*
X90457500Y-29930000D02*
X93487500Y-29930000D01*
X100507500Y-28030000D02*
X100507500Y-24430000D01*
D11*
X90307500Y-26980000D02*
X90307500Y-26330000D01*
D12*
X92307499Y-24429999D02*
G75*
G03*
X90207500Y-26330001I-100000J-1999999D01*
G01*
D15*
X95307500Y-27630000D02*
G75*
G03*
X93091182Y-29508529I-65001J-2169999D01*
G01*
D12*
X95707500Y-28030000D02*
G75*
G03*
X93491182Y-29908529I-65001J-2169999D01*
G01*
D13*
X22707500Y-49980000D02*
X16007500Y-49980000D01*
D12*
X14457500Y-53680000D02*
X17487500Y-53680000D01*
D10*
X14657500Y-53480000D02*
X17107500Y-53480000D01*
D12*
X14457500Y-49230000D02*
X14457500Y-53680000D01*
D10*
X24307500Y-51530000D02*
X23007500Y-51480000D01*
D12*
X24487500Y-50780000D02*
X24487500Y-48530000D01*
D14*
X15937500Y-49680000D02*
X15937500Y-51920000D01*
D16*
X24357500Y-48380000D02*
X23107500Y-48380000D01*
D17*
X14807500Y-53180000D02*
X14807500Y-51380001D01*
D12*
X24507500Y-51780000D02*
X24507500Y-48180000D01*
X14207500Y-50080000D02*
X14207500Y-50830000D01*
D11*
X14307500Y-50730000D02*
X14307500Y-50080000D01*
D12*
X14207500Y-50830000D02*
X14407500Y-50830000D01*
D15*
X24007500Y-48780000D02*
X24007500Y-51280000D01*
D12*
X24507500Y-48180000D02*
X16307499Y-48180000D01*
X19707500Y-51780000D02*
X24507500Y-51780000D01*
X16307499Y-48179999D02*
G75*
G03*
X14207500Y-50080001I-100000J-1999999D01*
G01*
D15*
X19307500Y-51380000D02*
G75*
G03*
X17091182Y-53258529I-65001J-2169999D01*
G01*
D12*
X19707500Y-51780000D02*
G75*
G03*
X17491182Y-53658529I-65001J-2169999D01*
G01*
X33207500Y-50080000D02*
X33207500Y-50830000D01*
X33457500Y-53680000D02*
X36487500Y-53680000D01*
D10*
X33657500Y-53480000D02*
X36107500Y-53480000D01*
D11*
X33307500Y-50730000D02*
X33307500Y-50080000D01*
D12*
X38707500Y-51780000D02*
X43507500Y-51780000D01*
D13*
X41707500Y-49980000D02*
X35007500Y-49980000D01*
D14*
X34937500Y-49680000D02*
X34937500Y-51920000D01*
D12*
X43487500Y-50780000D02*
X43487500Y-48530000D01*
X33457500Y-49230000D02*
X33457500Y-53680000D01*
X43507500Y-51780000D02*
X43507500Y-48180000D01*
X33207500Y-50830000D02*
X33407500Y-50830000D01*
X43507500Y-48180000D02*
X35307499Y-48180000D01*
D17*
X33807500Y-53180000D02*
X33807500Y-51380001D01*
D15*
X43007500Y-48780000D02*
X43007500Y-51280000D01*
D10*
X43307500Y-51530000D02*
X42007500Y-51480000D01*
D16*
X43357500Y-48380000D02*
X42107500Y-48380000D01*
D15*
X38307500Y-51380000D02*
G75*
G03*
X36091182Y-53258529I-65001J-2169999D01*
G01*
D12*
X38707500Y-51780000D02*
G75*
G03*
X36491182Y-53658529I-65001J-2169999D01*
G01*
X35307499Y-48179999D02*
G75*
G03*
X33207500Y-50080001I-100000J-1999999D01*
G01*
X62487500Y-46030000D02*
X62487500Y-43780000D01*
D10*
X62307500Y-46780000D02*
X61007500Y-46730000D01*
D12*
X62507500Y-47030000D02*
X62507500Y-43430000D01*
X52207500Y-45330000D02*
X52207500Y-46080000D01*
X52457500Y-44480000D02*
X52457500Y-48930000D01*
D11*
X52307500Y-45980000D02*
X52307500Y-45330000D01*
D17*
X52807500Y-48430000D02*
X52807500Y-46630001D01*
D14*
X53937500Y-44930000D02*
X53937500Y-47170000D01*
D13*
X60707500Y-45230000D02*
X54007500Y-45230000D01*
D12*
X57707500Y-47030000D02*
X62507500Y-47030000D01*
D10*
X52657500Y-48730000D02*
X55107500Y-48730000D01*
D12*
X52457500Y-48930000D02*
X55487500Y-48930000D01*
D16*
X62357500Y-43630000D02*
X61107500Y-43630000D01*
D12*
X52207500Y-46080000D02*
X52407500Y-46080000D01*
D15*
X62007500Y-44030000D02*
X62007500Y-46530000D01*
D12*
X62507500Y-43430000D02*
X54307499Y-43430000D01*
D15*
X57307500Y-46630000D02*
G75*
G03*
X55091182Y-48508529I-65001J-2169999D01*
G01*
D12*
X57707500Y-47030000D02*
G75*
G03*
X55491182Y-48908529I-65001J-2169999D01*
G01*
X54307499Y-43429999D02*
G75*
G03*
X52207500Y-45330001I-100000J-1999999D01*
G01*
X76707500Y-44655000D02*
X81507500Y-44655000D01*
D17*
X71807500Y-46055000D02*
X71807500Y-44255001D01*
D12*
X71457500Y-42105000D02*
X71457500Y-46555000D01*
D14*
X72937500Y-42555000D02*
X72937500Y-44795000D01*
D15*
X81007500Y-41655000D02*
X81007500Y-44155000D01*
D12*
X71207500Y-43705000D02*
X71407500Y-43705000D01*
X71457500Y-46555000D02*
X74487500Y-46555000D01*
D11*
X71307500Y-43605000D02*
X71307500Y-42955000D01*
D13*
X79707500Y-42855000D02*
X73007500Y-42855000D01*
D16*
X81357500Y-41255000D02*
X80107500Y-41255000D01*
D10*
X71657500Y-46355000D02*
X74107500Y-46355000D01*
D12*
X81507500Y-44655000D02*
X81507500Y-41055000D01*
X71207500Y-42955000D02*
X71207500Y-43705000D01*
X81487500Y-43655000D02*
X81487500Y-41405000D01*
D10*
X81307500Y-44405000D02*
X80007500Y-44355000D01*
D12*
X81507500Y-41055000D02*
X73307499Y-41055000D01*
D15*
X76307500Y-44255000D02*
G75*
G03*
X74091182Y-46133529I-65001J-2169999D01*
G01*
D12*
X73307499Y-41054999D02*
G75*
G03*
X71207500Y-42955001I-100000J-1999999D01*
G01*
X76707500Y-44655000D02*
G75*
G03*
X74491182Y-46533529I-65001J-2169999D01*
G01*
D16*
X100357500Y-43630000D02*
X99107500Y-43630000D01*
D12*
X95707500Y-47030000D02*
X100507500Y-47030000D01*
D15*
X100007500Y-44030000D02*
X100007500Y-46530000D01*
D10*
X90657500Y-48730000D02*
X93107500Y-48730000D01*
D12*
X90457500Y-48930000D02*
X93487500Y-48930000D01*
X100507500Y-43430000D02*
X92307499Y-43430000D01*
X90207500Y-46080000D02*
X90407500Y-46080000D01*
D10*
X100307500Y-46780000D02*
X99007500Y-46730000D01*
D14*
X91937500Y-44930000D02*
X91937500Y-47170000D01*
D12*
X100507500Y-47030000D02*
X100507500Y-43430000D01*
X90207500Y-45330000D02*
X90207500Y-46080000D01*
D13*
X98707500Y-45230000D02*
X92007500Y-45230000D01*
D12*
X90457500Y-44480000D02*
X90457500Y-48930000D01*
X100487500Y-46030000D02*
X100487500Y-43780000D01*
D11*
X90307500Y-45980000D02*
X90307500Y-45330000D01*
D17*
X90807500Y-48430000D02*
X90807500Y-46630001D01*
D15*
X95307500Y-46630000D02*
G75*
G03*
X93091182Y-48508529I-65001J-2169999D01*
G01*
D12*
X92307499Y-43429999D02*
G75*
G03*
X90207500Y-45330001I-100000J-1999999D01*
G01*
X95707500Y-47030000D02*
G75*
G03*
X93491182Y-48908529I-65001J-2169999D01*
G01*
X109457500Y-51305000D02*
X112487500Y-51305000D01*
D15*
X119007500Y-46405000D02*
X119007500Y-48905000D01*
D12*
X119487500Y-48405000D02*
X119487500Y-46155000D01*
D10*
X119307500Y-49155000D02*
X118007500Y-49105000D01*
D14*
X110937500Y-47305000D02*
X110937500Y-49545000D01*
D10*
X109657500Y-51105000D02*
X112107500Y-51105000D01*
D12*
X109207500Y-47705000D02*
X109207500Y-48455000D01*
D13*
X117707500Y-47605000D02*
X111007500Y-47605000D01*
D12*
X114707500Y-49405000D02*
X119507500Y-49405000D01*
X109207500Y-48455000D02*
X109407500Y-48455000D01*
X119507500Y-45805000D02*
X111307499Y-45805000D01*
D11*
X109307500Y-48355000D02*
X109307500Y-47705000D01*
D12*
X119507500Y-49405000D02*
X119507500Y-45805000D01*
D16*
X119357500Y-46005000D02*
X118107500Y-46005000D01*
D17*
X109807500Y-50805000D02*
X109807500Y-49005001D01*
D12*
X109457500Y-46855000D02*
X109457500Y-51305000D01*
X111307499Y-45804999D02*
G75*
G03*
X109207500Y-47705001I-100000J-1999999D01*
G01*
D15*
X114307500Y-49005000D02*
G75*
G03*
X112091182Y-50883529I-65001J-2169999D01*
G01*
D12*
X114707500Y-49405000D02*
G75*
G03*
X112491182Y-51283529I-65001J-2169999D01*
G01*
D11*
X14307500Y-69730000D02*
X14307500Y-69080000D01*
D14*
X15937500Y-68680000D02*
X15937500Y-70920000D01*
D12*
X14207500Y-69080000D02*
X14207500Y-69830000D01*
D16*
X24357500Y-67380000D02*
X23107500Y-67380000D01*
D12*
X24507500Y-70780000D02*
X24507500Y-67180000D01*
D15*
X24007500Y-67780000D02*
X24007500Y-70280000D01*
D12*
X14457500Y-72680000D02*
X17487500Y-72680000D01*
X24487500Y-69780000D02*
X24487500Y-67530000D01*
D13*
X22707500Y-68980000D02*
X16007500Y-68980000D01*
D12*
X14457500Y-68230000D02*
X14457500Y-72680000D01*
D17*
X14807500Y-72180000D02*
X14807500Y-70380001D01*
D10*
X24307500Y-70530000D02*
X23007500Y-70480000D01*
D12*
X19707500Y-70780000D02*
X24507500Y-70780000D01*
X14207500Y-69830000D02*
X14407500Y-69830000D01*
D10*
X14657500Y-72480000D02*
X17107500Y-72480000D01*
D12*
X24507500Y-67180000D02*
X16307499Y-67180000D01*
X16307499Y-67179999D02*
G75*
G03*
X14207500Y-69080001I-100000J-1999999D01*
G01*
X19707500Y-70780000D02*
G75*
G03*
X17491182Y-72658529I-65001J-2169999D01*
G01*
D15*
X19307500Y-70380000D02*
G75*
G03*
X17091182Y-72258529I-65001J-2169999D01*
G01*
D12*
X38707500Y-70780000D02*
X43507500Y-70780000D01*
X43487500Y-69780000D02*
X43487500Y-67530000D01*
D15*
X43007500Y-67780000D02*
X43007500Y-70280000D01*
D16*
X43357500Y-67380000D02*
X42107500Y-67380000D01*
D12*
X33457500Y-68230000D02*
X33457500Y-72680000D01*
D17*
X33807500Y-72180000D02*
X33807500Y-70380001D01*
D10*
X33657500Y-72480000D02*
X36107500Y-72480000D01*
D11*
X33307500Y-69730000D02*
X33307500Y-69080000D01*
D12*
X43507500Y-70780000D02*
X43507500Y-67180000D01*
X33207500Y-69830000D02*
X33407500Y-69830000D01*
D13*
X41707500Y-68980000D02*
X35007500Y-68980000D01*
D14*
X34937500Y-68680000D02*
X34937500Y-70920000D01*
D12*
X43507500Y-67180000D02*
X35307499Y-67180000D01*
X33457500Y-72680000D02*
X36487500Y-72680000D01*
D10*
X43307500Y-70530000D02*
X42007500Y-70480000D01*
D12*
X33207500Y-69080000D02*
X33207500Y-69830000D01*
X35307499Y-67179999D02*
G75*
G03*
X33207500Y-69080001I-100000J-1999999D01*
G01*
D15*
X38307500Y-70380000D02*
G75*
G03*
X36091182Y-72258529I-65001J-2169999D01*
G01*
D12*
X38707500Y-70780000D02*
G75*
G03*
X36491182Y-72658529I-65001J-2169999D01*
G01*
D16*
X62357500Y-62630000D02*
X61107500Y-62630000D01*
D10*
X62307500Y-65780000D02*
X61007500Y-65730000D01*
D12*
X52457500Y-67930000D02*
X55487500Y-67930000D01*
X52207500Y-65080000D02*
X52407500Y-65080000D01*
D10*
X52657500Y-67730000D02*
X55107500Y-67730000D01*
D17*
X52807500Y-67430000D02*
X52807500Y-65630001D01*
D12*
X62507500Y-66030000D02*
X62507500Y-62430000D01*
X52207500Y-64330000D02*
X52207500Y-65080000D01*
D15*
X62007500Y-63030000D02*
X62007500Y-65530000D01*
D12*
X57707500Y-66030000D02*
X62507500Y-66030000D01*
X62487500Y-65030000D02*
X62487500Y-62780000D01*
X52457500Y-63480000D02*
X52457500Y-67930000D01*
D13*
X60707500Y-64230000D02*
X54007500Y-64230000D01*
D14*
X53937500Y-63930000D02*
X53937500Y-66170000D01*
D11*
X52307500Y-64980000D02*
X52307500Y-64330000D01*
D12*
X62507500Y-62430000D02*
X54307499Y-62430000D01*
D15*
X57307500Y-65630000D02*
G75*
G03*
X55091182Y-67508529I-65001J-2169999D01*
G01*
D12*
X57707500Y-66030000D02*
G75*
G03*
X55491182Y-67908529I-65001J-2169999D01*
G01*
X54307499Y-62429999D02*
G75*
G03*
X52207500Y-64330001I-100000J-1999999D01*
G01*
D10*
X71657500Y-65355000D02*
X74107500Y-65355000D01*
X81307500Y-63405000D02*
X80007500Y-63355000D01*
D13*
X79707500Y-61855000D02*
X73007500Y-61855000D01*
D12*
X71457500Y-61105000D02*
X71457500Y-65555000D01*
D17*
X71807500Y-65055000D02*
X71807500Y-63255001D01*
D12*
X71457500Y-65555000D02*
X74487500Y-65555000D01*
D14*
X72937500Y-61555000D02*
X72937500Y-63795000D01*
D16*
X81357500Y-60255000D02*
X80107500Y-60255000D01*
D12*
X71207500Y-62705000D02*
X71407500Y-62705000D01*
X71207500Y-61955000D02*
X71207500Y-62705000D01*
X81487500Y-62655000D02*
X81487500Y-60405000D01*
X81507500Y-60055000D02*
X73307499Y-60055000D01*
D11*
X71307500Y-62605000D02*
X71307500Y-61955000D01*
D12*
X76707500Y-63655000D02*
X81507500Y-63655000D01*
D15*
X81007500Y-60655000D02*
X81007500Y-63155000D01*
D12*
X81507500Y-63655000D02*
X81507500Y-60055000D01*
D15*
X76307500Y-63255000D02*
G75*
G03*
X74091182Y-65133529I-65001J-2169999D01*
G01*
D12*
X73307499Y-60054999D02*
G75*
G03*
X71207500Y-61955001I-100000J-1999999D01*
G01*
X76707500Y-63655000D02*
G75*
G03*
X74491182Y-65533529I-65001J-2169999D01*
G01*
X90207500Y-65080000D02*
X90407500Y-65080000D01*
X90457500Y-63480000D02*
X90457500Y-67930000D01*
D17*
X90807500Y-67430000D02*
X90807500Y-65630001D01*
D12*
X100507500Y-66030000D02*
X100507500Y-62430000D01*
X100507500Y-62430000D02*
X92307499Y-62430000D01*
D10*
X90657500Y-67730000D02*
X93107500Y-67730000D01*
D11*
X90307500Y-64980000D02*
X90307500Y-64330000D01*
D12*
X95707500Y-66030000D02*
X100507500Y-66030000D01*
D15*
X100007500Y-63030000D02*
X100007500Y-65530000D01*
D12*
X90207500Y-64330000D02*
X90207500Y-65080000D01*
X100487500Y-65030000D02*
X100487500Y-62780000D01*
D14*
X91937500Y-63930000D02*
X91937500Y-66170000D01*
D10*
X100307500Y-65780000D02*
X99007500Y-65730000D01*
D16*
X100357500Y-62630000D02*
X99107500Y-62630000D01*
D13*
X98707500Y-64230000D02*
X92007500Y-64230000D01*
D12*
X90457500Y-67930000D02*
X93487500Y-67930000D01*
X95707500Y-66030000D02*
G75*
G03*
X93491182Y-67908529I-65001J-2169999D01*
G01*
X92307499Y-62429999D02*
G75*
G03*
X90207500Y-64330001I-100000J-1999999D01*
G01*
D15*
X95307500Y-65630000D02*
G75*
G03*
X93091182Y-67508529I-65001J-2169999D01*
G01*
D16*
X119357500Y-65005000D02*
X118107500Y-65005000D01*
D12*
X119487500Y-67405000D02*
X119487500Y-65155000D01*
D11*
X109307500Y-67355000D02*
X109307500Y-66705000D01*
D12*
X114707500Y-68405000D02*
X119507500Y-68405000D01*
D10*
X109657500Y-70105000D02*
X112107500Y-70105000D01*
D17*
X109807500Y-69805000D02*
X109807500Y-68005001D01*
D12*
X119507500Y-68405000D02*
X119507500Y-64805000D01*
X109207500Y-67455000D02*
X109407500Y-67455000D01*
X109457500Y-65855000D02*
X109457500Y-70305000D01*
D10*
X119307500Y-68155000D02*
X118007500Y-68105000D01*
D15*
X119007500Y-65405000D02*
X119007500Y-67905000D01*
D12*
X109207500Y-66705000D02*
X109207500Y-67455000D01*
X119507500Y-64805000D02*
X111307499Y-64805000D01*
X109457500Y-70305000D02*
X112487500Y-70305000D01*
D13*
X117707500Y-66605000D02*
X111007500Y-66605000D01*
D14*
X110937500Y-66305000D02*
X110937500Y-68545000D01*
D12*
X111307499Y-64804999D02*
G75*
G03*
X109207500Y-66705001I-100000J-1999999D01*
G01*
X114707500Y-68405000D02*
G75*
G03*
X112491182Y-70283529I-65001J-2169999D01*
G01*
D15*
X114307500Y-68005000D02*
G75*
G03*
X112091182Y-69883529I-65001J-2169999D01*
G01*
D12*
X80957500Y-87555000D02*
X83987500Y-87555000D01*
D16*
X90857500Y-82255000D02*
X89607500Y-82255000D01*
D12*
X90987500Y-84655000D02*
X90987500Y-82405000D01*
D17*
X81307500Y-87055000D02*
X81307500Y-85255001D01*
D12*
X91007500Y-82055000D02*
X82807499Y-82055000D01*
D15*
X90507500Y-82655000D02*
X90507500Y-85155000D01*
D13*
X89207500Y-83855000D02*
X82507500Y-83855000D01*
D10*
X81157500Y-87355000D02*
X83607500Y-87355000D01*
D12*
X80957500Y-83105000D02*
X80957500Y-87555000D01*
X91007500Y-85655000D02*
X91007500Y-82055000D01*
X80707500Y-84705000D02*
X80907500Y-84705000D01*
D11*
X80807500Y-84605000D02*
X80807500Y-83955000D01*
D12*
X80707500Y-83955000D02*
X80707500Y-84705000D01*
D14*
X82437500Y-83555000D02*
X82437500Y-85795000D01*
D10*
X90807500Y-85405000D02*
X89507500Y-85355000D01*
D12*
X86207500Y-85655000D02*
X91007500Y-85655000D01*
X86207500Y-85655000D02*
G75*
G03*
X83991182Y-87533529I-65001J-2169999D01*
G01*
X82807499Y-82054999D02*
G75*
G03*
X80707500Y-83955001I-100000J-1999999D01*
G01*
D15*
X85807500Y-85255000D02*
G75*
G03*
X83591182Y-87133529I-65001J-2169999D01*
G01*
D12*
X102930873Y-86062561D02*
X103124058Y-86114324D01*
X103586465Y-84581784D02*
X102434720Y-88880154D01*
D14*
X104899566Y-85399503D02*
X104319812Y-87563177D01*
D12*
X107997587Y-88403695D02*
X112634031Y-89646026D01*
X103124987Y-85338116D02*
X102930873Y-86062561D01*
D16*
X113369127Y-86323056D02*
X112161719Y-85999532D01*
D12*
X113565779Y-86168693D02*
X105645187Y-84046377D01*
D10*
X112505550Y-89352781D02*
X111262788Y-88968020D01*
D15*
X112927525Y-86618839D02*
X112280477Y-89033654D01*
D13*
X111361239Y-87441486D02*
X104889536Y-85707398D01*
D11*
X103053347Y-85991850D02*
X103221580Y-85363998D01*
D17*
X102902204Y-88487778D02*
X103368078Y-86749112D01*
D12*
X112873531Y-88674924D02*
X113455874Y-86501591D01*
X102434720Y-88880154D02*
X105361475Y-89664376D01*
D10*
X102679669Y-88738733D02*
X105046187Y-89372839D01*
D12*
X112634031Y-89646026D02*
X113565779Y-86168693D01*
D15*
X107714744Y-87913797D02*
G75*
G03*
X105087746Y-89154691I-624423J-2079235D01*
G01*
D12*
X105645187Y-84046377D02*
G75*
G03*
X103124987Y-85338117I-614231J-1905968D01*
G01*
X107997587Y-88403695D02*
G75*
G03*
X105370589Y-89644589I-624423J-2079234D01*
G01*
X128583398Y-89361809D02*
X126634841Y-88236809D01*
X123486700Y-98289550D02*
X123586700Y-98116345D01*
X127059424Y-94001410D02*
X129459424Y-89844488D01*
D11*
X123450097Y-98152947D02*
X122887181Y-97827947D01*
D12*
X129459424Y-89844488D02*
X126341732Y-88044488D01*
D14*
X123355770Y-96216326D02*
X125295667Y-97336326D01*
D10*
X126006667Y-99224838D02*
X127231667Y-97103076D01*
D12*
X126341732Y-88044488D02*
X122241732Y-95145897D01*
D13*
X127000578Y-90503334D02*
X123650578Y-96305704D01*
D10*
X129142917Y-89892693D02*
X128449616Y-90993526D01*
D12*
X126079872Y-99498044D02*
X127594872Y-96873987D01*
X122837181Y-97914550D02*
X123486700Y-98289550D01*
D17*
X125821859Y-98944935D02*
X124263014Y-98044935D01*
D15*
X126611348Y-88777501D02*
X128776411Y-90027501D01*
D12*
X122226059Y-97273044D02*
X126079872Y-99498044D01*
D16*
X126439937Y-88274392D02*
X125814937Y-89356924D01*
D12*
X127059424Y-94001410D02*
G75*
G03*
X127578119Y-96860062I1846774J-1141292D01*
G01*
D15*
X126513013Y-94147819D02*
G75*
G03*
X127031708Y-97006473I1846774J-1141293D01*
G01*
D12*
X122241732Y-95145897D02*
G75*
G03*
X122837181Y-97914550I1682049J-1086602D01*
G01*
X169262576Y-93303590D02*
X171662576Y-97460512D01*
X167335300Y-88065450D02*
X167435300Y-88238655D01*
D10*
X165265333Y-89780162D02*
X166490333Y-91901924D01*
D12*
X167984819Y-87690450D02*
X167335300Y-88065450D01*
X168845941Y-87481956D02*
X164992128Y-89706956D01*
D11*
X167471903Y-88102053D02*
X168034819Y-87777053D01*
D14*
X169196230Y-88988674D02*
X167256333Y-90108674D01*
D12*
X164992128Y-89706956D02*
X166507128Y-92331013D01*
X171662576Y-97460512D02*
X174780268Y-95660512D01*
D13*
X172321422Y-95001666D02*
X168971422Y-89199296D01*
D12*
X172518602Y-96943191D02*
X174467159Y-95818191D01*
D16*
X174532063Y-95630608D02*
X173907063Y-94548076D01*
D15*
X174010652Y-95527499D02*
X171845589Y-96777499D01*
D10*
X171779083Y-97162307D02*
X171172384Y-96011474D01*
D17*
X165600141Y-89760065D02*
X167158986Y-88860066D01*
D12*
X174780268Y-95660512D02*
X170680267Y-88559103D01*
D15*
X169408987Y-92757179D02*
G75*
G03*
X166673974Y-91777056I-1911775J-1028708D01*
G01*
D12*
X170680268Y-88559103D02*
G75*
G03*
X167984819Y-87690451I-1782050J-913396D01*
G01*
X169262576Y-93303590D02*
G75*
G03*
X166527563Y-92323467I-1911775J-1028707D01*
G01*
D11*
X213814500Y-62600000D02*
X213814500Y-61950000D01*
D12*
X213964500Y-61100000D02*
X213964500Y-65550000D01*
D10*
X223814500Y-63400000D02*
X222514500Y-63350000D01*
D12*
X219214500Y-63650000D02*
X224014500Y-63650000D01*
D15*
X223514500Y-60650000D02*
X223514500Y-63150000D01*
D16*
X223864500Y-60250000D02*
X222614500Y-60250000D01*
D12*
X213714500Y-61950000D02*
X213714500Y-62700000D01*
D14*
X215444500Y-61550000D02*
X215444500Y-63790000D01*
D13*
X222214500Y-61850000D02*
X215514500Y-61850000D01*
D12*
X213714500Y-62700000D02*
X213914500Y-62700000D01*
D10*
X214164500Y-65350000D02*
X216614500Y-65350000D01*
D12*
X224014500Y-63650000D02*
X224014500Y-60050000D01*
X223994500Y-62650000D02*
X223994500Y-60400000D01*
X213964500Y-65550000D02*
X216994500Y-65550000D01*
D17*
X214314500Y-65050000D02*
X214314500Y-63250001D01*
D12*
X224014500Y-60050000D02*
X215814499Y-60050000D01*
X219214500Y-63650000D02*
G75*
G03*
X216998182Y-65528529I-65001J-2169999D01*
G01*
X215814499Y-60049999D02*
G75*
G03*
X213714500Y-61950001I-100000J-1999999D01*
G01*
D15*
X218814500Y-63250000D02*
G75*
G03*
X216598182Y-65128529I-65001J-2169999D01*
G01*
D12*
X205014500Y-62425000D02*
X196814499Y-62425000D01*
D10*
X204814500Y-65775000D02*
X203514500Y-65725000D01*
D17*
X195314500Y-67425000D02*
X195314500Y-65625001D01*
D12*
X194714500Y-64325000D02*
X194714500Y-65075000D01*
D15*
X204514500Y-63025000D02*
X204514500Y-65525000D01*
D13*
X203214500Y-64225000D02*
X196514500Y-64225000D01*
D16*
X204864500Y-62625000D02*
X203614500Y-62625000D01*
D10*
X195164500Y-67725000D02*
X197614500Y-67725000D01*
D12*
X204994500Y-65025000D02*
X204994500Y-62775000D01*
X194964500Y-67925000D02*
X197994500Y-67925000D01*
X194964500Y-63475000D02*
X194964500Y-67925000D01*
D14*
X196444500Y-63925000D02*
X196444500Y-66165000D01*
D12*
X194714500Y-65075000D02*
X194914500Y-65075000D01*
D11*
X194814500Y-64975000D02*
X194814500Y-64325000D01*
D12*
X205014500Y-66025000D02*
X205014500Y-62425000D01*
X200214500Y-66025000D02*
X205014500Y-66025000D01*
X196814499Y-62424999D02*
G75*
G03*
X194714500Y-64325001I-100000J-1999999D01*
G01*
D15*
X199814500Y-65625000D02*
G75*
G03*
X197598182Y-67503529I-65001J-2169999D01*
G01*
D12*
X200214500Y-66025000D02*
G75*
G03*
X197998182Y-67903529I-65001J-2169999D01*
G01*
X175964500Y-65850000D02*
X175964500Y-70300000D01*
D10*
X185814500Y-68150000D02*
X184514500Y-68100000D01*
D17*
X176314500Y-69800000D02*
X176314500Y-68000001D01*
D16*
X185864500Y-65000000D02*
X184614500Y-65000000D01*
D12*
X181214500Y-68400000D02*
X186014500Y-68400000D01*
D11*
X175814500Y-67350000D02*
X175814500Y-66700000D01*
D12*
X185994500Y-67400000D02*
X185994500Y-65150000D01*
D14*
X177444500Y-66300000D02*
X177444500Y-68540000D01*
D12*
X186014500Y-68400000D02*
X186014500Y-64800000D01*
D15*
X185514500Y-65400000D02*
X185514500Y-67900000D01*
D12*
X175714500Y-66700000D02*
X175714500Y-67450000D01*
D10*
X176164500Y-70100000D02*
X178614500Y-70100000D01*
D12*
X186014500Y-64800000D02*
X177814499Y-64800000D01*
D13*
X184214500Y-66600000D02*
X177514500Y-66600000D01*
D12*
X175964500Y-70300000D02*
X178994500Y-70300000D01*
X175714500Y-67450000D02*
X175914500Y-67450000D01*
X181214500Y-68400000D02*
G75*
G03*
X178998182Y-70278529I-65001J-2169999D01*
G01*
D15*
X180814500Y-68000000D02*
G75*
G03*
X178598182Y-69878529I-65001J-2169999D01*
G01*
D12*
X177814499Y-64799999D02*
G75*
G03*
X175714500Y-66700001I-100000J-1999999D01*
G01*
X209714500Y-85650000D02*
X214514500Y-85650000D01*
X214494500Y-84650000D02*
X214494500Y-82400000D01*
D10*
X204664500Y-87350000D02*
X207114500Y-87350000D01*
D12*
X204464500Y-83100000D02*
X204464500Y-87550000D01*
D15*
X214014500Y-82650000D02*
X214014500Y-85150000D01*
D12*
X204214500Y-83950000D02*
X204214500Y-84700000D01*
X214514500Y-85650000D02*
X214514500Y-82050000D01*
D11*
X204314500Y-84600000D02*
X204314500Y-83950000D01*
D16*
X214364500Y-82250000D02*
X213114500Y-82250000D01*
D14*
X205944500Y-83550000D02*
X205944500Y-85790000D01*
D13*
X212714500Y-83850000D02*
X206014500Y-83850000D01*
D12*
X204464500Y-87550000D02*
X207494500Y-87550000D01*
D10*
X214314500Y-85400000D02*
X213014500Y-85350000D01*
D17*
X204814500Y-87050000D02*
X204814500Y-85250001D01*
D12*
X204214500Y-84700000D02*
X204414500Y-84700000D01*
X214514500Y-82050000D02*
X206314499Y-82050000D01*
X209714500Y-85650000D02*
G75*
G03*
X207498182Y-87528529I-65001J-2169999D01*
G01*
D15*
X209314500Y-85250000D02*
G75*
G03*
X207098182Y-87128529I-65001J-2169999D01*
G01*
D12*
X206314499Y-82049999D02*
G75*
G03*
X204214500Y-83950001I-100000J-1999999D01*
G01*
D13*
X190383576Y-86090627D02*
X183911873Y-87824714D01*
D12*
X187951673Y-88605750D02*
X192588117Y-87363419D01*
X182199088Y-88387181D02*
X182393202Y-89111625D01*
X191656368Y-83886086D02*
X183735775Y-86008402D01*
X182393202Y-89111625D02*
X182586388Y-89059862D01*
X182220573Y-87501439D02*
X183372318Y-91799809D01*
D10*
X192330227Y-87173701D02*
X191061582Y-87461870D01*
X183513739Y-91554860D02*
X185880258Y-90920754D01*
D12*
X192588117Y-87363419D02*
X191656368Y-83886086D01*
D16*
X191563243Y-84118094D02*
X190355836Y-84441618D01*
D12*
X183372318Y-91799809D02*
X186299073Y-91015587D01*
D11*
X182463913Y-88989151D02*
X182295681Y-88361299D01*
D12*
X192309979Y-86402669D02*
X191727636Y-84229336D01*
D15*
X191328696Y-84595051D02*
X191975744Y-87009865D01*
D14*
X183766612Y-87553054D02*
X184346367Y-89716728D01*
D17*
X183580983Y-91226260D02*
X183115109Y-89487594D01*
D15*
X187461775Y-88322908D02*
G75*
G03*
X185807175Y-90711052I498851J-2112881D01*
G01*
D12*
X187951673Y-88605751D02*
G75*
G03*
X186297073Y-90993895I498850J-2112881D01*
G01*
X183735775Y-86008401D02*
G75*
G03*
X182199088Y-88387182I421047J-1957734D01*
G01*
X219214500Y-25650000D02*
X224014500Y-25650000D01*
D15*
X223514500Y-22650000D02*
X223514500Y-25150000D01*
D17*
X214314500Y-27050000D02*
X214314500Y-25250001D01*
D12*
X223994500Y-24650000D02*
X223994500Y-22400000D01*
D10*
X223814500Y-25400000D02*
X222514500Y-25350000D01*
D12*
X213714500Y-23950000D02*
X213714500Y-24700000D01*
D10*
X214164500Y-27350000D02*
X216614500Y-27350000D01*
D12*
X213714500Y-24700000D02*
X213914500Y-24700000D01*
D11*
X213814500Y-24600000D02*
X213814500Y-23950000D01*
D12*
X213964500Y-23100000D02*
X213964500Y-27550000D01*
X213964500Y-27550000D02*
X216994500Y-27550000D01*
D16*
X223864500Y-22250000D02*
X222614500Y-22250000D01*
D13*
X222214500Y-23850000D02*
X215514500Y-23850000D01*
D12*
X224014500Y-25650000D02*
X224014500Y-22050000D01*
X224014500Y-22050000D02*
X215814499Y-22050000D01*
D14*
X215444500Y-23550000D02*
X215444500Y-25790000D01*
D15*
X218814500Y-25250000D02*
G75*
G03*
X216598182Y-27128529I-65001J-2169999D01*
G01*
D12*
X219214500Y-25650000D02*
G75*
G03*
X216998182Y-27528529I-65001J-2169999D01*
G01*
X215814499Y-22049999D02*
G75*
G03*
X213714500Y-23950001I-100000J-1999999D01*
G01*
X194714500Y-27075000D02*
X194914500Y-27075000D01*
D11*
X194814500Y-26975000D02*
X194814500Y-26325000D01*
D14*
X196444500Y-25925000D02*
X196444500Y-28165000D01*
D16*
X204864500Y-24625000D02*
X203614500Y-24625000D01*
D15*
X204514500Y-25025000D02*
X204514500Y-27525000D01*
D12*
X205014500Y-24425000D02*
X196814499Y-24425000D01*
D17*
X195314500Y-29425000D02*
X195314500Y-27625001D01*
D12*
X194714500Y-26325000D02*
X194714500Y-27075000D01*
X194964500Y-29925000D02*
X197994500Y-29925000D01*
X205014500Y-28025000D02*
X205014500Y-24425000D01*
D10*
X204814500Y-27775000D02*
X203514500Y-27725000D01*
D13*
X203214500Y-26225000D02*
X196514500Y-26225000D01*
D12*
X200214500Y-28025000D02*
X205014500Y-28025000D01*
D10*
X195164500Y-29725000D02*
X197614500Y-29725000D01*
D12*
X194964500Y-25475000D02*
X194964500Y-29925000D01*
X204994500Y-27025000D02*
X204994500Y-24775000D01*
X196814499Y-24424999D02*
G75*
G03*
X194714500Y-26325001I-100000J-1999999D01*
G01*
X200214500Y-28025000D02*
G75*
G03*
X197998182Y-29903529I-65001J-2169999D01*
G01*
D15*
X199814500Y-27625000D02*
G75*
G03*
X197598182Y-29503529I-65001J-2169999D01*
G01*
D12*
X270714500Y-50825000D02*
X270914500Y-50825000D01*
X270964500Y-49225000D02*
X270964500Y-53675000D01*
D16*
X280864500Y-48375000D02*
X279614500Y-48375000D01*
D10*
X280814500Y-51525000D02*
X279514500Y-51475000D01*
D12*
X270714500Y-50075000D02*
X270714500Y-50825000D01*
X276214500Y-51775000D02*
X281014500Y-51775000D01*
X281014500Y-48175000D02*
X272814499Y-48175000D01*
D17*
X271314500Y-53175000D02*
X271314500Y-51375001D01*
D10*
X271164500Y-53475000D02*
X273614500Y-53475000D01*
D14*
X272444500Y-49675000D02*
X272444500Y-51915000D01*
D12*
X281014500Y-51775000D02*
X281014500Y-48175000D01*
X270964500Y-53675000D02*
X273994500Y-53675000D01*
D11*
X270814500Y-50725000D02*
X270814500Y-50075000D01*
D12*
X280994500Y-50775000D02*
X280994500Y-48525000D01*
D13*
X279214500Y-49975000D02*
X272514500Y-49975000D01*
D15*
X280514500Y-48775000D02*
X280514500Y-51275000D01*
X275814500Y-51375000D02*
G75*
G03*
X273598182Y-53253529I-65001J-2169999D01*
G01*
D12*
X272814499Y-48174999D02*
G75*
G03*
X270714500Y-50075001I-100000J-1999999D01*
G01*
X276214500Y-51775000D02*
G75*
G03*
X273998182Y-53653529I-65001J-2169999D01*
G01*
D17*
X233314500Y-29425000D02*
X233314500Y-27625001D01*
D10*
X233164500Y-29725000D02*
X235614500Y-29725000D01*
D11*
X232814500Y-26975000D02*
X232814500Y-26325000D01*
D12*
X243014500Y-24425000D02*
X234814499Y-24425000D01*
X232714500Y-27075000D02*
X232914500Y-27075000D01*
X232964500Y-25475000D02*
X232964500Y-29925000D01*
D15*
X242514500Y-25025000D02*
X242514500Y-27525000D01*
D13*
X241214500Y-26225000D02*
X234514500Y-26225000D01*
D12*
X232964500Y-29925000D02*
X235994500Y-29925000D01*
X242994500Y-27025000D02*
X242994500Y-24775000D01*
D10*
X242814500Y-27775000D02*
X241514500Y-27725000D01*
D14*
X234444500Y-25925000D02*
X234444500Y-28165000D01*
D12*
X243014500Y-28025000D02*
X243014500Y-24425000D01*
X238214500Y-28025000D02*
X243014500Y-28025000D01*
X232714500Y-26325000D02*
X232714500Y-27075000D01*
D16*
X242864500Y-24625000D02*
X241614500Y-24625000D01*
D12*
X238214500Y-28025000D02*
G75*
G03*
X235998182Y-29903529I-65001J-2169999D01*
G01*
D15*
X237814500Y-27625000D02*
G75*
G03*
X235598182Y-29503529I-65001J-2169999D01*
G01*
D12*
X234814499Y-24424999D02*
G75*
G03*
X232714500Y-26325001I-100000J-1999999D01*
G01*
D10*
X252164500Y-53475000D02*
X254614500Y-53475000D01*
D14*
X253444500Y-49675000D02*
X253444500Y-51915000D01*
D15*
X261514500Y-48775000D02*
X261514500Y-51275000D01*
D12*
X257214500Y-51775000D02*
X262014500Y-51775000D01*
D17*
X252314500Y-53175000D02*
X252314500Y-51375001D01*
D12*
X251714500Y-50075000D02*
X251714500Y-50825000D01*
X261994500Y-50775000D02*
X261994500Y-48525000D01*
X262014500Y-48175000D02*
X253814499Y-48175000D01*
X251964500Y-53675000D02*
X254994500Y-53675000D01*
X251714500Y-50825000D02*
X251914500Y-50825000D01*
D10*
X261814500Y-51525000D02*
X260514500Y-51475000D01*
D12*
X251964500Y-49225000D02*
X251964500Y-53675000D01*
X262014500Y-51775000D02*
X262014500Y-48175000D01*
D13*
X260214500Y-49975000D02*
X253514500Y-49975000D01*
D11*
X251814500Y-50725000D02*
X251814500Y-50075000D01*
D16*
X261864500Y-48375000D02*
X260614500Y-48375000D01*
D12*
X253814499Y-48174999D02*
G75*
G03*
X251714500Y-50075001I-100000J-1999999D01*
G01*
X257214500Y-51775000D02*
G75*
G03*
X254998182Y-53653529I-65001J-2169999D01*
G01*
D15*
X256814500Y-51375000D02*
G75*
G03*
X254598182Y-53253529I-65001J-2169999D01*
G01*
D12*
X262014500Y-67175000D02*
X253814499Y-67175000D01*
D13*
X260214500Y-68975000D02*
X253514500Y-68975000D01*
D12*
X251964500Y-72675000D02*
X254994500Y-72675000D01*
D16*
X261864500Y-67375000D02*
X260614500Y-67375000D01*
D12*
X251714500Y-69825000D02*
X251914500Y-69825000D01*
D11*
X251814500Y-69725000D02*
X251814500Y-69075000D01*
D12*
X257214500Y-70775000D02*
X262014500Y-70775000D01*
D17*
X252314500Y-72175000D02*
X252314500Y-70375001D01*
D12*
X261994500Y-69775000D02*
X261994500Y-67525000D01*
X251714500Y-69075000D02*
X251714500Y-69825000D01*
D14*
X253444500Y-68675000D02*
X253444500Y-70915000D01*
D12*
X251964500Y-68225000D02*
X251964500Y-72675000D01*
D10*
X261814500Y-70525000D02*
X260514500Y-70475000D01*
D15*
X261514500Y-67775000D02*
X261514500Y-70275000D01*
D10*
X252164500Y-72475000D02*
X254614500Y-72475000D01*
D12*
X262014500Y-70775000D02*
X262014500Y-67175000D01*
X257214500Y-70775000D02*
G75*
G03*
X254998182Y-72653529I-65001J-2169999D01*
G01*
D15*
X256814500Y-70375000D02*
G75*
G03*
X254598182Y-72253529I-65001J-2169999D01*
G01*
D12*
X253814499Y-67174999D02*
G75*
G03*
X251714500Y-69075001I-100000J-1999999D01*
G01*
X242994500Y-65025000D02*
X242994500Y-62775000D01*
X232964500Y-63475000D02*
X232964500Y-67925000D01*
D10*
X233164500Y-67725000D02*
X235614500Y-67725000D01*
D12*
X232714500Y-65075000D02*
X232914500Y-65075000D01*
X232714500Y-64325000D02*
X232714500Y-65075000D01*
X243014500Y-66025000D02*
X243014500Y-62425000D01*
X243014500Y-62425000D02*
X234814499Y-62425000D01*
D13*
X241214500Y-64225000D02*
X234514500Y-64225000D01*
D14*
X234444500Y-63925000D02*
X234444500Y-66165000D01*
D11*
X232814500Y-64975000D02*
X232814500Y-64325000D01*
D10*
X242814500Y-65775000D02*
X241514500Y-65725000D01*
D17*
X233314500Y-67425000D02*
X233314500Y-65625001D01*
D15*
X242514500Y-63025000D02*
X242514500Y-65525000D01*
D16*
X242864500Y-62625000D02*
X241614500Y-62625000D01*
D12*
X232964500Y-67925000D02*
X235994500Y-67925000D01*
X238214500Y-66025000D02*
X243014500Y-66025000D01*
D15*
X237814500Y-65625000D02*
G75*
G03*
X235598182Y-67503529I-65001J-2169999D01*
G01*
D12*
X234814499Y-62424999D02*
G75*
G03*
X232714500Y-64325001I-100000J-1999999D01*
G01*
X238214500Y-66025000D02*
G75*
G03*
X235998182Y-67903529I-65001J-2169999D01*
G01*
D13*
X279214500Y-30975000D02*
X272514500Y-30975000D01*
D12*
X270714500Y-31825000D02*
X270914500Y-31825000D01*
X270714500Y-31075000D02*
X270714500Y-31825000D01*
D16*
X280864500Y-29375000D02*
X279614500Y-29375000D01*
D12*
X281014500Y-32775000D02*
X281014500Y-29175000D01*
X281014500Y-29175000D02*
X272814499Y-29175000D01*
D10*
X271164500Y-34475000D02*
X273614500Y-34475000D01*
D12*
X276214500Y-32775000D02*
X281014500Y-32775000D01*
X280994500Y-31775000D02*
X280994500Y-29525000D01*
D11*
X270814500Y-31725000D02*
X270814500Y-31075000D01*
D12*
X270964500Y-34675000D02*
X273994500Y-34675000D01*
X270964500Y-30225000D02*
X270964500Y-34675000D01*
D14*
X272444500Y-30675000D02*
X272444500Y-32915000D01*
D17*
X271314500Y-34175000D02*
X271314500Y-32375001D01*
D15*
X280514500Y-29775000D02*
X280514500Y-32275000D01*
D10*
X280814500Y-32525000D02*
X279514500Y-32475000D01*
D12*
X276214500Y-32775000D02*
G75*
G03*
X273998182Y-34653529I-65001J-2169999D01*
G01*
D15*
X275814500Y-32375000D02*
G75*
G03*
X273598182Y-34253529I-65001J-2169999D01*
G01*
D12*
X272814499Y-29174999D02*
G75*
G03*
X270714500Y-31075001I-100000J-1999999D01*
G01*
X251964500Y-34675000D02*
X254994500Y-34675000D01*
X262014500Y-29175000D02*
X253814499Y-29175000D01*
D10*
X261814500Y-32525000D02*
X260514500Y-32475000D01*
D12*
X251714500Y-31075000D02*
X251714500Y-31825000D01*
X251964500Y-30225000D02*
X251964500Y-34675000D01*
X261994500Y-31775000D02*
X261994500Y-29525000D01*
X251714500Y-31825000D02*
X251914500Y-31825000D01*
D10*
X252164500Y-34475000D02*
X254614500Y-34475000D01*
D11*
X251814500Y-31725000D02*
X251814500Y-31075000D01*
D16*
X261864500Y-29375000D02*
X260614500Y-29375000D01*
D14*
X253444500Y-30675000D02*
X253444500Y-32915000D01*
D13*
X260214500Y-30975000D02*
X253514500Y-30975000D01*
D17*
X252314500Y-34175000D02*
X252314500Y-32375001D01*
D15*
X261514500Y-29775000D02*
X261514500Y-32275000D01*
D12*
X257214500Y-32775000D02*
X262014500Y-32775000D01*
X262014500Y-32775000D02*
X262014500Y-29175000D01*
D15*
X256814500Y-32375000D02*
G75*
G03*
X254598182Y-34253529I-65001J-2169999D01*
G01*
D12*
X257214500Y-32775000D02*
G75*
G03*
X254998182Y-34653529I-65001J-2169999D01*
G01*
X253814499Y-29174999D02*
G75*
G03*
X251714500Y-31075001I-100000J-1999999D01*
G01*
X243014500Y-43425000D02*
X234814499Y-43425000D01*
X232964500Y-48925000D02*
X235994500Y-48925000D01*
D17*
X233314500Y-48425000D02*
X233314500Y-46625001D01*
D12*
X242994500Y-46025000D02*
X242994500Y-43775000D01*
D14*
X234444500Y-44925000D02*
X234444500Y-47165000D01*
D10*
X233164500Y-48725000D02*
X235614500Y-48725000D01*
D12*
X238214500Y-47025000D02*
X243014500Y-47025000D01*
D10*
X242814500Y-46775000D02*
X241514500Y-46725000D01*
D13*
X241214500Y-45225000D02*
X234514500Y-45225000D01*
D12*
X232964500Y-44475000D02*
X232964500Y-48925000D01*
X232714500Y-46075000D02*
X232914500Y-46075000D01*
D15*
X242514500Y-44025000D02*
X242514500Y-46525000D01*
D11*
X232814500Y-45975000D02*
X232814500Y-45325000D01*
D12*
X243014500Y-47025000D02*
X243014500Y-43425000D01*
D16*
X242864500Y-43625000D02*
X241614500Y-43625000D01*
D12*
X232714500Y-45325000D02*
X232714500Y-46075000D01*
X238214500Y-47025000D02*
G75*
G03*
X235998182Y-48903529I-65001J-2169999D01*
G01*
D15*
X237814500Y-46625000D02*
G75*
G03*
X235598182Y-48503529I-65001J-2169999D01*
G01*
D12*
X234814499Y-43424999D02*
G75*
G03*
X232714500Y-45325001I-100000J-1999999D01*
G01*
X213964500Y-46550000D02*
X216994500Y-46550000D01*
X213714500Y-42950000D02*
X213714500Y-43700000D01*
D15*
X223514500Y-41650000D02*
X223514500Y-44150000D01*
D12*
X223994500Y-43650000D02*
X223994500Y-41400000D01*
X219214500Y-44650000D02*
X224014500Y-44650000D01*
D17*
X214314500Y-46050000D02*
X214314500Y-44250001D01*
D14*
X215444500Y-42550000D02*
X215444500Y-44790000D01*
D10*
X214164500Y-46350000D02*
X216614500Y-46350000D01*
D12*
X224014500Y-44650000D02*
X224014500Y-41050000D01*
X213714500Y-43700000D02*
X213914500Y-43700000D01*
D13*
X222214500Y-42850000D02*
X215514500Y-42850000D01*
D10*
X223814500Y-44400000D02*
X222514500Y-44350000D01*
D12*
X213964500Y-42100000D02*
X213964500Y-46550000D01*
X224014500Y-41050000D02*
X215814499Y-41050000D01*
D16*
X223864500Y-41250000D02*
X222614500Y-41250000D01*
D11*
X213814500Y-43600000D02*
X213814500Y-42950000D01*
D12*
X215814499Y-41049999D02*
G75*
G03*
X213714500Y-42950001I-100000J-1999999D01*
G01*
X219214500Y-44650000D02*
G75*
G03*
X216998182Y-46528529I-65001J-2169999D01*
G01*
D15*
X218814500Y-44250000D02*
G75*
G03*
X216598182Y-46128529I-65001J-2169999D01*
G01*
D12*
X194964500Y-44475000D02*
X194964500Y-48925000D01*
D11*
X194814500Y-45975000D02*
X194814500Y-45325000D01*
D17*
X195314500Y-48425000D02*
X195314500Y-46625001D01*
D12*
X200214500Y-47025000D02*
X205014500Y-47025000D01*
X205014500Y-43425000D02*
X196814499Y-43425000D01*
X205014500Y-47025000D02*
X205014500Y-43425000D01*
X194714500Y-46075000D02*
X194914500Y-46075000D01*
D16*
X204864500Y-43625000D02*
X203614500Y-43625000D01*
D15*
X204514500Y-44025000D02*
X204514500Y-46525000D01*
D13*
X203214500Y-45225000D02*
X196514500Y-45225000D01*
D12*
X194714500Y-45325000D02*
X194714500Y-46075000D01*
X204994500Y-46025000D02*
X204994500Y-43775000D01*
D14*
X196444500Y-44925000D02*
X196444500Y-47165000D01*
D10*
X204814500Y-46775000D02*
X203514500Y-46725000D01*
D12*
X194964500Y-48925000D02*
X197994500Y-48925000D01*
D10*
X195164500Y-48725000D02*
X197614500Y-48725000D01*
D15*
X199814500Y-46625000D02*
G75*
G03*
X197598182Y-48503529I-65001J-2169999D01*
G01*
D12*
X196814499Y-43424999D02*
G75*
G03*
X194714500Y-45325001I-100000J-1999999D01*
G01*
X200214500Y-47025000D02*
G75*
G03*
X197998182Y-48903529I-65001J-2169999D01*
G01*
D14*
X177444500Y-47300000D02*
X177444500Y-49540000D01*
D16*
X185864500Y-46000000D02*
X184614500Y-46000000D01*
D12*
X175964500Y-46850000D02*
X175964500Y-51300000D01*
X175714500Y-47700000D02*
X175714500Y-48450000D01*
X175964500Y-51300000D02*
X178994500Y-51300000D01*
D10*
X185814500Y-49150000D02*
X184514500Y-49100000D01*
D12*
X186014500Y-45800000D02*
X177814499Y-45800000D01*
D13*
X184214500Y-47600000D02*
X177514500Y-47600000D01*
D10*
X176164500Y-51100000D02*
X178614500Y-51100000D01*
D12*
X181214500Y-49400000D02*
X186014500Y-49400000D01*
X185994500Y-48400000D02*
X185994500Y-46150000D01*
D15*
X185514500Y-46400000D02*
X185514500Y-48900000D01*
D17*
X176314500Y-50800000D02*
X176314500Y-49000001D01*
D12*
X186014500Y-49400000D02*
X186014500Y-45800000D01*
X175714500Y-48450000D02*
X175914500Y-48450000D01*
D11*
X175814500Y-48350000D02*
X175814500Y-47700000D01*
D15*
X180814500Y-49000000D02*
G75*
G03*
X178598182Y-50878529I-65001J-2169999D01*
G01*
D12*
X181214500Y-49400000D02*
G75*
G03*
X178998182Y-51278529I-65001J-2169999D01*
G01*
X177814499Y-45799999D02*
G75*
G03*
X175714500Y-47700001I-100000J-1999999D01*
G01*
X270714500Y-69075000D02*
X270714500Y-69825000D01*
X276214500Y-70775000D02*
X281014500Y-70775000D01*
D11*
X270814500Y-69725000D02*
X270814500Y-69075000D01*
D17*
X271314500Y-72175000D02*
X271314500Y-70375001D01*
D16*
X280864500Y-67375000D02*
X279614500Y-67375000D01*
D12*
X281014500Y-67175000D02*
X272814499Y-67175000D01*
D15*
X280514500Y-67775000D02*
X280514500Y-70275000D01*
D12*
X270714500Y-69825000D02*
X270914500Y-69825000D01*
D13*
X279214500Y-68975000D02*
X272514500Y-68975000D01*
D10*
X271164500Y-72475000D02*
X273614500Y-72475000D01*
D12*
X270964500Y-68225000D02*
X270964500Y-72675000D01*
X281014500Y-70775000D02*
X281014500Y-67175000D01*
X280994500Y-69775000D02*
X280994500Y-67525000D01*
D10*
X280814500Y-70525000D02*
X279514500Y-70475000D01*
D14*
X272444500Y-68675000D02*
X272444500Y-70915000D01*
D12*
X270964500Y-72675000D02*
X273994500Y-72675000D01*
D15*
X275814500Y-70375000D02*
G75*
G03*
X273598182Y-72253529I-65001J-2169999D01*
G01*
D12*
X276214500Y-70775000D02*
G75*
G03*
X273998182Y-72653529I-65001J-2169999D01*
G01*
X272814499Y-67174999D02*
G75*
G03*
X270714500Y-69075001I-100000J-1999999D01*
G01*
X14457500Y-34680000D02*
X17487500Y-34680000D01*
X19707500Y-32780000D02*
X24507500Y-32780000D01*
X14207500Y-31080000D02*
X14207500Y-31830000D01*
X14207500Y-31830000D02*
X14407500Y-31830000D01*
D17*
X14807500Y-34180000D02*
X14807500Y-32380001D01*
D10*
X24307500Y-32530000D02*
X23007500Y-32480000D01*
D14*
X15937500Y-30680000D02*
X15937500Y-32920000D01*
D12*
X24507500Y-29180000D02*
X16307499Y-29180000D01*
D11*
X14307500Y-31730000D02*
X14307500Y-31080000D01*
D15*
X24007500Y-29780000D02*
X24007500Y-32280000D01*
D12*
X24487500Y-31780000D02*
X24487500Y-29530000D01*
D10*
X14657500Y-34480000D02*
X17107500Y-34480000D01*
D12*
X14457500Y-30230000D02*
X14457500Y-34680000D01*
D16*
X24357500Y-29380000D02*
X23107500Y-29380000D01*
D13*
X22707500Y-30980000D02*
X16007500Y-30980000D01*
D12*
X24507500Y-32780000D02*
X24507500Y-29180000D01*
D15*
X19307500Y-32380000D02*
G75*
G03*
X17091182Y-34258529I-65001J-2169999D01*
G01*
D12*
X19707500Y-32780000D02*
G75*
G03*
X17491182Y-34658529I-65001J-2169999D01*
G01*
X16307499Y-29179999D02*
G75*
G03*
X14207500Y-31080001I-100000J-1999999D01*
G01*
X119507500Y-26805000D02*
X111307499Y-26805000D01*
X119507500Y-30405000D02*
X119507500Y-26805000D01*
D11*
X109307500Y-29355000D02*
X109307500Y-28705000D01*
D14*
X110937500Y-28305000D02*
X110937500Y-30545000D01*
D10*
X109657500Y-32105000D02*
X112107500Y-32105000D01*
D12*
X114707500Y-30405000D02*
X119507500Y-30405000D01*
D15*
X119007500Y-27405000D02*
X119007500Y-29905000D01*
D12*
X109457500Y-32305000D02*
X112487500Y-32305000D01*
D13*
X117707500Y-28605000D02*
X111007500Y-28605000D01*
D17*
X109807500Y-31805000D02*
X109807500Y-30005001D01*
D10*
X119307500Y-30155000D02*
X118007500Y-30105000D01*
D12*
X109207500Y-28705000D02*
X109207500Y-29455000D01*
X119487500Y-29405000D02*
X119487500Y-27155000D01*
X109457500Y-27855000D02*
X109457500Y-32305000D01*
X109207500Y-29455000D02*
X109407500Y-29455000D01*
D16*
X119357500Y-27005000D02*
X118107500Y-27005000D01*
D15*
X114307500Y-30005000D02*
G75*
G03*
X112091182Y-31883529I-65001J-2169999D01*
G01*
D12*
X114707500Y-30405000D02*
G75*
G03*
X112491182Y-32283529I-65001J-2169999D01*
G01*
X111307499Y-26804999D02*
G75*
G03*
X109207500Y-28705001I-100000J-1999999D01*
G01*
X186007500Y-30405000D02*
X186007500Y-26805000D01*
D14*
X177437500Y-28305000D02*
X177437500Y-30545000D01*
D12*
X175707500Y-29455000D02*
X175907500Y-29455000D01*
D10*
X185807500Y-30155000D02*
X184507500Y-30105000D01*
D12*
X175707500Y-28705000D02*
X175707500Y-29455000D01*
D11*
X175807500Y-29355000D02*
X175807500Y-28705000D01*
D12*
X175957500Y-27855000D02*
X175957500Y-32305000D01*
D16*
X185857500Y-27005000D02*
X184607500Y-27005000D01*
D12*
X186007500Y-26805000D02*
X177807499Y-26805000D01*
D10*
X176157500Y-32105000D02*
X178607500Y-32105000D01*
D17*
X176307500Y-31805000D02*
X176307500Y-30005001D01*
D12*
X175957500Y-32305000D02*
X178987500Y-32305000D01*
X185987500Y-29405000D02*
X185987500Y-27155000D01*
D13*
X184207500Y-28605000D02*
X177507500Y-28605000D01*
D12*
X181207500Y-30405000D02*
X186007500Y-30405000D01*
D15*
X185507500Y-27405000D02*
X185507500Y-29905000D01*
X180807500Y-30005000D02*
G75*
G03*
X178591182Y-31883529I-65001J-2169999D01*
G01*
D12*
X177807499Y-26804999D02*
G75*
G03*
X175707500Y-28705001I-100000J-1999999D01*
G01*
X181207500Y-30405000D02*
G75*
G03*
X178991182Y-32283529I-65001J-2169999D01*
G01*
X27734500Y-36176875D02*
X28234500Y-35276875D01*
X28234500Y-35276875D02*
X27234500Y-35276875D01*
X27234500Y-35276875D02*
X27734500Y-36176875D01*
X28484500Y-33076875D02*
X26984500Y-33076875D01*
X28234500Y-36276875D02*
X27234500Y-36276875D01*
X28484500Y-38476875D02*
X26984500Y-38476875D01*
X28484500Y-33076875D02*
X28484500Y-38476875D01*
X26984500Y-38476875D02*
X26984500Y-33076875D01*
X46234500Y-35280000D02*
X46734500Y-36180000D01*
X47484500Y-33080000D02*
X47484500Y-38480000D01*
X46734500Y-36180000D02*
X47234500Y-35280000D01*
X47234500Y-36280000D02*
X46234500Y-36280000D01*
X47484500Y-38480000D02*
X45984500Y-38480000D01*
X45984500Y-38480000D02*
X45984500Y-33080000D01*
X47234500Y-35280000D02*
X46234500Y-35280000D01*
X47484500Y-33080000D02*
X45984500Y-33080000D01*
X65707500Y-31180000D02*
X66207500Y-30280000D01*
X66207500Y-31280000D02*
X65207500Y-31280000D01*
X66457500Y-33480000D02*
X64957500Y-33480000D01*
X66207500Y-30280000D02*
X65207500Y-30280000D01*
X66457500Y-28080000D02*
X66457500Y-33480000D01*
X64957500Y-33480000D02*
X64957500Y-28080000D01*
X65207500Y-30280000D02*
X65707500Y-31180000D01*
X66457500Y-28080000D02*
X64957500Y-28080000D01*
X85457500Y-25955000D02*
X83957500Y-25955000D01*
X85207500Y-28155000D02*
X84207500Y-28155000D01*
X83957500Y-31355000D02*
X83957500Y-25955000D01*
X85457500Y-25955000D02*
X85457500Y-31355000D01*
X85457500Y-31355000D02*
X83957500Y-31355000D01*
X85207500Y-29155000D02*
X84207500Y-29155000D01*
X84707500Y-29055000D02*
X85207500Y-28155000D01*
X84207500Y-28155000D02*
X84707500Y-29055000D01*
X104457500Y-33730000D02*
X102957500Y-33730000D01*
X102957500Y-33730000D02*
X102957500Y-28330000D01*
X104457500Y-28330000D02*
X102957500Y-28330000D01*
X103707500Y-31430000D02*
X104207500Y-30530000D01*
X104457500Y-28330000D02*
X104457500Y-33730000D01*
X104207500Y-31530000D02*
X103207500Y-31530000D01*
X104207500Y-30530000D02*
X103207500Y-30530000D01*
X103207500Y-30530000D02*
X103707500Y-31430000D01*
X123457500Y-36105000D02*
X121957500Y-36105000D01*
X121957500Y-36105000D02*
X121957500Y-30705000D01*
X123207500Y-33905000D02*
X122207500Y-33905000D01*
X123457500Y-30705000D02*
X121957500Y-30705000D01*
X123207500Y-32905000D02*
X122207500Y-32905000D01*
X122207500Y-32905000D02*
X122707500Y-33805000D01*
X123457500Y-30705000D02*
X123457500Y-36105000D01*
X122707500Y-33805000D02*
X123207500Y-32905000D01*
X28484500Y-52076875D02*
X28484500Y-57476875D01*
X28484500Y-57476875D02*
X26984500Y-57476875D01*
X28234500Y-55276875D02*
X27234500Y-55276875D01*
X27734500Y-55176875D02*
X28234500Y-54276875D01*
X28234500Y-54276875D02*
X27234500Y-54276875D01*
X28484500Y-52076875D02*
X26984500Y-52076875D01*
X26984500Y-57476875D02*
X26984500Y-52076875D01*
X27234500Y-54276875D02*
X27734500Y-55176875D01*
X46234500Y-54280000D02*
X46734500Y-55180000D01*
X47234500Y-55280000D02*
X46234500Y-55280000D01*
X47484500Y-52080000D02*
X45984500Y-52080000D01*
X45984500Y-57480000D02*
X45984500Y-52080000D01*
X47484500Y-52080000D02*
X47484500Y-57480000D01*
X46734500Y-55180000D02*
X47234500Y-54280000D01*
X47234500Y-54280000D02*
X46234500Y-54280000D01*
X47484500Y-57480000D02*
X45984500Y-57480000D01*
X66207500Y-50530000D02*
X65207500Y-50530000D01*
X65707500Y-50430000D02*
X66207500Y-49530000D01*
X66207500Y-49530000D02*
X65207500Y-49530000D01*
X65207500Y-49530000D02*
X65707500Y-50430000D01*
X66457500Y-47330000D02*
X64957500Y-47330000D01*
X66457500Y-52730000D02*
X64957500Y-52730000D01*
X66457500Y-47330000D02*
X66457500Y-52730000D01*
X64957500Y-52730000D02*
X64957500Y-47330000D01*
X83957500Y-50355000D02*
X83957500Y-44955000D01*
X84707500Y-48055000D02*
X85207500Y-47155000D01*
X85457500Y-44955000D02*
X85457500Y-50355000D01*
X85457500Y-44955000D02*
X83957500Y-44955000D01*
X84207500Y-47155000D02*
X84707500Y-48055000D01*
X85207500Y-48155000D02*
X84207500Y-48155000D01*
X85207500Y-47155000D02*
X84207500Y-47155000D01*
X85457500Y-50355000D02*
X83957500Y-50355000D01*
X104207500Y-49530000D02*
X103207500Y-49530000D01*
X104457500Y-47330000D02*
X104457500Y-52730000D01*
X103707500Y-50430000D02*
X104207500Y-49530000D01*
X103207500Y-49530000D02*
X103707500Y-50430000D01*
X104457500Y-52730000D02*
X102957500Y-52730000D01*
X102957500Y-52730000D02*
X102957500Y-47330000D01*
X104207500Y-50530000D02*
X103207500Y-50530000D01*
X104457500Y-47330000D02*
X102957500Y-47330000D01*
X123207500Y-52905000D02*
X122207500Y-52905000D01*
X121957500Y-55105000D02*
X121957500Y-49705000D01*
X123457500Y-49705000D02*
X121957500Y-49705000D01*
X122207500Y-51905000D02*
X122707500Y-52805000D01*
X123207500Y-51905000D02*
X122207500Y-51905000D01*
X122707500Y-52805000D02*
X123207500Y-51905000D01*
X123457500Y-49705000D02*
X123457500Y-55105000D01*
X123457500Y-55105000D02*
X121957500Y-55105000D01*
X28234500Y-74276875D02*
X27234500Y-74276875D01*
X28484500Y-76476875D02*
X26984500Y-76476875D01*
X28234500Y-73276875D02*
X27234500Y-73276875D01*
X26984500Y-76476875D02*
X26984500Y-71076875D01*
X27734500Y-74176875D02*
X28234500Y-73276875D01*
X28484500Y-71076875D02*
X28484500Y-76476875D01*
X27234500Y-73276875D02*
X27734500Y-74176875D01*
X28484500Y-71076875D02*
X26984500Y-71076875D01*
X47484500Y-71080000D02*
X45984500Y-71080000D01*
X46734500Y-74180000D02*
X47234500Y-73280000D01*
X47234500Y-74280000D02*
X46234500Y-74280000D01*
X45984500Y-76480000D02*
X45984500Y-71080000D01*
X47484500Y-76480000D02*
X45984500Y-76480000D01*
X47484500Y-71080000D02*
X47484500Y-76480000D01*
X47234500Y-73280000D02*
X46234500Y-73280000D01*
X46234500Y-73280000D02*
X46734500Y-74180000D01*
X66207500Y-68530000D02*
X65207500Y-68530000D01*
X65707500Y-69430000D02*
X66207500Y-68530000D01*
X65207500Y-68530000D02*
X65707500Y-69430000D01*
X66457500Y-71730000D02*
X64957500Y-71730000D01*
X66457500Y-66330000D02*
X64957500Y-66330000D01*
X66457500Y-66330000D02*
X66457500Y-71730000D01*
X66207500Y-69530000D02*
X65207500Y-69530000D01*
X64957500Y-71730000D02*
X64957500Y-66330000D01*
X84707500Y-67055000D02*
X85207500Y-66155000D01*
X85457500Y-69355000D02*
X83957500Y-69355000D01*
X84207500Y-66155000D02*
X84707500Y-67055000D01*
X85457500Y-63955000D02*
X83957500Y-63955000D01*
X85207500Y-66155000D02*
X84207500Y-66155000D01*
X85207500Y-67155000D02*
X84207500Y-67155000D01*
X83957500Y-69355000D02*
X83957500Y-63955000D01*
X85457500Y-63955000D02*
X85457500Y-69355000D01*
X104457500Y-66330000D02*
X102957500Y-66330000D01*
X104457500Y-71730000D02*
X102957500Y-71730000D01*
X104457500Y-66330000D02*
X104457500Y-71730000D01*
X104207500Y-68530000D02*
X103207500Y-68530000D01*
X103707500Y-69430000D02*
X104207500Y-68530000D01*
X104207500Y-69530000D02*
X103207500Y-69530000D01*
X102957500Y-71730000D02*
X102957500Y-66330000D01*
X103207500Y-68530000D02*
X103707500Y-69430000D01*
X122707500Y-71805000D02*
X123207500Y-70905000D01*
X123207500Y-70905000D02*
X122207500Y-70905000D01*
X122207500Y-70905000D02*
X122707500Y-71805000D01*
X123207500Y-71905000D02*
X122207500Y-71905000D01*
X123457500Y-68705000D02*
X121957500Y-68705000D01*
X121957500Y-74105000D02*
X121957500Y-68705000D01*
X123457500Y-68705000D02*
X123457500Y-74105000D01*
X123457500Y-74105000D02*
X121957500Y-74105000D01*
X76907500Y-91470000D02*
X75407500Y-91470000D01*
X76657500Y-89270000D02*
X75657500Y-89270000D01*
X76157500Y-89170000D02*
X76657500Y-88270000D01*
X75657500Y-88270000D02*
X76157500Y-89170000D01*
X75407500Y-91470000D02*
X75407500Y-86070000D01*
X76907500Y-86070000D02*
X76907500Y-91470000D01*
X76907500Y-86070000D02*
X75407500Y-86070000D01*
X76657500Y-88270000D02*
X75657500Y-88270000D01*
X94664500Y-88265000D02*
X95164500Y-89165000D01*
X95914500Y-91465000D02*
X94414500Y-91465000D01*
X95664500Y-89265000D02*
X94664500Y-89265000D01*
X95164500Y-89165000D02*
X95664500Y-88265000D01*
X95914500Y-86065000D02*
X95914500Y-91465000D01*
X95914500Y-86065000D02*
X94414500Y-86065000D01*
X95664500Y-88265000D02*
X94664500Y-88265000D01*
X94414500Y-91465000D02*
X94414500Y-86065000D01*
X97507500Y-88265000D02*
X98007500Y-89165000D01*
X98507500Y-88265000D02*
X97507500Y-88265000D01*
X97257500Y-91465000D02*
X97257500Y-86065000D01*
X98757500Y-86065000D02*
X97257500Y-86065000D01*
X98757500Y-86065000D02*
X98757500Y-91465000D01*
X98507500Y-89265000D02*
X97507500Y-89265000D01*
X98757500Y-91465000D02*
X97257500Y-91465000D01*
X98007500Y-89165000D02*
X98507500Y-88265000D01*
X265714500Y-35275000D02*
X264714500Y-35275000D01*
X265964500Y-38475000D02*
X264464500Y-38475000D01*
X264464500Y-38475000D02*
X264464500Y-33075000D01*
X265964500Y-33075000D02*
X265964500Y-38475000D01*
X265714500Y-36275000D02*
X264714500Y-36275000D01*
X264714500Y-35275000D02*
X265214500Y-36175000D01*
X265964500Y-33075000D02*
X264464500Y-33075000D01*
X265214500Y-36175000D02*
X265714500Y-35275000D01*
X246214500Y-31425000D02*
X246714500Y-30525000D01*
X246964500Y-33725000D02*
X245464500Y-33725000D01*
X246964500Y-28325000D02*
X246964500Y-33725000D01*
X246964500Y-28325000D02*
X245464500Y-28325000D01*
X245464500Y-33725000D02*
X245464500Y-28325000D01*
X246714500Y-31525000D02*
X245714500Y-31525000D01*
X245714500Y-30525000D02*
X246214500Y-31425000D01*
X246714500Y-30525000D02*
X245714500Y-30525000D01*
X226464500Y-31350000D02*
X226464500Y-25950000D01*
X227964500Y-25950000D02*
X227964500Y-31350000D01*
X227714500Y-29150000D02*
X226714500Y-29150000D01*
X227964500Y-25950000D02*
X226464500Y-25950000D01*
X227714500Y-28150000D02*
X226714500Y-28150000D01*
X227214500Y-29050000D02*
X227714500Y-28150000D01*
X227964500Y-31350000D02*
X226464500Y-31350000D01*
X226714500Y-28150000D02*
X227214500Y-29050000D01*
X189957500Y-36105000D02*
X188457500Y-36105000D01*
X188457500Y-36105000D02*
X188457500Y-30705000D01*
X189957500Y-30705000D02*
X188457500Y-30705000D01*
X189707500Y-32905000D02*
X188707500Y-32905000D01*
X188707500Y-32905000D02*
X189207500Y-33805000D01*
X189207500Y-33805000D02*
X189707500Y-32905000D01*
X189957500Y-30705000D02*
X189957500Y-36105000D01*
X189707500Y-33905000D02*
X188707500Y-33905000D01*
X284964500Y-51925000D02*
X284964500Y-57325000D01*
X283464500Y-57325000D02*
X283464500Y-51925000D01*
X284214500Y-55025000D02*
X284714500Y-54125000D01*
X284964500Y-57325000D02*
X283464500Y-57325000D01*
X283714500Y-54125000D02*
X284214500Y-55025000D01*
X284714500Y-55125000D02*
X283714500Y-55125000D01*
X284714500Y-54125000D02*
X283714500Y-54125000D01*
X284964500Y-51925000D02*
X283464500Y-51925000D01*
X265964500Y-52075000D02*
X265964500Y-57475000D01*
X264714500Y-54275000D02*
X265214500Y-55175000D01*
X264464500Y-57475000D02*
X264464500Y-52075000D01*
X265714500Y-55275000D02*
X264714500Y-55275000D01*
X265214500Y-55175000D02*
X265714500Y-54275000D01*
X265714500Y-54275000D02*
X264714500Y-54275000D01*
X265964500Y-57475000D02*
X264464500Y-57475000D01*
X265964500Y-52075000D02*
X264464500Y-52075000D01*
X245714500Y-49525000D02*
X246214500Y-50425000D01*
X246964500Y-52725000D02*
X245464500Y-52725000D01*
X246214500Y-50425000D02*
X246714500Y-49525000D01*
X246714500Y-49525000D02*
X245714500Y-49525000D01*
X246714500Y-50525000D02*
X245714500Y-50525000D01*
X246964500Y-47325000D02*
X246964500Y-52725000D01*
X245464500Y-52725000D02*
X245464500Y-47325000D01*
X246964500Y-47325000D02*
X245464500Y-47325000D01*
X226714500Y-47150000D02*
X227214500Y-48050000D01*
X227714500Y-47150000D02*
X226714500Y-47150000D01*
X227964500Y-44950000D02*
X226464500Y-44950000D01*
X227214500Y-48050000D02*
X227714500Y-47150000D01*
X227964500Y-50350000D02*
X226464500Y-50350000D01*
X227714500Y-48150000D02*
X226714500Y-48150000D01*
X227964500Y-44950000D02*
X227964500Y-50350000D01*
X226464500Y-50350000D02*
X226464500Y-44950000D01*
X208964500Y-47325000D02*
X208964500Y-52725000D01*
X208964500Y-52725000D02*
X207464500Y-52725000D01*
X207714500Y-49525000D02*
X208214500Y-50425000D01*
X208214500Y-50425000D02*
X208714500Y-49525000D01*
X208714500Y-49525000D02*
X207714500Y-49525000D01*
X208964500Y-47325000D02*
X207464500Y-47325000D01*
X208714500Y-50525000D02*
X207714500Y-50525000D01*
X207464500Y-52725000D02*
X207464500Y-47325000D01*
X189957500Y-49705000D02*
X189957500Y-55105000D01*
X189707500Y-52905000D02*
X188707500Y-52905000D01*
X189957500Y-49705000D02*
X188457500Y-49705000D01*
X188457500Y-55105000D02*
X188457500Y-49705000D01*
X189207500Y-52805000D02*
X189707500Y-51905000D01*
X189707500Y-51905000D02*
X188707500Y-51905000D01*
X188707500Y-51905000D02*
X189207500Y-52805000D01*
X189957500Y-55105000D02*
X188457500Y-55105000D01*
X284714500Y-73275000D02*
X283714500Y-73275000D01*
X284964500Y-76475000D02*
X283464500Y-76475000D01*
X284964500Y-71075000D02*
X284964500Y-76475000D01*
X283714500Y-73275000D02*
X284214500Y-74175000D01*
X283464500Y-76475000D02*
X283464500Y-71075000D01*
X284214500Y-74175000D02*
X284714500Y-73275000D01*
X284714500Y-74275000D02*
X283714500Y-74275000D01*
X284964500Y-71075000D02*
X283464500Y-71075000D01*
X265964500Y-71075000D02*
X264464500Y-71075000D01*
X265964500Y-76475000D02*
X264464500Y-76475000D01*
X265714500Y-73275000D02*
X264714500Y-73275000D01*
X265714500Y-74275000D02*
X264714500Y-74275000D01*
X265964500Y-71075000D02*
X265964500Y-76475000D01*
X264464500Y-76475000D02*
X264464500Y-71075000D01*
X265214500Y-74175000D02*
X265714500Y-73275000D01*
X264714500Y-73275000D02*
X265214500Y-74175000D01*
X246214500Y-69425000D02*
X246714500Y-68525000D01*
X246964500Y-66325000D02*
X246964500Y-71725000D01*
X246714500Y-69525000D02*
X245714500Y-69525000D01*
X246714500Y-68525000D02*
X245714500Y-68525000D01*
X245714500Y-68525000D02*
X246214500Y-69425000D01*
X246964500Y-71725000D02*
X245464500Y-71725000D01*
X245464500Y-71725000D02*
X245464500Y-66325000D01*
X246964500Y-66325000D02*
X245464500Y-66325000D01*
X227964500Y-69350000D02*
X226464500Y-69350000D01*
X226464500Y-69350000D02*
X226464500Y-63950000D01*
X227714500Y-67150000D02*
X226714500Y-67150000D01*
X227714500Y-66150000D02*
X226714500Y-66150000D01*
X227964500Y-63950000D02*
X226464500Y-63950000D01*
X227214500Y-67050000D02*
X227714500Y-66150000D01*
X227964500Y-63950000D02*
X227964500Y-69350000D01*
X226714500Y-66150000D02*
X227214500Y-67050000D01*
X207464500Y-71725000D02*
X207464500Y-66325000D01*
X207714500Y-68525000D02*
X208214500Y-69425000D01*
X208214500Y-69425000D02*
X208714500Y-68525000D01*
X208714500Y-69525000D02*
X207714500Y-69525000D01*
X208714500Y-68525000D02*
X207714500Y-68525000D01*
X208964500Y-71725000D02*
X207464500Y-71725000D01*
X208964500Y-66325000D02*
X208964500Y-71725000D01*
X208964500Y-66325000D02*
X207464500Y-66325000D01*
X189957500Y-74105000D02*
X188457500Y-74105000D01*
X189207500Y-71805000D02*
X189707500Y-70905000D01*
X189707500Y-70905000D02*
X188707500Y-70905000D01*
X188457500Y-74105000D02*
X188457500Y-68705000D01*
X188707500Y-70905000D02*
X189207500Y-71805000D01*
X189957500Y-68705000D02*
X189957500Y-74105000D01*
X189957500Y-68705000D02*
X188457500Y-68705000D01*
X189707500Y-71905000D02*
X188707500Y-71905000D01*
X218464500Y-85935000D02*
X216964500Y-85935000D01*
X217214500Y-88135000D02*
X217714500Y-89035000D01*
X218464500Y-85935000D02*
X218464500Y-91335000D01*
X218214500Y-89135000D02*
X217214500Y-89135000D01*
X217714500Y-89035000D02*
X218214500Y-88135000D01*
X218214500Y-88135000D02*
X217214500Y-88135000D01*
X216964500Y-91335000D02*
X216964500Y-85935000D01*
X218464500Y-91335000D02*
X216964500Y-91335000D01*
X200164500Y-88150000D02*
X199164500Y-88150000D01*
X200414500Y-85950000D02*
X200414500Y-91350000D01*
X199164500Y-88150000D02*
X199664500Y-89050000D01*
X199664500Y-89050000D02*
X200164500Y-88150000D01*
X200414500Y-85950000D02*
X198914500Y-85950000D01*
X198914500Y-91350000D02*
X198914500Y-85950000D01*
X200414500Y-91350000D02*
X198914500Y-91350000D01*
X200164500Y-89150000D02*
X199164500Y-89150000D01*
X197314500Y-88150000D02*
X196314500Y-88150000D01*
X197314500Y-89150000D02*
X196314500Y-89150000D01*
X196814500Y-89050000D02*
X197314500Y-88150000D01*
X197564500Y-85950000D02*
X196064500Y-85950000D01*
X197564500Y-91350000D02*
X196064500Y-91350000D01*
X196314500Y-88150000D02*
X196814500Y-89050000D01*
X197564500Y-85950000D02*
X197564500Y-91350000D01*
X196064500Y-91350000D02*
X196064500Y-85950000D01*
X284714500Y-36275000D02*
X283714500Y-36275000D01*
X284964500Y-33075000D02*
X284964500Y-38475000D01*
X283464500Y-38475000D02*
X283464500Y-33075000D01*
X283714500Y-35275000D02*
X284214500Y-36175000D01*
X284214500Y-36175000D02*
X284714500Y-35275000D01*
X284964500Y-38475000D02*
X283464500Y-38475000D01*
X284714500Y-35275000D02*
X283714500Y-35275000D01*
X284964500Y-33075000D02*
X283464500Y-33075000D01*
X208714500Y-31525000D02*
X207714500Y-31525000D01*
X208964500Y-33725000D02*
X207464500Y-33725000D01*
X207464500Y-33725000D02*
X207464500Y-28325000D01*
X208214500Y-31425000D02*
X208714500Y-30525000D01*
X207714500Y-30525000D02*
X208214500Y-31425000D01*
X208714500Y-30525000D02*
X207714500Y-30525000D01*
X208964500Y-28325000D02*
X208964500Y-33725000D01*
X208964500Y-28325000D02*
X207464500Y-28325000D01*
G36*
X55998505Y-79658211D02*
G01*
X56168176Y-79664616D01*
X56300522Y-79683282D01*
X56406545Y-79717569D01*
X56497248Y-79770836D01*
X56583636Y-79846442D01*
X56665900Y-79928707D01*
X56665900Y-79670800D01*
X57097700Y-79670800D01*
X57097700Y-81931400D01*
X56665900Y-81931400D01*
X56665900Y-81262910D01*
X56665874Y-81206907D01*
X56664783Y-80982585D01*
X56661223Y-80801327D01*
X56654004Y-80656805D01*
X56641933Y-80542689D01*
X56623821Y-80452652D01*
X56598477Y-80380365D01*
X56564709Y-80319501D01*
X56521327Y-80263731D01*
X56467140Y-80206726D01*
X56387236Y-80136472D01*
X56275138Y-80071694D01*
X56145159Y-80036817D01*
X55982688Y-80026400D01*
X55928220Y-80027999D01*
X55759897Y-80057984D01*
X55624470Y-80125106D01*
X55523563Y-80228307D01*
X55458803Y-80366534D01*
X55450905Y-80397809D01*
X55440781Y-80460037D01*
X55433078Y-80543882D01*
X55427537Y-80655177D01*
X55423900Y-80799758D01*
X55421907Y-80983457D01*
X55421300Y-81212110D01*
X55421300Y-81931400D01*
X54989500Y-81931400D01*
X54989692Y-81264650D01*
X54990373Y-81115353D01*
X54992926Y-80931330D01*
X54997097Y-80762049D01*
X55002597Y-80616525D01*
X55009136Y-80503770D01*
X55016425Y-80432800D01*
X55027832Y-80370354D01*
X55091121Y-80161378D01*
X55188452Y-79988673D01*
X55321702Y-79849513D01*
X55492749Y-79741171D01*
X55546930Y-79715005D01*
X55610699Y-79688181D01*
X55671010Y-79671455D01*
X55741425Y-79662451D01*
X55835509Y-79658791D01*
X55966826Y-79658100D01*
X55998505Y-79658211D01*
G37*
D18*
X55998505Y-79658211D02*
X56168176Y-79664616D01*
X56300522Y-79683282D01*
X56406545Y-79717569D01*
X56497248Y-79770836D01*
X56583636Y-79846442D01*
X56665900Y-79928707D01*
X56665900Y-79670800D01*
X57097700Y-79670800D01*
X57097700Y-81931400D01*
X56665900Y-81931400D01*
X56665900Y-81262910D01*
X56665874Y-81206907D01*
X56664783Y-80982585D01*
X56661223Y-80801327D01*
X56654004Y-80656805D01*
X56641933Y-80542689D01*
X56623821Y-80452652D01*
X56598477Y-80380365D01*
X56564709Y-80319501D01*
X56521327Y-80263731D01*
X56467140Y-80206726D01*
X56387236Y-80136472D01*
X56275138Y-80071694D01*
X56145159Y-80036817D01*
X55982688Y-80026400D01*
X55928220Y-80027999D01*
X55759897Y-80057984D01*
X55624470Y-80125106D01*
X55523563Y-80228307D01*
X55458803Y-80366534D01*
X55450905Y-80397809D01*
X55440781Y-80460037D01*
X55433078Y-80543882D01*
X55427537Y-80655177D01*
X55423900Y-80799758D01*
X55421907Y-80983457D01*
X55421300Y-81212110D01*
X55421300Y-81931400D01*
X54989500Y-81931400D01*
X54989692Y-81264650D01*
X54990373Y-81115353D01*
X54992926Y-80931330D01*
X54997097Y-80762049D01*
X55002597Y-80616525D01*
X55009136Y-80503770D01*
X55016425Y-80432800D01*
X55027832Y-80370354D01*
X55091121Y-80161378D01*
X55188452Y-79988673D01*
X55321702Y-79849513D01*
X55492749Y-79741171D01*
X55546930Y-79715005D01*
X55610699Y-79688181D01*
X55671010Y-79671455D01*
X55741425Y-79662451D01*
X55835509Y-79658791D01*
X55966826Y-79658100D01*
X55998505Y-79658211D01*
G36*
X62853745Y-79651892D02*
G01*
X63037717Y-79675914D01*
X63193700Y-79719802D01*
X63196931Y-79721085D01*
X63401124Y-79828316D01*
X63580238Y-79974026D01*
X63726503Y-80150543D01*
X63832149Y-80350197D01*
X63851770Y-80403494D01*
X63871202Y-80475236D01*
X63882879Y-80556188D01*
X63888581Y-80660194D01*
X63890086Y-80801100D01*
X63885707Y-80970430D01*
X63868309Y-81122138D01*
X63833730Y-81252887D01*
X63777840Y-81377841D01*
X63696511Y-81512165D01*
X63629617Y-81597289D01*
X63490240Y-81722860D01*
X63320549Y-81830877D01*
X63132913Y-81913943D01*
X62939700Y-81964664D01*
X62744182Y-81980194D01*
X62510440Y-81957913D01*
X62283593Y-81894811D01*
X62074736Y-81794131D01*
X61894962Y-81659119D01*
X61856071Y-81618876D01*
X61781631Y-81524041D01*
X61710622Y-81414252D01*
X61650576Y-81302781D01*
X61609025Y-81202902D01*
X61593500Y-81127887D01*
X61595003Y-81102594D01*
X61606505Y-81082992D01*
X61638216Y-81072620D01*
X61700332Y-81068561D01*
X61803050Y-81067895D01*
X62012600Y-81067990D01*
X62059233Y-81181389D01*
X62080816Y-81228106D01*
X62179026Y-81367622D01*
X62310210Y-81477291D01*
X62465928Y-81553785D01*
X62637741Y-81593773D01*
X62817211Y-81593926D01*
X62995898Y-81550915D01*
X63143221Y-81479303D01*
X63278096Y-81367138D01*
X63383825Y-81216531D01*
X63406887Y-81168322D01*
X63452741Y-81014327D01*
X63473427Y-80840402D01*
X63467644Y-80664924D01*
X63434093Y-80506267D01*
X63427895Y-80488547D01*
X63346047Y-80335526D01*
X63225984Y-80206089D01*
X63076435Y-80106221D01*
X62906131Y-80041910D01*
X62723801Y-80019142D01*
X62681915Y-80020461D01*
X62517136Y-80049854D01*
X62361537Y-80113012D01*
X62225362Y-80203503D01*
X62118857Y-80314894D01*
X62052267Y-80440754D01*
X62021361Y-80534399D01*
X61807431Y-80534400D01*
X61760471Y-80534343D01*
X61665888Y-80531149D01*
X61613202Y-80517261D01*
X61595917Y-80484761D01*
X61607536Y-80425731D01*
X61641563Y-80332254D01*
X61676218Y-80252188D01*
X61793778Y-80066988D01*
X61950707Y-79909036D01*
X62142150Y-79782639D01*
X62363252Y-79692102D01*
X62477951Y-79665988D01*
X62660813Y-79648372D01*
X62853745Y-79651892D01*
G37*
X62853745Y-79651892D02*
X63037717Y-79675914D01*
X63193700Y-79719802D01*
X63196931Y-79721085D01*
X63401124Y-79828316D01*
X63580238Y-79974026D01*
X63726503Y-80150543D01*
X63832149Y-80350197D01*
X63851770Y-80403494D01*
X63871202Y-80475236D01*
X63882879Y-80556188D01*
X63888581Y-80660194D01*
X63890086Y-80801100D01*
X63885707Y-80970430D01*
X63868309Y-81122138D01*
X63833730Y-81252887D01*
X63777840Y-81377841D01*
X63696511Y-81512165D01*
X63629617Y-81597289D01*
X63490240Y-81722860D01*
X63320549Y-81830877D01*
X63132913Y-81913943D01*
X62939700Y-81964664D01*
X62744182Y-81980194D01*
X62510440Y-81957913D01*
X62283593Y-81894811D01*
X62074736Y-81794131D01*
X61894962Y-81659119D01*
X61856071Y-81618876D01*
X61781631Y-81524041D01*
X61710622Y-81414252D01*
X61650576Y-81302781D01*
X61609025Y-81202902D01*
X61593500Y-81127887D01*
X61595003Y-81102594D01*
X61606505Y-81082992D01*
X61638216Y-81072620D01*
X61700332Y-81068561D01*
X61803050Y-81067895D01*
X62012600Y-81067990D01*
X62059233Y-81181389D01*
X62080816Y-81228106D01*
X62179026Y-81367622D01*
X62310210Y-81477291D01*
X62465928Y-81553785D01*
X62637741Y-81593773D01*
X62817211Y-81593926D01*
X62995898Y-81550915D01*
X63143221Y-81479303D01*
X63278096Y-81367138D01*
X63383825Y-81216531D01*
X63406887Y-81168322D01*
X63452741Y-81014327D01*
X63473427Y-80840402D01*
X63467644Y-80664924D01*
X63434093Y-80506267D01*
X63427895Y-80488547D01*
X63346047Y-80335526D01*
X63225984Y-80206089D01*
X63076435Y-80106221D01*
X62906131Y-80041910D01*
X62723801Y-80019142D01*
X62681915Y-80020461D01*
X62517136Y-80049854D01*
X62361537Y-80113012D01*
X62225362Y-80203503D01*
X62118857Y-80314894D01*
X62052267Y-80440754D01*
X62021361Y-80534399D01*
X61807431Y-80534400D01*
X61760471Y-80534343D01*
X61665888Y-80531149D01*
X61613202Y-80517261D01*
X61595917Y-80484761D01*
X61607536Y-80425731D01*
X61641563Y-80332254D01*
X61676218Y-80252188D01*
X61793778Y-80066988D01*
X61950707Y-79909036D01*
X62142150Y-79782639D01*
X62363252Y-79692102D01*
X62477951Y-79665988D01*
X62660813Y-79648372D01*
X62853745Y-79651892D01*
G36*
X57733958Y-79639536D02*
G01*
X57907202Y-79681267D01*
X58059054Y-79752357D01*
X58177231Y-79848946D01*
X58228000Y-79905358D01*
X58253400Y-79683500D01*
X58462950Y-79676122D01*
X58672500Y-79668745D01*
X58672500Y-81931400D01*
X58240700Y-81931400D01*
X58240700Y-80538838D01*
X58157611Y-80377869D01*
X58108734Y-80296179D01*
X57987119Y-80161056D01*
X57838548Y-80065922D01*
X57669149Y-80014139D01*
X57485050Y-80009068D01*
X57351700Y-80022729D01*
X57351700Y-79651961D01*
X57497763Y-79635436D01*
X57551610Y-79631025D01*
X57733958Y-79639536D01*
G37*
X57733958Y-79639536D02*
X57907202Y-79681267D01*
X58059054Y-79752357D01*
X58177231Y-79848946D01*
X58228000Y-79905358D01*
X58253400Y-79683500D01*
X58462950Y-79676122D01*
X58672500Y-79668745D01*
X58672500Y-81931400D01*
X58240700Y-81931400D01*
X58240700Y-80538838D01*
X58157611Y-80377869D01*
X58108734Y-80296179D01*
X57987119Y-80161056D01*
X57838548Y-80065922D01*
X57669149Y-80014139D01*
X57485050Y-80009068D01*
X57351700Y-80022729D01*
X57351700Y-79651961D01*
X57497763Y-79635436D01*
X57551610Y-79631025D01*
X57733958Y-79639536D01*
G36*
X61378849Y-81103876D02*
G01*
X61344663Y-81228102D01*
X61306318Y-81330895D01*
X61255444Y-81425986D01*
X61124845Y-81595635D01*
X60957879Y-81743093D01*
X60763147Y-81861401D01*
X60549247Y-81943599D01*
X60516426Y-81951729D01*
X60370940Y-81971650D01*
X60201219Y-81976287D01*
X60025665Y-81966467D01*
X59862679Y-81943019D01*
X59730660Y-81906770D01*
X59655759Y-81875421D01*
X59447321Y-81756769D01*
X59270725Y-81606574D01*
X59131481Y-81430172D01*
X59035095Y-81232900D01*
X59032144Y-81224275D01*
X59004957Y-81102551D01*
X58989975Y-80950313D01*
X58988028Y-80842298D01*
X59393007Y-80842298D01*
X59414990Y-81019401D01*
X59467980Y-81175466D01*
X59472413Y-81184341D01*
X59579590Y-81340677D01*
X59724056Y-81464347D01*
X59901336Y-81551468D01*
X60013896Y-81582243D01*
X60217311Y-81598463D01*
X60422302Y-81568118D01*
X60619042Y-81492020D01*
X60625826Y-81488365D01*
X60719822Y-81417702D01*
X60813805Y-81316333D01*
X60894206Y-81200941D01*
X60947459Y-81088207D01*
X60967591Y-81006866D01*
X60981926Y-80859224D01*
X60976567Y-80702526D01*
X60952581Y-80555807D01*
X60911035Y-80438101D01*
X60806055Y-80284360D01*
X60672066Y-80165270D01*
X60516876Y-80081522D01*
X60347851Y-80032949D01*
X60172358Y-80019386D01*
X59997764Y-80040666D01*
X59831436Y-80096623D01*
X59680739Y-80187092D01*
X59553042Y-80311906D01*
X59455711Y-80470900D01*
X59443379Y-80500421D01*
X59402361Y-80663017D01*
X59393007Y-80842298D01*
X58988028Y-80842298D01*
X58986970Y-80783580D01*
X58995715Y-80618371D01*
X59015982Y-80470705D01*
X59047544Y-80356600D01*
X59112092Y-80221816D01*
X59245675Y-80033222D01*
X59413825Y-79879865D01*
X59613475Y-79763807D01*
X59841560Y-79687111D01*
X60095014Y-79651840D01*
X60271095Y-79649147D01*
X60456970Y-79667281D01*
X60628295Y-79712053D01*
X60802581Y-79786803D01*
X60846640Y-79810069D01*
X61035313Y-79942687D01*
X61188643Y-80108365D01*
X61304150Y-80302052D01*
X61379350Y-80518693D01*
X61411762Y-80753236D01*
X61406252Y-80859224D01*
X61398901Y-81000628D01*
X61378849Y-81103876D01*
G37*
X61378849Y-81103876D02*
X61344663Y-81228102D01*
X61306318Y-81330895D01*
X61255444Y-81425986D01*
X61124845Y-81595635D01*
X60957879Y-81743093D01*
X60763147Y-81861401D01*
X60549247Y-81943599D01*
X60516426Y-81951729D01*
X60370940Y-81971650D01*
X60201219Y-81976287D01*
X60025665Y-81966467D01*
X59862679Y-81943019D01*
X59730660Y-81906770D01*
X59655759Y-81875421D01*
X59447321Y-81756769D01*
X59270725Y-81606574D01*
X59131481Y-81430172D01*
X59035095Y-81232900D01*
X59032144Y-81224275D01*
X59004957Y-81102551D01*
X58989975Y-80950313D01*
X58988028Y-80842298D01*
X59393007Y-80842298D01*
X59414990Y-81019401D01*
X59467980Y-81175466D01*
X59472413Y-81184341D01*
X59579590Y-81340677D01*
X59724056Y-81464347D01*
X59901336Y-81551468D01*
X60013896Y-81582243D01*
X60217311Y-81598463D01*
X60422302Y-81568118D01*
X60619042Y-81492020D01*
X60625826Y-81488365D01*
X60719822Y-81417702D01*
X60813805Y-81316333D01*
X60894206Y-81200941D01*
X60947459Y-81088207D01*
X60967591Y-81006866D01*
X60981926Y-80859224D01*
X60976567Y-80702526D01*
X60952581Y-80555807D01*
X60911035Y-80438101D01*
X60806055Y-80284360D01*
X60672066Y-80165270D01*
X60516876Y-80081522D01*
X60347851Y-80032949D01*
X60172358Y-80019386D01*
X59997764Y-80040666D01*
X59831436Y-80096623D01*
X59680739Y-80187092D01*
X59553042Y-80311906D01*
X59455711Y-80470900D01*
X59443379Y-80500421D01*
X59402361Y-80663017D01*
X59393007Y-80842298D01*
X58988028Y-80842298D01*
X58986970Y-80783580D01*
X58995715Y-80618371D01*
X59015982Y-80470705D01*
X59047544Y-80356600D01*
X59112092Y-80221816D01*
X59245675Y-80033222D01*
X59413825Y-79879865D01*
X59613475Y-79763807D01*
X59841560Y-79687111D01*
X60095014Y-79651840D01*
X60271095Y-79649147D01*
X60456970Y-79667281D01*
X60628295Y-79712053D01*
X60802581Y-79786803D01*
X60846640Y-79810069D01*
X61035313Y-79942687D01*
X61188643Y-80108365D01*
X61304150Y-80302052D01*
X61379350Y-80518693D01*
X61411762Y-80753236D01*
X61406252Y-80859224D01*
X61398901Y-81000628D01*
X61378849Y-81103876D01*
G36*
X54737692Y-80848242D02*
G01*
X54707156Y-81098299D01*
X54687999Y-81175249D01*
X54601626Y-81387590D01*
X54474175Y-81575554D01*
X54310575Y-81734023D01*
X54115755Y-81857879D01*
X53894643Y-81942004D01*
X53683327Y-81978535D01*
X53442404Y-81975509D01*
X53205698Y-81928237D01*
X52983010Y-81838773D01*
X52784143Y-81709173D01*
X52753956Y-81682746D01*
X52671226Y-81594606D01*
X52591501Y-81491086D01*
X52526583Y-81388398D01*
X52488270Y-81302750D01*
X52482581Y-81279182D01*
X52487590Y-81260133D01*
X52514967Y-81250122D01*
X52574189Y-81246246D01*
X52674732Y-81245600D01*
X52877987Y-81245600D01*
X53013807Y-81381419D01*
X53128505Y-81480614D01*
X53266197Y-81556329D01*
X53419871Y-81593127D01*
X53602128Y-81595596D01*
X53615096Y-81594683D01*
X53775758Y-81569647D01*
X53911612Y-81518239D01*
X54000789Y-81464256D01*
X54121357Y-81360298D01*
X54217345Y-81239172D01*
X54280783Y-81111649D01*
X54303700Y-80988498D01*
X54303700Y-80915400D01*
X52398700Y-80915400D01*
X52398700Y-80768336D01*
X52414557Y-80572678D01*
X52428648Y-80520688D01*
X52855900Y-80520688D01*
X52855903Y-80521014D01*
X52861212Y-80532444D01*
X52880241Y-80541420D01*
X52918288Y-80548229D01*
X52980649Y-80553158D01*
X53072621Y-80556494D01*
X53199501Y-80558521D01*
X53366586Y-80559528D01*
X53579172Y-80559800D01*
X54302443Y-80559800D01*
X54278235Y-80496127D01*
X54197851Y-80336797D01*
X54078974Y-80195486D01*
X53932440Y-80093844D01*
X53840702Y-80058039D01*
X53681572Y-80026960D01*
X53510767Y-80022014D01*
X53346653Y-80043277D01*
X53207597Y-80090826D01*
X53204539Y-80092383D01*
X53104752Y-80158195D01*
X53010348Y-80245722D01*
X52930975Y-80343173D01*
X52876277Y-80438758D01*
X52855900Y-80520688D01*
X52428648Y-80520688D01*
X52474596Y-80351162D01*
X52575441Y-80152524D01*
X52712921Y-79980847D01*
X52882867Y-79840213D01*
X53081106Y-79734705D01*
X53303470Y-79668406D01*
X53545787Y-79645400D01*
X53765074Y-79659901D01*
X53962397Y-79706746D01*
X54157001Y-79790689D01*
X54269892Y-79858672D01*
X54438921Y-80004563D01*
X54572394Y-80181643D01*
X54668133Y-80384735D01*
X54711778Y-80559800D01*
X54723959Y-80608661D01*
X54737692Y-80848242D01*
G37*
X54737692Y-80848242D02*
X54707156Y-81098299D01*
X54687999Y-81175249D01*
X54601626Y-81387590D01*
X54474175Y-81575554D01*
X54310575Y-81734023D01*
X54115755Y-81857879D01*
X53894643Y-81942004D01*
X53683327Y-81978535D01*
X53442404Y-81975509D01*
X53205698Y-81928237D01*
X52983010Y-81838773D01*
X52784143Y-81709173D01*
X52753956Y-81682746D01*
X52671226Y-81594606D01*
X52591501Y-81491086D01*
X52526583Y-81388398D01*
X52488270Y-81302750D01*
X52482581Y-81279182D01*
X52487590Y-81260133D01*
X52514967Y-81250122D01*
X52574189Y-81246246D01*
X52674732Y-81245600D01*
X52877987Y-81245600D01*
X53013807Y-81381419D01*
X53128505Y-81480614D01*
X53266197Y-81556329D01*
X53419871Y-81593127D01*
X53602128Y-81595596D01*
X53615096Y-81594683D01*
X53775758Y-81569647D01*
X53911612Y-81518239D01*
X54000789Y-81464256D01*
X54121357Y-81360298D01*
X54217345Y-81239172D01*
X54280783Y-81111649D01*
X54303700Y-80988498D01*
X54303700Y-80915400D01*
X52398700Y-80915400D01*
X52398700Y-80768336D01*
X52414557Y-80572678D01*
X52428648Y-80520688D01*
X52855900Y-80520688D01*
X52855903Y-80521014D01*
X52861212Y-80532444D01*
X52880241Y-80541420D01*
X52918288Y-80548229D01*
X52980649Y-80553158D01*
X53072621Y-80556494D01*
X53199501Y-80558521D01*
X53366586Y-80559528D01*
X53579172Y-80559800D01*
X54302443Y-80559800D01*
X54278235Y-80496127D01*
X54197851Y-80336797D01*
X54078974Y-80195486D01*
X53932440Y-80093844D01*
X53840702Y-80058039D01*
X53681572Y-80026960D01*
X53510767Y-80022014D01*
X53346653Y-80043277D01*
X53207597Y-80090826D01*
X53204539Y-80092383D01*
X53104752Y-80158195D01*
X53010348Y-80245722D01*
X52930975Y-80343173D01*
X52876277Y-80438758D01*
X52855900Y-80520688D01*
X52428648Y-80520688D01*
X52474596Y-80351162D01*
X52575441Y-80152524D01*
X52712921Y-79980847D01*
X52882867Y-79840213D01*
X53081106Y-79734705D01*
X53303470Y-79668406D01*
X53545787Y-79645400D01*
X53765074Y-79659901D01*
X53962397Y-79706746D01*
X54157001Y-79790689D01*
X54269892Y-79858672D01*
X54438921Y-80004563D01*
X54572394Y-80181643D01*
X54668133Y-80384735D01*
X54711778Y-80559800D01*
X54723959Y-80608661D01*
X54737692Y-80848242D01*
G36*
X236528505Y-79808211D02*
G01*
X236698176Y-79814616D01*
X236830522Y-79833282D01*
X236936545Y-79867569D01*
X237027248Y-79920836D01*
X237113636Y-79996442D01*
X237195900Y-80078707D01*
X237195900Y-79820800D01*
X237627700Y-79820800D01*
X237627700Y-82081400D01*
X237195900Y-82081400D01*
X237195900Y-81412910D01*
X237195874Y-81356907D01*
X237194783Y-81132585D01*
X237191223Y-80951327D01*
X237184004Y-80806805D01*
X237171933Y-80692689D01*
X237153821Y-80602652D01*
X237128477Y-80530365D01*
X237094709Y-80469501D01*
X237051327Y-80413731D01*
X236997140Y-80356726D01*
X236917236Y-80286472D01*
X236805138Y-80221694D01*
X236675159Y-80186817D01*
X236512688Y-80176400D01*
X236458220Y-80177999D01*
X236289897Y-80207984D01*
X236154470Y-80275106D01*
X236053563Y-80378307D01*
X235988803Y-80516534D01*
X235980905Y-80547809D01*
X235970781Y-80610037D01*
X235963078Y-80693882D01*
X235957537Y-80805177D01*
X235953900Y-80949758D01*
X235951907Y-81133457D01*
X235951300Y-81362110D01*
X235951300Y-82081400D01*
X235519500Y-82081400D01*
X235519692Y-81414650D01*
X235520373Y-81265353D01*
X235522926Y-81081330D01*
X235527097Y-80912049D01*
X235532597Y-80766525D01*
X235539136Y-80653770D01*
X235546425Y-80582800D01*
X235557832Y-80520354D01*
X235621121Y-80311378D01*
X235718452Y-80138673D01*
X235851702Y-79999513D01*
X236022749Y-79891171D01*
X236076930Y-79865005D01*
X236140699Y-79838181D01*
X236201010Y-79821455D01*
X236271425Y-79812451D01*
X236365509Y-79808791D01*
X236496826Y-79808100D01*
X236528505Y-79808211D01*
G37*
X236528505Y-79808211D02*
X236698176Y-79814616D01*
X236830522Y-79833282D01*
X236936545Y-79867569D01*
X237027248Y-79920836D01*
X237113636Y-79996442D01*
X237195900Y-80078707D01*
X237195900Y-79820800D01*
X237627700Y-79820800D01*
X237627700Y-82081400D01*
X237195900Y-82081400D01*
X237195900Y-81412910D01*
X237195874Y-81356907D01*
X237194783Y-81132585D01*
X237191223Y-80951327D01*
X237184004Y-80806805D01*
X237171933Y-80692689D01*
X237153821Y-80602652D01*
X237128477Y-80530365D01*
X237094709Y-80469501D01*
X237051327Y-80413731D01*
X236997140Y-80356726D01*
X236917236Y-80286472D01*
X236805138Y-80221694D01*
X236675159Y-80186817D01*
X236512688Y-80176400D01*
X236458220Y-80177999D01*
X236289897Y-80207984D01*
X236154470Y-80275106D01*
X236053563Y-80378307D01*
X235988803Y-80516534D01*
X235980905Y-80547809D01*
X235970781Y-80610037D01*
X235963078Y-80693882D01*
X235957537Y-80805177D01*
X235953900Y-80949758D01*
X235951907Y-81133457D01*
X235951300Y-81362110D01*
X235951300Y-82081400D01*
X235519500Y-82081400D01*
X235519692Y-81414650D01*
X235520373Y-81265353D01*
X235522926Y-81081330D01*
X235527097Y-80912049D01*
X235532597Y-80766525D01*
X235539136Y-80653770D01*
X235546425Y-80582800D01*
X235557832Y-80520354D01*
X235621121Y-80311378D01*
X235718452Y-80138673D01*
X235851702Y-79999513D01*
X236022749Y-79891171D01*
X236076930Y-79865005D01*
X236140699Y-79838181D01*
X236201010Y-79821455D01*
X236271425Y-79812451D01*
X236365509Y-79808791D01*
X236496826Y-79808100D01*
X236528505Y-79808211D01*
G36*
X238263958Y-79789536D02*
G01*
X238437202Y-79831267D01*
X238589054Y-79902357D01*
X238707231Y-79998946D01*
X238758000Y-80055358D01*
X238783400Y-79833500D01*
X238992950Y-79826122D01*
X239202500Y-79818745D01*
X239202500Y-82081400D01*
X238770700Y-82081400D01*
X238770700Y-80688838D01*
X238687611Y-80527869D01*
X238638734Y-80446179D01*
X238517119Y-80311056D01*
X238368548Y-80215922D01*
X238199149Y-80164139D01*
X238015050Y-80159068D01*
X237881700Y-80172729D01*
X237881700Y-79801961D01*
X238027763Y-79785436D01*
X238081610Y-79781025D01*
X238263958Y-79789536D01*
G37*
X238263958Y-79789536D02*
X238437202Y-79831267D01*
X238589054Y-79902357D01*
X238707231Y-79998946D01*
X238758000Y-80055358D01*
X238783400Y-79833500D01*
X238992950Y-79826122D01*
X239202500Y-79818745D01*
X239202500Y-82081400D01*
X238770700Y-82081400D01*
X238770700Y-80688838D01*
X238687611Y-80527869D01*
X238638734Y-80446179D01*
X238517119Y-80311056D01*
X238368548Y-80215922D01*
X238199149Y-80164139D01*
X238015050Y-80159068D01*
X237881700Y-80172729D01*
X237881700Y-79801961D01*
X238027763Y-79785436D01*
X238081610Y-79781025D01*
X238263958Y-79789536D01*
G36*
X241908849Y-81253876D02*
G01*
X241874663Y-81378102D01*
X241836318Y-81480895D01*
X241785444Y-81575986D01*
X241654845Y-81745635D01*
X241487879Y-81893093D01*
X241293147Y-82011401D01*
X241079247Y-82093599D01*
X241046426Y-82101729D01*
X240900940Y-82121650D01*
X240731219Y-82126287D01*
X240555665Y-82116467D01*
X240392679Y-82093019D01*
X240260660Y-82056770D01*
X240185759Y-82025421D01*
X239977321Y-81906769D01*
X239800725Y-81756574D01*
X239661481Y-81580172D01*
X239565095Y-81382900D01*
X239562144Y-81374275D01*
X239534957Y-81252551D01*
X239519975Y-81100313D01*
X239518028Y-80992298D01*
X239923007Y-80992298D01*
X239944990Y-81169401D01*
X239997980Y-81325466D01*
X240002413Y-81334341D01*
X240109590Y-81490677D01*
X240254056Y-81614347D01*
X240431336Y-81701468D01*
X240543896Y-81732243D01*
X240747311Y-81748463D01*
X240952302Y-81718118D01*
X241149042Y-81642020D01*
X241155826Y-81638365D01*
X241249822Y-81567702D01*
X241343805Y-81466333D01*
X241424206Y-81350941D01*
X241477459Y-81238207D01*
X241497591Y-81156866D01*
X241511926Y-81009224D01*
X241506567Y-80852526D01*
X241482581Y-80705807D01*
X241441035Y-80588101D01*
X241336055Y-80434360D01*
X241202066Y-80315270D01*
X241046876Y-80231522D01*
X240877851Y-80182949D01*
X240702358Y-80169386D01*
X240527764Y-80190666D01*
X240361436Y-80246623D01*
X240210739Y-80337092D01*
X240083042Y-80461906D01*
X239985711Y-80620900D01*
X239973379Y-80650421D01*
X239932361Y-80813017D01*
X239923007Y-80992298D01*
X239518028Y-80992298D01*
X239516970Y-80933580D01*
X239525715Y-80768371D01*
X239545982Y-80620705D01*
X239577544Y-80506600D01*
X239642092Y-80371816D01*
X239775675Y-80183222D01*
X239943825Y-80029865D01*
X240143475Y-79913807D01*
X240371560Y-79837111D01*
X240625014Y-79801840D01*
X240801095Y-79799147D01*
X240986970Y-79817281D01*
X241158295Y-79862053D01*
X241332581Y-79936803D01*
X241376640Y-79960069D01*
X241565313Y-80092687D01*
X241718643Y-80258365D01*
X241834150Y-80452052D01*
X241909350Y-80668693D01*
X241941762Y-80903236D01*
X241936252Y-81009224D01*
X241928901Y-81150628D01*
X241908849Y-81253876D01*
G37*
X241908849Y-81253876D02*
X241874663Y-81378102D01*
X241836318Y-81480895D01*
X241785444Y-81575986D01*
X241654845Y-81745635D01*
X241487879Y-81893093D01*
X241293147Y-82011401D01*
X241079247Y-82093599D01*
X241046426Y-82101729D01*
X240900940Y-82121650D01*
X240731219Y-82126287D01*
X240555665Y-82116467D01*
X240392679Y-82093019D01*
X240260660Y-82056770D01*
X240185759Y-82025421D01*
X239977321Y-81906769D01*
X239800725Y-81756574D01*
X239661481Y-81580172D01*
X239565095Y-81382900D01*
X239562144Y-81374275D01*
X239534957Y-81252551D01*
X239519975Y-81100313D01*
X239518028Y-80992298D01*
X239923007Y-80992298D01*
X239944990Y-81169401D01*
X239997980Y-81325466D01*
X240002413Y-81334341D01*
X240109590Y-81490677D01*
X240254056Y-81614347D01*
X240431336Y-81701468D01*
X240543896Y-81732243D01*
X240747311Y-81748463D01*
X240952302Y-81718118D01*
X241149042Y-81642020D01*
X241155826Y-81638365D01*
X241249822Y-81567702D01*
X241343805Y-81466333D01*
X241424206Y-81350941D01*
X241477459Y-81238207D01*
X241497591Y-81156866D01*
X241511926Y-81009224D01*
X241506567Y-80852526D01*
X241482581Y-80705807D01*
X241441035Y-80588101D01*
X241336055Y-80434360D01*
X241202066Y-80315270D01*
X241046876Y-80231522D01*
X240877851Y-80182949D01*
X240702358Y-80169386D01*
X240527764Y-80190666D01*
X240361436Y-80246623D01*
X240210739Y-80337092D01*
X240083042Y-80461906D01*
X239985711Y-80620900D01*
X239973379Y-80650421D01*
X239932361Y-80813017D01*
X239923007Y-80992298D01*
X239518028Y-80992298D01*
X239516970Y-80933580D01*
X239525715Y-80768371D01*
X239545982Y-80620705D01*
X239577544Y-80506600D01*
X239642092Y-80371816D01*
X239775675Y-80183222D01*
X239943825Y-80029865D01*
X240143475Y-79913807D01*
X240371560Y-79837111D01*
X240625014Y-79801840D01*
X240801095Y-79799147D01*
X240986970Y-79817281D01*
X241158295Y-79862053D01*
X241332581Y-79936803D01*
X241376640Y-79960069D01*
X241565313Y-80092687D01*
X241718643Y-80258365D01*
X241834150Y-80452052D01*
X241909350Y-80668693D01*
X241941762Y-80903236D01*
X241936252Y-81009224D01*
X241928901Y-81150628D01*
X241908849Y-81253876D01*
G36*
X235267692Y-80998242D02*
G01*
X235237156Y-81248299D01*
X235217999Y-81325249D01*
X235131626Y-81537590D01*
X235004175Y-81725554D01*
X234840575Y-81884023D01*
X234645755Y-82007879D01*
X234424643Y-82092004D01*
X234213327Y-82128535D01*
X233972404Y-82125509D01*
X233735698Y-82078237D01*
X233513010Y-81988773D01*
X233314143Y-81859173D01*
X233283956Y-81832746D01*
X233201226Y-81744606D01*
X233121501Y-81641086D01*
X233056583Y-81538398D01*
X233018270Y-81452750D01*
X233012581Y-81429182D01*
X233017590Y-81410133D01*
X233044967Y-81400122D01*
X233104189Y-81396246D01*
X233204732Y-81395600D01*
X233407987Y-81395600D01*
X233543807Y-81531419D01*
X233658505Y-81630614D01*
X233796197Y-81706329D01*
X233949871Y-81743127D01*
X234132128Y-81745596D01*
X234145096Y-81744683D01*
X234305758Y-81719647D01*
X234441612Y-81668239D01*
X234530789Y-81614256D01*
X234651357Y-81510298D01*
X234747345Y-81389172D01*
X234810783Y-81261649D01*
X234833700Y-81138498D01*
X234833700Y-81065400D01*
X232928700Y-81065400D01*
X232928700Y-80918336D01*
X232944557Y-80722678D01*
X232958648Y-80670688D01*
X233385900Y-80670688D01*
X233385903Y-80671014D01*
X233391212Y-80682444D01*
X233410241Y-80691420D01*
X233448288Y-80698229D01*
X233510649Y-80703158D01*
X233602621Y-80706494D01*
X233729501Y-80708521D01*
X233896586Y-80709528D01*
X234109172Y-80709800D01*
X234832443Y-80709800D01*
X234808235Y-80646127D01*
X234727851Y-80486797D01*
X234608974Y-80345486D01*
X234462440Y-80243844D01*
X234370702Y-80208039D01*
X234211572Y-80176960D01*
X234040767Y-80172014D01*
X233876653Y-80193277D01*
X233737597Y-80240826D01*
X233734539Y-80242383D01*
X233634752Y-80308195D01*
X233540348Y-80395722D01*
X233460975Y-80493173D01*
X233406277Y-80588758D01*
X233385900Y-80670688D01*
X232958648Y-80670688D01*
X233004596Y-80501162D01*
X233105441Y-80302524D01*
X233242921Y-80130847D01*
X233412867Y-79990213D01*
X233611106Y-79884705D01*
X233833470Y-79818406D01*
X234075787Y-79795400D01*
X234295074Y-79809901D01*
X234492397Y-79856746D01*
X234687001Y-79940689D01*
X234799892Y-80008672D01*
X234968921Y-80154563D01*
X235102394Y-80331643D01*
X235198133Y-80534735D01*
X235241778Y-80709800D01*
X235253959Y-80758661D01*
X235267692Y-80998242D01*
G37*
X235267692Y-80998242D02*
X235237156Y-81248299D01*
X235217999Y-81325249D01*
X235131626Y-81537590D01*
X235004175Y-81725554D01*
X234840575Y-81884023D01*
X234645755Y-82007879D01*
X234424643Y-82092004D01*
X234213327Y-82128535D01*
X233972404Y-82125509D01*
X233735698Y-82078237D01*
X233513010Y-81988773D01*
X233314143Y-81859173D01*
X233283956Y-81832746D01*
X233201226Y-81744606D01*
X233121501Y-81641086D01*
X233056583Y-81538398D01*
X233018270Y-81452750D01*
X233012581Y-81429182D01*
X233017590Y-81410133D01*
X233044967Y-81400122D01*
X233104189Y-81396246D01*
X233204732Y-81395600D01*
X233407987Y-81395600D01*
X233543807Y-81531419D01*
X233658505Y-81630614D01*
X233796197Y-81706329D01*
X233949871Y-81743127D01*
X234132128Y-81745596D01*
X234145096Y-81744683D01*
X234305758Y-81719647D01*
X234441612Y-81668239D01*
X234530789Y-81614256D01*
X234651357Y-81510298D01*
X234747345Y-81389172D01*
X234810783Y-81261649D01*
X234833700Y-81138498D01*
X234833700Y-81065400D01*
X232928700Y-81065400D01*
X232928700Y-80918336D01*
X232944557Y-80722678D01*
X232958648Y-80670688D01*
X233385900Y-80670688D01*
X233385903Y-80671014D01*
X233391212Y-80682444D01*
X233410241Y-80691420D01*
X233448288Y-80698229D01*
X233510649Y-80703158D01*
X233602621Y-80706494D01*
X233729501Y-80708521D01*
X233896586Y-80709528D01*
X234109172Y-80709800D01*
X234832443Y-80709800D01*
X234808235Y-80646127D01*
X234727851Y-80486797D01*
X234608974Y-80345486D01*
X234462440Y-80243844D01*
X234370702Y-80208039D01*
X234211572Y-80176960D01*
X234040767Y-80172014D01*
X233876653Y-80193277D01*
X233737597Y-80240826D01*
X233734539Y-80242383D01*
X233634752Y-80308195D01*
X233540348Y-80395722D01*
X233460975Y-80493173D01*
X233406277Y-80588758D01*
X233385900Y-80670688D01*
X232958648Y-80670688D01*
X233004596Y-80501162D01*
X233105441Y-80302524D01*
X233242921Y-80130847D01*
X233412867Y-79990213D01*
X233611106Y-79884705D01*
X233833470Y-79818406D01*
X234075787Y-79795400D01*
X234295074Y-79809901D01*
X234492397Y-79856746D01*
X234687001Y-79940689D01*
X234799892Y-80008672D01*
X234968921Y-80154563D01*
X235102394Y-80331643D01*
X235198133Y-80534735D01*
X235241778Y-80709800D01*
X235253959Y-80758661D01*
X235267692Y-80998242D01*
G36*
X243383745Y-79801892D02*
G01*
X243567717Y-79825914D01*
X243723700Y-79869802D01*
X243726931Y-79871085D01*
X243931124Y-79978316D01*
X244110238Y-80124026D01*
X244256503Y-80300543D01*
X244362149Y-80500197D01*
X244381770Y-80553494D01*
X244401202Y-80625236D01*
X244412879Y-80706188D01*
X244418581Y-80810194D01*
X244420086Y-80951100D01*
X244415707Y-81120430D01*
X244398309Y-81272138D01*
X244363730Y-81402887D01*
X244307840Y-81527841D01*
X244226511Y-81662165D01*
X244159617Y-81747289D01*
X244020240Y-81872860D01*
X243850549Y-81980877D01*
X243662913Y-82063943D01*
X243469700Y-82114664D01*
X243274182Y-82130194D01*
X243040440Y-82107913D01*
X242813593Y-82044811D01*
X242604736Y-81944131D01*
X242424962Y-81809119D01*
X242386071Y-81768876D01*
X242311631Y-81674041D01*
X242240622Y-81564252D01*
X242180576Y-81452781D01*
X242139025Y-81352902D01*
X242123500Y-81277887D01*
X242125003Y-81252594D01*
X242136505Y-81232992D01*
X242168216Y-81222620D01*
X242230332Y-81218561D01*
X242333050Y-81217895D01*
X242542600Y-81217990D01*
X242589233Y-81331389D01*
X242610816Y-81378106D01*
X242709026Y-81517622D01*
X242840210Y-81627291D01*
X242995928Y-81703785D01*
X243167741Y-81743773D01*
X243347211Y-81743926D01*
X243525898Y-81700915D01*
X243673221Y-81629303D01*
X243808096Y-81517138D01*
X243913825Y-81366531D01*
X243936887Y-81318322D01*
X243982741Y-81164327D01*
X244003427Y-80990402D01*
X243997644Y-80814924D01*
X243964093Y-80656267D01*
X243957895Y-80638547D01*
X243876047Y-80485526D01*
X243755984Y-80356089D01*
X243606435Y-80256221D01*
X243436131Y-80191910D01*
X243253801Y-80169142D01*
X243211915Y-80170461D01*
X243047136Y-80199854D01*
X242891537Y-80263012D01*
X242755362Y-80353503D01*
X242648857Y-80464894D01*
X242582267Y-80590754D01*
X242551361Y-80684399D01*
X242337431Y-80684400D01*
X242290471Y-80684343D01*
X242195888Y-80681149D01*
X242143202Y-80667261D01*
X242125917Y-80634761D01*
X242137536Y-80575731D01*
X242171563Y-80482254D01*
X242206218Y-80402188D01*
X242323778Y-80216988D01*
X242480707Y-80059036D01*
X242672150Y-79932639D01*
X242893252Y-79842102D01*
X243007951Y-79815988D01*
X243190813Y-79798372D01*
X243383745Y-79801892D01*
G37*
X243383745Y-79801892D02*
X243567717Y-79825914D01*
X243723700Y-79869802D01*
X243726931Y-79871085D01*
X243931124Y-79978316D01*
X244110238Y-80124026D01*
X244256503Y-80300543D01*
X244362149Y-80500197D01*
X244381770Y-80553494D01*
X244401202Y-80625236D01*
X244412879Y-80706188D01*
X244418581Y-80810194D01*
X244420086Y-80951100D01*
X244415707Y-81120430D01*
X244398309Y-81272138D01*
X244363730Y-81402887D01*
X244307840Y-81527841D01*
X244226511Y-81662165D01*
X244159617Y-81747289D01*
X244020240Y-81872860D01*
X243850549Y-81980877D01*
X243662913Y-82063943D01*
X243469700Y-82114664D01*
X243274182Y-82130194D01*
X243040440Y-82107913D01*
X242813593Y-82044811D01*
X242604736Y-81944131D01*
X242424962Y-81809119D01*
X242386071Y-81768876D01*
X242311631Y-81674041D01*
X242240622Y-81564252D01*
X242180576Y-81452781D01*
X242139025Y-81352902D01*
X242123500Y-81277887D01*
X242125003Y-81252594D01*
X242136505Y-81232992D01*
X242168216Y-81222620D01*
X242230332Y-81218561D01*
X242333050Y-81217895D01*
X242542600Y-81217990D01*
X242589233Y-81331389D01*
X242610816Y-81378106D01*
X242709026Y-81517622D01*
X242840210Y-81627291D01*
X242995928Y-81703785D01*
X243167741Y-81743773D01*
X243347211Y-81743926D01*
X243525898Y-81700915D01*
X243673221Y-81629303D01*
X243808096Y-81517138D01*
X243913825Y-81366531D01*
X243936887Y-81318322D01*
X243982741Y-81164327D01*
X244003427Y-80990402D01*
X243997644Y-80814924D01*
X243964093Y-80656267D01*
X243957895Y-80638547D01*
X243876047Y-80485526D01*
X243755984Y-80356089D01*
X243606435Y-80256221D01*
X243436131Y-80191910D01*
X243253801Y-80169142D01*
X243211915Y-80170461D01*
X243047136Y-80199854D01*
X242891537Y-80263012D01*
X242755362Y-80353503D01*
X242648857Y-80464894D01*
X242582267Y-80590754D01*
X242551361Y-80684399D01*
X242337431Y-80684400D01*
X242290471Y-80684343D01*
X242195888Y-80681149D01*
X242143202Y-80667261D01*
X242125917Y-80634761D01*
X242137536Y-80575731D01*
X242171563Y-80482254D01*
X242206218Y-80402188D01*
X242323778Y-80216988D01*
X242480707Y-80059036D01*
X242672150Y-79932639D01*
X242893252Y-79842102D01*
X243007951Y-79815988D01*
X243190813Y-79798372D01*
X243383745Y-79801892D01*
%LPC*%
D19*
X129782500Y-67030000D03*
D20*
X132322500Y-67030000D03*
X134862500Y-67030000D03*
X137402500Y-67030000D03*
X139942500Y-67030000D03*
D21*
X39107500Y-35780000D03*
D22*
X44187500Y-35780000D03*
D23*
X35297500Y-33240000D03*
D22*
X34027500Y-35780000D03*
D23*
X41647500Y-30700000D03*
D24*
X32022500Y-33240000D03*
X44949500Y-30700000D03*
D22*
X53027500Y-31030000D03*
X63187500Y-31030000D03*
D23*
X60647500Y-25950000D03*
X54297500Y-28490000D03*
D21*
X58107500Y-31030000D03*
D24*
X51022500Y-28490000D03*
X63949500Y-25950000D03*
D23*
X73297500Y-26115000D03*
X79647500Y-23575000D03*
D22*
X82187500Y-28655000D03*
D21*
X77107500Y-28655000D03*
D22*
X72027500Y-28655000D03*
D24*
X70022500Y-26115000D03*
X82949500Y-23575000D03*
D23*
X92297500Y-28490000D03*
D21*
X96107500Y-31030000D03*
D22*
X101187500Y-31030000D03*
X91027500Y-31030000D03*
D23*
X98647500Y-25950000D03*
D24*
X89022500Y-28490000D03*
X101949500Y-25950000D03*
D21*
X20107500Y-54780000D03*
D23*
X16297500Y-52240000D03*
X22647500Y-49700000D03*
D22*
X15027500Y-54780000D03*
X25187500Y-54780000D03*
D24*
X13022500Y-52240000D03*
X25949500Y-49700000D03*
D22*
X34027500Y-54780000D03*
D21*
X39107500Y-54780000D03*
D23*
X35297500Y-52240000D03*
D22*
X44187500Y-54780000D03*
D23*
X41647500Y-49700000D03*
D24*
X32022500Y-52240000D03*
X44949500Y-49700000D03*
D23*
X54297500Y-47490000D03*
X60647500Y-44950000D03*
D22*
X63187500Y-50030000D03*
D21*
X58107500Y-50030000D03*
D22*
X53027500Y-50030000D03*
D24*
X51022500Y-47490000D03*
X63949500Y-44950000D03*
D23*
X73297500Y-45115000D03*
D22*
X72027500Y-47655000D03*
D23*
X79647500Y-42575000D03*
D22*
X82187500Y-47655000D03*
D21*
X77107500Y-47655000D03*
D24*
X70022500Y-45115000D03*
X82949500Y-42575000D03*
D21*
X96107500Y-50030000D03*
D23*
X98647500Y-44950000D03*
D22*
X91027500Y-50030000D03*
D23*
X92297500Y-47490000D03*
D22*
X101187500Y-50030000D03*
D24*
X89022500Y-47490000D03*
X101949500Y-44950000D03*
D22*
X110027500Y-52405000D03*
X120187500Y-52405000D03*
D23*
X111297500Y-49865000D03*
D21*
X115107500Y-52405000D03*
D23*
X117647500Y-47325000D03*
D24*
X108022500Y-49865000D03*
X120949500Y-47325000D03*
D23*
X16297500Y-71240000D03*
D21*
X20107500Y-73780000D03*
D23*
X22647500Y-68700000D03*
D22*
X15027500Y-73780000D03*
X25187500Y-73780000D03*
D24*
X13022500Y-71240000D03*
X25949500Y-68700000D03*
D21*
X39107500Y-73780000D03*
D22*
X34027500Y-73780000D03*
D23*
X35297500Y-71240000D03*
X41647500Y-68700000D03*
D22*
X44187500Y-73780000D03*
D24*
X32022500Y-71240000D03*
X44949500Y-68700000D03*
D23*
X54297500Y-66490000D03*
D22*
X53027500Y-69030000D03*
X63187500Y-69030000D03*
D21*
X58107500Y-69030000D03*
D23*
X60647500Y-63950000D03*
D24*
X51022500Y-66490000D03*
X63949500Y-63950000D03*
D22*
X72027500Y-66655000D03*
X82187500Y-66655000D03*
D21*
X77107500Y-66655000D03*
D23*
X73297500Y-64115000D03*
X79647500Y-61575000D03*
D24*
X70022500Y-64115000D03*
X82949500Y-61575000D03*
D22*
X91027500Y-69030000D03*
D21*
X96107500Y-69030000D03*
D23*
X92297500Y-66490000D03*
X98647500Y-63950000D03*
D22*
X101187500Y-69030000D03*
D24*
X89022500Y-66490000D03*
X101949500Y-63950000D03*
D22*
X120187500Y-71405000D03*
D23*
X117647500Y-66325000D03*
X111297500Y-68865000D03*
D22*
X110027500Y-71405000D03*
D21*
X115107500Y-71405000D03*
D24*
X108022500Y-68865000D03*
X120949500Y-66325000D03*
D23*
X82797500Y-86115000D03*
D22*
X81527500Y-88655000D03*
X91687500Y-88655000D03*
D23*
X89147500Y-83575000D03*
D21*
X86607500Y-88655000D03*
D24*
X79522500Y-86115000D03*
X92449500Y-83575000D03*
D22*
X102700597Y-90090199D03*
D21*
X107607500Y-91405000D03*
D22*
X112514403Y-92719801D03*
D23*
X104584723Y-87965448D03*
X111375752Y-87155497D03*
D25*
X101421316Y-87117815D03*
X114565239Y-88010118D03*
D23*
X125752795Y-97184557D03*
D22*
X127317500Y-99554409D03*
D23*
X126728091Y-90415295D03*
D21*
X129857500Y-95155000D03*
D22*
X132397500Y-90755591D03*
D26*
X124115295Y-100020790D03*
X128379091Y-87555680D03*
D22*
X169404500Y-99549409D03*
D21*
X166864500Y-95150000D03*
D23*
X172533909Y-94809705D03*
X167159205Y-90580443D03*
D22*
X164324500Y-90750591D03*
D27*
X165521705Y-87744210D03*
X174184909Y-97669320D03*
D19*
X156932500Y-67030000D03*
D20*
X159472500Y-67030000D03*
X162012500Y-67030000D03*
X164552500Y-67030000D03*
X167092500Y-67030000D03*
D22*
X224694500Y-66650000D03*
D23*
X215804500Y-64110000D03*
D22*
X214534500Y-66650000D03*
D23*
X222154500Y-61570000D03*
D21*
X219614500Y-66650000D03*
D24*
X212529500Y-64110000D03*
X225456500Y-61570000D03*
D22*
X205694500Y-69025000D03*
X195534500Y-69025000D03*
D23*
X196804500Y-66485000D03*
D21*
X200614500Y-69025000D03*
D23*
X203154500Y-63945000D03*
D24*
X193529500Y-66485000D03*
X206456500Y-63945000D03*
D23*
X177804500Y-68860000D03*
D22*
X186694500Y-71400000D03*
D21*
X181614500Y-71400000D03*
D22*
X176534500Y-71400000D03*
D23*
X184154500Y-66320000D03*
D24*
X174529500Y-68860000D03*
X187456500Y-66320000D03*
D22*
X205034500Y-88650000D03*
D21*
X210114500Y-88650000D03*
D22*
X215194500Y-88650000D03*
D23*
X212654500Y-83570000D03*
X206304500Y-86110000D03*
D24*
X203029500Y-86110000D03*
X215956500Y-83570000D03*
D23*
X190253151Y-85835696D03*
D22*
X194021403Y-90085199D03*
X184207597Y-92714801D03*
D21*
X189114500Y-91400000D03*
D23*
X184776922Y-89932649D03*
D28*
X181613515Y-90780281D03*
X193442638Y-84981076D03*
D22*
X214534500Y-28650000D03*
D23*
X222154500Y-23570000D03*
X215804500Y-26110000D03*
D21*
X219614500Y-28650000D03*
D22*
X224694500Y-28650000D03*
D24*
X212529500Y-26110000D03*
X225456500Y-23570000D03*
D22*
X195534500Y-31025000D03*
D21*
X200614500Y-31025000D03*
D22*
X205694500Y-31025000D03*
D23*
X196804500Y-28485000D03*
X203154500Y-25945000D03*
D24*
X193529500Y-28485000D03*
X206456500Y-25945000D03*
D22*
X271534500Y-54775000D03*
X281694500Y-54775000D03*
D23*
X272804500Y-52235000D03*
D21*
X276614500Y-54775000D03*
D23*
X279154500Y-49695000D03*
D24*
X269529500Y-52235000D03*
X282456500Y-49695000D03*
D22*
X233534500Y-31025000D03*
D23*
X241154500Y-25945000D03*
D21*
X238614500Y-31025000D03*
D22*
X243694500Y-31025000D03*
D23*
X234804500Y-28485000D03*
D24*
X231529500Y-28485000D03*
X244456500Y-25945000D03*
D22*
X262694500Y-54775000D03*
D21*
X257614500Y-54775000D03*
D23*
X260154500Y-49695000D03*
D22*
X252534500Y-54775000D03*
D23*
X253804500Y-52235000D03*
D24*
X250529500Y-52235000D03*
X263456500Y-49695000D03*
D23*
X260154500Y-68695000D03*
X253804500Y-71235000D03*
D21*
X257614500Y-73775000D03*
D22*
X252534500Y-73775000D03*
X262694500Y-73775000D03*
D24*
X250529500Y-71235000D03*
X263456500Y-68695000D03*
D23*
X241154500Y-63945000D03*
D22*
X233534500Y-69025000D03*
X243694500Y-69025000D03*
D21*
X238614500Y-69025000D03*
D23*
X234804500Y-66485000D03*
D24*
X231529500Y-66485000D03*
X244456500Y-63945000D03*
D22*
X271534500Y-35775000D03*
D21*
X276614500Y-35775000D03*
D22*
X281694500Y-35775000D03*
D23*
X272804500Y-33235000D03*
X279154500Y-30695000D03*
D24*
X269529500Y-33235000D03*
X282456500Y-30695000D03*
D23*
X253804500Y-33235000D03*
D22*
X262694500Y-35775000D03*
X252534500Y-35775000D03*
D23*
X260154500Y-30695000D03*
D21*
X257614500Y-35775000D03*
D24*
X250529500Y-33235000D03*
X263456500Y-30695000D03*
D21*
X238614500Y-50025000D03*
D23*
X241154500Y-44945000D03*
D22*
X233534500Y-50025000D03*
X243694500Y-50025000D03*
D23*
X234804500Y-47485000D03*
D24*
X231529500Y-47485000D03*
X244456500Y-44945000D03*
D23*
X215804500Y-45110000D03*
D22*
X214534500Y-47650000D03*
X224694500Y-47650000D03*
D23*
X222154500Y-42570000D03*
D21*
X219614500Y-47650000D03*
D24*
X212529500Y-45110000D03*
X225456500Y-42570000D03*
D22*
X195534500Y-50025000D03*
D21*
X200614500Y-50025000D03*
D23*
X196804500Y-47485000D03*
X203154500Y-44945000D03*
D22*
X205694500Y-50025000D03*
D24*
X193529500Y-47485000D03*
X206456500Y-44945000D03*
D23*
X184154500Y-47320000D03*
D22*
X176534500Y-52400000D03*
D21*
X181614500Y-52400000D03*
D22*
X186694500Y-52400000D03*
D23*
X177804500Y-49860000D03*
D24*
X174529500Y-49860000D03*
X187456500Y-47320000D03*
D23*
X279154500Y-68695000D03*
X272804500Y-71235000D03*
D21*
X276614500Y-73775000D03*
D22*
X271534500Y-73775000D03*
X281694500Y-73775000D03*
D24*
X269529500Y-71235000D03*
X282456500Y-68695000D03*
D22*
X25187500Y-35780000D03*
D21*
X20107500Y-35780000D03*
D22*
X15027500Y-35780000D03*
D23*
X22647500Y-30700000D03*
X16297500Y-33240000D03*
D24*
X13022500Y-33240000D03*
X25949500Y-30700000D03*
D29*
X105575500Y-41765500D03*
X72764500Y-81520500D03*
X119330500Y-89135000D03*
D30*
X127869500Y-74254000D03*
X142301500Y-82775000D03*
D29*
X177389500Y-89145000D03*
X223955500Y-81530500D03*
X267099500Y-45265500D03*
X191144500Y-41775500D03*
D22*
X110027500Y-33405000D03*
D23*
X117647500Y-28325000D03*
X111297500Y-30865000D03*
D21*
X115107500Y-33405000D03*
D22*
X120187500Y-33405000D03*
D24*
X108022500Y-30865000D03*
X120949500Y-28325000D03*
D22*
X186687500Y-33405000D03*
D23*
X177797500Y-30865000D03*
D21*
X181607500Y-33405000D03*
D23*
X184147500Y-28325000D03*
D22*
X176527500Y-33405000D03*
D24*
X174522500Y-30865000D03*
X187449500Y-28325000D03*
D29*
X29607500Y-64280000D03*
D31*
X127203900Y-31942000D03*
X127203900Y-34482000D03*
X127203900Y-37022000D03*
X127203900Y-39562000D03*
X127203900Y-42102000D03*
X127203900Y-44642000D03*
X127203900Y-47182000D03*
X127203900Y-49722000D03*
X127203900Y-52262000D03*
X127203900Y-54802000D03*
X127203900Y-57342000D03*
X127203900Y-59882000D03*
X142423900Y-59882000D03*
X142423900Y-57342000D03*
X142423900Y-54802000D03*
X142423900Y-52262000D03*
X142423900Y-49722000D03*
X142423900Y-47182000D03*
X142423900Y-44642000D03*
X142423900Y-42102000D03*
X142423900Y-39562000D03*
X142423900Y-37022000D03*
X142423900Y-34482000D03*
X142423900Y-31942000D03*
X169598900Y-31912000D03*
X169598900Y-34452000D03*
X169598900Y-36992000D03*
X169598900Y-39532000D03*
X169598900Y-42072000D03*
X169598900Y-44612000D03*
X169598900Y-47152000D03*
X169598900Y-49692000D03*
X169598900Y-52232000D03*
X169598900Y-54772000D03*
X169598900Y-57312000D03*
X169598900Y-59852000D03*
X154378900Y-59852000D03*
X154378900Y-57312000D03*
X154378900Y-54772000D03*
X154378900Y-52232000D03*
X154378900Y-49692000D03*
X154378900Y-47152000D03*
X154378900Y-44612000D03*
X154378900Y-42072000D03*
X154378900Y-39532000D03*
X154378900Y-36992000D03*
X154378900Y-34452000D03*
X154378900Y-31912000D03*
D29*
X29607500Y-45280000D03*
D32*
X59424250Y-21869000D03*
X55861750Y-21869000D03*
X58236750Y-21869000D03*
X57643000Y-21869000D03*
X60611750Y-21869000D03*
X60018000Y-21869000D03*
X58830500Y-21869000D03*
X56455500Y-21869000D03*
X57049250Y-21869000D03*
X97988750Y-21873000D03*
X93832500Y-21873000D03*
X96801250Y-21873000D03*
X97395000Y-21873000D03*
X96207500Y-21873000D03*
X95020000Y-21873000D03*
X95613750Y-21873000D03*
X94426250Y-21873000D03*
X98582500Y-21873000D03*
X21350000Y-83176000D03*
X18975000Y-83176000D03*
X22537500Y-83176000D03*
X17787500Y-83176000D03*
X20756250Y-83176000D03*
X19568750Y-83176000D03*
X18381250Y-83176000D03*
X21943750Y-83176000D03*
X20162500Y-83176000D03*
X55748500Y-83178000D03*
X56342250Y-83178000D03*
X59904750Y-83178000D03*
X59311000Y-83178000D03*
X60498500Y-83178000D03*
X58123500Y-83178000D03*
X58717250Y-83178000D03*
X57529750Y-83178000D03*
X56936000Y-83178000D03*
D33*
X27734500Y-37551875D03*
X27734500Y-34001875D03*
X46734500Y-37555000D03*
X46734500Y-34005000D03*
X65707500Y-32555000D03*
X65707500Y-29005000D03*
X84707500Y-30430000D03*
X84707500Y-26880000D03*
X103707500Y-32805000D03*
X103707500Y-29255000D03*
X122707500Y-35180000D03*
X122707500Y-31630000D03*
X27734500Y-56551875D03*
X27734500Y-53001875D03*
X46734500Y-56555000D03*
X46734500Y-53005000D03*
X65707500Y-51805000D03*
X65707500Y-48255000D03*
X84707500Y-49430000D03*
X84707500Y-45880000D03*
X103707500Y-51805000D03*
X103707500Y-48255000D03*
X122707500Y-54180000D03*
X122707500Y-50630000D03*
X27734500Y-75551875D03*
X27734500Y-72001875D03*
X46734500Y-75555000D03*
X46734500Y-72005000D03*
X65707500Y-70805000D03*
X65707500Y-67255000D03*
X84707500Y-68430000D03*
X84707500Y-64880000D03*
X103707500Y-70805000D03*
X103707500Y-67255000D03*
X122707500Y-73180000D03*
X122707500Y-69630000D03*
X76157500Y-90545000D03*
X76157500Y-86995000D03*
X95164500Y-90540000D03*
X95164500Y-86990000D03*
X98007500Y-90540000D03*
X98007500Y-86990000D03*
X265214500Y-37550000D03*
X265214500Y-34000000D03*
X246214500Y-32800000D03*
X246214500Y-29250000D03*
X227214500Y-30425000D03*
X227214500Y-26875000D03*
X189207500Y-35180000D03*
X189207500Y-31630000D03*
X284214500Y-56400000D03*
X284214500Y-52850000D03*
X265214500Y-56550000D03*
X265214500Y-53000000D03*
X246214500Y-51800000D03*
X246214500Y-48250000D03*
X227214500Y-49425000D03*
X227214500Y-45875000D03*
X208214500Y-51800000D03*
X208214500Y-48250000D03*
X189207500Y-54180000D03*
X189207500Y-50630000D03*
X284214500Y-75550000D03*
X284214500Y-72000000D03*
X265214500Y-75550000D03*
X265214500Y-72000000D03*
X246214500Y-70800000D03*
X246214500Y-67250000D03*
X227214500Y-68425000D03*
X227214500Y-64875000D03*
X208214500Y-70800000D03*
X208214500Y-67250000D03*
X189207500Y-73180000D03*
X189207500Y-69630000D03*
X217714500Y-90410000D03*
X217714500Y-86860000D03*
X199664500Y-90425000D03*
X199664500Y-86875000D03*
X196814500Y-90425000D03*
X196814500Y-86875000D03*
X284214500Y-37550000D03*
X284214500Y-34000000D03*
X208214500Y-32800000D03*
X208214500Y-29250000D03*
D30*
X154418500Y-82785000D03*
D29*
X267099500Y-64265500D03*
D30*
X168850500Y-74264000D03*
D32*
X276061750Y-83183000D03*
X277843000Y-83183000D03*
X277249250Y-83183000D03*
X275468000Y-83183000D03*
X279030500Y-83183000D03*
X278436750Y-83183000D03*
X276655500Y-83183000D03*
X274874250Y-83183000D03*
X274280500Y-83183000D03*
X201331250Y-21885000D03*
X199550000Y-21885000D03*
X203112500Y-21885000D03*
X198362500Y-21885000D03*
X201925000Y-21885000D03*
X202518750Y-21885000D03*
X198956250Y-21885000D03*
X200737500Y-21885000D03*
X200143750Y-21885000D03*
X238649500Y-21870000D03*
X241024500Y-21870000D03*
X239243250Y-21870000D03*
X236274500Y-21870000D03*
X240430750Y-21870000D03*
X239837000Y-21870000D03*
X238055750Y-21870000D03*
X237462000Y-21870000D03*
X236868250Y-21870000D03*
X236366500Y-83193000D03*
X236960250Y-83193000D03*
X237554000Y-83193000D03*
X239335250Y-83193000D03*
X239929000Y-83193000D03*
X241116500Y-83193000D03*
X238147750Y-83193000D03*
X238741500Y-83193000D03*
X240522750Y-83193000D03*
D34*
X163507500Y-28660000D03*
X160507500Y-28660000D03*
D35*
X159757500Y-30410000D03*
X162757500Y-30410000D03*
X164257500Y-30410000D03*
D36*
X158357500Y-27560000D03*
X158357500Y-29760000D03*
X165657500Y-29760000D03*
X165657500Y-27560000D03*
D34*
X133307500Y-28630000D03*
X136307500Y-28630000D03*
D35*
X132557500Y-30380000D03*
X135557500Y-30380000D03*
X137057500Y-30380000D03*
D36*
X131157500Y-27530000D03*
X131157500Y-29730000D03*
X138457500Y-29730000D03*
X138457500Y-27530000D03*
M02*
