%TF.GenerationSoftware,KiCad,Pcbnew,(6.0.9-0)*%
%TF.CreationDate,2022-12-17T11:16:43-06:00*%
%TF.ProjectId,corne-ice,636f726e-652d-4696-9365-2e6b69636164,0.1*%
%TF.SameCoordinates,Original*%
%TF.FileFunction,Soldermask,Top*%
%TF.FilePolarity,Negative*%
%FSLAX46Y46*%
G04 Gerber Fmt 4.6, Leading zero omitted, Abs format (unit mm)*
G04 Created by KiCad (PCBNEW (6.0.9-0)) date 2022-12-17 11:16:43*
%MOMM*%
%LPD*%
G01*
G04 APERTURE LIST*
G04 Aperture macros list*
%AMRoundRect*
0 Rectangle with rounded corners*
0 $1 Rounding radius*
0 $2 $3 $4 $5 $6 $7 $8 $9 X,Y pos of 4 corners*
0 Add a 4 corners polygon primitive as box body*
4,1,4,$2,$3,$4,$5,$6,$7,$8,$9,$2,$3,0*
0 Add four circle primitives for the rounded corners*
1,1,$1+$1,$2,$3*
1,1,$1+$1,$4,$5*
1,1,$1+$1,$6,$7*
1,1,$1+$1,$8,$9*
0 Add four rect primitives between the rounded corners*
20,1,$1+$1,$2,$3,$4,$5,0*
20,1,$1+$1,$4,$5,$6,$7,0*
20,1,$1+$1,$6,$7,$8,$9,0*
20,1,$1+$1,$8,$9,$2,$3,0*%
G04 Aperture macros list end*
%ADD10RoundRect,0.200000X0.850000X-0.850000X0.850000X0.850000X-0.850000X0.850000X-0.850000X-0.850000X0*%
%ADD11O,2.100000X2.100000*%
%ADD12C,4.500000*%
%ADD13C,2.300000*%
%ADD14C,3.400000*%
%ADD15C,4.700000*%
%ADD16C,2.600000*%
%ADD17C,0.700000*%
%ADD18RoundRect,0.200000X0.400000X-0.300000X0.400000X0.300000X-0.400000X0.300000X-0.400000X-0.300000X0*%
%ADD19RoundRect,0.200000X0.525000X-0.725000X0.525000X0.725000X-0.525000X0.725000X-0.525000X-0.725000X0*%
%ADD20RoundRect,0.450000X1.500000X-0.250000X1.500000X0.250000X-1.500000X0.250000X-1.500000X-0.250000X0*%
%ADD21RoundRect,0.450001X1.449999X-0.499999X1.449999X0.499999X-1.449999X0.499999X-1.449999X-0.499999X0*%
%ADD22RoundRect,0.200000X-0.400000X0.300000X-0.400000X-0.300000X0.400000X-0.300000X0.400000X0.300000X0*%
%ADD23RoundRect,0.200000X-0.525000X0.725000X-0.525000X-0.725000X0.525000X-0.725000X0.525000X0.725000X0*%
%ADD24RoundRect,0.450000X-1.500000X0.250000X-1.500000X-0.250000X1.500000X-0.250000X1.500000X0.250000X0*%
%ADD25RoundRect,0.450001X-1.449999X0.499999X-1.449999X-0.499999X1.449999X-0.499999X1.449999X0.499999X0*%
%ADD26C,1.300000*%
G04 APERTURE END LIST*
D10*
X129782500Y-67030000D03*
D11*
X132322500Y-67030000D03*
X134862500Y-67030000D03*
X137402500Y-67030000D03*
X139942500Y-67030000D03*
D12*
X39107500Y-35780000D03*
D13*
X44187500Y-35780000D03*
D14*
X35297500Y-33240000D03*
D13*
X34027500Y-35780000D03*
D14*
X41647500Y-30700000D03*
D13*
X53027500Y-31030000D03*
X63187500Y-31030000D03*
D14*
X60647500Y-25950000D03*
X54297500Y-28490000D03*
D12*
X58107500Y-31030000D03*
D14*
X73297500Y-26115000D03*
X79647500Y-23575000D03*
D13*
X82187500Y-28655000D03*
D12*
X77107500Y-28655000D03*
D13*
X72027500Y-28655000D03*
D14*
X92297500Y-28490000D03*
D12*
X96107500Y-31030000D03*
D13*
X101187500Y-31030000D03*
X91027500Y-31030000D03*
D14*
X98647500Y-25950000D03*
D12*
X20107500Y-54780000D03*
D14*
X16297500Y-52240000D03*
X22647500Y-49700000D03*
D13*
X15027500Y-54780000D03*
X25187500Y-54780000D03*
X34027500Y-54780000D03*
D12*
X39107500Y-54780000D03*
D14*
X35297500Y-52240000D03*
D13*
X44187500Y-54780000D03*
D14*
X41647500Y-49700000D03*
X54297500Y-47490000D03*
X60647500Y-44950000D03*
D13*
X63187500Y-50030000D03*
D12*
X58107500Y-50030000D03*
D13*
X53027500Y-50030000D03*
D14*
X73297500Y-45115000D03*
D13*
X72027500Y-47655000D03*
D14*
X79647500Y-42575000D03*
D13*
X82187500Y-47655000D03*
D12*
X77107500Y-47655000D03*
X96107500Y-50030000D03*
D14*
X98647500Y-44950000D03*
D13*
X91027500Y-50030000D03*
D14*
X92297500Y-47490000D03*
D13*
X101187500Y-50030000D03*
X110027500Y-52405000D03*
X120187500Y-52405000D03*
D14*
X111297500Y-49865000D03*
D12*
X115107500Y-52405000D03*
D14*
X117647500Y-47325000D03*
X16297500Y-71240000D03*
D12*
X20107500Y-73780000D03*
D14*
X22647500Y-68700000D03*
D13*
X15027500Y-73780000D03*
X25187500Y-73780000D03*
D12*
X39107500Y-73780000D03*
D13*
X34027500Y-73780000D03*
D14*
X35297500Y-71240000D03*
X41647500Y-68700000D03*
D13*
X44187500Y-73780000D03*
D14*
X54297500Y-66490000D03*
D13*
X53027500Y-69030000D03*
X63187500Y-69030000D03*
D12*
X58107500Y-69030000D03*
D14*
X60647500Y-63950000D03*
D13*
X72027500Y-66655000D03*
X82187500Y-66655000D03*
D12*
X77107500Y-66655000D03*
D14*
X73297500Y-64115000D03*
X79647500Y-61575000D03*
D13*
X91027500Y-69030000D03*
D12*
X96107500Y-69030000D03*
D14*
X92297500Y-66490000D03*
X98647500Y-63950000D03*
D13*
X101187500Y-69030000D03*
X120187500Y-71405000D03*
D14*
X117647500Y-66325000D03*
X111297500Y-68865000D03*
D13*
X110027500Y-71405000D03*
D12*
X115107500Y-71405000D03*
D14*
X82797500Y-86115000D03*
D13*
X81527500Y-88655000D03*
X91687500Y-88655000D03*
D14*
X89147500Y-83575000D03*
D12*
X86607500Y-88655000D03*
D13*
X102700597Y-90090199D03*
D12*
X107607500Y-91405000D03*
D13*
X112514403Y-92719801D03*
D14*
X104584723Y-87965448D03*
X111375752Y-87155497D03*
X125752795Y-97184557D03*
D13*
X127317500Y-99554409D03*
D14*
X126728091Y-90415295D03*
D12*
X129857500Y-95155000D03*
D13*
X132397500Y-90755591D03*
X169404500Y-99549409D03*
D12*
X166864500Y-95150000D03*
D14*
X172533909Y-94809705D03*
X167159205Y-90580443D03*
D13*
X164324500Y-90750591D03*
D10*
X156932500Y-67030000D03*
D11*
X159472500Y-67030000D03*
X162012500Y-67030000D03*
X164552500Y-67030000D03*
X167092500Y-67030000D03*
D13*
X224694500Y-66650000D03*
D14*
X215804500Y-64110000D03*
D13*
X214534500Y-66650000D03*
D14*
X222154500Y-61570000D03*
D12*
X219614500Y-66650000D03*
D13*
X205694500Y-69025000D03*
X195534500Y-69025000D03*
D14*
X196804500Y-66485000D03*
D12*
X200614500Y-69025000D03*
D14*
X203154500Y-63945000D03*
X177804500Y-68860000D03*
D13*
X186694500Y-71400000D03*
D12*
X181614500Y-71400000D03*
D13*
X176534500Y-71400000D03*
D14*
X184154500Y-66320000D03*
D13*
X205034500Y-88650000D03*
D12*
X210114500Y-88650000D03*
D13*
X215194500Y-88650000D03*
D14*
X212654500Y-83570000D03*
X206304500Y-86110000D03*
X190253151Y-85835696D03*
D13*
X194021403Y-90085199D03*
X184207597Y-92714801D03*
D12*
X189114500Y-91400000D03*
D14*
X184776922Y-89932649D03*
D13*
X214534500Y-28650000D03*
D14*
X222154500Y-23570000D03*
X215804500Y-26110000D03*
D12*
X219614500Y-28650000D03*
D13*
X224694500Y-28650000D03*
X195534500Y-31025000D03*
D12*
X200614500Y-31025000D03*
D13*
X205694500Y-31025000D03*
D14*
X196804500Y-28485000D03*
X203154500Y-25945000D03*
D13*
X271534500Y-54775000D03*
X281694500Y-54775000D03*
D14*
X272804500Y-52235000D03*
D12*
X276614500Y-54775000D03*
D14*
X279154500Y-49695000D03*
D13*
X233534500Y-31025000D03*
D14*
X241154500Y-25945000D03*
D12*
X238614500Y-31025000D03*
D13*
X243694500Y-31025000D03*
D14*
X234804500Y-28485000D03*
D13*
X262694500Y-54775000D03*
D12*
X257614500Y-54775000D03*
D14*
X260154500Y-49695000D03*
D13*
X252534500Y-54775000D03*
D14*
X253804500Y-52235000D03*
X260154500Y-68695000D03*
X253804500Y-71235000D03*
D12*
X257614500Y-73775000D03*
D13*
X252534500Y-73775000D03*
X262694500Y-73775000D03*
D14*
X241154500Y-63945000D03*
D13*
X233534500Y-69025000D03*
X243694500Y-69025000D03*
D12*
X238614500Y-69025000D03*
D14*
X234804500Y-66485000D03*
D13*
X271534500Y-35775000D03*
D12*
X276614500Y-35775000D03*
D13*
X281694500Y-35775000D03*
D14*
X272804500Y-33235000D03*
X279154500Y-30695000D03*
X253804500Y-33235000D03*
D13*
X262694500Y-35775000D03*
X252534500Y-35775000D03*
D14*
X260154500Y-30695000D03*
D12*
X257614500Y-35775000D03*
X238614500Y-50025000D03*
D14*
X241154500Y-44945000D03*
D13*
X233534500Y-50025000D03*
X243694500Y-50025000D03*
D14*
X234804500Y-47485000D03*
X215804500Y-45110000D03*
D13*
X214534500Y-47650000D03*
X224694500Y-47650000D03*
D14*
X222154500Y-42570000D03*
D12*
X219614500Y-47650000D03*
D13*
X195534500Y-50025000D03*
D12*
X200614500Y-50025000D03*
D14*
X196804500Y-47485000D03*
X203154500Y-44945000D03*
D13*
X205694500Y-50025000D03*
D14*
X184154500Y-47320000D03*
D13*
X176534500Y-52400000D03*
D12*
X181614500Y-52400000D03*
D13*
X186694500Y-52400000D03*
D14*
X177804500Y-49860000D03*
X279154500Y-68695000D03*
X272804500Y-71235000D03*
D12*
X276614500Y-73775000D03*
D13*
X271534500Y-73775000D03*
X281694500Y-73775000D03*
X25187500Y-35780000D03*
D12*
X20107500Y-35780000D03*
D13*
X15027500Y-35780000D03*
D14*
X22647500Y-30700000D03*
X16297500Y-33240000D03*
D15*
X105575500Y-41765500D03*
X72764500Y-81520500D03*
X119330500Y-89135000D03*
D16*
X127869500Y-74254000D03*
X142301500Y-82775000D03*
D15*
X177389500Y-89145000D03*
X223955500Y-81530500D03*
X267099500Y-45265500D03*
X191144500Y-41775500D03*
D13*
X110027500Y-33405000D03*
D14*
X117647500Y-28325000D03*
X111297500Y-30865000D03*
D12*
X115107500Y-33405000D03*
D13*
X120187500Y-33405000D03*
X186687500Y-33405000D03*
D14*
X177797500Y-30865000D03*
D12*
X181607500Y-33405000D03*
D14*
X184147500Y-28325000D03*
D13*
X176527500Y-33405000D03*
D15*
X29607500Y-64280000D03*
X29607500Y-45280000D03*
D17*
X59424250Y-21869000D03*
X55861750Y-21869000D03*
X58236750Y-21869000D03*
X57643000Y-21869000D03*
X60611750Y-21869000D03*
X60018000Y-21869000D03*
X58830500Y-21869000D03*
X56455500Y-21869000D03*
X57049250Y-21869000D03*
X97988750Y-21873000D03*
X93832500Y-21873000D03*
X96801250Y-21873000D03*
X97395000Y-21873000D03*
X96207500Y-21873000D03*
X95020000Y-21873000D03*
X95613750Y-21873000D03*
X94426250Y-21873000D03*
X98582500Y-21873000D03*
X21350000Y-83176000D03*
X18975000Y-83176000D03*
X22537500Y-83176000D03*
X17787500Y-83176000D03*
X20756250Y-83176000D03*
X19568750Y-83176000D03*
X18381250Y-83176000D03*
X21943750Y-83176000D03*
X20162500Y-83176000D03*
X55748500Y-83178000D03*
X56342250Y-83178000D03*
X59904750Y-83178000D03*
X59311000Y-83178000D03*
X60498500Y-83178000D03*
X58123500Y-83178000D03*
X58717250Y-83178000D03*
X57529750Y-83178000D03*
X56936000Y-83178000D03*
D18*
X143932500Y-70430000D03*
X143932500Y-64030000D03*
D19*
X142207500Y-64955000D03*
X142207500Y-69505000D03*
D20*
X154671500Y-76812000D03*
X154671500Y-74812000D03*
D21*
X160421500Y-79162000D03*
X160421500Y-72462000D03*
D22*
X152982500Y-64130000D03*
X152982500Y-70530000D03*
D23*
X154707500Y-69605000D03*
X154707500Y-65055000D03*
D24*
X142210500Y-74812000D03*
X142210500Y-76812000D03*
D25*
X136460500Y-72462000D03*
X136460500Y-79162000D03*
D16*
X154418500Y-82785000D03*
D15*
X267099500Y-64265500D03*
D16*
X168850500Y-74264000D03*
D17*
X276061750Y-83183000D03*
X277843000Y-83183000D03*
X277249250Y-83183000D03*
X275468000Y-83183000D03*
X279030500Y-83183000D03*
X278436750Y-83183000D03*
X276655500Y-83183000D03*
X274874250Y-83183000D03*
X274280500Y-83183000D03*
X201331250Y-21885000D03*
X199550000Y-21885000D03*
X203112500Y-21885000D03*
X198362500Y-21885000D03*
X201925000Y-21885000D03*
X202518750Y-21885000D03*
X198956250Y-21885000D03*
X200737500Y-21885000D03*
X200143750Y-21885000D03*
X238649500Y-21870000D03*
X241024500Y-21870000D03*
X239243250Y-21870000D03*
X236274500Y-21870000D03*
X240430750Y-21870000D03*
X239837000Y-21870000D03*
X238055750Y-21870000D03*
X237462000Y-21870000D03*
X236868250Y-21870000D03*
X236366500Y-83193000D03*
X236960250Y-83193000D03*
X237554000Y-83193000D03*
X239335250Y-83193000D03*
X239929000Y-83193000D03*
X241116500Y-83193000D03*
X238147750Y-83193000D03*
X238741500Y-83193000D03*
X240522750Y-83193000D03*
D26*
X163507500Y-28660000D03*
X160507500Y-28660000D03*
X133307500Y-28630000D03*
X136307500Y-28630000D03*
M02*
