G04 #@! TF.GenerationSoftware,KiCad,Pcbnew,(6.0.8-1)-1*
G04 #@! TF.CreationDate,2022-10-24T21:20:46-05:00*
G04 #@! TF.ProjectId,cho-corne-ice,63686f2d-636f-4726-9e65-2d6963652e6b,3.0.1*
G04 #@! TF.SameCoordinates,Original*
G04 #@! TF.FileFunction,Copper,L2,Bot*
G04 #@! TF.FilePolarity,Positive*
%FSLAX46Y46*%
G04 Gerber Fmt 4.6, Leading zero omitted, Abs format (unit mm)*
G04 Created by KiCad (PCBNEW (6.0.8-1)-1) date 2022-10-24 21:20:46*
%MOMM*%
%LPD*%
G01*
G04 APERTURE LIST*
G04 Aperture macros list*
%AMHorizOval*
0 Thick line with rounded ends*
0 $1 width*
0 $2 $3 position (X,Y) of the first rounded end (center of the circle)*
0 $4 $5 position (X,Y) of the second rounded end (center of the circle)*
0 Add line between two ends*
20,1,$1,$2,$3,$4,$5,0*
0 Add two circle primitives to create the rounded ends*
1,1,$1,$2,$3*
1,1,$1,$4,$5*%
%AMRotRect*
0 Rectangle, with rotation*
0 The origin of the aperture is its center*
0 $1 length*
0 $2 width*
0 $3 Rotation angle, in degrees counterclockwise*
0 Add horizontal line*
21,1,$1,$2,0,0,$3*%
G04 Aperture macros list end*
G04 #@! TA.AperFunction,ComponentPad*
%ADD10O,2.200000X1.500000*%
G04 #@! TD*
G04 #@! TA.AperFunction,SMDPad,CuDef*
%ADD11R,2.600000X2.600000*%
G04 #@! TD*
G04 #@! TA.AperFunction,ComponentPad*
%ADD12HorizOval,1.500000X-0.338074X0.090587X0.338074X-0.090587X0*%
G04 #@! TD*
G04 #@! TA.AperFunction,SMDPad,CuDef*
%ADD13RotRect,2.600000X2.600000X165.000000*%
G04 #@! TD*
G04 #@! TA.AperFunction,ComponentPad*
%ADD14HorizOval,1.500000X-0.175000X-0.303109X0.175000X0.303109X0*%
G04 #@! TD*
G04 #@! TA.AperFunction,SMDPad,CuDef*
%ADD15RotRect,2.600000X2.600000X240.000000*%
G04 #@! TD*
G04 #@! TA.AperFunction,ComponentPad*
%ADD16HorizOval,1.500000X-0.175000X0.303109X0.175000X-0.303109X0*%
G04 #@! TD*
G04 #@! TA.AperFunction,SMDPad,CuDef*
%ADD17RotRect,2.600000X2.600000X120.000000*%
G04 #@! TD*
G04 #@! TA.AperFunction,ComponentPad*
%ADD18HorizOval,1.500000X-0.338074X-0.090587X0.338074X0.090587X0*%
G04 #@! TD*
G04 #@! TA.AperFunction,SMDPad,CuDef*
%ADD19RotRect,2.600000X2.600000X195.000000*%
G04 #@! TD*
G04 #@! TA.AperFunction,ComponentPad*
%ADD20C,1.524000*%
G04 #@! TD*
G04 #@! TA.AperFunction,ComponentPad*
%ADD21R,1.700000X1.700000*%
G04 #@! TD*
G04 #@! TA.AperFunction,ComponentPad*
%ADD22O,1.700000X1.700000*%
G04 #@! TD*
G04 #@! TA.AperFunction,SMDPad,CuDef*
%ADD23R,1.000000X1.400000*%
G04 #@! TD*
G04 #@! TA.AperFunction,SMDPad,CuDef*
%ADD24R,0.700000X1.500000*%
G04 #@! TD*
G04 #@! TA.AperFunction,SMDPad,CuDef*
%ADD25R,1.000000X0.800000*%
G04 #@! TD*
G04 #@! TA.AperFunction,ViaPad*
%ADD26C,0.600000*%
G04 #@! TD*
G04 #@! TA.AperFunction,ViaPad*
%ADD27C,0.750000*%
G04 #@! TD*
G04 #@! TA.AperFunction,Conductor*
%ADD28C,0.250000*%
G04 #@! TD*
G04 #@! TA.AperFunction,Conductor*
%ADD29C,0.500000*%
G04 #@! TD*
G04 APERTURE END LIST*
D10*
X44657500Y-30780000D03*
D11*
X30807500Y-39480000D03*
X42407500Y-41680000D03*
D10*
X63657500Y-26030000D03*
D11*
X49807500Y-34730000D03*
X61407500Y-36930000D03*
D10*
X82657500Y-23655000D03*
D11*
X68807500Y-32355000D03*
X80407500Y-34555000D03*
D10*
X101657500Y-26030000D03*
D11*
X87807500Y-34730000D03*
X99407500Y-36930000D03*
D10*
X25657500Y-49780000D03*
D11*
X11807500Y-58480000D03*
X23407500Y-60680000D03*
D10*
X44657500Y-49780000D03*
D11*
X30807500Y-58480000D03*
X42407500Y-60680000D03*
D10*
X63657500Y-45030000D03*
D11*
X49807500Y-53730000D03*
X61407500Y-55930000D03*
D10*
X82657500Y-42655000D03*
D11*
X68807500Y-51355000D03*
X80407500Y-53555000D03*
D10*
X101657500Y-45030000D03*
D11*
X87807500Y-53730000D03*
X99407500Y-55930000D03*
D10*
X120657500Y-47405000D03*
D11*
X106807500Y-56105000D03*
X118407500Y-58305000D03*
D10*
X25657500Y-68780000D03*
D11*
X11807500Y-77480000D03*
X23407500Y-79680000D03*
D10*
X44657500Y-68780000D03*
D11*
X30807500Y-77480000D03*
X42407500Y-79680000D03*
D10*
X63657500Y-64030000D03*
D11*
X49807500Y-72730000D03*
X61407500Y-74930000D03*
D10*
X82657500Y-61655000D03*
D11*
X68807500Y-70355000D03*
X80407500Y-72555000D03*
D10*
X101657500Y-64030000D03*
D11*
X87807500Y-72730000D03*
X99407500Y-74930000D03*
D10*
X120657500Y-66405000D03*
D11*
X106807500Y-75105000D03*
X118407500Y-77305000D03*
D10*
X92157500Y-83655000D03*
D11*
X78307500Y-92355000D03*
X89907500Y-94555000D03*
D12*
X114262484Y-88011817D03*
D13*
X98632685Y-92830727D03*
X109268023Y-97958065D03*
D14*
X128302373Y-87848559D03*
D15*
X128911794Y-104193011D03*
X136617050Y-95247116D03*
D16*
X173969627Y-97456441D03*
D17*
X159510206Y-89811989D03*
X163404950Y-100957884D03*
D10*
X225164500Y-61650000D03*
D11*
X211314500Y-70350000D03*
X222914500Y-72550000D03*
D10*
X206164500Y-64025000D03*
D11*
X192314500Y-72725000D03*
X203914500Y-74925000D03*
D10*
X187164500Y-66400000D03*
D11*
X173314500Y-75100000D03*
X184914500Y-77300000D03*
D10*
X215664500Y-83650000D03*
D11*
X201814500Y-92350000D03*
X213414500Y-94550000D03*
D18*
X193181293Y-85133925D03*
D19*
X182054946Y-97122124D03*
X193829088Y-96244860D03*
D10*
X225164500Y-23650000D03*
D11*
X211314500Y-32350000D03*
X222914500Y-34550000D03*
D10*
X206164500Y-26025000D03*
D11*
X192314500Y-34725000D03*
X203914500Y-36925000D03*
D10*
X282164500Y-49775000D03*
D11*
X268314500Y-58475000D03*
X279914500Y-60675000D03*
D10*
X244164500Y-26025000D03*
D11*
X230314500Y-34725000D03*
X241914500Y-36925000D03*
D10*
X263164500Y-49775000D03*
D11*
X249314500Y-58475000D03*
X260914500Y-60675000D03*
D10*
X263164500Y-68775000D03*
D11*
X249314500Y-77475000D03*
X260914500Y-79675000D03*
D10*
X244164500Y-64025000D03*
D11*
X230314500Y-72725000D03*
X241914500Y-74925000D03*
D10*
X282164500Y-30775000D03*
D11*
X268314500Y-39475000D03*
X279914500Y-41675000D03*
D10*
X263164500Y-30775000D03*
D11*
X249314500Y-39475000D03*
X260914500Y-41675000D03*
D10*
X244164500Y-45025000D03*
D11*
X230314500Y-53725000D03*
X241914500Y-55925000D03*
D10*
X225164500Y-42650000D03*
D11*
X211314500Y-51350000D03*
X222914500Y-53550000D03*
D10*
X206164500Y-45025000D03*
D11*
X192314500Y-53725000D03*
X203914500Y-55925000D03*
D10*
X187164500Y-47400000D03*
D11*
X173314500Y-56100000D03*
X184914500Y-58300000D03*
D10*
X282164500Y-68775000D03*
D11*
X268314500Y-77475000D03*
X279914500Y-79675000D03*
D10*
X25657500Y-30780000D03*
D11*
X11807500Y-39480000D03*
X23407500Y-41680000D03*
D10*
X120657500Y-28405000D03*
D11*
X106807500Y-37105000D03*
X118407500Y-39305000D03*
D10*
X187157500Y-28405000D03*
D11*
X173307500Y-37105000D03*
X184907500Y-39305000D03*
D20*
X169598900Y-31362000D03*
X169598900Y-33902000D03*
X169598900Y-36442000D03*
X169598900Y-38982000D03*
X169598900Y-41522000D03*
X169598900Y-44062000D03*
X169598900Y-46602000D03*
X169598900Y-49142000D03*
X169598900Y-51682000D03*
X169598900Y-54222000D03*
X169598900Y-56762000D03*
X169598900Y-59302000D03*
X154378900Y-59302000D03*
X154378900Y-56762000D03*
X154378900Y-54222000D03*
X154378900Y-51682000D03*
X154378900Y-49142000D03*
X154378900Y-46602000D03*
X154378900Y-44062000D03*
X154378900Y-41522000D03*
X154378900Y-38982000D03*
X154378900Y-36442000D03*
X154378900Y-33902000D03*
X154378900Y-31362000D03*
D21*
X156897500Y-67020000D03*
D22*
X159437500Y-67020000D03*
X161977500Y-67020000D03*
X164517500Y-67020000D03*
X167057500Y-67020000D03*
D21*
X129698500Y-67151000D03*
D22*
X132238500Y-67151000D03*
X134778500Y-67151000D03*
X137318500Y-67151000D03*
X139858500Y-67151000D03*
D20*
X142423900Y-31362000D03*
X142423900Y-33902000D03*
X142423900Y-36442000D03*
X142423900Y-38982000D03*
X142423900Y-41522000D03*
X142423900Y-44062000D03*
X142423900Y-46602000D03*
X142423900Y-49142000D03*
X142423900Y-51682000D03*
X142423900Y-54222000D03*
X142423900Y-56762000D03*
X142423900Y-59302000D03*
X127203900Y-59302000D03*
X127203900Y-56762000D03*
X127203900Y-54222000D03*
X127203900Y-51682000D03*
X127203900Y-49142000D03*
X127203900Y-46602000D03*
X127203900Y-44062000D03*
X127203900Y-41522000D03*
X127203900Y-38982000D03*
X127203900Y-36442000D03*
X127203900Y-33902000D03*
X127203900Y-31362000D03*
D23*
X27734500Y-34001875D03*
X27734500Y-37551875D03*
X46734500Y-34005000D03*
X46734500Y-37555000D03*
X65707500Y-29005000D03*
X65707500Y-32555000D03*
X84707500Y-26880000D03*
X84707500Y-30430000D03*
X103707500Y-29255000D03*
X103707500Y-32805000D03*
X122707500Y-31630000D03*
X122707500Y-35180000D03*
X27734500Y-53001875D03*
X27734500Y-56551875D03*
X46734500Y-53005000D03*
X46734500Y-56555000D03*
X65707500Y-48255000D03*
X65707500Y-51805000D03*
X84707500Y-45880000D03*
X84707500Y-49430000D03*
X103707500Y-48255000D03*
X103707500Y-51805000D03*
X122707500Y-50630000D03*
X122707500Y-54180000D03*
X27734500Y-72001875D03*
X27734500Y-75551875D03*
X46734500Y-72005000D03*
X46734500Y-75555000D03*
X65707500Y-67255000D03*
X65707500Y-70805000D03*
X84707500Y-64880000D03*
X84707500Y-68430000D03*
X103707500Y-67255000D03*
X103707500Y-70805000D03*
X122707500Y-69630000D03*
X122707500Y-73180000D03*
X75987500Y-86991000D03*
X75987500Y-90541000D03*
X95164500Y-86990000D03*
X95164500Y-90540000D03*
X98007500Y-86356000D03*
X98007500Y-89906000D03*
X265214500Y-34000000D03*
X265214500Y-37550000D03*
X246214500Y-29250000D03*
X246214500Y-32800000D03*
X227214500Y-26875000D03*
X227214500Y-30425000D03*
X189207500Y-31630000D03*
X189207500Y-35180000D03*
X284214500Y-52850000D03*
X284214500Y-56400000D03*
X265214500Y-53000000D03*
X265214500Y-56550000D03*
X246214500Y-48250000D03*
X246214500Y-51800000D03*
X227214500Y-45875000D03*
X227214500Y-49425000D03*
X208214500Y-48250000D03*
X208214500Y-51800000D03*
X189207500Y-50630000D03*
X189207500Y-54180000D03*
X284214500Y-72000000D03*
X284214500Y-75550000D03*
X265214500Y-72000000D03*
X265214500Y-75550000D03*
X246214500Y-67250000D03*
X246214500Y-70800000D03*
X227214500Y-64875000D03*
X227214500Y-68425000D03*
X208214500Y-67250000D03*
X208214500Y-70800000D03*
X189207500Y-69630000D03*
X189207500Y-73180000D03*
X217714500Y-86860000D03*
X217714500Y-90410000D03*
X199664500Y-86305000D03*
X199664500Y-89855000D03*
X196814500Y-86875000D03*
X196814500Y-90425000D03*
X284214500Y-34000000D03*
X284214500Y-37550000D03*
X208214500Y-29250000D03*
X208214500Y-32800000D03*
D24*
X159712500Y-30680000D03*
X162712500Y-30680000D03*
X164212500Y-30680000D03*
D25*
X158312500Y-27830000D03*
X158312500Y-30030000D03*
X165612500Y-30030000D03*
X165612500Y-27830000D03*
D24*
X132443787Y-30660000D03*
X135443787Y-30660000D03*
X136943787Y-30660000D03*
D25*
X131043787Y-27810000D03*
X131043787Y-30010000D03*
X138343787Y-30010000D03*
X138343787Y-27810000D03*
D26*
X125307500Y-59480000D03*
X124607500Y-60180000D03*
X122707500Y-67580000D03*
X124604685Y-66577185D03*
D27*
X139307500Y-76780000D03*
D26*
X11807500Y-37480000D03*
X11807500Y-41480000D03*
X11807500Y-56480000D03*
X11807500Y-60480000D03*
X11807500Y-75480000D03*
X30807500Y-56480000D03*
X30807500Y-60480000D03*
X30807500Y-36680000D03*
X30807500Y-41480000D03*
X30807500Y-75480000D03*
X49825089Y-50797589D03*
X49807500Y-55780000D03*
X49807500Y-70680000D03*
X49807500Y-36780000D03*
X68807500Y-72380000D03*
X68807500Y-48016396D03*
X68807500Y-34380000D03*
X68807500Y-46055500D03*
X78307500Y-90280000D03*
X68807500Y-53380000D03*
X68807500Y-68280000D03*
X87807500Y-36780000D03*
X87807500Y-74780000D03*
X87807500Y-55780000D03*
X96707500Y-92280000D03*
X87807500Y-39880000D03*
X87807500Y-51680000D03*
X87807500Y-69180000D03*
X87807500Y-41980000D03*
X108107500Y-46880000D03*
X106807500Y-58180000D03*
X106807500Y-77180000D03*
X108107500Y-44680000D03*
X106807500Y-54080000D03*
X106807500Y-66480000D03*
X106807500Y-39180000D03*
X106807500Y-64880000D03*
X126707500Y-104180000D03*
X106807500Y-71980000D03*
X136007500Y-58780000D03*
X154757500Y-63430000D03*
X268307500Y-41680000D03*
X268307500Y-56280000D03*
X268307500Y-60680000D03*
X268307500Y-71524499D03*
X249307500Y-56280000D03*
X249307500Y-75280000D03*
X249307500Y-66730000D03*
X249307500Y-41680000D03*
X230307500Y-36980000D03*
X230307500Y-64380000D03*
X230307500Y-70580000D03*
X230307500Y-51580000D03*
X201807500Y-90080000D03*
X211307500Y-72580000D03*
X211307500Y-68180000D03*
X211307500Y-61180000D03*
X211307500Y-49180000D03*
X211307500Y-34580000D03*
X192307500Y-70480000D03*
X192307500Y-74980000D03*
X192307500Y-63380000D03*
X192307500Y-51480000D03*
X192307500Y-36980000D03*
X181407500Y-94780000D03*
X161607500Y-88980000D03*
X173307500Y-72880000D03*
X173307500Y-53880000D03*
X173307500Y-63380000D03*
X173307500Y-39380000D03*
X173307500Y-77280000D03*
D27*
X161957500Y-46580000D03*
X157807500Y-74780000D03*
D26*
X130607500Y-53380000D03*
X132307500Y-54180000D03*
X159840163Y-50197337D03*
X160724089Y-50196589D03*
X170807500Y-60130000D03*
D27*
X135407500Y-32880000D03*
X129107500Y-63780000D03*
X129107500Y-58080000D03*
X156607500Y-55430000D03*
X162707500Y-32880000D03*
X156600746Y-39086754D03*
D28*
X28831376Y-32904999D02*
X27734500Y-34001875D01*
X118057500Y-31630000D02*
X115682500Y-29255000D01*
X96023366Y-26880000D02*
X84707500Y-26880000D01*
X45634499Y-32904999D02*
X28831376Y-32904999D01*
X125307500Y-59480000D02*
X125307500Y-34230000D01*
X68932501Y-25779999D02*
X65707500Y-29005000D01*
X103707500Y-29255000D02*
X98398366Y-29255000D01*
X64857499Y-28154999D02*
X52584501Y-28154999D01*
X83607499Y-25779999D02*
X68932501Y-25779999D01*
X52584501Y-28154999D02*
X46734500Y-34005000D01*
X65707500Y-29005000D02*
X64857499Y-28154999D01*
X122707500Y-31630000D02*
X118057500Y-31630000D01*
X84707500Y-26880000D02*
X83607499Y-25779999D01*
X98398366Y-29255000D02*
X96023366Y-26880000D01*
X46734500Y-34005000D02*
X45634499Y-32904999D01*
X115682500Y-29255000D02*
X103707500Y-29255000D01*
X125307500Y-34230000D02*
X122707500Y-31630000D01*
X27535625Y-37551875D02*
X23407500Y-41680000D01*
X27734500Y-37551875D02*
X27535625Y-37551875D01*
X124607500Y-60180000D02*
X124607500Y-52530000D01*
X117398366Y-50630000D02*
X115023366Y-48255000D01*
X65707500Y-48255000D02*
X64607499Y-47154999D01*
X84707500Y-45880000D02*
X82907500Y-44080000D01*
X64607499Y-47154999D02*
X52584501Y-47154999D01*
X102957500Y-48255000D02*
X100582500Y-45880000D01*
X115023366Y-48255000D02*
X103707500Y-48255000D01*
X100582500Y-45880000D02*
X84707500Y-45880000D01*
X46734500Y-53005000D02*
X45634499Y-51904999D01*
X52584501Y-47154999D02*
X46734500Y-53005000D01*
X45634499Y-51904999D02*
X28831376Y-51904999D01*
X69882500Y-44080000D02*
X65707500Y-48255000D01*
X122707500Y-50630000D02*
X117398366Y-50630000D01*
X28831376Y-51904999D02*
X27734500Y-53001875D01*
X124607500Y-52530000D02*
X122707500Y-50630000D01*
X82907500Y-44080000D02*
X69882500Y-44080000D01*
X103707500Y-48255000D02*
X102957500Y-48255000D01*
X46532500Y-37555000D02*
X42407500Y-41680000D01*
X46734500Y-37555000D02*
X46532500Y-37555000D01*
X45634499Y-70904999D02*
X28831376Y-70904999D01*
X118682500Y-67255000D02*
X103707500Y-67255000D01*
X84707500Y-64880000D02*
X83607499Y-63779999D01*
X121057500Y-69630000D02*
X118682500Y-67255000D01*
X103707500Y-67255000D02*
X98398366Y-67255000D01*
X64607499Y-66154999D02*
X52584501Y-66154999D01*
X122707500Y-67580000D02*
X122707500Y-69630000D01*
X69182501Y-63779999D02*
X65707500Y-67255000D01*
X28831376Y-70904999D02*
X27734500Y-72001875D01*
X83607499Y-63779999D02*
X69182501Y-63779999D01*
X96023366Y-64880000D02*
X84707500Y-64880000D01*
X122707500Y-69630000D02*
X121057500Y-69630000D01*
X65707500Y-67255000D02*
X64607499Y-66154999D01*
X46734500Y-72005000D02*
X45634499Y-70904999D01*
X52584501Y-66154999D02*
X46734500Y-72005000D01*
X98398366Y-67255000D02*
X96023366Y-64880000D01*
X65707500Y-32555000D02*
X65707500Y-32630000D01*
X65707500Y-32630000D02*
X61407500Y-36930000D01*
X124607500Y-66580000D02*
X124607500Y-74730000D01*
X95164500Y-86990000D02*
X97373500Y-86990000D01*
X75987500Y-86991000D02*
X77198501Y-85779999D01*
X124604685Y-66577185D02*
X124607500Y-66580000D01*
X93954499Y-85779999D02*
X95164500Y-86990000D01*
X112981500Y-86356000D02*
X98007500Y-86356000D01*
X77198501Y-85779999D02*
X93954499Y-85779999D01*
X124607500Y-74730000D02*
X112981500Y-86356000D01*
X97373500Y-86990000D02*
X98007500Y-86356000D01*
X84532500Y-30430000D02*
X80407500Y-34555000D01*
X84707500Y-30430000D02*
X84532500Y-30430000D01*
X103707500Y-32805000D02*
X103532500Y-32805000D01*
X103532500Y-32805000D02*
X99407500Y-36930000D01*
X122707500Y-35180000D02*
X118582500Y-39305000D01*
X118582500Y-39305000D02*
X118407500Y-39305000D01*
X27734500Y-56551875D02*
X27535625Y-56551875D01*
X27535625Y-56551875D02*
X23407500Y-60680000D01*
X46734500Y-56555000D02*
X46532500Y-56555000D01*
X46532500Y-56555000D02*
X42407500Y-60680000D01*
X65707500Y-51805000D02*
X65532500Y-51805000D01*
X65532500Y-51805000D02*
X61407500Y-55930000D01*
X84532500Y-49430000D02*
X80407500Y-53555000D01*
X84707500Y-49430000D02*
X84532500Y-49430000D01*
X103707500Y-51805000D02*
X103532500Y-51805000D01*
X103532500Y-51805000D02*
X99407500Y-55930000D01*
X122707500Y-54180000D02*
X118582500Y-58305000D01*
X118582500Y-58305000D02*
X118407500Y-58305000D01*
X23606375Y-79680000D02*
X23407500Y-79680000D01*
X27734500Y-75551875D02*
X23606375Y-79680000D01*
X46734500Y-75555000D02*
X46532500Y-75555000D01*
X46532500Y-75555000D02*
X42407500Y-79680000D01*
X65532500Y-70805000D02*
X61407500Y-74930000D01*
X65707500Y-70805000D02*
X65532500Y-70805000D01*
X84532500Y-68430000D02*
X80407500Y-72555000D01*
X84707500Y-68430000D02*
X84532500Y-68430000D01*
X103707500Y-70805000D02*
X103532500Y-70805000D01*
X103532500Y-70805000D02*
X99407500Y-74930000D01*
X122707500Y-73180000D02*
X118582500Y-77305000D01*
X118582500Y-77305000D02*
X118407500Y-77305000D01*
X88032499Y-96430001D02*
X79257501Y-96430001D01*
X79257501Y-96430001D02*
X75987500Y-93160000D01*
X75987500Y-93160000D02*
X75987500Y-90541000D01*
X89907500Y-94555000D02*
X88032499Y-96430001D01*
X101847011Y-99019511D02*
X95164500Y-92337000D01*
X108206577Y-99019511D02*
X101847011Y-99019511D01*
X95164500Y-92337000D02*
X95164500Y-90540000D01*
X109268023Y-97958065D02*
X108206577Y-99019511D01*
X136617050Y-95247116D02*
X135115939Y-95247116D01*
X135115939Y-95247116D02*
X131848823Y-91980000D01*
X110807500Y-88180000D02*
X99733500Y-88180000D01*
X99733500Y-88180000D02*
X98007500Y-89906000D01*
X131848823Y-91980000D02*
X114607500Y-91980000D01*
X114607500Y-91980000D02*
X110807500Y-88180000D01*
D29*
X137307500Y-44005600D02*
X137400300Y-44005600D01*
X142423900Y-38982000D02*
X139883900Y-36442000D01*
X132283900Y-38982000D02*
X142423900Y-38982000D01*
X139307500Y-69140000D02*
X137318500Y-67151000D01*
X137307500Y-67140000D02*
X137307500Y-44005600D01*
X129743900Y-36442000D02*
X139169500Y-36442000D01*
X139169500Y-36442000D02*
X142423900Y-36442000D01*
X127203900Y-33902000D02*
X132283900Y-38982000D01*
X137307500Y-44005600D02*
X132283900Y-38982000D01*
X137318500Y-67151000D02*
X137307500Y-67140000D01*
X139883900Y-36442000D02*
X139169500Y-36442000D01*
X139307500Y-76780000D02*
X139307500Y-69140000D01*
X137400300Y-44005600D02*
X142423900Y-38982000D01*
X142423900Y-38982000D02*
X142423900Y-36442000D01*
X127203900Y-33902000D02*
X129743900Y-36442000D01*
X134778500Y-67151000D02*
X134778500Y-46556600D01*
X134778500Y-46556600D02*
X127203900Y-38982000D01*
D28*
X11807500Y-39480000D02*
X11807500Y-41480000D01*
X11807500Y-37480000D02*
X11807500Y-39480000D01*
X11807500Y-58480000D02*
X11807500Y-60480000D01*
X11807500Y-75480000D02*
X11807500Y-77480000D01*
X11807500Y-56480000D02*
X11807500Y-58480000D01*
X30807500Y-58480000D02*
X30807500Y-60480000D01*
X30807500Y-75480000D02*
X30807500Y-77480000D01*
X30807500Y-36680000D02*
X30807500Y-39480000D01*
X30807500Y-39480000D02*
X30807500Y-41480000D01*
X30807500Y-56480000D02*
X30807500Y-58480000D01*
X49825089Y-50797589D02*
X49807500Y-50815178D01*
X49807500Y-53730000D02*
X49807500Y-55780000D01*
X49807500Y-34730000D02*
X49807500Y-36780000D01*
X49807500Y-70680000D02*
X49807500Y-72730000D01*
X49807500Y-50815178D02*
X49807500Y-53730000D01*
X68807500Y-51355000D02*
X68807500Y-48016396D01*
X68807500Y-32355000D02*
X68807500Y-34380000D01*
X68807500Y-68280000D02*
X68807500Y-70355000D01*
X68807500Y-48016396D02*
X68807500Y-46055500D01*
X68807500Y-70355000D02*
X68807500Y-72380000D01*
X78307500Y-90280000D02*
X78307500Y-92355000D01*
X68807500Y-51355000D02*
X68807500Y-53380000D01*
X98081958Y-92280000D02*
X98632685Y-92830727D01*
X87807500Y-53730000D02*
X87807500Y-55780000D01*
X87807500Y-51680000D02*
X87807500Y-53730000D01*
X87807500Y-72730000D02*
X87807500Y-74780000D01*
X96707500Y-92280000D02*
X98081958Y-92280000D01*
X87807500Y-34730000D02*
X87807500Y-36780000D01*
X87807500Y-39880000D02*
X87807500Y-41980000D01*
X87807500Y-69180000D02*
X87807500Y-72730000D01*
X126707500Y-104180000D02*
X128898783Y-104180000D01*
X106807500Y-37105000D02*
X106807500Y-39180000D01*
X106807500Y-54080000D02*
X106807500Y-56105000D01*
X128898783Y-104180000D02*
X128911794Y-104193011D01*
X108107500Y-44680000D02*
X108107500Y-46880000D01*
X106807500Y-64880000D02*
X106807500Y-66480000D01*
X106807500Y-56105000D02*
X106807500Y-58180000D01*
X106807500Y-71980000D02*
X106807500Y-75105000D01*
X106807500Y-75105000D02*
X106807500Y-77180000D01*
D29*
X131741787Y-31362000D02*
X132443787Y-30660000D01*
X127203900Y-31362000D02*
X131741787Y-31362000D01*
D28*
X136007500Y-45245600D02*
X127203900Y-36442000D01*
X136007500Y-58780000D02*
X136007500Y-45245600D01*
X280089500Y-41675000D02*
X284214500Y-37550000D01*
X279914500Y-41675000D02*
X280089500Y-41675000D01*
X227214500Y-26875000D02*
X227439500Y-27100000D01*
X189207500Y-31630000D02*
X192687501Y-28149999D01*
X207114499Y-28149999D02*
X208214500Y-29250000D01*
X227439500Y-27100000D02*
X244064500Y-27100000D01*
X192687501Y-28149999D02*
X207114499Y-28149999D01*
X169598900Y-46602000D02*
X180860500Y-46602000D01*
X283114499Y-32899999D02*
X284214500Y-34000000D01*
X211689501Y-25774999D02*
X226114499Y-25774999D01*
X190407500Y-32830000D02*
X189207500Y-31630000D01*
X263064500Y-31850000D02*
X265214500Y-34000000D01*
X244064500Y-27100000D02*
X246214500Y-29250000D01*
X266314501Y-32899999D02*
X283114499Y-32899999D01*
X208214500Y-29250000D02*
X211689501Y-25774999D01*
X180860500Y-46602000D02*
X190407500Y-37055000D01*
X226114499Y-25774999D02*
X227214500Y-26875000D01*
X190407500Y-37055000D02*
X190407500Y-32830000D01*
X248814500Y-31850000D02*
X263064500Y-31850000D01*
X246214500Y-29250000D02*
X248814500Y-31850000D01*
X265214500Y-34000000D02*
X266314501Y-32899999D01*
X260914500Y-41675000D02*
X261089500Y-41675000D01*
X261089500Y-41675000D02*
X265214500Y-37550000D01*
X242089500Y-36925000D02*
X246214500Y-32800000D01*
X241914500Y-36925000D02*
X242089500Y-36925000D01*
X223089500Y-34550000D02*
X227214500Y-30425000D01*
X222914500Y-34550000D02*
X223089500Y-34550000D01*
X204089500Y-36925000D02*
X208214500Y-32800000D01*
X203914500Y-36925000D02*
X204089500Y-36925000D01*
X185082500Y-39305000D02*
X189207500Y-35180000D01*
X184907500Y-39305000D02*
X185082500Y-39305000D01*
X245519220Y-48250000D02*
X246214500Y-48250000D01*
X227214500Y-45875000D02*
X243144220Y-45875000D01*
X187719500Y-49142000D02*
X189207500Y-50630000D01*
X192687501Y-47149999D02*
X207114499Y-47149999D01*
X207114499Y-47149999D02*
X208214500Y-48250000D01*
X243144220Y-45875000D02*
X245519220Y-48250000D01*
X189207500Y-50630000D02*
X192687501Y-47149999D01*
X208214500Y-48250000D02*
X211689501Y-44774999D01*
X226114499Y-44774999D02*
X227214500Y-45875000D01*
X266314501Y-51899999D02*
X283264499Y-51899999D01*
X248814500Y-50850000D02*
X263064500Y-50850000D01*
X283264499Y-51899999D02*
X284214500Y-52850000D01*
X246214500Y-48250000D02*
X248814500Y-50850000D01*
X169598900Y-49142000D02*
X187719500Y-49142000D01*
X265214500Y-53000000D02*
X266314501Y-51899999D01*
X211689501Y-44774999D02*
X226114499Y-44774999D01*
X263064500Y-50850000D02*
X265214500Y-53000000D01*
X279939500Y-60675000D02*
X284214500Y-56400000D01*
X279914500Y-60675000D02*
X279939500Y-60675000D01*
X261089500Y-60675000D02*
X265214500Y-56550000D01*
X260914500Y-60675000D02*
X261089500Y-60675000D01*
X241914500Y-55925000D02*
X242089500Y-55925000D01*
X242089500Y-55925000D02*
X246214500Y-51800000D01*
X222914500Y-53550000D02*
X223089500Y-53550000D01*
X223089500Y-53550000D02*
X227214500Y-49425000D01*
X204089500Y-55925000D02*
X208214500Y-51800000D01*
X203914500Y-55925000D02*
X204089500Y-55925000D01*
X189034500Y-54180000D02*
X189207500Y-54180000D01*
X184914500Y-58300000D02*
X189034500Y-54180000D01*
X208214500Y-67250000D02*
X211689501Y-63774999D01*
X176547501Y-50920001D02*
X178739499Y-53111999D01*
X227214500Y-64875000D02*
X227439500Y-65100000D01*
X189207500Y-69630000D02*
X192687501Y-66149999D01*
X227439500Y-65100000D02*
X244064500Y-65100000D01*
X244064500Y-65100000D02*
X246214500Y-67250000D01*
X207114499Y-66149999D02*
X208214500Y-67250000D01*
X169598900Y-51682000D02*
X170360899Y-50920001D01*
X283114499Y-70899999D02*
X284214500Y-72000000D01*
X265214500Y-72000000D02*
X266314501Y-70899999D01*
X192687501Y-66149999D02*
X207114499Y-66149999D01*
X266314501Y-70899999D02*
X283114499Y-70899999D01*
X226114499Y-63774999D02*
X227214500Y-64875000D01*
X248814500Y-69850000D02*
X263064500Y-69850000D01*
X246214500Y-67250000D02*
X248814500Y-69850000D01*
X188457500Y-69630000D02*
X189207500Y-69630000D01*
X263064500Y-69850000D02*
X265214500Y-72000000D01*
X211689501Y-63774999D02*
X226114499Y-63774999D01*
X178739499Y-53111999D02*
X178739499Y-59911999D01*
X178739499Y-59911999D02*
X188457500Y-69630000D01*
X170360899Y-50920001D02*
X176547501Y-50920001D01*
X280089500Y-79675000D02*
X284214500Y-75550000D01*
X279914500Y-79675000D02*
X280089500Y-79675000D01*
X261089500Y-79675000D02*
X265214500Y-75550000D01*
X260914500Y-79675000D02*
X261089500Y-79675000D01*
X241914500Y-74925000D02*
X242089500Y-74925000D01*
X242089500Y-74925000D02*
X246214500Y-70800000D01*
X222914500Y-72550000D02*
X223089500Y-72550000D01*
X223089500Y-72550000D02*
X227214500Y-68425000D01*
X204089500Y-74925000D02*
X208214500Y-70800000D01*
X203914500Y-74925000D02*
X204089500Y-74925000D01*
X184914500Y-77300000D02*
X185087500Y-77300000D01*
X185087500Y-77300000D02*
X189207500Y-73180000D01*
X213574500Y-94550000D02*
X217714500Y-90410000D01*
X213414500Y-94550000D02*
X213574500Y-94550000D01*
X169598900Y-54222000D02*
X171432500Y-56055600D01*
X196814500Y-86875000D02*
X199094500Y-86875000D01*
X200194501Y-85774999D02*
X216629499Y-85774999D01*
X199094500Y-86875000D02*
X199664500Y-86305000D01*
X199664500Y-86305000D02*
X200194501Y-85774999D01*
X171432500Y-76705000D02*
X181602500Y-86875000D01*
X181602500Y-86875000D02*
X196814500Y-86875000D01*
X216629499Y-85774999D02*
X217714500Y-86860000D01*
X171432500Y-56055600D02*
X171432500Y-76705000D01*
X199664500Y-90409448D02*
X199664500Y-89855000D01*
X193829088Y-96244860D02*
X199664500Y-90409448D01*
X177646497Y-91670001D02*
X183017499Y-91670001D01*
X183017499Y-91670001D02*
X186162501Y-88524999D01*
X194914499Y-88524999D02*
X196814500Y-90425000D01*
X163404950Y-100957884D02*
X165774695Y-98588139D01*
X170728359Y-98588139D02*
X177646497Y-91670001D01*
X165774695Y-98588139D02*
X170728359Y-98588139D01*
X186162501Y-88524999D02*
X194914499Y-88524999D01*
X154378900Y-36442000D02*
X154390900Y-36430000D01*
X157607500Y-60580000D02*
X154757500Y-63430000D01*
X157607500Y-38680000D02*
X157607500Y-60580000D01*
X154390900Y-36430000D02*
X155357500Y-36430000D01*
X155357500Y-36430000D02*
X157607500Y-38680000D01*
X268307500Y-71524499D02*
X268307500Y-77468000D01*
X268314500Y-58475000D02*
X268314500Y-60673000D01*
X268314500Y-39475000D02*
X268314500Y-41673000D01*
X268314500Y-60673000D02*
X268307500Y-60680000D01*
X268314500Y-41673000D02*
X268307500Y-41680000D01*
X268307500Y-77468000D02*
X268314500Y-77475000D01*
X268307500Y-58468000D02*
X268314500Y-58475000D01*
X268307500Y-56280000D02*
X268307500Y-58468000D01*
X249314500Y-39475000D02*
X249314500Y-41673000D01*
X249314500Y-66723000D02*
X249314500Y-58475000D01*
X249307500Y-56280000D02*
X249307500Y-58468000D01*
X249307500Y-75280000D02*
X249307500Y-77468000D01*
X249307500Y-58468000D02*
X249314500Y-58475000D01*
X249314500Y-41673000D02*
X249307500Y-41680000D01*
X249307500Y-77468000D02*
X249314500Y-77475000D01*
X249307500Y-66730000D02*
X249314500Y-66723000D01*
X230307500Y-70580000D02*
X230307500Y-72718000D01*
X230307500Y-53718000D02*
X230314500Y-53725000D01*
X230314500Y-36973000D02*
X230307500Y-36980000D01*
X230307500Y-72718000D02*
X230314500Y-72725000D01*
X230307500Y-64380000D02*
X230314500Y-64373000D01*
X230314500Y-34725000D02*
X230314500Y-36973000D01*
X230314500Y-64373000D02*
X230314500Y-53725000D01*
X230307500Y-51580000D02*
X230307500Y-53718000D01*
X211307500Y-51343000D02*
X211314500Y-51350000D01*
X211314500Y-72573000D02*
X211307500Y-72580000D01*
X211314500Y-70350000D02*
X211314500Y-72573000D01*
X211307500Y-68180000D02*
X211307500Y-70343000D01*
X211307500Y-61180000D02*
X211314500Y-61173000D01*
X201807500Y-90080000D02*
X201807500Y-92343000D01*
X201807500Y-92343000D02*
X201814500Y-92350000D01*
X211307500Y-49180000D02*
X211307500Y-51343000D01*
X211307500Y-70343000D02*
X211314500Y-70350000D01*
X211314500Y-34573000D02*
X211307500Y-34580000D01*
X211314500Y-32350000D02*
X211314500Y-34573000D01*
X211314500Y-61173000D02*
X211314500Y-51350000D01*
X192307500Y-70480000D02*
X192307500Y-72718000D01*
X192314500Y-34725000D02*
X192314500Y-36973000D01*
X192314500Y-74973000D02*
X192307500Y-74980000D01*
X182054946Y-95427446D02*
X182054946Y-97122124D01*
X192307500Y-53718000D02*
X192314500Y-53725000D01*
X192307500Y-63380000D02*
X192314500Y-63373000D01*
X192314500Y-36973000D02*
X192307500Y-36980000D01*
X192314500Y-72725000D02*
X192314500Y-74973000D01*
X181407500Y-94780000D02*
X182054946Y-95427446D01*
X192307500Y-51480000D02*
X192307500Y-53718000D01*
X192307500Y-72718000D02*
X192314500Y-72725000D01*
X192314500Y-63373000D02*
X192314500Y-53725000D01*
X173307500Y-75093000D02*
X173314500Y-75100000D01*
X173307500Y-37105000D02*
X173307500Y-39380000D01*
X173307500Y-72880000D02*
X173307500Y-75093000D01*
X173307500Y-63380000D02*
X173314500Y-63373000D01*
X173314500Y-63373000D02*
X173314500Y-56100000D01*
X173307500Y-53880000D02*
X173307500Y-56093000D01*
X173314500Y-77273000D02*
X173307500Y-77280000D01*
X161607500Y-88980000D02*
X160342195Y-88980000D01*
X160342195Y-88980000D02*
X159510206Y-89811989D01*
X173314500Y-75100000D02*
X173314500Y-77273000D01*
X173307500Y-56093000D02*
X173314500Y-56100000D01*
D29*
X161957500Y-46580000D02*
X161977500Y-46600000D01*
X161977500Y-46600000D02*
X161977500Y-67020000D01*
X169598900Y-38982000D02*
X159855500Y-38982000D01*
X167169500Y-36442000D02*
X156918900Y-36442000D01*
X164517500Y-44390000D02*
X164517500Y-44063400D01*
X156918900Y-36442000D02*
X156632200Y-36155300D01*
X154378900Y-33902000D02*
X156632200Y-36155300D01*
X157807500Y-74780000D02*
X164517500Y-68070000D01*
X159855500Y-38982000D02*
X159657200Y-39180300D01*
X164517500Y-44040600D02*
X164517500Y-44390000D01*
X159657200Y-39180300D02*
X164517500Y-44040600D01*
X164517500Y-68070000D02*
X164517500Y-67020000D01*
X167169500Y-36552600D02*
X167169500Y-36442000D01*
X169598900Y-38982000D02*
X167169500Y-36552600D01*
X164517500Y-44063400D02*
X169598900Y-38982000D01*
X156632200Y-36155300D02*
X159657200Y-39180300D01*
X169598900Y-36442000D02*
X167169500Y-36442000D01*
X164517500Y-67020000D02*
X164517500Y-44390000D01*
X154378900Y-31362000D02*
X159030500Y-31362000D01*
X159030500Y-31362000D02*
X159712500Y-30680000D01*
D28*
X130607500Y-53380000D02*
X130607500Y-66242000D01*
X130607500Y-66242000D02*
X129698500Y-67151000D01*
X132307500Y-54180000D02*
X132238500Y-54249000D01*
X132238500Y-54249000D02*
X132238500Y-67151000D01*
X143810900Y-32749000D02*
X142423900Y-31362000D01*
X139858500Y-67151000D02*
X143810900Y-63198600D01*
X143810900Y-63198600D02*
X143810900Y-32749000D01*
X159840163Y-50197337D02*
X159857500Y-50214674D01*
X159857500Y-64060000D02*
X156897500Y-67020000D01*
X159857500Y-50214674D02*
X159857500Y-64060000D01*
X160724089Y-50196589D02*
X160724089Y-65733411D01*
X160724089Y-65733411D02*
X159437500Y-67020000D01*
X170807500Y-63270000D02*
X167057500Y-67020000D01*
X170807500Y-60130000D02*
X170807500Y-63270000D01*
D29*
X135443787Y-30660000D02*
X135443787Y-32843713D01*
X129107500Y-58080000D02*
X129107500Y-63780000D01*
X135443787Y-32843713D02*
X135407500Y-32880000D01*
X162712500Y-30680000D02*
X162712500Y-32875000D01*
X156607500Y-39093508D02*
X156607500Y-55430000D01*
X162712500Y-32875000D02*
X162707500Y-32880000D01*
X156600746Y-39086754D02*
X156607500Y-39093508D01*
M02*
