G04 #@! TF.GenerationSoftware,KiCad,Pcbnew,(6.0.8-1)-1*
G04 #@! TF.CreationDate,2022-10-24T21:20:46-05:00*
G04 #@! TF.ProjectId,cho-corne-ice,63686f2d-636f-4726-9e65-2d6963652e6b,3.0.1*
G04 #@! TF.SameCoordinates,Original*
G04 #@! TF.FileFunction,Legend,Top*
G04 #@! TF.FilePolarity,Positive*
%FSLAX46Y46*%
G04 Gerber Fmt 4.6, Leading zero omitted, Abs format (unit mm)*
G04 Created by KiCad (PCBNEW (6.0.8-1)-1) date 2022-10-24 21:20:46*
%MOMM*%
%LPD*%
G01*
G04 APERTURE LIST*
G04 Aperture macros list*
%AMRoundRect*
0 Rectangle with rounded corners*
0 $1 Rounding radius*
0 $2 $3 $4 $5 $6 $7 $8 $9 X,Y pos of 4 corners*
0 Add a 4 corners polygon primitive as box body*
4,1,4,$2,$3,$4,$5,$6,$7,$8,$9,$2,$3,0*
0 Add four circle primitives for the rounded corners*
1,1,$1+$1,$2,$3*
1,1,$1+$1,$4,$5*
1,1,$1+$1,$6,$7*
1,1,$1+$1,$8,$9*
0 Add four rect primitives between the rounded corners*
20,1,$1+$1,$2,$3,$4,$5,0*
20,1,$1+$1,$4,$5,$6,$7,0*
20,1,$1+$1,$6,$7,$8,$9,0*
20,1,$1+$1,$8,$9,$2,$3,0*%
%AMHorizOval*
0 Thick line with rounded ends*
0 $1 width*
0 $2 $3 position (X,Y) of the first rounded end (center of the circle)*
0 $4 $5 position (X,Y) of the second rounded end (center of the circle)*
0 Add line between two ends*
20,1,$1,$2,$3,$4,$5,0*
0 Add two circle primitives to create the rounded ends*
1,1,$1,$2,$3*
1,1,$1,$4,$5*%
G04 Aperture macros list end*
%ADD10C,0.125000*%
%ADD11C,0.150000*%
%ADD12C,0.120000*%
%ADD13C,0.010000*%
%ADD14O,2.200000X1.500000*%
%ADD15HorizOval,1.500000X-0.338074X0.090587X0.338074X-0.090587X0*%
%ADD16HorizOval,1.500000X-0.175000X-0.303109X0.175000X0.303109X0*%
%ADD17HorizOval,1.500000X-0.175000X0.303109X0.175000X-0.303109X0*%
%ADD18HorizOval,1.500000X-0.338074X-0.090587X0.338074X0.090587X0*%
%ADD19C,1.524000*%
%ADD20RoundRect,0.200000X0.400000X-0.300000X0.400000X0.300000X-0.400000X0.300000X-0.400000X-0.300000X0*%
%ADD21RoundRect,0.200000X0.525000X-0.725000X0.525000X0.725000X-0.525000X0.725000X-0.525000X-0.725000X0*%
%ADD22C,3.400000*%
%ADD23RoundRect,0.200000X-0.400000X0.300000X-0.400000X-0.300000X0.400000X-0.300000X0.400000X0.300000X0*%
%ADD24RoundRect,0.200000X-0.525000X0.725000X-0.525000X-0.725000X0.525000X-0.725000X0.525000X0.725000X0*%
%ADD25C,4.700000*%
%ADD26C,2.600000*%
%ADD27C,0.700000*%
%ADD28RoundRect,0.200000X0.850000X-0.850000X0.850000X0.850000X-0.850000X0.850000X-0.850000X-0.850000X0*%
%ADD29O,2.100000X2.100000*%
%ADD30RoundRect,0.450000X-1.500000X0.250000X-1.500000X-0.250000X1.500000X-0.250000X1.500000X0.250000X0*%
%ADD31RoundRect,0.450001X-1.449999X0.499999X-1.449999X-0.499999X1.449999X-0.499999X1.449999X0.499999X0*%
%ADD32RoundRect,0.450000X1.500000X-0.250000X1.500000X0.250000X-1.500000X0.250000X-1.500000X-0.250000X0*%
%ADD33RoundRect,0.450001X1.449999X-0.499999X1.449999X0.499999X-1.449999X0.499999X-1.449999X-0.499999X0*%
%ADD34C,1.300000*%
G04 APERTURE END LIST*
D10*
X51173273Y-58687142D02*
X51125654Y-58734761D01*
X50982797Y-58782380D01*
X50887559Y-58782380D01*
X50744702Y-58734761D01*
X50649464Y-58639523D01*
X50601845Y-58544285D01*
X50554226Y-58353809D01*
X50554226Y-58210952D01*
X50601845Y-58020476D01*
X50649464Y-57925238D01*
X50744702Y-57830000D01*
X50887559Y-57782380D01*
X50982797Y-57782380D01*
X51125654Y-57830000D01*
X51173273Y-57877619D01*
X51744702Y-58782380D02*
X51649464Y-58734761D01*
X51601845Y-58687142D01*
X51554226Y-58591904D01*
X51554226Y-58306190D01*
X51601845Y-58210952D01*
X51649464Y-58163333D01*
X51744702Y-58115714D01*
X51887559Y-58115714D01*
X51982797Y-58163333D01*
X52030416Y-58210952D01*
X52078035Y-58306190D01*
X52078035Y-58591904D01*
X52030416Y-58687142D01*
X51982797Y-58734761D01*
X51887559Y-58782380D01*
X51744702Y-58782380D01*
X52506607Y-58782380D02*
X52506607Y-58115714D01*
X52506607Y-58306190D02*
X52554226Y-58210952D01*
X52601845Y-58163333D01*
X52697083Y-58115714D01*
X52792321Y-58115714D01*
X53125654Y-58115714D02*
X53125654Y-58782380D01*
X53125654Y-58210952D02*
X53173273Y-58163333D01*
X53268511Y-58115714D01*
X53411369Y-58115714D01*
X53506607Y-58163333D01*
X53554226Y-58258571D01*
X53554226Y-58782380D01*
X54411369Y-58734761D02*
X54316130Y-58782380D01*
X54125654Y-58782380D01*
X54030416Y-58734761D01*
X53982797Y-58639523D01*
X53982797Y-58258571D01*
X54030416Y-58163333D01*
X54125654Y-58115714D01*
X54316130Y-58115714D01*
X54411369Y-58163333D01*
X54458988Y-58258571D01*
X54458988Y-58353809D01*
X53982797Y-58449047D01*
X56220892Y-58687142D02*
X56173273Y-58734761D01*
X56030416Y-58782380D01*
X55935178Y-58782380D01*
X55792321Y-58734761D01*
X55697083Y-58639523D01*
X55649464Y-58544285D01*
X55601845Y-58353809D01*
X55601845Y-58210952D01*
X55649464Y-58020476D01*
X55697083Y-57925238D01*
X55792321Y-57830000D01*
X55935178Y-57782380D01*
X56030416Y-57782380D01*
X56173273Y-57830000D01*
X56220892Y-57877619D01*
X56649464Y-58782380D02*
X56649464Y-57782380D01*
X57078035Y-58782380D02*
X57078035Y-58258571D01*
X57030416Y-58163333D01*
X56935178Y-58115714D01*
X56792321Y-58115714D01*
X56697083Y-58163333D01*
X56649464Y-58210952D01*
X57935178Y-58734761D02*
X57839940Y-58782380D01*
X57649464Y-58782380D01*
X57554226Y-58734761D01*
X57506607Y-58639523D01*
X57506607Y-58258571D01*
X57554226Y-58163333D01*
X57649464Y-58115714D01*
X57839940Y-58115714D01*
X57935178Y-58163333D01*
X57982797Y-58258571D01*
X57982797Y-58353809D01*
X57506607Y-58449047D01*
X58411369Y-58782380D02*
X58411369Y-58115714D01*
X58411369Y-58306190D02*
X58458988Y-58210952D01*
X58506607Y-58163333D01*
X58601845Y-58115714D01*
X58697083Y-58115714D01*
X59030416Y-58782380D02*
X59030416Y-58115714D01*
X59030416Y-58306190D02*
X59078035Y-58210952D01*
X59125654Y-58163333D01*
X59220892Y-58115714D01*
X59316130Y-58115714D01*
X59554226Y-58115714D02*
X59792321Y-58782380D01*
X60030416Y-58115714D02*
X59792321Y-58782380D01*
X59697083Y-59020476D01*
X59649464Y-59068095D01*
X59554226Y-59115714D01*
X61078035Y-58115714D02*
X61316130Y-58782380D01*
X61554226Y-58115714D01*
X61839940Y-57782380D02*
X62458988Y-57782380D01*
X62125654Y-58163333D01*
X62268511Y-58163333D01*
X62363750Y-58210952D01*
X62411369Y-58258571D01*
X62458988Y-58353809D01*
X62458988Y-58591904D01*
X62411369Y-58687142D01*
X62363750Y-58734761D01*
X62268511Y-58782380D01*
X61982797Y-58782380D01*
X61887559Y-58734761D01*
X61839940Y-58687142D01*
X62887559Y-58687142D02*
X62935178Y-58734761D01*
X62887559Y-58782380D01*
X62839940Y-58734761D01*
X62887559Y-58687142D01*
X62887559Y-58782380D01*
X63554226Y-57782380D02*
X63649464Y-57782380D01*
X63744702Y-57830000D01*
X63792321Y-57877619D01*
X63839940Y-57972857D01*
X63887559Y-58163333D01*
X63887559Y-58401428D01*
X63839940Y-58591904D01*
X63792321Y-58687142D01*
X63744702Y-58734761D01*
X63649464Y-58782380D01*
X63554226Y-58782380D01*
X63458988Y-58734761D01*
X63411369Y-58687142D01*
X63363750Y-58591904D01*
X63316130Y-58401428D01*
X63316130Y-58163333D01*
X63363750Y-57972857D01*
X63411369Y-57877619D01*
X63458988Y-57830000D01*
X63554226Y-57782380D01*
X64316130Y-58687142D02*
X64363750Y-58734761D01*
X64316130Y-58782380D01*
X64268511Y-58734761D01*
X64316130Y-58687142D01*
X64316130Y-58782380D01*
X65316130Y-58782380D02*
X64744702Y-58782380D01*
X65030416Y-58782380D02*
X65030416Y-57782380D01*
X64935178Y-57925238D01*
X64839940Y-58020476D01*
X64744702Y-58068095D01*
X66506607Y-58782380D02*
X66506607Y-57782380D01*
X66887559Y-57782380D01*
X66982797Y-57830000D01*
X67030416Y-57877619D01*
X67078035Y-57972857D01*
X67078035Y-58115714D01*
X67030416Y-58210952D01*
X66982797Y-58258571D01*
X66887559Y-58306190D01*
X66506607Y-58306190D01*
X68078035Y-58687142D02*
X68030416Y-58734761D01*
X67887559Y-58782380D01*
X67792321Y-58782380D01*
X67649464Y-58734761D01*
X67554226Y-58639523D01*
X67506607Y-58544285D01*
X67458988Y-58353809D01*
X67458988Y-58210952D01*
X67506607Y-58020476D01*
X67554226Y-57925238D01*
X67649464Y-57830000D01*
X67792321Y-57782380D01*
X67887559Y-57782380D01*
X68030416Y-57830000D01*
X68078035Y-57877619D01*
X68839940Y-58258571D02*
X68982797Y-58306190D01*
X69030416Y-58353809D01*
X69078035Y-58449047D01*
X69078035Y-58591904D01*
X69030416Y-58687142D01*
X68982797Y-58734761D01*
X68887559Y-58782380D01*
X68506607Y-58782380D01*
X68506607Y-57782380D01*
X68839940Y-57782380D01*
X68935178Y-57830000D01*
X68982797Y-57877619D01*
X69030416Y-57972857D01*
X69030416Y-58068095D01*
X68982797Y-58163333D01*
X68935178Y-58210952D01*
X68839940Y-58258571D01*
X68506607Y-58258571D01*
X70268511Y-58782380D02*
X70268511Y-57782380D01*
X70506607Y-57782380D01*
X70649464Y-57830000D01*
X70744702Y-57925238D01*
X70792321Y-58020476D01*
X70839940Y-58210952D01*
X70839940Y-58353809D01*
X70792321Y-58544285D01*
X70744702Y-58639523D01*
X70649464Y-58734761D01*
X70506607Y-58782380D01*
X70268511Y-58782380D01*
X71649464Y-58734761D02*
X71554226Y-58782380D01*
X71363750Y-58782380D01*
X71268511Y-58734761D01*
X71220892Y-58639523D01*
X71220892Y-58258571D01*
X71268511Y-58163333D01*
X71363750Y-58115714D01*
X71554226Y-58115714D01*
X71649464Y-58163333D01*
X71697083Y-58258571D01*
X71697083Y-58353809D01*
X71220892Y-58449047D01*
X72078035Y-58734761D02*
X72173273Y-58782380D01*
X72363750Y-58782380D01*
X72458988Y-58734761D01*
X72506607Y-58639523D01*
X72506607Y-58591904D01*
X72458988Y-58496666D01*
X72363750Y-58449047D01*
X72220892Y-58449047D01*
X72125654Y-58401428D01*
X72078035Y-58306190D01*
X72078035Y-58258571D01*
X72125654Y-58163333D01*
X72220892Y-58115714D01*
X72363750Y-58115714D01*
X72458988Y-58163333D01*
X72935178Y-58782380D02*
X72935178Y-58115714D01*
X72935178Y-57782380D02*
X72887559Y-57830000D01*
X72935178Y-57877619D01*
X72982797Y-57830000D01*
X72935178Y-57782380D01*
X72935178Y-57877619D01*
X73839940Y-58115714D02*
X73839940Y-58925238D01*
X73792321Y-59020476D01*
X73744702Y-59068095D01*
X73649464Y-59115714D01*
X73506607Y-59115714D01*
X73411369Y-59068095D01*
X73839940Y-58734761D02*
X73744702Y-58782380D01*
X73554226Y-58782380D01*
X73458988Y-58734761D01*
X73411369Y-58687142D01*
X73363750Y-58591904D01*
X73363750Y-58306190D01*
X73411369Y-58210952D01*
X73458988Y-58163333D01*
X73554226Y-58115714D01*
X73744702Y-58115714D01*
X73839940Y-58163333D01*
X74316130Y-58115714D02*
X74316130Y-58782380D01*
X74316130Y-58210952D02*
X74363750Y-58163333D01*
X74458988Y-58115714D01*
X74601845Y-58115714D01*
X74697083Y-58163333D01*
X74744702Y-58258571D01*
X74744702Y-58782380D01*
X75601845Y-58734761D02*
X75506607Y-58782380D01*
X75316130Y-58782380D01*
X75220892Y-58734761D01*
X75173273Y-58639523D01*
X75173273Y-58258571D01*
X75220892Y-58163333D01*
X75316130Y-58115714D01*
X75506607Y-58115714D01*
X75601845Y-58163333D01*
X75649464Y-58258571D01*
X75649464Y-58353809D01*
X75173273Y-58449047D01*
X76506607Y-58782380D02*
X76506607Y-57782380D01*
X76506607Y-58734761D02*
X76411369Y-58782380D01*
X76220892Y-58782380D01*
X76125654Y-58734761D01*
X76078035Y-58687142D01*
X76030416Y-58591904D01*
X76030416Y-58306190D01*
X76078035Y-58210952D01*
X76125654Y-58163333D01*
X76220892Y-58115714D01*
X76411369Y-58115714D01*
X76506607Y-58163333D01*
X77744702Y-58782380D02*
X77744702Y-57782380D01*
X77744702Y-58163333D02*
X77839940Y-58115714D01*
X78030416Y-58115714D01*
X78125654Y-58163333D01*
X78173273Y-58210952D01*
X78220892Y-58306190D01*
X78220892Y-58591904D01*
X78173273Y-58687142D01*
X78125654Y-58734761D01*
X78030416Y-58782380D01*
X77839940Y-58782380D01*
X77744702Y-58734761D01*
X78554226Y-58115714D02*
X78792321Y-58782380D01*
X79030416Y-58115714D02*
X78792321Y-58782380D01*
X78697083Y-59020476D01*
X78649464Y-59068095D01*
X78554226Y-59115714D01*
X80030416Y-58115714D02*
X80411369Y-58115714D01*
X80173273Y-58782380D02*
X80173273Y-57925238D01*
X80220892Y-57830000D01*
X80316130Y-57782380D01*
X80411369Y-57782380D01*
X80887559Y-58782380D02*
X80792321Y-58734761D01*
X80744702Y-58687142D01*
X80697083Y-58591904D01*
X80697083Y-58306190D01*
X80744702Y-58210952D01*
X80792321Y-58163333D01*
X80887559Y-58115714D01*
X81030416Y-58115714D01*
X81125654Y-58163333D01*
X81173273Y-58210952D01*
X81220892Y-58306190D01*
X81220892Y-58591904D01*
X81173273Y-58687142D01*
X81125654Y-58734761D01*
X81030416Y-58782380D01*
X80887559Y-58782380D01*
X81792321Y-58782380D02*
X81697083Y-58734761D01*
X81649464Y-58687142D01*
X81601845Y-58591904D01*
X81601845Y-58306190D01*
X81649464Y-58210952D01*
X81697083Y-58163333D01*
X81792321Y-58115714D01*
X81935178Y-58115714D01*
X82030416Y-58163333D01*
X82078035Y-58210952D01*
X82125654Y-58306190D01*
X82125654Y-58591904D01*
X82078035Y-58687142D01*
X82030416Y-58734761D01*
X81935178Y-58782380D01*
X81792321Y-58782380D01*
X82506607Y-58734761D02*
X82601845Y-58782380D01*
X82792321Y-58782380D01*
X82887559Y-58734761D01*
X82935178Y-58639523D01*
X82935178Y-58591904D01*
X82887559Y-58496666D01*
X82792321Y-58449047D01*
X82649464Y-58449047D01*
X82554226Y-58401428D01*
X82506607Y-58306190D01*
X82506607Y-58258571D01*
X82554226Y-58163333D01*
X82649464Y-58115714D01*
X82792321Y-58115714D01*
X82887559Y-58163333D01*
X83220892Y-58115714D02*
X83601845Y-58115714D01*
X83363749Y-57782380D02*
X83363749Y-58639523D01*
X83411369Y-58734761D01*
X83506607Y-58782380D01*
X83601845Y-58782380D01*
X84363749Y-58782380D02*
X84363749Y-58258571D01*
X84316130Y-58163333D01*
X84220892Y-58115714D01*
X84030416Y-58115714D01*
X83935178Y-58163333D01*
X84363749Y-58734761D02*
X84268511Y-58782380D01*
X84030416Y-58782380D01*
X83935178Y-58734761D01*
X83887559Y-58639523D01*
X83887559Y-58544285D01*
X83935178Y-58449047D01*
X84030416Y-58401428D01*
X84268511Y-58401428D01*
X84363749Y-58353809D01*
X84839940Y-58115714D02*
X84839940Y-58782380D01*
X84839940Y-58210952D02*
X84887559Y-58163333D01*
X84982797Y-58115714D01*
X85125654Y-58115714D01*
X85220892Y-58163333D01*
X85268511Y-58258571D01*
X85268511Y-58782380D01*
X212723273Y-58687142D02*
X212675654Y-58734761D01*
X212532797Y-58782380D01*
X212437559Y-58782380D01*
X212294702Y-58734761D01*
X212199464Y-58639523D01*
X212151845Y-58544285D01*
X212104226Y-58353809D01*
X212104226Y-58210952D01*
X212151845Y-58020476D01*
X212199464Y-57925238D01*
X212294702Y-57830000D01*
X212437559Y-57782380D01*
X212532797Y-57782380D01*
X212675654Y-57830000D01*
X212723273Y-57877619D01*
X213294702Y-58782380D02*
X213199464Y-58734761D01*
X213151845Y-58687142D01*
X213104226Y-58591904D01*
X213104226Y-58306190D01*
X213151845Y-58210952D01*
X213199464Y-58163333D01*
X213294702Y-58115714D01*
X213437559Y-58115714D01*
X213532797Y-58163333D01*
X213580416Y-58210952D01*
X213628035Y-58306190D01*
X213628035Y-58591904D01*
X213580416Y-58687142D01*
X213532797Y-58734761D01*
X213437559Y-58782380D01*
X213294702Y-58782380D01*
X214056607Y-58782380D02*
X214056607Y-58115714D01*
X214056607Y-58306190D02*
X214104226Y-58210952D01*
X214151845Y-58163333D01*
X214247083Y-58115714D01*
X214342321Y-58115714D01*
X214675654Y-58115714D02*
X214675654Y-58782380D01*
X214675654Y-58210952D02*
X214723273Y-58163333D01*
X214818511Y-58115714D01*
X214961369Y-58115714D01*
X215056607Y-58163333D01*
X215104226Y-58258571D01*
X215104226Y-58782380D01*
X215961369Y-58734761D02*
X215866130Y-58782380D01*
X215675654Y-58782380D01*
X215580416Y-58734761D01*
X215532797Y-58639523D01*
X215532797Y-58258571D01*
X215580416Y-58163333D01*
X215675654Y-58115714D01*
X215866130Y-58115714D01*
X215961369Y-58163333D01*
X216008988Y-58258571D01*
X216008988Y-58353809D01*
X215532797Y-58449047D01*
X217770892Y-58687142D02*
X217723273Y-58734761D01*
X217580416Y-58782380D01*
X217485178Y-58782380D01*
X217342321Y-58734761D01*
X217247083Y-58639523D01*
X217199464Y-58544285D01*
X217151845Y-58353809D01*
X217151845Y-58210952D01*
X217199464Y-58020476D01*
X217247083Y-57925238D01*
X217342321Y-57830000D01*
X217485178Y-57782380D01*
X217580416Y-57782380D01*
X217723273Y-57830000D01*
X217770892Y-57877619D01*
X218199464Y-58782380D02*
X218199464Y-57782380D01*
X218628035Y-58782380D02*
X218628035Y-58258571D01*
X218580416Y-58163333D01*
X218485178Y-58115714D01*
X218342321Y-58115714D01*
X218247083Y-58163333D01*
X218199464Y-58210952D01*
X219485178Y-58734761D02*
X219389940Y-58782380D01*
X219199464Y-58782380D01*
X219104226Y-58734761D01*
X219056607Y-58639523D01*
X219056607Y-58258571D01*
X219104226Y-58163333D01*
X219199464Y-58115714D01*
X219389940Y-58115714D01*
X219485178Y-58163333D01*
X219532797Y-58258571D01*
X219532797Y-58353809D01*
X219056607Y-58449047D01*
X219961369Y-58782380D02*
X219961369Y-58115714D01*
X219961369Y-58306190D02*
X220008988Y-58210952D01*
X220056607Y-58163333D01*
X220151845Y-58115714D01*
X220247083Y-58115714D01*
X220580416Y-58782380D02*
X220580416Y-58115714D01*
X220580416Y-58306190D02*
X220628035Y-58210952D01*
X220675654Y-58163333D01*
X220770892Y-58115714D01*
X220866130Y-58115714D01*
X221104226Y-58115714D02*
X221342321Y-58782380D01*
X221580416Y-58115714D02*
X221342321Y-58782380D01*
X221247083Y-59020476D01*
X221199464Y-59068095D01*
X221104226Y-59115714D01*
X222628035Y-58115714D02*
X222866130Y-58782380D01*
X223104226Y-58115714D01*
X223389940Y-57782380D02*
X224008988Y-57782380D01*
X223675654Y-58163333D01*
X223818511Y-58163333D01*
X223913750Y-58210952D01*
X223961369Y-58258571D01*
X224008988Y-58353809D01*
X224008988Y-58591904D01*
X223961369Y-58687142D01*
X223913750Y-58734761D01*
X223818511Y-58782380D01*
X223532797Y-58782380D01*
X223437559Y-58734761D01*
X223389940Y-58687142D01*
X224437559Y-58687142D02*
X224485178Y-58734761D01*
X224437559Y-58782380D01*
X224389940Y-58734761D01*
X224437559Y-58687142D01*
X224437559Y-58782380D01*
X225104226Y-57782380D02*
X225199464Y-57782380D01*
X225294702Y-57830000D01*
X225342321Y-57877619D01*
X225389940Y-57972857D01*
X225437559Y-58163333D01*
X225437559Y-58401428D01*
X225389940Y-58591904D01*
X225342321Y-58687142D01*
X225294702Y-58734761D01*
X225199464Y-58782380D01*
X225104226Y-58782380D01*
X225008988Y-58734761D01*
X224961369Y-58687142D01*
X224913750Y-58591904D01*
X224866130Y-58401428D01*
X224866130Y-58163333D01*
X224913750Y-57972857D01*
X224961369Y-57877619D01*
X225008988Y-57830000D01*
X225104226Y-57782380D01*
X225866130Y-58687142D02*
X225913750Y-58734761D01*
X225866130Y-58782380D01*
X225818511Y-58734761D01*
X225866130Y-58687142D01*
X225866130Y-58782380D01*
X226866130Y-58782380D02*
X226294702Y-58782380D01*
X226580416Y-58782380D02*
X226580416Y-57782380D01*
X226485178Y-57925238D01*
X226389940Y-58020476D01*
X226294702Y-58068095D01*
X228056607Y-58782380D02*
X228056607Y-57782380D01*
X228437559Y-57782380D01*
X228532797Y-57830000D01*
X228580416Y-57877619D01*
X228628035Y-57972857D01*
X228628035Y-58115714D01*
X228580416Y-58210952D01*
X228532797Y-58258571D01*
X228437559Y-58306190D01*
X228056607Y-58306190D01*
X229628035Y-58687142D02*
X229580416Y-58734761D01*
X229437559Y-58782380D01*
X229342321Y-58782380D01*
X229199464Y-58734761D01*
X229104226Y-58639523D01*
X229056607Y-58544285D01*
X229008988Y-58353809D01*
X229008988Y-58210952D01*
X229056607Y-58020476D01*
X229104226Y-57925238D01*
X229199464Y-57830000D01*
X229342321Y-57782380D01*
X229437559Y-57782380D01*
X229580416Y-57830000D01*
X229628035Y-57877619D01*
X230389940Y-58258571D02*
X230532797Y-58306190D01*
X230580416Y-58353809D01*
X230628035Y-58449047D01*
X230628035Y-58591904D01*
X230580416Y-58687142D01*
X230532797Y-58734761D01*
X230437559Y-58782380D01*
X230056607Y-58782380D01*
X230056607Y-57782380D01*
X230389940Y-57782380D01*
X230485178Y-57830000D01*
X230532797Y-57877619D01*
X230580416Y-57972857D01*
X230580416Y-58068095D01*
X230532797Y-58163333D01*
X230485178Y-58210952D01*
X230389940Y-58258571D01*
X230056607Y-58258571D01*
X231818511Y-58782380D02*
X231818511Y-57782380D01*
X232056607Y-57782380D01*
X232199464Y-57830000D01*
X232294702Y-57925238D01*
X232342321Y-58020476D01*
X232389940Y-58210952D01*
X232389940Y-58353809D01*
X232342321Y-58544285D01*
X232294702Y-58639523D01*
X232199464Y-58734761D01*
X232056607Y-58782380D01*
X231818511Y-58782380D01*
X233199464Y-58734761D02*
X233104226Y-58782380D01*
X232913750Y-58782380D01*
X232818511Y-58734761D01*
X232770892Y-58639523D01*
X232770892Y-58258571D01*
X232818511Y-58163333D01*
X232913750Y-58115714D01*
X233104226Y-58115714D01*
X233199464Y-58163333D01*
X233247083Y-58258571D01*
X233247083Y-58353809D01*
X232770892Y-58449047D01*
X233628035Y-58734761D02*
X233723273Y-58782380D01*
X233913750Y-58782380D01*
X234008988Y-58734761D01*
X234056607Y-58639523D01*
X234056607Y-58591904D01*
X234008988Y-58496666D01*
X233913750Y-58449047D01*
X233770892Y-58449047D01*
X233675654Y-58401428D01*
X233628035Y-58306190D01*
X233628035Y-58258571D01*
X233675654Y-58163333D01*
X233770892Y-58115714D01*
X233913750Y-58115714D01*
X234008988Y-58163333D01*
X234485178Y-58782380D02*
X234485178Y-58115714D01*
X234485178Y-57782380D02*
X234437559Y-57830000D01*
X234485178Y-57877619D01*
X234532797Y-57830000D01*
X234485178Y-57782380D01*
X234485178Y-57877619D01*
X235389940Y-58115714D02*
X235389940Y-58925238D01*
X235342321Y-59020476D01*
X235294702Y-59068095D01*
X235199464Y-59115714D01*
X235056607Y-59115714D01*
X234961369Y-59068095D01*
X235389940Y-58734761D02*
X235294702Y-58782380D01*
X235104226Y-58782380D01*
X235008988Y-58734761D01*
X234961369Y-58687142D01*
X234913750Y-58591904D01*
X234913750Y-58306190D01*
X234961369Y-58210952D01*
X235008988Y-58163333D01*
X235104226Y-58115714D01*
X235294702Y-58115714D01*
X235389940Y-58163333D01*
X235866130Y-58115714D02*
X235866130Y-58782380D01*
X235866130Y-58210952D02*
X235913750Y-58163333D01*
X236008988Y-58115714D01*
X236151845Y-58115714D01*
X236247083Y-58163333D01*
X236294702Y-58258571D01*
X236294702Y-58782380D01*
X237151845Y-58734761D02*
X237056607Y-58782380D01*
X236866130Y-58782380D01*
X236770892Y-58734761D01*
X236723273Y-58639523D01*
X236723273Y-58258571D01*
X236770892Y-58163333D01*
X236866130Y-58115714D01*
X237056607Y-58115714D01*
X237151845Y-58163333D01*
X237199464Y-58258571D01*
X237199464Y-58353809D01*
X236723273Y-58449047D01*
X238056607Y-58782380D02*
X238056607Y-57782380D01*
X238056607Y-58734761D02*
X237961369Y-58782380D01*
X237770892Y-58782380D01*
X237675654Y-58734761D01*
X237628035Y-58687142D01*
X237580416Y-58591904D01*
X237580416Y-58306190D01*
X237628035Y-58210952D01*
X237675654Y-58163333D01*
X237770892Y-58115714D01*
X237961369Y-58115714D01*
X238056607Y-58163333D01*
X239294702Y-58782380D02*
X239294702Y-57782380D01*
X239294702Y-58163333D02*
X239389940Y-58115714D01*
X239580416Y-58115714D01*
X239675654Y-58163333D01*
X239723273Y-58210952D01*
X239770892Y-58306190D01*
X239770892Y-58591904D01*
X239723273Y-58687142D01*
X239675654Y-58734761D01*
X239580416Y-58782380D01*
X239389940Y-58782380D01*
X239294702Y-58734761D01*
X240104226Y-58115714D02*
X240342321Y-58782380D01*
X240580416Y-58115714D02*
X240342321Y-58782380D01*
X240247083Y-59020476D01*
X240199464Y-59068095D01*
X240104226Y-59115714D01*
X241580416Y-58115714D02*
X241961369Y-58115714D01*
X241723273Y-58782380D02*
X241723273Y-57925238D01*
X241770892Y-57830000D01*
X241866130Y-57782380D01*
X241961369Y-57782380D01*
X242437559Y-58782380D02*
X242342321Y-58734761D01*
X242294702Y-58687142D01*
X242247083Y-58591904D01*
X242247083Y-58306190D01*
X242294702Y-58210952D01*
X242342321Y-58163333D01*
X242437559Y-58115714D01*
X242580416Y-58115714D01*
X242675654Y-58163333D01*
X242723273Y-58210952D01*
X242770892Y-58306190D01*
X242770892Y-58591904D01*
X242723273Y-58687142D01*
X242675654Y-58734761D01*
X242580416Y-58782380D01*
X242437559Y-58782380D01*
X243342321Y-58782380D02*
X243247083Y-58734761D01*
X243199464Y-58687142D01*
X243151845Y-58591904D01*
X243151845Y-58306190D01*
X243199464Y-58210952D01*
X243247083Y-58163333D01*
X243342321Y-58115714D01*
X243485178Y-58115714D01*
X243580416Y-58163333D01*
X243628035Y-58210952D01*
X243675654Y-58306190D01*
X243675654Y-58591904D01*
X243628035Y-58687142D01*
X243580416Y-58734761D01*
X243485178Y-58782380D01*
X243342321Y-58782380D01*
X244056607Y-58734761D02*
X244151845Y-58782380D01*
X244342321Y-58782380D01*
X244437559Y-58734761D01*
X244485178Y-58639523D01*
X244485178Y-58591904D01*
X244437559Y-58496666D01*
X244342321Y-58449047D01*
X244199464Y-58449047D01*
X244104226Y-58401428D01*
X244056607Y-58306190D01*
X244056607Y-58258571D01*
X244104226Y-58163333D01*
X244199464Y-58115714D01*
X244342321Y-58115714D01*
X244437559Y-58163333D01*
X244770892Y-58115714D02*
X245151845Y-58115714D01*
X244913750Y-57782380D02*
X244913750Y-58639523D01*
X244961369Y-58734761D01*
X245056607Y-58782380D01*
X245151845Y-58782380D01*
X245913750Y-58782380D02*
X245913750Y-58258571D01*
X245866130Y-58163333D01*
X245770892Y-58115714D01*
X245580416Y-58115714D01*
X245485178Y-58163333D01*
X245913750Y-58734761D02*
X245818511Y-58782380D01*
X245580416Y-58782380D01*
X245485178Y-58734761D01*
X245437559Y-58639523D01*
X245437559Y-58544285D01*
X245485178Y-58449047D01*
X245580416Y-58401428D01*
X245818511Y-58401428D01*
X245913750Y-58353809D01*
X246389940Y-58115714D02*
X246389940Y-58782380D01*
X246389940Y-58210952D02*
X246437559Y-58163333D01*
X246532797Y-58115714D01*
X246675654Y-58115714D01*
X246770892Y-58163333D01*
X246818511Y-58258571D01*
X246818511Y-58782380D01*
D11*
X145684880Y-68419285D02*
X145208690Y-68752619D01*
X145684880Y-68990714D02*
X144684880Y-68990714D01*
X144684880Y-68609761D01*
X144732500Y-68514523D01*
X144780119Y-68466904D01*
X144875357Y-68419285D01*
X145018214Y-68419285D01*
X145113452Y-68466904D01*
X145161071Y-68514523D01*
X145208690Y-68609761D01*
X145208690Y-68990714D01*
X145637261Y-68038333D02*
X145684880Y-67895476D01*
X145684880Y-67657380D01*
X145637261Y-67562142D01*
X145589642Y-67514523D01*
X145494404Y-67466904D01*
X145399166Y-67466904D01*
X145303928Y-67514523D01*
X145256309Y-67562142D01*
X145208690Y-67657380D01*
X145161071Y-67847857D01*
X145113452Y-67943095D01*
X145065833Y-67990714D01*
X144970595Y-68038333D01*
X144875357Y-68038333D01*
X144780119Y-67990714D01*
X144732500Y-67943095D01*
X144684880Y-67847857D01*
X144684880Y-67609761D01*
X144732500Y-67466904D01*
X144684880Y-67133571D02*
X145684880Y-66895476D01*
X144970595Y-66705000D01*
X145684880Y-66514523D01*
X144684880Y-66276428D01*
X145684880Y-65371666D02*
X145684880Y-65943095D01*
X145684880Y-65657380D02*
X144684880Y-65657380D01*
X144827738Y-65752619D01*
X144922976Y-65847857D01*
X144970595Y-65943095D01*
X152109880Y-68469285D02*
X151633690Y-68802619D01*
X152109880Y-69040714D02*
X151109880Y-69040714D01*
X151109880Y-68659761D01*
X151157500Y-68564523D01*
X151205119Y-68516904D01*
X151300357Y-68469285D01*
X151443214Y-68469285D01*
X151538452Y-68516904D01*
X151586071Y-68564523D01*
X151633690Y-68659761D01*
X151633690Y-69040714D01*
X152062261Y-68088333D02*
X152109880Y-67945476D01*
X152109880Y-67707380D01*
X152062261Y-67612142D01*
X152014642Y-67564523D01*
X151919404Y-67516904D01*
X151824166Y-67516904D01*
X151728928Y-67564523D01*
X151681309Y-67612142D01*
X151633690Y-67707380D01*
X151586071Y-67897857D01*
X151538452Y-67993095D01*
X151490833Y-68040714D01*
X151395595Y-68088333D01*
X151300357Y-68088333D01*
X151205119Y-68040714D01*
X151157500Y-67993095D01*
X151109880Y-67897857D01*
X151109880Y-67659761D01*
X151157500Y-67516904D01*
X151109880Y-67183571D02*
X152109880Y-66945476D01*
X151395595Y-66755000D01*
X152109880Y-66564523D01*
X151109880Y-66326428D01*
X151205119Y-65993095D02*
X151157500Y-65945476D01*
X151109880Y-65850238D01*
X151109880Y-65612142D01*
X151157500Y-65516904D01*
X151205119Y-65469285D01*
X151300357Y-65421666D01*
X151395595Y-65421666D01*
X151538452Y-65469285D01*
X152109880Y-66040714D01*
X152109880Y-65421666D01*
D10*
X171582023Y-36165000D02*
X171518214Y-36129285D01*
X171422500Y-36129285D01*
X171326785Y-36165000D01*
X171262976Y-36236428D01*
X171231071Y-36307857D01*
X171199166Y-36450714D01*
X171199166Y-36557857D01*
X171231071Y-36700714D01*
X171262976Y-36772142D01*
X171326785Y-36843571D01*
X171422500Y-36879285D01*
X171486309Y-36879285D01*
X171582023Y-36843571D01*
X171613928Y-36807857D01*
X171613928Y-36557857D01*
X171486309Y-36557857D01*
X171901071Y-36879285D02*
X171901071Y-36129285D01*
X172283928Y-36879285D01*
X172283928Y-36129285D01*
X172602976Y-36879285D02*
X172602976Y-36129285D01*
X172762500Y-36129285D01*
X172858214Y-36165000D01*
X172922023Y-36236428D01*
X172953928Y-36307857D01*
X172985833Y-36450714D01*
X172985833Y-36557857D01*
X172953928Y-36700714D01*
X172922023Y-36772142D01*
X172858214Y-36843571D01*
X172762500Y-36879285D01*
X172602976Y-36879285D01*
X171651309Y-56686428D02*
X171747023Y-56722142D01*
X171778928Y-56757857D01*
X171810833Y-56829285D01*
X171810833Y-56936428D01*
X171778928Y-57007857D01*
X171747023Y-57043571D01*
X171683214Y-57079285D01*
X171427976Y-57079285D01*
X171427976Y-56329285D01*
X171651309Y-56329285D01*
X171715119Y-56365000D01*
X171747023Y-56400714D01*
X171778928Y-56472142D01*
X171778928Y-56543571D01*
X171747023Y-56615000D01*
X171715119Y-56650714D01*
X171651309Y-56686428D01*
X171427976Y-56686428D01*
X172385119Y-56579285D02*
X172385119Y-57079285D01*
X172225595Y-56293571D02*
X172066071Y-56829285D01*
X172480833Y-56829285D01*
X173214642Y-56293571D02*
X172640357Y-57257857D01*
X173533690Y-56650714D02*
X173469880Y-56615000D01*
X173437976Y-56579285D01*
X173406071Y-56507857D01*
X173406071Y-56472142D01*
X173437976Y-56400714D01*
X173469880Y-56365000D01*
X173533690Y-56329285D01*
X173661309Y-56329285D01*
X173725119Y-56365000D01*
X173757023Y-56400714D01*
X173788928Y-56472142D01*
X173788928Y-56507857D01*
X173757023Y-56579285D01*
X173725119Y-56615000D01*
X173661309Y-56650714D01*
X173533690Y-56650714D01*
X173469880Y-56686428D01*
X173437976Y-56722142D01*
X173406071Y-56793571D01*
X173406071Y-56936428D01*
X173437976Y-57007857D01*
X173469880Y-57043571D01*
X173533690Y-57079285D01*
X173661309Y-57079285D01*
X173725119Y-57043571D01*
X173757023Y-57007857D01*
X173788928Y-56936428D01*
X173788928Y-56793571D01*
X173757023Y-56722142D01*
X173725119Y-56686428D01*
X173661309Y-56650714D01*
X171582023Y-38615000D02*
X171518214Y-38579285D01*
X171422500Y-38579285D01*
X171326785Y-38615000D01*
X171262976Y-38686428D01*
X171231071Y-38757857D01*
X171199166Y-38900714D01*
X171199166Y-39007857D01*
X171231071Y-39150714D01*
X171262976Y-39222142D01*
X171326785Y-39293571D01*
X171422500Y-39329285D01*
X171486309Y-39329285D01*
X171582023Y-39293571D01*
X171613928Y-39257857D01*
X171613928Y-39007857D01*
X171486309Y-39007857D01*
X171901071Y-39329285D02*
X171901071Y-38579285D01*
X172283928Y-39329285D01*
X172283928Y-38579285D01*
X172602976Y-39329285D02*
X172602976Y-38579285D01*
X172762500Y-38579285D01*
X172858214Y-38615000D01*
X172922023Y-38686428D01*
X172953928Y-38757857D01*
X172985833Y-38900714D01*
X172985833Y-39007857D01*
X172953928Y-39150714D01*
X172922023Y-39222142D01*
X172858214Y-39293571D01*
X172762500Y-39329285D01*
X172602976Y-39329285D01*
X150009880Y-57129285D02*
X149627023Y-57129285D01*
X149818452Y-57129285D02*
X149818452Y-56379285D01*
X149754642Y-56486428D01*
X149690833Y-56557857D01*
X149627023Y-56593571D01*
X150584166Y-56379285D02*
X150456547Y-56379285D01*
X150392738Y-56415000D01*
X150360833Y-56450714D01*
X150297023Y-56557857D01*
X150265119Y-56700714D01*
X150265119Y-56986428D01*
X150297023Y-57057857D01*
X150328928Y-57093571D01*
X150392738Y-57129285D01*
X150520357Y-57129285D01*
X150584166Y-57093571D01*
X150616071Y-57057857D01*
X150647976Y-56986428D01*
X150647976Y-56807857D01*
X150616071Y-56736428D01*
X150584166Y-56700714D01*
X150520357Y-56665000D01*
X150392738Y-56665000D01*
X150328928Y-56700714D01*
X150297023Y-56736428D01*
X150265119Y-56807857D01*
X151413690Y-56343571D02*
X150839404Y-57307857D01*
X151860357Y-56736428D02*
X151956071Y-56772142D01*
X151987976Y-56807857D01*
X152019880Y-56879285D01*
X152019880Y-56986428D01*
X151987976Y-57057857D01*
X151956071Y-57093571D01*
X151892261Y-57129285D01*
X151637023Y-57129285D01*
X151637023Y-56379285D01*
X151860357Y-56379285D01*
X151924166Y-56415000D01*
X151956071Y-56450714D01*
X151987976Y-56522142D01*
X151987976Y-56593571D01*
X151956071Y-56665000D01*
X151924166Y-56700714D01*
X151860357Y-56736428D01*
X151637023Y-56736428D01*
X152275119Y-56450714D02*
X152307023Y-56415000D01*
X152370833Y-56379285D01*
X152530357Y-56379285D01*
X152594166Y-56415000D01*
X152626071Y-56450714D01*
X152657976Y-56522142D01*
X152657976Y-56593571D01*
X152626071Y-56700714D01*
X152243214Y-57129285D01*
X152657976Y-57129285D01*
X171269880Y-44443571D02*
X171365595Y-44479285D01*
X171525119Y-44479285D01*
X171588928Y-44443571D01*
X171620833Y-44407857D01*
X171652738Y-44336428D01*
X171652738Y-44265000D01*
X171620833Y-44193571D01*
X171588928Y-44157857D01*
X171525119Y-44122142D01*
X171397500Y-44086428D01*
X171333690Y-44050714D01*
X171301785Y-44015000D01*
X171269880Y-43943571D01*
X171269880Y-43872142D01*
X171301785Y-43800714D01*
X171333690Y-43765000D01*
X171397500Y-43729285D01*
X171557023Y-43729285D01*
X171652738Y-43765000D01*
X172322738Y-44407857D02*
X172290833Y-44443571D01*
X172195119Y-44479285D01*
X172131309Y-44479285D01*
X172035595Y-44443571D01*
X171971785Y-44372142D01*
X171939880Y-44300714D01*
X171907976Y-44157857D01*
X171907976Y-44050714D01*
X171939880Y-43907857D01*
X171971785Y-43836428D01*
X172035595Y-43765000D01*
X172131309Y-43729285D01*
X172195119Y-43729285D01*
X172290833Y-43765000D01*
X172322738Y-43800714D01*
X172928928Y-44479285D02*
X172609880Y-44479285D01*
X172609880Y-43729285D01*
X173630833Y-43693571D02*
X173056547Y-44657857D01*
X173854166Y-44479285D02*
X173854166Y-43729285D01*
X174013690Y-43729285D01*
X174109404Y-43765000D01*
X174173214Y-43836428D01*
X174205119Y-43907857D01*
X174237023Y-44050714D01*
X174237023Y-44157857D01*
X174205119Y-44300714D01*
X174173214Y-44372142D01*
X174109404Y-44443571D01*
X174013690Y-44479285D01*
X173854166Y-44479285D01*
X174651785Y-43729285D02*
X174715595Y-43729285D01*
X174779404Y-43765000D01*
X174811309Y-43800714D01*
X174843214Y-43872142D01*
X174875119Y-44015000D01*
X174875119Y-44193571D01*
X174843214Y-44336428D01*
X174811309Y-44407857D01*
X174779404Y-44443571D01*
X174715595Y-44479285D01*
X174651785Y-44479285D01*
X174587976Y-44443571D01*
X174556071Y-44407857D01*
X174524166Y-44336428D01*
X174492261Y-44193571D01*
X174492261Y-44015000D01*
X174524166Y-43872142D01*
X174556071Y-43800714D01*
X174587976Y-43765000D01*
X174651785Y-43729285D01*
X175640833Y-43693571D02*
X175066547Y-44657857D01*
X175800357Y-43729285D02*
X176215119Y-43729285D01*
X175991785Y-44015000D01*
X176087500Y-44015000D01*
X176151309Y-44050714D01*
X176183214Y-44086428D01*
X176215119Y-44157857D01*
X176215119Y-44336428D01*
X176183214Y-44407857D01*
X176151309Y-44443571D01*
X176087500Y-44479285D01*
X175896071Y-44479285D01*
X175832261Y-44443571D01*
X175800357Y-44407857D01*
X149706785Y-44215000D02*
X150025833Y-44215000D01*
X149642976Y-44429285D02*
X149866309Y-43679285D01*
X150089642Y-44429285D01*
X150281071Y-43750714D02*
X150312976Y-43715000D01*
X150376785Y-43679285D01*
X150536309Y-43679285D01*
X150600119Y-43715000D01*
X150632023Y-43750714D01*
X150663928Y-43822142D01*
X150663928Y-43893571D01*
X150632023Y-44000714D01*
X150249166Y-44429285D01*
X150663928Y-44429285D01*
X151429642Y-43643571D02*
X150855357Y-44607857D01*
X151876309Y-44036428D02*
X151652976Y-44036428D01*
X151652976Y-44429285D02*
X151652976Y-43679285D01*
X151972023Y-43679285D01*
X152546309Y-43679285D02*
X152227261Y-43679285D01*
X152195357Y-44036428D01*
X152227261Y-44000714D01*
X152291071Y-43965000D01*
X152450595Y-43965000D01*
X152514404Y-44000714D01*
X152546309Y-44036428D01*
X152578214Y-44107857D01*
X152578214Y-44286428D01*
X152546309Y-44357857D01*
X152514404Y-44393571D01*
X152450595Y-44429285D01*
X152291071Y-44429285D01*
X152227261Y-44393571D01*
X152195357Y-44357857D01*
X151425595Y-36779285D02*
X151202261Y-36422142D01*
X151042738Y-36779285D02*
X151042738Y-36029285D01*
X151297976Y-36029285D01*
X151361785Y-36065000D01*
X151393690Y-36100714D01*
X151425595Y-36172142D01*
X151425595Y-36279285D01*
X151393690Y-36350714D01*
X151361785Y-36386428D01*
X151297976Y-36422142D01*
X151042738Y-36422142D01*
X151680833Y-36743571D02*
X151776547Y-36779285D01*
X151936071Y-36779285D01*
X151999880Y-36743571D01*
X152031785Y-36707857D01*
X152063690Y-36636428D01*
X152063690Y-36565000D01*
X152031785Y-36493571D01*
X151999880Y-36457857D01*
X151936071Y-36422142D01*
X151808452Y-36386428D01*
X151744642Y-36350714D01*
X151712738Y-36315000D01*
X151680833Y-36243571D01*
X151680833Y-36172142D01*
X151712738Y-36100714D01*
X151744642Y-36065000D01*
X151808452Y-36029285D01*
X151967976Y-36029285D01*
X152063690Y-36065000D01*
X152255119Y-36029285D02*
X152637976Y-36029285D01*
X152446547Y-36779285D02*
X152446547Y-36029285D01*
X151282023Y-33515000D02*
X151218214Y-33479285D01*
X151122500Y-33479285D01*
X151026785Y-33515000D01*
X150962976Y-33586428D01*
X150931071Y-33657857D01*
X150899166Y-33800714D01*
X150899166Y-33907857D01*
X150931071Y-34050714D01*
X150962976Y-34122142D01*
X151026785Y-34193571D01*
X151122500Y-34229285D01*
X151186309Y-34229285D01*
X151282023Y-34193571D01*
X151313928Y-34157857D01*
X151313928Y-33907857D01*
X151186309Y-33907857D01*
X151601071Y-34229285D02*
X151601071Y-33479285D01*
X151983928Y-34229285D01*
X151983928Y-33479285D01*
X152302976Y-34229285D02*
X152302976Y-33479285D01*
X152462500Y-33479285D01*
X152558214Y-33515000D01*
X152622023Y-33586428D01*
X152653928Y-33657857D01*
X152685833Y-33800714D01*
X152685833Y-33907857D01*
X152653928Y-34050714D01*
X152622023Y-34122142D01*
X152558214Y-34193571D01*
X152462500Y-34229285D01*
X152302976Y-34229285D01*
X171303690Y-31729285D02*
X171303690Y-30979285D01*
X171463214Y-30979285D01*
X171558928Y-31015000D01*
X171622738Y-31086428D01*
X171654642Y-31157857D01*
X171686547Y-31300714D01*
X171686547Y-31407857D01*
X171654642Y-31550714D01*
X171622738Y-31622142D01*
X171558928Y-31693571D01*
X171463214Y-31729285D01*
X171303690Y-31729285D01*
X171909880Y-30979285D02*
X172324642Y-30979285D01*
X172101309Y-31265000D01*
X172197023Y-31265000D01*
X172260833Y-31300714D01*
X172292738Y-31336428D01*
X172324642Y-31407857D01*
X172324642Y-31586428D01*
X172292738Y-31657857D01*
X172260833Y-31693571D01*
X172197023Y-31729285D01*
X172005595Y-31729285D01*
X171941785Y-31693571D01*
X171909880Y-31657857D01*
X173090357Y-30943571D02*
X172516071Y-31907857D01*
X173217976Y-30979285D02*
X173600833Y-30979285D01*
X173409404Y-31729285D02*
X173409404Y-30979285D01*
X173760357Y-30979285D02*
X174207023Y-31729285D01*
X174207023Y-30979285D02*
X173760357Y-31729285D01*
X174589880Y-30979285D02*
X174653690Y-30979285D01*
X174717500Y-31015000D01*
X174749404Y-31050714D01*
X174781309Y-31122142D01*
X174813214Y-31265000D01*
X174813214Y-31443571D01*
X174781309Y-31586428D01*
X174749404Y-31657857D01*
X174717500Y-31693571D01*
X174653690Y-31729285D01*
X174589880Y-31729285D01*
X174526071Y-31693571D01*
X174494166Y-31657857D01*
X174462261Y-31586428D01*
X174430357Y-31443571D01*
X174430357Y-31265000D01*
X174462261Y-31122142D01*
X174494166Y-31050714D01*
X174526071Y-31015000D01*
X174589880Y-30979285D01*
X171253928Y-41943571D02*
X171349642Y-41979285D01*
X171509166Y-41979285D01*
X171572976Y-41943571D01*
X171604880Y-41907857D01*
X171636785Y-41836428D01*
X171636785Y-41765000D01*
X171604880Y-41693571D01*
X171572976Y-41657857D01*
X171509166Y-41622142D01*
X171381547Y-41586428D01*
X171317738Y-41550714D01*
X171285833Y-41515000D01*
X171253928Y-41443571D01*
X171253928Y-41372142D01*
X171285833Y-41300714D01*
X171317738Y-41265000D01*
X171381547Y-41229285D01*
X171541071Y-41229285D01*
X171636785Y-41265000D01*
X171923928Y-41979285D02*
X171923928Y-41229285D01*
X172083452Y-41229285D01*
X172179166Y-41265000D01*
X172242976Y-41336428D01*
X172274880Y-41407857D01*
X172306785Y-41550714D01*
X172306785Y-41657857D01*
X172274880Y-41800714D01*
X172242976Y-41872142D01*
X172179166Y-41943571D01*
X172083452Y-41979285D01*
X171923928Y-41979285D01*
X172562023Y-41765000D02*
X172881071Y-41765000D01*
X172498214Y-41979285D02*
X172721547Y-41229285D01*
X172944880Y-41979285D01*
X173646785Y-41193571D02*
X173072500Y-42157857D01*
X173870119Y-41979285D02*
X173870119Y-41229285D01*
X174029642Y-41229285D01*
X174125357Y-41265000D01*
X174189166Y-41336428D01*
X174221071Y-41407857D01*
X174252976Y-41550714D01*
X174252976Y-41657857D01*
X174221071Y-41800714D01*
X174189166Y-41872142D01*
X174125357Y-41943571D01*
X174029642Y-41979285D01*
X173870119Y-41979285D01*
X174891071Y-41979285D02*
X174508214Y-41979285D01*
X174699642Y-41979285D02*
X174699642Y-41229285D01*
X174635833Y-41336428D01*
X174572023Y-41407857D01*
X174508214Y-41443571D01*
X175656785Y-41193571D02*
X175082500Y-42157857D01*
X175848214Y-41300714D02*
X175880119Y-41265000D01*
X175943928Y-41229285D01*
X176103452Y-41229285D01*
X176167261Y-41265000D01*
X176199166Y-41300714D01*
X176231071Y-41372142D01*
X176231071Y-41443571D01*
X176199166Y-41550714D01*
X175816309Y-41979285D01*
X176231071Y-41979285D01*
X149706785Y-49265000D02*
X150025833Y-49265000D01*
X149642976Y-49479285D02*
X149866309Y-48729285D01*
X150089642Y-49479285D01*
X150440595Y-48729285D02*
X150504404Y-48729285D01*
X150568214Y-48765000D01*
X150600119Y-48800714D01*
X150632023Y-48872142D01*
X150663928Y-49015000D01*
X150663928Y-49193571D01*
X150632023Y-49336428D01*
X150600119Y-49407857D01*
X150568214Y-49443571D01*
X150504404Y-49479285D01*
X150440595Y-49479285D01*
X150376785Y-49443571D01*
X150344880Y-49407857D01*
X150312976Y-49336428D01*
X150281071Y-49193571D01*
X150281071Y-49015000D01*
X150312976Y-48872142D01*
X150344880Y-48800714D01*
X150376785Y-48765000D01*
X150440595Y-48729285D01*
X151429642Y-48693571D02*
X150855357Y-49657857D01*
X151876309Y-49086428D02*
X151652976Y-49086428D01*
X151652976Y-49479285D02*
X151652976Y-48729285D01*
X151972023Y-48729285D01*
X152163452Y-48729285D02*
X152610119Y-48729285D01*
X152322976Y-49479285D01*
X149706785Y-46715000D02*
X150025833Y-46715000D01*
X149642976Y-46929285D02*
X149866309Y-46179285D01*
X150089642Y-46929285D01*
X150663928Y-46929285D02*
X150281071Y-46929285D01*
X150472500Y-46929285D02*
X150472500Y-46179285D01*
X150408690Y-46286428D01*
X150344880Y-46357857D01*
X150281071Y-46393571D01*
X151429642Y-46143571D02*
X150855357Y-47107857D01*
X151876309Y-46536428D02*
X151652976Y-46536428D01*
X151652976Y-46929285D02*
X151652976Y-46179285D01*
X151972023Y-46179285D01*
X152514404Y-46179285D02*
X152386785Y-46179285D01*
X152322976Y-46215000D01*
X152291071Y-46250714D01*
X152227261Y-46357857D01*
X152195357Y-46500714D01*
X152195357Y-46786428D01*
X152227261Y-46857857D01*
X152259166Y-46893571D01*
X152322976Y-46929285D01*
X152450595Y-46929285D01*
X152514404Y-46893571D01*
X152546309Y-46857857D01*
X152578214Y-46786428D01*
X152578214Y-46607857D01*
X152546309Y-46536428D01*
X152514404Y-46500714D01*
X152450595Y-46465000D01*
X152322976Y-46465000D01*
X152259166Y-46500714D01*
X152227261Y-46536428D01*
X152195357Y-46607857D01*
X171459880Y-54136428D02*
X171683214Y-54136428D01*
X171778928Y-54529285D02*
X171459880Y-54529285D01*
X171459880Y-53779285D01*
X171778928Y-53779285D01*
X172353214Y-53779285D02*
X172225595Y-53779285D01*
X172161785Y-53815000D01*
X172129880Y-53850714D01*
X172066071Y-53957857D01*
X172034166Y-54100714D01*
X172034166Y-54386428D01*
X172066071Y-54457857D01*
X172097976Y-54493571D01*
X172161785Y-54529285D01*
X172289404Y-54529285D01*
X172353214Y-54493571D01*
X172385119Y-54457857D01*
X172417023Y-54386428D01*
X172417023Y-54207857D01*
X172385119Y-54136428D01*
X172353214Y-54100714D01*
X172289404Y-54065000D01*
X172161785Y-54065000D01*
X172097976Y-54100714D01*
X172066071Y-54136428D01*
X172034166Y-54207857D01*
X173182738Y-53743571D02*
X172608452Y-54707857D01*
X173342261Y-53779285D02*
X173788928Y-53779285D01*
X173501785Y-54529285D01*
X151329880Y-31679285D02*
X151106547Y-31322142D01*
X150947023Y-31679285D02*
X150947023Y-30929285D01*
X151202261Y-30929285D01*
X151266071Y-30965000D01*
X151297976Y-31000714D01*
X151329880Y-31072142D01*
X151329880Y-31179285D01*
X151297976Y-31250714D01*
X151266071Y-31286428D01*
X151202261Y-31322142D01*
X150947023Y-31322142D01*
X151585119Y-31465000D02*
X151904166Y-31465000D01*
X151521309Y-31679285D02*
X151744642Y-30929285D01*
X151967976Y-31679285D01*
X152127500Y-30929285D02*
X152287023Y-31679285D01*
X152414642Y-31143571D01*
X152542261Y-31679285D01*
X152701785Y-30929285D01*
X171427976Y-51979285D02*
X171427976Y-51229285D01*
X171587500Y-51229285D01*
X171683214Y-51265000D01*
X171747023Y-51336428D01*
X171778928Y-51407857D01*
X171810833Y-51550714D01*
X171810833Y-51657857D01*
X171778928Y-51800714D01*
X171747023Y-51872142D01*
X171683214Y-51943571D01*
X171587500Y-51979285D01*
X171427976Y-51979285D01*
X172034166Y-51229285D02*
X172480833Y-51229285D01*
X172193690Y-51979285D01*
X173214642Y-51193571D02*
X172640357Y-52157857D01*
X173725119Y-51229285D02*
X173597500Y-51229285D01*
X173533690Y-51265000D01*
X173501785Y-51300714D01*
X173437976Y-51407857D01*
X173406071Y-51550714D01*
X173406071Y-51836428D01*
X173437976Y-51907857D01*
X173469880Y-51943571D01*
X173533690Y-51979285D01*
X173661309Y-51979285D01*
X173725119Y-51943571D01*
X173757023Y-51907857D01*
X173788928Y-51836428D01*
X173788928Y-51657857D01*
X173757023Y-51586428D01*
X173725119Y-51550714D01*
X173661309Y-51515000D01*
X173533690Y-51515000D01*
X173469880Y-51550714D01*
X173437976Y-51586428D01*
X173406071Y-51657857D01*
X150009880Y-54579285D02*
X149627023Y-54579285D01*
X149818452Y-54579285D02*
X149818452Y-53829285D01*
X149754642Y-53936428D01*
X149690833Y-54007857D01*
X149627023Y-54043571D01*
X150584166Y-54079285D02*
X150584166Y-54579285D01*
X150424642Y-53793571D02*
X150265119Y-54329285D01*
X150679880Y-54329285D01*
X151413690Y-53793571D02*
X150839404Y-54757857D01*
X151860357Y-54186428D02*
X151956071Y-54222142D01*
X151987976Y-54257857D01*
X152019880Y-54329285D01*
X152019880Y-54436428D01*
X151987976Y-54507857D01*
X151956071Y-54543571D01*
X151892261Y-54579285D01*
X151637023Y-54579285D01*
X151637023Y-53829285D01*
X151860357Y-53829285D01*
X151924166Y-53865000D01*
X151956071Y-53900714D01*
X151987976Y-53972142D01*
X151987976Y-54043571D01*
X151956071Y-54115000D01*
X151924166Y-54150714D01*
X151860357Y-54186428D01*
X151637023Y-54186428D01*
X152243214Y-53829285D02*
X152657976Y-53829285D01*
X152434642Y-54115000D01*
X152530357Y-54115000D01*
X152594166Y-54150714D01*
X152626071Y-54186428D01*
X152657976Y-54257857D01*
X152657976Y-54436428D01*
X152626071Y-54507857D01*
X152594166Y-54543571D01*
X152530357Y-54579285D01*
X152338928Y-54579285D01*
X152275119Y-54543571D01*
X152243214Y-54507857D01*
X171651309Y-59186428D02*
X171747023Y-59222142D01*
X171778928Y-59257857D01*
X171810833Y-59329285D01*
X171810833Y-59436428D01*
X171778928Y-59507857D01*
X171747023Y-59543571D01*
X171683214Y-59579285D01*
X171427976Y-59579285D01*
X171427976Y-58829285D01*
X171651309Y-58829285D01*
X171715119Y-58865000D01*
X171747023Y-58900714D01*
X171778928Y-58972142D01*
X171778928Y-59043571D01*
X171747023Y-59115000D01*
X171715119Y-59150714D01*
X171651309Y-59186428D01*
X171427976Y-59186428D01*
X172417023Y-58829285D02*
X172097976Y-58829285D01*
X172066071Y-59186428D01*
X172097976Y-59150714D01*
X172161785Y-59115000D01*
X172321309Y-59115000D01*
X172385119Y-59150714D01*
X172417023Y-59186428D01*
X172448928Y-59257857D01*
X172448928Y-59436428D01*
X172417023Y-59507857D01*
X172385119Y-59543571D01*
X172321309Y-59579285D01*
X172161785Y-59579285D01*
X172097976Y-59543571D01*
X172066071Y-59507857D01*
X173214642Y-58793571D02*
X172640357Y-59757857D01*
X173469880Y-59579285D02*
X173597500Y-59579285D01*
X173661309Y-59543571D01*
X173693214Y-59507857D01*
X173757023Y-59400714D01*
X173788928Y-59257857D01*
X173788928Y-58972142D01*
X173757023Y-58900714D01*
X173725119Y-58865000D01*
X173661309Y-58829285D01*
X173533690Y-58829285D01*
X173469880Y-58865000D01*
X173437976Y-58900714D01*
X173406071Y-58972142D01*
X173406071Y-59150714D01*
X173437976Y-59222142D01*
X173469880Y-59257857D01*
X173533690Y-59293571D01*
X173661309Y-59293571D01*
X173725119Y-59257857D01*
X173757023Y-59222142D01*
X173788928Y-59150714D01*
X149706785Y-41715000D02*
X150025833Y-41715000D01*
X149642976Y-41929285D02*
X149866309Y-41179285D01*
X150089642Y-41929285D01*
X150249166Y-41179285D02*
X150663928Y-41179285D01*
X150440595Y-41465000D01*
X150536309Y-41465000D01*
X150600119Y-41500714D01*
X150632023Y-41536428D01*
X150663928Y-41607857D01*
X150663928Y-41786428D01*
X150632023Y-41857857D01*
X150600119Y-41893571D01*
X150536309Y-41929285D01*
X150344880Y-41929285D01*
X150281071Y-41893571D01*
X150249166Y-41857857D01*
X151429642Y-41143571D02*
X150855357Y-42107857D01*
X151876309Y-41536428D02*
X151652976Y-41536428D01*
X151652976Y-41929285D02*
X151652976Y-41179285D01*
X151972023Y-41179285D01*
X152514404Y-41429285D02*
X152514404Y-41929285D01*
X152354880Y-41143571D02*
X152195357Y-41679285D01*
X152610119Y-41679285D01*
D12*
X159491071Y-27229285D02*
X159491071Y-26479285D01*
X159741071Y-27015000D01*
X159991071Y-26479285D01*
X159991071Y-27229285D01*
X160348214Y-27229285D02*
X160348214Y-26729285D01*
X160348214Y-26479285D02*
X160312500Y-26515000D01*
X160348214Y-26550714D01*
X160383928Y-26515000D01*
X160348214Y-26479285D01*
X160348214Y-26550714D01*
X161026785Y-27193571D02*
X160955357Y-27229285D01*
X160812500Y-27229285D01*
X160741071Y-27193571D01*
X160705357Y-27157857D01*
X160669642Y-27086428D01*
X160669642Y-26872142D01*
X160705357Y-26800714D01*
X160741071Y-26765000D01*
X160812500Y-26729285D01*
X160955357Y-26729285D01*
X161026785Y-26765000D01*
X161348214Y-27229285D02*
X161348214Y-26729285D01*
X161348214Y-26872142D02*
X161383928Y-26800714D01*
X161419642Y-26765000D01*
X161491071Y-26729285D01*
X161562500Y-26729285D01*
X161919642Y-27229285D02*
X161848214Y-27193571D01*
X161812500Y-27157857D01*
X161776785Y-27086428D01*
X161776785Y-26872142D01*
X161812500Y-26800714D01*
X161848214Y-26765000D01*
X161919642Y-26729285D01*
X162026785Y-26729285D01*
X162098214Y-26765000D01*
X162133928Y-26800714D01*
X162169642Y-26872142D01*
X162169642Y-27086428D01*
X162133928Y-27157857D01*
X162098214Y-27193571D01*
X162026785Y-27229285D01*
X161919642Y-27229285D01*
X162491071Y-26479285D02*
X162491071Y-27086428D01*
X162526785Y-27157857D01*
X162562500Y-27193571D01*
X162633928Y-27229285D01*
X162776785Y-27229285D01*
X162848214Y-27193571D01*
X162883928Y-27157857D01*
X162919642Y-27086428D01*
X162919642Y-26479285D01*
X163241071Y-27193571D02*
X163348214Y-27229285D01*
X163526785Y-27229285D01*
X163598214Y-27193571D01*
X163633928Y-27157857D01*
X163669642Y-27086428D01*
X163669642Y-27015000D01*
X163633928Y-26943571D01*
X163598214Y-26907857D01*
X163526785Y-26872142D01*
X163383928Y-26836428D01*
X163312500Y-26800714D01*
X163276785Y-26765000D01*
X163241071Y-26693571D01*
X163241071Y-26622142D01*
X163276785Y-26550714D01*
X163312500Y-26515000D01*
X163383928Y-26479285D01*
X163562500Y-26479285D01*
X163669642Y-26515000D01*
X164241071Y-26836428D02*
X164348214Y-26872142D01*
X164383928Y-26907857D01*
X164419642Y-26979285D01*
X164419642Y-27086428D01*
X164383928Y-27157857D01*
X164348214Y-27193571D01*
X164276785Y-27229285D01*
X163991071Y-27229285D01*
X163991071Y-26479285D01*
X164241071Y-26479285D01*
X164312500Y-26515000D01*
X164348214Y-26550714D01*
X164383928Y-26622142D01*
X164383928Y-26693571D01*
X164348214Y-26765000D01*
X164312500Y-26800714D01*
X164241071Y-26836428D01*
X163991071Y-26836428D01*
D10*
X150009880Y-59629285D02*
X149627023Y-59629285D01*
X149818452Y-59629285D02*
X149818452Y-58879285D01*
X149754642Y-58986428D01*
X149690833Y-59057857D01*
X149627023Y-59093571D01*
X150424642Y-58879285D02*
X150488452Y-58879285D01*
X150552261Y-58915000D01*
X150584166Y-58950714D01*
X150616071Y-59022142D01*
X150647976Y-59165000D01*
X150647976Y-59343571D01*
X150616071Y-59486428D01*
X150584166Y-59557857D01*
X150552261Y-59593571D01*
X150488452Y-59629285D01*
X150424642Y-59629285D01*
X150360833Y-59593571D01*
X150328928Y-59557857D01*
X150297023Y-59486428D01*
X150265119Y-59343571D01*
X150265119Y-59165000D01*
X150297023Y-59022142D01*
X150328928Y-58950714D01*
X150360833Y-58915000D01*
X150424642Y-58879285D01*
X151413690Y-58843571D02*
X150839404Y-59807857D01*
X151860357Y-59236428D02*
X151956071Y-59272142D01*
X151987976Y-59307857D01*
X152019880Y-59379285D01*
X152019880Y-59486428D01*
X151987976Y-59557857D01*
X151956071Y-59593571D01*
X151892261Y-59629285D01*
X151637023Y-59629285D01*
X151637023Y-58879285D01*
X151860357Y-58879285D01*
X151924166Y-58915000D01*
X151956071Y-58950714D01*
X151987976Y-59022142D01*
X151987976Y-59093571D01*
X151956071Y-59165000D01*
X151924166Y-59200714D01*
X151860357Y-59236428D01*
X151637023Y-59236428D01*
X152594166Y-58879285D02*
X152466547Y-58879285D01*
X152402738Y-58915000D01*
X152370833Y-58950714D01*
X152307023Y-59057857D01*
X152275119Y-59200714D01*
X152275119Y-59486428D01*
X152307023Y-59557857D01*
X152338928Y-59593571D01*
X152402738Y-59629285D01*
X152530357Y-59629285D01*
X152594166Y-59593571D01*
X152626071Y-59557857D01*
X152657976Y-59486428D01*
X152657976Y-59307857D01*
X152626071Y-59236428D01*
X152594166Y-59200714D01*
X152530357Y-59165000D01*
X152402738Y-59165000D01*
X152338928Y-59200714D01*
X152307023Y-59236428D01*
X152275119Y-59307857D01*
D11*
D10*
X171427976Y-46879285D02*
X171427976Y-46129285D01*
X171587500Y-46129285D01*
X171683214Y-46165000D01*
X171747023Y-46236428D01*
X171778928Y-46307857D01*
X171810833Y-46450714D01*
X171810833Y-46557857D01*
X171778928Y-46700714D01*
X171747023Y-46772142D01*
X171683214Y-46843571D01*
X171587500Y-46879285D01*
X171427976Y-46879285D01*
X172385119Y-46379285D02*
X172385119Y-46879285D01*
X172225595Y-46093571D02*
X172066071Y-46629285D01*
X172480833Y-46629285D01*
X173214642Y-46093571D02*
X172640357Y-47057857D01*
X173725119Y-46379285D02*
X173725119Y-46879285D01*
X173565595Y-46093571D02*
X173406071Y-46629285D01*
X173820833Y-46629285D01*
X171810833Y-49357857D02*
X171778928Y-49393571D01*
X171683214Y-49429285D01*
X171619404Y-49429285D01*
X171523690Y-49393571D01*
X171459880Y-49322142D01*
X171427976Y-49250714D01*
X171396071Y-49107857D01*
X171396071Y-49000714D01*
X171427976Y-48857857D01*
X171459880Y-48786428D01*
X171523690Y-48715000D01*
X171619404Y-48679285D01*
X171683214Y-48679285D01*
X171778928Y-48715000D01*
X171810833Y-48750714D01*
X172385119Y-48679285D02*
X172257500Y-48679285D01*
X172193690Y-48715000D01*
X172161785Y-48750714D01*
X172097976Y-48857857D01*
X172066071Y-49000714D01*
X172066071Y-49286428D01*
X172097976Y-49357857D01*
X172129880Y-49393571D01*
X172193690Y-49429285D01*
X172321309Y-49429285D01*
X172385119Y-49393571D01*
X172417023Y-49357857D01*
X172448928Y-49286428D01*
X172448928Y-49107857D01*
X172417023Y-49036428D01*
X172385119Y-49000714D01*
X172321309Y-48965000D01*
X172193690Y-48965000D01*
X172129880Y-49000714D01*
X172097976Y-49036428D01*
X172066071Y-49107857D01*
X173214642Y-48643571D02*
X172640357Y-49607857D01*
X173757023Y-48679285D02*
X173437976Y-48679285D01*
X173406071Y-49036428D01*
X173437976Y-49000714D01*
X173501785Y-48965000D01*
X173661309Y-48965000D01*
X173725119Y-49000714D01*
X173757023Y-49036428D01*
X173788928Y-49107857D01*
X173788928Y-49286428D01*
X173757023Y-49357857D01*
X173725119Y-49393571D01*
X173661309Y-49429285D01*
X173501785Y-49429285D01*
X173437976Y-49393571D01*
X173406071Y-49357857D01*
X171223928Y-34279285D02*
X171223928Y-33529285D01*
X171383452Y-33529285D01*
X171479166Y-33565000D01*
X171542976Y-33636428D01*
X171574880Y-33707857D01*
X171606785Y-33850714D01*
X171606785Y-33957857D01*
X171574880Y-34100714D01*
X171542976Y-34172142D01*
X171479166Y-34243571D01*
X171383452Y-34279285D01*
X171223928Y-34279285D01*
X171862023Y-33600714D02*
X171893928Y-33565000D01*
X171957738Y-33529285D01*
X172117261Y-33529285D01*
X172181071Y-33565000D01*
X172212976Y-33600714D01*
X172244880Y-33672142D01*
X172244880Y-33743571D01*
X172212976Y-33850714D01*
X171830119Y-34279285D01*
X172244880Y-34279285D01*
X173010595Y-33493571D02*
X172436309Y-34457857D01*
X173616785Y-34279285D02*
X173393452Y-33922142D01*
X173233928Y-34279285D02*
X173233928Y-33529285D01*
X173489166Y-33529285D01*
X173552976Y-33565000D01*
X173584880Y-33600714D01*
X173616785Y-33672142D01*
X173616785Y-33779285D01*
X173584880Y-33850714D01*
X173552976Y-33886428D01*
X173489166Y-33922142D01*
X173233928Y-33922142D01*
X173840119Y-33529285D02*
X174286785Y-34279285D01*
X174286785Y-33529285D02*
X173840119Y-34279285D01*
X174892976Y-34279285D02*
X174510119Y-34279285D01*
X174701547Y-34279285D02*
X174701547Y-33529285D01*
X174637738Y-33636428D01*
X174573928Y-33707857D01*
X174510119Y-33743571D01*
X150009880Y-52029285D02*
X149627023Y-52029285D01*
X149818452Y-52029285D02*
X149818452Y-51279285D01*
X149754642Y-51386428D01*
X149690833Y-51457857D01*
X149627023Y-51493571D01*
X150616071Y-51279285D02*
X150297023Y-51279285D01*
X150265119Y-51636428D01*
X150297023Y-51600714D01*
X150360833Y-51565000D01*
X150520357Y-51565000D01*
X150584166Y-51600714D01*
X150616071Y-51636428D01*
X150647976Y-51707857D01*
X150647976Y-51886428D01*
X150616071Y-51957857D01*
X150584166Y-51993571D01*
X150520357Y-52029285D01*
X150360833Y-52029285D01*
X150297023Y-51993571D01*
X150265119Y-51957857D01*
X151413690Y-51243571D02*
X150839404Y-52207857D01*
X151860357Y-51636428D02*
X151956071Y-51672142D01*
X151987976Y-51707857D01*
X152019880Y-51779285D01*
X152019880Y-51886428D01*
X151987976Y-51957857D01*
X151956071Y-51993571D01*
X151892261Y-52029285D01*
X151637023Y-52029285D01*
X151637023Y-51279285D01*
X151860357Y-51279285D01*
X151924166Y-51315000D01*
X151956071Y-51350714D01*
X151987976Y-51422142D01*
X151987976Y-51493571D01*
X151956071Y-51565000D01*
X151924166Y-51600714D01*
X151860357Y-51636428D01*
X151637023Y-51636428D01*
X152657976Y-52029285D02*
X152275119Y-52029285D01*
X152466547Y-52029285D02*
X152466547Y-51279285D01*
X152402738Y-51386428D01*
X152338928Y-51457857D01*
X152275119Y-51493571D01*
X150899166Y-38479285D02*
X151122500Y-39229285D01*
X151345833Y-38479285D01*
X151952023Y-39157857D02*
X151920119Y-39193571D01*
X151824404Y-39229285D01*
X151760595Y-39229285D01*
X151664880Y-39193571D01*
X151601071Y-39122142D01*
X151569166Y-39050714D01*
X151537261Y-38907857D01*
X151537261Y-38800714D01*
X151569166Y-38657857D01*
X151601071Y-38586428D01*
X151664880Y-38515000D01*
X151760595Y-38479285D01*
X151824404Y-38479285D01*
X151920119Y-38515000D01*
X151952023Y-38550714D01*
X152622023Y-39157857D02*
X152590119Y-39193571D01*
X152494404Y-39229285D01*
X152430595Y-39229285D01*
X152334880Y-39193571D01*
X152271071Y-39122142D01*
X152239166Y-39050714D01*
X152207261Y-38907857D01*
X152207261Y-38800714D01*
X152239166Y-38657857D01*
X152271071Y-38586428D01*
X152334880Y-38515000D01*
X152430595Y-38479285D01*
X152494404Y-38479285D01*
X152590119Y-38515000D01*
X152622023Y-38550714D01*
D11*
X161644166Y-63983180D02*
X161644166Y-64697466D01*
X161596547Y-64840323D01*
X161501309Y-64935561D01*
X161358452Y-64983180D01*
X161263214Y-64983180D01*
X162548928Y-64316514D02*
X162548928Y-64983180D01*
X162310833Y-63935561D02*
X162072738Y-64649847D01*
X162691785Y-64649847D01*
X144612880Y-76145333D02*
X145327166Y-76145333D01*
X145470023Y-76192952D01*
X145565261Y-76288190D01*
X145612880Y-76431047D01*
X145612880Y-76526285D01*
X145612880Y-75145333D02*
X145612880Y-75716761D01*
X145612880Y-75431047D02*
X144612880Y-75431047D01*
X144755738Y-75526285D01*
X144850976Y-75621523D01*
X144898595Y-75716761D01*
X134455166Y-63982380D02*
X134455166Y-64696666D01*
X134407547Y-64839523D01*
X134312309Y-64934761D01*
X134169452Y-64982380D01*
X134074214Y-64982380D01*
X134883738Y-64077619D02*
X134931357Y-64030000D01*
X135026595Y-63982380D01*
X135264690Y-63982380D01*
X135359928Y-64030000D01*
X135407547Y-64077619D01*
X135455166Y-64172857D01*
X135455166Y-64268095D01*
X135407547Y-64410952D01*
X134836119Y-64982380D01*
X135455166Y-64982380D01*
X151173880Y-76145333D02*
X151888166Y-76145333D01*
X152031023Y-76192952D01*
X152126261Y-76288190D01*
X152173880Y-76431047D01*
X152173880Y-76526285D01*
X151173880Y-75764380D02*
X151173880Y-75145333D01*
X151554833Y-75478666D01*
X151554833Y-75335809D01*
X151602452Y-75240571D01*
X151650071Y-75192952D01*
X151745309Y-75145333D01*
X151983404Y-75145333D01*
X152078642Y-75192952D01*
X152126261Y-75240571D01*
X152173880Y-75335809D01*
X152173880Y-75621523D01*
X152126261Y-75716761D01*
X152078642Y-75764380D01*
D10*
X144094880Y-44443571D02*
X144190595Y-44479285D01*
X144350119Y-44479285D01*
X144413928Y-44443571D01*
X144445833Y-44407857D01*
X144477738Y-44336428D01*
X144477738Y-44265000D01*
X144445833Y-44193571D01*
X144413928Y-44157857D01*
X144350119Y-44122142D01*
X144222500Y-44086428D01*
X144158690Y-44050714D01*
X144126785Y-44015000D01*
X144094880Y-43943571D01*
X144094880Y-43872142D01*
X144126785Y-43800714D01*
X144158690Y-43765000D01*
X144222500Y-43729285D01*
X144382023Y-43729285D01*
X144477738Y-43765000D01*
X145147738Y-44407857D02*
X145115833Y-44443571D01*
X145020119Y-44479285D01*
X144956309Y-44479285D01*
X144860595Y-44443571D01*
X144796785Y-44372142D01*
X144764880Y-44300714D01*
X144732976Y-44157857D01*
X144732976Y-44050714D01*
X144764880Y-43907857D01*
X144796785Y-43836428D01*
X144860595Y-43765000D01*
X144956309Y-43729285D01*
X145020119Y-43729285D01*
X145115833Y-43765000D01*
X145147738Y-43800714D01*
X145753928Y-44479285D02*
X145434880Y-44479285D01*
X145434880Y-43729285D01*
X146455833Y-43693571D02*
X145881547Y-44657857D01*
X146679166Y-44479285D02*
X146679166Y-43729285D01*
X146838690Y-43729285D01*
X146934404Y-43765000D01*
X146998214Y-43836428D01*
X147030119Y-43907857D01*
X147062023Y-44050714D01*
X147062023Y-44157857D01*
X147030119Y-44300714D01*
X146998214Y-44372142D01*
X146934404Y-44443571D01*
X146838690Y-44479285D01*
X146679166Y-44479285D01*
X147476785Y-43729285D02*
X147540595Y-43729285D01*
X147604404Y-43765000D01*
X147636309Y-43800714D01*
X147668214Y-43872142D01*
X147700119Y-44015000D01*
X147700119Y-44193571D01*
X147668214Y-44336428D01*
X147636309Y-44407857D01*
X147604404Y-44443571D01*
X147540595Y-44479285D01*
X147476785Y-44479285D01*
X147412976Y-44443571D01*
X147381071Y-44407857D01*
X147349166Y-44336428D01*
X147317261Y-44193571D01*
X147317261Y-44015000D01*
X147349166Y-43872142D01*
X147381071Y-43800714D01*
X147412976Y-43765000D01*
X147476785Y-43729285D01*
X148465833Y-43693571D02*
X147891547Y-44657857D01*
X148625357Y-43729285D02*
X149040119Y-43729285D01*
X148816785Y-44015000D01*
X148912500Y-44015000D01*
X148976309Y-44050714D01*
X149008214Y-44086428D01*
X149040119Y-44157857D01*
X149040119Y-44336428D01*
X149008214Y-44407857D01*
X148976309Y-44443571D01*
X148912500Y-44479285D01*
X148721071Y-44479285D01*
X148657261Y-44443571D01*
X148625357Y-44407857D01*
X144048928Y-34279285D02*
X144048928Y-33529285D01*
X144208452Y-33529285D01*
X144304166Y-33565000D01*
X144367976Y-33636428D01*
X144399880Y-33707857D01*
X144431785Y-33850714D01*
X144431785Y-33957857D01*
X144399880Y-34100714D01*
X144367976Y-34172142D01*
X144304166Y-34243571D01*
X144208452Y-34279285D01*
X144048928Y-34279285D01*
X144687023Y-33600714D02*
X144718928Y-33565000D01*
X144782738Y-33529285D01*
X144942261Y-33529285D01*
X145006071Y-33565000D01*
X145037976Y-33600714D01*
X145069880Y-33672142D01*
X145069880Y-33743571D01*
X145037976Y-33850714D01*
X144655119Y-34279285D01*
X145069880Y-34279285D01*
X145835595Y-33493571D02*
X145261309Y-34457857D01*
X146441785Y-34279285D02*
X146218452Y-33922142D01*
X146058928Y-34279285D02*
X146058928Y-33529285D01*
X146314166Y-33529285D01*
X146377976Y-33565000D01*
X146409880Y-33600714D01*
X146441785Y-33672142D01*
X146441785Y-33779285D01*
X146409880Y-33850714D01*
X146377976Y-33886428D01*
X146314166Y-33922142D01*
X146058928Y-33922142D01*
X146665119Y-33529285D02*
X147111785Y-34279285D01*
X147111785Y-33529285D02*
X146665119Y-34279285D01*
X147717976Y-34279285D02*
X147335119Y-34279285D01*
X147526547Y-34279285D02*
X147526547Y-33529285D01*
X147462738Y-33636428D01*
X147398928Y-33707857D01*
X147335119Y-33743571D01*
X122834880Y-57129285D02*
X122452023Y-57129285D01*
X122643452Y-57129285D02*
X122643452Y-56379285D01*
X122579642Y-56486428D01*
X122515833Y-56557857D01*
X122452023Y-56593571D01*
X123409166Y-56379285D02*
X123281547Y-56379285D01*
X123217738Y-56415000D01*
X123185833Y-56450714D01*
X123122023Y-56557857D01*
X123090119Y-56700714D01*
X123090119Y-56986428D01*
X123122023Y-57057857D01*
X123153928Y-57093571D01*
X123217738Y-57129285D01*
X123345357Y-57129285D01*
X123409166Y-57093571D01*
X123441071Y-57057857D01*
X123472976Y-56986428D01*
X123472976Y-56807857D01*
X123441071Y-56736428D01*
X123409166Y-56700714D01*
X123345357Y-56665000D01*
X123217738Y-56665000D01*
X123153928Y-56700714D01*
X123122023Y-56736428D01*
X123090119Y-56807857D01*
X124238690Y-56343571D02*
X123664404Y-57307857D01*
X124685357Y-56736428D02*
X124781071Y-56772142D01*
X124812976Y-56807857D01*
X124844880Y-56879285D01*
X124844880Y-56986428D01*
X124812976Y-57057857D01*
X124781071Y-57093571D01*
X124717261Y-57129285D01*
X124462023Y-57129285D01*
X124462023Y-56379285D01*
X124685357Y-56379285D01*
X124749166Y-56415000D01*
X124781071Y-56450714D01*
X124812976Y-56522142D01*
X124812976Y-56593571D01*
X124781071Y-56665000D01*
X124749166Y-56700714D01*
X124685357Y-56736428D01*
X124462023Y-56736428D01*
X125100119Y-56450714D02*
X125132023Y-56415000D01*
X125195833Y-56379285D01*
X125355357Y-56379285D01*
X125419166Y-56415000D01*
X125451071Y-56450714D01*
X125482976Y-56522142D01*
X125482976Y-56593571D01*
X125451071Y-56700714D01*
X125068214Y-57129285D01*
X125482976Y-57129285D01*
X144476309Y-59186428D02*
X144572023Y-59222142D01*
X144603928Y-59257857D01*
X144635833Y-59329285D01*
X144635833Y-59436428D01*
X144603928Y-59507857D01*
X144572023Y-59543571D01*
X144508214Y-59579285D01*
X144252976Y-59579285D01*
X144252976Y-58829285D01*
X144476309Y-58829285D01*
X144540119Y-58865000D01*
X144572023Y-58900714D01*
X144603928Y-58972142D01*
X144603928Y-59043571D01*
X144572023Y-59115000D01*
X144540119Y-59150714D01*
X144476309Y-59186428D01*
X144252976Y-59186428D01*
X145242023Y-58829285D02*
X144922976Y-58829285D01*
X144891071Y-59186428D01*
X144922976Y-59150714D01*
X144986785Y-59115000D01*
X145146309Y-59115000D01*
X145210119Y-59150714D01*
X145242023Y-59186428D01*
X145273928Y-59257857D01*
X145273928Y-59436428D01*
X145242023Y-59507857D01*
X145210119Y-59543571D01*
X145146309Y-59579285D01*
X144986785Y-59579285D01*
X144922976Y-59543571D01*
X144891071Y-59507857D01*
X146039642Y-58793571D02*
X145465357Y-59757857D01*
X146294880Y-59579285D02*
X146422500Y-59579285D01*
X146486309Y-59543571D01*
X146518214Y-59507857D01*
X146582023Y-59400714D01*
X146613928Y-59257857D01*
X146613928Y-58972142D01*
X146582023Y-58900714D01*
X146550119Y-58865000D01*
X146486309Y-58829285D01*
X146358690Y-58829285D01*
X146294880Y-58865000D01*
X146262976Y-58900714D01*
X146231071Y-58972142D01*
X146231071Y-59150714D01*
X146262976Y-59222142D01*
X146294880Y-59257857D01*
X146358690Y-59293571D01*
X146486309Y-59293571D01*
X146550119Y-59257857D01*
X146582023Y-59222142D01*
X146613928Y-59150714D01*
X144252976Y-51979285D02*
X144252976Y-51229285D01*
X144412500Y-51229285D01*
X144508214Y-51265000D01*
X144572023Y-51336428D01*
X144603928Y-51407857D01*
X144635833Y-51550714D01*
X144635833Y-51657857D01*
X144603928Y-51800714D01*
X144572023Y-51872142D01*
X144508214Y-51943571D01*
X144412500Y-51979285D01*
X144252976Y-51979285D01*
X144859166Y-51229285D02*
X145305833Y-51229285D01*
X145018690Y-51979285D01*
X146039642Y-51193571D02*
X145465357Y-52157857D01*
X146550119Y-51229285D02*
X146422500Y-51229285D01*
X146358690Y-51265000D01*
X146326785Y-51300714D01*
X146262976Y-51407857D01*
X146231071Y-51550714D01*
X146231071Y-51836428D01*
X146262976Y-51907857D01*
X146294880Y-51943571D01*
X146358690Y-51979285D01*
X146486309Y-51979285D01*
X146550119Y-51943571D01*
X146582023Y-51907857D01*
X146613928Y-51836428D01*
X146613928Y-51657857D01*
X146582023Y-51586428D01*
X146550119Y-51550714D01*
X146486309Y-51515000D01*
X146358690Y-51515000D01*
X146294880Y-51550714D01*
X146262976Y-51586428D01*
X146231071Y-51657857D01*
X123724166Y-38479285D02*
X123947500Y-39229285D01*
X124170833Y-38479285D01*
X124777023Y-39157857D02*
X124745119Y-39193571D01*
X124649404Y-39229285D01*
X124585595Y-39229285D01*
X124489880Y-39193571D01*
X124426071Y-39122142D01*
X124394166Y-39050714D01*
X124362261Y-38907857D01*
X124362261Y-38800714D01*
X124394166Y-38657857D01*
X124426071Y-38586428D01*
X124489880Y-38515000D01*
X124585595Y-38479285D01*
X124649404Y-38479285D01*
X124745119Y-38515000D01*
X124777023Y-38550714D01*
X125447023Y-39157857D02*
X125415119Y-39193571D01*
X125319404Y-39229285D01*
X125255595Y-39229285D01*
X125159880Y-39193571D01*
X125096071Y-39122142D01*
X125064166Y-39050714D01*
X125032261Y-38907857D01*
X125032261Y-38800714D01*
X125064166Y-38657857D01*
X125096071Y-38586428D01*
X125159880Y-38515000D01*
X125255595Y-38479285D01*
X125319404Y-38479285D01*
X125415119Y-38515000D01*
X125447023Y-38550714D01*
X122531785Y-46715000D02*
X122850833Y-46715000D01*
X122467976Y-46929285D02*
X122691309Y-46179285D01*
X122914642Y-46929285D01*
X123488928Y-46929285D02*
X123106071Y-46929285D01*
X123297500Y-46929285D02*
X123297500Y-46179285D01*
X123233690Y-46286428D01*
X123169880Y-46357857D01*
X123106071Y-46393571D01*
X124254642Y-46143571D02*
X123680357Y-47107857D01*
X124701309Y-46536428D02*
X124477976Y-46536428D01*
X124477976Y-46929285D02*
X124477976Y-46179285D01*
X124797023Y-46179285D01*
X125339404Y-46179285D02*
X125211785Y-46179285D01*
X125147976Y-46215000D01*
X125116071Y-46250714D01*
X125052261Y-46357857D01*
X125020357Y-46500714D01*
X125020357Y-46786428D01*
X125052261Y-46857857D01*
X125084166Y-46893571D01*
X125147976Y-46929285D01*
X125275595Y-46929285D01*
X125339404Y-46893571D01*
X125371309Y-46857857D01*
X125403214Y-46786428D01*
X125403214Y-46607857D01*
X125371309Y-46536428D01*
X125339404Y-46500714D01*
X125275595Y-46465000D01*
X125147976Y-46465000D01*
X125084166Y-46500714D01*
X125052261Y-46536428D01*
X125020357Y-46607857D01*
X122531785Y-41715000D02*
X122850833Y-41715000D01*
X122467976Y-41929285D02*
X122691309Y-41179285D01*
X122914642Y-41929285D01*
X123074166Y-41179285D02*
X123488928Y-41179285D01*
X123265595Y-41465000D01*
X123361309Y-41465000D01*
X123425119Y-41500714D01*
X123457023Y-41536428D01*
X123488928Y-41607857D01*
X123488928Y-41786428D01*
X123457023Y-41857857D01*
X123425119Y-41893571D01*
X123361309Y-41929285D01*
X123169880Y-41929285D01*
X123106071Y-41893571D01*
X123074166Y-41857857D01*
X124254642Y-41143571D02*
X123680357Y-42107857D01*
X124701309Y-41536428D02*
X124477976Y-41536428D01*
X124477976Y-41929285D02*
X124477976Y-41179285D01*
X124797023Y-41179285D01*
X125339404Y-41429285D02*
X125339404Y-41929285D01*
X125179880Y-41143571D02*
X125020357Y-41679285D01*
X125435119Y-41679285D01*
X122531785Y-44215000D02*
X122850833Y-44215000D01*
X122467976Y-44429285D02*
X122691309Y-43679285D01*
X122914642Y-44429285D01*
X123106071Y-43750714D02*
X123137976Y-43715000D01*
X123201785Y-43679285D01*
X123361309Y-43679285D01*
X123425119Y-43715000D01*
X123457023Y-43750714D01*
X123488928Y-43822142D01*
X123488928Y-43893571D01*
X123457023Y-44000714D01*
X123074166Y-44429285D01*
X123488928Y-44429285D01*
X124254642Y-43643571D02*
X123680357Y-44607857D01*
X124701309Y-44036428D02*
X124477976Y-44036428D01*
X124477976Y-44429285D02*
X124477976Y-43679285D01*
X124797023Y-43679285D01*
X125371309Y-43679285D02*
X125052261Y-43679285D01*
X125020357Y-44036428D01*
X125052261Y-44000714D01*
X125116071Y-43965000D01*
X125275595Y-43965000D01*
X125339404Y-44000714D01*
X125371309Y-44036428D01*
X125403214Y-44107857D01*
X125403214Y-44286428D01*
X125371309Y-44357857D01*
X125339404Y-44393571D01*
X125275595Y-44429285D01*
X125116071Y-44429285D01*
X125052261Y-44393571D01*
X125020357Y-44357857D01*
X144128690Y-31729285D02*
X144128690Y-30979285D01*
X144288214Y-30979285D01*
X144383928Y-31015000D01*
X144447738Y-31086428D01*
X144479642Y-31157857D01*
X144511547Y-31300714D01*
X144511547Y-31407857D01*
X144479642Y-31550714D01*
X144447738Y-31622142D01*
X144383928Y-31693571D01*
X144288214Y-31729285D01*
X144128690Y-31729285D01*
X144734880Y-30979285D02*
X145149642Y-30979285D01*
X144926309Y-31265000D01*
X145022023Y-31265000D01*
X145085833Y-31300714D01*
X145117738Y-31336428D01*
X145149642Y-31407857D01*
X145149642Y-31586428D01*
X145117738Y-31657857D01*
X145085833Y-31693571D01*
X145022023Y-31729285D01*
X144830595Y-31729285D01*
X144766785Y-31693571D01*
X144734880Y-31657857D01*
X145915357Y-30943571D02*
X145341071Y-31907857D01*
X146042976Y-30979285D02*
X146425833Y-30979285D01*
X146234404Y-31729285D02*
X146234404Y-30979285D01*
X146585357Y-30979285D02*
X147032023Y-31729285D01*
X147032023Y-30979285D02*
X146585357Y-31729285D01*
X147414880Y-30979285D02*
X147478690Y-30979285D01*
X147542500Y-31015000D01*
X147574404Y-31050714D01*
X147606309Y-31122142D01*
X147638214Y-31265000D01*
X147638214Y-31443571D01*
X147606309Y-31586428D01*
X147574404Y-31657857D01*
X147542500Y-31693571D01*
X147478690Y-31729285D01*
X147414880Y-31729285D01*
X147351071Y-31693571D01*
X147319166Y-31657857D01*
X147287261Y-31586428D01*
X147255357Y-31443571D01*
X147255357Y-31265000D01*
X147287261Y-31122142D01*
X147319166Y-31050714D01*
X147351071Y-31015000D01*
X147414880Y-30979285D01*
X122834880Y-54579285D02*
X122452023Y-54579285D01*
X122643452Y-54579285D02*
X122643452Y-53829285D01*
X122579642Y-53936428D01*
X122515833Y-54007857D01*
X122452023Y-54043571D01*
X123409166Y-54079285D02*
X123409166Y-54579285D01*
X123249642Y-53793571D02*
X123090119Y-54329285D01*
X123504880Y-54329285D01*
X124238690Y-53793571D02*
X123664404Y-54757857D01*
X124685357Y-54186428D02*
X124781071Y-54222142D01*
X124812976Y-54257857D01*
X124844880Y-54329285D01*
X124844880Y-54436428D01*
X124812976Y-54507857D01*
X124781071Y-54543571D01*
X124717261Y-54579285D01*
X124462023Y-54579285D01*
X124462023Y-53829285D01*
X124685357Y-53829285D01*
X124749166Y-53865000D01*
X124781071Y-53900714D01*
X124812976Y-53972142D01*
X124812976Y-54043571D01*
X124781071Y-54115000D01*
X124749166Y-54150714D01*
X124685357Y-54186428D01*
X124462023Y-54186428D01*
X125068214Y-53829285D02*
X125482976Y-53829285D01*
X125259642Y-54115000D01*
X125355357Y-54115000D01*
X125419166Y-54150714D01*
X125451071Y-54186428D01*
X125482976Y-54257857D01*
X125482976Y-54436428D01*
X125451071Y-54507857D01*
X125419166Y-54543571D01*
X125355357Y-54579285D01*
X125163928Y-54579285D01*
X125100119Y-54543571D01*
X125068214Y-54507857D01*
X144407023Y-38615000D02*
X144343214Y-38579285D01*
X144247500Y-38579285D01*
X144151785Y-38615000D01*
X144087976Y-38686428D01*
X144056071Y-38757857D01*
X144024166Y-38900714D01*
X144024166Y-39007857D01*
X144056071Y-39150714D01*
X144087976Y-39222142D01*
X144151785Y-39293571D01*
X144247500Y-39329285D01*
X144311309Y-39329285D01*
X144407023Y-39293571D01*
X144438928Y-39257857D01*
X144438928Y-39007857D01*
X144311309Y-39007857D01*
X144726071Y-39329285D02*
X144726071Y-38579285D01*
X145108928Y-39329285D01*
X145108928Y-38579285D01*
X145427976Y-39329285D02*
X145427976Y-38579285D01*
X145587500Y-38579285D01*
X145683214Y-38615000D01*
X145747023Y-38686428D01*
X145778928Y-38757857D01*
X145810833Y-38900714D01*
X145810833Y-39007857D01*
X145778928Y-39150714D01*
X145747023Y-39222142D01*
X145683214Y-39293571D01*
X145587500Y-39329285D01*
X145427976Y-39329285D01*
X144078928Y-41943571D02*
X144174642Y-41979285D01*
X144334166Y-41979285D01*
X144397976Y-41943571D01*
X144429880Y-41907857D01*
X144461785Y-41836428D01*
X144461785Y-41765000D01*
X144429880Y-41693571D01*
X144397976Y-41657857D01*
X144334166Y-41622142D01*
X144206547Y-41586428D01*
X144142738Y-41550714D01*
X144110833Y-41515000D01*
X144078928Y-41443571D01*
X144078928Y-41372142D01*
X144110833Y-41300714D01*
X144142738Y-41265000D01*
X144206547Y-41229285D01*
X144366071Y-41229285D01*
X144461785Y-41265000D01*
X144748928Y-41979285D02*
X144748928Y-41229285D01*
X144908452Y-41229285D01*
X145004166Y-41265000D01*
X145067976Y-41336428D01*
X145099880Y-41407857D01*
X145131785Y-41550714D01*
X145131785Y-41657857D01*
X145099880Y-41800714D01*
X145067976Y-41872142D01*
X145004166Y-41943571D01*
X144908452Y-41979285D01*
X144748928Y-41979285D01*
X145387023Y-41765000D02*
X145706071Y-41765000D01*
X145323214Y-41979285D02*
X145546547Y-41229285D01*
X145769880Y-41979285D01*
X146471785Y-41193571D02*
X145897500Y-42157857D01*
X146695119Y-41979285D02*
X146695119Y-41229285D01*
X146854642Y-41229285D01*
X146950357Y-41265000D01*
X147014166Y-41336428D01*
X147046071Y-41407857D01*
X147077976Y-41550714D01*
X147077976Y-41657857D01*
X147046071Y-41800714D01*
X147014166Y-41872142D01*
X146950357Y-41943571D01*
X146854642Y-41979285D01*
X146695119Y-41979285D01*
X147716071Y-41979285D02*
X147333214Y-41979285D01*
X147524642Y-41979285D02*
X147524642Y-41229285D01*
X147460833Y-41336428D01*
X147397023Y-41407857D01*
X147333214Y-41443571D01*
X148481785Y-41193571D02*
X147907500Y-42157857D01*
X148673214Y-41300714D02*
X148705119Y-41265000D01*
X148768928Y-41229285D01*
X148928452Y-41229285D01*
X148992261Y-41265000D01*
X149024166Y-41300714D01*
X149056071Y-41372142D01*
X149056071Y-41443571D01*
X149024166Y-41550714D01*
X148641309Y-41979285D01*
X149056071Y-41979285D01*
X124250595Y-36779285D02*
X124027261Y-36422142D01*
X123867738Y-36779285D02*
X123867738Y-36029285D01*
X124122976Y-36029285D01*
X124186785Y-36065000D01*
X124218690Y-36100714D01*
X124250595Y-36172142D01*
X124250595Y-36279285D01*
X124218690Y-36350714D01*
X124186785Y-36386428D01*
X124122976Y-36422142D01*
X123867738Y-36422142D01*
X124505833Y-36743571D02*
X124601547Y-36779285D01*
X124761071Y-36779285D01*
X124824880Y-36743571D01*
X124856785Y-36707857D01*
X124888690Y-36636428D01*
X124888690Y-36565000D01*
X124856785Y-36493571D01*
X124824880Y-36457857D01*
X124761071Y-36422142D01*
X124633452Y-36386428D01*
X124569642Y-36350714D01*
X124537738Y-36315000D01*
X124505833Y-36243571D01*
X124505833Y-36172142D01*
X124537738Y-36100714D01*
X124569642Y-36065000D01*
X124633452Y-36029285D01*
X124792976Y-36029285D01*
X124888690Y-36065000D01*
X125080119Y-36029285D02*
X125462976Y-36029285D01*
X125271547Y-36779285D02*
X125271547Y-36029285D01*
X144252976Y-46879285D02*
X144252976Y-46129285D01*
X144412500Y-46129285D01*
X144508214Y-46165000D01*
X144572023Y-46236428D01*
X144603928Y-46307857D01*
X144635833Y-46450714D01*
X144635833Y-46557857D01*
X144603928Y-46700714D01*
X144572023Y-46772142D01*
X144508214Y-46843571D01*
X144412500Y-46879285D01*
X144252976Y-46879285D01*
X145210119Y-46379285D02*
X145210119Y-46879285D01*
X145050595Y-46093571D02*
X144891071Y-46629285D01*
X145305833Y-46629285D01*
X146039642Y-46093571D02*
X145465357Y-47057857D01*
X146550119Y-46379285D02*
X146550119Y-46879285D01*
X146390595Y-46093571D02*
X146231071Y-46629285D01*
X146645833Y-46629285D01*
X122834880Y-59629285D02*
X122452023Y-59629285D01*
X122643452Y-59629285D02*
X122643452Y-58879285D01*
X122579642Y-58986428D01*
X122515833Y-59057857D01*
X122452023Y-59093571D01*
X123249642Y-58879285D02*
X123313452Y-58879285D01*
X123377261Y-58915000D01*
X123409166Y-58950714D01*
X123441071Y-59022142D01*
X123472976Y-59165000D01*
X123472976Y-59343571D01*
X123441071Y-59486428D01*
X123409166Y-59557857D01*
X123377261Y-59593571D01*
X123313452Y-59629285D01*
X123249642Y-59629285D01*
X123185833Y-59593571D01*
X123153928Y-59557857D01*
X123122023Y-59486428D01*
X123090119Y-59343571D01*
X123090119Y-59165000D01*
X123122023Y-59022142D01*
X123153928Y-58950714D01*
X123185833Y-58915000D01*
X123249642Y-58879285D01*
X124238690Y-58843571D02*
X123664404Y-59807857D01*
X124685357Y-59236428D02*
X124781071Y-59272142D01*
X124812976Y-59307857D01*
X124844880Y-59379285D01*
X124844880Y-59486428D01*
X124812976Y-59557857D01*
X124781071Y-59593571D01*
X124717261Y-59629285D01*
X124462023Y-59629285D01*
X124462023Y-58879285D01*
X124685357Y-58879285D01*
X124749166Y-58915000D01*
X124781071Y-58950714D01*
X124812976Y-59022142D01*
X124812976Y-59093571D01*
X124781071Y-59165000D01*
X124749166Y-59200714D01*
X124685357Y-59236428D01*
X124462023Y-59236428D01*
X125419166Y-58879285D02*
X125291547Y-58879285D01*
X125227738Y-58915000D01*
X125195833Y-58950714D01*
X125132023Y-59057857D01*
X125100119Y-59200714D01*
X125100119Y-59486428D01*
X125132023Y-59557857D01*
X125163928Y-59593571D01*
X125227738Y-59629285D01*
X125355357Y-59629285D01*
X125419166Y-59593571D01*
X125451071Y-59557857D01*
X125482976Y-59486428D01*
X125482976Y-59307857D01*
X125451071Y-59236428D01*
X125419166Y-59200714D01*
X125355357Y-59165000D01*
X125227738Y-59165000D01*
X125163928Y-59200714D01*
X125132023Y-59236428D01*
X125100119Y-59307857D01*
D12*
X132316071Y-27229285D02*
X132316071Y-26479285D01*
X132566071Y-27015000D01*
X132816071Y-26479285D01*
X132816071Y-27229285D01*
X133173214Y-27229285D02*
X133173214Y-26729285D01*
X133173214Y-26479285D02*
X133137500Y-26515000D01*
X133173214Y-26550714D01*
X133208928Y-26515000D01*
X133173214Y-26479285D01*
X133173214Y-26550714D01*
X133851785Y-27193571D02*
X133780357Y-27229285D01*
X133637500Y-27229285D01*
X133566071Y-27193571D01*
X133530357Y-27157857D01*
X133494642Y-27086428D01*
X133494642Y-26872142D01*
X133530357Y-26800714D01*
X133566071Y-26765000D01*
X133637500Y-26729285D01*
X133780357Y-26729285D01*
X133851785Y-26765000D01*
X134173214Y-27229285D02*
X134173214Y-26729285D01*
X134173214Y-26872142D02*
X134208928Y-26800714D01*
X134244642Y-26765000D01*
X134316071Y-26729285D01*
X134387500Y-26729285D01*
X134744642Y-27229285D02*
X134673214Y-27193571D01*
X134637500Y-27157857D01*
X134601785Y-27086428D01*
X134601785Y-26872142D01*
X134637500Y-26800714D01*
X134673214Y-26765000D01*
X134744642Y-26729285D01*
X134851785Y-26729285D01*
X134923214Y-26765000D01*
X134958928Y-26800714D01*
X134994642Y-26872142D01*
X134994642Y-27086428D01*
X134958928Y-27157857D01*
X134923214Y-27193571D01*
X134851785Y-27229285D01*
X134744642Y-27229285D01*
X135316071Y-26479285D02*
X135316071Y-27086428D01*
X135351785Y-27157857D01*
X135387500Y-27193571D01*
X135458928Y-27229285D01*
X135601785Y-27229285D01*
X135673214Y-27193571D01*
X135708928Y-27157857D01*
X135744642Y-27086428D01*
X135744642Y-26479285D01*
X136066071Y-27193571D02*
X136173214Y-27229285D01*
X136351785Y-27229285D01*
X136423214Y-27193571D01*
X136458928Y-27157857D01*
X136494642Y-27086428D01*
X136494642Y-27015000D01*
X136458928Y-26943571D01*
X136423214Y-26907857D01*
X136351785Y-26872142D01*
X136208928Y-26836428D01*
X136137500Y-26800714D01*
X136101785Y-26765000D01*
X136066071Y-26693571D01*
X136066071Y-26622142D01*
X136101785Y-26550714D01*
X136137500Y-26515000D01*
X136208928Y-26479285D01*
X136387500Y-26479285D01*
X136494642Y-26515000D01*
X137066071Y-26836428D02*
X137173214Y-26872142D01*
X137208928Y-26907857D01*
X137244642Y-26979285D01*
X137244642Y-27086428D01*
X137208928Y-27157857D01*
X137173214Y-27193571D01*
X137101785Y-27229285D01*
X136816071Y-27229285D01*
X136816071Y-26479285D01*
X137066071Y-26479285D01*
X137137500Y-26515000D01*
X137173214Y-26550714D01*
X137208928Y-26622142D01*
X137208928Y-26693571D01*
X137173214Y-26765000D01*
X137137500Y-26800714D01*
X137066071Y-26836428D01*
X136816071Y-26836428D01*
D10*
X144407023Y-36165000D02*
X144343214Y-36129285D01*
X144247500Y-36129285D01*
X144151785Y-36165000D01*
X144087976Y-36236428D01*
X144056071Y-36307857D01*
X144024166Y-36450714D01*
X144024166Y-36557857D01*
X144056071Y-36700714D01*
X144087976Y-36772142D01*
X144151785Y-36843571D01*
X144247500Y-36879285D01*
X144311309Y-36879285D01*
X144407023Y-36843571D01*
X144438928Y-36807857D01*
X144438928Y-36557857D01*
X144311309Y-36557857D01*
X144726071Y-36879285D02*
X144726071Y-36129285D01*
X145108928Y-36879285D01*
X145108928Y-36129285D01*
X145427976Y-36879285D02*
X145427976Y-36129285D01*
X145587500Y-36129285D01*
X145683214Y-36165000D01*
X145747023Y-36236428D01*
X145778928Y-36307857D01*
X145810833Y-36450714D01*
X145810833Y-36557857D01*
X145778928Y-36700714D01*
X145747023Y-36772142D01*
X145683214Y-36843571D01*
X145587500Y-36879285D01*
X145427976Y-36879285D01*
X144284880Y-54136428D02*
X144508214Y-54136428D01*
X144603928Y-54529285D02*
X144284880Y-54529285D01*
X144284880Y-53779285D01*
X144603928Y-53779285D01*
X145178214Y-53779285D02*
X145050595Y-53779285D01*
X144986785Y-53815000D01*
X144954880Y-53850714D01*
X144891071Y-53957857D01*
X144859166Y-54100714D01*
X144859166Y-54386428D01*
X144891071Y-54457857D01*
X144922976Y-54493571D01*
X144986785Y-54529285D01*
X145114404Y-54529285D01*
X145178214Y-54493571D01*
X145210119Y-54457857D01*
X145242023Y-54386428D01*
X145242023Y-54207857D01*
X145210119Y-54136428D01*
X145178214Y-54100714D01*
X145114404Y-54065000D01*
X144986785Y-54065000D01*
X144922976Y-54100714D01*
X144891071Y-54136428D01*
X144859166Y-54207857D01*
X146007738Y-53743571D02*
X145433452Y-54707857D01*
X146167261Y-53779285D02*
X146613928Y-53779285D01*
X146326785Y-54529285D01*
X144635833Y-49357857D02*
X144603928Y-49393571D01*
X144508214Y-49429285D01*
X144444404Y-49429285D01*
X144348690Y-49393571D01*
X144284880Y-49322142D01*
X144252976Y-49250714D01*
X144221071Y-49107857D01*
X144221071Y-49000714D01*
X144252976Y-48857857D01*
X144284880Y-48786428D01*
X144348690Y-48715000D01*
X144444404Y-48679285D01*
X144508214Y-48679285D01*
X144603928Y-48715000D01*
X144635833Y-48750714D01*
X145210119Y-48679285D02*
X145082500Y-48679285D01*
X145018690Y-48715000D01*
X144986785Y-48750714D01*
X144922976Y-48857857D01*
X144891071Y-49000714D01*
X144891071Y-49286428D01*
X144922976Y-49357857D01*
X144954880Y-49393571D01*
X145018690Y-49429285D01*
X145146309Y-49429285D01*
X145210119Y-49393571D01*
X145242023Y-49357857D01*
X145273928Y-49286428D01*
X145273928Y-49107857D01*
X145242023Y-49036428D01*
X145210119Y-49000714D01*
X145146309Y-48965000D01*
X145018690Y-48965000D01*
X144954880Y-49000714D01*
X144922976Y-49036428D01*
X144891071Y-49107857D01*
X146039642Y-48643571D02*
X145465357Y-49607857D01*
X146582023Y-48679285D02*
X146262976Y-48679285D01*
X146231071Y-49036428D01*
X146262976Y-49000714D01*
X146326785Y-48965000D01*
X146486309Y-48965000D01*
X146550119Y-49000714D01*
X146582023Y-49036428D01*
X146613928Y-49107857D01*
X146613928Y-49286428D01*
X146582023Y-49357857D01*
X146550119Y-49393571D01*
X146486309Y-49429285D01*
X146326785Y-49429285D01*
X146262976Y-49393571D01*
X146231071Y-49357857D01*
X122531785Y-49265000D02*
X122850833Y-49265000D01*
X122467976Y-49479285D02*
X122691309Y-48729285D01*
X122914642Y-49479285D01*
X123265595Y-48729285D02*
X123329404Y-48729285D01*
X123393214Y-48765000D01*
X123425119Y-48800714D01*
X123457023Y-48872142D01*
X123488928Y-49015000D01*
X123488928Y-49193571D01*
X123457023Y-49336428D01*
X123425119Y-49407857D01*
X123393214Y-49443571D01*
X123329404Y-49479285D01*
X123265595Y-49479285D01*
X123201785Y-49443571D01*
X123169880Y-49407857D01*
X123137976Y-49336428D01*
X123106071Y-49193571D01*
X123106071Y-49015000D01*
X123137976Y-48872142D01*
X123169880Y-48800714D01*
X123201785Y-48765000D01*
X123265595Y-48729285D01*
X124254642Y-48693571D02*
X123680357Y-49657857D01*
X124701309Y-49086428D02*
X124477976Y-49086428D01*
X124477976Y-49479285D02*
X124477976Y-48729285D01*
X124797023Y-48729285D01*
X124988452Y-48729285D02*
X125435119Y-48729285D01*
X125147976Y-49479285D01*
X144476309Y-56686428D02*
X144572023Y-56722142D01*
X144603928Y-56757857D01*
X144635833Y-56829285D01*
X144635833Y-56936428D01*
X144603928Y-57007857D01*
X144572023Y-57043571D01*
X144508214Y-57079285D01*
X144252976Y-57079285D01*
X144252976Y-56329285D01*
X144476309Y-56329285D01*
X144540119Y-56365000D01*
X144572023Y-56400714D01*
X144603928Y-56472142D01*
X144603928Y-56543571D01*
X144572023Y-56615000D01*
X144540119Y-56650714D01*
X144476309Y-56686428D01*
X144252976Y-56686428D01*
X145210119Y-56579285D02*
X145210119Y-57079285D01*
X145050595Y-56293571D02*
X144891071Y-56829285D01*
X145305833Y-56829285D01*
X146039642Y-56293571D02*
X145465357Y-57257857D01*
X146358690Y-56650714D02*
X146294880Y-56615000D01*
X146262976Y-56579285D01*
X146231071Y-56507857D01*
X146231071Y-56472142D01*
X146262976Y-56400714D01*
X146294880Y-56365000D01*
X146358690Y-56329285D01*
X146486309Y-56329285D01*
X146550119Y-56365000D01*
X146582023Y-56400714D01*
X146613928Y-56472142D01*
X146613928Y-56507857D01*
X146582023Y-56579285D01*
X146550119Y-56615000D01*
X146486309Y-56650714D01*
X146358690Y-56650714D01*
X146294880Y-56686428D01*
X146262976Y-56722142D01*
X146231071Y-56793571D01*
X146231071Y-56936428D01*
X146262976Y-57007857D01*
X146294880Y-57043571D01*
X146358690Y-57079285D01*
X146486309Y-57079285D01*
X146550119Y-57043571D01*
X146582023Y-57007857D01*
X146613928Y-56936428D01*
X146613928Y-56793571D01*
X146582023Y-56722142D01*
X146550119Y-56686428D01*
X146486309Y-56650714D01*
X124154880Y-31679285D02*
X123931547Y-31322142D01*
X123772023Y-31679285D02*
X123772023Y-30929285D01*
X124027261Y-30929285D01*
X124091071Y-30965000D01*
X124122976Y-31000714D01*
X124154880Y-31072142D01*
X124154880Y-31179285D01*
X124122976Y-31250714D01*
X124091071Y-31286428D01*
X124027261Y-31322142D01*
X123772023Y-31322142D01*
X124410119Y-31465000D02*
X124729166Y-31465000D01*
X124346309Y-31679285D02*
X124569642Y-30929285D01*
X124792976Y-31679285D01*
X124952500Y-30929285D02*
X125112023Y-31679285D01*
X125239642Y-31143571D01*
X125367261Y-31679285D01*
X125526785Y-30929285D01*
X122834880Y-52029285D02*
X122452023Y-52029285D01*
X122643452Y-52029285D02*
X122643452Y-51279285D01*
X122579642Y-51386428D01*
X122515833Y-51457857D01*
X122452023Y-51493571D01*
X123441071Y-51279285D02*
X123122023Y-51279285D01*
X123090119Y-51636428D01*
X123122023Y-51600714D01*
X123185833Y-51565000D01*
X123345357Y-51565000D01*
X123409166Y-51600714D01*
X123441071Y-51636428D01*
X123472976Y-51707857D01*
X123472976Y-51886428D01*
X123441071Y-51957857D01*
X123409166Y-51993571D01*
X123345357Y-52029285D01*
X123185833Y-52029285D01*
X123122023Y-51993571D01*
X123090119Y-51957857D01*
X124238690Y-51243571D02*
X123664404Y-52207857D01*
X124685357Y-51636428D02*
X124781071Y-51672142D01*
X124812976Y-51707857D01*
X124844880Y-51779285D01*
X124844880Y-51886428D01*
X124812976Y-51957857D01*
X124781071Y-51993571D01*
X124717261Y-52029285D01*
X124462023Y-52029285D01*
X124462023Y-51279285D01*
X124685357Y-51279285D01*
X124749166Y-51315000D01*
X124781071Y-51350714D01*
X124812976Y-51422142D01*
X124812976Y-51493571D01*
X124781071Y-51565000D01*
X124749166Y-51600714D01*
X124685357Y-51636428D01*
X124462023Y-51636428D01*
X125482976Y-52029285D02*
X125100119Y-52029285D01*
X125291547Y-52029285D02*
X125291547Y-51279285D01*
X125227738Y-51386428D01*
X125163928Y-51457857D01*
X125100119Y-51493571D01*
D11*
D10*
X124107023Y-33515000D02*
X124043214Y-33479285D01*
X123947500Y-33479285D01*
X123851785Y-33515000D01*
X123787976Y-33586428D01*
X123756071Y-33657857D01*
X123724166Y-33800714D01*
X123724166Y-33907857D01*
X123756071Y-34050714D01*
X123787976Y-34122142D01*
X123851785Y-34193571D01*
X123947500Y-34229285D01*
X124011309Y-34229285D01*
X124107023Y-34193571D01*
X124138928Y-34157857D01*
X124138928Y-33907857D01*
X124011309Y-33907857D01*
X124426071Y-34229285D02*
X124426071Y-33479285D01*
X124808928Y-34229285D01*
X124808928Y-33479285D01*
X125127976Y-34229285D02*
X125127976Y-33479285D01*
X125287500Y-33479285D01*
X125383214Y-33515000D01*
X125447023Y-33586428D01*
X125478928Y-33657857D01*
X125510833Y-33800714D01*
X125510833Y-33907857D01*
X125478928Y-34050714D01*
X125447023Y-34122142D01*
X125383214Y-34193571D01*
X125287500Y-34229285D01*
X125127976Y-34229285D01*
G36*
X54925650Y-80518693D02*
G01*
X55000850Y-80302052D01*
X55116357Y-80108365D01*
X55269687Y-79942687D01*
X55458360Y-79810069D01*
X55502419Y-79786803D01*
X55676705Y-79712053D01*
X55848030Y-79667281D01*
X56033905Y-79649147D01*
X56209986Y-79651840D01*
X56463440Y-79687111D01*
X56691525Y-79763807D01*
X56891175Y-79879865D01*
X57059325Y-80033222D01*
X57192908Y-80221816D01*
X57257456Y-80356600D01*
X57289018Y-80470705D01*
X57309285Y-80618371D01*
X57318030Y-80783580D01*
X57315025Y-80950313D01*
X57300043Y-81102551D01*
X57272856Y-81224275D01*
X57269905Y-81232900D01*
X57173519Y-81430172D01*
X57034275Y-81606574D01*
X56857679Y-81756769D01*
X56649241Y-81875421D01*
X56574340Y-81906770D01*
X56442321Y-81943019D01*
X56279335Y-81966467D01*
X56103781Y-81976287D01*
X55934060Y-81971650D01*
X55788574Y-81951729D01*
X55755753Y-81943599D01*
X55541853Y-81861401D01*
X55347121Y-81743093D01*
X55180155Y-81595635D01*
X55049556Y-81425986D01*
X54998682Y-81330895D01*
X54960337Y-81228102D01*
X54926151Y-81103876D01*
X54906099Y-81000628D01*
X54898748Y-80859224D01*
X55323074Y-80859224D01*
X55337409Y-81006866D01*
X55357541Y-81088207D01*
X55410794Y-81200941D01*
X55491195Y-81316333D01*
X55585178Y-81417702D01*
X55679174Y-81488365D01*
X55685958Y-81492020D01*
X55882698Y-81568118D01*
X56087689Y-81598463D01*
X56291104Y-81582243D01*
X56403664Y-81551468D01*
X56580944Y-81464347D01*
X56725410Y-81340677D01*
X56832587Y-81184341D01*
X56837020Y-81175466D01*
X56890010Y-81019401D01*
X56911993Y-80842298D01*
X56902639Y-80663017D01*
X56861621Y-80500421D01*
X56849289Y-80470900D01*
X56751958Y-80311906D01*
X56624261Y-80187092D01*
X56473564Y-80096623D01*
X56307236Y-80040666D01*
X56132642Y-80019386D01*
X55957149Y-80032949D01*
X55788124Y-80081522D01*
X55632934Y-80165270D01*
X55498945Y-80284360D01*
X55393965Y-80438101D01*
X55352419Y-80555807D01*
X55328433Y-80702526D01*
X55323074Y-80859224D01*
X54898748Y-80859224D01*
X54893238Y-80753236D01*
X54925650Y-80518693D01*
G37*
D13*
X54925650Y-80518693D02*
X55000850Y-80302052D01*
X55116357Y-80108365D01*
X55269687Y-79942687D01*
X55458360Y-79810069D01*
X55502419Y-79786803D01*
X55676705Y-79712053D01*
X55848030Y-79667281D01*
X56033905Y-79649147D01*
X56209986Y-79651840D01*
X56463440Y-79687111D01*
X56691525Y-79763807D01*
X56891175Y-79879865D01*
X57059325Y-80033222D01*
X57192908Y-80221816D01*
X57257456Y-80356600D01*
X57289018Y-80470705D01*
X57309285Y-80618371D01*
X57318030Y-80783580D01*
X57315025Y-80950313D01*
X57300043Y-81102551D01*
X57272856Y-81224275D01*
X57269905Y-81232900D01*
X57173519Y-81430172D01*
X57034275Y-81606574D01*
X56857679Y-81756769D01*
X56649241Y-81875421D01*
X56574340Y-81906770D01*
X56442321Y-81943019D01*
X56279335Y-81966467D01*
X56103781Y-81976287D01*
X55934060Y-81971650D01*
X55788574Y-81951729D01*
X55755753Y-81943599D01*
X55541853Y-81861401D01*
X55347121Y-81743093D01*
X55180155Y-81595635D01*
X55049556Y-81425986D01*
X54998682Y-81330895D01*
X54960337Y-81228102D01*
X54926151Y-81103876D01*
X54906099Y-81000628D01*
X54898748Y-80859224D01*
X55323074Y-80859224D01*
X55337409Y-81006866D01*
X55357541Y-81088207D01*
X55410794Y-81200941D01*
X55491195Y-81316333D01*
X55585178Y-81417702D01*
X55679174Y-81488365D01*
X55685958Y-81492020D01*
X55882698Y-81568118D01*
X56087689Y-81598463D01*
X56291104Y-81582243D01*
X56403664Y-81551468D01*
X56580944Y-81464347D01*
X56725410Y-81340677D01*
X56832587Y-81184341D01*
X56837020Y-81175466D01*
X56890010Y-81019401D01*
X56911993Y-80842298D01*
X56902639Y-80663017D01*
X56861621Y-80500421D01*
X56849289Y-80470900D01*
X56751958Y-80311906D01*
X56624261Y-80187092D01*
X56473564Y-80096623D01*
X56307236Y-80040666D01*
X56132642Y-80019386D01*
X55957149Y-80032949D01*
X55788124Y-80081522D01*
X55632934Y-80165270D01*
X55498945Y-80284360D01*
X55393965Y-80438101D01*
X55352419Y-80555807D01*
X55328433Y-80702526D01*
X55323074Y-80859224D01*
X54898748Y-80859224D01*
X54893238Y-80753236D01*
X54925650Y-80518693D01*
G36*
X61732606Y-80181643D02*
G01*
X61866079Y-80004563D01*
X62035108Y-79858672D01*
X62147999Y-79790689D01*
X62342603Y-79706746D01*
X62539926Y-79659901D01*
X62759213Y-79645400D01*
X63001530Y-79668406D01*
X63223894Y-79734705D01*
X63422133Y-79840213D01*
X63592079Y-79980847D01*
X63729559Y-80152524D01*
X63830404Y-80351162D01*
X63890443Y-80572678D01*
X63906300Y-80768336D01*
X63906300Y-80915400D01*
X62001300Y-80915400D01*
X62001300Y-80988498D01*
X62024217Y-81111649D01*
X62087655Y-81239172D01*
X62183643Y-81360298D01*
X62304211Y-81464256D01*
X62393388Y-81518239D01*
X62529242Y-81569647D01*
X62689904Y-81594683D01*
X62702872Y-81595596D01*
X62885129Y-81593127D01*
X63038803Y-81556329D01*
X63176495Y-81480614D01*
X63291193Y-81381419D01*
X63427013Y-81245600D01*
X63630268Y-81245600D01*
X63730811Y-81246246D01*
X63790033Y-81250122D01*
X63817410Y-81260133D01*
X63822419Y-81279182D01*
X63816730Y-81302750D01*
X63778417Y-81388398D01*
X63713499Y-81491086D01*
X63633774Y-81594606D01*
X63551044Y-81682746D01*
X63520857Y-81709173D01*
X63321990Y-81838773D01*
X63099302Y-81928237D01*
X62862596Y-81975509D01*
X62621673Y-81978535D01*
X62410357Y-81942004D01*
X62189245Y-81857879D01*
X61994425Y-81734023D01*
X61830825Y-81575554D01*
X61703374Y-81387590D01*
X61617001Y-81175249D01*
X61597844Y-81098299D01*
X61567308Y-80848242D01*
X61581041Y-80608661D01*
X61593222Y-80559800D01*
X62002557Y-80559800D01*
X62725828Y-80559800D01*
X62938414Y-80559528D01*
X63105499Y-80558521D01*
X63232379Y-80556494D01*
X63324351Y-80553158D01*
X63386712Y-80548229D01*
X63424759Y-80541420D01*
X63443788Y-80532444D01*
X63449097Y-80521014D01*
X63449100Y-80520688D01*
X63428723Y-80438758D01*
X63374025Y-80343173D01*
X63294652Y-80245722D01*
X63200248Y-80158195D01*
X63100461Y-80092383D01*
X63097403Y-80090826D01*
X62958347Y-80043277D01*
X62794233Y-80022014D01*
X62623428Y-80026960D01*
X62464298Y-80058039D01*
X62372560Y-80093844D01*
X62226026Y-80195486D01*
X62107149Y-80336797D01*
X62026765Y-80496127D01*
X62002557Y-80559800D01*
X61593222Y-80559800D01*
X61636867Y-80384735D01*
X61732606Y-80181643D01*
G37*
X61732606Y-80181643D02*
X61866079Y-80004563D01*
X62035108Y-79858672D01*
X62147999Y-79790689D01*
X62342603Y-79706746D01*
X62539926Y-79659901D01*
X62759213Y-79645400D01*
X63001530Y-79668406D01*
X63223894Y-79734705D01*
X63422133Y-79840213D01*
X63592079Y-79980847D01*
X63729559Y-80152524D01*
X63830404Y-80351162D01*
X63890443Y-80572678D01*
X63906300Y-80768336D01*
X63906300Y-80915400D01*
X62001300Y-80915400D01*
X62001300Y-80988498D01*
X62024217Y-81111649D01*
X62087655Y-81239172D01*
X62183643Y-81360298D01*
X62304211Y-81464256D01*
X62393388Y-81518239D01*
X62529242Y-81569647D01*
X62689904Y-81594683D01*
X62702872Y-81595596D01*
X62885129Y-81593127D01*
X63038803Y-81556329D01*
X63176495Y-81480614D01*
X63291193Y-81381419D01*
X63427013Y-81245600D01*
X63630268Y-81245600D01*
X63730811Y-81246246D01*
X63790033Y-81250122D01*
X63817410Y-81260133D01*
X63822419Y-81279182D01*
X63816730Y-81302750D01*
X63778417Y-81388398D01*
X63713499Y-81491086D01*
X63633774Y-81594606D01*
X63551044Y-81682746D01*
X63520857Y-81709173D01*
X63321990Y-81838773D01*
X63099302Y-81928237D01*
X62862596Y-81975509D01*
X62621673Y-81978535D01*
X62410357Y-81942004D01*
X62189245Y-81857879D01*
X61994425Y-81734023D01*
X61830825Y-81575554D01*
X61703374Y-81387590D01*
X61617001Y-81175249D01*
X61597844Y-81098299D01*
X61567308Y-80848242D01*
X61581041Y-80608661D01*
X61593222Y-80559800D01*
X62002557Y-80559800D01*
X62725828Y-80559800D01*
X62938414Y-80559528D01*
X63105499Y-80558521D01*
X63232379Y-80556494D01*
X63324351Y-80553158D01*
X63386712Y-80548229D01*
X63424759Y-80541420D01*
X63443788Y-80532444D01*
X63449097Y-80521014D01*
X63449100Y-80520688D01*
X63428723Y-80438758D01*
X63374025Y-80343173D01*
X63294652Y-80245722D01*
X63200248Y-80158195D01*
X63100461Y-80092383D01*
X63097403Y-80090826D01*
X62958347Y-80043277D01*
X62794233Y-80022014D01*
X62623428Y-80026960D01*
X62464298Y-80058039D01*
X62372560Y-80093844D01*
X62226026Y-80195486D01*
X62107149Y-80336797D01*
X62026765Y-80496127D01*
X62002557Y-80559800D01*
X61593222Y-80559800D01*
X61636867Y-80384735D01*
X61732606Y-80181643D01*
G36*
X58807237Y-79635436D02*
G01*
X58953300Y-79651961D01*
X58953300Y-80022729D01*
X58819950Y-80009068D01*
X58635851Y-80014139D01*
X58466452Y-80065922D01*
X58317881Y-80161056D01*
X58196266Y-80296179D01*
X58147389Y-80377869D01*
X58064300Y-80538838D01*
X58064300Y-81931400D01*
X57632500Y-81931400D01*
X57632500Y-79668745D01*
X57842050Y-79676122D01*
X58051600Y-79683500D01*
X58077000Y-79905358D01*
X58127769Y-79848946D01*
X58245946Y-79752357D01*
X58397798Y-79681267D01*
X58571042Y-79639536D01*
X58753390Y-79631025D01*
X58807237Y-79635436D01*
G37*
X58807237Y-79635436D02*
X58953300Y-79651961D01*
X58953300Y-80022729D01*
X58819950Y-80009068D01*
X58635851Y-80014139D01*
X58466452Y-80065922D01*
X58317881Y-80161056D01*
X58196266Y-80296179D01*
X58147389Y-80377869D01*
X58064300Y-80538838D01*
X58064300Y-81931400D01*
X57632500Y-81931400D01*
X57632500Y-79668745D01*
X57842050Y-79676122D01*
X58051600Y-79683500D01*
X58077000Y-79905358D01*
X58127769Y-79848946D01*
X58245946Y-79752357D01*
X58397798Y-79681267D01*
X58571042Y-79639536D01*
X58753390Y-79631025D01*
X58807237Y-79635436D01*
G36*
X53827049Y-79665988D02*
G01*
X53941748Y-79692102D01*
X54162850Y-79782639D01*
X54354293Y-79909036D01*
X54511222Y-80066988D01*
X54628782Y-80252188D01*
X54663437Y-80332254D01*
X54697464Y-80425731D01*
X54709083Y-80484761D01*
X54691798Y-80517261D01*
X54639112Y-80531149D01*
X54544529Y-80534343D01*
X54497569Y-80534400D01*
X54283639Y-80534399D01*
X54252733Y-80440754D01*
X54186143Y-80314894D01*
X54079638Y-80203503D01*
X53943463Y-80113012D01*
X53787864Y-80049854D01*
X53623085Y-80020461D01*
X53581199Y-80019142D01*
X53398869Y-80041910D01*
X53228565Y-80106221D01*
X53079016Y-80206089D01*
X52958953Y-80335526D01*
X52877105Y-80488547D01*
X52870907Y-80506267D01*
X52837356Y-80664924D01*
X52831573Y-80840402D01*
X52852259Y-81014327D01*
X52898113Y-81168322D01*
X52921175Y-81216531D01*
X53026904Y-81367138D01*
X53161779Y-81479303D01*
X53309102Y-81550915D01*
X53487789Y-81593926D01*
X53667259Y-81593773D01*
X53839072Y-81553785D01*
X53994790Y-81477291D01*
X54125974Y-81367622D01*
X54224184Y-81228106D01*
X54245767Y-81181389D01*
X54292400Y-81067990D01*
X54501950Y-81067895D01*
X54604668Y-81068561D01*
X54666784Y-81072620D01*
X54698495Y-81082992D01*
X54709997Y-81102594D01*
X54711500Y-81127887D01*
X54695975Y-81202902D01*
X54654424Y-81302781D01*
X54594378Y-81414252D01*
X54523369Y-81524041D01*
X54448929Y-81618876D01*
X54410038Y-81659119D01*
X54230264Y-81794131D01*
X54021407Y-81894811D01*
X53794560Y-81957913D01*
X53560818Y-81980194D01*
X53365300Y-81964664D01*
X53172087Y-81913943D01*
X52984451Y-81830877D01*
X52814760Y-81722860D01*
X52675383Y-81597289D01*
X52608489Y-81512165D01*
X52527160Y-81377841D01*
X52471270Y-81252887D01*
X52436691Y-81122138D01*
X52419293Y-80970430D01*
X52414914Y-80801100D01*
X52416419Y-80660194D01*
X52422121Y-80556188D01*
X52433798Y-80475236D01*
X52453230Y-80403494D01*
X52472851Y-80350197D01*
X52578497Y-80150543D01*
X52724762Y-79974026D01*
X52903876Y-79828316D01*
X53108069Y-79721085D01*
X53111300Y-79719802D01*
X53267283Y-79675914D01*
X53451255Y-79651892D01*
X53644187Y-79648372D01*
X53827049Y-79665988D01*
G37*
X53827049Y-79665988D02*
X53941748Y-79692102D01*
X54162850Y-79782639D01*
X54354293Y-79909036D01*
X54511222Y-80066988D01*
X54628782Y-80252188D01*
X54663437Y-80332254D01*
X54697464Y-80425731D01*
X54709083Y-80484761D01*
X54691798Y-80517261D01*
X54639112Y-80531149D01*
X54544529Y-80534343D01*
X54497569Y-80534400D01*
X54283639Y-80534399D01*
X54252733Y-80440754D01*
X54186143Y-80314894D01*
X54079638Y-80203503D01*
X53943463Y-80113012D01*
X53787864Y-80049854D01*
X53623085Y-80020461D01*
X53581199Y-80019142D01*
X53398869Y-80041910D01*
X53228565Y-80106221D01*
X53079016Y-80206089D01*
X52958953Y-80335526D01*
X52877105Y-80488547D01*
X52870907Y-80506267D01*
X52837356Y-80664924D01*
X52831573Y-80840402D01*
X52852259Y-81014327D01*
X52898113Y-81168322D01*
X52921175Y-81216531D01*
X53026904Y-81367138D01*
X53161779Y-81479303D01*
X53309102Y-81550915D01*
X53487789Y-81593926D01*
X53667259Y-81593773D01*
X53839072Y-81553785D01*
X53994790Y-81477291D01*
X54125974Y-81367622D01*
X54224184Y-81228106D01*
X54245767Y-81181389D01*
X54292400Y-81067990D01*
X54501950Y-81067895D01*
X54604668Y-81068561D01*
X54666784Y-81072620D01*
X54698495Y-81082992D01*
X54709997Y-81102594D01*
X54711500Y-81127887D01*
X54695975Y-81202902D01*
X54654424Y-81302781D01*
X54594378Y-81414252D01*
X54523369Y-81524041D01*
X54448929Y-81618876D01*
X54410038Y-81659119D01*
X54230264Y-81794131D01*
X54021407Y-81894811D01*
X53794560Y-81957913D01*
X53560818Y-81980194D01*
X53365300Y-81964664D01*
X53172087Y-81913943D01*
X52984451Y-81830877D01*
X52814760Y-81722860D01*
X52675383Y-81597289D01*
X52608489Y-81512165D01*
X52527160Y-81377841D01*
X52471270Y-81252887D01*
X52436691Y-81122138D01*
X52419293Y-80970430D01*
X52414914Y-80801100D01*
X52416419Y-80660194D01*
X52422121Y-80556188D01*
X52433798Y-80475236D01*
X52453230Y-80403494D01*
X52472851Y-80350197D01*
X52578497Y-80150543D01*
X52724762Y-79974026D01*
X52903876Y-79828316D01*
X53108069Y-79721085D01*
X53111300Y-79719802D01*
X53267283Y-79675914D01*
X53451255Y-79651892D01*
X53644187Y-79648372D01*
X53827049Y-79665988D01*
G36*
X60469491Y-79658791D02*
G01*
X60563575Y-79662451D01*
X60633990Y-79671455D01*
X60694301Y-79688181D01*
X60758070Y-79715005D01*
X60812251Y-79741171D01*
X60983298Y-79849513D01*
X61116548Y-79988673D01*
X61213879Y-80161378D01*
X61277168Y-80370354D01*
X61288575Y-80432800D01*
X61295864Y-80503770D01*
X61302403Y-80616525D01*
X61307903Y-80762049D01*
X61312074Y-80931330D01*
X61314627Y-81115353D01*
X61315308Y-81264650D01*
X61315500Y-81931400D01*
X60883700Y-81931400D01*
X60883700Y-81212110D01*
X60883093Y-80983457D01*
X60881100Y-80799758D01*
X60877463Y-80655177D01*
X60871922Y-80543882D01*
X60864219Y-80460037D01*
X60854095Y-80397809D01*
X60846197Y-80366534D01*
X60781437Y-80228307D01*
X60680530Y-80125106D01*
X60545103Y-80057984D01*
X60376780Y-80027999D01*
X60322312Y-80026400D01*
X60159841Y-80036817D01*
X60029862Y-80071694D01*
X59917764Y-80136472D01*
X59837860Y-80206726D01*
X59783673Y-80263731D01*
X59740291Y-80319501D01*
X59706523Y-80380365D01*
X59681179Y-80452652D01*
X59663067Y-80542689D01*
X59650996Y-80656805D01*
X59643777Y-80801327D01*
X59640217Y-80982585D01*
X59639126Y-81206907D01*
X59639100Y-81262910D01*
X59639100Y-81931400D01*
X59207300Y-81931400D01*
X59207300Y-79670800D01*
X59639100Y-79670800D01*
X59639100Y-79928707D01*
X59721364Y-79846442D01*
X59807752Y-79770836D01*
X59898455Y-79717569D01*
X60004478Y-79683282D01*
X60136824Y-79664616D01*
X60306495Y-79658211D01*
X60338174Y-79658100D01*
X60469491Y-79658791D01*
G37*
X60469491Y-79658791D02*
X60563575Y-79662451D01*
X60633990Y-79671455D01*
X60694301Y-79688181D01*
X60758070Y-79715005D01*
X60812251Y-79741171D01*
X60983298Y-79849513D01*
X61116548Y-79988673D01*
X61213879Y-80161378D01*
X61277168Y-80370354D01*
X61288575Y-80432800D01*
X61295864Y-80503770D01*
X61302403Y-80616525D01*
X61307903Y-80762049D01*
X61312074Y-80931330D01*
X61314627Y-81115353D01*
X61315308Y-81264650D01*
X61315500Y-81931400D01*
X60883700Y-81931400D01*
X60883700Y-81212110D01*
X60883093Y-80983457D01*
X60881100Y-80799758D01*
X60877463Y-80655177D01*
X60871922Y-80543882D01*
X60864219Y-80460037D01*
X60854095Y-80397809D01*
X60846197Y-80366534D01*
X60781437Y-80228307D01*
X60680530Y-80125106D01*
X60545103Y-80057984D01*
X60376780Y-80027999D01*
X60322312Y-80026400D01*
X60159841Y-80036817D01*
X60029862Y-80071694D01*
X59917764Y-80136472D01*
X59837860Y-80206726D01*
X59783673Y-80263731D01*
X59740291Y-80319501D01*
X59706523Y-80380365D01*
X59681179Y-80452652D01*
X59663067Y-80542689D01*
X59650996Y-80656805D01*
X59643777Y-80801327D01*
X59640217Y-80982585D01*
X59639126Y-81206907D01*
X59639100Y-81262910D01*
X59639100Y-81931400D01*
X59207300Y-81931400D01*
X59207300Y-79670800D01*
X59639100Y-79670800D01*
X59639100Y-79928707D01*
X59721364Y-79846442D01*
X59807752Y-79770836D01*
X59898455Y-79717569D01*
X60004478Y-79683282D01*
X60136824Y-79664616D01*
X60306495Y-79658211D01*
X60338174Y-79658100D01*
X60469491Y-79658791D01*
G36*
X239317237Y-79785436D02*
G01*
X239463300Y-79801961D01*
X239463300Y-80172729D01*
X239329950Y-80159068D01*
X239145851Y-80164139D01*
X238976452Y-80215922D01*
X238827881Y-80311056D01*
X238706266Y-80446179D01*
X238657389Y-80527869D01*
X238574300Y-80688838D01*
X238574300Y-82081400D01*
X238142500Y-82081400D01*
X238142500Y-79818745D01*
X238352050Y-79826122D01*
X238561600Y-79833500D01*
X238587000Y-80055358D01*
X238637769Y-79998946D01*
X238755946Y-79902357D01*
X238907798Y-79831267D01*
X239081042Y-79789536D01*
X239263390Y-79781025D01*
X239317237Y-79785436D01*
G37*
X239317237Y-79785436D02*
X239463300Y-79801961D01*
X239463300Y-80172729D01*
X239329950Y-80159068D01*
X239145851Y-80164139D01*
X238976452Y-80215922D01*
X238827881Y-80311056D01*
X238706266Y-80446179D01*
X238657389Y-80527869D01*
X238574300Y-80688838D01*
X238574300Y-82081400D01*
X238142500Y-82081400D01*
X238142500Y-79818745D01*
X238352050Y-79826122D01*
X238561600Y-79833500D01*
X238587000Y-80055358D01*
X238637769Y-79998946D01*
X238755946Y-79902357D01*
X238907798Y-79831267D01*
X239081042Y-79789536D01*
X239263390Y-79781025D01*
X239317237Y-79785436D01*
G36*
X240979491Y-79808791D02*
G01*
X241073575Y-79812451D01*
X241143990Y-79821455D01*
X241204301Y-79838181D01*
X241268070Y-79865005D01*
X241322251Y-79891171D01*
X241493298Y-79999513D01*
X241626548Y-80138673D01*
X241723879Y-80311378D01*
X241787168Y-80520354D01*
X241798575Y-80582800D01*
X241805864Y-80653770D01*
X241812403Y-80766525D01*
X241817903Y-80912049D01*
X241822074Y-81081330D01*
X241824627Y-81265353D01*
X241825308Y-81414650D01*
X241825500Y-82081400D01*
X241393700Y-82081400D01*
X241393700Y-81362110D01*
X241393093Y-81133457D01*
X241391100Y-80949758D01*
X241387463Y-80805177D01*
X241381922Y-80693882D01*
X241374219Y-80610037D01*
X241364095Y-80547809D01*
X241356197Y-80516534D01*
X241291437Y-80378307D01*
X241190530Y-80275106D01*
X241055103Y-80207984D01*
X240886780Y-80177999D01*
X240832312Y-80176400D01*
X240669841Y-80186817D01*
X240539862Y-80221694D01*
X240427764Y-80286472D01*
X240347860Y-80356726D01*
X240293673Y-80413731D01*
X240250291Y-80469501D01*
X240216523Y-80530365D01*
X240191179Y-80602652D01*
X240173067Y-80692689D01*
X240160996Y-80806805D01*
X240153777Y-80951327D01*
X240150217Y-81132585D01*
X240149126Y-81356907D01*
X240149100Y-81412910D01*
X240149100Y-82081400D01*
X239717300Y-82081400D01*
X239717300Y-79820800D01*
X240149100Y-79820800D01*
X240149100Y-80078707D01*
X240231364Y-79996442D01*
X240317752Y-79920836D01*
X240408455Y-79867569D01*
X240514478Y-79833282D01*
X240646824Y-79814616D01*
X240816495Y-79808211D01*
X240848174Y-79808100D01*
X240979491Y-79808791D01*
G37*
X240979491Y-79808791D02*
X241073575Y-79812451D01*
X241143990Y-79821455D01*
X241204301Y-79838181D01*
X241268070Y-79865005D01*
X241322251Y-79891171D01*
X241493298Y-79999513D01*
X241626548Y-80138673D01*
X241723879Y-80311378D01*
X241787168Y-80520354D01*
X241798575Y-80582800D01*
X241805864Y-80653770D01*
X241812403Y-80766525D01*
X241817903Y-80912049D01*
X241822074Y-81081330D01*
X241824627Y-81265353D01*
X241825308Y-81414650D01*
X241825500Y-82081400D01*
X241393700Y-82081400D01*
X241393700Y-81362110D01*
X241393093Y-81133457D01*
X241391100Y-80949758D01*
X241387463Y-80805177D01*
X241381922Y-80693882D01*
X241374219Y-80610037D01*
X241364095Y-80547809D01*
X241356197Y-80516534D01*
X241291437Y-80378307D01*
X241190530Y-80275106D01*
X241055103Y-80207984D01*
X240886780Y-80177999D01*
X240832312Y-80176400D01*
X240669841Y-80186817D01*
X240539862Y-80221694D01*
X240427764Y-80286472D01*
X240347860Y-80356726D01*
X240293673Y-80413731D01*
X240250291Y-80469501D01*
X240216523Y-80530365D01*
X240191179Y-80602652D01*
X240173067Y-80692689D01*
X240160996Y-80806805D01*
X240153777Y-80951327D01*
X240150217Y-81132585D01*
X240149126Y-81356907D01*
X240149100Y-81412910D01*
X240149100Y-82081400D01*
X239717300Y-82081400D01*
X239717300Y-79820800D01*
X240149100Y-79820800D01*
X240149100Y-80078707D01*
X240231364Y-79996442D01*
X240317752Y-79920836D01*
X240408455Y-79867569D01*
X240514478Y-79833282D01*
X240646824Y-79814616D01*
X240816495Y-79808211D01*
X240848174Y-79808100D01*
X240979491Y-79808791D01*
G36*
X242242606Y-80331643D02*
G01*
X242376079Y-80154563D01*
X242545108Y-80008672D01*
X242657999Y-79940689D01*
X242852603Y-79856746D01*
X243049926Y-79809901D01*
X243269213Y-79795400D01*
X243511530Y-79818406D01*
X243733894Y-79884705D01*
X243932133Y-79990213D01*
X244102079Y-80130847D01*
X244239559Y-80302524D01*
X244340404Y-80501162D01*
X244400443Y-80722678D01*
X244416300Y-80918336D01*
X244416300Y-81065400D01*
X242511300Y-81065400D01*
X242511300Y-81138498D01*
X242534217Y-81261649D01*
X242597655Y-81389172D01*
X242693643Y-81510298D01*
X242814211Y-81614256D01*
X242903388Y-81668239D01*
X243039242Y-81719647D01*
X243199904Y-81744683D01*
X243212872Y-81745596D01*
X243395129Y-81743127D01*
X243548803Y-81706329D01*
X243686495Y-81630614D01*
X243801193Y-81531419D01*
X243937013Y-81395600D01*
X244140268Y-81395600D01*
X244240811Y-81396246D01*
X244300033Y-81400122D01*
X244327410Y-81410133D01*
X244332419Y-81429182D01*
X244326730Y-81452750D01*
X244288417Y-81538398D01*
X244223499Y-81641086D01*
X244143774Y-81744606D01*
X244061044Y-81832746D01*
X244030857Y-81859173D01*
X243831990Y-81988773D01*
X243609302Y-82078237D01*
X243372596Y-82125509D01*
X243131673Y-82128535D01*
X242920357Y-82092004D01*
X242699245Y-82007879D01*
X242504425Y-81884023D01*
X242340825Y-81725554D01*
X242213374Y-81537590D01*
X242127001Y-81325249D01*
X242107844Y-81248299D01*
X242077308Y-80998242D01*
X242091041Y-80758661D01*
X242103222Y-80709800D01*
X242512557Y-80709800D01*
X243235828Y-80709800D01*
X243448414Y-80709528D01*
X243615499Y-80708521D01*
X243742379Y-80706494D01*
X243834351Y-80703158D01*
X243896712Y-80698229D01*
X243934759Y-80691420D01*
X243953788Y-80682444D01*
X243959097Y-80671014D01*
X243959100Y-80670688D01*
X243938723Y-80588758D01*
X243884025Y-80493173D01*
X243804652Y-80395722D01*
X243710248Y-80308195D01*
X243610461Y-80242383D01*
X243607403Y-80240826D01*
X243468347Y-80193277D01*
X243304233Y-80172014D01*
X243133428Y-80176960D01*
X242974298Y-80208039D01*
X242882560Y-80243844D01*
X242736026Y-80345486D01*
X242617149Y-80486797D01*
X242536765Y-80646127D01*
X242512557Y-80709800D01*
X242103222Y-80709800D01*
X242146867Y-80534735D01*
X242242606Y-80331643D01*
G37*
X242242606Y-80331643D02*
X242376079Y-80154563D01*
X242545108Y-80008672D01*
X242657999Y-79940689D01*
X242852603Y-79856746D01*
X243049926Y-79809901D01*
X243269213Y-79795400D01*
X243511530Y-79818406D01*
X243733894Y-79884705D01*
X243932133Y-79990213D01*
X244102079Y-80130847D01*
X244239559Y-80302524D01*
X244340404Y-80501162D01*
X244400443Y-80722678D01*
X244416300Y-80918336D01*
X244416300Y-81065400D01*
X242511300Y-81065400D01*
X242511300Y-81138498D01*
X242534217Y-81261649D01*
X242597655Y-81389172D01*
X242693643Y-81510298D01*
X242814211Y-81614256D01*
X242903388Y-81668239D01*
X243039242Y-81719647D01*
X243199904Y-81744683D01*
X243212872Y-81745596D01*
X243395129Y-81743127D01*
X243548803Y-81706329D01*
X243686495Y-81630614D01*
X243801193Y-81531419D01*
X243937013Y-81395600D01*
X244140268Y-81395600D01*
X244240811Y-81396246D01*
X244300033Y-81400122D01*
X244327410Y-81410133D01*
X244332419Y-81429182D01*
X244326730Y-81452750D01*
X244288417Y-81538398D01*
X244223499Y-81641086D01*
X244143774Y-81744606D01*
X244061044Y-81832746D01*
X244030857Y-81859173D01*
X243831990Y-81988773D01*
X243609302Y-82078237D01*
X243372596Y-82125509D01*
X243131673Y-82128535D01*
X242920357Y-82092004D01*
X242699245Y-82007879D01*
X242504425Y-81884023D01*
X242340825Y-81725554D01*
X242213374Y-81537590D01*
X242127001Y-81325249D01*
X242107844Y-81248299D01*
X242077308Y-80998242D01*
X242091041Y-80758661D01*
X242103222Y-80709800D01*
X242512557Y-80709800D01*
X243235828Y-80709800D01*
X243448414Y-80709528D01*
X243615499Y-80708521D01*
X243742379Y-80706494D01*
X243834351Y-80703158D01*
X243896712Y-80698229D01*
X243934759Y-80691420D01*
X243953788Y-80682444D01*
X243959097Y-80671014D01*
X243959100Y-80670688D01*
X243938723Y-80588758D01*
X243884025Y-80493173D01*
X243804652Y-80395722D01*
X243710248Y-80308195D01*
X243610461Y-80242383D01*
X243607403Y-80240826D01*
X243468347Y-80193277D01*
X243304233Y-80172014D01*
X243133428Y-80176960D01*
X242974298Y-80208039D01*
X242882560Y-80243844D01*
X242736026Y-80345486D01*
X242617149Y-80486797D01*
X242536765Y-80646127D01*
X242512557Y-80709800D01*
X242103222Y-80709800D01*
X242146867Y-80534735D01*
X242242606Y-80331643D01*
G36*
X235435650Y-80668693D02*
G01*
X235510850Y-80452052D01*
X235626357Y-80258365D01*
X235779687Y-80092687D01*
X235968360Y-79960069D01*
X236012419Y-79936803D01*
X236186705Y-79862053D01*
X236358030Y-79817281D01*
X236543905Y-79799147D01*
X236719986Y-79801840D01*
X236973440Y-79837111D01*
X237201525Y-79913807D01*
X237401175Y-80029865D01*
X237569325Y-80183222D01*
X237702908Y-80371816D01*
X237767456Y-80506600D01*
X237799018Y-80620705D01*
X237819285Y-80768371D01*
X237828030Y-80933580D01*
X237825025Y-81100313D01*
X237810043Y-81252551D01*
X237782856Y-81374275D01*
X237779905Y-81382900D01*
X237683519Y-81580172D01*
X237544275Y-81756574D01*
X237367679Y-81906769D01*
X237159241Y-82025421D01*
X237084340Y-82056770D01*
X236952321Y-82093019D01*
X236789335Y-82116467D01*
X236613781Y-82126287D01*
X236444060Y-82121650D01*
X236298574Y-82101729D01*
X236265753Y-82093599D01*
X236051853Y-82011401D01*
X235857121Y-81893093D01*
X235690155Y-81745635D01*
X235559556Y-81575986D01*
X235508682Y-81480895D01*
X235470337Y-81378102D01*
X235436151Y-81253876D01*
X235416099Y-81150628D01*
X235408748Y-81009224D01*
X235833074Y-81009224D01*
X235847409Y-81156866D01*
X235867541Y-81238207D01*
X235920794Y-81350941D01*
X236001195Y-81466333D01*
X236095178Y-81567702D01*
X236189174Y-81638365D01*
X236195958Y-81642020D01*
X236392698Y-81718118D01*
X236597689Y-81748463D01*
X236801104Y-81732243D01*
X236913664Y-81701468D01*
X237090944Y-81614347D01*
X237235410Y-81490677D01*
X237342587Y-81334341D01*
X237347020Y-81325466D01*
X237400010Y-81169401D01*
X237421993Y-80992298D01*
X237412639Y-80813017D01*
X237371621Y-80650421D01*
X237359289Y-80620900D01*
X237261958Y-80461906D01*
X237134261Y-80337092D01*
X236983564Y-80246623D01*
X236817236Y-80190666D01*
X236642642Y-80169386D01*
X236467149Y-80182949D01*
X236298124Y-80231522D01*
X236142934Y-80315270D01*
X236008945Y-80434360D01*
X235903965Y-80588101D01*
X235862419Y-80705807D01*
X235838433Y-80852526D01*
X235833074Y-81009224D01*
X235408748Y-81009224D01*
X235403238Y-80903236D01*
X235435650Y-80668693D01*
G37*
X235435650Y-80668693D02*
X235510850Y-80452052D01*
X235626357Y-80258365D01*
X235779687Y-80092687D01*
X235968360Y-79960069D01*
X236012419Y-79936803D01*
X236186705Y-79862053D01*
X236358030Y-79817281D01*
X236543905Y-79799147D01*
X236719986Y-79801840D01*
X236973440Y-79837111D01*
X237201525Y-79913807D01*
X237401175Y-80029865D01*
X237569325Y-80183222D01*
X237702908Y-80371816D01*
X237767456Y-80506600D01*
X237799018Y-80620705D01*
X237819285Y-80768371D01*
X237828030Y-80933580D01*
X237825025Y-81100313D01*
X237810043Y-81252551D01*
X237782856Y-81374275D01*
X237779905Y-81382900D01*
X237683519Y-81580172D01*
X237544275Y-81756574D01*
X237367679Y-81906769D01*
X237159241Y-82025421D01*
X237084340Y-82056770D01*
X236952321Y-82093019D01*
X236789335Y-82116467D01*
X236613781Y-82126287D01*
X236444060Y-82121650D01*
X236298574Y-82101729D01*
X236265753Y-82093599D01*
X236051853Y-82011401D01*
X235857121Y-81893093D01*
X235690155Y-81745635D01*
X235559556Y-81575986D01*
X235508682Y-81480895D01*
X235470337Y-81378102D01*
X235436151Y-81253876D01*
X235416099Y-81150628D01*
X235408748Y-81009224D01*
X235833074Y-81009224D01*
X235847409Y-81156866D01*
X235867541Y-81238207D01*
X235920794Y-81350941D01*
X236001195Y-81466333D01*
X236095178Y-81567702D01*
X236189174Y-81638365D01*
X236195958Y-81642020D01*
X236392698Y-81718118D01*
X236597689Y-81748463D01*
X236801104Y-81732243D01*
X236913664Y-81701468D01*
X237090944Y-81614347D01*
X237235410Y-81490677D01*
X237342587Y-81334341D01*
X237347020Y-81325466D01*
X237400010Y-81169401D01*
X237421993Y-80992298D01*
X237412639Y-80813017D01*
X237371621Y-80650421D01*
X237359289Y-80620900D01*
X237261958Y-80461906D01*
X237134261Y-80337092D01*
X236983564Y-80246623D01*
X236817236Y-80190666D01*
X236642642Y-80169386D01*
X236467149Y-80182949D01*
X236298124Y-80231522D01*
X236142934Y-80315270D01*
X236008945Y-80434360D01*
X235903965Y-80588101D01*
X235862419Y-80705807D01*
X235838433Y-80852526D01*
X235833074Y-81009224D01*
X235408748Y-81009224D01*
X235403238Y-80903236D01*
X235435650Y-80668693D01*
G36*
X234337049Y-79815988D02*
G01*
X234451748Y-79842102D01*
X234672850Y-79932639D01*
X234864293Y-80059036D01*
X235021222Y-80216988D01*
X235138782Y-80402188D01*
X235173437Y-80482254D01*
X235207464Y-80575731D01*
X235219083Y-80634761D01*
X235201798Y-80667261D01*
X235149112Y-80681149D01*
X235054529Y-80684343D01*
X235007569Y-80684400D01*
X234793639Y-80684399D01*
X234762733Y-80590754D01*
X234696143Y-80464894D01*
X234589638Y-80353503D01*
X234453463Y-80263012D01*
X234297864Y-80199854D01*
X234133085Y-80170461D01*
X234091199Y-80169142D01*
X233908869Y-80191910D01*
X233738565Y-80256221D01*
X233589016Y-80356089D01*
X233468953Y-80485526D01*
X233387105Y-80638547D01*
X233380907Y-80656267D01*
X233347356Y-80814924D01*
X233341573Y-80990402D01*
X233362259Y-81164327D01*
X233408113Y-81318322D01*
X233431175Y-81366531D01*
X233536904Y-81517138D01*
X233671779Y-81629303D01*
X233819102Y-81700915D01*
X233997789Y-81743926D01*
X234177259Y-81743773D01*
X234349072Y-81703785D01*
X234504790Y-81627291D01*
X234635974Y-81517622D01*
X234734184Y-81378106D01*
X234755767Y-81331389D01*
X234802400Y-81217990D01*
X235011950Y-81217895D01*
X235114668Y-81218561D01*
X235176784Y-81222620D01*
X235208495Y-81232992D01*
X235219997Y-81252594D01*
X235221500Y-81277887D01*
X235205975Y-81352902D01*
X235164424Y-81452781D01*
X235104378Y-81564252D01*
X235033369Y-81674041D01*
X234958929Y-81768876D01*
X234920038Y-81809119D01*
X234740264Y-81944131D01*
X234531407Y-82044811D01*
X234304560Y-82107913D01*
X234070818Y-82130194D01*
X233875300Y-82114664D01*
X233682087Y-82063943D01*
X233494451Y-81980877D01*
X233324760Y-81872860D01*
X233185383Y-81747289D01*
X233118489Y-81662165D01*
X233037160Y-81527841D01*
X232981270Y-81402887D01*
X232946691Y-81272138D01*
X232929293Y-81120430D01*
X232924914Y-80951100D01*
X232926419Y-80810194D01*
X232932121Y-80706188D01*
X232943798Y-80625236D01*
X232963230Y-80553494D01*
X232982851Y-80500197D01*
X233088497Y-80300543D01*
X233234762Y-80124026D01*
X233413876Y-79978316D01*
X233618069Y-79871085D01*
X233621300Y-79869802D01*
X233777283Y-79825914D01*
X233961255Y-79801892D01*
X234154187Y-79798372D01*
X234337049Y-79815988D01*
G37*
X234337049Y-79815988D02*
X234451748Y-79842102D01*
X234672850Y-79932639D01*
X234864293Y-80059036D01*
X235021222Y-80216988D01*
X235138782Y-80402188D01*
X235173437Y-80482254D01*
X235207464Y-80575731D01*
X235219083Y-80634761D01*
X235201798Y-80667261D01*
X235149112Y-80681149D01*
X235054529Y-80684343D01*
X235007569Y-80684400D01*
X234793639Y-80684399D01*
X234762733Y-80590754D01*
X234696143Y-80464894D01*
X234589638Y-80353503D01*
X234453463Y-80263012D01*
X234297864Y-80199854D01*
X234133085Y-80170461D01*
X234091199Y-80169142D01*
X233908869Y-80191910D01*
X233738565Y-80256221D01*
X233589016Y-80356089D01*
X233468953Y-80485526D01*
X233387105Y-80638547D01*
X233380907Y-80656267D01*
X233347356Y-80814924D01*
X233341573Y-80990402D01*
X233362259Y-81164327D01*
X233408113Y-81318322D01*
X233431175Y-81366531D01*
X233536904Y-81517138D01*
X233671779Y-81629303D01*
X233819102Y-81700915D01*
X233997789Y-81743926D01*
X234177259Y-81743773D01*
X234349072Y-81703785D01*
X234504790Y-81627291D01*
X234635974Y-81517622D01*
X234734184Y-81378106D01*
X234755767Y-81331389D01*
X234802400Y-81217990D01*
X235011950Y-81217895D01*
X235114668Y-81218561D01*
X235176784Y-81222620D01*
X235208495Y-81232992D01*
X235219997Y-81252594D01*
X235221500Y-81277887D01*
X235205975Y-81352902D01*
X235164424Y-81452781D01*
X235104378Y-81564252D01*
X235033369Y-81674041D01*
X234958929Y-81768876D01*
X234920038Y-81809119D01*
X234740264Y-81944131D01*
X234531407Y-82044811D01*
X234304560Y-82107913D01*
X234070818Y-82130194D01*
X233875300Y-82114664D01*
X233682087Y-82063943D01*
X233494451Y-81980877D01*
X233324760Y-81872860D01*
X233185383Y-81747289D01*
X233118489Y-81662165D01*
X233037160Y-81527841D01*
X232981270Y-81402887D01*
X232946691Y-81272138D01*
X232929293Y-81120430D01*
X232924914Y-80951100D01*
X232926419Y-80810194D01*
X232932121Y-80706188D01*
X232943798Y-80625236D01*
X232963230Y-80553494D01*
X232982851Y-80500197D01*
X233088497Y-80300543D01*
X233234762Y-80124026D01*
X233413876Y-79978316D01*
X233618069Y-79871085D01*
X233621300Y-79869802D01*
X233777283Y-79825914D01*
X233961255Y-79801892D01*
X234154187Y-79798372D01*
X234337049Y-79815988D01*
D11*
X153087500Y-27540000D02*
X153087500Y-28540000D01*
X161837500Y-25440000D02*
X162137500Y-25440000D01*
X170887500Y-27540000D02*
X169937500Y-27540000D01*
X170887500Y-60590000D02*
X169877500Y-60590000D01*
X153087500Y-60590000D02*
X154087500Y-60590000D01*
X165737500Y-24640000D02*
X158237500Y-24640000D01*
X161487500Y-24990000D02*
X162487500Y-24990000D01*
X165737500Y-25940000D02*
X165737500Y-24640000D01*
X158237500Y-24640000D02*
X158237500Y-25940000D01*
X153087500Y-59540000D02*
X153087500Y-60590000D01*
X161737500Y-25290000D02*
X162237500Y-25290000D01*
X162487500Y-24990000D02*
X161987500Y-25640000D01*
X170887500Y-27540000D02*
X170887500Y-28540000D01*
X153087500Y-27540000D02*
X154087500Y-27540000D01*
X158237500Y-25940000D02*
X165737500Y-25940000D01*
X170887500Y-59590000D02*
X170887500Y-60590000D01*
X161987500Y-25640000D02*
X161487500Y-24990000D01*
X161637500Y-25140000D02*
X162337500Y-25140000D01*
D12*
X155567500Y-65690000D02*
X156897500Y-65690000D01*
X158167500Y-65690000D02*
X168387500Y-65690000D01*
X155567500Y-67020000D02*
X155567500Y-65690000D01*
X158167500Y-68350000D02*
X168387500Y-68350000D01*
X168387500Y-68350000D02*
X168387500Y-65690000D01*
X158167500Y-68350000D02*
X158167500Y-65690000D01*
X141070500Y-74052000D02*
X143960500Y-74052000D01*
X141070500Y-72772000D02*
X141070500Y-74052000D01*
X142670500Y-78852000D02*
X141070500Y-78852000D01*
X142670500Y-72772000D02*
X141070500Y-72772000D01*
X138420500Y-79872000D02*
X142670500Y-79872000D01*
X138420500Y-71752000D02*
X142670500Y-71752000D01*
X142670500Y-79872000D02*
X142670500Y-78852000D01*
X142670500Y-71752000D02*
X142670500Y-72772000D01*
X134850500Y-73472000D02*
X134850500Y-78152000D01*
X141070500Y-78852000D02*
X141070500Y-77572000D01*
X141188500Y-68481000D02*
X141188500Y-65821000D01*
X130968500Y-65821000D02*
X141188500Y-65821000D01*
X130968500Y-68481000D02*
X130968500Y-65821000D01*
X128368500Y-65821000D02*
X129698500Y-65821000D01*
X130968500Y-68481000D02*
X141188500Y-68481000D01*
X128368500Y-67151000D02*
X128368500Y-65821000D01*
X154211500Y-78852000D02*
X155811500Y-78852000D01*
X154211500Y-72772000D02*
X155811500Y-72772000D01*
X158461500Y-71752000D02*
X154211500Y-71752000D01*
X155811500Y-77572000D02*
X152921500Y-77572000D01*
X158461500Y-79872000D02*
X154211500Y-79872000D01*
X155811500Y-78852000D02*
X155811500Y-77572000D01*
X162031500Y-78152000D02*
X162031500Y-73472000D01*
X154211500Y-71752000D02*
X154211500Y-72772000D01*
X155811500Y-72772000D02*
X155811500Y-74052000D01*
X154211500Y-79872000D02*
X154211500Y-78852000D01*
D11*
X143712500Y-59590000D02*
X143712500Y-60590000D01*
X125912500Y-27540000D02*
X125912500Y-28540000D01*
X138562500Y-24640000D02*
X131062500Y-24640000D01*
X125912500Y-27540000D02*
X126912500Y-27540000D01*
X125912500Y-59540000D02*
X125912500Y-60590000D01*
X143712500Y-27540000D02*
X143712500Y-28540000D01*
X131062500Y-25940000D02*
X138562500Y-25940000D01*
X143712500Y-60590000D02*
X142702500Y-60590000D01*
X134462500Y-25140000D02*
X135162500Y-25140000D01*
X143712500Y-27540000D02*
X142762500Y-27540000D01*
X131062500Y-24640000D02*
X131062500Y-25940000D01*
X134662500Y-25440000D02*
X134962500Y-25440000D01*
X134812500Y-25640000D02*
X134312500Y-24990000D01*
X125912500Y-60590000D02*
X126912500Y-60590000D01*
X134562500Y-25290000D02*
X135062500Y-25290000D01*
X138562500Y-25940000D02*
X138562500Y-24640000D01*
X134312500Y-24990000D02*
X135312500Y-24990000D01*
X135312500Y-24990000D02*
X134812500Y-25640000D01*
D14*
X44657500Y-30780000D03*
X63657500Y-26030000D03*
X82657500Y-23655000D03*
X101657500Y-26030000D03*
X25657500Y-49780000D03*
X44657500Y-49780000D03*
X63657500Y-45030000D03*
X82657500Y-42655000D03*
X101657500Y-45030000D03*
X120657500Y-47405000D03*
X25657500Y-68780000D03*
X44657500Y-68780000D03*
X63657500Y-64030000D03*
X82657500Y-61655000D03*
X101657500Y-64030000D03*
X120657500Y-66405000D03*
X92157500Y-83655000D03*
D15*
X114262484Y-88011817D03*
D16*
X128302373Y-87848559D03*
D17*
X173969627Y-97456441D03*
D14*
X225164500Y-61650000D03*
X206164500Y-64025000D03*
X187164500Y-66400000D03*
X215664500Y-83650000D03*
D18*
X193181293Y-85133925D03*
D14*
X225164500Y-23650000D03*
X206164500Y-26025000D03*
X282164500Y-49775000D03*
X244164500Y-26025000D03*
X263164500Y-49775000D03*
X263164500Y-68775000D03*
X244164500Y-64025000D03*
X282164500Y-30775000D03*
X263164500Y-30775000D03*
X244164500Y-45025000D03*
X225164500Y-42650000D03*
X206164500Y-45025000D03*
X187164500Y-47400000D03*
X282164500Y-68775000D03*
X25657500Y-30780000D03*
X120657500Y-28405000D03*
X187157500Y-28405000D03*
D19*
X169598900Y-31362000D03*
X169598900Y-33902000D03*
X169598900Y-36442000D03*
X169598900Y-38982000D03*
X169598900Y-41522000D03*
X169598900Y-44062000D03*
X169598900Y-46602000D03*
X169598900Y-49142000D03*
X169598900Y-51682000D03*
X169598900Y-54222000D03*
X169598900Y-56762000D03*
X169598900Y-59302000D03*
X154378900Y-59302000D03*
X154378900Y-56762000D03*
X154378900Y-54222000D03*
X154378900Y-51682000D03*
X154378900Y-49142000D03*
X154378900Y-46602000D03*
X154378900Y-44062000D03*
X154378900Y-41522000D03*
X154378900Y-38982000D03*
X154378900Y-36442000D03*
X154378900Y-33902000D03*
X154378900Y-31362000D03*
X142423900Y-31362000D03*
X142423900Y-33902000D03*
X142423900Y-36442000D03*
X142423900Y-38982000D03*
X142423900Y-41522000D03*
X142423900Y-44062000D03*
X142423900Y-46602000D03*
X142423900Y-49142000D03*
X142423900Y-51682000D03*
X142423900Y-54222000D03*
X142423900Y-56762000D03*
X142423900Y-59302000D03*
X127203900Y-59302000D03*
X127203900Y-56762000D03*
X127203900Y-54222000D03*
X127203900Y-51682000D03*
X127203900Y-49142000D03*
X127203900Y-46602000D03*
X127203900Y-44062000D03*
X127203900Y-41522000D03*
X127203900Y-38982000D03*
X127203900Y-36442000D03*
X127203900Y-33902000D03*
X127203900Y-31362000D03*
%LPC*%
D20*
X143882500Y-70405000D03*
X143882500Y-64005000D03*
D21*
X142157500Y-64930000D03*
X142157500Y-69480000D03*
D22*
X39107500Y-41680000D03*
X34107500Y-39480000D03*
X53107500Y-34730000D03*
X58107500Y-36930000D03*
X72107500Y-32355000D03*
X77107500Y-34555000D03*
X96107500Y-36930000D03*
X91107500Y-34730000D03*
X15107500Y-58480000D03*
X20107500Y-60680000D03*
X39107500Y-60680000D03*
X34107500Y-58480000D03*
X58107500Y-55930000D03*
X53107500Y-53730000D03*
X77107500Y-53555000D03*
X72107500Y-51355000D03*
X96107500Y-55930000D03*
X91107500Y-53730000D03*
X115107500Y-58305000D03*
X110107500Y-56105000D03*
X15107500Y-77480000D03*
X20107500Y-79680000D03*
X39107500Y-79680000D03*
X34107500Y-77480000D03*
X53107500Y-72730000D03*
X58107500Y-74930000D03*
X77107500Y-72555000D03*
X72107500Y-70355000D03*
X96107500Y-74930000D03*
X91107500Y-72730000D03*
X115107500Y-77305000D03*
X110107500Y-75105000D03*
X86607500Y-94555000D03*
X81607500Y-92355000D03*
X101820240Y-93684830D03*
X106080468Y-97103962D03*
X134967050Y-98105000D03*
X130561794Y-101335127D03*
X161754950Y-98100000D03*
X161160206Y-92669873D03*
D23*
X153007500Y-70455000D03*
X153007500Y-64055000D03*
D24*
X154732500Y-69530000D03*
X154732500Y-64980000D03*
D22*
X214614500Y-70350000D03*
X219614500Y-72550000D03*
X200614500Y-74925000D03*
X195614500Y-72725000D03*
X181614500Y-77300000D03*
X176614500Y-75100000D03*
X210114500Y-94550000D03*
X205114500Y-92350000D03*
X185242501Y-96268021D03*
X190641532Y-97098962D03*
X219614500Y-34550000D03*
X214614500Y-32350000D03*
X200614500Y-36925000D03*
X195614500Y-34725000D03*
X276614500Y-60675000D03*
X271614500Y-58475000D03*
X233614500Y-34725000D03*
X238614500Y-36925000D03*
X257614500Y-60675000D03*
X252614500Y-58475000D03*
X257614500Y-79675000D03*
X252614500Y-77475000D03*
X233614500Y-72725000D03*
X238614500Y-74925000D03*
X276614500Y-41675000D03*
X271614500Y-39475000D03*
X257614500Y-41675000D03*
X252614500Y-39475000D03*
X233614500Y-53725000D03*
X238614500Y-55925000D03*
X219614500Y-53550000D03*
X214614500Y-51350000D03*
X195614500Y-53725000D03*
X200614500Y-55925000D03*
X176614500Y-56100000D03*
X181614500Y-58300000D03*
X271614500Y-77475000D03*
X276614500Y-79675000D03*
X20107500Y-41680000D03*
X15107500Y-39480000D03*
D25*
X105575500Y-41765500D03*
X72764500Y-81520500D03*
X119330500Y-89135000D03*
D26*
X127869500Y-74254000D03*
X142301500Y-82775000D03*
D25*
X177389500Y-89145000D03*
X223955500Y-81530500D03*
X267099500Y-45265500D03*
X191144500Y-41775500D03*
D22*
X110107500Y-37105000D03*
X115107500Y-39305000D03*
X181607500Y-39305000D03*
X176607500Y-37105000D03*
D25*
X29607500Y-64280000D03*
X29607500Y-45280000D03*
D27*
X60611750Y-21869000D03*
X57643000Y-21869000D03*
X60018000Y-21869000D03*
X58830500Y-21869000D03*
X59424250Y-21869000D03*
X55861750Y-21869000D03*
X56455500Y-21869000D03*
X57049250Y-21869000D03*
X58236750Y-21869000D03*
X96207500Y-21873000D03*
X98582500Y-21873000D03*
X95613750Y-21873000D03*
X97395000Y-21873000D03*
X94426250Y-21873000D03*
X93832500Y-21873000D03*
X97988750Y-21873000D03*
X96801250Y-21873000D03*
X95020000Y-21873000D03*
X17787500Y-83176000D03*
X18381250Y-83176000D03*
X21943750Y-83176000D03*
X22537500Y-83176000D03*
X21350000Y-83176000D03*
X19568750Y-83176000D03*
X20162500Y-83176000D03*
X20756250Y-83176000D03*
X18975000Y-83176000D03*
X57529750Y-83178000D03*
X58717250Y-83178000D03*
X60498500Y-83178000D03*
X56342250Y-83178000D03*
X58123500Y-83178000D03*
X59904750Y-83178000D03*
X55748500Y-83178000D03*
X59311000Y-83178000D03*
X56936000Y-83178000D03*
D28*
X156897500Y-67020000D03*
D29*
X159437500Y-67020000D03*
X161977500Y-67020000D03*
X164517500Y-67020000D03*
X167057500Y-67020000D03*
D30*
X142210500Y-74812000D03*
X142210500Y-76812000D03*
D31*
X136460500Y-72462000D03*
X136460500Y-79162000D03*
D28*
X129698500Y-67151000D03*
D29*
X132238500Y-67151000D03*
X134778500Y-67151000D03*
X137318500Y-67151000D03*
X139858500Y-67151000D03*
D32*
X154671500Y-76812000D03*
X154671500Y-74812000D03*
D33*
X160421500Y-72462000D03*
X160421500Y-79162000D03*
D26*
X154418500Y-82785000D03*
D25*
X267099500Y-64265500D03*
D26*
X168850500Y-74264000D03*
D27*
X278436750Y-83183000D03*
X274280500Y-83183000D03*
X276061750Y-83183000D03*
X276655500Y-83183000D03*
X279030500Y-83183000D03*
X277843000Y-83183000D03*
X274874250Y-83183000D03*
X275468000Y-83183000D03*
X277249250Y-83183000D03*
X200737500Y-21885000D03*
X201925000Y-21885000D03*
X200143750Y-21885000D03*
X201331250Y-21885000D03*
X198956250Y-21885000D03*
X202518750Y-21885000D03*
X198362500Y-21885000D03*
X199550000Y-21885000D03*
X203112500Y-21885000D03*
X238649500Y-21870000D03*
X240430750Y-21870000D03*
X236868250Y-21870000D03*
X241024500Y-21870000D03*
X239243250Y-21870000D03*
X236274500Y-21870000D03*
X237462000Y-21870000D03*
X238055750Y-21870000D03*
X239837000Y-21870000D03*
X236960250Y-83193000D03*
X238741500Y-83193000D03*
X241116500Y-83193000D03*
X238147750Y-83193000D03*
X240522750Y-83193000D03*
X237554000Y-83193000D03*
X236366500Y-83193000D03*
X239929000Y-83193000D03*
X239335250Y-83193000D03*
D34*
X163462500Y-28930000D03*
X160462500Y-28930000D03*
X136193787Y-28910000D03*
X133193787Y-28910000D03*
M02*
