M48
; DRILL file {KiCad (6.0.9-0)} date Saturday, December 17, 2022 at 09:41:54 AM
; FORMAT={-:-/ absolute / metric / decimal}
; #@! TF.CreationDate,2022-12-17T09:41:54-06:00
; #@! TF.GenerationSoftware,Kicad,Pcbnew,(6.0.9-0)
; #@! TF.FileFunction,Plated,1,2,PTH
FMAT,2
METRIC
; #@! TA.AperFunction,Plated,PTH,ComponentDrill
T1C0.300
; #@! TA.AperFunction,Plated,PTH,ViaDrill
T2C0.400
; #@! TA.AperFunction,Plated,PTH,ViaDrill
T3C0.500
; #@! TA.AperFunction,Plated,PTH,ComponentDrill
T4C0.813
; #@! TA.AperFunction,Plated,PTH,ComponentDrill
T5C1.000
%
G90
G05
T2
X11.807Y-37.48
X11.807Y-41.48
X11.807Y-56.48
X11.807Y-60.48
X11.807Y-75.48
X30.807Y-36.68
X30.807Y-41.48
X30.807Y-56.48
X30.807Y-60.48
X30.807Y-75.48
X49.807Y-36.78
X49.807Y-55.78
X49.807Y-70.68
X49.825Y-50.798
X68.807Y-34.38
X68.807Y-46.055
X68.807Y-48.016
X68.807Y-53.38
X68.807Y-68.28
X68.807Y-72.38
X78.307Y-90.28
X87.807Y-36.78
X87.807Y-39.88
X87.807Y-41.98
X87.807Y-51.68
X87.807Y-55.78
X87.807Y-69.18
X87.807Y-74.78
X96.707Y-92.28
X106.807Y-39.18
X106.807Y-54.08
X106.807Y-58.18
X106.807Y-64.88
X106.807Y-66.48
X106.807Y-71.98
X106.807Y-77.18
X108.108Y-44.68
X108.108Y-46.88
X122.707Y-67.58
X124.605Y-66.577
X124.607Y-60.18
X125.307Y-59.48
X126.707Y-104.18
X130.607Y-53.38
X132.308Y-54.18
X136.007Y-58.78
X154.757Y-63.43
X159.84Y-50.197
X160.724Y-50.197
X161.607Y-88.98
X170.808Y-60.13
X173.308Y-39.38
X173.308Y-53.88
X173.308Y-63.38
X173.308Y-72.88
X173.308Y-77.28
X181.407Y-94.78
X192.308Y-36.98
X192.308Y-51.48
X192.308Y-63.38
X192.308Y-70.48
X192.308Y-74.98
X201.808Y-90.08
X211.308Y-34.58
X211.308Y-49.18
X211.308Y-61.18
X211.308Y-68.18
X211.308Y-72.58
X230.307Y-36.98
X230.307Y-51.58
X230.307Y-64.38
X230.307Y-70.58
X249.307Y-41.68
X249.307Y-56.28
X249.307Y-66.73
X249.307Y-75.28
X268.308Y-41.68
X268.308Y-56.28
X268.308Y-60.68
X268.308Y-71.524
T3
X129.107Y-58.08
X129.107Y-63.78
X135.407Y-32.88
X139.308Y-76.78
X156.601Y-39.087
X156.607Y-55.43
X157.808Y-74.78
X161.957Y-46.58
X162.707Y-32.88
T4
X127.204Y-31.362
X127.204Y-33.902
X127.204Y-36.442
X127.204Y-38.982
X127.204Y-41.522
X127.204Y-44.062
X127.204Y-46.602
X127.204Y-49.142
X127.204Y-51.682
X127.204Y-54.222
X127.204Y-56.762
X127.204Y-59.302
X142.424Y-31.362
X142.424Y-33.902
X142.424Y-36.442
X142.424Y-38.982
X142.424Y-41.522
X142.424Y-44.062
X142.424Y-46.602
X142.424Y-49.142
X142.424Y-51.682
X142.424Y-54.222
X142.424Y-56.762
X142.424Y-59.302
X154.379Y-31.362
X154.379Y-33.902
X154.379Y-36.442
X154.379Y-38.982
X154.379Y-41.522
X154.379Y-44.062
X154.379Y-46.602
X154.379Y-49.142
X154.379Y-51.682
X154.379Y-54.222
X154.379Y-56.762
X154.379Y-59.302
X169.599Y-31.362
X169.599Y-33.902
X169.599Y-36.442
X169.599Y-38.982
X169.599Y-41.522
X169.599Y-44.062
X169.599Y-46.602
X169.599Y-49.142
X169.599Y-51.682
X169.599Y-54.222
X169.599Y-56.762
X169.599Y-59.302
T5
X129.698Y-67.151
X132.238Y-67.151
X134.778Y-67.151
X137.319Y-67.151
X139.858Y-67.151
X156.897Y-67.02
X159.438Y-67.02
X161.977Y-67.02
X164.517Y-67.02
X167.058Y-67.02
T1
X26.008Y-30.78G85X25.307Y-30.78
G05
X26.008Y-49.78G85X25.307Y-49.78
G05
X26.008Y-68.78G85X25.307Y-68.78
G05
X45.008Y-30.78G85X44.307Y-30.78
G05
X45.008Y-49.78G85X44.307Y-49.78
G05
X45.008Y-68.78G85X44.307Y-68.78
G05
X64.007Y-26.03G85X63.307Y-26.03
G05
X64.007Y-45.03G85X63.307Y-45.03
G05
X64.007Y-64.03G85X63.307Y-64.03
G05
X83.007Y-23.655G85X82.307Y-23.655
G05
X83.007Y-42.655G85X82.307Y-42.655
G05
X83.007Y-61.655G85X82.307Y-61.655
G05
X92.507Y-83.655G85X91.807Y-83.655
G05
X102.007Y-26.03G85X101.307Y-26.03
G05
X102.007Y-45.03G85X101.307Y-45.03
G05
X102.007Y-64.03G85X101.307Y-64.03
G05
X114.601Y-88.102G85X113.924Y-87.921
G05
X121.007Y-28.405G85X120.307Y-28.405
G05
X121.007Y-47.405G85X120.307Y-47.405
G05
X121.007Y-66.405G85X120.307Y-66.405
G05
X128.477Y-87.545G85X128.127Y-88.152
G05
X174.145Y-97.76G85X173.795Y-97.153
G05
X187.507Y-28.405G85X186.808Y-28.405
G05
X187.514Y-47.4G85X186.814Y-47.4
G05
X187.514Y-66.4G85X186.814Y-66.4
G05
X193.519Y-85.043G85X192.843Y-85.225
G05
X206.514Y-26.025G85X205.814Y-26.025
G05
X206.514Y-45.025G85X205.814Y-45.025
G05
X206.514Y-64.025G85X205.814Y-64.025
G05
X216.014Y-83.65G85X215.314Y-83.65
G05
X225.514Y-23.65G85X224.814Y-23.65
G05
X225.514Y-42.65G85X224.814Y-42.65
G05
X225.514Y-61.65G85X224.814Y-61.65
G05
X244.514Y-26.025G85X243.814Y-26.025
G05
X244.514Y-45.025G85X243.814Y-45.025
G05
X244.514Y-64.025G85X243.814Y-64.025
G05
X263.514Y-30.775G85X262.815Y-30.775
G05
X263.514Y-49.775G85X262.815Y-49.775
G05
X263.514Y-68.775G85X262.815Y-68.775
G05
X282.514Y-30.775G85X281.815Y-30.775
G05
X282.514Y-49.775G85X281.815Y-49.775
G05
X282.514Y-68.775G85X281.815Y-68.775
G05
T0
M30
