%TF.GenerationSoftware,KiCad,Pcbnew,(6.0.9-0)*%
%TF.CreationDate,2022-12-17T09:44:14-06:00*%
%TF.ProjectId,cho-corne-ice,63686f2d-636f-4726-9e65-2d6963652e6b,v0.2*%
%TF.SameCoordinates,Original*%
%TF.FileFunction,Paste,Bot*%
%TF.FilePolarity,Positive*%
%FSLAX46Y46*%
G04 Gerber Fmt 4.6, Leading zero omitted, Abs format (unit mm)*
G04 Created by KiCad (PCBNEW (6.0.9-0)) date 2022-12-17 09:44:14*
%MOMM*%
%LPD*%
G01*
G04 APERTURE LIST*
G04 Aperture macros list*
%AMRotRect*
0 Rectangle, with rotation*
0 The origin of the aperture is its center*
0 $1 length*
0 $2 width*
0 $3 Rotation angle, in degrees counterclockwise*
0 Add horizontal line*
21,1,$1,$2,0,0,$3*%
G04 Aperture macros list end*
%ADD10R,2.600000X2.600000*%
%ADD11RotRect,2.600000X2.600000X165.000000*%
%ADD12RotRect,2.600000X2.600000X240.000000*%
%ADD13RotRect,2.600000X2.600000X120.000000*%
%ADD14RotRect,2.600000X2.600000X195.000000*%
%ADD15R,1.000000X1.400000*%
%ADD16R,1.000000X0.800000*%
%ADD17R,0.700000X1.500000*%
G04 APERTURE END LIST*
D10*
X30807500Y-39480000D03*
X42407500Y-41680000D03*
X49807500Y-34730000D03*
X61407500Y-36930000D03*
X68807500Y-32355000D03*
X80407500Y-34555000D03*
X87807500Y-34730000D03*
X99407500Y-36930000D03*
X11807500Y-58480000D03*
X23407500Y-60680000D03*
X30807500Y-58480000D03*
X42407500Y-60680000D03*
X49807500Y-53730000D03*
X61407500Y-55930000D03*
X68807500Y-51355000D03*
X80407500Y-53555000D03*
X87807500Y-53730000D03*
X99407500Y-55930000D03*
X106807500Y-56105000D03*
X118407500Y-58305000D03*
X11807500Y-77480000D03*
X23407500Y-79680000D03*
X30807500Y-77480000D03*
X42407500Y-79680000D03*
X49807500Y-72730000D03*
X61407500Y-74930000D03*
X68807500Y-70355000D03*
X80407500Y-72555000D03*
X87807500Y-72730000D03*
X99407500Y-74930000D03*
X106807500Y-75105000D03*
X118407500Y-77305000D03*
X78307500Y-92355000D03*
X89907500Y-94555000D03*
D11*
X98632685Y-92830727D03*
X109268023Y-97958065D03*
D12*
X128911794Y-104193011D03*
X136617050Y-95247116D03*
D13*
X159510206Y-89811989D03*
X163404950Y-100957884D03*
D10*
X211314500Y-70350000D03*
X222914500Y-72550000D03*
X192314500Y-72725000D03*
X203914500Y-74925000D03*
X173314500Y-75100000D03*
X184914500Y-77300000D03*
X201814500Y-92350000D03*
X213414500Y-94550000D03*
D14*
X182054946Y-97122124D03*
X193829088Y-96244860D03*
D10*
X211314500Y-32350000D03*
X222914500Y-34550000D03*
X192314500Y-34725000D03*
X203914500Y-36925000D03*
X268314500Y-58475000D03*
X279914500Y-60675000D03*
X230314500Y-34725000D03*
X241914500Y-36925000D03*
X249314500Y-58475000D03*
X260914500Y-60675000D03*
X249314500Y-77475000D03*
X260914500Y-79675000D03*
X230314500Y-72725000D03*
X241914500Y-74925000D03*
X268314500Y-39475000D03*
X279914500Y-41675000D03*
X249314500Y-39475000D03*
X260914500Y-41675000D03*
X230314500Y-53725000D03*
X241914500Y-55925000D03*
X211314500Y-51350000D03*
X222914500Y-53550000D03*
X192314500Y-53725000D03*
X203914500Y-55925000D03*
X173314500Y-56100000D03*
X184914500Y-58300000D03*
X268314500Y-77475000D03*
X279914500Y-79675000D03*
X11807500Y-39480000D03*
X23407500Y-41680000D03*
X106807500Y-37105000D03*
X118407500Y-39305000D03*
X173307500Y-37105000D03*
X184907500Y-39305000D03*
D15*
X27734500Y-34001875D03*
X27734500Y-37551875D03*
X46734500Y-34005000D03*
X46734500Y-37555000D03*
X65707500Y-29005000D03*
X65707500Y-32555000D03*
X84707500Y-26880000D03*
X84707500Y-30430000D03*
X103707500Y-29255000D03*
X103707500Y-32805000D03*
X122707500Y-31630000D03*
X122707500Y-35180000D03*
X27734500Y-53001875D03*
X27734500Y-56551875D03*
X46734500Y-53005000D03*
X46734500Y-56555000D03*
X65707500Y-48255000D03*
X65707500Y-51805000D03*
X84707500Y-45880000D03*
X84707500Y-49430000D03*
X103707500Y-48255000D03*
X103707500Y-51805000D03*
X122707500Y-50630000D03*
X122707500Y-54180000D03*
X27734500Y-72001875D03*
X27734500Y-75551875D03*
X46734500Y-72005000D03*
X46734500Y-75555000D03*
X65707500Y-67255000D03*
X65707500Y-70805000D03*
X84707500Y-64880000D03*
X84707500Y-68430000D03*
X103707500Y-67255000D03*
X103707500Y-70805000D03*
X122707500Y-69630000D03*
X122707500Y-73180000D03*
X75987500Y-86991000D03*
X75987500Y-90541000D03*
X95164500Y-86990000D03*
X95164500Y-90540000D03*
X98007500Y-86356000D03*
X98007500Y-89906000D03*
X265214500Y-34000000D03*
X265214500Y-37550000D03*
X246214500Y-29250000D03*
X246214500Y-32800000D03*
X227214500Y-26875000D03*
X227214500Y-30425000D03*
X189207500Y-31630000D03*
X189207500Y-35180000D03*
X284214500Y-52850000D03*
X284214500Y-56400000D03*
X265214500Y-53000000D03*
X265214500Y-56550000D03*
X246214500Y-48250000D03*
X246214500Y-51800000D03*
X227214500Y-45875000D03*
X227214500Y-49425000D03*
X208214500Y-48250000D03*
X208214500Y-51800000D03*
X189207500Y-50630000D03*
X189207500Y-54180000D03*
X284214500Y-72000000D03*
X284214500Y-75550000D03*
X265214500Y-72000000D03*
X265214500Y-75550000D03*
X246214500Y-67250000D03*
X246214500Y-70800000D03*
X227214500Y-64875000D03*
X227214500Y-68425000D03*
X208214500Y-67250000D03*
X208214500Y-70800000D03*
X189207500Y-69630000D03*
X189207500Y-73180000D03*
X217714500Y-86860000D03*
X217714500Y-90410000D03*
X199664500Y-86305000D03*
X199664500Y-89855000D03*
X196814500Y-86875000D03*
X196814500Y-90425000D03*
X284214500Y-34000000D03*
X284214500Y-37550000D03*
X208214500Y-29250000D03*
X208214500Y-32800000D03*
D16*
X165612500Y-30030000D03*
X165612500Y-27830000D03*
X158312500Y-30030000D03*
X158312500Y-27830000D03*
D17*
X159712500Y-30680000D03*
X162712500Y-30680000D03*
X164212500Y-30680000D03*
D16*
X131043787Y-30010000D03*
X131043787Y-27810000D03*
X138343787Y-27810000D03*
X138343787Y-30010000D03*
D17*
X132443787Y-30660000D03*
X135443787Y-30660000D03*
X136943787Y-30660000D03*
M02*
