M48
; DRILL file {KiCad (6.0.9-0)} date Saturday, December 17, 2022 at 09:44:32 AM
; FORMAT={-:-/ absolute / metric / decimal}
; #@! TF.CreationDate,2022-12-17T09:44:32-06:00
; #@! TF.GenerationSoftware,Kicad,Pcbnew,(6.0.9-0)
; #@! TF.FileFunction,NonPlated,1,2,NPTH
FMAT,2
METRIC
; #@! TA.AperFunction,NonPlated,NPTH,ComponentDrill
T1C0.300
; #@! TA.AperFunction,NonPlated,NPTH,ComponentDrill
T2C0.900
; #@! TA.AperFunction,NonPlated,NPTH,ComponentDrill
T3C1.900
; #@! TA.AperFunction,NonPlated,NPTH,ComponentDrill
T4C2.200
; #@! TA.AperFunction,NonPlated,NPTH,ComponentDrill
T5C3.000
; #@! TA.AperFunction,NonPlated,NPTH,ComponentDrill
T6C4.300
; #@! TA.AperFunction,NonPlated,NPTH,ComponentDrill
T7C5.000
%
G90
G05
T1
X17.787Y-83.176
X18.381Y-83.176
X18.975Y-83.176
X19.569Y-83.176
X20.162Y-83.176
X20.756Y-83.176
X21.35Y-83.176
X21.944Y-83.176
X22.537Y-83.176
X55.748Y-83.178
X55.862Y-21.869
X56.342Y-83.178
X56.456Y-21.869
X56.936Y-83.178
X57.049Y-21.869
X57.53Y-83.178
X57.643Y-21.869
X58.123Y-83.178
X58.237Y-21.869
X58.717Y-83.178
X58.831Y-21.869
X59.311Y-83.178
X59.424Y-21.869
X59.905Y-83.178
X60.018Y-21.869
X60.498Y-83.178
X60.612Y-21.869
X93.832Y-21.873
X94.426Y-21.873
X95.02Y-21.873
X95.614Y-21.873
X96.207Y-21.873
X96.801Y-21.873
X97.395Y-21.873
X97.989Y-21.873
X98.582Y-21.873
X198.362Y-21.885
X198.956Y-21.885
X199.55Y-21.885
X200.144Y-21.885
X200.737Y-21.885
X201.331Y-21.885
X201.925Y-21.885
X202.519Y-21.885
X203.112Y-21.885
X236.274Y-21.87
X236.367Y-83.193
X236.868Y-21.87
X236.96Y-83.193
X237.462Y-21.87
X237.554Y-83.193
X238.056Y-21.87
X238.148Y-83.193
X238.649Y-21.87
X238.742Y-83.193
X239.243Y-21.87
X239.335Y-83.193
X239.837Y-21.87
X239.929Y-83.193
X240.431Y-21.87
X240.523Y-83.193
X241.024Y-21.87
X241.117Y-83.193
X274.28Y-83.183
X274.874Y-83.183
X275.468Y-83.183
X276.062Y-83.183
X276.655Y-83.183
X277.249Y-83.183
X277.843Y-83.183
X278.437Y-83.183
X279.03Y-83.183
T2
X133.194Y-28.91
X136.194Y-28.91
X160.463Y-28.93
X163.463Y-28.93
T3
X14.607Y-35.78
X14.607Y-54.78
X14.607Y-73.78
X25.607Y-35.78
X25.607Y-54.78
X25.607Y-73.78
X33.608Y-35.78
X33.608Y-54.78
X33.608Y-73.78
X44.607Y-35.78
X44.607Y-54.78
X44.607Y-73.78
X52.607Y-31.03
X52.607Y-50.03
X52.607Y-69.03
X63.607Y-31.03
X63.607Y-50.03
X63.607Y-69.03
X71.608Y-28.655
X71.608Y-47.655
X71.608Y-66.655
X81.108Y-88.655
X82.608Y-28.655
X82.608Y-47.655
X82.608Y-66.655
X90.608Y-31.03
X90.608Y-50.03
X90.608Y-69.03
X92.108Y-88.655
X101.608Y-31.03
X101.608Y-50.03
X101.608Y-69.03
X102.295Y-89.981
X109.608Y-33.405
X109.608Y-52.405
X109.608Y-71.405
X112.92Y-92.829
X120.607Y-33.405
X120.607Y-52.405
X120.607Y-71.405
X127.107Y-99.918
X132.607Y-90.392
X164.114Y-90.387
X169.614Y-99.913
X176.107Y-33.405
X176.114Y-52.4
X176.114Y-71.4
X183.802Y-92.824
X187.107Y-33.405
X187.114Y-52.4
X187.114Y-71.4
X194.427Y-89.976
X195.114Y-31.025
X195.114Y-50.025
X195.114Y-69.025
X204.614Y-88.65
X206.114Y-31.025
X206.114Y-50.025
X206.114Y-69.025
X214.114Y-28.65
X214.114Y-47.65
X214.114Y-66.65
X215.614Y-88.65
X225.114Y-28.65
X225.114Y-47.65
X225.114Y-66.65
X233.114Y-31.025
X233.114Y-50.025
X233.114Y-69.025
X244.114Y-31.025
X244.114Y-50.025
X244.114Y-69.025
X252.114Y-35.775
X252.114Y-54.775
X252.114Y-73.775
X263.114Y-35.775
X263.114Y-54.775
X263.114Y-73.775
X271.114Y-35.775
X271.114Y-54.775
X271.114Y-73.775
X282.114Y-35.775
X282.114Y-54.775
X282.114Y-73.775
T4
X127.869Y-74.254
X142.302Y-82.775
X154.418Y-82.785
X168.85Y-74.264
T5
X15.107Y-39.48
X15.107Y-58.48
X15.107Y-77.48
X20.107Y-41.68
X20.107Y-60.68
X20.107Y-79.68
X34.108Y-39.48
X34.108Y-58.48
X34.108Y-77.48
X39.108Y-41.68
X39.108Y-60.68
X39.108Y-79.68
X53.107Y-34.73
X53.107Y-53.73
X53.107Y-72.73
X58.107Y-36.93
X58.107Y-55.93
X58.107Y-74.93
X72.108Y-32.355
X72.108Y-51.355
X72.108Y-70.355
X77.108Y-34.555
X77.108Y-53.555
X77.108Y-72.555
X81.608Y-92.355
X86.608Y-94.555
X91.108Y-34.73
X91.108Y-53.73
X91.108Y-72.73
X96.108Y-36.93
X96.108Y-55.93
X96.108Y-74.93
X101.82Y-93.685
X106.08Y-97.104
X110.108Y-37.105
X110.108Y-56.105
X110.108Y-75.105
X115.108Y-39.305
X115.108Y-58.305
X115.108Y-77.305
X130.562Y-101.335
X134.967Y-98.105
X161.16Y-92.67
X161.755Y-98.1
X176.607Y-37.105
X176.614Y-56.1
X176.614Y-75.1
X181.607Y-39.305
X181.614Y-58.3
X181.614Y-77.3
X185.243Y-96.268
X190.642Y-97.099
X195.614Y-34.725
X195.614Y-53.725
X195.614Y-72.725
X200.614Y-36.925
X200.614Y-55.925
X200.614Y-74.925
X205.114Y-92.35
X210.114Y-94.55
X214.614Y-32.35
X214.614Y-51.35
X214.614Y-70.35
X219.614Y-34.55
X219.614Y-53.55
X219.614Y-72.55
X233.614Y-34.725
X233.614Y-53.725
X233.614Y-72.725
X238.614Y-36.925
X238.614Y-55.925
X238.614Y-74.925
X252.614Y-39.475
X252.614Y-58.475
X252.614Y-77.475
X257.614Y-41.675
X257.614Y-60.675
X257.614Y-79.675
X271.614Y-39.475
X271.614Y-58.475
X271.614Y-77.475
X276.614Y-41.675
X276.614Y-60.675
X276.614Y-79.675
T6
X29.607Y-45.28
X29.607Y-64.28
X72.764Y-81.52
X105.575Y-41.765
X119.331Y-89.135
X177.389Y-89.145
X191.144Y-41.776
X223.956Y-81.53
X267.099Y-45.265
X267.099Y-64.266
T7
X20.107Y-35.78
X20.107Y-54.78
X20.107Y-73.78
X39.108Y-35.78
X39.108Y-54.78
X39.108Y-73.78
X58.107Y-31.03
X58.107Y-50.03
X58.107Y-69.03
X77.108Y-28.655
X77.108Y-47.655
X77.108Y-66.655
X86.608Y-88.655
X96.108Y-31.03
X96.108Y-50.03
X96.108Y-69.03
X107.608Y-91.405
X115.108Y-33.405
X115.108Y-52.405
X115.108Y-71.405
X129.857Y-95.155
X166.864Y-95.15
X181.607Y-33.405
X181.614Y-52.4
X181.614Y-71.4
X189.114Y-91.4
X200.614Y-31.025
X200.614Y-50.025
X200.614Y-69.025
X210.114Y-88.65
X219.614Y-28.65
X219.614Y-47.65
X219.614Y-66.65
X238.614Y-31.025
X238.614Y-50.025
X238.614Y-69.025
X257.614Y-35.775
X257.614Y-54.775
X257.614Y-73.775
X276.614Y-35.775
X276.614Y-54.775
X276.614Y-73.775
T0
M30
