M48
; DRILL file {KiCad 8.0.3} date 2024-08-02T01:30:14+0100
; FORMAT={-:-/ absolute / inch / decimal}
; #@! TF.CreationDate,2024-08-02T01:30:14+01:00
; #@! TF.GenerationSoftware,Kicad,Pcbnew,8.0.3
; #@! TF.FileFunction,NonPlated,1,2,NPTH
FMAT,2
INCH
; #@! TA.AperFunction,NonPlated,NPTH,ComponentDrill
T1C0.0118
; #@! TA.AperFunction,NonPlated,NPTH,ComponentDrill
T2C0.0354
; #@! TA.AperFunction,NonPlated,NPTH,ComponentDrill
T3C0.0669
; #@! TA.AperFunction,NonPlated,NPTH,ComponentDrill
T4C0.0709
; #@! TA.AperFunction,NonPlated,NPTH,ComponentDrill
T5C0.0866
; #@! TA.AperFunction,NonPlated,NPTH,ComponentDrill
T6C0.1693
; #@! TA.AperFunction,NonPlated,NPTH,ComponentDrill
T7C0.1929
%
G90
G05
T1
X-2.1661Y-0.0667
X-2.1427Y-0.0667
X-2.1193Y-0.0667
X-2.0959Y-0.0667
X-2.0726Y-0.0667
X-2.0492Y-0.0667
X-2.0258Y-0.0667
X-2.0024Y-0.0667
X-1.9791Y-0.0667
X-0.6705Y-0.0667
X-0.6664Y2.351
X-0.6471Y-0.0667
X-0.643Y2.351
X-0.6237Y-0.0667
X-0.6197Y2.351
X-0.6003Y-0.0667
X-0.5963Y2.351
X-0.577Y-0.0667
X-0.5729Y2.351
X-0.5536Y-0.0667
X-0.5495Y2.351
X-0.5302Y-0.0667
X-0.5262Y2.351
X-0.5068Y-0.0667
X-0.5028Y2.351
X-0.4835Y-0.0667
X-0.4794Y2.351
X0.8285Y2.351
X0.8518Y2.351
X0.8752Y2.351
X0.8986Y2.351
X0.922Y2.351
X0.9453Y2.351
X0.9687Y2.351
X0.9921Y2.351
X1.0155Y2.351
X5.6433Y2.3506
X5.6667Y2.3506
X5.6901Y2.3506
X5.7135Y2.3506
X5.7368Y2.3506
X5.7602Y2.3506
X5.7836Y2.3506
X5.807Y2.3506
X5.8303Y2.3506
X7.1402Y2.351
X7.1414Y-0.0671
X7.1636Y2.351
X7.1647Y-0.0671
X7.1869Y2.351
X7.1881Y-0.0671
X7.2103Y2.351
X7.2115Y-0.0671
X7.2337Y2.351
X7.2349Y-0.0671
X7.2571Y2.351
X7.2582Y-0.0671
X7.2804Y2.351
X7.2816Y-0.0671
X7.3038Y2.351
X7.305Y-0.0671
X7.3272Y2.351
X7.3284Y-0.0671
X8.6374Y-0.0671
X8.6608Y-0.0671
X8.6842Y-0.0671
X8.7076Y-0.0671
X8.7309Y-0.0671
X8.7543Y-0.0671
X8.7777Y-0.0671
X8.8011Y-0.0671
X8.8244Y-0.0671
T2
X2.5875Y2.074
X2.7056Y2.074
X3.9517Y2.0764
X4.0698Y2.0764
T3
X-2.2729Y1.8018
X-2.2729Y1.0538
X-2.2729Y0.3057
X-1.8729Y1.8018
X-1.8729Y1.0538
X-1.8729Y0.3057
X-1.5249Y1.8018
X-1.5249Y1.0538
X-1.5249Y0.3057
X-1.1249Y1.8018
X-1.1249Y1.0538
X-1.1249Y0.3057
X-0.7769Y1.9888
X-0.7769Y1.2408
X-0.7769Y0.4927
X-0.3769Y1.9888
X-0.3769Y1.2408
X-0.3769Y0.4927
X-0.0288Y2.0823
X-0.0288Y1.3343
X-0.0288Y0.5862
X0.3452Y-0.2799
X0.3712Y2.0823
X0.3712Y1.3343
X0.3712Y0.5862
X0.7192Y1.9888
X0.7192Y1.2408
X0.7192Y0.4927
X0.7452Y-0.2799
X1.1192Y1.9888
X1.1192Y1.2408
X1.1192Y0.4927
X1.1788Y-0.3364
X1.4672Y1.8953
X1.4672Y1.1473
X1.4672Y0.3992
X1.5652Y-0.4399
X1.8672Y1.8953
X1.8672Y1.1473
X1.8672Y0.3992
X2.148Y-0.709
X2.348Y-0.3626
X4.3044Y-0.3626
X4.5044Y-0.709
X4.7852Y1.8953
X4.7852Y1.1472
X4.7852Y0.3992
X5.0872Y-0.44
X5.1852Y1.8953
X5.1852Y1.1472
X5.1852Y0.3992
X5.4736Y-0.3364
X5.5332Y1.9888
X5.5332Y1.2408
X5.5332Y0.4927
X5.9072Y-0.2799
X5.9332Y1.9888
X5.9332Y1.2408
X5.9332Y0.4927
X6.2812Y2.0823
X6.2812Y1.3343
X6.2812Y0.5862
X6.3072Y-0.2799
X6.6812Y2.0823
X6.6812Y1.3343
X6.6812Y0.5862
X7.0293Y1.9888
X7.0293Y1.2408
X7.0293Y0.4927
X7.4293Y1.9888
X7.4293Y1.2408
X7.4293Y0.4927
X7.7773Y1.8018
X7.7773Y1.0537
X7.7773Y0.3057
X8.1773Y1.8018
X8.1773Y1.0537
X8.1773Y0.3057
X8.5253Y1.8018
X8.5253Y1.0537
X8.5253Y0.3057
X8.9253Y1.8018
X8.9253Y1.0537
X8.9253Y0.3057
T4
X-2.2894Y1.8018
X-2.2894Y1.0538
X-2.2894Y0.3057
X-1.8564Y1.8018
X-1.8564Y1.0538
X-1.8564Y0.3057
X-1.5414Y1.8018
X-1.5414Y1.0538
X-1.5414Y0.3057
X-1.1083Y1.8018
X-1.1083Y1.0538
X-1.1083Y0.3057
X-0.7934Y1.9888
X-0.7934Y1.2408
X-0.7934Y0.4927
X-0.3603Y1.9888
X-0.3603Y1.2408
X-0.3603Y0.4927
X-0.0454Y2.0823
X-0.0454Y1.3343
X-0.0454Y0.5862
X0.3287Y-0.2799
X0.3877Y2.0823
X0.3877Y1.3343
X0.3877Y0.5862
X0.7027Y1.9888
X0.7027Y1.2408
X0.7027Y0.4927
X0.7617Y-0.2799
X1.1357Y1.9888
X1.1357Y1.2408
X1.1357Y0.4927
X1.1628Y-0.3321
X1.4507Y1.8953
X1.4507Y1.1473
X1.4507Y0.3992
X1.5811Y-0.4442
X1.8838Y1.8953
X1.8838Y1.1473
X1.8838Y0.3992
X2.1397Y-0.7233
X2.3562Y-0.3483
X4.2962Y-0.3483
X4.5127Y-0.7233
X4.7686Y1.8953
X4.7686Y1.1472
X4.7686Y0.3992
X5.0713Y-0.4442
X5.2017Y1.8953
X5.2017Y1.1472
X5.2017Y0.3992
X5.4896Y-0.3321
X5.5167Y1.9888
X5.5167Y1.2408
X5.5167Y0.4927
X5.8907Y-0.2799
X5.9497Y1.9888
X5.9497Y1.2408
X5.9497Y0.4927
X6.2647Y2.0823
X6.2647Y1.3343
X6.2647Y0.5862
X6.3237Y-0.2799
X6.6978Y2.0823
X6.6978Y1.3343
X6.6978Y0.5862
X7.0127Y1.9888
X7.0127Y1.2408
X7.0127Y0.4927
X7.4458Y1.9888
X7.4458Y1.2408
X7.4458Y0.4927
X7.7607Y1.8018
X7.7607Y1.0537
X7.7607Y0.3057
X8.1938Y1.8018
X8.1938Y1.0537
X8.1938Y0.3057
X8.5088Y1.8018
X8.5088Y1.0537
X8.5088Y0.3057
X8.9419Y1.8018
X8.9419Y1.0537
X8.9419Y0.3057
T5
X2.1722Y1.8181
X2.1722Y0.8536
X3.0974Y1.8181
X3.0974Y0.8536
X3.5481Y1.8205
X3.5481Y0.8559
X4.4733Y1.8205
X4.4733Y0.8559
T6
X-1.6986Y1.4278
X-1.6986Y0.6797
X-0.9499Y1.4268
X-0.9499Y0.6788
X0.0Y0.0
X1.2918Y1.5652
X1.8333Y-0.2998
X4.8198Y-0.3056
X5.3612Y1.5649
X6.6533Y-0.0005
X7.6044Y1.4275
X7.6044Y0.6795
X8.3517Y1.4275
X8.3517Y0.6795
T7
X-2.0729Y1.8018
X-2.0729Y1.0538
X-2.0729Y0.3057
X-1.3249Y1.8018
X-1.3249Y1.0538
X-1.3249Y0.3057
X-0.5769Y1.9888
X-0.5769Y1.2408
X-0.5769Y0.4927
X0.1712Y2.0823
X0.1712Y1.3343
X0.1712Y0.5862
X0.5452Y-0.2799
X0.9192Y1.9888
X0.9192Y1.2408
X0.9192Y0.4927
X1.372Y-0.3882
X1.6672Y1.8953
X1.6672Y1.1473
X1.6672Y0.3992
X2.248Y-0.5358
X4.4044Y-0.5358
X4.9852Y1.8953
X4.9852Y1.1472
X4.9852Y0.3992
X5.2804Y-0.3882
X5.7332Y1.9888
X5.7332Y1.2408
X5.7332Y0.4927
X6.1072Y-0.2799
X6.4812Y2.0823
X6.4812Y1.3343
X6.4812Y0.5862
X7.2293Y1.9888
X7.2293Y1.2408
X7.2293Y0.4927
X7.9773Y1.8018
X7.9773Y1.0537
X7.9773Y0.3057
X8.7253Y1.8018
X8.7253Y1.0537
X8.7253Y0.3057
M30
