%TF.GenerationSoftware,KiCad,Pcbnew,8.0.3*%
%TF.CreationDate,2024-08-02T01:30:14+01:00*%
%TF.ProjectId,corne-light-ice-trackball,636f726e-652d-46c6-9967-68742d696365,1.0*%
%TF.SameCoordinates,Original*%
%TF.FileFunction,Copper,L1,Top*%
%TF.FilePolarity,Positive*%
%FSLAX46Y46*%
G04 Gerber Fmt 4.6, Leading zero omitted, Abs format (unit mm)*
G04 Created by KiCad (PCBNEW 8.0.3) date 2024-08-02 01:30:14*
%MOMM*%
%LPD*%
G01*
G04 APERTURE LIST*
G04 Aperture macros list*
%AMRoundRect*
0 Rectangle with rounded corners*
0 $1 Rounding radius*
0 $2 $3 $4 $5 $6 $7 $8 $9 X,Y pos of 4 corners*
0 Add a 4 corners polygon primitive as box body*
4,1,4,$2,$3,$4,$5,$6,$7,$8,$9,$2,$3,0*
0 Add four circle primitives for the rounded corners*
1,1,$1+$1,$2,$3*
1,1,$1+$1,$4,$5*
1,1,$1+$1,$6,$7*
1,1,$1+$1,$8,$9*
0 Add four rect primitives between the rounded corners*
20,1,$1+$1,$2,$3,$4,$5,0*
20,1,$1+$1,$4,$5,$6,$7,0*
20,1,$1+$1,$6,$7,$8,$9,0*
20,1,$1+$1,$8,$9,$2,$3,0*%
%AMHorizOval*
0 Thick line with rounded ends*
0 $1 width*
0 $2 $3 position (X,Y) of the first rounded end (center of the circle)*
0 $4 $5 position (X,Y) of the second rounded end (center of the circle)*
0 Add line between two ends*
20,1,$1,$2,$3,$4,$5,0*
0 Add two circle primitives to create the rounded ends*
1,1,$1,$2,$3*
1,1,$1,$4,$5*%
G04 Aperture macros list end*
%TA.AperFunction,ComponentPad*%
%ADD10O,2.200000X1.600000*%
%TD*%
%TA.AperFunction,ComponentPad*%
%ADD11HorizOval,2.400000X-0.669131X-0.743145X0.669131X0.743145X0*%
%TD*%
%TA.AperFunction,ComponentPad*%
%ADD12C,2.400000*%
%TD*%
%TA.AperFunction,ComponentPad*%
%ADD13O,2.200000X1.500000*%
%TD*%
%TA.AperFunction,ComponentPad*%
%ADD14O,2.400000X2.950000*%
%TD*%
%TA.AperFunction,ComponentPad*%
%ADD15HorizOval,1.500000X1.449945X0.012653X-1.449945X-0.012653X0*%
%TD*%
%TA.AperFunction,ComponentPad*%
%ADD16HorizOval,1.600000X0.289778X0.077646X-0.289778X-0.077646X0*%
%TD*%
%TA.AperFunction,ComponentPad*%
%ADD17HorizOval,2.400000X-0.453990X-0.891007X0.453990X0.891007X0*%
%TD*%
%TA.AperFunction,ComponentPad*%
%ADD18HorizOval,1.500000X0.338074X0.090587X-0.338074X-0.090587X0*%
%TD*%
%TA.AperFunction,ComponentPad*%
%ADD19HorizOval,2.400000X-0.071175X0.265630X0.071175X-0.265630X0*%
%TD*%
%TA.AperFunction,ComponentPad*%
%ADD20HorizOval,1.500000X1.397264X0.387496X-1.397264X-0.387496X0*%
%TD*%
%TA.AperFunction,ComponentPad*%
%ADD21HorizOval,1.600000X0.150000X0.259808X-0.150000X-0.259808X0*%
%TD*%
%TA.AperFunction,ComponentPad*%
%ADD22HorizOval,2.400000X-0.309017X0.951057X0.309017X-0.951057X0*%
%TD*%
%TA.AperFunction,ComponentPad*%
%ADD23HorizOval,1.500000X0.175000X0.303109X-0.175000X-0.303109X0*%
%TD*%
%TA.AperFunction,ComponentPad*%
%ADD24HorizOval,2.400000X-0.238157X0.137500X0.238157X-0.137500X0*%
%TD*%
%TA.AperFunction,ComponentPad*%
%ADD25HorizOval,1.500000X0.714014X1.262016X-0.714014X-1.262016X0*%
%TD*%
%TA.AperFunction,ComponentPad*%
%ADD26HorizOval,1.600000X0.289778X-0.077646X-0.289778X0.077646X0*%
%TD*%
%TA.AperFunction,ComponentPad*%
%ADD27HorizOval,2.400000X-0.838671X-0.544639X0.838671X0.544639X0*%
%TD*%
%TA.AperFunction,ComponentPad*%
%ADD28HorizOval,1.500000X0.338074X-0.090587X-0.338074X0.090587X0*%
%TD*%
%TA.AperFunction,ComponentPad*%
%ADD29HorizOval,2.400000X-0.071175X-0.265630X0.071175X0.265630X0*%
%TD*%
%TA.AperFunction,ComponentPad*%
%ADD30HorizOval,1.500000X1.403814X-0.363051X-1.403814X0.363051X0*%
%TD*%
%TA.AperFunction,ComponentPad*%
%ADD31HorizOval,1.600000X0.150000X-0.259808X-0.150000X0.259808X0*%
%TD*%
%TA.AperFunction,ComponentPad*%
%ADD32HorizOval,2.400000X-0.978148X0.207912X0.978148X-0.207912X0*%
%TD*%
%TA.AperFunction,ComponentPad*%
%ADD33HorizOval,1.500000X0.175000X-0.303109X-0.175000X0.303109X0*%
%TD*%
%TA.AperFunction,ComponentPad*%
%ADD34HorizOval,2.400000X-0.238157X-0.137500X0.238157X0.137500X0*%
%TD*%
%TA.AperFunction,ComponentPad*%
%ADD35HorizOval,1.500000X0.735931X-1.249362X-0.735931X1.249362X0*%
%TD*%
%TA.AperFunction,ComponentPad*%
%ADD36C,1.700000*%
%TD*%
%TA.AperFunction,ComponentPad*%
%ADD37O,1.700000X1.700000*%
%TD*%
%TA.AperFunction,SMDPad,CuDef*%
%ADD38RoundRect,0.250000X-1.500000X0.250000X-1.500000X-0.250000X1.500000X-0.250000X1.500000X0.250000X0*%
%TD*%
%TA.AperFunction,SMDPad,CuDef*%
%ADD39RoundRect,0.250001X-1.449999X0.499999X-1.449999X-0.499999X1.449999X-0.499999X1.449999X0.499999X0*%
%TD*%
%TA.AperFunction,SMDPad,CuDef*%
%ADD40R,0.600000X0.800000*%
%TD*%
%TA.AperFunction,SMDPad,CuDef*%
%ADD41R,1.450000X1.050000*%
%TD*%
%TA.AperFunction,SMDPad,CuDef*%
%ADD42RoundRect,0.250000X1.500000X-0.250000X1.500000X0.250000X-1.500000X0.250000X-1.500000X-0.250000X0*%
%TD*%
%TA.AperFunction,SMDPad,CuDef*%
%ADD43RoundRect,0.250001X1.449999X-0.499999X1.449999X0.499999X-1.449999X0.499999X-1.449999X-0.499999X0*%
%TD*%
%TA.AperFunction,ComponentPad*%
%ADD44R,1.300000X1.778000*%
%TD*%
%TA.AperFunction,ComponentPad*%
%ADD45O,1.300000X1.778000*%
%TD*%
%TA.AperFunction,ComponentPad*%
%ADD46C,1.752600*%
%TD*%
%TA.AperFunction,ViaPad*%
%ADD47C,0.600000*%
%TD*%
%TA.AperFunction,Conductor*%
%ADD48C,0.250000*%
%TD*%
%TA.AperFunction,Conductor*%
%ADD49C,0.508000*%
%TD*%
%TA.AperFunction,Conductor*%
%ADD50C,0.203200*%
%TD*%
%TA.AperFunction,Conductor*%
%ADD51C,0.254000*%
%TD*%
%TA.AperFunction,Conductor*%
%ADD52C,0.500000*%
%TD*%
G04 APERTURE END LIST*
D10*
%TO.P,SW22,1*%
%TO.N,col0_r*%
X216523000Y41865068D03*
D11*
X218492131Y49058213D03*
D12*
X219123000Y49765068D03*
D13*
%TO.P,SW22,2*%
%TO.N,Net-(D22-Pad2)*%
X221623000Y39865068D03*
D14*
X224123000Y50565068D03*
D15*
X225523042Y51305469D03*
%TD*%
D10*
%TO.P,SW23,1*%
%TO.N,col1_r*%
X197523000Y41865068D03*
D11*
X199492131Y49058213D03*
D12*
X200123000Y49765068D03*
D13*
%TO.P,SW23,2*%
%TO.N,Net-(D23-Pad2)*%
X202623000Y39865068D03*
D14*
X205123000Y50565068D03*
D15*
X206523042Y51305469D03*
%TD*%
D10*
%TO.P,SW24,1*%
%TO.N,col2_r*%
X178523000Y46615068D03*
D11*
X180492131Y53808213D03*
D12*
X181123000Y54515068D03*
D13*
%TO.P,SW24,2*%
%TO.N,Net-(D24-Pad2)*%
X183623000Y44615068D03*
D14*
X186123000Y55315068D03*
D15*
X187523042Y56055469D03*
%TD*%
D10*
%TO.P,SW25,1*%
%TO.N,col3_r*%
X159523000Y48990068D03*
D11*
X161492131Y56183213D03*
D12*
X162123000Y56890068D03*
D13*
%TO.P,SW25,2*%
%TO.N,Net-(D25-Pad2)*%
X164623000Y46990068D03*
D14*
X167123000Y57690068D03*
D15*
X168523042Y58430469D03*
%TD*%
D10*
%TO.P,SW26,1*%
%TO.N,col4_r*%
X140523000Y46615068D03*
D11*
X142492131Y53808213D03*
D12*
X143123000Y54515068D03*
D13*
%TO.P,SW26,2*%
%TO.N,Net-(D26-Pad2)*%
X145623000Y44615068D03*
D14*
X148123000Y55315068D03*
D15*
X149523042Y56055469D03*
%TD*%
D10*
%TO.P,SW27,1*%
%TO.N,col5_r*%
X121523000Y44240068D03*
D11*
X123492131Y51433213D03*
D12*
X124123000Y52140068D03*
D13*
%TO.P,SW27,2*%
%TO.N,Net-(D27-Pad2)*%
X126623000Y42240068D03*
D14*
X129123000Y52940068D03*
D15*
X130523042Y53680469D03*
%TD*%
D10*
%TO.P,SW28,1*%
%TO.N,col0_r*%
X216523000Y22865068D03*
D11*
X218492131Y30058213D03*
D12*
X219123000Y30765068D03*
D13*
%TO.P,SW28,2*%
%TO.N,Net-(D28-Pad2)*%
X221623000Y20865068D03*
D14*
X224123000Y31565068D03*
D15*
X225523042Y32305469D03*
%TD*%
D10*
%TO.P,SW29,1*%
%TO.N,col1_r*%
X197523000Y22865068D03*
D11*
X199492131Y30058213D03*
D12*
X200123000Y30765068D03*
D13*
%TO.P,SW29,2*%
%TO.N,Net-(D29-Pad2)*%
X202623000Y20865068D03*
D14*
X205123000Y31565068D03*
D15*
X206523042Y32305469D03*
%TD*%
D10*
%TO.P,SW30,1*%
%TO.N,col2_r*%
X178523000Y27615068D03*
D11*
X180492131Y34808213D03*
D12*
X181123000Y35515068D03*
D13*
%TO.P,SW30,2*%
%TO.N,Net-(D30-Pad2)*%
X183623000Y25615068D03*
D14*
X186123000Y36315068D03*
D15*
X187523042Y37055469D03*
%TD*%
D10*
%TO.P,SW31,1*%
%TO.N,col3_r*%
X159523000Y29990068D03*
D11*
X161492131Y37183213D03*
D12*
X162123000Y37890068D03*
D13*
%TO.P,SW31,2*%
%TO.N,Net-(D31-Pad2)*%
X164623000Y27990068D03*
D14*
X167123000Y38690068D03*
D15*
X168523042Y39430469D03*
%TD*%
D10*
%TO.P,SW32,1*%
%TO.N,col4_r*%
X140523000Y27615068D03*
D11*
X142492131Y34808213D03*
D12*
X143123000Y35515068D03*
D13*
%TO.P,SW32,2*%
%TO.N,Net-(D32-Pad2)*%
X145623000Y25615068D03*
D14*
X148123000Y36315068D03*
D15*
X149523042Y37055469D03*
%TD*%
D10*
%TO.P,SW33,1*%
%TO.N,col5_r*%
X121523000Y25240068D03*
D11*
X123492131Y32433213D03*
D12*
X124123000Y33140068D03*
D13*
%TO.P,SW33,2*%
%TO.N,Net-(D33-Pad2)*%
X126623000Y23240068D03*
D14*
X129123000Y33940068D03*
D15*
X130523042Y34680469D03*
%TD*%
D10*
%TO.P,SW34,1*%
%TO.N,col0_r*%
X216523000Y3865068D03*
D11*
X218492131Y11058213D03*
D12*
X219123000Y11765068D03*
D13*
%TO.P,SW34,2*%
%TO.N,Net-(D34-Pad2)*%
X221623000Y1865068D03*
D14*
X224123000Y12565068D03*
D15*
X225523042Y13305469D03*
%TD*%
D10*
%TO.P,SW35,1*%
%TO.N,col1_r*%
X197523000Y3865068D03*
D11*
X199492131Y11058213D03*
D12*
X200123000Y11765068D03*
D13*
%TO.P,SW35,2*%
%TO.N,Net-(D35-Pad2)*%
X202623000Y1865068D03*
D14*
X205123000Y12565068D03*
D15*
X206523042Y13305469D03*
%TD*%
D10*
%TO.P,SW36,1*%
%TO.N,col2_r*%
X178523000Y8615068D03*
D11*
X180492131Y15808213D03*
D12*
X181123000Y16515068D03*
D13*
%TO.P,SW36,2*%
%TO.N,Net-(D36-Pad2)*%
X183623000Y6615068D03*
D14*
X186123000Y17315068D03*
D15*
X187523042Y18055469D03*
%TD*%
D10*
%TO.P,SW37,1*%
%TO.N,col3_r*%
X159523000Y10990068D03*
D11*
X161492131Y18183213D03*
D12*
X162123000Y18890068D03*
D13*
%TO.P,SW37,2*%
%TO.N,Net-(D37-Pad2)*%
X164623000Y8990068D03*
D14*
X167123000Y19690068D03*
D15*
X168523042Y20430469D03*
%TD*%
D10*
%TO.P,SW38,1*%
%TO.N,col4_r*%
X140523000Y8615068D03*
D11*
X142492131Y15808213D03*
D12*
X143123000Y16515068D03*
D13*
%TO.P,SW38,2*%
%TO.N,Net-(D38-Pad2)*%
X145623000Y6615068D03*
D14*
X148123000Y17315068D03*
D15*
X149523042Y18055469D03*
%TD*%
D10*
%TO.P,SW40,1*%
%TO.N,col3_r*%
X150023000Y-11009932D03*
D11*
X151992131Y-3816787D03*
D12*
X152623000Y-3109932D03*
D13*
%TO.P,SW40,2*%
%TO.N,Net-(D40-Pad2)*%
X155123000Y-13009932D03*
D14*
X157623000Y-2309932D03*
D15*
X159023042Y-1569531D03*
%TD*%
D16*
%TO.P,SW41,1*%
%TO.N,col4_r*%
X130206173Y-14947020D03*
D17*
X130246483Y-7489327D03*
D12*
X130672909Y-6643276D03*
D18*
%TO.P,SW41,2*%
%TO.N,Net-(D41-Pad2)*%
X135650032Y-15558894D03*
D19*
X135295483Y-4576440D03*
D20*
X136456190Y-3498909D03*
%TD*%
D10*
%TO.P,SW39,1*%
%TO.N,col5_r*%
X121523000Y6240068D03*
D11*
X123492131Y13433213D03*
D12*
X124123000Y14140068D03*
D13*
%TO.P,SW39,2*%
%TO.N,Net-(D39-Pad2)*%
X126623000Y4240068D03*
D14*
X129123000Y14940068D03*
D15*
X130523042Y15680469D03*
%TD*%
D10*
%TO.P,SW6,1*%
%TO.N,col5*%
X37248000Y44240500D03*
D11*
X39217131Y51433645D03*
D12*
X39848000Y52140500D03*
D13*
%TO.P,SW6,2*%
%TO.N,Net-(D6-Pad2)*%
X42348000Y42240500D03*
D14*
X44848000Y52940500D03*
D15*
X46248042Y53680901D03*
%TD*%
D10*
%TO.P,SW5,1*%
%TO.N,col4*%
X18248000Y46615500D03*
D11*
X20217131Y53808645D03*
D12*
X20848000Y54515500D03*
D13*
%TO.P,SW5,2*%
%TO.N,Net-(D5-Pad2)*%
X23348000Y44615500D03*
D14*
X25848000Y55315500D03*
D15*
X27248042Y56055901D03*
%TD*%
D10*
%TO.P,SW4,1*%
%TO.N,col3*%
X-752000Y48990500D03*
D11*
X1217131Y56183645D03*
D12*
X1848000Y56890500D03*
D13*
%TO.P,SW4,2*%
%TO.N,Net-(D4-Pad2)*%
X4348000Y46990500D03*
D14*
X6848000Y57690500D03*
D15*
X8248042Y58430901D03*
%TD*%
D10*
%TO.P,SW3,1*%
%TO.N,col2*%
X-19752000Y46615500D03*
D11*
X-17782869Y53808645D03*
D12*
X-17152000Y54515500D03*
D13*
%TO.P,SW3,2*%
%TO.N,Net-(D3-Pad2)*%
X-14652000Y44615500D03*
D14*
X-12152000Y55315500D03*
D15*
X-10751958Y56055901D03*
%TD*%
D10*
%TO.P,SW2,1*%
%TO.N,col1*%
X-38752000Y41865500D03*
D11*
X-36782869Y49058645D03*
D12*
X-36152000Y49765500D03*
D13*
%TO.P,SW2,2*%
%TO.N,Net-(D2-Pad2)*%
X-33652000Y39865500D03*
D14*
X-31152000Y50565500D03*
D15*
X-29751958Y51305901D03*
%TD*%
D10*
%TO.P,SW18,1*%
%TO.N,col5*%
X37248000Y6240500D03*
D11*
X39217131Y13433645D03*
D12*
X39848000Y14140500D03*
D13*
%TO.P,SW18,2*%
%TO.N,Net-(D18-Pad2)*%
X42348000Y4240500D03*
D14*
X44848000Y14940500D03*
D15*
X46248042Y15680901D03*
%TD*%
D21*
%TO.P,SW21,1*%
%TO.N,col5*%
X57925499Y-19976230D03*
D22*
X52680618Y-14674340D03*
D12*
X52383898Y-13774564D03*
D23*
%TO.P,SW21,2*%
%TO.N,Net-(D21-Pad2)*%
X62207550Y-16559500D03*
D24*
X54191078Y-9044436D03*
D25*
X54249893Y-7461764D03*
%TD*%
D10*
%TO.P,SW13,1*%
%TO.N,col0*%
X-57752000Y3865500D03*
D11*
X-55782869Y11058645D03*
D12*
X-55152000Y11765500D03*
D13*
%TO.P,SW13,2*%
%TO.N,Net-(D13-Pad2)*%
X-52652000Y1865500D03*
D14*
X-50152000Y12565500D03*
D15*
X-48751958Y13305901D03*
%TD*%
D26*
%TO.P,SW20,1*%
%TO.N,col4*%
X28912384Y-12306634D03*
D27*
X32676141Y-5868238D03*
D12*
X33468462Y-5348749D03*
D28*
%TO.P,SW20,2*%
%TO.N,Net-(D20-Pad2)*%
X33320968Y-15558462D03*
D29*
X38505146Y-5870104D03*
D30*
X40049113Y-5517289D03*
%TD*%
D10*
%TO.P,SW19,1*%
%TO.N,col3*%
X8748000Y-11009500D03*
D11*
X10717131Y-3816355D03*
D12*
X11348000Y-3109500D03*
D13*
%TO.P,SW19,2*%
%TO.N,Net-(D19-Pad2)*%
X13848000Y-13009500D03*
D14*
X16348000Y-2309500D03*
D15*
X17748042Y-1569099D03*
%TD*%
D10*
%TO.P,SW17,1*%
%TO.N,col4*%
X18248000Y8615500D03*
D11*
X20217131Y15808645D03*
D12*
X20848000Y16515500D03*
D13*
%TO.P,SW17,2*%
%TO.N,Net-(D17-Pad2)*%
X23348000Y6615500D03*
D14*
X25848000Y17315500D03*
D15*
X27248042Y18055901D03*
%TD*%
D10*
%TO.P,SW16,1*%
%TO.N,col3*%
X-752000Y10990500D03*
D11*
X1217131Y18183645D03*
D12*
X1848000Y18890500D03*
D13*
%TO.P,SW16,2*%
%TO.N,Net-(D16-Pad2)*%
X4348000Y8990500D03*
D14*
X6848000Y19690500D03*
D15*
X8248042Y20430901D03*
%TD*%
D10*
%TO.P,SW15,1*%
%TO.N,col2*%
X-19752000Y8615500D03*
D11*
X-17782869Y15808645D03*
D12*
X-17152000Y16515500D03*
D13*
%TO.P,SW15,2*%
%TO.N,Net-(D15-Pad2)*%
X-14652000Y6615500D03*
D14*
X-12152000Y17315500D03*
D15*
X-10751958Y18055901D03*
%TD*%
D10*
%TO.P,SW14,1*%
%TO.N,col1*%
X-38752000Y3865500D03*
D11*
X-36782869Y11058645D03*
D12*
X-36152000Y11765500D03*
D13*
%TO.P,SW14,2*%
%TO.N,Net-(D14-Pad2)*%
X-33652000Y1865500D03*
D14*
X-31152000Y12565500D03*
D15*
X-29751958Y13305901D03*
%TD*%
D10*
%TO.P,SW12,1*%
%TO.N,col5*%
X37248000Y25240500D03*
D11*
X39217131Y32433645D03*
D12*
X39848000Y33140500D03*
D13*
%TO.P,SW12,2*%
%TO.N,Net-(D12-Pad2)*%
X42348000Y23240500D03*
D14*
X44848000Y33940500D03*
D15*
X46248042Y34680901D03*
%TD*%
D10*
%TO.P,SW11,1*%
%TO.N,col4*%
X18248000Y27615500D03*
D11*
X20217131Y34808645D03*
D12*
X20848000Y35515500D03*
D13*
%TO.P,SW11,2*%
%TO.N,Net-(D11-Pad2)*%
X23348000Y25615500D03*
D14*
X25848000Y36315500D03*
D15*
X27248042Y37055901D03*
%TD*%
D10*
%TO.P,SW10,1*%
%TO.N,col3*%
X-752000Y29990500D03*
D11*
X1217131Y37183645D03*
D12*
X1848000Y37890500D03*
D13*
%TO.P,SW10,2*%
%TO.N,Net-(D10-Pad2)*%
X4348000Y27990500D03*
D14*
X6848000Y38690500D03*
D15*
X8248042Y39430901D03*
%TD*%
D10*
%TO.P,SW9,1*%
%TO.N,col2*%
X-19752000Y27615500D03*
D11*
X-17782869Y34808645D03*
D12*
X-17152000Y35515500D03*
D13*
%TO.P,SW9,2*%
%TO.N,Net-(D9-Pad2)*%
X-14652000Y25615500D03*
D14*
X-12152000Y36315500D03*
D15*
X-10751958Y37055901D03*
%TD*%
D10*
%TO.P,SW8,1*%
%TO.N,col1*%
X-38752000Y22865500D03*
D11*
X-36782869Y30058645D03*
D12*
X-36152000Y30765500D03*
D13*
%TO.P,SW8,2*%
%TO.N,Net-(D8-Pad2)*%
X-33652000Y20865500D03*
D14*
X-31152000Y31565500D03*
D15*
X-29751958Y32305901D03*
%TD*%
D10*
%TO.P,SW7,1*%
%TO.N,col0*%
X-57752000Y22865500D03*
D11*
X-55782869Y30058645D03*
D12*
X-55152000Y30765500D03*
D13*
%TO.P,SW7,2*%
%TO.N,Net-(D7-Pad2)*%
X-52652000Y20865500D03*
D14*
X-50152000Y31565500D03*
D15*
X-48751958Y32305901D03*
%TD*%
D10*
%TO.P,SW1,1*%
%TO.N,col0*%
X-57752000Y41865500D03*
D11*
X-55782869Y49058645D03*
D12*
X-55152000Y49765500D03*
D13*
%TO.P,SW1,2*%
%TO.N,Net-(D1-Pad2)*%
X-52652000Y39865500D03*
D14*
X-50152000Y50565500D03*
D15*
X-48751958Y51305901D03*
%TD*%
D31*
%TO.P,SW42,1*%
%TO.N,col5_r*%
X105945501Y-11143202D03*
D32*
X113159513Y-9251947D03*
D12*
X114087102Y-9444868D03*
D33*
%TO.P,SW42,2*%
%TO.N,Net-(D42-Pad2)*%
X106763450Y-16559932D03*
D34*
X117279922Y-13374996D03*
D35*
X118621149Y-14217267D03*
%TD*%
D36*
%TO.P,J7,1*%
%TO.N,GNDA*%
X110033000Y17240500D03*
D37*
%TO.P,J7,2*%
%TO.N,+3V3*%
X107493000Y17240500D03*
%TO.P,J7,3*%
%TO.N,NCS*%
X104953000Y17240500D03*
%TO.P,J7,4*%
%TO.N,MISO*%
X102413000Y17240500D03*
%TO.P,J7,5*%
%TO.N,MOSI*%
X99873000Y17240500D03*
%TO.P,J7,6*%
%TO.N,SCLK*%
X97333000Y17240500D03*
%TO.P,J7,7*%
%TO.N,N/C*%
X94793000Y17240500D03*
%TD*%
D36*
%TO.P,J7,1*%
%TO.N,GND*%
X75083000Y17180500D03*
D37*
%TO.P,J7,2*%
%TO.N,+3V3_l*%
X72543000Y17180500D03*
%TO.P,J7,3*%
%TO.N,NCS_l*%
X70003000Y17180500D03*
%TO.P,J7,4*%
%TO.N,MISO_l*%
X67463000Y17180500D03*
%TO.P,J7,5*%
%TO.N,MOSI_l*%
X64923000Y17180500D03*
%TO.P,J7,6*%
%TO.N,SCLK_l*%
X62383000Y17180500D03*
%TO.P,J7,7*%
%TO.N,N/C*%
X59843000Y17180500D03*
%TD*%
D38*
%TO.P,J3,1,Pin_1*%
%TO.N,VCC_l*%
X71523000Y4990500D03*
%TO.P,J3,2,Pin_2*%
%TO.N,GND*%
X71523000Y2990500D03*
D39*
%TO.P,J3,MP*%
%TO.N,N/C*%
X65773000Y7340500D03*
X65773000Y640500D03*
%TD*%
D40*
%TO.P,RST,*%
%TO.N,*%
X87648000Y11315500D03*
X94048000Y11315500D03*
D41*
%TO.P,RST,1,1*%
%TO.N,reset_r*%
X93123000Y13040500D03*
%TO.P,RST,2,2*%
%TO.N,GNDA*%
X88573000Y13040500D03*
%TD*%
D42*
%TO.P,J3,1,Pin_1*%
%TO.N,VCC_r*%
X97233000Y2870500D03*
%TO.P,J3,2,Pin_2*%
%TO.N,GNDA*%
X97233000Y4870500D03*
D43*
%TO.P,J3,MP*%
%TO.N,N/C*%
X102983000Y520500D03*
X102983000Y7220500D03*
%TD*%
D40*
%TO.P,RST,*%
%TO.N,*%
X74873000Y11690500D03*
X81273000Y11690500D03*
D41*
%TO.P,RST,1,1*%
%TO.N,reset_l*%
X80348000Y13415500D03*
%TO.P,RST,2,2*%
%TO.N,GND*%
X75798000Y13415500D03*
%TD*%
D44*
%TO.P,D34,1*%
%TO.N,row2_r*%
X213623000Y4765068D03*
D45*
%TO.P,D34,2*%
%TO.N,Net-(D34-Pad2)*%
X213623000Y10765068D03*
%TD*%
D44*
%TO.P,D36,1*%
%TO.N,row2_r*%
X175623000Y9765068D03*
D45*
%TO.P,D36,2*%
%TO.N,Net-(D36-Pad2)*%
X175623000Y15765068D03*
%TD*%
D44*
%TO.P,D37,1*%
%TO.N,row2_r*%
X172623000Y9770068D03*
D45*
%TO.P,D37,2*%
%TO.N,Net-(D37-Pad2)*%
X172623000Y15770068D03*
%TD*%
D44*
%TO.P,D38,1*%
%TO.N,row2_r*%
X137623000Y9765068D03*
D45*
%TO.P,D38,2*%
%TO.N,Net-(D38-Pad2)*%
X137623000Y15765068D03*
%TD*%
D44*
%TO.P,D39,1*%
%TO.N,row2_r*%
X134623000Y9765068D03*
D45*
%TO.P,D39,2*%
%TO.N,Net-(D39-Pad2)*%
X134623000Y15765068D03*
%TD*%
D44*
%TO.P,D40,1*%
%TO.N,row3_r*%
X163123000Y-10244932D03*
D45*
%TO.P,D40,2*%
%TO.N,Net-(D40-Pad2)*%
X163123000Y-4244932D03*
%TD*%
D44*
%TO.P,D41,1*%
%TO.N,row3_r*%
X147133000Y-10229932D03*
D45*
%TO.P,D41,2*%
%TO.N,Net-(D41-Pad2)*%
X147133000Y-4229932D03*
%TD*%
D44*
%TO.P,D42,1*%
%TO.N,row3_r*%
X144133000Y-10229932D03*
D45*
%TO.P,D42,2*%
%TO.N,Net-(D42-Pad2)*%
X144133000Y-4229932D03*
%TD*%
D44*
%TO.P,D22,1*%
%TO.N,row0_r*%
X213623000Y42765068D03*
D45*
%TO.P,D22,2*%
%TO.N,Net-(D22-Pad2)*%
X213623000Y48765068D03*
%TD*%
D44*
%TO.P,D23,1*%
%TO.N,row0_r*%
X210623000Y42765068D03*
D45*
%TO.P,D23,2*%
%TO.N,Net-(D23-Pad2)*%
X210623000Y48765068D03*
%TD*%
D44*
%TO.P,D24,1*%
%TO.N,row0_r*%
X175623000Y47765068D03*
D45*
%TO.P,D24,2*%
%TO.N,Net-(D24-Pad2)*%
X175623000Y53765068D03*
%TD*%
D44*
%TO.P,D25,1*%
%TO.N,row0_r*%
X172623000Y47770068D03*
D45*
%TO.P,D25,2*%
%TO.N,Net-(D25-Pad2)*%
X172623000Y53770068D03*
%TD*%
D44*
%TO.P,D26,1*%
%TO.N,row0_r*%
X137623000Y47765068D03*
D45*
%TO.P,D26,2*%
%TO.N,Net-(D26-Pad2)*%
X137623000Y53765068D03*
%TD*%
D44*
%TO.P,D27,1*%
%TO.N,row0_r*%
X134623000Y47765068D03*
D45*
%TO.P,D27,2*%
%TO.N,Net-(D27-Pad2)*%
X134623000Y53765068D03*
%TD*%
D44*
%TO.P,D28,1*%
%TO.N,row1_r*%
X213623000Y23765068D03*
D45*
%TO.P,D28,2*%
%TO.N,Net-(D28-Pad2)*%
X213623000Y29765068D03*
%TD*%
D44*
%TO.P,D29,1*%
%TO.N,row1_r*%
X210623000Y23765068D03*
D45*
%TO.P,D29,2*%
%TO.N,Net-(D29-Pad2)*%
X210623000Y29765068D03*
%TD*%
D44*
%TO.P,D30,1*%
%TO.N,row1_r*%
X175623000Y28765068D03*
D45*
%TO.P,D30,2*%
%TO.N,Net-(D30-Pad2)*%
X175623000Y34765068D03*
%TD*%
D44*
%TO.P,D31,1*%
%TO.N,row1_r*%
X172623000Y28770068D03*
D45*
%TO.P,D31,2*%
%TO.N,Net-(D31-Pad2)*%
X172623000Y34770068D03*
%TD*%
D44*
%TO.P,D32,1*%
%TO.N,row1_r*%
X137623000Y28765068D03*
D45*
%TO.P,D32,2*%
%TO.N,Net-(D32-Pad2)*%
X137623000Y34765068D03*
%TD*%
D44*
%TO.P,D14,1*%
%TO.N,row2*%
X-41652000Y4765500D03*
D45*
%TO.P,D14,2*%
%TO.N,Net-(D14-Pad2)*%
X-41652000Y10765500D03*
%TD*%
D44*
%TO.P,D8,1*%
%TO.N,row1*%
X-41652000Y23765500D03*
D45*
%TO.P,D8,2*%
%TO.N,Net-(D8-Pad2)*%
X-41652000Y29765500D03*
%TD*%
D44*
%TO.P,D2,1*%
%TO.N,row0*%
X-41652000Y42765500D03*
D45*
%TO.P,D2,2*%
%TO.N,Net-(D2-Pad2)*%
X-41652000Y48765500D03*
%TD*%
D44*
%TO.P,D33,1*%
%TO.N,row1_r*%
X134623000Y28765068D03*
D45*
%TO.P,D33,2*%
%TO.N,Net-(D33-Pad2)*%
X134623000Y34765068D03*
%TD*%
D44*
%TO.P,D21,1*%
%TO.N,row3*%
X24848000Y-10219500D03*
D45*
%TO.P,D21,2*%
%TO.N,Net-(D21-Pad2)*%
X24848000Y-4219500D03*
%TD*%
D44*
%TO.P,D20,1*%
%TO.N,row3*%
X21848000Y-10219500D03*
D45*
%TO.P,D20,2*%
%TO.N,Net-(D20-Pad2)*%
X21848000Y-4219500D03*
%TD*%
D44*
%TO.P,D19,1*%
%TO.N,row3*%
X5668000Y-10224500D03*
D45*
%TO.P,D19,2*%
%TO.N,Net-(D19-Pad2)*%
X5668000Y-4224500D03*
%TD*%
D44*
%TO.P,D18,1*%
%TO.N,row2*%
X34348000Y9765500D03*
D45*
%TO.P,D18,2*%
%TO.N,Net-(D18-Pad2)*%
X34348000Y15765500D03*
%TD*%
D44*
%TO.P,D17,1*%
%TO.N,row2*%
X31348000Y9765500D03*
D45*
%TO.P,D17,2*%
%TO.N,Net-(D17-Pad2)*%
X31348000Y15765500D03*
%TD*%
D44*
%TO.P,D16,1*%
%TO.N,row2*%
X-3652000Y9770500D03*
D45*
%TO.P,D16,2*%
%TO.N,Net-(D16-Pad2)*%
X-3652000Y15770500D03*
%TD*%
D44*
%TO.P,D15,1*%
%TO.N,row2*%
X-6652000Y9765500D03*
D45*
%TO.P,D15,2*%
%TO.N,Net-(D15-Pad2)*%
X-6652000Y15765500D03*
%TD*%
D44*
%TO.P,D13,1*%
%TO.N,row2*%
X-44652000Y4768625D03*
D45*
%TO.P,D13,2*%
%TO.N,Net-(D13-Pad2)*%
X-44652000Y10768625D03*
%TD*%
D44*
%TO.P,D12,1*%
%TO.N,row1*%
X34348000Y28765500D03*
D45*
%TO.P,D12,2*%
%TO.N,Net-(D12-Pad2)*%
X34348000Y34765500D03*
%TD*%
D44*
%TO.P,D11,1*%
%TO.N,row1*%
X31348000Y28765500D03*
D45*
%TO.P,D11,2*%
%TO.N,Net-(D11-Pad2)*%
X31348000Y34765500D03*
%TD*%
D44*
%TO.P,D10,1*%
%TO.N,row1*%
X-3652000Y28770500D03*
D45*
%TO.P,D10,2*%
%TO.N,Net-(D10-Pad2)*%
X-3652000Y34770500D03*
%TD*%
D44*
%TO.P,D9,1*%
%TO.N,row1*%
X-6652000Y28765500D03*
D45*
%TO.P,D9,2*%
%TO.N,Net-(D9-Pad2)*%
X-6652000Y34765500D03*
%TD*%
D44*
%TO.P,D7,1*%
%TO.N,row1*%
X-44652000Y23768625D03*
D45*
%TO.P,D7,2*%
%TO.N,Net-(D7-Pad2)*%
X-44652000Y29768625D03*
%TD*%
D44*
%TO.P,D6,1*%
%TO.N,row0*%
X34348000Y47765500D03*
D45*
%TO.P,D6,2*%
%TO.N,Net-(D6-Pad2)*%
X34348000Y53765500D03*
%TD*%
D44*
%TO.P,D5,1*%
%TO.N,row0*%
X31348000Y47765500D03*
D45*
%TO.P,D5,2*%
%TO.N,Net-(D5-Pad2)*%
X31348000Y53765500D03*
%TD*%
D44*
%TO.P,D4,1*%
%TO.N,row0*%
X-3652000Y47770500D03*
D45*
%TO.P,D4,2*%
%TO.N,Net-(D4-Pad2)*%
X-3652000Y53770500D03*
%TD*%
D44*
%TO.P,D3,1*%
%TO.N,row0*%
X-6652000Y47765500D03*
D45*
%TO.P,D3,2*%
%TO.N,Net-(D3-Pad2)*%
X-6652000Y53765500D03*
%TD*%
D44*
%TO.P,D1,1*%
%TO.N,row0*%
X-44652000Y42768625D03*
D45*
%TO.P,D1,2*%
%TO.N,Net-(D1-Pad2)*%
X-44652000Y48768625D03*
%TD*%
D44*
%TO.P,D35,1*%
%TO.N,row2_r*%
X210623000Y4765068D03*
D45*
%TO.P,D35,2*%
%TO.N,Net-(D35-Pad2)*%
X210623000Y10765068D03*
%TD*%
D46*
%TO.P,U1,1*%
%TO.N,N/C*%
X109623000Y51280500D03*
%TO.N,row0_r*%
X109623000Y48740500D03*
%TO.P,U1,2*%
%TO.N,row1_r*%
X109623000Y46200500D03*
%TO.P,U1,3*%
%TO.N,N/C*%
X109623000Y43660500D03*
%TO.P,U1,4*%
X109623000Y41120500D03*
%TO.P,U1,5*%
%TO.N,col0_r*%
X109623000Y38580500D03*
%TO.P,U1,6*%
%TO.N,col1_r*%
X109623000Y36040500D03*
%TO.P,U1,7*%
%TO.N,col2_r*%
X109623000Y33500500D03*
%TO.P,U1,8*%
%TO.N,SCLK*%
X109623000Y30960500D03*
%TO.P,U1,9*%
%TO.N,MOSI*%
X109623000Y28420500D03*
%TO.P,U1,10*%
%TO.N,MISO*%
X109623000Y25880500D03*
%TO.P,U1,11*%
%TO.N,NCS*%
X109623000Y23340500D03*
%TO.P,U1,12*%
%TO.N,N/C*%
X109623000Y20800500D03*
%TO.P,U1,13*%
X94383000Y20800500D03*
%TO.P,U1,14*%
%TO.N,row3_r*%
X94383000Y23340500D03*
%TO.P,U1,15*%
%TO.N,row2_r*%
X94383000Y25880500D03*
%TO.P,U1,16*%
%TO.N,col5_r*%
X94383000Y28420500D03*
%TO.P,U1,17*%
%TO.N,col4_r*%
X94383000Y30960500D03*
%TO.P,U1,18*%
%TO.N,col3_r*%
X94383000Y33500500D03*
%TO.P,U1,19*%
%TO.N,N/C*%
X94383000Y36040500D03*
%TO.P,U1,20*%
X94383000Y38580500D03*
%TO.P,U1,21*%
%TO.N,+3V3*%
X94383000Y41120500D03*
%TO.P,U1,22*%
%TO.N,reset_r*%
X94383000Y43660500D03*
%TO.P,U1,23*%
%TO.N,GNDA*%
X94383000Y46200500D03*
%TO.P,U1,24*%
%TO.N,N/C*%
X94383000Y48740500D03*
%TO.P,U1,25*%
%TO.N,RAW_r*%
X94356715Y51280500D03*
%TO.P,U1,31*%
%TO.N,N/C*%
X107083000Y25880500D03*
%TO.P,U1,32*%
X104543000Y25880500D03*
%TO.P,U1,33*%
X102003000Y25880500D03*
%TD*%
%TO.P,U1,1*%
%TO.N,N/C*%
X74673000Y51220500D03*
%TO.N,row0*%
X74673000Y48680500D03*
%TO.P,U1,2*%
%TO.N,row1*%
X74673000Y46140500D03*
%TO.P,U1,3*%
%TO.N,N/C*%
X74673000Y43600500D03*
%TO.P,U1,4*%
X74673000Y41060500D03*
%TO.P,U1,5*%
%TO.N,col0*%
X74673000Y38520500D03*
%TO.P,U1,6*%
%TO.N,col1*%
X74673000Y35980500D03*
%TO.P,U1,7*%
%TO.N,col2*%
X74673000Y33440500D03*
%TO.P,U1,8*%
%TO.N,SCLK_l*%
X74673000Y30900500D03*
%TO.P,U1,9*%
%TO.N,MOSI_l*%
X74673000Y28360500D03*
%TO.P,U1,10*%
%TO.N,MISO_l*%
X74673000Y25820500D03*
%TO.P,U1,11*%
%TO.N,NCS_l*%
X74673000Y23280500D03*
%TO.P,U1,12*%
%TO.N,N/C*%
X74673000Y20740500D03*
%TO.P,U1,13*%
X59433000Y20740500D03*
%TO.P,U1,14*%
%TO.N,row3*%
X59433000Y23280500D03*
%TO.P,U1,15*%
%TO.N,row2*%
X59433000Y25820500D03*
%TO.P,U1,16*%
%TO.N,col5*%
X59433000Y28360500D03*
%TO.P,U1,17*%
%TO.N,col4*%
X59433000Y30900500D03*
%TO.P,U1,18*%
%TO.N,col3*%
X59433000Y33440500D03*
%TO.P,U1,19*%
%TO.N,N/C*%
X59433000Y35980500D03*
%TO.P,U1,20*%
X59433000Y38520500D03*
%TO.P,U1,21*%
%TO.N,+3V3_l*%
X59433000Y41060500D03*
%TO.P,U1,22*%
%TO.N,reset_l*%
X59433000Y43600500D03*
%TO.P,U1,23*%
%TO.N,GND*%
X59433000Y46140500D03*
%TO.P,U1,24*%
%TO.N,N/C*%
X59433000Y48680500D03*
%TO.P,U1,25*%
%TO.N,RAW_l*%
X59406715Y51220500D03*
%TO.P,U1,31*%
%TO.N,N/C*%
X72133000Y25820500D03*
%TO.P,U1,32*%
X69593000Y25820500D03*
%TO.P,U1,33*%
X67053000Y25820500D03*
%TD*%
D47*
%TO.N,col0*%
X-40142000Y24275500D03*
%TO.N,col1*%
X-36855000Y22191500D03*
%TO.N,col2*%
X-17955000Y20224490D03*
%TO.N,col3*%
X798000Y20495500D03*
%TO.N,col4*%
X19958000Y21065500D03*
%TO.N,col5*%
X39145000Y18850438D03*
%TO.N,col0_r*%
X208583000Y22968058D03*
%TO.N,col2_r*%
X179320870Y21838058D03*
%TO.N,col3_r*%
X160383000Y21384047D03*
%TO.N,col4_r*%
X141461950Y20851086D03*
%TO.N,col5_r*%
X122883000Y18445080D03*
%TO.N,GNDA*%
X91023000Y14240500D03*
X94923000Y14240500D03*
%TO.N,VCC_r*%
X109923000Y54040500D03*
%TO.N,+3V3*%
X97973000Y39490500D03*
X106573000Y20840500D03*
%TO.N,+3V3_l*%
X66023000Y23740500D03*
%TO.N,VCC_l*%
X69523000Y8190500D03*
%TD*%
D48*
%TO.N,Net-(D1-Pad2)*%
X-49345000Y43201500D02*
X-52652000Y39894500D01*
X-49345000Y50078500D02*
X-49345000Y43201500D01*
%TO.N,Net-(D2-Pad2)*%
X-30345000Y42922500D02*
X-33402000Y39865500D01*
X-30345000Y50078500D02*
X-30345000Y42922500D01*
%TO.N,Net-(D3-Pad2)*%
X-11375000Y47642500D02*
X-14402000Y44615500D01*
X-11375000Y54858500D02*
X-11375000Y47642500D01*
%TO.N,Net-(D4-Pad2)*%
X7615000Y57243500D02*
X7615000Y50007500D01*
X7615000Y50007500D02*
X4598000Y46990500D01*
%TO.N,Net-(D5-Pad2)*%
X26645000Y54838500D02*
X26645000Y47851500D01*
X26645000Y47851500D02*
X23409000Y44615500D01*
%TO.N,Net-(D6-Pad2)*%
X45645000Y52463500D02*
X45645000Y45287500D01*
X45645000Y45287500D02*
X42598000Y42240500D01*
%TO.N,Net-(D7-Pad2)*%
X-49375000Y31108500D02*
X-49375000Y23892500D01*
X-49375000Y23892500D02*
X-52402000Y20865500D01*
%TO.N,Net-(D8-Pad2)*%
X-30395000Y31128500D02*
X-30395000Y24011500D01*
X-30395000Y24011500D02*
X-33541000Y20865500D01*
%TO.N,Net-(D9-Pad2)*%
X-11235000Y28782500D02*
X-14402000Y25615500D01*
X-11235000Y35718500D02*
X-11235000Y28782500D01*
%TO.N,Net-(D10-Pad2)*%
X7605000Y38253500D02*
X7605000Y30997500D01*
X7605000Y30997500D02*
X4598000Y27990500D01*
%TO.N,Net-(D11-Pad2)*%
X26725000Y28742500D02*
X23598000Y25615500D01*
X26725000Y35758500D02*
X26725000Y28742500D01*
%TO.N,Net-(D12-Pad2)*%
X45765000Y26407500D02*
X42598000Y23240500D01*
X45765000Y33343500D02*
X45765000Y26407500D01*
%TO.N,Net-(D13-Pad2)*%
X-49415000Y4852500D02*
X-52402000Y1865500D01*
X-49415000Y12148500D02*
X-49415000Y4852500D01*
%TO.N,Net-(D14-Pad2)*%
X-30305000Y4962500D02*
X-33402000Y1865500D01*
X-30305000Y12038500D02*
X-30305000Y4962500D01*
%TO.N,Net-(D15-Pad2)*%
X-11305000Y16788500D02*
X-11305000Y9712500D01*
X-11305000Y9712500D02*
X-14402000Y6615500D01*
%TO.N,Net-(D16-Pad2)*%
X7745000Y19113500D02*
X7745000Y12137500D01*
X7745000Y12137500D02*
X4598000Y8990500D01*
%TO.N,Net-(D17-Pad2)*%
X26645000Y9662500D02*
X23598000Y6615500D01*
X26645000Y16838500D02*
X26645000Y9662500D01*
%TO.N,Net-(D18-Pad2)*%
X45655000Y14453500D02*
X45655000Y7297500D01*
X45655000Y7297500D02*
X42598000Y4240500D01*
%TO.N,Net-(D19-Pad2)*%
X17075000Y-10032500D02*
X14098000Y-13009500D01*
X17075000Y-2716500D02*
X17075000Y-10032500D01*
%TO.N,Net-(D20-Pad2)*%
X38165000Y-6061249D02*
X38165000Y-11138500D01*
X38165000Y-11138500D02*
X33745038Y-15558462D01*
%TO.N,Net-(D21-Pad2)*%
X57445000Y-9478500D02*
X62207550Y-14241050D01*
X62207550Y-14241050D02*
X62207550Y-16559500D01*
X54577296Y-9478500D02*
X57445000Y-9478500D01*
D49*
%TO.N,GND*%
X58102700Y17076665D02*
X58102700Y44810200D01*
X59302865Y15876500D02*
X58102700Y17076665D01*
X68273000Y2990500D02*
X67927000Y3336500D01*
X76673000Y15590500D02*
X76673000Y14290500D01*
X71473000Y2940500D02*
X71523000Y2990500D01*
X75083000Y17180500D02*
X73779000Y15876500D01*
X71523000Y2990500D02*
X68273000Y2990500D01*
X67927000Y8294500D02*
X75083000Y15450500D01*
X73779000Y15876500D02*
X59302865Y15876500D01*
X67927000Y3336500D02*
X67927000Y8294500D01*
X76673000Y14290500D02*
X75798000Y13415500D01*
X58102700Y44810200D02*
X59433000Y46140500D01*
X75083000Y15450500D02*
X75083000Y17180500D01*
X75083000Y17180500D02*
X76673000Y15590500D01*
D50*
%TO.N,NCS_l*%
X73333000Y21940500D02*
X74673000Y23280500D01*
X72173000Y21940500D02*
X73333000Y21940500D01*
X70003000Y19770500D02*
X72173000Y21940500D01*
X70003000Y17180500D02*
X70003000Y19770500D01*
D51*
%TO.N,col0*%
X-56305000Y19211500D02*
X-56305000Y22841500D01*
X-56315000Y40671500D02*
X-56315000Y29452500D01*
D48*
X-50642000Y20025500D02*
X-51642000Y19025500D01*
X-40441999Y23975501D02*
X-40441999Y22350501D01*
X-57509000Y41865500D02*
X-56315000Y40671500D01*
D51*
X-56315000Y48158500D02*
X-56315000Y40671500D01*
D48*
X-54642000Y19025500D02*
X-56305000Y17362500D01*
X-57509000Y22865500D02*
X-56305000Y21661500D01*
X-56165000Y5511500D02*
X-56165000Y10008500D01*
D51*
X-56305000Y21661500D02*
X-56305000Y10462500D01*
D48*
X-40441999Y22350501D02*
X-42767000Y20025500D01*
X-51642000Y19025500D02*
X-54642000Y19025500D01*
X-40142000Y24275500D02*
X-40441999Y23975501D01*
X-57752000Y3924500D02*
X-56165000Y5511500D01*
D51*
X-56305000Y29148500D02*
X-56305000Y21661500D01*
D48*
X-42767000Y20025500D02*
X-50642000Y20025500D01*
%TO.N,col1*%
X-38559000Y22865500D02*
X-37455000Y21761500D01*
D51*
X-37315000Y40721500D02*
X-37315000Y29452500D01*
X-37225000Y29068500D02*
X-37225000Y21991500D01*
D48*
X-38752000Y3865500D02*
X-37295000Y5322500D01*
D51*
X-37154999Y21891501D02*
X-36855000Y22191500D01*
X-37315000Y48158500D02*
X-37315000Y40721500D01*
X-37455000Y21591500D02*
X-37154999Y21891501D01*
X-37455000Y21761500D02*
X-37455000Y18591500D01*
D48*
X-37295000Y5322500D02*
X-37295000Y10138500D01*
D51*
X-37455000Y10312500D02*
X-37455000Y18591500D01*
X-37225000Y21991500D02*
X-37455000Y21761500D01*
X-37455000Y18591500D02*
X-37455000Y21591500D01*
D48*
X-38459000Y41865500D02*
X-37315000Y40721500D01*
%TO.N,col2*%
X-18455000Y26481500D02*
X-18455000Y26421500D01*
D51*
X-18315000Y52908500D02*
X-18315000Y45451500D01*
D48*
X-19479000Y46615500D02*
X-18315000Y45451500D01*
D51*
X-18455000Y26421500D02*
X-18455000Y22391500D01*
X-18455000Y22391500D02*
X-18455000Y15062500D01*
X-17985000Y27051500D02*
X-18455000Y26581500D01*
X-18455000Y20724490D02*
X-17955000Y20224490D01*
D48*
X-18205000Y9912500D02*
X-18205000Y14798500D01*
D51*
X-18315000Y45451500D02*
X-18315000Y34202500D01*
X-18455000Y26581500D02*
X-18455000Y26421500D01*
D48*
X-19589000Y27615500D02*
X-18455000Y26481500D01*
X-19502000Y8615500D02*
X-18205000Y9912500D01*
D51*
X-17985000Y33578500D02*
X-17985000Y27051500D01*
X-18455000Y22391500D02*
X-18455000Y20724490D01*
D48*
%TO.N,col3*%
X-444000Y10990500D02*
X685000Y9861500D01*
D51*
X685000Y55283500D02*
X685000Y50427500D01*
D48*
X-574000Y29990500D02*
X645000Y28771500D01*
D51*
X645000Y36323500D02*
X645000Y28771500D01*
D48*
X10335000Y-9422500D02*
X10335000Y-4866500D01*
D51*
X645000Y28771500D02*
X645000Y17537500D01*
X685000Y17283500D02*
X685000Y9861500D01*
X685000Y6196500D02*
X10038000Y-3156500D01*
D48*
X-514000Y48990500D02*
X645000Y47831500D01*
D51*
X798000Y20495500D02*
X773610Y20099880D01*
X685000Y50427500D02*
X645000Y50387500D01*
X685000Y9861500D02*
X685000Y6196500D01*
X773610Y20099880D02*
X745001Y20128489D01*
D48*
X8748000Y-11009500D02*
X10335000Y-9422500D01*
D51*
X645000Y50387500D02*
X645000Y47831500D01*
X645000Y47831500D02*
X645000Y36537500D01*
%TO.N,col4*%
X19882000Y21065500D02*
X19958000Y21065500D01*
X19685000Y45451500D02*
X19685000Y34202500D01*
X19685000Y7178500D02*
X31825223Y-4961723D01*
X19685000Y52908500D02*
X19685000Y45451500D01*
D48*
X31825223Y-9393795D02*
X28912384Y-12306634D01*
D51*
X19685000Y14908500D02*
X19685000Y7191500D01*
X19695000Y26411500D02*
X19695000Y15212500D01*
D48*
X31825223Y-6419948D02*
X31825223Y-9393795D01*
D51*
X19685000Y7191500D02*
X19685000Y7178500D01*
D48*
X18248000Y8598500D02*
X19655000Y7191500D01*
X19655000Y7191500D02*
X19685000Y7191500D01*
D51*
X19695000Y20878500D02*
X19882000Y21065500D01*
X19695000Y33898500D02*
X19695000Y26411500D01*
X31825223Y-4961723D02*
X31825223Y-6419948D01*
X19695000Y19911500D02*
X19695000Y20878500D01*
D48*
X18521000Y46615500D02*
X19685000Y45451500D01*
X18491000Y27615500D02*
X19695000Y26411500D01*
%TO.N,col5*%
X54505000Y-15608500D02*
X57925499Y-19028999D01*
X38625000Y24061500D02*
X38685000Y24061500D01*
X51145000Y-13018500D02*
X51145000Y-8278500D01*
D51*
X38685000Y50533500D02*
X38685000Y43021500D01*
X38720736Y18850438D02*
X39145000Y18850438D01*
X38685000Y31533500D02*
X38685000Y24061500D01*
D48*
X51145000Y-8278500D02*
X38685000Y4181500D01*
D51*
X38685000Y43021500D02*
X38685000Y31827500D01*
D48*
X57925499Y-19028999D02*
X57925499Y-19976230D01*
X38685000Y4803500D02*
X37248000Y6240500D01*
D51*
X51145000Y-13790762D02*
X52993295Y-15639057D01*
X38685000Y12533500D02*
X38685000Y4803500D01*
D48*
X37466000Y44240500D02*
X38685000Y43021500D01*
X53023852Y-15608500D02*
X54505000Y-15608500D01*
D51*
X51145000Y-13018500D02*
X51145000Y-13790762D01*
D48*
X38685000Y4181500D02*
X38685000Y4803500D01*
X37446000Y25240500D02*
X38625000Y24061500D01*
D51*
X38685000Y24061500D02*
X38685000Y12827500D01*
D48*
%TO.N,Net-(D22-Pad2)*%
X224873000Y50135068D02*
X224873000Y42865068D01*
X224873000Y42865068D02*
X221873000Y39865068D01*
%TO.N,Net-(D23-Pad2)*%
X206013000Y49995068D02*
X206013000Y43005068D01*
X206013000Y43005068D02*
X202873000Y39865068D01*
%TO.N,Net-(D24-Pad2)*%
X186953000Y54805068D02*
X186953000Y47695068D01*
X186953000Y47695068D02*
X183873000Y44615068D01*
%TO.N,Net-(D25-Pad2)*%
X167933000Y50050068D02*
X164873000Y46990068D01*
X167933000Y57200068D02*
X167933000Y50050068D01*
%TO.N,Net-(D26-Pad2)*%
X148813000Y47555068D02*
X145873000Y44615068D01*
X148813000Y54945068D02*
X148813000Y47555068D01*
%TO.N,Net-(D27-Pad2)*%
X130123000Y52260068D02*
X130123000Y45490068D01*
X130123000Y45490068D02*
X126873000Y42240068D01*
X129163000Y53220068D02*
X130123000Y52260068D01*
%TO.N,Net-(D28-Pad2)*%
X224763000Y23975068D02*
X221653000Y20865068D01*
X224763000Y31245068D02*
X224763000Y23975068D01*
%TO.N,Net-(D29-Pad2)*%
X205803000Y23795068D02*
X202873000Y20865068D01*
X205803000Y31205068D02*
X205803000Y23795068D01*
%TO.N,Net-(D30-Pad2)*%
X186953000Y28865068D02*
X183703000Y25615068D01*
X186953000Y35805068D02*
X186953000Y28865068D01*
%TO.N,Net-(D31-Pad2)*%
X167993000Y31110068D02*
X164873000Y27990068D01*
X167993000Y38140068D02*
X167993000Y31110068D01*
%TO.N,Net-(D32-Pad2)*%
X148923000Y35835068D02*
X148923000Y28665068D01*
X148923000Y28665068D02*
X145873000Y25615068D01*
%TO.N,Net-(D33-Pad2)*%
X130013000Y26380068D02*
X126873000Y23240068D01*
X130013000Y33370068D02*
X130013000Y26380068D01*
%TO.N,Net-(D34-Pad2)*%
X224873000Y12135068D02*
X224873000Y4865068D01*
X224873000Y4865068D02*
X221873000Y1865068D01*
%TO.N,Net-(D35-Pad2)*%
X205753000Y12255068D02*
X205753000Y4745068D01*
X205753000Y4745068D02*
X202873000Y1865068D01*
%TO.N,Net-(D36-Pad2)*%
X186953000Y9695068D02*
X183873000Y6615068D01*
X186953000Y16805068D02*
X186953000Y9695068D01*
%TO.N,Net-(D37-Pad2)*%
X167993000Y19140068D02*
X167993000Y12155068D01*
X167993000Y12155068D02*
X164828000Y8990068D01*
%TO.N,Net-(D38-Pad2)*%
X148703000Y9445068D02*
X145873000Y6615068D01*
X148703000Y17055068D02*
X148703000Y9445068D01*
%TO.N,Net-(D39-Pad2)*%
X129963000Y14420068D02*
X129963000Y7330068D01*
X129963000Y7330068D02*
X126873000Y4240068D01*
%TO.N,Net-(D40-Pad2)*%
X158153000Y-2519932D02*
X158153000Y-10229932D01*
X158153000Y-10229932D02*
X155373000Y-13009932D01*
%TO.N,Net-(D41-Pad2)*%
X135650032Y-15558894D02*
X137023000Y-14185926D01*
X137023000Y-6056977D02*
X137023000Y-14185926D01*
X135261651Y-4295628D02*
X137023000Y-6056977D01*
%TO.N,Net-(D42-Pad2)*%
X112713000Y-16924932D02*
X107128450Y-16924932D01*
X116368295Y-13269637D02*
X112713000Y-16924932D01*
D51*
%TO.N,col0_r*%
X216523000Y41865068D02*
X216523000Y30595068D01*
X218060500Y48057568D02*
X218060500Y43402568D01*
D48*
X218113000Y5535068D02*
X218113000Y10005068D01*
D51*
X216523000Y30595068D02*
X217813000Y29305068D01*
D48*
X211635653Y20025500D02*
X215385653Y20025500D01*
D51*
X216523000Y22865068D02*
X216523000Y11595068D01*
X218060500Y29057568D02*
X218060500Y25222568D01*
X216523000Y11595068D02*
X217813000Y10305068D01*
X218060500Y25222568D02*
X216523000Y23685068D01*
X218060500Y43402568D02*
X216523000Y41865068D01*
X216523000Y23685068D02*
X216523000Y22865068D01*
D48*
X208693095Y22968058D02*
X211635653Y20025500D01*
X216523000Y3945068D02*
X218113000Y5535068D01*
X215385653Y20025500D02*
X216523000Y18888153D01*
X208583000Y22968058D02*
X208693095Y22968058D01*
%TO.N,col1_r*%
X199123000Y5585068D02*
X197523000Y3985068D01*
X199123000Y9995068D02*
X199123000Y5585068D01*
D51*
X198883000Y29235068D02*
X198883000Y22945068D01*
X198883000Y48235068D02*
X198883000Y40725068D01*
X198883000Y40725068D02*
X198883000Y29375068D01*
X198683000Y22745068D02*
X198883000Y22945068D01*
D48*
X197773000Y41865068D02*
X198883000Y40755068D01*
X198883000Y40755068D02*
X198883000Y40725068D01*
X197663000Y22865068D02*
X198883000Y21645068D01*
D51*
X198883000Y21645068D02*
X198883000Y10375068D01*
X198883000Y22945068D02*
X198883000Y21645068D01*
%TO.N,col2_r*%
X179883000Y33985068D02*
X179883000Y26425068D01*
X179620869Y22138057D02*
X179320870Y21838058D01*
D48*
X180133000Y10235068D02*
X180133000Y14735068D01*
D51*
X179627880Y22145068D02*
X179620869Y22138057D01*
D48*
X178693000Y46615068D02*
X179883000Y45425068D01*
D51*
X179883000Y22145068D02*
X179627880Y22145068D01*
X179883000Y45425068D02*
X179883000Y34125068D01*
X179823000Y53065068D02*
X179883000Y53005068D01*
D48*
X178523000Y8625068D02*
X180133000Y10235068D01*
D51*
X179883000Y53005068D02*
X179883000Y45425068D01*
X179883000Y26425068D02*
X179883000Y15125068D01*
D48*
X178693000Y27615068D02*
X179883000Y26425068D01*
D51*
%TO.N,col3_r*%
X160883000Y28935068D02*
X160883000Y17500068D01*
D48*
X150023000Y-9759932D02*
X150023000Y-11009932D01*
X161028000Y47735068D02*
X161033000Y47735068D01*
X160830500Y9932568D02*
X161060500Y9932568D01*
D51*
X160682999Y21684046D02*
X160383000Y21384047D01*
D48*
X159773000Y48990068D02*
X161028000Y47735068D01*
D51*
X160883000Y36360068D02*
X160883000Y28935068D01*
X161033000Y55210068D02*
X161033000Y47735068D01*
X161060500Y5177568D02*
X151313000Y-4569932D01*
X161060500Y17182568D02*
X161060500Y9932568D01*
X161060500Y9932568D02*
X161060500Y5177568D01*
D48*
X159828000Y29990068D02*
X160883000Y28935068D01*
X151603000Y-4859932D02*
X151603000Y-8179932D01*
X151603000Y-8179932D02*
X150023000Y-9759932D01*
D51*
X160883000Y21745068D02*
X160744021Y21745068D01*
X161033000Y47735068D02*
X161033000Y36650068D01*
X160744021Y21745068D02*
X160682999Y21684046D01*
D48*
X159773000Y10990068D02*
X160830500Y9932568D01*
D51*
%TO.N,col4_r*%
X141761949Y20551087D02*
X141461950Y20851086D01*
D48*
X131129350Y-14023843D02*
X130206173Y-14947020D01*
D51*
X141883000Y33985068D02*
X141883000Y26425068D01*
D48*
X140693000Y27615068D02*
X141883000Y26425068D01*
D51*
X129785422Y-5697510D02*
X129785422Y-8392581D01*
D48*
X140643000Y46615068D02*
X141883000Y45375068D01*
D51*
X141883000Y45375068D02*
X141883000Y34125068D01*
X141933000Y9745068D02*
X141933000Y6450068D01*
D48*
X140803000Y8615068D02*
X141933000Y9745068D01*
D51*
X141933000Y6450068D02*
X129785422Y-5697510D01*
D48*
X131129350Y-9821282D02*
X131129350Y-14023843D01*
D51*
X141933000Y14935068D02*
X141933000Y9745068D01*
D48*
X129785422Y-8477354D02*
X131129350Y-9821282D01*
D51*
X141883000Y26425068D02*
X141883000Y15125068D01*
X141789019Y20551087D02*
X141761949Y20551087D01*
X141883000Y52985068D02*
X141883000Y45375068D01*
D48*
%TO.N,col5_r*%
X110064878Y-11143202D02*
X105945501Y-11143202D01*
D51*
X112167705Y-6096477D02*
X112167705Y-9040375D01*
X122910001Y30329067D02*
X122910001Y24032069D01*
X122883000Y43065068D02*
X123063000Y42885068D01*
X123033000Y7795068D02*
X123033000Y4768818D01*
D48*
X112167705Y-9040375D02*
X110064878Y-11143202D01*
D51*
X122813000Y30426068D02*
X122910001Y30329067D01*
X122813000Y31680068D02*
X122813000Y30426068D01*
X122910001Y24032069D02*
X122910001Y18472069D01*
D48*
X121708000Y44240068D02*
X122883000Y43065068D01*
D51*
X123063000Y50430068D02*
X123063000Y42885068D01*
X122883000Y18445068D02*
X122883000Y18445080D01*
X122910001Y18472069D02*
X122883000Y18445068D01*
D48*
X121523000Y6240068D02*
X123033000Y7750068D01*
D51*
X123033000Y4768818D02*
X112167705Y-6096477D01*
X123033000Y12460068D02*
X123033000Y7795068D01*
X123063000Y42885068D02*
X123063000Y31930068D01*
D48*
X123033000Y7750068D02*
X123033000Y7795068D01*
X121702002Y25240068D02*
X122910001Y24032069D01*
D51*
X122883000Y18445068D02*
X122883000Y12750068D01*
D52*
%TO.N,GNDA*%
X105657394Y4870500D02*
X110033000Y9246106D01*
X91023000Y14240500D02*
X89773000Y14240500D01*
X110033000Y9246106D02*
X110033000Y17240500D01*
X87473000Y39290500D02*
X87473000Y14140500D01*
X87473000Y14140500D02*
X88573000Y13040500D01*
X94383000Y46200500D02*
X87473000Y39290500D01*
X109773000Y17240500D02*
X106773000Y14240500D01*
X106773000Y14240500D02*
X94923000Y14240500D01*
X89773000Y14240500D02*
X88573000Y13040500D01*
X97233000Y4870500D02*
X105657394Y4870500D01*
D49*
%TO.N,VCC_r*%
X104653000Y2870500D02*
X97233000Y2870500D01*
X113773000Y50740500D02*
X116803000Y47710500D01*
X112273000Y54040500D02*
X113773000Y52540500D01*
X113773000Y52540500D02*
X113773000Y50740500D01*
X116803000Y47710500D02*
X116803000Y15020500D01*
X109923000Y54040500D02*
X112273000Y54040500D01*
X116803000Y15020500D02*
X104653000Y2870500D01*
D50*
%TO.N,SCLK*%
X97333000Y17240500D02*
X100223000Y20130500D01*
X105273000Y31990500D02*
X108593000Y31990500D01*
X100223000Y20130500D02*
X100223000Y26940500D01*
X100223000Y26940500D02*
X105273000Y31990500D01*
X108593000Y31990500D02*
X109623000Y30960500D01*
%TO.N,MOSI*%
X103193210Y29340500D02*
X100723000Y26870290D01*
X108703000Y29340500D02*
X103193210Y29340500D01*
X109623000Y28420500D02*
X108703000Y29340500D01*
X100723000Y18090500D02*
X99873000Y17240500D01*
X100723000Y26870290D02*
X100723000Y18090500D01*
%TO.N,MISO*%
X108445100Y24702600D02*
X109623000Y25880500D01*
X104635100Y24702600D02*
X108445100Y24702600D01*
X102413000Y22480500D02*
X104635100Y24702600D01*
X102413000Y17240500D02*
X102413000Y22480500D01*
%TO.N,NCS*%
X108873000Y22590500D02*
X109623000Y23340500D01*
X104953000Y22470500D02*
X105073000Y22590500D01*
X105073000Y22590500D02*
X108873000Y22590500D01*
X104953000Y17240500D02*
X104953000Y22470500D01*
D49*
%TO.N,+3V3*%
X95513000Y39990500D02*
X94383000Y41120500D01*
X97473000Y39990500D02*
X95513000Y39990500D01*
X107493000Y19920500D02*
X106573000Y20840500D01*
X107493000Y17240500D02*
X107493000Y19920500D01*
X97973000Y39490500D02*
X97473000Y39990500D01*
D52*
%TO.N,reset_r*%
X92773000Y13390500D02*
X92773000Y42050500D01*
X93123000Y13040500D02*
X92773000Y13390500D01*
X92773000Y42050500D02*
X94383000Y43660500D01*
D49*
%TO.N,reset_l*%
X75224029Y52550800D02*
X69677000Y52550800D01*
X80348000Y13415500D02*
X80348000Y15844771D01*
X60873000Y44740500D02*
X59733000Y43600500D01*
X62132160Y44740500D02*
X60873000Y44740500D01*
X76003300Y20189471D02*
X76003300Y51771529D01*
X59733000Y43600500D02*
X59433000Y43600500D01*
X80348000Y15844771D02*
X76003300Y20189471D01*
X76003300Y51771529D02*
X75224029Y52550800D01*
X69677000Y52285340D02*
X62132160Y44740500D01*
X69677000Y52550800D02*
X69677000Y52285340D01*
%TO.N,+3V3_l*%
X65722700Y39090800D02*
X65722700Y24040800D01*
X65722700Y24040800D02*
X66023000Y23740500D01*
X59433000Y41060500D02*
X60553000Y39940500D01*
X64873000Y39940500D02*
X65722700Y39090800D01*
X60553000Y39940500D02*
X64873000Y39940500D01*
%TO.N,VCC_l*%
X69523000Y6990500D02*
X71523000Y4990500D01*
X69523000Y8190500D02*
X69523000Y6990500D01*
D50*
%TO.N,MISO_l*%
X73091900Y24239400D02*
X74673000Y25820500D01*
X68366600Y23234100D02*
X70616600Y23234100D01*
X70616600Y23234100D02*
X71621900Y24239400D01*
X71621900Y24239400D02*
X73091900Y24239400D01*
X67463000Y22330500D02*
X68366600Y23234100D01*
X67463000Y17180500D02*
X67463000Y22330500D01*
%TO.N,SCLK_l*%
X64764600Y18332100D02*
X66473000Y20040500D01*
X70770900Y25332597D02*
X70770900Y29638400D01*
X73663000Y29890500D02*
X74673000Y30900500D01*
X66473000Y20040500D02*
X66473000Y22990500D01*
X63534600Y18332100D02*
X64764600Y18332100D01*
X62383000Y17180500D02*
X63534600Y18332100D01*
X69478803Y24040500D02*
X70770900Y25332597D01*
X70770900Y29638400D02*
X71023000Y29890500D01*
X67523000Y24040500D02*
X69478803Y24040500D01*
X66473000Y22990500D02*
X67523000Y24040500D01*
X71023000Y29890500D02*
X73663000Y29890500D01*
%TO.N,MOSI_l*%
X72620903Y24642600D02*
X73310900Y25332597D01*
X66876200Y19133700D02*
X66876200Y22593700D01*
X70319800Y23637300D02*
X71325100Y24642600D01*
X66876200Y22593700D02*
X67919800Y23637300D01*
X67919800Y23637300D02*
X70319800Y23637300D01*
X73310900Y25332597D02*
X73310900Y26998400D01*
X73310900Y26998400D02*
X74673000Y28360500D01*
X71325100Y24642600D02*
X72620903Y24642600D01*
X64923000Y17180500D02*
X66876200Y19133700D01*
%TD*%
M02*
