%TF.GenerationSoftware,KiCad,Pcbnew,8.0.3*%
%TF.CreationDate,2024-08-02T01:30:14+01:00*%
%TF.ProjectId,corne-light-ice-trackball,636f726e-652d-46c6-9967-68742d696365,1.0*%
%TF.SameCoordinates,Original*%
%TF.FileFunction,Profile,NP*%
%FSLAX46Y46*%
G04 Gerber Fmt 4.6, Leading zero omitted, Abs format (unit mm)*
G04 Created by KiCad (PCBNEW 8.0.3) date 2024-08-02 01:30:14*
%MOMM*%
%LPD*%
G01*
G04 APERTURE LIST*
%TA.AperFunction,Profile*%
%ADD10C,0.200000*%
%TD*%
G04 APERTURE END LIST*
D10*
X187311029Y63651094D02*
X186076591Y62414115D01*
X173681403Y61418436D02*
X173711883Y61250796D01*
X173381683Y61718156D02*
X173211503Y61751176D01*
X173511223Y61647036D02*
X173381683Y61718156D01*
X173511223Y61647036D02*
X173681403Y61418436D01*
X-16958319Y62406495D02*
X-18192758Y63640934D01*
X-54957000Y-2999500D02*
X-60951076Y-2957801D01*
X-54964302Y-1494762D02*
X-54957000Y-2999500D01*
X-8693168Y-2858741D02*
X-7458729Y-4093179D01*
X177763179Y-4085559D02*
X179000158Y-2848581D01*
X224085113Y-1502382D02*
X230379227Y-1471902D01*
X231202186Y-4080479D02*
X231173000Y-3009500D01*
X230061727Y-3009500D02*
X231173000Y-3009500D01*
X224085113Y-3009500D02*
X230061727Y-3009500D01*
X224085113Y-1502382D02*
X224085113Y-3009500D01*
X-43642000Y40025500D02*
X-43642000Y53275500D01*
X-42642000Y32525500D02*
X-42642000Y21025500D01*
X-43360750Y53744250D02*
X-43142000Y53775500D01*
X-42954500Y53744250D02*
X-43142000Y53775500D01*
X-43610750Y53463000D02*
X-43517000Y53650500D01*
X-43610750Y53463000D02*
X-43642000Y53275500D01*
X-42673250Y53463000D02*
X-42767000Y53650500D01*
X-42642000Y53275500D02*
X-42673250Y53463000D01*
X-43329500Y39556750D02*
X-43142000Y39525500D01*
X-43610750Y39838000D02*
X-43517000Y39650500D01*
X-43642000Y40025500D02*
X-43610750Y39838000D01*
X-42673250Y39838000D02*
X-42642000Y40025500D01*
X-42923250Y39556750D02*
X-42767000Y39650500D01*
X-42673250Y39838000D02*
X-42767000Y39650500D01*
X-42923250Y39556750D02*
X-43142000Y39525500D01*
X-43517000Y39650500D02*
X-43329500Y39556750D01*
X-42954500Y32994250D02*
X-43142000Y33025500D01*
X-42673250Y32713000D02*
X-42767000Y32900500D01*
X-42642000Y32525500D02*
X-42673250Y32713000D01*
X-43610750Y32713000D02*
X-43642000Y32525500D01*
X-43360750Y32994250D02*
X-43517000Y32900500D01*
X-43610750Y32713000D02*
X-43517000Y32900500D01*
X-43360750Y32994250D02*
X-43142000Y33025500D01*
X-42767000Y32900500D02*
X-42954500Y32994250D01*
X-43329500Y20556750D02*
X-43142000Y20525500D01*
X-42673250Y20838000D02*
X-42642000Y21025500D01*
X-42673250Y20838000D02*
X-42767000Y20650500D01*
X-43610750Y20838000D02*
X-43517000Y20650500D01*
X-42923250Y20556750D02*
X-42767000Y20650500D01*
X-43517000Y20650500D02*
X-43329500Y20556750D01*
X-42923250Y20556750D02*
X-43142000Y20525500D01*
X-43642000Y21025500D02*
X-43610750Y20838000D01*
X-43360750Y13744250D02*
X-43517000Y13650500D01*
X-43610750Y13463000D02*
X-43517000Y13650500D01*
X-42673250Y13463000D02*
X-42767000Y13650500D01*
X-42954500Y13744250D02*
X-43142000Y13775500D01*
X-42767000Y13650500D02*
X-42954500Y13744250D01*
X-43610750Y13463000D02*
X-43642000Y13275500D01*
X-42642000Y13275500D02*
X-42673250Y13463000D01*
X-43360750Y13744250D02*
X-43142000Y13775500D01*
X-42673250Y-162000D02*
X-42642000Y25500D01*
X-42923250Y-443250D02*
X-42767000Y-349500D01*
X-42923250Y-443250D02*
X-43142000Y-474500D01*
X-42673250Y-162000D02*
X-42767000Y-349500D01*
X-43642000Y25500D02*
X-43610750Y-162000D01*
X-43610750Y-162000D02*
X-43517000Y-349500D01*
X-43329500Y-443250D02*
X-43142000Y-474500D01*
X-43517000Y-349500D02*
X-43329500Y-443250D01*
X212323153Y53744250D02*
X212135653Y53775500D01*
X212604403Y53463000D02*
X212510653Y53650500D01*
X212635653Y53275500D02*
X212604403Y53463000D01*
X211666903Y53463000D02*
X211635653Y53275500D01*
X211916903Y53744250D02*
X211760653Y53650500D01*
X211666903Y53463000D02*
X211760653Y53650500D01*
X211916903Y53744250D02*
X212135653Y53775500D01*
X212510653Y53650500D02*
X212323153Y53744250D01*
X212604403Y39838000D02*
X212510653Y39650500D01*
X212354403Y39556750D02*
X212510653Y39650500D01*
X211666903Y39838000D02*
X211760653Y39650500D01*
X211948153Y39556750D02*
X212135653Y39525500D01*
X212354403Y39556750D02*
X212135653Y39525500D01*
X212604403Y39838000D02*
X212635653Y40025500D01*
X211760653Y39650500D02*
X211948153Y39556750D01*
X211635653Y40025500D02*
X211666903Y39838000D01*
X211916903Y32994250D02*
X212135653Y33025500D01*
X211666903Y32713000D02*
X211635653Y32525500D01*
X212510653Y32900500D02*
X212323153Y32994250D01*
X212604403Y32713000D02*
X212510653Y32900500D01*
X212323153Y32994250D02*
X212135653Y33025500D01*
X211916903Y32994250D02*
X211760653Y32900500D01*
X211666903Y32713000D02*
X211760653Y32900500D01*
X212635653Y32525500D02*
X212604403Y32713000D01*
X212354403Y20556750D02*
X212135653Y20525500D01*
X212604403Y20838000D02*
X212635653Y21025500D01*
X211635653Y21025500D02*
X211666903Y20838000D01*
X212354403Y20556750D02*
X212510653Y20650500D01*
X211948153Y20556750D02*
X212135653Y20525500D01*
X212604403Y20838000D02*
X212510653Y20650500D01*
X211760653Y20650500D02*
X211948153Y20556750D01*
X211666903Y20838000D02*
X211760653Y20650500D01*
X212604403Y13713000D02*
X212510653Y13900500D01*
X211666903Y13713000D02*
X211760653Y13900500D01*
X212510653Y13900500D02*
X212323153Y13994250D01*
X211666903Y13713000D02*
X211635653Y13525500D01*
X211916903Y13994250D02*
X211760653Y13900500D01*
X212323153Y13994250D02*
X212135653Y14025500D01*
X212635653Y13525500D02*
X212604403Y13713000D01*
X211916903Y13994250D02*
X212135653Y14025500D01*
X211635653Y25500D02*
X211666903Y-162000D01*
X212354403Y-443250D02*
X212135653Y-474500D01*
X211948153Y-443250D02*
X212135653Y-474500D01*
X212604403Y-162000D02*
X212510653Y-349500D01*
X211760653Y-349500D02*
X211948153Y-443250D01*
X211666903Y-162000D02*
X211760653Y-349500D01*
X212604403Y-162000D02*
X212635653Y25500D01*
X212354403Y-443250D02*
X212510653Y-349500D01*
X-6318270Y-32409071D02*
X176625260Y-32398911D01*
X181136295Y-2340581D02*
X181240435Y-2145001D01*
X117710018Y55248782D02*
X117682078Y55076062D01*
X219137198Y-2340581D02*
X219238798Y-2145001D01*
X117710018Y56498461D02*
X117740498Y56668641D01*
X-61174596Y-2980661D02*
X-61385416Y-3046700D01*
X231011686Y-35591688D02*
X231115826Y-35396109D01*
X-12208524Y-1725902D02*
X-12185664Y-1949422D01*
X-23755353Y59005438D02*
X-23755353Y55256402D01*
X-60951076Y-2957801D02*
X-61174596Y-2980661D01*
X180988976Y63219294D02*
X180818796Y63358994D01*
X136711739Y57499220D02*
X136681259Y57326500D01*
X148197608Y62632555D02*
X148177288Y62411575D01*
X-7369829Y-31710572D02*
X-7263149Y-31906152D01*
X155710921Y61248256D02*
X155741401Y61418436D01*
X32246512Y59005438D02*
X32216032Y59175618D01*
X82224600Y54255643D02*
X82263569Y11640500D01*
X-60951076Y69477848D02*
X-61174596Y69454988D01*
X-61888335Y-35606928D02*
X-61746095Y-35777108D01*
X-4753632Y61255876D02*
X-4756172Y60006197D01*
X88323013Y10498504D02*
X87423000Y10499931D01*
X-61423516Y-1464282D02*
X-61253336Y-1494762D01*
X231115826Y64354673D02*
X231179326Y64568033D01*
X136711739Y57501760D02*
X136711739Y59000358D01*
X-61654655Y54552823D02*
X-61725775Y54423283D01*
X31913772Y59475338D02*
X31746132Y59505818D01*
X31746132Y59505818D02*
X25797458Y59505818D01*
X136912399Y59399138D02*
X137044479Y59470258D01*
X-16953239Y59505818D02*
X-23254973Y59505818D01*
X51446353Y54855082D02*
X51575893Y54783962D01*
X12744411Y61756256D02*
X-4255792Y61756256D01*
X13445451Y59604878D02*
X13577530Y59533758D01*
X143325893Y62411575D02*
X143325893Y62419195D01*
X117610958Y54946522D02*
X117509358Y54847462D01*
X-61575915Y-35919348D02*
X-61380336Y-36023488D01*
X-61654655Y-1294102D02*
X-61553055Y-1395702D01*
X155210541Y59498198D02*
X148174748Y59498198D01*
X50912954Y56975980D02*
X50745314Y57006460D01*
X20940983Y62403955D02*
X20940983Y62409035D01*
X-12208524Y-1720822D02*
X-12208524Y-1725902D01*
X192683124Y59165458D02*
X192711064Y58997818D01*
X117682078Y55076062D02*
X117610958Y54946522D01*
X230871986Y63986373D02*
X231011686Y64159093D01*
X-61753715Y-3295620D02*
X-61893415Y-3465800D01*
X-61580995Y-3153380D02*
X-61753715Y-3295620D01*
X180818796Y63358994D02*
X180623216Y63463134D01*
X231202186Y68350089D02*
X231202186Y68355169D01*
X230699267Y63844133D02*
X230871986Y63986373D01*
X230069347Y-36099688D02*
X230292867Y-36076828D01*
X211635653Y13525500D02*
X211635653Y25500D01*
X-50120527Y-2162781D02*
X-50013847Y-2355821D01*
X-61746095Y63971133D02*
X-61575915Y63831433D01*
X136742219Y59167998D02*
X136810799Y59297538D01*
X230503687Y-36010788D02*
X230699267Y-35904108D01*
X180193956Y-2848581D02*
X180417476Y-2825721D01*
X-43360750Y53744250D02*
X-43517000Y53650500D01*
X20940983Y62409035D02*
X20918123Y62632555D01*
X13275271Y59833477D02*
X13346391Y59703938D01*
X176632880Y-32398911D02*
X176853860Y-32376052D01*
X164199592Y-16191188D02*
X164052272Y-16244527D01*
X212635653Y25500D02*
X212635653Y13525500D01*
X231179326Y64568033D02*
X231202186Y64789013D01*
X32576712Y57034400D02*
X32744351Y57006460D01*
X-11070605Y63541874D02*
X-11075685Y63541874D01*
X230699267Y-35904108D02*
X230871986Y-35764408D01*
X-61385416Y69388948D02*
X-61580995Y69284808D01*
X-23254973Y59505818D02*
X-23425153Y59475338D01*
X118042758Y56968360D02*
X118210398Y56998840D01*
X-42642000Y53275500D02*
X-42642000Y40025500D01*
X58973000Y-30859500D02*
X74273000Y-4909500D01*
X186686190Y-2660621D02*
X186881770Y-2764761D01*
X181326795Y-1710662D02*
X181334415Y-1502382D01*
X231202186Y68355169D02*
X231176786Y68578689D01*
X-61893415Y68969848D02*
X-61997555Y68774269D01*
X-11700525Y-2668241D02*
X-11504945Y-2772381D01*
X-11075685Y63541874D02*
X-11299205Y63519014D01*
X-12119624Y-2162781D02*
X-12012944Y-2355821D01*
X-49871607Y-2528541D02*
X-49701427Y-2668241D01*
X-17755879Y-2769841D02*
X-17560299Y-2663161D01*
X26701697Y63519014D02*
X26488338Y63452974D01*
X186178190Y-1718282D02*
X186201050Y-1941802D01*
X-12018024Y63033874D02*
X-12122164Y62838294D01*
X155710921Y60001117D02*
X155710921Y61250796D01*
X32246512Y57504300D02*
X32246512Y59005438D01*
X-42642000Y13275500D02*
X-42642000Y25500D01*
X-6254770Y-1474500D02*
X-12213604Y-1474500D01*
X-61888335Y64143853D02*
X-61746095Y63971133D01*
X93373000Y10490500D02*
X93373000Y12090500D01*
X-61553055Y-1395702D02*
X-61423516Y-1464282D01*
X180186336Y63549494D02*
X149315207Y63549494D01*
X230285247Y69465148D02*
X230061727Y69488008D01*
X-11299205Y63519014D02*
X-11512565Y63452974D01*
X-11068065Y-2858741D02*
X-8693168Y-2858741D01*
X148507488Y63214214D02*
X148367788Y63041494D01*
X230503687Y63739994D02*
X230699267Y63844133D01*
X219304838Y-1931642D02*
X219325158Y-1710662D01*
X-60945996Y69477848D02*
X-60951076Y69477848D01*
X164052272Y-16244527D02*
X163960832Y-16252147D01*
X-23724873Y59173078D02*
X-23755353Y59005438D01*
X143236993Y62853534D02*
X143132853Y63049114D01*
X82023940Y54656963D02*
X81891860Y54725542D01*
X192210685Y59498198D02*
X186084211Y59498198D01*
X-54964302Y-1494762D02*
X-61253336Y-1494762D01*
X-12185664Y62624935D02*
X-12208524Y62401415D01*
X186183270Y-1499842D02*
X186178190Y-1710662D01*
X117509358Y54847462D02*
X117379818Y54776342D01*
X13346391Y59703938D02*
X13445451Y59604878D01*
X230511307Y54646803D02*
X230612907Y54547743D01*
X192380864Y59467718D02*
X192510404Y59396598D01*
X-61555595Y54654423D02*
X-61654655Y54552823D01*
X192711064Y59000358D02*
X192711064Y55251322D01*
X127130869Y-21042583D02*
X127290889Y-21022263D01*
X81891860Y54725542D02*
X81724220Y54756022D01*
X-61995015Y-35411349D02*
X-61888335Y-35606928D01*
X-7435869Y-31499752D02*
X-7369829Y-31710572D01*
X230508767Y-1403322D02*
X230379227Y-1471902D01*
X174042082Y59528678D02*
X173910003Y59599798D01*
X180823876Y-2655541D02*
X180996596Y-2513301D01*
X-7458729Y-31276233D02*
X-7435869Y-31499752D01*
X13145731Y61555596D02*
X13044131Y61657196D01*
X136711739Y58997818D02*
X136742219Y59167998D01*
X20432984Y63351374D02*
X20237404Y63455514D01*
X142817893Y63358994D02*
X142622313Y63463134D01*
X-61893415Y-3465800D02*
X-61997555Y-3661380D01*
X136610139Y57196960D02*
X136508540Y57097900D01*
X173910003Y59599798D02*
X173810943Y59698858D01*
X148873247Y63460594D02*
X148677668Y63356454D01*
X-61753715Y54255643D02*
X-61753715Y-994383D01*
X163960832Y-16252147D02*
X127290889Y-21022263D01*
X-6018550Y-1555722D02*
X-6165870Y-1502382D01*
X193211444Y54750942D02*
X230211587Y54748402D01*
X-12213604Y-1474500D02*
X-12208524Y-1720822D01*
X-49068968Y-2858741D02*
X-18195298Y-2858741D01*
X25792378Y62401415D02*
X25797458Y59505818D01*
X177432979Y-32063632D02*
X177575219Y-31890912D01*
X137044479Y59470258D02*
X137212119Y59498198D01*
X-12122164Y62838294D02*
X-12185664Y62624935D01*
X-11512565Y63452974D02*
X-11708145Y63346294D01*
X26292758Y63346294D02*
X26122578Y63204054D01*
X20946063Y59505818D02*
X20940983Y62403955D01*
X13244791Y60006197D02*
X13275271Y59833477D01*
X118210398Y57001380D02*
X136211360Y57001380D01*
X177067219Y-32310012D02*
X177262799Y-32203332D01*
X-23854413Y54956682D02*
X-23783293Y55086222D01*
X177742859Y-31481972D02*
X177763179Y-31258453D01*
X149315207Y63549494D02*
X149307587Y63549494D01*
X-61166976Y-36086988D02*
X-60943456Y-36107308D01*
X173711883Y61250796D02*
X173711883Y60001117D01*
X25980338Y63033874D02*
X25876198Y62838294D01*
X88323000Y12090500D02*
X88323013Y10498504D01*
X-62061055Y-35200529D02*
X-61995015Y-35411349D01*
X-61380336Y-36023488D02*
X-61166976Y-36086988D01*
X231202186Y-4080479D02*
X231202186Y-34959229D01*
X186371230Y-2348201D02*
X186513470Y-2518381D01*
X149084067Y63526634D02*
X148873247Y63460594D01*
X-5901710Y-1642082D02*
X4641819Y-16097208D01*
X186201050Y-1941802D02*
X186267090Y-2152621D01*
X181237895Y62853534D02*
X181131215Y63049114D01*
X-17143739Y-2155161D02*
X-17080239Y-1941802D01*
X-62061055Y-3874740D02*
X-62083915Y-4098259D01*
X42320142Y-21144183D02*
X42162662Y-21101003D01*
X13577530Y59533758D02*
X13745170Y59505818D01*
X26922677Y63541874D02*
X26701697Y63519014D01*
X51045033Y56904860D02*
X50912954Y56975980D01*
X-61753715Y-994383D02*
X-61725775Y-1164562D01*
X-61166976Y63663794D02*
X-60943456Y63640934D01*
X-17966698Y-2835881D02*
X-17755879Y-2769841D01*
X219238798Y-2145001D02*
X219304838Y-1931642D01*
X-24255732Y54756022D02*
X-61142000Y54756022D01*
X-61575915Y63831433D02*
X-61380336Y63727294D01*
X117913218Y56899780D02*
X118042758Y56968360D01*
X181324255Y59500738D02*
X181326795Y62411575D01*
X-17560299Y-2663161D02*
X-17390119Y-2523461D01*
X136508540Y57097900D02*
X136379000Y57026780D01*
X4641819Y-16097208D02*
X4756119Y-16183568D01*
X137212119Y59500738D02*
X143333513Y59500738D01*
X-50209427Y-1720822D02*
X-50209427Y-1725902D01*
X126793049Y-21108623D02*
X126958149Y-21070523D01*
X-23425153Y59475338D02*
X-23554693Y59404218D01*
X32345572Y57204580D02*
X32447172Y57105520D01*
X230064267Y-36099688D02*
X230069347Y-36099688D01*
X155380721Y59526138D02*
X155210541Y59498198D01*
X231176786Y68578689D02*
X231110746Y68792049D01*
X155611861Y59696318D02*
X155510261Y59597258D01*
X164313892Y-16104828D02*
X164199592Y-16191188D01*
X231115826Y-35396109D02*
X231179326Y-35182749D01*
X218189779Y-2848581D02*
X218194859Y-2848581D01*
X231202186Y64789013D02*
X231202186Y68350089D01*
X-7123449Y-32076332D02*
X-6950729Y-32218572D01*
X-6950729Y-32218572D02*
X-6755150Y-32322712D01*
X192909184Y54850002D02*
X192810124Y54949062D01*
X117379818Y54776342D02*
X117212179Y54748402D01*
X174857422Y-1647162D02*
X174971722Y-1563342D01*
X155812520Y61547976D02*
X155911580Y61649576D01*
X-11708145Y63346294D02*
X-11878324Y63204054D01*
X-11878324Y63204054D02*
X-12018024Y63033874D01*
X180417476Y-2825721D02*
X180630836Y-2759681D01*
X155510261Y59597258D02*
X155380721Y59526138D01*
X181326795Y62411575D02*
X181326795Y62419195D01*
X-23953473Y54855082D02*
X-23854413Y54956682D01*
X-5254011Y59505818D02*
X-12203444Y59505818D01*
X186178190Y-1710662D02*
X186178190Y-1718282D01*
X181303935Y62642715D02*
X181237895Y62853534D01*
X155911580Y61649576D02*
X156041120Y61718156D01*
X41997562Y-21062903D02*
X41824842Y-21034963D01*
X75523000Y10840500D02*
X75523000Y12440500D01*
X192739004Y55081142D02*
X192711064Y55248782D01*
X-11504945Y-2772381D02*
X-11291585Y-2835881D01*
X-5254011Y59505818D02*
X-5083831Y59533758D01*
X186267090Y-2152621D02*
X186371230Y-2348201D01*
X230871986Y-35764408D02*
X231011686Y-35591688D01*
X-12208524Y62401415D02*
X-12203444Y59505818D01*
X218824778Y-2655541D02*
X218994958Y-2513301D01*
X13244791Y60006197D02*
X13244791Y61255876D01*
X149307587Y63549494D02*
X149084067Y63526634D01*
X-61753715Y69142568D02*
X-61893415Y68969848D01*
X74273000Y9590500D02*
G75*
G02*
X75523000Y10840500I1250000J0D01*
G01*
X230694187Y69297508D02*
X230496067Y69401648D01*
X-61142000Y54756022D02*
X-61426056Y54725542D01*
X32447172Y57105520D02*
X32576712Y57034400D01*
X51245693Y56506081D02*
X51215213Y56676261D01*
X148263648Y62845914D02*
X148197608Y62632555D01*
X51575893Y54783962D02*
X51746073Y54756022D01*
X143333513Y59500738D02*
X143325893Y62411575D01*
X87423000Y10499931D02*
G75*
G02*
X86632431Y11290500I0J790569D01*
G01*
X-4725692Y61423516D02*
X-4753632Y61255876D01*
X19800524Y63541874D02*
X-11070605Y63541874D01*
X32216032Y59175618D02*
X32144912Y59305158D01*
X13044131Y61657196D02*
X12914591Y61725776D01*
X212635653Y40025500D02*
X212635653Y53275500D01*
X230496067Y69401648D02*
X230285247Y69465148D01*
X-50013847Y-2355821D02*
X-49871607Y-2528541D01*
X143132853Y63049114D02*
X142990613Y63219294D01*
X231006606Y68985088D02*
X230864366Y69157808D01*
X93373000Y10490500D02*
G75*
G02*
X94623000Y9240500I0J-1250000D01*
G01*
X-62083915Y-4098259D02*
X-62083915Y-34969389D01*
X230069347Y63651094D02*
X230292867Y63673954D01*
X-49701427Y-2668241D02*
X-49503307Y-2772381D01*
X93373000Y12090500D02*
X88323000Y12090500D01*
X26930297Y63541874D02*
X26922677Y63541874D01*
X155741401Y61418436D02*
X155812520Y61547976D01*
X12914591Y61725776D02*
X12744411Y61756256D01*
X-61174596Y69454988D02*
X-61385416Y69388948D01*
X-11873244Y-2528541D02*
X-11700525Y-2668241D01*
X-4954291Y59604878D02*
X-4852691Y59706478D01*
X117710018Y56498461D02*
X117710018Y55248782D01*
X81724220Y54756022D02*
X51746073Y54756022D01*
X-23755353Y55253862D02*
X-23755353Y55256402D01*
X218629198Y-2759681D02*
X218824778Y-2655541D01*
X51276173Y55083682D02*
X51344753Y54954142D01*
X231011686Y64159093D02*
X231115826Y64354673D01*
X94623000Y-5259500D02*
X94623000Y9240500D01*
X136681259Y57326500D02*
X136610139Y57196960D01*
X-60943456Y-36107308D02*
X230064267Y-36099688D01*
X148367788Y63041494D02*
X148263648Y62845914D01*
X175119041Y-1510002D02*
X175210481Y-1502382D01*
X-4255792Y61756256D02*
X-4425972Y61725776D01*
X-43642000Y21025500D02*
X-43642000Y32525500D01*
X126635569Y-21151803D02*
X109773000Y-30859500D01*
X-17390119Y-2523461D02*
X-17247879Y-2350741D01*
X230864366Y69157808D02*
X230694187Y69297508D01*
X186183270Y-1499842D02*
X219332778Y-1499842D01*
X51215213Y56676261D02*
X51144093Y56805800D01*
X-17247879Y-2350741D02*
X-17143739Y-2155161D01*
X230612907Y54547743D02*
X230681487Y54415663D01*
X-5083831Y59533758D02*
X-4954291Y59604878D01*
X-61380336Y63727294D02*
X-61166976Y63663794D01*
X51245693Y56506081D02*
X51245693Y55256402D01*
X4994879Y-16244527D02*
X41664823Y-21014643D01*
X75523000Y12440500D02*
X80573000Y12440500D01*
X86623000Y53490500D02*
X86632431Y11290500D01*
X-62083915Y-34969389D02*
X-62083915Y-34977009D01*
X42320142Y-21144183D02*
X58973000Y-30859500D01*
X155710921Y59998577D02*
X155680441Y59828397D01*
X143325893Y62419195D02*
X143303033Y62642715D01*
X180623216Y63463134D02*
X180409856Y63529174D01*
X20852083Y62843374D02*
X20747943Y63038954D01*
X230211587Y54748402D02*
X230381767Y54717922D01*
X13244791Y61255876D02*
X13216851Y61426056D01*
X-61580995Y69284808D02*
X-61753715Y69142568D01*
X-23783293Y55086222D02*
X-23755353Y55253862D01*
X13216851Y61426056D02*
X13145731Y61555596D01*
X-61725775Y54423283D02*
X-61753715Y54255643D01*
X20237404Y63455514D02*
X20024044Y63519014D01*
X230292867Y63673954D02*
X230503687Y63739994D01*
X181240435Y-2145001D02*
X181303935Y-1931642D01*
X-62083915Y64778853D02*
X-62083915Y64773773D01*
X173810943Y59698858D02*
X173739823Y59830937D01*
X181326795Y62419195D02*
X181303935Y62642715D01*
X-4852691Y59706478D02*
X-4784111Y59836017D01*
X192510404Y59396598D02*
X192612004Y59297538D01*
X148677668Y63356454D02*
X148507488Y63214214D01*
X87873000Y54740500D02*
X112962179Y54748402D01*
X32144912Y59305158D02*
X32043312Y59406758D01*
X126958149Y-21070523D02*
X127130869Y-21042583D01*
X80572987Y10848504D02*
X81473000Y10849931D01*
X177262799Y-32203332D02*
X177432979Y-32063632D01*
X156041120Y61718156D02*
X156211300Y61748636D01*
X177676819Y-31695332D02*
X177742859Y-31481972D01*
X230711967Y-1002003D02*
X230681487Y-1172182D01*
X-18190218Y-2858741D02*
X-17966698Y-2835881D01*
X-7263149Y-31906152D02*
X-7123449Y-32076332D01*
X-62083915Y64773773D02*
X-62061055Y64550253D01*
X-62061055Y68563449D02*
X-62083915Y68339929D01*
X-61997555Y-3661380D02*
X-62061055Y-3874740D01*
X51344753Y54954142D02*
X51446353Y54855082D01*
X82123000Y54555363D02*
X82023940Y54656963D01*
X180996596Y-2513301D02*
X181136295Y-2340581D01*
X51144093Y56805800D02*
X51045033Y56904860D01*
X-61746095Y-35777108D02*
X-61575915Y-35919348D01*
X-7458729Y-31271153D02*
X-7458729Y-31276233D01*
X192810124Y54949062D02*
X192739004Y55081142D01*
X180630836Y-2759681D02*
X180823876Y-2655541D01*
X142187974Y63549494D02*
X26930297Y63541874D01*
X230681487Y54415663D02*
X230711967Y54248023D01*
X-23554693Y59404218D02*
X-23656293Y59302618D01*
X117740498Y56668641D02*
X117811618Y56798180D01*
X-62083915Y68339929D02*
X-62083915Y64778853D01*
X82263569Y11640500D02*
G75*
G02*
X81473000Y10849931I-790569J0D01*
G01*
X180409856Y63529174D02*
X180186336Y63549494D01*
X-50209427Y-1725902D02*
X-50184027Y-1949422D01*
X-42767000Y53650500D02*
X-42954500Y53744250D01*
X20946063Y59505818D02*
X13745170Y59505818D01*
X-7458729Y-4093179D02*
X-7458729Y-31271153D01*
X174212262Y59498198D02*
X174042082Y59528678D01*
X25876198Y62838294D02*
X25812698Y62624935D01*
X20605703Y63211674D02*
X20432984Y63351374D01*
X177575219Y-31890912D02*
X177676819Y-31695332D01*
X41824842Y-21034963D02*
X41664823Y-21014643D01*
X20918123Y62632555D02*
X20852083Y62843374D01*
X-23656293Y59302618D02*
X-23724873Y59173078D01*
X180188876Y-2848581D02*
X180193956Y-2848581D01*
X26122578Y63204054D02*
X25980338Y63033874D01*
X230061727Y69488008D02*
X-60945996Y69477848D01*
X126635569Y-21151803D02*
X126793049Y-21108623D01*
X-61426056Y54725542D02*
X-61555595Y54654423D01*
X142990613Y63219294D02*
X142817893Y63358994D01*
X230610367Y-1301722D02*
X230508767Y-1403322D01*
X26488338Y63452974D02*
X26292758Y63346294D01*
X32274452Y57334120D02*
X32345572Y57204580D01*
X-61385416Y-3046700D02*
X-61580995Y-3153380D01*
X218194859Y-2848581D02*
X218418379Y-2825721D01*
X136810799Y59297538D02*
X136912399Y59399138D01*
X-6541790Y-32386212D02*
X-6318270Y-32409071D01*
X192210685Y59498198D02*
X192380864Y59467718D01*
X4905979Y-16236907D02*
X4994879Y-16244527D01*
X148177288Y62411575D02*
X148174748Y59498198D01*
X-24255732Y54756022D02*
X-24083012Y54783962D01*
X-11291585Y-2835881D02*
X-11068065Y-2858741D01*
X173739823Y59830937D02*
X173711883Y59998577D01*
X156211300Y61751176D02*
X173211503Y61751176D01*
X230681487Y-1172182D02*
X230610367Y-1301722D01*
X181131215Y63049114D02*
X180988976Y63219294D01*
X192612004Y59297538D02*
X192683124Y59165458D01*
X-4555512Y61654656D02*
X-4654572Y61553056D01*
X176853860Y-32376052D02*
X177067219Y-32310012D01*
X143303033Y62642715D02*
X143236993Y62853534D01*
X-17080239Y-1941802D02*
X-17057379Y-1718282D01*
X-49503307Y-2772381D02*
X-49292488Y-2835881D01*
X218418379Y-2825721D02*
X218629198Y-2759681D01*
X212635653Y21025500D02*
X212635653Y32525500D01*
X176625260Y-32398911D02*
X176632880Y-32398911D01*
X231110746Y68792049D02*
X231006606Y68985088D01*
X231179326Y-35182749D02*
X231202186Y-34959229D01*
X-61995015Y64336893D02*
X-61888335Y64143853D01*
X230292867Y-36076828D02*
X230503687Y-36010788D01*
X174971722Y-1563342D02*
X175119041Y-1510002D01*
X-5901710Y-1642082D02*
X-6018550Y-1555722D01*
X211635653Y53275500D02*
X211635653Y40025500D01*
X4756119Y-16183568D02*
X4905979Y-16236907D01*
X20024044Y63519014D02*
X19800524Y63541874D01*
X230711967Y54248023D02*
X230711967Y-999463D01*
X51245693Y55256402D02*
X51276173Y55083682D01*
X50745314Y57006460D02*
X32744351Y57006460D01*
X193211444Y54748402D02*
X193041264Y54778882D01*
X187316109Y-2848581D02*
X218189779Y-2848581D01*
X82194120Y54425823D02*
X82123000Y54555363D01*
X-61725775Y-1164562D02*
X-61654655Y-1294102D01*
X42162662Y-21101003D02*
X41997562Y-21062903D01*
X32246512Y57504300D02*
X32274452Y57334120D01*
X174857422Y-1647162D02*
X164313892Y-16104828D01*
X-4784111Y59836017D02*
X-4753632Y60006197D01*
X-62061055Y64550253D02*
X-61995015Y64336893D01*
X175210481Y-1502382D02*
X181334415Y-1502382D01*
X74273000Y-4909500D02*
X74273000Y9590500D01*
X211635653Y32525500D02*
X211635653Y21025500D01*
X-50184027Y-1949422D02*
X-50120527Y-2162781D01*
X80573000Y12440500D02*
X80572987Y10848504D01*
X32043312Y59406758D02*
X31913772Y59475338D01*
X109773000Y-30859500D02*
X94623000Y-5259500D01*
X-50204347Y-1499842D02*
X-50209427Y-1720822D01*
X-18195298Y-2858741D02*
X-18190218Y-2858741D01*
X-62083915Y-34977009D02*
X-62061055Y-35200529D01*
X230381767Y54717922D02*
X230511307Y54646803D01*
X142622313Y63463134D02*
X142408954Y63529174D01*
X-4654572Y61553056D02*
X-4725692Y61423516D01*
X186513470Y-2518381D02*
X186686190Y-2660621D01*
X-6165870Y-1502382D02*
X-6254770Y-1474500D01*
X187311029Y63651094D02*
X230064267Y63651094D01*
X136379000Y57026780D02*
X136211360Y56998840D01*
X117811618Y56798180D02*
X117913218Y56899780D01*
X-24083012Y54783962D02*
X-23953473Y54855082D01*
X142408954Y63529174D02*
X142187974Y63549494D01*
X218994958Y-2513301D02*
X219137198Y-2340581D01*
X20747943Y63038954D02*
X20605703Y63211674D01*
X-12185664Y-1949422D02*
X-12119624Y-2162781D01*
X219325158Y-1710662D02*
X219332778Y-1499842D01*
X-17057379Y-1718282D02*
X-17052299Y-1499842D01*
X181303935Y-1931642D02*
X181326795Y-1710662D01*
X186881770Y-2764761D02*
X187092590Y-2828261D01*
X-61997555Y68774269D02*
X-62061055Y68563449D01*
X-4425972Y61725776D02*
X-4555512Y61654656D01*
X-43642000Y25500D02*
X-43642000Y13275500D01*
X155680441Y59828397D02*
X155611861Y59696318D01*
X86623000Y53490500D02*
G75*
G02*
X87873000Y54740500I1250000J0D01*
G01*
X-6755150Y-32322712D02*
X-6541790Y-32386212D01*
X174212262Y59500738D02*
X181324255Y59500738D01*
X-49292488Y-2835881D02*
X-49068968Y-2858741D01*
X193041264Y54778882D02*
X192909184Y54850002D01*
X25812698Y62624935D02*
X25792378Y62401415D01*
X82224600Y54255643D02*
X82194120Y54425823D01*
X112962179Y54748402D02*
X117212179Y54748402D01*
X230064267Y63651094D02*
X230069347Y63651094D01*
X-50204347Y-1499842D02*
X-17052299Y-1499842D01*
X187092590Y-2828261D02*
X187316109Y-2848581D01*
X-16958319Y62406495D02*
X-16953239Y59505818D01*
X-12012944Y-2355821D02*
X-11873244Y-2528541D01*
X186084211Y59498198D02*
X186076591Y62414115D01*
X179000158Y-2848581D02*
X180188876Y-2848581D01*
X177763179Y-31258453D02*
X177763179Y-4085559D01*
X-60943456Y63640934D02*
X-18192758Y63640934D01*
M02*
