%TF.GenerationSoftware,KiCad,Pcbnew,8.0.3*%
%TF.CreationDate,2024-08-02T01:30:14+01:00*%
%TF.ProjectId,corne-light-ice-trackball,636f726e-652d-46c6-9967-68742d696365,1.0*%
%TF.SameCoordinates,Original*%
%TF.FileFunction,Legend,Top*%
%TF.FilePolarity,Positive*%
%FSLAX46Y46*%
G04 Gerber Fmt 4.6, Leading zero omitted, Abs format (unit mm)*
G04 Created by KiCad (PCBNEW 8.0.3) date 2024-08-02 01:30:14*
%MOMM*%
%LPD*%
G01*
G04 APERTURE LIST*
G04 Aperture macros list*
%AMRoundRect*
0 Rectangle with rounded corners*
0 $1 Rounding radius*
0 $2 $3 $4 $5 $6 $7 $8 $9 X,Y pos of 4 corners*
0 Add a 4 corners polygon primitive as box body*
4,1,4,$2,$3,$4,$5,$6,$7,$8,$9,$2,$3,0*
0 Add four circle primitives for the rounded corners*
1,1,$1+$1,$2,$3*
1,1,$1+$1,$4,$5*
1,1,$1+$1,$6,$7*
1,1,$1+$1,$8,$9*
0 Add four rect primitives between the rounded corners*
20,1,$1+$1,$2,$3,$4,$5,0*
20,1,$1+$1,$4,$5,$6,$7,0*
20,1,$1+$1,$6,$7,$8,$9,0*
20,1,$1+$1,$8,$9,$2,$3,0*%
G04 Aperture macros list end*
%ADD10C,0.125000*%
%ADD11C,0.150000*%
%ADD12C,0.010000*%
%ADD13C,0.120000*%
%ADD14C,0.381000*%
%ADD15C,1.752600*%
%ADD16C,0.700000*%
%ADD17C,2.100000*%
%ADD18O,2.100000X2.100000*%
%ADD19C,2.600000*%
%ADD20RoundRect,0.350000X-1.600000X0.350000X-1.600000X-0.350000X1.600000X-0.350000X1.600000X0.350000X0*%
%ADD21RoundRect,0.316668X-1.583332X0.633332X-1.583332X-0.633332X1.583332X-0.633332X1.583332X0.633332X0*%
%ADD22RoundRect,0.200000X-0.300000X-0.400000X0.300000X-0.400000X0.300000X0.400000X-0.300000X0.400000X0*%
%ADD23RoundRect,0.200000X-0.725000X-0.525000X0.725000X-0.525000X0.725000X0.525000X-0.725000X0.525000X0*%
%ADD24RoundRect,0.350000X1.600000X-0.350000X1.600000X0.350000X-1.600000X0.350000X-1.600000X-0.350000X0*%
%ADD25RoundRect,0.316668X1.583332X-0.633332X1.583332X0.633332X-1.583332X0.633332X-1.583332X-0.633332X0*%
%ADD26RoundRect,0.200000X0.650000X-0.889000X0.650000X0.889000X-0.650000X0.889000X-0.650000X-0.889000X0*%
%ADD27O,1.700000X2.178000*%
%ADD28C,4.700000*%
%ADD29C,2.152600*%
%ADD30C,1.300000*%
G04 APERTURE END LIST*
D10*
X159107412Y22764620D02*
X159059793Y22717000D01*
X159059793Y22717000D02*
X158916936Y22669381D01*
X158916936Y22669381D02*
X158821698Y22669381D01*
X158821698Y22669381D02*
X158678841Y22717000D01*
X158678841Y22717000D02*
X158583603Y22812239D01*
X158583603Y22812239D02*
X158535984Y22907477D01*
X158535984Y22907477D02*
X158488365Y23097953D01*
X158488365Y23097953D02*
X158488365Y23240810D01*
X158488365Y23240810D02*
X158535984Y23431286D01*
X158535984Y23431286D02*
X158583603Y23526524D01*
X158583603Y23526524D02*
X158678841Y23621762D01*
X158678841Y23621762D02*
X158821698Y23669381D01*
X158821698Y23669381D02*
X158916936Y23669381D01*
X158916936Y23669381D02*
X159059793Y23621762D01*
X159059793Y23621762D02*
X159107412Y23574143D01*
X159678841Y22669381D02*
X159583603Y22717000D01*
X159583603Y22717000D02*
X159535984Y22764620D01*
X159535984Y22764620D02*
X159488365Y22859858D01*
X159488365Y22859858D02*
X159488365Y23145572D01*
X159488365Y23145572D02*
X159535984Y23240810D01*
X159535984Y23240810D02*
X159583603Y23288429D01*
X159583603Y23288429D02*
X159678841Y23336048D01*
X159678841Y23336048D02*
X159821698Y23336048D01*
X159821698Y23336048D02*
X159916936Y23288429D01*
X159916936Y23288429D02*
X159964555Y23240810D01*
X159964555Y23240810D02*
X160012174Y23145572D01*
X160012174Y23145572D02*
X160012174Y22859858D01*
X160012174Y22859858D02*
X159964555Y22764620D01*
X159964555Y22764620D02*
X159916936Y22717000D01*
X159916936Y22717000D02*
X159821698Y22669381D01*
X159821698Y22669381D02*
X159678841Y22669381D01*
X160440746Y22669381D02*
X160440746Y23336048D01*
X160440746Y23145572D02*
X160488365Y23240810D01*
X160488365Y23240810D02*
X160535984Y23288429D01*
X160535984Y23288429D02*
X160631222Y23336048D01*
X160631222Y23336048D02*
X160726460Y23336048D01*
X161059794Y23336048D02*
X161059794Y22669381D01*
X161059794Y23240810D02*
X161107413Y23288429D01*
X161107413Y23288429D02*
X161202651Y23336048D01*
X161202651Y23336048D02*
X161345508Y23336048D01*
X161345508Y23336048D02*
X161440746Y23288429D01*
X161440746Y23288429D02*
X161488365Y23193191D01*
X161488365Y23193191D02*
X161488365Y22669381D01*
X162345508Y22717000D02*
X162250270Y22669381D01*
X162250270Y22669381D02*
X162059794Y22669381D01*
X162059794Y22669381D02*
X161964556Y22717000D01*
X161964556Y22717000D02*
X161916937Y22812239D01*
X161916937Y22812239D02*
X161916937Y23193191D01*
X161916937Y23193191D02*
X161964556Y23288429D01*
X161964556Y23288429D02*
X162059794Y23336048D01*
X162059794Y23336048D02*
X162250270Y23336048D01*
X162250270Y23336048D02*
X162345508Y23288429D01*
X162345508Y23288429D02*
X162393127Y23193191D01*
X162393127Y23193191D02*
X162393127Y23097953D01*
X162393127Y23097953D02*
X161916937Y23002715D01*
X164059794Y22669381D02*
X163583604Y22669381D01*
X163583604Y22669381D02*
X163583604Y23669381D01*
X164393128Y22669381D02*
X164393128Y23336048D01*
X164393128Y23669381D02*
X164345509Y23621762D01*
X164345509Y23621762D02*
X164393128Y23574143D01*
X164393128Y23574143D02*
X164440747Y23621762D01*
X164440747Y23621762D02*
X164393128Y23669381D01*
X164393128Y23669381D02*
X164393128Y23574143D01*
X165297889Y23336048D02*
X165297889Y22526524D01*
X165297889Y22526524D02*
X165250270Y22431286D01*
X165250270Y22431286D02*
X165202651Y22383667D01*
X165202651Y22383667D02*
X165107413Y22336048D01*
X165107413Y22336048D02*
X164964556Y22336048D01*
X164964556Y22336048D02*
X164869318Y22383667D01*
X165297889Y22717000D02*
X165202651Y22669381D01*
X165202651Y22669381D02*
X165012175Y22669381D01*
X165012175Y22669381D02*
X164916937Y22717000D01*
X164916937Y22717000D02*
X164869318Y22764620D01*
X164869318Y22764620D02*
X164821699Y22859858D01*
X164821699Y22859858D02*
X164821699Y23145572D01*
X164821699Y23145572D02*
X164869318Y23240810D01*
X164869318Y23240810D02*
X164916937Y23288429D01*
X164916937Y23288429D02*
X165012175Y23336048D01*
X165012175Y23336048D02*
X165202651Y23336048D01*
X165202651Y23336048D02*
X165297889Y23288429D01*
X165774080Y22669381D02*
X165774080Y23669381D01*
X166202651Y22669381D02*
X166202651Y23193191D01*
X166202651Y23193191D02*
X166155032Y23288429D01*
X166155032Y23288429D02*
X166059794Y23336048D01*
X166059794Y23336048D02*
X165916937Y23336048D01*
X165916937Y23336048D02*
X165821699Y23288429D01*
X165821699Y23288429D02*
X165774080Y23240810D01*
X166535985Y23336048D02*
X166916937Y23336048D01*
X166678842Y23669381D02*
X166678842Y22812239D01*
X166678842Y22812239D02*
X166726461Y22717000D01*
X166726461Y22717000D02*
X166821699Y22669381D01*
X166821699Y22669381D02*
X166916937Y22669381D01*
X167916938Y23336048D02*
X168155033Y22669381D01*
X168155033Y22669381D02*
X168393128Y23336048D01*
X168726462Y23574143D02*
X168774081Y23621762D01*
X168774081Y23621762D02*
X168869319Y23669381D01*
X168869319Y23669381D02*
X169107414Y23669381D01*
X169107414Y23669381D02*
X169202652Y23621762D01*
X169202652Y23621762D02*
X169250271Y23574143D01*
X169250271Y23574143D02*
X169297890Y23478905D01*
X169297890Y23478905D02*
X169297890Y23383667D01*
X169297890Y23383667D02*
X169250271Y23240810D01*
X169250271Y23240810D02*
X168678843Y22669381D01*
X168678843Y22669381D02*
X169297890Y22669381D01*
X169726462Y22764620D02*
X169774081Y22717000D01*
X169774081Y22717000D02*
X169726462Y22669381D01*
X169726462Y22669381D02*
X169678843Y22717000D01*
X169678843Y22717000D02*
X169726462Y22764620D01*
X169726462Y22764620D02*
X169726462Y22669381D01*
X170393128Y23669381D02*
X170488366Y23669381D01*
X170488366Y23669381D02*
X170583604Y23621762D01*
X170583604Y23621762D02*
X170631223Y23574143D01*
X170631223Y23574143D02*
X170678842Y23478905D01*
X170678842Y23478905D02*
X170726461Y23288429D01*
X170726461Y23288429D02*
X170726461Y23050334D01*
X170726461Y23050334D02*
X170678842Y22859858D01*
X170678842Y22859858D02*
X170631223Y22764620D01*
X170631223Y22764620D02*
X170583604Y22717000D01*
X170583604Y22717000D02*
X170488366Y22669381D01*
X170488366Y22669381D02*
X170393128Y22669381D01*
X170393128Y22669381D02*
X170297890Y22717000D01*
X170297890Y22717000D02*
X170250271Y22764620D01*
X170250271Y22764620D02*
X170202652Y22859858D01*
X170202652Y22859858D02*
X170155033Y23050334D01*
X170155033Y23050334D02*
X170155033Y23288429D01*
X170155033Y23288429D02*
X170202652Y23478905D01*
X170202652Y23478905D02*
X170250271Y23574143D01*
X170250271Y23574143D02*
X170297890Y23621762D01*
X170297890Y23621762D02*
X170393128Y23669381D01*
X171916938Y22669381D02*
X171916938Y23669381D01*
X171916938Y23669381D02*
X172297890Y23669381D01*
X172297890Y23669381D02*
X172393128Y23621762D01*
X172393128Y23621762D02*
X172440747Y23574143D01*
X172440747Y23574143D02*
X172488366Y23478905D01*
X172488366Y23478905D02*
X172488366Y23336048D01*
X172488366Y23336048D02*
X172440747Y23240810D01*
X172440747Y23240810D02*
X172393128Y23193191D01*
X172393128Y23193191D02*
X172297890Y23145572D01*
X172297890Y23145572D02*
X171916938Y23145572D01*
X173488366Y22764620D02*
X173440747Y22717000D01*
X173440747Y22717000D02*
X173297890Y22669381D01*
X173297890Y22669381D02*
X173202652Y22669381D01*
X173202652Y22669381D02*
X173059795Y22717000D01*
X173059795Y22717000D02*
X172964557Y22812239D01*
X172964557Y22812239D02*
X172916938Y22907477D01*
X172916938Y22907477D02*
X172869319Y23097953D01*
X172869319Y23097953D02*
X172869319Y23240810D01*
X172869319Y23240810D02*
X172916938Y23431286D01*
X172916938Y23431286D02*
X172964557Y23526524D01*
X172964557Y23526524D02*
X173059795Y23621762D01*
X173059795Y23621762D02*
X173202652Y23669381D01*
X173202652Y23669381D02*
X173297890Y23669381D01*
X173297890Y23669381D02*
X173440747Y23621762D01*
X173440747Y23621762D02*
X173488366Y23574143D01*
X174250271Y23193191D02*
X174393128Y23145572D01*
X174393128Y23145572D02*
X174440747Y23097953D01*
X174440747Y23097953D02*
X174488366Y23002715D01*
X174488366Y23002715D02*
X174488366Y22859858D01*
X174488366Y22859858D02*
X174440747Y22764620D01*
X174440747Y22764620D02*
X174393128Y22717000D01*
X174393128Y22717000D02*
X174297890Y22669381D01*
X174297890Y22669381D02*
X173916938Y22669381D01*
X173916938Y22669381D02*
X173916938Y23669381D01*
X173916938Y23669381D02*
X174250271Y23669381D01*
X174250271Y23669381D02*
X174345509Y23621762D01*
X174345509Y23621762D02*
X174393128Y23574143D01*
X174393128Y23574143D02*
X174440747Y23478905D01*
X174440747Y23478905D02*
X174440747Y23383667D01*
X174440747Y23383667D02*
X174393128Y23288429D01*
X174393128Y23288429D02*
X174345509Y23240810D01*
X174345509Y23240810D02*
X174250271Y23193191D01*
X174250271Y23193191D02*
X173916938Y23193191D01*
X175678843Y22669381D02*
X175678843Y23669381D01*
X175678843Y23669381D02*
X175916938Y23669381D01*
X175916938Y23669381D02*
X176059795Y23621762D01*
X176059795Y23621762D02*
X176155033Y23526524D01*
X176155033Y23526524D02*
X176202652Y23431286D01*
X176202652Y23431286D02*
X176250271Y23240810D01*
X176250271Y23240810D02*
X176250271Y23097953D01*
X176250271Y23097953D02*
X176202652Y22907477D01*
X176202652Y22907477D02*
X176155033Y22812239D01*
X176155033Y22812239D02*
X176059795Y22717000D01*
X176059795Y22717000D02*
X175916938Y22669381D01*
X175916938Y22669381D02*
X175678843Y22669381D01*
X177059795Y22717000D02*
X176964557Y22669381D01*
X176964557Y22669381D02*
X176774081Y22669381D01*
X176774081Y22669381D02*
X176678843Y22717000D01*
X176678843Y22717000D02*
X176631224Y22812239D01*
X176631224Y22812239D02*
X176631224Y23193191D01*
X176631224Y23193191D02*
X176678843Y23288429D01*
X176678843Y23288429D02*
X176774081Y23336048D01*
X176774081Y23336048D02*
X176964557Y23336048D01*
X176964557Y23336048D02*
X177059795Y23288429D01*
X177059795Y23288429D02*
X177107414Y23193191D01*
X177107414Y23193191D02*
X177107414Y23097953D01*
X177107414Y23097953D02*
X176631224Y23002715D01*
X177488367Y22717000D02*
X177583605Y22669381D01*
X177583605Y22669381D02*
X177774081Y22669381D01*
X177774081Y22669381D02*
X177869319Y22717000D01*
X177869319Y22717000D02*
X177916938Y22812239D01*
X177916938Y22812239D02*
X177916938Y22859858D01*
X177916938Y22859858D02*
X177869319Y22955096D01*
X177869319Y22955096D02*
X177774081Y23002715D01*
X177774081Y23002715D02*
X177631224Y23002715D01*
X177631224Y23002715D02*
X177535986Y23050334D01*
X177535986Y23050334D02*
X177488367Y23145572D01*
X177488367Y23145572D02*
X177488367Y23193191D01*
X177488367Y23193191D02*
X177535986Y23288429D01*
X177535986Y23288429D02*
X177631224Y23336048D01*
X177631224Y23336048D02*
X177774081Y23336048D01*
X177774081Y23336048D02*
X177869319Y23288429D01*
X178345510Y22669381D02*
X178345510Y23336048D01*
X178345510Y23669381D02*
X178297891Y23621762D01*
X178297891Y23621762D02*
X178345510Y23574143D01*
X178345510Y23574143D02*
X178393129Y23621762D01*
X178393129Y23621762D02*
X178345510Y23669381D01*
X178345510Y23669381D02*
X178345510Y23574143D01*
X179250271Y23336048D02*
X179250271Y22526524D01*
X179250271Y22526524D02*
X179202652Y22431286D01*
X179202652Y22431286D02*
X179155033Y22383667D01*
X179155033Y22383667D02*
X179059795Y22336048D01*
X179059795Y22336048D02*
X178916938Y22336048D01*
X178916938Y22336048D02*
X178821700Y22383667D01*
X179250271Y22717000D02*
X179155033Y22669381D01*
X179155033Y22669381D02*
X178964557Y22669381D01*
X178964557Y22669381D02*
X178869319Y22717000D01*
X178869319Y22717000D02*
X178821700Y22764620D01*
X178821700Y22764620D02*
X178774081Y22859858D01*
X178774081Y22859858D02*
X178774081Y23145572D01*
X178774081Y23145572D02*
X178821700Y23240810D01*
X178821700Y23240810D02*
X178869319Y23288429D01*
X178869319Y23288429D02*
X178964557Y23336048D01*
X178964557Y23336048D02*
X179155033Y23336048D01*
X179155033Y23336048D02*
X179250271Y23288429D01*
X179726462Y23336048D02*
X179726462Y22669381D01*
X179726462Y23240810D02*
X179774081Y23288429D01*
X179774081Y23288429D02*
X179869319Y23336048D01*
X179869319Y23336048D02*
X180012176Y23336048D01*
X180012176Y23336048D02*
X180107414Y23288429D01*
X180107414Y23288429D02*
X180155033Y23193191D01*
X180155033Y23193191D02*
X180155033Y22669381D01*
X181012176Y22717000D02*
X180916938Y22669381D01*
X180916938Y22669381D02*
X180726462Y22669381D01*
X180726462Y22669381D02*
X180631224Y22717000D01*
X180631224Y22717000D02*
X180583605Y22812239D01*
X180583605Y22812239D02*
X180583605Y23193191D01*
X180583605Y23193191D02*
X180631224Y23288429D01*
X180631224Y23288429D02*
X180726462Y23336048D01*
X180726462Y23336048D02*
X180916938Y23336048D01*
X180916938Y23336048D02*
X181012176Y23288429D01*
X181012176Y23288429D02*
X181059795Y23193191D01*
X181059795Y23193191D02*
X181059795Y23097953D01*
X181059795Y23097953D02*
X180583605Y23002715D01*
X181916938Y22669381D02*
X181916938Y23669381D01*
X181916938Y22717000D02*
X181821700Y22669381D01*
X181821700Y22669381D02*
X181631224Y22669381D01*
X181631224Y22669381D02*
X181535986Y22717000D01*
X181535986Y22717000D02*
X181488367Y22764620D01*
X181488367Y22764620D02*
X181440748Y22859858D01*
X181440748Y22859858D02*
X181440748Y23145572D01*
X181440748Y23145572D02*
X181488367Y23240810D01*
X181488367Y23240810D02*
X181535986Y23288429D01*
X181535986Y23288429D02*
X181631224Y23336048D01*
X181631224Y23336048D02*
X181821700Y23336048D01*
X181821700Y23336048D02*
X181916938Y23288429D01*
X183155034Y22669381D02*
X183155034Y23669381D01*
X183155034Y23288429D02*
X183250272Y23336048D01*
X183250272Y23336048D02*
X183440748Y23336048D01*
X183440748Y23336048D02*
X183535986Y23288429D01*
X183535986Y23288429D02*
X183583605Y23240810D01*
X183583605Y23240810D02*
X183631224Y23145572D01*
X183631224Y23145572D02*
X183631224Y22859858D01*
X183631224Y22859858D02*
X183583605Y22764620D01*
X183583605Y22764620D02*
X183535986Y22717000D01*
X183535986Y22717000D02*
X183440748Y22669381D01*
X183440748Y22669381D02*
X183250272Y22669381D01*
X183250272Y22669381D02*
X183155034Y22717000D01*
X183964558Y23336048D02*
X184202653Y22669381D01*
X184440748Y23336048D02*
X184202653Y22669381D01*
X184202653Y22669381D02*
X184107415Y22431286D01*
X184107415Y22431286D02*
X184059796Y22383667D01*
X184059796Y22383667D02*
X183964558Y22336048D01*
X185440749Y23336048D02*
X185821701Y23336048D01*
X185583606Y22669381D02*
X185583606Y23526524D01*
X185583606Y23526524D02*
X185631225Y23621762D01*
X185631225Y23621762D02*
X185726463Y23669381D01*
X185726463Y23669381D02*
X185821701Y23669381D01*
X186297892Y22669381D02*
X186202654Y22717000D01*
X186202654Y22717000D02*
X186155035Y22764620D01*
X186155035Y22764620D02*
X186107416Y22859858D01*
X186107416Y22859858D02*
X186107416Y23145572D01*
X186107416Y23145572D02*
X186155035Y23240810D01*
X186155035Y23240810D02*
X186202654Y23288429D01*
X186202654Y23288429D02*
X186297892Y23336048D01*
X186297892Y23336048D02*
X186440749Y23336048D01*
X186440749Y23336048D02*
X186535987Y23288429D01*
X186535987Y23288429D02*
X186583606Y23240810D01*
X186583606Y23240810D02*
X186631225Y23145572D01*
X186631225Y23145572D02*
X186631225Y22859858D01*
X186631225Y22859858D02*
X186583606Y22764620D01*
X186583606Y22764620D02*
X186535987Y22717000D01*
X186535987Y22717000D02*
X186440749Y22669381D01*
X186440749Y22669381D02*
X186297892Y22669381D01*
X187202654Y22669381D02*
X187107416Y22717000D01*
X187107416Y22717000D02*
X187059797Y22764620D01*
X187059797Y22764620D02*
X187012178Y22859858D01*
X187012178Y22859858D02*
X187012178Y23145572D01*
X187012178Y23145572D02*
X187059797Y23240810D01*
X187059797Y23240810D02*
X187107416Y23288429D01*
X187107416Y23288429D02*
X187202654Y23336048D01*
X187202654Y23336048D02*
X187345511Y23336048D01*
X187345511Y23336048D02*
X187440749Y23288429D01*
X187440749Y23288429D02*
X187488368Y23240810D01*
X187488368Y23240810D02*
X187535987Y23145572D01*
X187535987Y23145572D02*
X187535987Y22859858D01*
X187535987Y22859858D02*
X187488368Y22764620D01*
X187488368Y22764620D02*
X187440749Y22717000D01*
X187440749Y22717000D02*
X187345511Y22669381D01*
X187345511Y22669381D02*
X187202654Y22669381D01*
X187916940Y22717000D02*
X188012178Y22669381D01*
X188012178Y22669381D02*
X188202654Y22669381D01*
X188202654Y22669381D02*
X188297892Y22717000D01*
X188297892Y22717000D02*
X188345511Y22812239D01*
X188345511Y22812239D02*
X188345511Y22859858D01*
X188345511Y22859858D02*
X188297892Y22955096D01*
X188297892Y22955096D02*
X188202654Y23002715D01*
X188202654Y23002715D02*
X188059797Y23002715D01*
X188059797Y23002715D02*
X187964559Y23050334D01*
X187964559Y23050334D02*
X187916940Y23145572D01*
X187916940Y23145572D02*
X187916940Y23193191D01*
X187916940Y23193191D02*
X187964559Y23288429D01*
X187964559Y23288429D02*
X188059797Y23336048D01*
X188059797Y23336048D02*
X188202654Y23336048D01*
X188202654Y23336048D02*
X188297892Y23288429D01*
X188631226Y23336048D02*
X189012178Y23336048D01*
X188774083Y23669381D02*
X188774083Y22812239D01*
X188774083Y22812239D02*
X188821702Y22717000D01*
X188821702Y22717000D02*
X188916940Y22669381D01*
X188916940Y22669381D02*
X189012178Y22669381D01*
X189774083Y22669381D02*
X189774083Y23193191D01*
X189774083Y23193191D02*
X189726464Y23288429D01*
X189726464Y23288429D02*
X189631226Y23336048D01*
X189631226Y23336048D02*
X189440750Y23336048D01*
X189440750Y23336048D02*
X189345512Y23288429D01*
X189774083Y22717000D02*
X189678845Y22669381D01*
X189678845Y22669381D02*
X189440750Y22669381D01*
X189440750Y22669381D02*
X189345512Y22717000D01*
X189345512Y22717000D02*
X189297893Y22812239D01*
X189297893Y22812239D02*
X189297893Y22907477D01*
X189297893Y22907477D02*
X189345512Y23002715D01*
X189345512Y23002715D02*
X189440750Y23050334D01*
X189440750Y23050334D02*
X189678845Y23050334D01*
X189678845Y23050334D02*
X189774083Y23097953D01*
X190250274Y23336048D02*
X190250274Y22669381D01*
X190250274Y23240810D02*
X190297893Y23288429D01*
X190297893Y23288429D02*
X190393131Y23336048D01*
X190393131Y23336048D02*
X190535988Y23336048D01*
X190535988Y23336048D02*
X190631226Y23288429D01*
X190631226Y23288429D02*
X190678845Y23193191D01*
X190678845Y23193191D02*
X190678845Y22669381D01*
X-20180241Y22724620D02*
X-20227860Y22677000D01*
X-20227860Y22677000D02*
X-20370717Y22629381D01*
X-20370717Y22629381D02*
X-20465955Y22629381D01*
X-20465955Y22629381D02*
X-20608812Y22677000D01*
X-20608812Y22677000D02*
X-20704050Y22772239D01*
X-20704050Y22772239D02*
X-20751669Y22867477D01*
X-20751669Y22867477D02*
X-20799288Y23057953D01*
X-20799288Y23057953D02*
X-20799288Y23200810D01*
X-20799288Y23200810D02*
X-20751669Y23391286D01*
X-20751669Y23391286D02*
X-20704050Y23486524D01*
X-20704050Y23486524D02*
X-20608812Y23581762D01*
X-20608812Y23581762D02*
X-20465955Y23629381D01*
X-20465955Y23629381D02*
X-20370717Y23629381D01*
X-20370717Y23629381D02*
X-20227860Y23581762D01*
X-20227860Y23581762D02*
X-20180241Y23534143D01*
X-19608812Y22629381D02*
X-19704050Y22677000D01*
X-19704050Y22677000D02*
X-19751669Y22724620D01*
X-19751669Y22724620D02*
X-19799288Y22819858D01*
X-19799288Y22819858D02*
X-19799288Y23105572D01*
X-19799288Y23105572D02*
X-19751669Y23200810D01*
X-19751669Y23200810D02*
X-19704050Y23248429D01*
X-19704050Y23248429D02*
X-19608812Y23296048D01*
X-19608812Y23296048D02*
X-19465955Y23296048D01*
X-19465955Y23296048D02*
X-19370717Y23248429D01*
X-19370717Y23248429D02*
X-19323098Y23200810D01*
X-19323098Y23200810D02*
X-19275479Y23105572D01*
X-19275479Y23105572D02*
X-19275479Y22819858D01*
X-19275479Y22819858D02*
X-19323098Y22724620D01*
X-19323098Y22724620D02*
X-19370717Y22677000D01*
X-19370717Y22677000D02*
X-19465955Y22629381D01*
X-19465955Y22629381D02*
X-19608812Y22629381D01*
X-18846907Y22629381D02*
X-18846907Y23296048D01*
X-18846907Y23105572D02*
X-18799288Y23200810D01*
X-18799288Y23200810D02*
X-18751669Y23248429D01*
X-18751669Y23248429D02*
X-18656431Y23296048D01*
X-18656431Y23296048D02*
X-18561193Y23296048D01*
X-18227859Y23296048D02*
X-18227859Y22629381D01*
X-18227859Y23200810D02*
X-18180240Y23248429D01*
X-18180240Y23248429D02*
X-18085002Y23296048D01*
X-18085002Y23296048D02*
X-17942145Y23296048D01*
X-17942145Y23296048D02*
X-17846907Y23248429D01*
X-17846907Y23248429D02*
X-17799288Y23153191D01*
X-17799288Y23153191D02*
X-17799288Y22629381D01*
X-16942145Y22677000D02*
X-17037383Y22629381D01*
X-17037383Y22629381D02*
X-17227859Y22629381D01*
X-17227859Y22629381D02*
X-17323097Y22677000D01*
X-17323097Y22677000D02*
X-17370716Y22772239D01*
X-17370716Y22772239D02*
X-17370716Y23153191D01*
X-17370716Y23153191D02*
X-17323097Y23248429D01*
X-17323097Y23248429D02*
X-17227859Y23296048D01*
X-17227859Y23296048D02*
X-17037383Y23296048D01*
X-17037383Y23296048D02*
X-16942145Y23248429D01*
X-16942145Y23248429D02*
X-16894526Y23153191D01*
X-16894526Y23153191D02*
X-16894526Y23057953D01*
X-16894526Y23057953D02*
X-17370716Y22962715D01*
X-15227859Y22629381D02*
X-15704049Y22629381D01*
X-15704049Y22629381D02*
X-15704049Y23629381D01*
X-14894525Y22629381D02*
X-14894525Y23296048D01*
X-14894525Y23629381D02*
X-14942144Y23581762D01*
X-14942144Y23581762D02*
X-14894525Y23534143D01*
X-14894525Y23534143D02*
X-14846906Y23581762D01*
X-14846906Y23581762D02*
X-14894525Y23629381D01*
X-14894525Y23629381D02*
X-14894525Y23534143D01*
X-13989764Y23296048D02*
X-13989764Y22486524D01*
X-13989764Y22486524D02*
X-14037383Y22391286D01*
X-14037383Y22391286D02*
X-14085002Y22343667D01*
X-14085002Y22343667D02*
X-14180240Y22296048D01*
X-14180240Y22296048D02*
X-14323097Y22296048D01*
X-14323097Y22296048D02*
X-14418335Y22343667D01*
X-13989764Y22677000D02*
X-14085002Y22629381D01*
X-14085002Y22629381D02*
X-14275478Y22629381D01*
X-14275478Y22629381D02*
X-14370716Y22677000D01*
X-14370716Y22677000D02*
X-14418335Y22724620D01*
X-14418335Y22724620D02*
X-14465954Y22819858D01*
X-14465954Y22819858D02*
X-14465954Y23105572D01*
X-14465954Y23105572D02*
X-14418335Y23200810D01*
X-14418335Y23200810D02*
X-14370716Y23248429D01*
X-14370716Y23248429D02*
X-14275478Y23296048D01*
X-14275478Y23296048D02*
X-14085002Y23296048D01*
X-14085002Y23296048D02*
X-13989764Y23248429D01*
X-13513573Y22629381D02*
X-13513573Y23629381D01*
X-13085002Y22629381D02*
X-13085002Y23153191D01*
X-13085002Y23153191D02*
X-13132621Y23248429D01*
X-13132621Y23248429D02*
X-13227859Y23296048D01*
X-13227859Y23296048D02*
X-13370716Y23296048D01*
X-13370716Y23296048D02*
X-13465954Y23248429D01*
X-13465954Y23248429D02*
X-13513573Y23200810D01*
X-12751668Y23296048D02*
X-12370716Y23296048D01*
X-12608811Y23629381D02*
X-12608811Y22772239D01*
X-12608811Y22772239D02*
X-12561192Y22677000D01*
X-12561192Y22677000D02*
X-12465954Y22629381D01*
X-12465954Y22629381D02*
X-12370716Y22629381D01*
X-11370715Y23296048D02*
X-11132620Y22629381D01*
X-11132620Y22629381D02*
X-10894525Y23296048D01*
X-10561191Y23534143D02*
X-10513572Y23581762D01*
X-10513572Y23581762D02*
X-10418334Y23629381D01*
X-10418334Y23629381D02*
X-10180239Y23629381D01*
X-10180239Y23629381D02*
X-10085001Y23581762D01*
X-10085001Y23581762D02*
X-10037382Y23534143D01*
X-10037382Y23534143D02*
X-9989763Y23438905D01*
X-9989763Y23438905D02*
X-9989763Y23343667D01*
X-9989763Y23343667D02*
X-10037382Y23200810D01*
X-10037382Y23200810D02*
X-10608810Y22629381D01*
X-10608810Y22629381D02*
X-9989763Y22629381D01*
X-9561191Y22724620D02*
X-9513572Y22677000D01*
X-9513572Y22677000D02*
X-9561191Y22629381D01*
X-9561191Y22629381D02*
X-9608810Y22677000D01*
X-9608810Y22677000D02*
X-9561191Y22724620D01*
X-9561191Y22724620D02*
X-9561191Y22629381D01*
X-8894525Y23629381D02*
X-8799287Y23629381D01*
X-8799287Y23629381D02*
X-8704049Y23581762D01*
X-8704049Y23581762D02*
X-8656430Y23534143D01*
X-8656430Y23534143D02*
X-8608811Y23438905D01*
X-8608811Y23438905D02*
X-8561192Y23248429D01*
X-8561192Y23248429D02*
X-8561192Y23010334D01*
X-8561192Y23010334D02*
X-8608811Y22819858D01*
X-8608811Y22819858D02*
X-8656430Y22724620D01*
X-8656430Y22724620D02*
X-8704049Y22677000D01*
X-8704049Y22677000D02*
X-8799287Y22629381D01*
X-8799287Y22629381D02*
X-8894525Y22629381D01*
X-8894525Y22629381D02*
X-8989763Y22677000D01*
X-8989763Y22677000D02*
X-9037382Y22724620D01*
X-9037382Y22724620D02*
X-9085001Y22819858D01*
X-9085001Y22819858D02*
X-9132620Y23010334D01*
X-9132620Y23010334D02*
X-9132620Y23248429D01*
X-9132620Y23248429D02*
X-9085001Y23438905D01*
X-9085001Y23438905D02*
X-9037382Y23534143D01*
X-9037382Y23534143D02*
X-8989763Y23581762D01*
X-8989763Y23581762D02*
X-8894525Y23629381D01*
X-7370715Y22629381D02*
X-7370715Y23629381D01*
X-7370715Y23629381D02*
X-6989763Y23629381D01*
X-6989763Y23629381D02*
X-6894525Y23581762D01*
X-6894525Y23581762D02*
X-6846906Y23534143D01*
X-6846906Y23534143D02*
X-6799287Y23438905D01*
X-6799287Y23438905D02*
X-6799287Y23296048D01*
X-6799287Y23296048D02*
X-6846906Y23200810D01*
X-6846906Y23200810D02*
X-6894525Y23153191D01*
X-6894525Y23153191D02*
X-6989763Y23105572D01*
X-6989763Y23105572D02*
X-7370715Y23105572D01*
X-5799287Y22724620D02*
X-5846906Y22677000D01*
X-5846906Y22677000D02*
X-5989763Y22629381D01*
X-5989763Y22629381D02*
X-6085001Y22629381D01*
X-6085001Y22629381D02*
X-6227858Y22677000D01*
X-6227858Y22677000D02*
X-6323096Y22772239D01*
X-6323096Y22772239D02*
X-6370715Y22867477D01*
X-6370715Y22867477D02*
X-6418334Y23057953D01*
X-6418334Y23057953D02*
X-6418334Y23200810D01*
X-6418334Y23200810D02*
X-6370715Y23391286D01*
X-6370715Y23391286D02*
X-6323096Y23486524D01*
X-6323096Y23486524D02*
X-6227858Y23581762D01*
X-6227858Y23581762D02*
X-6085001Y23629381D01*
X-6085001Y23629381D02*
X-5989763Y23629381D01*
X-5989763Y23629381D02*
X-5846906Y23581762D01*
X-5846906Y23581762D02*
X-5799287Y23534143D01*
X-5037382Y23153191D02*
X-4894525Y23105572D01*
X-4894525Y23105572D02*
X-4846906Y23057953D01*
X-4846906Y23057953D02*
X-4799287Y22962715D01*
X-4799287Y22962715D02*
X-4799287Y22819858D01*
X-4799287Y22819858D02*
X-4846906Y22724620D01*
X-4846906Y22724620D02*
X-4894525Y22677000D01*
X-4894525Y22677000D02*
X-4989763Y22629381D01*
X-4989763Y22629381D02*
X-5370715Y22629381D01*
X-5370715Y22629381D02*
X-5370715Y23629381D01*
X-5370715Y23629381D02*
X-5037382Y23629381D01*
X-5037382Y23629381D02*
X-4942144Y23581762D01*
X-4942144Y23581762D02*
X-4894525Y23534143D01*
X-4894525Y23534143D02*
X-4846906Y23438905D01*
X-4846906Y23438905D02*
X-4846906Y23343667D01*
X-4846906Y23343667D02*
X-4894525Y23248429D01*
X-4894525Y23248429D02*
X-4942144Y23200810D01*
X-4942144Y23200810D02*
X-5037382Y23153191D01*
X-5037382Y23153191D02*
X-5370715Y23153191D01*
X-3608810Y22629381D02*
X-3608810Y23629381D01*
X-3608810Y23629381D02*
X-3370715Y23629381D01*
X-3370715Y23629381D02*
X-3227858Y23581762D01*
X-3227858Y23581762D02*
X-3132620Y23486524D01*
X-3132620Y23486524D02*
X-3085001Y23391286D01*
X-3085001Y23391286D02*
X-3037382Y23200810D01*
X-3037382Y23200810D02*
X-3037382Y23057953D01*
X-3037382Y23057953D02*
X-3085001Y22867477D01*
X-3085001Y22867477D02*
X-3132620Y22772239D01*
X-3132620Y22772239D02*
X-3227858Y22677000D01*
X-3227858Y22677000D02*
X-3370715Y22629381D01*
X-3370715Y22629381D02*
X-3608810Y22629381D01*
X-2227858Y22677000D02*
X-2323096Y22629381D01*
X-2323096Y22629381D02*
X-2513572Y22629381D01*
X-2513572Y22629381D02*
X-2608810Y22677000D01*
X-2608810Y22677000D02*
X-2656429Y22772239D01*
X-2656429Y22772239D02*
X-2656429Y23153191D01*
X-2656429Y23153191D02*
X-2608810Y23248429D01*
X-2608810Y23248429D02*
X-2513572Y23296048D01*
X-2513572Y23296048D02*
X-2323096Y23296048D01*
X-2323096Y23296048D02*
X-2227858Y23248429D01*
X-2227858Y23248429D02*
X-2180239Y23153191D01*
X-2180239Y23153191D02*
X-2180239Y23057953D01*
X-2180239Y23057953D02*
X-2656429Y22962715D01*
X-1799286Y22677000D02*
X-1704048Y22629381D01*
X-1704048Y22629381D02*
X-1513572Y22629381D01*
X-1513572Y22629381D02*
X-1418334Y22677000D01*
X-1418334Y22677000D02*
X-1370715Y22772239D01*
X-1370715Y22772239D02*
X-1370715Y22819858D01*
X-1370715Y22819858D02*
X-1418334Y22915096D01*
X-1418334Y22915096D02*
X-1513572Y22962715D01*
X-1513572Y22962715D02*
X-1656429Y22962715D01*
X-1656429Y22962715D02*
X-1751667Y23010334D01*
X-1751667Y23010334D02*
X-1799286Y23105572D01*
X-1799286Y23105572D02*
X-1799286Y23153191D01*
X-1799286Y23153191D02*
X-1751667Y23248429D01*
X-1751667Y23248429D02*
X-1656429Y23296048D01*
X-1656429Y23296048D02*
X-1513572Y23296048D01*
X-1513572Y23296048D02*
X-1418334Y23248429D01*
X-942143Y22629381D02*
X-942143Y23296048D01*
X-942143Y23629381D02*
X-989762Y23581762D01*
X-989762Y23581762D02*
X-942143Y23534143D01*
X-942143Y23534143D02*
X-894524Y23581762D01*
X-894524Y23581762D02*
X-942143Y23629381D01*
X-942143Y23629381D02*
X-942143Y23534143D01*
X-37382Y23296048D02*
X-37382Y22486524D01*
X-37382Y22486524D02*
X-85001Y22391286D01*
X-85001Y22391286D02*
X-132620Y22343667D01*
X-132620Y22343667D02*
X-227858Y22296048D01*
X-227858Y22296048D02*
X-370715Y22296048D01*
X-370715Y22296048D02*
X-465953Y22343667D01*
X-37382Y22677000D02*
X-132620Y22629381D01*
X-132620Y22629381D02*
X-323096Y22629381D01*
X-323096Y22629381D02*
X-418334Y22677000D01*
X-418334Y22677000D02*
X-465953Y22724620D01*
X-465953Y22724620D02*
X-513572Y22819858D01*
X-513572Y22819858D02*
X-513572Y23105572D01*
X-513572Y23105572D02*
X-465953Y23200810D01*
X-465953Y23200810D02*
X-418334Y23248429D01*
X-418334Y23248429D02*
X-323096Y23296048D01*
X-323096Y23296048D02*
X-132620Y23296048D01*
X-132620Y23296048D02*
X-37382Y23248429D01*
X438809Y23296048D02*
X438809Y22629381D01*
X438809Y23200810D02*
X486428Y23248429D01*
X486428Y23248429D02*
X581666Y23296048D01*
X581666Y23296048D02*
X724523Y23296048D01*
X724523Y23296048D02*
X819761Y23248429D01*
X819761Y23248429D02*
X867380Y23153191D01*
X867380Y23153191D02*
X867380Y22629381D01*
X1724523Y22677000D02*
X1629285Y22629381D01*
X1629285Y22629381D02*
X1438809Y22629381D01*
X1438809Y22629381D02*
X1343571Y22677000D01*
X1343571Y22677000D02*
X1295952Y22772239D01*
X1295952Y22772239D02*
X1295952Y23153191D01*
X1295952Y23153191D02*
X1343571Y23248429D01*
X1343571Y23248429D02*
X1438809Y23296048D01*
X1438809Y23296048D02*
X1629285Y23296048D01*
X1629285Y23296048D02*
X1724523Y23248429D01*
X1724523Y23248429D02*
X1772142Y23153191D01*
X1772142Y23153191D02*
X1772142Y23057953D01*
X1772142Y23057953D02*
X1295952Y22962715D01*
X2629285Y22629381D02*
X2629285Y23629381D01*
X2629285Y22677000D02*
X2534047Y22629381D01*
X2534047Y22629381D02*
X2343571Y22629381D01*
X2343571Y22629381D02*
X2248333Y22677000D01*
X2248333Y22677000D02*
X2200714Y22724620D01*
X2200714Y22724620D02*
X2153095Y22819858D01*
X2153095Y22819858D02*
X2153095Y23105572D01*
X2153095Y23105572D02*
X2200714Y23200810D01*
X2200714Y23200810D02*
X2248333Y23248429D01*
X2248333Y23248429D02*
X2343571Y23296048D01*
X2343571Y23296048D02*
X2534047Y23296048D01*
X2534047Y23296048D02*
X2629285Y23248429D01*
X3867381Y22629381D02*
X3867381Y23629381D01*
X3867381Y23248429D02*
X3962619Y23296048D01*
X3962619Y23296048D02*
X4153095Y23296048D01*
X4153095Y23296048D02*
X4248333Y23248429D01*
X4248333Y23248429D02*
X4295952Y23200810D01*
X4295952Y23200810D02*
X4343571Y23105572D01*
X4343571Y23105572D02*
X4343571Y22819858D01*
X4343571Y22819858D02*
X4295952Y22724620D01*
X4295952Y22724620D02*
X4248333Y22677000D01*
X4248333Y22677000D02*
X4153095Y22629381D01*
X4153095Y22629381D02*
X3962619Y22629381D01*
X3962619Y22629381D02*
X3867381Y22677000D01*
X4676905Y23296048D02*
X4915000Y22629381D01*
X5153095Y23296048D02*
X4915000Y22629381D01*
X4915000Y22629381D02*
X4819762Y22391286D01*
X4819762Y22391286D02*
X4772143Y22343667D01*
X4772143Y22343667D02*
X4676905Y22296048D01*
X6153096Y23296048D02*
X6534048Y23296048D01*
X6295953Y22629381D02*
X6295953Y23486524D01*
X6295953Y23486524D02*
X6343572Y23581762D01*
X6343572Y23581762D02*
X6438810Y23629381D01*
X6438810Y23629381D02*
X6534048Y23629381D01*
X7010239Y22629381D02*
X6915001Y22677000D01*
X6915001Y22677000D02*
X6867382Y22724620D01*
X6867382Y22724620D02*
X6819763Y22819858D01*
X6819763Y22819858D02*
X6819763Y23105572D01*
X6819763Y23105572D02*
X6867382Y23200810D01*
X6867382Y23200810D02*
X6915001Y23248429D01*
X6915001Y23248429D02*
X7010239Y23296048D01*
X7010239Y23296048D02*
X7153096Y23296048D01*
X7153096Y23296048D02*
X7248334Y23248429D01*
X7248334Y23248429D02*
X7295953Y23200810D01*
X7295953Y23200810D02*
X7343572Y23105572D01*
X7343572Y23105572D02*
X7343572Y22819858D01*
X7343572Y22819858D02*
X7295953Y22724620D01*
X7295953Y22724620D02*
X7248334Y22677000D01*
X7248334Y22677000D02*
X7153096Y22629381D01*
X7153096Y22629381D02*
X7010239Y22629381D01*
X7915001Y22629381D02*
X7819763Y22677000D01*
X7819763Y22677000D02*
X7772144Y22724620D01*
X7772144Y22724620D02*
X7724525Y22819858D01*
X7724525Y22819858D02*
X7724525Y23105572D01*
X7724525Y23105572D02*
X7772144Y23200810D01*
X7772144Y23200810D02*
X7819763Y23248429D01*
X7819763Y23248429D02*
X7915001Y23296048D01*
X7915001Y23296048D02*
X8057858Y23296048D01*
X8057858Y23296048D02*
X8153096Y23248429D01*
X8153096Y23248429D02*
X8200715Y23200810D01*
X8200715Y23200810D02*
X8248334Y23105572D01*
X8248334Y23105572D02*
X8248334Y22819858D01*
X8248334Y22819858D02*
X8200715Y22724620D01*
X8200715Y22724620D02*
X8153096Y22677000D01*
X8153096Y22677000D02*
X8057858Y22629381D01*
X8057858Y22629381D02*
X7915001Y22629381D01*
X8629287Y22677000D02*
X8724525Y22629381D01*
X8724525Y22629381D02*
X8915001Y22629381D01*
X8915001Y22629381D02*
X9010239Y22677000D01*
X9010239Y22677000D02*
X9057858Y22772239D01*
X9057858Y22772239D02*
X9057858Y22819858D01*
X9057858Y22819858D02*
X9010239Y22915096D01*
X9010239Y22915096D02*
X8915001Y22962715D01*
X8915001Y22962715D02*
X8772144Y22962715D01*
X8772144Y22962715D02*
X8676906Y23010334D01*
X8676906Y23010334D02*
X8629287Y23105572D01*
X8629287Y23105572D02*
X8629287Y23153191D01*
X8629287Y23153191D02*
X8676906Y23248429D01*
X8676906Y23248429D02*
X8772144Y23296048D01*
X8772144Y23296048D02*
X8915001Y23296048D01*
X8915001Y23296048D02*
X9010239Y23248429D01*
X9343573Y23296048D02*
X9724525Y23296048D01*
X9486430Y23629381D02*
X9486430Y22772239D01*
X9486430Y22772239D02*
X9534049Y22677000D01*
X9534049Y22677000D02*
X9629287Y22629381D01*
X9629287Y22629381D02*
X9724525Y22629381D01*
X10486430Y22629381D02*
X10486430Y23153191D01*
X10486430Y23153191D02*
X10438811Y23248429D01*
X10438811Y23248429D02*
X10343573Y23296048D01*
X10343573Y23296048D02*
X10153097Y23296048D01*
X10153097Y23296048D02*
X10057859Y23248429D01*
X10486430Y22677000D02*
X10391192Y22629381D01*
X10391192Y22629381D02*
X10153097Y22629381D01*
X10153097Y22629381D02*
X10057859Y22677000D01*
X10057859Y22677000D02*
X10010240Y22772239D01*
X10010240Y22772239D02*
X10010240Y22867477D01*
X10010240Y22867477D02*
X10057859Y22962715D01*
X10057859Y22962715D02*
X10153097Y23010334D01*
X10153097Y23010334D02*
X10391192Y23010334D01*
X10391192Y23010334D02*
X10486430Y23057953D01*
X10962621Y23296048D02*
X10962621Y22629381D01*
X10962621Y23200810D02*
X11010240Y23248429D01*
X11010240Y23248429D02*
X11105478Y23296048D01*
X11105478Y23296048D02*
X11248335Y23296048D01*
X11248335Y23296048D02*
X11343573Y23248429D01*
X11343573Y23248429D02*
X11391192Y23153191D01*
X11391192Y23153191D02*
X11391192Y22629381D01*
D11*
X64911095Y-1061938D02*
X64815857Y-1014319D01*
X64815857Y-1014319D02*
X64673000Y-1014319D01*
X64673000Y-1014319D02*
X64530143Y-1061938D01*
X64530143Y-1061938D02*
X64434905Y-1157176D01*
X64434905Y-1157176D02*
X64387286Y-1252414D01*
X64387286Y-1252414D02*
X64339667Y-1442890D01*
X64339667Y-1442890D02*
X64339667Y-1585747D01*
X64339667Y-1585747D02*
X64387286Y-1776223D01*
X64387286Y-1776223D02*
X64434905Y-1871461D01*
X64434905Y-1871461D02*
X64530143Y-1966700D01*
X64530143Y-1966700D02*
X64673000Y-2014319D01*
X64673000Y-2014319D02*
X64768238Y-2014319D01*
X64768238Y-2014319D02*
X64911095Y-1966700D01*
X64911095Y-1966700D02*
X64958714Y-1919080D01*
X64958714Y-1919080D02*
X64958714Y-1585747D01*
X64958714Y-1585747D02*
X64768238Y-1585747D01*
X65387286Y-2014319D02*
X65387286Y-1014319D01*
X65387286Y-1014319D02*
X65958714Y-2014319D01*
X65958714Y-2014319D02*
X65958714Y-1014319D01*
X66434905Y-2014319D02*
X66434905Y-1014319D01*
X66434905Y-1014319D02*
X66673000Y-1014319D01*
X66673000Y-1014319D02*
X66815857Y-1061938D01*
X66815857Y-1061938D02*
X66911095Y-1157176D01*
X66911095Y-1157176D02*
X66958714Y-1252414D01*
X66958714Y-1252414D02*
X67006333Y-1442890D01*
X67006333Y-1442890D02*
X67006333Y-1585747D01*
X67006333Y-1585747D02*
X66958714Y-1776223D01*
X66958714Y-1776223D02*
X66911095Y-1871461D01*
X66911095Y-1871461D02*
X66815857Y-1966700D01*
X66815857Y-1966700D02*
X66673000Y-2014319D01*
X66673000Y-2014319D02*
X66434905Y-2014319D01*
X68196810Y-1633366D02*
X68958715Y-1633366D01*
X102011095Y9938062D02*
X101915857Y9985681D01*
X101915857Y9985681D02*
X101773000Y9985681D01*
X101773000Y9985681D02*
X101630143Y9938062D01*
X101630143Y9938062D02*
X101534905Y9842824D01*
X101534905Y9842824D02*
X101487286Y9747586D01*
X101487286Y9747586D02*
X101439667Y9557110D01*
X101439667Y9557110D02*
X101439667Y9414253D01*
X101439667Y9414253D02*
X101487286Y9223777D01*
X101487286Y9223777D02*
X101534905Y9128539D01*
X101534905Y9128539D02*
X101630143Y9033300D01*
X101630143Y9033300D02*
X101773000Y8985681D01*
X101773000Y8985681D02*
X101868238Y8985681D01*
X101868238Y8985681D02*
X102011095Y9033300D01*
X102011095Y9033300D02*
X102058714Y9080920D01*
X102058714Y9080920D02*
X102058714Y9414253D01*
X102058714Y9414253D02*
X101868238Y9414253D01*
X102487286Y8985681D02*
X102487286Y9985681D01*
X102487286Y9985681D02*
X103058714Y8985681D01*
X103058714Y8985681D02*
X103058714Y9985681D01*
X103534905Y8985681D02*
X103534905Y9985681D01*
X103534905Y9985681D02*
X103773000Y9985681D01*
X103773000Y9985681D02*
X103915857Y9938062D01*
X103915857Y9938062D02*
X104011095Y9842824D01*
X104011095Y9842824D02*
X104058714Y9747586D01*
X104058714Y9747586D02*
X104106333Y9557110D01*
X104106333Y9557110D02*
X104106333Y9414253D01*
X104106333Y9414253D02*
X104058714Y9223777D01*
X104058714Y9223777D02*
X104011095Y9128539D01*
X104011095Y9128539D02*
X103915857Y9033300D01*
X103915857Y9033300D02*
X103773000Y8985681D01*
X103773000Y8985681D02*
X103534905Y8985681D01*
X105296810Y9366634D02*
X106058715Y9366634D01*
X101439667Y-1114319D02*
X101773000Y-2114319D01*
X101773000Y-2114319D02*
X102106333Y-1114319D01*
X103011095Y-2019080D02*
X102963476Y-2066700D01*
X102963476Y-2066700D02*
X102820619Y-2114319D01*
X102820619Y-2114319D02*
X102725381Y-2114319D01*
X102725381Y-2114319D02*
X102582524Y-2066700D01*
X102582524Y-2066700D02*
X102487286Y-1971461D01*
X102487286Y-1971461D02*
X102439667Y-1876223D01*
X102439667Y-1876223D02*
X102392048Y-1685747D01*
X102392048Y-1685747D02*
X102392048Y-1542890D01*
X102392048Y-1542890D02*
X102439667Y-1352414D01*
X102439667Y-1352414D02*
X102487286Y-1257176D01*
X102487286Y-1257176D02*
X102582524Y-1161938D01*
X102582524Y-1161938D02*
X102725381Y-1114319D01*
X102725381Y-1114319D02*
X102820619Y-1114319D01*
X102820619Y-1114319D02*
X102963476Y-1161938D01*
X102963476Y-1161938D02*
X103011095Y-1209557D01*
X104011095Y-2019080D02*
X103963476Y-2066700D01*
X103963476Y-2066700D02*
X103820619Y-2114319D01*
X103820619Y-2114319D02*
X103725381Y-2114319D01*
X103725381Y-2114319D02*
X103582524Y-2066700D01*
X103582524Y-2066700D02*
X103487286Y-1971461D01*
X103487286Y-1971461D02*
X103439667Y-1876223D01*
X103439667Y-1876223D02*
X103392048Y-1685747D01*
X103392048Y-1685747D02*
X103392048Y-1542890D01*
X103392048Y-1542890D02*
X103439667Y-1352414D01*
X103439667Y-1352414D02*
X103487286Y-1257176D01*
X103487286Y-1257176D02*
X103582524Y-1161938D01*
X103582524Y-1161938D02*
X103725381Y-1114319D01*
X103725381Y-1114319D02*
X103820619Y-1114319D01*
X103820619Y-1114319D02*
X103963476Y-1161938D01*
X103963476Y-1161938D02*
X104011095Y-1209557D01*
X105201572Y-1733366D02*
X105963477Y-1733366D01*
X105582524Y-2114319D02*
X105582524Y-1352414D01*
X63639667Y10085681D02*
X63973000Y9085681D01*
X63973000Y9085681D02*
X64306333Y10085681D01*
X65211095Y9180920D02*
X65163476Y9133300D01*
X65163476Y9133300D02*
X65020619Y9085681D01*
X65020619Y9085681D02*
X64925381Y9085681D01*
X64925381Y9085681D02*
X64782524Y9133300D01*
X64782524Y9133300D02*
X64687286Y9228539D01*
X64687286Y9228539D02*
X64639667Y9323777D01*
X64639667Y9323777D02*
X64592048Y9514253D01*
X64592048Y9514253D02*
X64592048Y9657110D01*
X64592048Y9657110D02*
X64639667Y9847586D01*
X64639667Y9847586D02*
X64687286Y9942824D01*
X64687286Y9942824D02*
X64782524Y10038062D01*
X64782524Y10038062D02*
X64925381Y10085681D01*
X64925381Y10085681D02*
X65020619Y10085681D01*
X65020619Y10085681D02*
X65163476Y10038062D01*
X65163476Y10038062D02*
X65211095Y9990443D01*
X66211095Y9180920D02*
X66163476Y9133300D01*
X66163476Y9133300D02*
X66020619Y9085681D01*
X66020619Y9085681D02*
X65925381Y9085681D01*
X65925381Y9085681D02*
X65782524Y9133300D01*
X65782524Y9133300D02*
X65687286Y9228539D01*
X65687286Y9228539D02*
X65639667Y9323777D01*
X65639667Y9323777D02*
X65592048Y9514253D01*
X65592048Y9514253D02*
X65592048Y9657110D01*
X65592048Y9657110D02*
X65639667Y9847586D01*
X65639667Y9847586D02*
X65687286Y9942824D01*
X65687286Y9942824D02*
X65782524Y10038062D01*
X65782524Y10038062D02*
X65925381Y10085681D01*
X65925381Y10085681D02*
X66020619Y10085681D01*
X66020619Y10085681D02*
X66163476Y10038062D01*
X66163476Y10038062D02*
X66211095Y9990443D01*
X67401572Y9466634D02*
X68163477Y9466634D01*
X67782524Y9085681D02*
X67782524Y9847586D01*
X99313476Y14785681D02*
X99313476Y15785681D01*
X99313476Y15785681D02*
X99694428Y15785681D01*
X99694428Y15785681D02*
X99789666Y15738062D01*
X99789666Y15738062D02*
X99837285Y15690443D01*
X99837285Y15690443D02*
X99884904Y15595205D01*
X99884904Y15595205D02*
X99884904Y15452348D01*
X99884904Y15452348D02*
X99837285Y15357110D01*
X99837285Y15357110D02*
X99789666Y15309491D01*
X99789666Y15309491D02*
X99694428Y15261872D01*
X99694428Y15261872D02*
X99313476Y15261872D01*
X100218238Y15785681D02*
X100456333Y14785681D01*
X100456333Y14785681D02*
X100646809Y15499967D01*
X100646809Y15499967D02*
X100837285Y14785681D01*
X100837285Y14785681D02*
X101075381Y15785681D01*
X101456333Y14785681D02*
X101456333Y15785681D01*
X101456333Y15785681D02*
X101789666Y15071396D01*
X101789666Y15071396D02*
X102122999Y15785681D01*
X102122999Y15785681D02*
X102122999Y14785681D01*
X102503952Y15785681D02*
X103122999Y15785681D01*
X103122999Y15785681D02*
X102789666Y15404729D01*
X102789666Y15404729D02*
X102932523Y15404729D01*
X102932523Y15404729D02*
X103027761Y15357110D01*
X103027761Y15357110D02*
X103075380Y15309491D01*
X103075380Y15309491D02*
X103122999Y15214253D01*
X103122999Y15214253D02*
X103122999Y14976158D01*
X103122999Y14976158D02*
X103075380Y14880920D01*
X103075380Y14880920D02*
X103027761Y14833300D01*
X103027761Y14833300D02*
X102932523Y14785681D01*
X102932523Y14785681D02*
X102646809Y14785681D01*
X102646809Y14785681D02*
X102551571Y14833300D01*
X102551571Y14833300D02*
X102503952Y14880920D01*
X103456333Y15785681D02*
X104075380Y15785681D01*
X104075380Y15785681D02*
X103742047Y15404729D01*
X103742047Y15404729D02*
X103884904Y15404729D01*
X103884904Y15404729D02*
X103980142Y15357110D01*
X103980142Y15357110D02*
X104027761Y15309491D01*
X104027761Y15309491D02*
X104075380Y15214253D01*
X104075380Y15214253D02*
X104075380Y14976158D01*
X104075380Y14976158D02*
X104027761Y14880920D01*
X104027761Y14880920D02*
X103980142Y14833300D01*
X103980142Y14833300D02*
X103884904Y14785681D01*
X103884904Y14785681D02*
X103599190Y14785681D01*
X103599190Y14785681D02*
X103503952Y14833300D01*
X103503952Y14833300D02*
X103456333Y14880920D01*
X104932523Y15785681D02*
X104742047Y15785681D01*
X104742047Y15785681D02*
X104646809Y15738062D01*
X104646809Y15738062D02*
X104599190Y15690443D01*
X104599190Y15690443D02*
X104503952Y15547586D01*
X104503952Y15547586D02*
X104456333Y15357110D01*
X104456333Y15357110D02*
X104456333Y14976158D01*
X104456333Y14976158D02*
X104503952Y14880920D01*
X104503952Y14880920D02*
X104551571Y14833300D01*
X104551571Y14833300D02*
X104646809Y14785681D01*
X104646809Y14785681D02*
X104837285Y14785681D01*
X104837285Y14785681D02*
X104932523Y14833300D01*
X104932523Y14833300D02*
X104980142Y14880920D01*
X104980142Y14880920D02*
X105027761Y14976158D01*
X105027761Y14976158D02*
X105027761Y15214253D01*
X105027761Y15214253D02*
X104980142Y15309491D01*
X104980142Y15309491D02*
X104932523Y15357110D01*
X104932523Y15357110D02*
X104837285Y15404729D01*
X104837285Y15404729D02*
X104646809Y15404729D01*
X104646809Y15404729D02*
X104551571Y15357110D01*
X104551571Y15357110D02*
X104503952Y15309491D01*
X104503952Y15309491D02*
X104456333Y15214253D01*
X105646809Y15785681D02*
X105742047Y15785681D01*
X105742047Y15785681D02*
X105837285Y15738062D01*
X105837285Y15738062D02*
X105884904Y15690443D01*
X105884904Y15690443D02*
X105932523Y15595205D01*
X105932523Y15595205D02*
X105980142Y15404729D01*
X105980142Y15404729D02*
X105980142Y15166634D01*
X105980142Y15166634D02*
X105932523Y14976158D01*
X105932523Y14976158D02*
X105884904Y14880920D01*
X105884904Y14880920D02*
X105837285Y14833300D01*
X105837285Y14833300D02*
X105742047Y14785681D01*
X105742047Y14785681D02*
X105646809Y14785681D01*
X105646809Y14785681D02*
X105551571Y14833300D01*
X105551571Y14833300D02*
X105503952Y14880920D01*
X105503952Y14880920D02*
X105456333Y14976158D01*
X105456333Y14976158D02*
X105408714Y15166634D01*
X105408714Y15166634D02*
X105408714Y15404729D01*
X105408714Y15404729D02*
X105456333Y15595205D01*
X105456333Y15595205D02*
X105503952Y15690443D01*
X105503952Y15690443D02*
X105551571Y15738062D01*
X105551571Y15738062D02*
X105646809Y15785681D01*
X64363476Y14725681D02*
X64363476Y15725681D01*
X64363476Y15725681D02*
X64744428Y15725681D01*
X64744428Y15725681D02*
X64839666Y15678062D01*
X64839666Y15678062D02*
X64887285Y15630443D01*
X64887285Y15630443D02*
X64934904Y15535205D01*
X64934904Y15535205D02*
X64934904Y15392348D01*
X64934904Y15392348D02*
X64887285Y15297110D01*
X64887285Y15297110D02*
X64839666Y15249491D01*
X64839666Y15249491D02*
X64744428Y15201872D01*
X64744428Y15201872D02*
X64363476Y15201872D01*
X65268238Y15725681D02*
X65506333Y14725681D01*
X65506333Y14725681D02*
X65696809Y15439967D01*
X65696809Y15439967D02*
X65887285Y14725681D01*
X65887285Y14725681D02*
X66125381Y15725681D01*
X66506333Y14725681D02*
X66506333Y15725681D01*
X66506333Y15725681D02*
X66839666Y15011396D01*
X66839666Y15011396D02*
X67172999Y15725681D01*
X67172999Y15725681D02*
X67172999Y14725681D01*
X67553952Y15725681D02*
X68172999Y15725681D01*
X68172999Y15725681D02*
X67839666Y15344729D01*
X67839666Y15344729D02*
X67982523Y15344729D01*
X67982523Y15344729D02*
X68077761Y15297110D01*
X68077761Y15297110D02*
X68125380Y15249491D01*
X68125380Y15249491D02*
X68172999Y15154253D01*
X68172999Y15154253D02*
X68172999Y14916158D01*
X68172999Y14916158D02*
X68125380Y14820920D01*
X68125380Y14820920D02*
X68077761Y14773300D01*
X68077761Y14773300D02*
X67982523Y14725681D01*
X67982523Y14725681D02*
X67696809Y14725681D01*
X67696809Y14725681D02*
X67601571Y14773300D01*
X67601571Y14773300D02*
X67553952Y14820920D01*
X68506333Y15725681D02*
X69125380Y15725681D01*
X69125380Y15725681D02*
X68792047Y15344729D01*
X68792047Y15344729D02*
X68934904Y15344729D01*
X68934904Y15344729D02*
X69030142Y15297110D01*
X69030142Y15297110D02*
X69077761Y15249491D01*
X69077761Y15249491D02*
X69125380Y15154253D01*
X69125380Y15154253D02*
X69125380Y14916158D01*
X69125380Y14916158D02*
X69077761Y14820920D01*
X69077761Y14820920D02*
X69030142Y14773300D01*
X69030142Y14773300D02*
X68934904Y14725681D01*
X68934904Y14725681D02*
X68649190Y14725681D01*
X68649190Y14725681D02*
X68553952Y14773300D01*
X68553952Y14773300D02*
X68506333Y14820920D01*
X69982523Y15725681D02*
X69792047Y15725681D01*
X69792047Y15725681D02*
X69696809Y15678062D01*
X69696809Y15678062D02*
X69649190Y15630443D01*
X69649190Y15630443D02*
X69553952Y15487586D01*
X69553952Y15487586D02*
X69506333Y15297110D01*
X69506333Y15297110D02*
X69506333Y14916158D01*
X69506333Y14916158D02*
X69553952Y14820920D01*
X69553952Y14820920D02*
X69601571Y14773300D01*
X69601571Y14773300D02*
X69696809Y14725681D01*
X69696809Y14725681D02*
X69887285Y14725681D01*
X69887285Y14725681D02*
X69982523Y14773300D01*
X69982523Y14773300D02*
X70030142Y14820920D01*
X70030142Y14820920D02*
X70077761Y14916158D01*
X70077761Y14916158D02*
X70077761Y15154253D01*
X70077761Y15154253D02*
X70030142Y15249491D01*
X70030142Y15249491D02*
X69982523Y15297110D01*
X69982523Y15297110D02*
X69887285Y15344729D01*
X69887285Y15344729D02*
X69696809Y15344729D01*
X69696809Y15344729D02*
X69601571Y15297110D01*
X69601571Y15297110D02*
X69553952Y15249491D01*
X69553952Y15249491D02*
X69506333Y15154253D01*
X70696809Y15725681D02*
X70792047Y15725681D01*
X70792047Y15725681D02*
X70887285Y15678062D01*
X70887285Y15678062D02*
X70934904Y15630443D01*
X70934904Y15630443D02*
X70982523Y15535205D01*
X70982523Y15535205D02*
X71030142Y15344729D01*
X71030142Y15344729D02*
X71030142Y15106634D01*
X71030142Y15106634D02*
X70982523Y14916158D01*
X70982523Y14916158D02*
X70934904Y14820920D01*
X70934904Y14820920D02*
X70887285Y14773300D01*
X70887285Y14773300D02*
X70792047Y14725681D01*
X70792047Y14725681D02*
X70696809Y14725681D01*
X70696809Y14725681D02*
X70601571Y14773300D01*
X70601571Y14773300D02*
X70553952Y14820920D01*
X70553952Y14820920D02*
X70506333Y14916158D01*
X70506333Y14916158D02*
X70458714Y15106634D01*
X70458714Y15106634D02*
X70458714Y15344729D01*
X70458714Y15344729D02*
X70506333Y15535205D01*
X70506333Y15535205D02*
X70553952Y15630443D01*
X70553952Y15630443D02*
X70601571Y15678062D01*
X70601571Y15678062D02*
X70696809Y15725681D01*
X60834904Y4059491D02*
X60977761Y4011872D01*
X60977761Y4011872D02*
X61025380Y3964253D01*
X61025380Y3964253D02*
X61072999Y3869015D01*
X61072999Y3869015D02*
X61072999Y3726158D01*
X61072999Y3726158D02*
X61025380Y3630920D01*
X61025380Y3630920D02*
X60977761Y3583300D01*
X60977761Y3583300D02*
X60882523Y3535681D01*
X60882523Y3535681D02*
X60501571Y3535681D01*
X60501571Y3535681D02*
X60501571Y4535681D01*
X60501571Y4535681D02*
X60834904Y4535681D01*
X60834904Y4535681D02*
X60930142Y4488062D01*
X60930142Y4488062D02*
X60977761Y4440443D01*
X60977761Y4440443D02*
X61025380Y4345205D01*
X61025380Y4345205D02*
X61025380Y4249967D01*
X61025380Y4249967D02*
X60977761Y4154729D01*
X60977761Y4154729D02*
X60930142Y4107110D01*
X60930142Y4107110D02*
X60834904Y4059491D01*
X60834904Y4059491D02*
X60501571Y4059491D01*
X61453952Y3821396D02*
X61930142Y3821396D01*
X61358714Y3535681D02*
X61692047Y4535681D01*
X61692047Y4535681D02*
X62025380Y3535681D01*
X62215857Y4535681D02*
X62787285Y4535681D01*
X62501571Y3535681D02*
X62501571Y4535681D01*
X90250380Y12485681D02*
X89917047Y12961872D01*
X89678952Y12485681D02*
X89678952Y13485681D01*
X89678952Y13485681D02*
X90059904Y13485681D01*
X90059904Y13485681D02*
X90155142Y13438062D01*
X90155142Y13438062D02*
X90202761Y13390443D01*
X90202761Y13390443D02*
X90250380Y13295205D01*
X90250380Y13295205D02*
X90250380Y13152348D01*
X90250380Y13152348D02*
X90202761Y13057110D01*
X90202761Y13057110D02*
X90155142Y13009491D01*
X90155142Y13009491D02*
X90059904Y12961872D01*
X90059904Y12961872D02*
X89678952Y12961872D01*
X90631333Y12533300D02*
X90774190Y12485681D01*
X90774190Y12485681D02*
X91012285Y12485681D01*
X91012285Y12485681D02*
X91107523Y12533300D01*
X91107523Y12533300D02*
X91155142Y12580920D01*
X91155142Y12580920D02*
X91202761Y12676158D01*
X91202761Y12676158D02*
X91202761Y12771396D01*
X91202761Y12771396D02*
X91155142Y12866634D01*
X91155142Y12866634D02*
X91107523Y12914253D01*
X91107523Y12914253D02*
X91012285Y12961872D01*
X91012285Y12961872D02*
X90821809Y13009491D01*
X90821809Y13009491D02*
X90726571Y13057110D01*
X90726571Y13057110D02*
X90678952Y13104729D01*
X90678952Y13104729D02*
X90631333Y13199967D01*
X90631333Y13199967D02*
X90631333Y13295205D01*
X90631333Y13295205D02*
X90678952Y13390443D01*
X90678952Y13390443D02*
X90726571Y13438062D01*
X90726571Y13438062D02*
X90821809Y13485681D01*
X90821809Y13485681D02*
X91059904Y13485681D01*
X91059904Y13485681D02*
X91202761Y13438062D01*
X91488476Y13485681D02*
X92059904Y13485681D01*
X91774190Y12485681D02*
X91774190Y13485681D01*
X107034904Y3859491D02*
X107177761Y3811872D01*
X107177761Y3811872D02*
X107225380Y3764253D01*
X107225380Y3764253D02*
X107272999Y3669015D01*
X107272999Y3669015D02*
X107272999Y3526158D01*
X107272999Y3526158D02*
X107225380Y3430920D01*
X107225380Y3430920D02*
X107177761Y3383300D01*
X107177761Y3383300D02*
X107082523Y3335681D01*
X107082523Y3335681D02*
X106701571Y3335681D01*
X106701571Y3335681D02*
X106701571Y4335681D01*
X106701571Y4335681D02*
X107034904Y4335681D01*
X107034904Y4335681D02*
X107130142Y4288062D01*
X107130142Y4288062D02*
X107177761Y4240443D01*
X107177761Y4240443D02*
X107225380Y4145205D01*
X107225380Y4145205D02*
X107225380Y4049967D01*
X107225380Y4049967D02*
X107177761Y3954729D01*
X107177761Y3954729D02*
X107130142Y3907110D01*
X107130142Y3907110D02*
X107034904Y3859491D01*
X107034904Y3859491D02*
X106701571Y3859491D01*
X107653952Y3621396D02*
X108130142Y3621396D01*
X107558714Y3335681D02*
X107892047Y4335681D01*
X107892047Y4335681D02*
X108225380Y3335681D01*
X108415857Y4335681D02*
X108987285Y4335681D01*
X108701571Y3335681D02*
X108701571Y4335681D01*
X77475380Y12860681D02*
X77142047Y13336872D01*
X76903952Y12860681D02*
X76903952Y13860681D01*
X76903952Y13860681D02*
X77284904Y13860681D01*
X77284904Y13860681D02*
X77380142Y13813062D01*
X77380142Y13813062D02*
X77427761Y13765443D01*
X77427761Y13765443D02*
X77475380Y13670205D01*
X77475380Y13670205D02*
X77475380Y13527348D01*
X77475380Y13527348D02*
X77427761Y13432110D01*
X77427761Y13432110D02*
X77380142Y13384491D01*
X77380142Y13384491D02*
X77284904Y13336872D01*
X77284904Y13336872D02*
X76903952Y13336872D01*
X77856333Y12908300D02*
X77999190Y12860681D01*
X77999190Y12860681D02*
X78237285Y12860681D01*
X78237285Y12860681D02*
X78332523Y12908300D01*
X78332523Y12908300D02*
X78380142Y12955920D01*
X78380142Y12955920D02*
X78427761Y13051158D01*
X78427761Y13051158D02*
X78427761Y13146396D01*
X78427761Y13146396D02*
X78380142Y13241634D01*
X78380142Y13241634D02*
X78332523Y13289253D01*
X78332523Y13289253D02*
X78237285Y13336872D01*
X78237285Y13336872D02*
X78046809Y13384491D01*
X78046809Y13384491D02*
X77951571Y13432110D01*
X77951571Y13432110D02*
X77903952Y13479729D01*
X77903952Y13479729D02*
X77856333Y13574967D01*
X77856333Y13574967D02*
X77856333Y13670205D01*
X77856333Y13670205D02*
X77903952Y13765443D01*
X77903952Y13765443D02*
X77951571Y13813062D01*
X77951571Y13813062D02*
X78046809Y13860681D01*
X78046809Y13860681D02*
X78284904Y13860681D01*
X78284904Y13860681D02*
X78427761Y13813062D01*
X78713476Y13860681D02*
X79284904Y13860681D01*
X78999190Y12860681D02*
X78999190Y13860681D01*
X95665809Y33938205D02*
X95741999Y33938205D01*
X95741999Y33938205D02*
X95818190Y33900110D01*
X95818190Y33900110D02*
X95856285Y33862015D01*
X95856285Y33862015D02*
X95894380Y33785824D01*
X95894380Y33785824D02*
X95932475Y33633443D01*
X95932475Y33633443D02*
X95932475Y33442967D01*
X95932475Y33442967D02*
X95894380Y33290586D01*
X95894380Y33290586D02*
X95856285Y33214396D01*
X95856285Y33214396D02*
X95818190Y33176300D01*
X95818190Y33176300D02*
X95741999Y33138205D01*
X95741999Y33138205D02*
X95665809Y33138205D01*
X95665809Y33138205D02*
X95589618Y33176300D01*
X95589618Y33176300D02*
X95551523Y33214396D01*
X95551523Y33214396D02*
X95513428Y33290586D01*
X95513428Y33290586D02*
X95475332Y33442967D01*
X95475332Y33442967D02*
X95475332Y33633443D01*
X95475332Y33633443D02*
X95513428Y33785824D01*
X95513428Y33785824D02*
X95551523Y33862015D01*
X95551523Y33862015D02*
X95589618Y33900110D01*
X95589618Y33900110D02*
X95665809Y33938205D01*
X96427714Y33938205D02*
X96503904Y33938205D01*
X96503904Y33938205D02*
X96580095Y33900110D01*
X96580095Y33900110D02*
X96618190Y33862015D01*
X96618190Y33862015D02*
X96656285Y33785824D01*
X96656285Y33785824D02*
X96694380Y33633443D01*
X96694380Y33633443D02*
X96694380Y33442967D01*
X96694380Y33442967D02*
X96656285Y33290586D01*
X96656285Y33290586D02*
X96618190Y33214396D01*
X96618190Y33214396D02*
X96580095Y33176300D01*
X96580095Y33176300D02*
X96503904Y33138205D01*
X96503904Y33138205D02*
X96427714Y33138205D01*
X96427714Y33138205D02*
X96351523Y33176300D01*
X96351523Y33176300D02*
X96313428Y33214396D01*
X96313428Y33214396D02*
X96275333Y33290586D01*
X96275333Y33290586D02*
X96237237Y33442967D01*
X96237237Y33442967D02*
X96237237Y33633443D01*
X96237237Y33633443D02*
X96275333Y33785824D01*
X96275333Y33785824D02*
X96313428Y33862015D01*
X96313428Y33862015D02*
X96351523Y33900110D01*
X96351523Y33900110D02*
X96427714Y33938205D01*
X96999142Y33862015D02*
X97037238Y33900110D01*
X97037238Y33900110D02*
X97113428Y33938205D01*
X97113428Y33938205D02*
X97303904Y33938205D01*
X97303904Y33938205D02*
X97380095Y33900110D01*
X97380095Y33900110D02*
X97418190Y33862015D01*
X97418190Y33862015D02*
X97456285Y33785824D01*
X97456285Y33785824D02*
X97456285Y33709634D01*
X97456285Y33709634D02*
X97418190Y33595348D01*
X97418190Y33595348D02*
X96961047Y33138205D01*
X96961047Y33138205D02*
X97456285Y33138205D01*
X106740190Y39018205D02*
X106816380Y39018205D01*
X106816380Y39018205D02*
X106892571Y38980110D01*
X106892571Y38980110D02*
X106930666Y38942015D01*
X106930666Y38942015D02*
X106968761Y38865824D01*
X106968761Y38865824D02*
X107006856Y38713443D01*
X107006856Y38713443D02*
X107006856Y38522967D01*
X107006856Y38522967D02*
X106968761Y38370586D01*
X106968761Y38370586D02*
X106930666Y38294396D01*
X106930666Y38294396D02*
X106892571Y38256300D01*
X106892571Y38256300D02*
X106816380Y38218205D01*
X106816380Y38218205D02*
X106740190Y38218205D01*
X106740190Y38218205D02*
X106663999Y38256300D01*
X106663999Y38256300D02*
X106625904Y38294396D01*
X106625904Y38294396D02*
X106587809Y38370586D01*
X106587809Y38370586D02*
X106549713Y38522967D01*
X106549713Y38522967D02*
X106549713Y38713443D01*
X106549713Y38713443D02*
X106587809Y38865824D01*
X106587809Y38865824D02*
X106625904Y38942015D01*
X106625904Y38942015D02*
X106663999Y38980110D01*
X106663999Y38980110D02*
X106740190Y39018205D01*
X107768761Y38218205D02*
X107311618Y38218205D01*
X107540190Y38218205D02*
X107540190Y39018205D01*
X107540190Y39018205D02*
X107463999Y38903920D01*
X107463999Y38903920D02*
X107387809Y38827729D01*
X107387809Y38827729D02*
X107311618Y38789634D01*
X108035428Y39018205D02*
X108568762Y39018205D01*
X108568762Y39018205D02*
X108225904Y38218205D01*
X96164904Y51247253D02*
X96279190Y51209158D01*
X96279190Y51209158D02*
X96317285Y51171062D01*
X96317285Y51171062D02*
X96355381Y51094872D01*
X96355381Y51094872D02*
X96355381Y50980586D01*
X96355381Y50980586D02*
X96317285Y50904396D01*
X96317285Y50904396D02*
X96279190Y50866300D01*
X96279190Y50866300D02*
X96203000Y50828205D01*
X96203000Y50828205D02*
X95898238Y50828205D01*
X95898238Y50828205D02*
X95898238Y51628205D01*
X95898238Y51628205D02*
X96164904Y51628205D01*
X96164904Y51628205D02*
X96241095Y51590110D01*
X96241095Y51590110D02*
X96279190Y51552015D01*
X96279190Y51552015D02*
X96317285Y51475824D01*
X96317285Y51475824D02*
X96317285Y51399634D01*
X96317285Y51399634D02*
X96279190Y51323443D01*
X96279190Y51323443D02*
X96241095Y51285348D01*
X96241095Y51285348D02*
X96164904Y51247253D01*
X96164904Y51247253D02*
X95898238Y51247253D01*
X96698238Y51132967D02*
X97307762Y51132967D01*
X97003000Y50828205D02*
X97003000Y51437729D01*
X95976904Y48378205D02*
X95710237Y48759158D01*
X95519761Y48378205D02*
X95519761Y49178205D01*
X95519761Y49178205D02*
X95824523Y49178205D01*
X95824523Y49178205D02*
X95900713Y49140110D01*
X95900713Y49140110D02*
X95938808Y49102015D01*
X95938808Y49102015D02*
X95976904Y49025824D01*
X95976904Y49025824D02*
X95976904Y48911539D01*
X95976904Y48911539D02*
X95938808Y48835348D01*
X95938808Y48835348D02*
X95900713Y48797253D01*
X95900713Y48797253D02*
X95824523Y48759158D01*
X95824523Y48759158D02*
X95519761Y48759158D01*
X96281665Y48606777D02*
X96662618Y48606777D01*
X96205475Y48378205D02*
X96472142Y49178205D01*
X96472142Y49178205D02*
X96738808Y48378205D01*
X96929284Y49178205D02*
X97119760Y48378205D01*
X97119760Y48378205D02*
X97272141Y48949634D01*
X97272141Y48949634D02*
X97424522Y48378205D01*
X97424522Y48378205D02*
X97614999Y49178205D01*
X95976905Y43298205D02*
X95710238Y43679158D01*
X95519762Y43298205D02*
X95519762Y44098205D01*
X95519762Y44098205D02*
X95824524Y44098205D01*
X95824524Y44098205D02*
X95900714Y44060110D01*
X95900714Y44060110D02*
X95938809Y44022015D01*
X95938809Y44022015D02*
X95976905Y43945824D01*
X95976905Y43945824D02*
X95976905Y43831539D01*
X95976905Y43831539D02*
X95938809Y43755348D01*
X95938809Y43755348D02*
X95900714Y43717253D01*
X95900714Y43717253D02*
X95824524Y43679158D01*
X95824524Y43679158D02*
X95519762Y43679158D01*
X96281666Y43336300D02*
X96395952Y43298205D01*
X96395952Y43298205D02*
X96586428Y43298205D01*
X96586428Y43298205D02*
X96662619Y43336300D01*
X96662619Y43336300D02*
X96700714Y43374396D01*
X96700714Y43374396D02*
X96738809Y43450586D01*
X96738809Y43450586D02*
X96738809Y43526777D01*
X96738809Y43526777D02*
X96700714Y43602967D01*
X96700714Y43602967D02*
X96662619Y43641062D01*
X96662619Y43641062D02*
X96586428Y43679158D01*
X96586428Y43679158D02*
X96434047Y43717253D01*
X96434047Y43717253D02*
X96357857Y43755348D01*
X96357857Y43755348D02*
X96319762Y43793443D01*
X96319762Y43793443D02*
X96281666Y43869634D01*
X96281666Y43869634D02*
X96281666Y43945824D01*
X96281666Y43945824D02*
X96319762Y44022015D01*
X96319762Y44022015D02*
X96357857Y44060110D01*
X96357857Y44060110D02*
X96434047Y44098205D01*
X96434047Y44098205D02*
X96624524Y44098205D01*
X96624524Y44098205D02*
X96738809Y44060110D01*
X96967381Y44098205D02*
X97424524Y44098205D01*
X97195952Y43298205D02*
X97195952Y44098205D01*
X95938809Y46600110D02*
X95862619Y46638205D01*
X95862619Y46638205D02*
X95748333Y46638205D01*
X95748333Y46638205D02*
X95634047Y46600110D01*
X95634047Y46600110D02*
X95557857Y46523920D01*
X95557857Y46523920D02*
X95519762Y46447729D01*
X95519762Y46447729D02*
X95481666Y46295348D01*
X95481666Y46295348D02*
X95481666Y46181062D01*
X95481666Y46181062D02*
X95519762Y46028681D01*
X95519762Y46028681D02*
X95557857Y45952491D01*
X95557857Y45952491D02*
X95634047Y45876300D01*
X95634047Y45876300D02*
X95748333Y45838205D01*
X95748333Y45838205D02*
X95824524Y45838205D01*
X95824524Y45838205D02*
X95938809Y45876300D01*
X95938809Y45876300D02*
X95976905Y45914396D01*
X95976905Y45914396D02*
X95976905Y46181062D01*
X95976905Y46181062D02*
X95824524Y46181062D01*
X96319762Y45838205D02*
X96319762Y46638205D01*
X96319762Y46638205D02*
X96776905Y45838205D01*
X96776905Y45838205D02*
X96776905Y46638205D01*
X97157857Y45838205D02*
X97157857Y46638205D01*
X97157857Y46638205D02*
X97348333Y46638205D01*
X97348333Y46638205D02*
X97462619Y46600110D01*
X97462619Y46600110D02*
X97538809Y46523920D01*
X97538809Y46523920D02*
X97576904Y46447729D01*
X97576904Y46447729D02*
X97615000Y46295348D01*
X97615000Y46295348D02*
X97615000Y46181062D01*
X97615000Y46181062D02*
X97576904Y46028681D01*
X97576904Y46028681D02*
X97538809Y45952491D01*
X97538809Y45952491D02*
X97462619Y45876300D01*
X97462619Y45876300D02*
X97348333Y45838205D01*
X97348333Y45838205D02*
X97157857Y45838205D01*
X95665809Y36478205D02*
X95741999Y36478205D01*
X95741999Y36478205D02*
X95818190Y36440110D01*
X95818190Y36440110D02*
X95856285Y36402015D01*
X95856285Y36402015D02*
X95894380Y36325824D01*
X95894380Y36325824D02*
X95932475Y36173443D01*
X95932475Y36173443D02*
X95932475Y35982967D01*
X95932475Y35982967D02*
X95894380Y35830586D01*
X95894380Y35830586D02*
X95856285Y35754396D01*
X95856285Y35754396D02*
X95818190Y35716300D01*
X95818190Y35716300D02*
X95741999Y35678205D01*
X95741999Y35678205D02*
X95665809Y35678205D01*
X95665809Y35678205D02*
X95589618Y35716300D01*
X95589618Y35716300D02*
X95551523Y35754396D01*
X95551523Y35754396D02*
X95513428Y35830586D01*
X95513428Y35830586D02*
X95475332Y35982967D01*
X95475332Y35982967D02*
X95475332Y36173443D01*
X95475332Y36173443D02*
X95513428Y36325824D01*
X95513428Y36325824D02*
X95551523Y36402015D01*
X95551523Y36402015D02*
X95589618Y36440110D01*
X95589618Y36440110D02*
X95665809Y36478205D01*
X96237237Y36402015D02*
X96275333Y36440110D01*
X96275333Y36440110D02*
X96351523Y36478205D01*
X96351523Y36478205D02*
X96541999Y36478205D01*
X96541999Y36478205D02*
X96618190Y36440110D01*
X96618190Y36440110D02*
X96656285Y36402015D01*
X96656285Y36402015D02*
X96694380Y36325824D01*
X96694380Y36325824D02*
X96694380Y36249634D01*
X96694380Y36249634D02*
X96656285Y36135348D01*
X96656285Y36135348D02*
X96199142Y35678205D01*
X96199142Y35678205D02*
X96694380Y35678205D01*
X97075333Y35678205D02*
X97227714Y35678205D01*
X97227714Y35678205D02*
X97303904Y35716300D01*
X97303904Y35716300D02*
X97342000Y35754396D01*
X97342000Y35754396D02*
X97418190Y35868681D01*
X97418190Y35868681D02*
X97456285Y36021062D01*
X97456285Y36021062D02*
X97456285Y36325824D01*
X97456285Y36325824D02*
X97418190Y36402015D01*
X97418190Y36402015D02*
X97380095Y36440110D01*
X97380095Y36440110D02*
X97303904Y36478205D01*
X97303904Y36478205D02*
X97151523Y36478205D01*
X97151523Y36478205D02*
X97075333Y36440110D01*
X97075333Y36440110D02*
X97037238Y36402015D01*
X97037238Y36402015D02*
X96999142Y36325824D01*
X96999142Y36325824D02*
X96999142Y36135348D01*
X96999142Y36135348D02*
X97037238Y36059158D01*
X97037238Y36059158D02*
X97075333Y36021062D01*
X97075333Y36021062D02*
X97151523Y35982967D01*
X97151523Y35982967D02*
X97303904Y35982967D01*
X97303904Y35982967D02*
X97380095Y36021062D01*
X97380095Y36021062D02*
X97418190Y36059158D01*
X97418190Y36059158D02*
X97456285Y36135348D01*
X106854476Y44060110D02*
X106778286Y44098205D01*
X106778286Y44098205D02*
X106664000Y44098205D01*
X106664000Y44098205D02*
X106549714Y44060110D01*
X106549714Y44060110D02*
X106473524Y43983920D01*
X106473524Y43983920D02*
X106435429Y43907729D01*
X106435429Y43907729D02*
X106397333Y43755348D01*
X106397333Y43755348D02*
X106397333Y43641062D01*
X106397333Y43641062D02*
X106435429Y43488681D01*
X106435429Y43488681D02*
X106473524Y43412491D01*
X106473524Y43412491D02*
X106549714Y43336300D01*
X106549714Y43336300D02*
X106664000Y43298205D01*
X106664000Y43298205D02*
X106740191Y43298205D01*
X106740191Y43298205D02*
X106854476Y43336300D01*
X106854476Y43336300D02*
X106892572Y43374396D01*
X106892572Y43374396D02*
X106892572Y43641062D01*
X106892572Y43641062D02*
X106740191Y43641062D01*
X107235429Y43298205D02*
X107235429Y44098205D01*
X107235429Y44098205D02*
X107692572Y43298205D01*
X107692572Y43298205D02*
X107692572Y44098205D01*
X108073524Y43298205D02*
X108073524Y44098205D01*
X108073524Y44098205D02*
X108264000Y44098205D01*
X108264000Y44098205D02*
X108378286Y44060110D01*
X108378286Y44060110D02*
X108454476Y43983920D01*
X108454476Y43983920D02*
X108492571Y43907729D01*
X108492571Y43907729D02*
X108530667Y43755348D01*
X108530667Y43755348D02*
X108530667Y43641062D01*
X108530667Y43641062D02*
X108492571Y43488681D01*
X108492571Y43488681D02*
X108454476Y43412491D01*
X108454476Y43412491D02*
X108378286Y43336300D01*
X108378286Y43336300D02*
X108264000Y43298205D01*
X108264000Y43298205D02*
X108073524Y43298205D01*
X107484904Y50547253D02*
X107599190Y50509158D01*
X107599190Y50509158D02*
X107637285Y50471062D01*
X107637285Y50471062D02*
X107675381Y50394872D01*
X107675381Y50394872D02*
X107675381Y50280586D01*
X107675381Y50280586D02*
X107637285Y50204396D01*
X107637285Y50204396D02*
X107599190Y50166300D01*
X107599190Y50166300D02*
X107523000Y50128205D01*
X107523000Y50128205D02*
X107218238Y50128205D01*
X107218238Y50128205D02*
X107218238Y50928205D01*
X107218238Y50928205D02*
X107484904Y50928205D01*
X107484904Y50928205D02*
X107561095Y50890110D01*
X107561095Y50890110D02*
X107599190Y50852015D01*
X107599190Y50852015D02*
X107637285Y50775824D01*
X107637285Y50775824D02*
X107637285Y50699634D01*
X107637285Y50699634D02*
X107599190Y50623443D01*
X107599190Y50623443D02*
X107561095Y50585348D01*
X107561095Y50585348D02*
X107484904Y50547253D01*
X107484904Y50547253D02*
X107218238Y50547253D01*
X108018238Y50432967D02*
X108627762Y50432967D01*
X95932475Y30598205D02*
X95475332Y30598205D01*
X95703904Y30598205D02*
X95703904Y31398205D01*
X95703904Y31398205D02*
X95627713Y31283920D01*
X95627713Y31283920D02*
X95551523Y31207729D01*
X95551523Y31207729D02*
X95475332Y31169634D01*
X96694380Y30598205D02*
X96237237Y30598205D01*
X96465809Y30598205D02*
X96465809Y31398205D01*
X96465809Y31398205D02*
X96389618Y31283920D01*
X96389618Y31283920D02*
X96313428Y31207729D01*
X96313428Y31207729D02*
X96237237Y31169634D01*
X97418190Y31398205D02*
X97037238Y31398205D01*
X97037238Y31398205D02*
X96999142Y31017253D01*
X96999142Y31017253D02*
X97037238Y31055348D01*
X97037238Y31055348D02*
X97113428Y31093443D01*
X97113428Y31093443D02*
X97303904Y31093443D01*
X97303904Y31093443D02*
X97380095Y31055348D01*
X97380095Y31055348D02*
X97418190Y31017253D01*
X97418190Y31017253D02*
X97456285Y30941062D01*
X97456285Y30941062D02*
X97456285Y30750586D01*
X97456285Y30750586D02*
X97418190Y30674396D01*
X97418190Y30674396D02*
X97380095Y30636300D01*
X97380095Y30636300D02*
X97303904Y30598205D01*
X97303904Y30598205D02*
X97113428Y30598205D01*
X97113428Y30598205D02*
X97037238Y30636300D01*
X97037238Y30636300D02*
X96999142Y30674396D01*
X106740190Y46708205D02*
X106816380Y46708205D01*
X106816380Y46708205D02*
X106892571Y46670110D01*
X106892571Y46670110D02*
X106930666Y46632015D01*
X106930666Y46632015D02*
X106968761Y46555824D01*
X106968761Y46555824D02*
X107006856Y46403443D01*
X107006856Y46403443D02*
X107006856Y46212967D01*
X107006856Y46212967D02*
X106968761Y46060586D01*
X106968761Y46060586D02*
X106930666Y45984396D01*
X106930666Y45984396D02*
X106892571Y45946300D01*
X106892571Y45946300D02*
X106816380Y45908205D01*
X106816380Y45908205D02*
X106740190Y45908205D01*
X106740190Y45908205D02*
X106663999Y45946300D01*
X106663999Y45946300D02*
X106625904Y45984396D01*
X106625904Y45984396D02*
X106587809Y46060586D01*
X106587809Y46060586D02*
X106549713Y46212967D01*
X106549713Y46212967D02*
X106549713Y46403443D01*
X106549713Y46403443D02*
X106587809Y46555824D01*
X106587809Y46555824D02*
X106625904Y46632015D01*
X106625904Y46632015D02*
X106663999Y46670110D01*
X106663999Y46670110D02*
X106740190Y46708205D01*
X107502095Y46708205D02*
X107578285Y46708205D01*
X107578285Y46708205D02*
X107654476Y46670110D01*
X107654476Y46670110D02*
X107692571Y46632015D01*
X107692571Y46632015D02*
X107730666Y46555824D01*
X107730666Y46555824D02*
X107768761Y46403443D01*
X107768761Y46403443D02*
X107768761Y46212967D01*
X107768761Y46212967D02*
X107730666Y46060586D01*
X107730666Y46060586D02*
X107692571Y45984396D01*
X107692571Y45984396D02*
X107654476Y45946300D01*
X107654476Y45946300D02*
X107578285Y45908205D01*
X107578285Y45908205D02*
X107502095Y45908205D01*
X107502095Y45908205D02*
X107425904Y45946300D01*
X107425904Y45946300D02*
X107387809Y45984396D01*
X107387809Y45984396D02*
X107349714Y46060586D01*
X107349714Y46060586D02*
X107311618Y46212967D01*
X107311618Y46212967D02*
X107311618Y46403443D01*
X107311618Y46403443D02*
X107349714Y46555824D01*
X107349714Y46555824D02*
X107387809Y46632015D01*
X107387809Y46632015D02*
X107425904Y46670110D01*
X107425904Y46670110D02*
X107502095Y46708205D01*
X108225904Y46365348D02*
X108149714Y46403443D01*
X108149714Y46403443D02*
X108111619Y46441539D01*
X108111619Y46441539D02*
X108073523Y46517729D01*
X108073523Y46517729D02*
X108073523Y46555824D01*
X108073523Y46555824D02*
X108111619Y46632015D01*
X108111619Y46632015D02*
X108149714Y46670110D01*
X108149714Y46670110D02*
X108225904Y46708205D01*
X108225904Y46708205D02*
X108378285Y46708205D01*
X108378285Y46708205D02*
X108454476Y46670110D01*
X108454476Y46670110D02*
X108492571Y46632015D01*
X108492571Y46632015D02*
X108530666Y46555824D01*
X108530666Y46555824D02*
X108530666Y46517729D01*
X108530666Y46517729D02*
X108492571Y46441539D01*
X108492571Y46441539D02*
X108454476Y46403443D01*
X108454476Y46403443D02*
X108378285Y46365348D01*
X108378285Y46365348D02*
X108225904Y46365348D01*
X108225904Y46365348D02*
X108149714Y46327253D01*
X108149714Y46327253D02*
X108111619Y46289158D01*
X108111619Y46289158D02*
X108073523Y46212967D01*
X108073523Y46212967D02*
X108073523Y46060586D01*
X108073523Y46060586D02*
X108111619Y45984396D01*
X108111619Y45984396D02*
X108149714Y45946300D01*
X108149714Y45946300D02*
X108225904Y45908205D01*
X108225904Y45908205D02*
X108378285Y45908205D01*
X108378285Y45908205D02*
X108454476Y45946300D01*
X108454476Y45946300D02*
X108492571Y45984396D01*
X108492571Y45984396D02*
X108530666Y46060586D01*
X108530666Y46060586D02*
X108530666Y46212967D01*
X108530666Y46212967D02*
X108492571Y46289158D01*
X108492571Y46289158D02*
X108454476Y46327253D01*
X108454476Y46327253D02*
X108378285Y46365348D01*
X95665809Y23778205D02*
X95741999Y23778205D01*
X95741999Y23778205D02*
X95818190Y23740110D01*
X95818190Y23740110D02*
X95856285Y23702015D01*
X95856285Y23702015D02*
X95894380Y23625824D01*
X95894380Y23625824D02*
X95932475Y23473443D01*
X95932475Y23473443D02*
X95932475Y23282967D01*
X95932475Y23282967D02*
X95894380Y23130586D01*
X95894380Y23130586D02*
X95856285Y23054396D01*
X95856285Y23054396D02*
X95818190Y23016300D01*
X95818190Y23016300D02*
X95741999Y22978205D01*
X95741999Y22978205D02*
X95665809Y22978205D01*
X95665809Y22978205D02*
X95589618Y23016300D01*
X95589618Y23016300D02*
X95551523Y23054396D01*
X95551523Y23054396D02*
X95513428Y23130586D01*
X95513428Y23130586D02*
X95475332Y23282967D01*
X95475332Y23282967D02*
X95475332Y23473443D01*
X95475332Y23473443D02*
X95513428Y23625824D01*
X95513428Y23625824D02*
X95551523Y23702015D01*
X95551523Y23702015D02*
X95589618Y23740110D01*
X95589618Y23740110D02*
X95665809Y23778205D01*
X96694380Y22978205D02*
X96237237Y22978205D01*
X96465809Y22978205D02*
X96465809Y23778205D01*
X96465809Y23778205D02*
X96389618Y23663920D01*
X96389618Y23663920D02*
X96313428Y23587729D01*
X96313428Y23587729D02*
X96237237Y23549634D01*
X97189619Y23778205D02*
X97265809Y23778205D01*
X97265809Y23778205D02*
X97342000Y23740110D01*
X97342000Y23740110D02*
X97380095Y23702015D01*
X97380095Y23702015D02*
X97418190Y23625824D01*
X97418190Y23625824D02*
X97456285Y23473443D01*
X97456285Y23473443D02*
X97456285Y23282967D01*
X97456285Y23282967D02*
X97418190Y23130586D01*
X97418190Y23130586D02*
X97380095Y23054396D01*
X97380095Y23054396D02*
X97342000Y23016300D01*
X97342000Y23016300D02*
X97265809Y22978205D01*
X97265809Y22978205D02*
X97189619Y22978205D01*
X97189619Y22978205D02*
X97113428Y23016300D01*
X97113428Y23016300D02*
X97075333Y23054396D01*
X97075333Y23054396D02*
X97037238Y23130586D01*
X97037238Y23130586D02*
X96999142Y23282967D01*
X96999142Y23282967D02*
X96999142Y23473443D01*
X96999142Y23473443D02*
X97037238Y23625824D01*
X97037238Y23625824D02*
X97075333Y23702015D01*
X97075333Y23702015D02*
X97113428Y23740110D01*
X97113428Y23740110D02*
X97189619Y23778205D01*
X106740190Y31408205D02*
X106816380Y31408205D01*
X106816380Y31408205D02*
X106892571Y31370110D01*
X106892571Y31370110D02*
X106930666Y31332015D01*
X106930666Y31332015D02*
X106968761Y31255824D01*
X106968761Y31255824D02*
X107006856Y31103443D01*
X107006856Y31103443D02*
X107006856Y30912967D01*
X107006856Y30912967D02*
X106968761Y30760586D01*
X106968761Y30760586D02*
X106930666Y30684396D01*
X106930666Y30684396D02*
X106892571Y30646300D01*
X106892571Y30646300D02*
X106816380Y30608205D01*
X106816380Y30608205D02*
X106740190Y30608205D01*
X106740190Y30608205D02*
X106663999Y30646300D01*
X106663999Y30646300D02*
X106625904Y30684396D01*
X106625904Y30684396D02*
X106587809Y30760586D01*
X106587809Y30760586D02*
X106549713Y30912967D01*
X106549713Y30912967D02*
X106549713Y31103443D01*
X106549713Y31103443D02*
X106587809Y31255824D01*
X106587809Y31255824D02*
X106625904Y31332015D01*
X106625904Y31332015D02*
X106663999Y31370110D01*
X106663999Y31370110D02*
X106740190Y31408205D01*
X107311618Y31332015D02*
X107349714Y31370110D01*
X107349714Y31370110D02*
X107425904Y31408205D01*
X107425904Y31408205D02*
X107616380Y31408205D01*
X107616380Y31408205D02*
X107692571Y31370110D01*
X107692571Y31370110D02*
X107730666Y31332015D01*
X107730666Y31332015D02*
X107768761Y31255824D01*
X107768761Y31255824D02*
X107768761Y31179634D01*
X107768761Y31179634D02*
X107730666Y31065348D01*
X107730666Y31065348D02*
X107273523Y30608205D01*
X107273523Y30608205D02*
X107768761Y30608205D01*
X108454476Y31141539D02*
X108454476Y30608205D01*
X108264000Y31446300D02*
X108073523Y30874872D01*
X108073523Y30874872D02*
X108568762Y30874872D01*
X95665809Y39018205D02*
X95741999Y39018205D01*
X95741999Y39018205D02*
X95818190Y38980110D01*
X95818190Y38980110D02*
X95856285Y38942015D01*
X95856285Y38942015D02*
X95894380Y38865824D01*
X95894380Y38865824D02*
X95932475Y38713443D01*
X95932475Y38713443D02*
X95932475Y38522967D01*
X95932475Y38522967D02*
X95894380Y38370586D01*
X95894380Y38370586D02*
X95856285Y38294396D01*
X95856285Y38294396D02*
X95818190Y38256300D01*
X95818190Y38256300D02*
X95741999Y38218205D01*
X95741999Y38218205D02*
X95665809Y38218205D01*
X95665809Y38218205D02*
X95589618Y38256300D01*
X95589618Y38256300D02*
X95551523Y38294396D01*
X95551523Y38294396D02*
X95513428Y38370586D01*
X95513428Y38370586D02*
X95475332Y38522967D01*
X95475332Y38522967D02*
X95475332Y38713443D01*
X95475332Y38713443D02*
X95513428Y38865824D01*
X95513428Y38865824D02*
X95551523Y38942015D01*
X95551523Y38942015D02*
X95589618Y38980110D01*
X95589618Y38980110D02*
X95665809Y39018205D01*
X96199142Y39018205D02*
X96694380Y39018205D01*
X96694380Y39018205D02*
X96427714Y38713443D01*
X96427714Y38713443D02*
X96541999Y38713443D01*
X96541999Y38713443D02*
X96618190Y38675348D01*
X96618190Y38675348D02*
X96656285Y38637253D01*
X96656285Y38637253D02*
X96694380Y38561062D01*
X96694380Y38561062D02*
X96694380Y38370586D01*
X96694380Y38370586D02*
X96656285Y38294396D01*
X96656285Y38294396D02*
X96618190Y38256300D01*
X96618190Y38256300D02*
X96541999Y38218205D01*
X96541999Y38218205D02*
X96313428Y38218205D01*
X96313428Y38218205D02*
X96237237Y38256300D01*
X96237237Y38256300D02*
X96199142Y38294396D01*
X97456285Y38218205D02*
X96999142Y38218205D01*
X97227714Y38218205D02*
X97227714Y39018205D01*
X97227714Y39018205D02*
X97151523Y38903920D01*
X97151523Y38903920D02*
X97075333Y38827729D01*
X97075333Y38827729D02*
X96999142Y38789634D01*
X95399142Y41558205D02*
X95665809Y40758205D01*
X95665809Y40758205D02*
X95932475Y41558205D01*
X96656285Y40834396D02*
X96618189Y40796300D01*
X96618189Y40796300D02*
X96503904Y40758205D01*
X96503904Y40758205D02*
X96427713Y40758205D01*
X96427713Y40758205D02*
X96313427Y40796300D01*
X96313427Y40796300D02*
X96237237Y40872491D01*
X96237237Y40872491D02*
X96199142Y40948681D01*
X96199142Y40948681D02*
X96161046Y41101062D01*
X96161046Y41101062D02*
X96161046Y41215348D01*
X96161046Y41215348D02*
X96199142Y41367729D01*
X96199142Y41367729D02*
X96237237Y41443920D01*
X96237237Y41443920D02*
X96313427Y41520110D01*
X96313427Y41520110D02*
X96427713Y41558205D01*
X96427713Y41558205D02*
X96503904Y41558205D01*
X96503904Y41558205D02*
X96618189Y41520110D01*
X96618189Y41520110D02*
X96656285Y41482015D01*
X97456285Y40834396D02*
X97418189Y40796300D01*
X97418189Y40796300D02*
X97303904Y40758205D01*
X97303904Y40758205D02*
X97227713Y40758205D01*
X97227713Y40758205D02*
X97113427Y40796300D01*
X97113427Y40796300D02*
X97037237Y40872491D01*
X97037237Y40872491D02*
X96999142Y40948681D01*
X96999142Y40948681D02*
X96961046Y41101062D01*
X96961046Y41101062D02*
X96961046Y41215348D01*
X96961046Y41215348D02*
X96999142Y41367729D01*
X96999142Y41367729D02*
X97037237Y41443920D01*
X97037237Y41443920D02*
X97113427Y41520110D01*
X97113427Y41520110D02*
X97227713Y41558205D01*
X97227713Y41558205D02*
X97303904Y41558205D01*
X97303904Y41558205D02*
X97418189Y41520110D01*
X97418189Y41520110D02*
X97456285Y41482015D01*
X106740190Y49178205D02*
X106816380Y49178205D01*
X106816380Y49178205D02*
X106892571Y49140110D01*
X106892571Y49140110D02*
X106930666Y49102015D01*
X106930666Y49102015D02*
X106968761Y49025824D01*
X106968761Y49025824D02*
X107006856Y48873443D01*
X107006856Y48873443D02*
X107006856Y48682967D01*
X107006856Y48682967D02*
X106968761Y48530586D01*
X106968761Y48530586D02*
X106930666Y48454396D01*
X106930666Y48454396D02*
X106892571Y48416300D01*
X106892571Y48416300D02*
X106816380Y48378205D01*
X106816380Y48378205D02*
X106740190Y48378205D01*
X106740190Y48378205D02*
X106663999Y48416300D01*
X106663999Y48416300D02*
X106625904Y48454396D01*
X106625904Y48454396D02*
X106587809Y48530586D01*
X106587809Y48530586D02*
X106549713Y48682967D01*
X106549713Y48682967D02*
X106549713Y48873443D01*
X106549713Y48873443D02*
X106587809Y49025824D01*
X106587809Y49025824D02*
X106625904Y49102015D01*
X106625904Y49102015D02*
X106663999Y49140110D01*
X106663999Y49140110D02*
X106740190Y49178205D01*
X107502095Y49178205D02*
X107578285Y49178205D01*
X107578285Y49178205D02*
X107654476Y49140110D01*
X107654476Y49140110D02*
X107692571Y49102015D01*
X107692571Y49102015D02*
X107730666Y49025824D01*
X107730666Y49025824D02*
X107768761Y48873443D01*
X107768761Y48873443D02*
X107768761Y48682967D01*
X107768761Y48682967D02*
X107730666Y48530586D01*
X107730666Y48530586D02*
X107692571Y48454396D01*
X107692571Y48454396D02*
X107654476Y48416300D01*
X107654476Y48416300D02*
X107578285Y48378205D01*
X107578285Y48378205D02*
X107502095Y48378205D01*
X107502095Y48378205D02*
X107425904Y48416300D01*
X107425904Y48416300D02*
X107387809Y48454396D01*
X107387809Y48454396D02*
X107349714Y48530586D01*
X107349714Y48530586D02*
X107311618Y48682967D01*
X107311618Y48682967D02*
X107311618Y48873443D01*
X107311618Y48873443D02*
X107349714Y49025824D01*
X107349714Y49025824D02*
X107387809Y49102015D01*
X107387809Y49102015D02*
X107425904Y49140110D01*
X107425904Y49140110D02*
X107502095Y49178205D01*
X108454476Y49178205D02*
X108302095Y49178205D01*
X108302095Y49178205D02*
X108225904Y49140110D01*
X108225904Y49140110D02*
X108187809Y49102015D01*
X108187809Y49102015D02*
X108111619Y48987729D01*
X108111619Y48987729D02*
X108073523Y48835348D01*
X108073523Y48835348D02*
X108073523Y48530586D01*
X108073523Y48530586D02*
X108111619Y48454396D01*
X108111619Y48454396D02*
X108149714Y48416300D01*
X108149714Y48416300D02*
X108225904Y48378205D01*
X108225904Y48378205D02*
X108378285Y48378205D01*
X108378285Y48378205D02*
X108454476Y48416300D01*
X108454476Y48416300D02*
X108492571Y48454396D01*
X108492571Y48454396D02*
X108530666Y48530586D01*
X108530666Y48530586D02*
X108530666Y48721062D01*
X108530666Y48721062D02*
X108492571Y48797253D01*
X108492571Y48797253D02*
X108454476Y48835348D01*
X108454476Y48835348D02*
X108378285Y48873443D01*
X108378285Y48873443D02*
X108225904Y48873443D01*
X108225904Y48873443D02*
X108149714Y48835348D01*
X108149714Y48835348D02*
X108111619Y48797253D01*
X108111619Y48797253D02*
X108073523Y48721062D01*
X107006856Y22978205D02*
X106549713Y22978205D01*
X106778285Y22978205D02*
X106778285Y23778205D01*
X106778285Y23778205D02*
X106702094Y23663920D01*
X106702094Y23663920D02*
X106625904Y23587729D01*
X106625904Y23587729D02*
X106549713Y23549634D01*
X107502095Y23778205D02*
X107578285Y23778205D01*
X107578285Y23778205D02*
X107654476Y23740110D01*
X107654476Y23740110D02*
X107692571Y23702015D01*
X107692571Y23702015D02*
X107730666Y23625824D01*
X107730666Y23625824D02*
X107768761Y23473443D01*
X107768761Y23473443D02*
X107768761Y23282967D01*
X107768761Y23282967D02*
X107730666Y23130586D01*
X107730666Y23130586D02*
X107692571Y23054396D01*
X107692571Y23054396D02*
X107654476Y23016300D01*
X107654476Y23016300D02*
X107578285Y22978205D01*
X107578285Y22978205D02*
X107502095Y22978205D01*
X107502095Y22978205D02*
X107425904Y23016300D01*
X107425904Y23016300D02*
X107387809Y23054396D01*
X107387809Y23054396D02*
X107349714Y23130586D01*
X107349714Y23130586D02*
X107311618Y23282967D01*
X107311618Y23282967D02*
X107311618Y23473443D01*
X107311618Y23473443D02*
X107349714Y23625824D01*
X107349714Y23625824D02*
X107387809Y23702015D01*
X107387809Y23702015D02*
X107425904Y23740110D01*
X107425904Y23740110D02*
X107502095Y23778205D01*
X108454476Y23511539D02*
X108454476Y22978205D01*
X108264000Y23816300D02*
X108073523Y23244872D01*
X108073523Y23244872D02*
X108568762Y23244872D01*
X106854476Y41520110D02*
X106778286Y41558205D01*
X106778286Y41558205D02*
X106664000Y41558205D01*
X106664000Y41558205D02*
X106549714Y41520110D01*
X106549714Y41520110D02*
X106473524Y41443920D01*
X106473524Y41443920D02*
X106435429Y41367729D01*
X106435429Y41367729D02*
X106397333Y41215348D01*
X106397333Y41215348D02*
X106397333Y41101062D01*
X106397333Y41101062D02*
X106435429Y40948681D01*
X106435429Y40948681D02*
X106473524Y40872491D01*
X106473524Y40872491D02*
X106549714Y40796300D01*
X106549714Y40796300D02*
X106664000Y40758205D01*
X106664000Y40758205D02*
X106740191Y40758205D01*
X106740191Y40758205D02*
X106854476Y40796300D01*
X106854476Y40796300D02*
X106892572Y40834396D01*
X106892572Y40834396D02*
X106892572Y41101062D01*
X106892572Y41101062D02*
X106740191Y41101062D01*
X107235429Y40758205D02*
X107235429Y41558205D01*
X107235429Y41558205D02*
X107692572Y40758205D01*
X107692572Y40758205D02*
X107692572Y41558205D01*
X108073524Y40758205D02*
X108073524Y41558205D01*
X108073524Y41558205D02*
X108264000Y41558205D01*
X108264000Y41558205D02*
X108378286Y41520110D01*
X108378286Y41520110D02*
X108454476Y41443920D01*
X108454476Y41443920D02*
X108492571Y41367729D01*
X108492571Y41367729D02*
X108530667Y41215348D01*
X108530667Y41215348D02*
X108530667Y41101062D01*
X108530667Y41101062D02*
X108492571Y40948681D01*
X108492571Y40948681D02*
X108454476Y40872491D01*
X108454476Y40872491D02*
X108378286Y40796300D01*
X108378286Y40796300D02*
X108264000Y40758205D01*
X108264000Y40758205D02*
X108073524Y40758205D01*
X95932475Y25518205D02*
X95475332Y25518205D01*
X95703904Y25518205D02*
X95703904Y26318205D01*
X95703904Y26318205D02*
X95627713Y26203920D01*
X95627713Y26203920D02*
X95551523Y26127729D01*
X95551523Y26127729D02*
X95475332Y26089634D01*
X96694380Y25518205D02*
X96237237Y25518205D01*
X96465809Y25518205D02*
X96465809Y26318205D01*
X96465809Y26318205D02*
X96389618Y26203920D01*
X96389618Y26203920D02*
X96313428Y26127729D01*
X96313428Y26127729D02*
X96237237Y26089634D01*
X97456285Y25518205D02*
X96999142Y25518205D01*
X97227714Y25518205D02*
X97227714Y26318205D01*
X97227714Y26318205D02*
X97151523Y26203920D01*
X97151523Y26203920D02*
X97075333Y26127729D01*
X97075333Y26127729D02*
X96999142Y26089634D01*
X107006856Y28058205D02*
X106549713Y28058205D01*
X106778285Y28058205D02*
X106778285Y28858205D01*
X106778285Y28858205D02*
X106702094Y28743920D01*
X106702094Y28743920D02*
X106625904Y28667729D01*
X106625904Y28667729D02*
X106549713Y28629634D01*
X107502095Y28858205D02*
X107578285Y28858205D01*
X107578285Y28858205D02*
X107654476Y28820110D01*
X107654476Y28820110D02*
X107692571Y28782015D01*
X107692571Y28782015D02*
X107730666Y28705824D01*
X107730666Y28705824D02*
X107768761Y28553443D01*
X107768761Y28553443D02*
X107768761Y28362967D01*
X107768761Y28362967D02*
X107730666Y28210586D01*
X107730666Y28210586D02*
X107692571Y28134396D01*
X107692571Y28134396D02*
X107654476Y28096300D01*
X107654476Y28096300D02*
X107578285Y28058205D01*
X107578285Y28058205D02*
X107502095Y28058205D01*
X107502095Y28058205D02*
X107425904Y28096300D01*
X107425904Y28096300D02*
X107387809Y28134396D01*
X107387809Y28134396D02*
X107349714Y28210586D01*
X107349714Y28210586D02*
X107311618Y28362967D01*
X107311618Y28362967D02*
X107311618Y28553443D01*
X107311618Y28553443D02*
X107349714Y28705824D01*
X107349714Y28705824D02*
X107387809Y28782015D01*
X107387809Y28782015D02*
X107425904Y28820110D01*
X107425904Y28820110D02*
X107502095Y28858205D01*
X108264000Y28858205D02*
X108340190Y28858205D01*
X108340190Y28858205D02*
X108416381Y28820110D01*
X108416381Y28820110D02*
X108454476Y28782015D01*
X108454476Y28782015D02*
X108492571Y28705824D01*
X108492571Y28705824D02*
X108530666Y28553443D01*
X108530666Y28553443D02*
X108530666Y28362967D01*
X108530666Y28362967D02*
X108492571Y28210586D01*
X108492571Y28210586D02*
X108454476Y28134396D01*
X108454476Y28134396D02*
X108416381Y28096300D01*
X108416381Y28096300D02*
X108340190Y28058205D01*
X108340190Y28058205D02*
X108264000Y28058205D01*
X108264000Y28058205D02*
X108187809Y28096300D01*
X108187809Y28096300D02*
X108149714Y28134396D01*
X108149714Y28134396D02*
X108111619Y28210586D01*
X108111619Y28210586D02*
X108073523Y28362967D01*
X108073523Y28362967D02*
X108073523Y28553443D01*
X108073523Y28553443D02*
X108111619Y28705824D01*
X108111619Y28705824D02*
X108149714Y28782015D01*
X108149714Y28782015D02*
X108187809Y28820110D01*
X108187809Y28820110D02*
X108264000Y28858205D01*
X106740190Y36408205D02*
X106816380Y36408205D01*
X106816380Y36408205D02*
X106892571Y36370110D01*
X106892571Y36370110D02*
X106930666Y36332015D01*
X106930666Y36332015D02*
X106968761Y36255824D01*
X106968761Y36255824D02*
X107006856Y36103443D01*
X107006856Y36103443D02*
X107006856Y35912967D01*
X107006856Y35912967D02*
X106968761Y35760586D01*
X106968761Y35760586D02*
X106930666Y35684396D01*
X106930666Y35684396D02*
X106892571Y35646300D01*
X106892571Y35646300D02*
X106816380Y35608205D01*
X106816380Y35608205D02*
X106740190Y35608205D01*
X106740190Y35608205D02*
X106663999Y35646300D01*
X106663999Y35646300D02*
X106625904Y35684396D01*
X106625904Y35684396D02*
X106587809Y35760586D01*
X106587809Y35760586D02*
X106549713Y35912967D01*
X106549713Y35912967D02*
X106549713Y36103443D01*
X106549713Y36103443D02*
X106587809Y36255824D01*
X106587809Y36255824D02*
X106625904Y36332015D01*
X106625904Y36332015D02*
X106663999Y36370110D01*
X106663999Y36370110D02*
X106740190Y36408205D01*
X107311618Y36332015D02*
X107349714Y36370110D01*
X107349714Y36370110D02*
X107425904Y36408205D01*
X107425904Y36408205D02*
X107616380Y36408205D01*
X107616380Y36408205D02*
X107692571Y36370110D01*
X107692571Y36370110D02*
X107730666Y36332015D01*
X107730666Y36332015D02*
X107768761Y36255824D01*
X107768761Y36255824D02*
X107768761Y36179634D01*
X107768761Y36179634D02*
X107730666Y36065348D01*
X107730666Y36065348D02*
X107273523Y35608205D01*
X107273523Y35608205D02*
X107768761Y35608205D01*
X108264000Y36408205D02*
X108340190Y36408205D01*
X108340190Y36408205D02*
X108416381Y36370110D01*
X108416381Y36370110D02*
X108454476Y36332015D01*
X108454476Y36332015D02*
X108492571Y36255824D01*
X108492571Y36255824D02*
X108530666Y36103443D01*
X108530666Y36103443D02*
X108530666Y35912967D01*
X108530666Y35912967D02*
X108492571Y35760586D01*
X108492571Y35760586D02*
X108454476Y35684396D01*
X108454476Y35684396D02*
X108416381Y35646300D01*
X108416381Y35646300D02*
X108340190Y35608205D01*
X108340190Y35608205D02*
X108264000Y35608205D01*
X108264000Y35608205D02*
X108187809Y35646300D01*
X108187809Y35646300D02*
X108149714Y35684396D01*
X108149714Y35684396D02*
X108111619Y35760586D01*
X108111619Y35760586D02*
X108073523Y35912967D01*
X108073523Y35912967D02*
X108073523Y36103443D01*
X108073523Y36103443D02*
X108111619Y36255824D01*
X108111619Y36255824D02*
X108149714Y36332015D01*
X108149714Y36332015D02*
X108187809Y36370110D01*
X108187809Y36370110D02*
X108264000Y36408205D01*
X95932475Y28058205D02*
X95475332Y28058205D01*
X95703904Y28058205D02*
X95703904Y28858205D01*
X95703904Y28858205D02*
X95627713Y28743920D01*
X95627713Y28743920D02*
X95551523Y28667729D01*
X95551523Y28667729D02*
X95475332Y28629634D01*
X96694380Y28058205D02*
X96237237Y28058205D01*
X96465809Y28058205D02*
X96465809Y28858205D01*
X96465809Y28858205D02*
X96389618Y28743920D01*
X96389618Y28743920D02*
X96313428Y28667729D01*
X96313428Y28667729D02*
X96237237Y28629634D01*
X96961047Y28858205D02*
X97456285Y28858205D01*
X97456285Y28858205D02*
X97189619Y28553443D01*
X97189619Y28553443D02*
X97303904Y28553443D01*
X97303904Y28553443D02*
X97380095Y28515348D01*
X97380095Y28515348D02*
X97418190Y28477253D01*
X97418190Y28477253D02*
X97456285Y28401062D01*
X97456285Y28401062D02*
X97456285Y28210586D01*
X97456285Y28210586D02*
X97418190Y28134396D01*
X97418190Y28134396D02*
X97380095Y28096300D01*
X97380095Y28096300D02*
X97303904Y28058205D01*
X97303904Y28058205D02*
X97075333Y28058205D01*
X97075333Y28058205D02*
X96999142Y28096300D01*
X96999142Y28096300D02*
X96961047Y28134396D01*
X106740190Y33908205D02*
X106816380Y33908205D01*
X106816380Y33908205D02*
X106892571Y33870110D01*
X106892571Y33870110D02*
X106930666Y33832015D01*
X106930666Y33832015D02*
X106968761Y33755824D01*
X106968761Y33755824D02*
X107006856Y33603443D01*
X107006856Y33603443D02*
X107006856Y33412967D01*
X107006856Y33412967D02*
X106968761Y33260586D01*
X106968761Y33260586D02*
X106930666Y33184396D01*
X106930666Y33184396D02*
X106892571Y33146300D01*
X106892571Y33146300D02*
X106816380Y33108205D01*
X106816380Y33108205D02*
X106740190Y33108205D01*
X106740190Y33108205D02*
X106663999Y33146300D01*
X106663999Y33146300D02*
X106625904Y33184396D01*
X106625904Y33184396D02*
X106587809Y33260586D01*
X106587809Y33260586D02*
X106549713Y33412967D01*
X106549713Y33412967D02*
X106549713Y33603443D01*
X106549713Y33603443D02*
X106587809Y33755824D01*
X106587809Y33755824D02*
X106625904Y33832015D01*
X106625904Y33832015D02*
X106663999Y33870110D01*
X106663999Y33870110D02*
X106740190Y33908205D01*
X107311618Y33832015D02*
X107349714Y33870110D01*
X107349714Y33870110D02*
X107425904Y33908205D01*
X107425904Y33908205D02*
X107616380Y33908205D01*
X107616380Y33908205D02*
X107692571Y33870110D01*
X107692571Y33870110D02*
X107730666Y33832015D01*
X107730666Y33832015D02*
X107768761Y33755824D01*
X107768761Y33755824D02*
X107768761Y33679634D01*
X107768761Y33679634D02*
X107730666Y33565348D01*
X107730666Y33565348D02*
X107273523Y33108205D01*
X107273523Y33108205D02*
X107768761Y33108205D01*
X108073523Y33832015D02*
X108111619Y33870110D01*
X108111619Y33870110D02*
X108187809Y33908205D01*
X108187809Y33908205D02*
X108378285Y33908205D01*
X108378285Y33908205D02*
X108454476Y33870110D01*
X108454476Y33870110D02*
X108492571Y33832015D01*
X108492571Y33832015D02*
X108530666Y33755824D01*
X108530666Y33755824D02*
X108530666Y33679634D01*
X108530666Y33679634D02*
X108492571Y33565348D01*
X108492571Y33565348D02*
X108035428Y33108205D01*
X108035428Y33108205D02*
X108530666Y33108205D01*
X71790190Y49118205D02*
X71866380Y49118205D01*
X71866380Y49118205D02*
X71942571Y49080110D01*
X71942571Y49080110D02*
X71980666Y49042015D01*
X71980666Y49042015D02*
X72018761Y48965824D01*
X72018761Y48965824D02*
X72056856Y48813443D01*
X72056856Y48813443D02*
X72056856Y48622967D01*
X72056856Y48622967D02*
X72018761Y48470586D01*
X72018761Y48470586D02*
X71980666Y48394396D01*
X71980666Y48394396D02*
X71942571Y48356300D01*
X71942571Y48356300D02*
X71866380Y48318205D01*
X71866380Y48318205D02*
X71790190Y48318205D01*
X71790190Y48318205D02*
X71713999Y48356300D01*
X71713999Y48356300D02*
X71675904Y48394396D01*
X71675904Y48394396D02*
X71637809Y48470586D01*
X71637809Y48470586D02*
X71599713Y48622967D01*
X71599713Y48622967D02*
X71599713Y48813443D01*
X71599713Y48813443D02*
X71637809Y48965824D01*
X71637809Y48965824D02*
X71675904Y49042015D01*
X71675904Y49042015D02*
X71713999Y49080110D01*
X71713999Y49080110D02*
X71790190Y49118205D01*
X72552095Y49118205D02*
X72628285Y49118205D01*
X72628285Y49118205D02*
X72704476Y49080110D01*
X72704476Y49080110D02*
X72742571Y49042015D01*
X72742571Y49042015D02*
X72780666Y48965824D01*
X72780666Y48965824D02*
X72818761Y48813443D01*
X72818761Y48813443D02*
X72818761Y48622967D01*
X72818761Y48622967D02*
X72780666Y48470586D01*
X72780666Y48470586D02*
X72742571Y48394396D01*
X72742571Y48394396D02*
X72704476Y48356300D01*
X72704476Y48356300D02*
X72628285Y48318205D01*
X72628285Y48318205D02*
X72552095Y48318205D01*
X72552095Y48318205D02*
X72475904Y48356300D01*
X72475904Y48356300D02*
X72437809Y48394396D01*
X72437809Y48394396D02*
X72399714Y48470586D01*
X72399714Y48470586D02*
X72361618Y48622967D01*
X72361618Y48622967D02*
X72361618Y48813443D01*
X72361618Y48813443D02*
X72399714Y48965824D01*
X72399714Y48965824D02*
X72437809Y49042015D01*
X72437809Y49042015D02*
X72475904Y49080110D01*
X72475904Y49080110D02*
X72552095Y49118205D01*
X73504476Y49118205D02*
X73352095Y49118205D01*
X73352095Y49118205D02*
X73275904Y49080110D01*
X73275904Y49080110D02*
X73237809Y49042015D01*
X73237809Y49042015D02*
X73161619Y48927729D01*
X73161619Y48927729D02*
X73123523Y48775348D01*
X73123523Y48775348D02*
X73123523Y48470586D01*
X73123523Y48470586D02*
X73161619Y48394396D01*
X73161619Y48394396D02*
X73199714Y48356300D01*
X73199714Y48356300D02*
X73275904Y48318205D01*
X73275904Y48318205D02*
X73428285Y48318205D01*
X73428285Y48318205D02*
X73504476Y48356300D01*
X73504476Y48356300D02*
X73542571Y48394396D01*
X73542571Y48394396D02*
X73580666Y48470586D01*
X73580666Y48470586D02*
X73580666Y48661062D01*
X73580666Y48661062D02*
X73542571Y48737253D01*
X73542571Y48737253D02*
X73504476Y48775348D01*
X73504476Y48775348D02*
X73428285Y48813443D01*
X73428285Y48813443D02*
X73275904Y48813443D01*
X73275904Y48813443D02*
X73199714Y48775348D01*
X73199714Y48775348D02*
X73161619Y48737253D01*
X73161619Y48737253D02*
X73123523Y48661062D01*
X60982475Y25458205D02*
X60525332Y25458205D01*
X60753904Y25458205D02*
X60753904Y26258205D01*
X60753904Y26258205D02*
X60677713Y26143920D01*
X60677713Y26143920D02*
X60601523Y26067729D01*
X60601523Y26067729D02*
X60525332Y26029634D01*
X61744380Y25458205D02*
X61287237Y25458205D01*
X61515809Y25458205D02*
X61515809Y26258205D01*
X61515809Y26258205D02*
X61439618Y26143920D01*
X61439618Y26143920D02*
X61363428Y26067729D01*
X61363428Y26067729D02*
X61287237Y26029634D01*
X62506285Y25458205D02*
X62049142Y25458205D01*
X62277714Y25458205D02*
X62277714Y26258205D01*
X62277714Y26258205D02*
X62201523Y26143920D01*
X62201523Y26143920D02*
X62125333Y26067729D01*
X62125333Y26067729D02*
X62049142Y26029634D01*
X71623000Y31348205D02*
X71699190Y31348205D01*
X71699190Y31348205D02*
X71775381Y31310110D01*
X71775381Y31310110D02*
X71813476Y31272015D01*
X71813476Y31272015D02*
X71851571Y31195824D01*
X71851571Y31195824D02*
X71889666Y31043443D01*
X71889666Y31043443D02*
X71889666Y30852967D01*
X71889666Y30852967D02*
X71851571Y30700586D01*
X71851571Y30700586D02*
X71813476Y30624396D01*
X71813476Y30624396D02*
X71775381Y30586300D01*
X71775381Y30586300D02*
X71699190Y30548205D01*
X71699190Y30548205D02*
X71623000Y30548205D01*
X71623000Y30548205D02*
X71546809Y30586300D01*
X71546809Y30586300D02*
X71508714Y30624396D01*
X71508714Y30624396D02*
X71470619Y30700586D01*
X71470619Y30700586D02*
X71432523Y30852967D01*
X71432523Y30852967D02*
X71432523Y31043443D01*
X71432523Y31043443D02*
X71470619Y31195824D01*
X71470619Y31195824D02*
X71508714Y31272015D01*
X71508714Y31272015D02*
X71546809Y31310110D01*
X71546809Y31310110D02*
X71623000Y31348205D01*
X72194428Y31272015D02*
X72232524Y31310110D01*
X72232524Y31310110D02*
X72308714Y31348205D01*
X72308714Y31348205D02*
X72499190Y31348205D01*
X72499190Y31348205D02*
X72575381Y31310110D01*
X72575381Y31310110D02*
X72613476Y31272015D01*
X72613476Y31272015D02*
X72651571Y31195824D01*
X72651571Y31195824D02*
X72651571Y31119634D01*
X72651571Y31119634D02*
X72613476Y31005348D01*
X72613476Y31005348D02*
X72156333Y30548205D01*
X72156333Y30548205D02*
X72651571Y30548205D01*
X73337286Y31081539D02*
X73337286Y30548205D01*
X73146810Y31386300D02*
X72956333Y30814872D01*
X72956333Y30814872D02*
X73451572Y30814872D01*
X71790190Y33848205D02*
X71866380Y33848205D01*
X71866380Y33848205D02*
X71942571Y33810110D01*
X71942571Y33810110D02*
X71980666Y33772015D01*
X71980666Y33772015D02*
X72018761Y33695824D01*
X72018761Y33695824D02*
X72056856Y33543443D01*
X72056856Y33543443D02*
X72056856Y33352967D01*
X72056856Y33352967D02*
X72018761Y33200586D01*
X72018761Y33200586D02*
X71980666Y33124396D01*
X71980666Y33124396D02*
X71942571Y33086300D01*
X71942571Y33086300D02*
X71866380Y33048205D01*
X71866380Y33048205D02*
X71790190Y33048205D01*
X71790190Y33048205D02*
X71713999Y33086300D01*
X71713999Y33086300D02*
X71675904Y33124396D01*
X71675904Y33124396D02*
X71637809Y33200586D01*
X71637809Y33200586D02*
X71599713Y33352967D01*
X71599713Y33352967D02*
X71599713Y33543443D01*
X71599713Y33543443D02*
X71637809Y33695824D01*
X71637809Y33695824D02*
X71675904Y33772015D01*
X71675904Y33772015D02*
X71713999Y33810110D01*
X71713999Y33810110D02*
X71790190Y33848205D01*
X72361618Y33772015D02*
X72399714Y33810110D01*
X72399714Y33810110D02*
X72475904Y33848205D01*
X72475904Y33848205D02*
X72666380Y33848205D01*
X72666380Y33848205D02*
X72742571Y33810110D01*
X72742571Y33810110D02*
X72780666Y33772015D01*
X72780666Y33772015D02*
X72818761Y33695824D01*
X72818761Y33695824D02*
X72818761Y33619634D01*
X72818761Y33619634D02*
X72780666Y33505348D01*
X72780666Y33505348D02*
X72323523Y33048205D01*
X72323523Y33048205D02*
X72818761Y33048205D01*
X73123523Y33772015D02*
X73161619Y33810110D01*
X73161619Y33810110D02*
X73237809Y33848205D01*
X73237809Y33848205D02*
X73428285Y33848205D01*
X73428285Y33848205D02*
X73504476Y33810110D01*
X73504476Y33810110D02*
X73542571Y33772015D01*
X73542571Y33772015D02*
X73580666Y33695824D01*
X73580666Y33695824D02*
X73580666Y33619634D01*
X73580666Y33619634D02*
X73542571Y33505348D01*
X73542571Y33505348D02*
X73085428Y33048205D01*
X73085428Y33048205D02*
X73580666Y33048205D01*
X60982475Y30538205D02*
X60525332Y30538205D01*
X60753904Y30538205D02*
X60753904Y31338205D01*
X60753904Y31338205D02*
X60677713Y31223920D01*
X60677713Y31223920D02*
X60601523Y31147729D01*
X60601523Y31147729D02*
X60525332Y31109634D01*
X61744380Y30538205D02*
X61287237Y30538205D01*
X61515809Y30538205D02*
X61515809Y31338205D01*
X61515809Y31338205D02*
X61439618Y31223920D01*
X61439618Y31223920D02*
X61363428Y31147729D01*
X61363428Y31147729D02*
X61287237Y31109634D01*
X62468190Y31338205D02*
X62087238Y31338205D01*
X62087238Y31338205D02*
X62049142Y30957253D01*
X62049142Y30957253D02*
X62087238Y30995348D01*
X62087238Y30995348D02*
X62163428Y31033443D01*
X62163428Y31033443D02*
X62353904Y31033443D01*
X62353904Y31033443D02*
X62430095Y30995348D01*
X62430095Y30995348D02*
X62468190Y30957253D01*
X62468190Y30957253D02*
X62506285Y30881062D01*
X62506285Y30881062D02*
X62506285Y30690586D01*
X62506285Y30690586D02*
X62468190Y30614396D01*
X62468190Y30614396D02*
X62430095Y30576300D01*
X62430095Y30576300D02*
X62353904Y30538205D01*
X62353904Y30538205D02*
X62163428Y30538205D01*
X62163428Y30538205D02*
X62087238Y30576300D01*
X62087238Y30576300D02*
X62049142Y30614396D01*
X60982475Y27998205D02*
X60525332Y27998205D01*
X60753904Y27998205D02*
X60753904Y28798205D01*
X60753904Y28798205D02*
X60677713Y28683920D01*
X60677713Y28683920D02*
X60601523Y28607729D01*
X60601523Y28607729D02*
X60525332Y28569634D01*
X61744380Y27998205D02*
X61287237Y27998205D01*
X61515809Y27998205D02*
X61515809Y28798205D01*
X61515809Y28798205D02*
X61439618Y28683920D01*
X61439618Y28683920D02*
X61363428Y28607729D01*
X61363428Y28607729D02*
X61287237Y28569634D01*
X62011047Y28798205D02*
X62506285Y28798205D01*
X62506285Y28798205D02*
X62239619Y28493443D01*
X62239619Y28493443D02*
X62353904Y28493443D01*
X62353904Y28493443D02*
X62430095Y28455348D01*
X62430095Y28455348D02*
X62468190Y28417253D01*
X62468190Y28417253D02*
X62506285Y28341062D01*
X62506285Y28341062D02*
X62506285Y28150586D01*
X62506285Y28150586D02*
X62468190Y28074396D01*
X62468190Y28074396D02*
X62430095Y28036300D01*
X62430095Y28036300D02*
X62353904Y27998205D01*
X62353904Y27998205D02*
X62125333Y27998205D01*
X62125333Y27998205D02*
X62049142Y28036300D01*
X62049142Y28036300D02*
X62011047Y28074396D01*
X60715809Y36418205D02*
X60791999Y36418205D01*
X60791999Y36418205D02*
X60868190Y36380110D01*
X60868190Y36380110D02*
X60906285Y36342015D01*
X60906285Y36342015D02*
X60944380Y36265824D01*
X60944380Y36265824D02*
X60982475Y36113443D01*
X60982475Y36113443D02*
X60982475Y35922967D01*
X60982475Y35922967D02*
X60944380Y35770586D01*
X60944380Y35770586D02*
X60906285Y35694396D01*
X60906285Y35694396D02*
X60868190Y35656300D01*
X60868190Y35656300D02*
X60791999Y35618205D01*
X60791999Y35618205D02*
X60715809Y35618205D01*
X60715809Y35618205D02*
X60639618Y35656300D01*
X60639618Y35656300D02*
X60601523Y35694396D01*
X60601523Y35694396D02*
X60563428Y35770586D01*
X60563428Y35770586D02*
X60525332Y35922967D01*
X60525332Y35922967D02*
X60525332Y36113443D01*
X60525332Y36113443D02*
X60563428Y36265824D01*
X60563428Y36265824D02*
X60601523Y36342015D01*
X60601523Y36342015D02*
X60639618Y36380110D01*
X60639618Y36380110D02*
X60715809Y36418205D01*
X61287237Y36342015D02*
X61325333Y36380110D01*
X61325333Y36380110D02*
X61401523Y36418205D01*
X61401523Y36418205D02*
X61591999Y36418205D01*
X61591999Y36418205D02*
X61668190Y36380110D01*
X61668190Y36380110D02*
X61706285Y36342015D01*
X61706285Y36342015D02*
X61744380Y36265824D01*
X61744380Y36265824D02*
X61744380Y36189634D01*
X61744380Y36189634D02*
X61706285Y36075348D01*
X61706285Y36075348D02*
X61249142Y35618205D01*
X61249142Y35618205D02*
X61744380Y35618205D01*
X62125333Y35618205D02*
X62277714Y35618205D01*
X62277714Y35618205D02*
X62353904Y35656300D01*
X62353904Y35656300D02*
X62392000Y35694396D01*
X62392000Y35694396D02*
X62468190Y35808681D01*
X62468190Y35808681D02*
X62506285Y35961062D01*
X62506285Y35961062D02*
X62506285Y36265824D01*
X62506285Y36265824D02*
X62468190Y36342015D01*
X62468190Y36342015D02*
X62430095Y36380110D01*
X62430095Y36380110D02*
X62353904Y36418205D01*
X62353904Y36418205D02*
X62201523Y36418205D01*
X62201523Y36418205D02*
X62125333Y36380110D01*
X62125333Y36380110D02*
X62087238Y36342015D01*
X62087238Y36342015D02*
X62049142Y36265824D01*
X62049142Y36265824D02*
X62049142Y36075348D01*
X62049142Y36075348D02*
X62087238Y35999158D01*
X62087238Y35999158D02*
X62125333Y35961062D01*
X62125333Y35961062D02*
X62201523Y35922967D01*
X62201523Y35922967D02*
X62353904Y35922967D01*
X62353904Y35922967D02*
X62430095Y35961062D01*
X62430095Y35961062D02*
X62468190Y35999158D01*
X62468190Y35999158D02*
X62506285Y36075348D01*
X60449142Y41498205D02*
X60715809Y40698205D01*
X60715809Y40698205D02*
X60982475Y41498205D01*
X61706285Y40774396D02*
X61668189Y40736300D01*
X61668189Y40736300D02*
X61553904Y40698205D01*
X61553904Y40698205D02*
X61477713Y40698205D01*
X61477713Y40698205D02*
X61363427Y40736300D01*
X61363427Y40736300D02*
X61287237Y40812491D01*
X61287237Y40812491D02*
X61249142Y40888681D01*
X61249142Y40888681D02*
X61211046Y41041062D01*
X61211046Y41041062D02*
X61211046Y41155348D01*
X61211046Y41155348D02*
X61249142Y41307729D01*
X61249142Y41307729D02*
X61287237Y41383920D01*
X61287237Y41383920D02*
X61363427Y41460110D01*
X61363427Y41460110D02*
X61477713Y41498205D01*
X61477713Y41498205D02*
X61553904Y41498205D01*
X61553904Y41498205D02*
X61668189Y41460110D01*
X61668189Y41460110D02*
X61706285Y41422015D01*
X62506285Y40774396D02*
X62468189Y40736300D01*
X62468189Y40736300D02*
X62353904Y40698205D01*
X62353904Y40698205D02*
X62277713Y40698205D01*
X62277713Y40698205D02*
X62163427Y40736300D01*
X62163427Y40736300D02*
X62087237Y40812491D01*
X62087237Y40812491D02*
X62049142Y40888681D01*
X62049142Y40888681D02*
X62011046Y41041062D01*
X62011046Y41041062D02*
X62011046Y41155348D01*
X62011046Y41155348D02*
X62049142Y41307729D01*
X62049142Y41307729D02*
X62087237Y41383920D01*
X62087237Y41383920D02*
X62163427Y41460110D01*
X62163427Y41460110D02*
X62277713Y41498205D01*
X62277713Y41498205D02*
X62353904Y41498205D01*
X62353904Y41498205D02*
X62468189Y41460110D01*
X62468189Y41460110D02*
X62506285Y41422015D01*
X72056856Y27998205D02*
X71599713Y27998205D01*
X71828285Y27998205D02*
X71828285Y28798205D01*
X71828285Y28798205D02*
X71752094Y28683920D01*
X71752094Y28683920D02*
X71675904Y28607729D01*
X71675904Y28607729D02*
X71599713Y28569634D01*
X72552095Y28798205D02*
X72628285Y28798205D01*
X72628285Y28798205D02*
X72704476Y28760110D01*
X72704476Y28760110D02*
X72742571Y28722015D01*
X72742571Y28722015D02*
X72780666Y28645824D01*
X72780666Y28645824D02*
X72818761Y28493443D01*
X72818761Y28493443D02*
X72818761Y28302967D01*
X72818761Y28302967D02*
X72780666Y28150586D01*
X72780666Y28150586D02*
X72742571Y28074396D01*
X72742571Y28074396D02*
X72704476Y28036300D01*
X72704476Y28036300D02*
X72628285Y27998205D01*
X72628285Y27998205D02*
X72552095Y27998205D01*
X72552095Y27998205D02*
X72475904Y28036300D01*
X72475904Y28036300D02*
X72437809Y28074396D01*
X72437809Y28074396D02*
X72399714Y28150586D01*
X72399714Y28150586D02*
X72361618Y28302967D01*
X72361618Y28302967D02*
X72361618Y28493443D01*
X72361618Y28493443D02*
X72399714Y28645824D01*
X72399714Y28645824D02*
X72437809Y28722015D01*
X72437809Y28722015D02*
X72475904Y28760110D01*
X72475904Y28760110D02*
X72552095Y28798205D01*
X73314000Y28798205D02*
X73390190Y28798205D01*
X73390190Y28798205D02*
X73466381Y28760110D01*
X73466381Y28760110D02*
X73504476Y28722015D01*
X73504476Y28722015D02*
X73542571Y28645824D01*
X73542571Y28645824D02*
X73580666Y28493443D01*
X73580666Y28493443D02*
X73580666Y28302967D01*
X73580666Y28302967D02*
X73542571Y28150586D01*
X73542571Y28150586D02*
X73504476Y28074396D01*
X73504476Y28074396D02*
X73466381Y28036300D01*
X73466381Y28036300D02*
X73390190Y27998205D01*
X73390190Y27998205D02*
X73314000Y27998205D01*
X73314000Y27998205D02*
X73237809Y28036300D01*
X73237809Y28036300D02*
X73199714Y28074396D01*
X73199714Y28074396D02*
X73161619Y28150586D01*
X73161619Y28150586D02*
X73123523Y28302967D01*
X73123523Y28302967D02*
X73123523Y28493443D01*
X73123523Y28493443D02*
X73161619Y28645824D01*
X73161619Y28645824D02*
X73199714Y28722015D01*
X73199714Y28722015D02*
X73237809Y28760110D01*
X73237809Y28760110D02*
X73314000Y28798205D01*
X61634905Y43128205D02*
X61368238Y43509158D01*
X61177762Y43128205D02*
X61177762Y43928205D01*
X61177762Y43928205D02*
X61482524Y43928205D01*
X61482524Y43928205D02*
X61558714Y43890110D01*
X61558714Y43890110D02*
X61596809Y43852015D01*
X61596809Y43852015D02*
X61634905Y43775824D01*
X61634905Y43775824D02*
X61634905Y43661539D01*
X61634905Y43661539D02*
X61596809Y43585348D01*
X61596809Y43585348D02*
X61558714Y43547253D01*
X61558714Y43547253D02*
X61482524Y43509158D01*
X61482524Y43509158D02*
X61177762Y43509158D01*
X61939666Y43166300D02*
X62053952Y43128205D01*
X62053952Y43128205D02*
X62244428Y43128205D01*
X62244428Y43128205D02*
X62320619Y43166300D01*
X62320619Y43166300D02*
X62358714Y43204396D01*
X62358714Y43204396D02*
X62396809Y43280586D01*
X62396809Y43280586D02*
X62396809Y43356777D01*
X62396809Y43356777D02*
X62358714Y43432967D01*
X62358714Y43432967D02*
X62320619Y43471062D01*
X62320619Y43471062D02*
X62244428Y43509158D01*
X62244428Y43509158D02*
X62092047Y43547253D01*
X62092047Y43547253D02*
X62015857Y43585348D01*
X62015857Y43585348D02*
X61977762Y43623443D01*
X61977762Y43623443D02*
X61939666Y43699634D01*
X61939666Y43699634D02*
X61939666Y43775824D01*
X61939666Y43775824D02*
X61977762Y43852015D01*
X61977762Y43852015D02*
X62015857Y43890110D01*
X62015857Y43890110D02*
X62092047Y43928205D01*
X62092047Y43928205D02*
X62282524Y43928205D01*
X62282524Y43928205D02*
X62396809Y43890110D01*
X62625381Y43928205D02*
X63082524Y43928205D01*
X62853952Y43128205D02*
X62853952Y43928205D01*
X61214904Y51167253D02*
X61329190Y51129158D01*
X61329190Y51129158D02*
X61367285Y51091062D01*
X61367285Y51091062D02*
X61405381Y51014872D01*
X61405381Y51014872D02*
X61405381Y50900586D01*
X61405381Y50900586D02*
X61367285Y50824396D01*
X61367285Y50824396D02*
X61329190Y50786300D01*
X61329190Y50786300D02*
X61253000Y50748205D01*
X61253000Y50748205D02*
X60948238Y50748205D01*
X60948238Y50748205D02*
X60948238Y51548205D01*
X60948238Y51548205D02*
X61214904Y51548205D01*
X61214904Y51548205D02*
X61291095Y51510110D01*
X61291095Y51510110D02*
X61329190Y51472015D01*
X61329190Y51472015D02*
X61367285Y51395824D01*
X61367285Y51395824D02*
X61367285Y51319634D01*
X61367285Y51319634D02*
X61329190Y51243443D01*
X61329190Y51243443D02*
X61291095Y51205348D01*
X61291095Y51205348D02*
X61214904Y51167253D01*
X61214904Y51167253D02*
X60948238Y51167253D01*
X61748238Y51052967D02*
X62357762Y51052967D01*
X62053000Y50748205D02*
X62053000Y51357729D01*
X71790190Y36348205D02*
X71866380Y36348205D01*
X71866380Y36348205D02*
X71942571Y36310110D01*
X71942571Y36310110D02*
X71980666Y36272015D01*
X71980666Y36272015D02*
X72018761Y36195824D01*
X72018761Y36195824D02*
X72056856Y36043443D01*
X72056856Y36043443D02*
X72056856Y35852967D01*
X72056856Y35852967D02*
X72018761Y35700586D01*
X72018761Y35700586D02*
X71980666Y35624396D01*
X71980666Y35624396D02*
X71942571Y35586300D01*
X71942571Y35586300D02*
X71866380Y35548205D01*
X71866380Y35548205D02*
X71790190Y35548205D01*
X71790190Y35548205D02*
X71713999Y35586300D01*
X71713999Y35586300D02*
X71675904Y35624396D01*
X71675904Y35624396D02*
X71637809Y35700586D01*
X71637809Y35700586D02*
X71599713Y35852967D01*
X71599713Y35852967D02*
X71599713Y36043443D01*
X71599713Y36043443D02*
X71637809Y36195824D01*
X71637809Y36195824D02*
X71675904Y36272015D01*
X71675904Y36272015D02*
X71713999Y36310110D01*
X71713999Y36310110D02*
X71790190Y36348205D01*
X72361618Y36272015D02*
X72399714Y36310110D01*
X72399714Y36310110D02*
X72475904Y36348205D01*
X72475904Y36348205D02*
X72666380Y36348205D01*
X72666380Y36348205D02*
X72742571Y36310110D01*
X72742571Y36310110D02*
X72780666Y36272015D01*
X72780666Y36272015D02*
X72818761Y36195824D01*
X72818761Y36195824D02*
X72818761Y36119634D01*
X72818761Y36119634D02*
X72780666Y36005348D01*
X72780666Y36005348D02*
X72323523Y35548205D01*
X72323523Y35548205D02*
X72818761Y35548205D01*
X73314000Y36348205D02*
X73390190Y36348205D01*
X73390190Y36348205D02*
X73466381Y36310110D01*
X73466381Y36310110D02*
X73504476Y36272015D01*
X73504476Y36272015D02*
X73542571Y36195824D01*
X73542571Y36195824D02*
X73580666Y36043443D01*
X73580666Y36043443D02*
X73580666Y35852967D01*
X73580666Y35852967D02*
X73542571Y35700586D01*
X73542571Y35700586D02*
X73504476Y35624396D01*
X73504476Y35624396D02*
X73466381Y35586300D01*
X73466381Y35586300D02*
X73390190Y35548205D01*
X73390190Y35548205D02*
X73314000Y35548205D01*
X73314000Y35548205D02*
X73237809Y35586300D01*
X73237809Y35586300D02*
X73199714Y35624396D01*
X73199714Y35624396D02*
X73161619Y35700586D01*
X73161619Y35700586D02*
X73123523Y35852967D01*
X73123523Y35852967D02*
X73123523Y36043443D01*
X73123523Y36043443D02*
X73161619Y36195824D01*
X73161619Y36195824D02*
X73199714Y36272015D01*
X73199714Y36272015D02*
X73237809Y36310110D01*
X73237809Y36310110D02*
X73314000Y36348205D01*
X72784904Y50197253D02*
X72899190Y50159158D01*
X72899190Y50159158D02*
X72937285Y50121062D01*
X72937285Y50121062D02*
X72975381Y50044872D01*
X72975381Y50044872D02*
X72975381Y49930586D01*
X72975381Y49930586D02*
X72937285Y49854396D01*
X72937285Y49854396D02*
X72899190Y49816300D01*
X72899190Y49816300D02*
X72823000Y49778205D01*
X72823000Y49778205D02*
X72518238Y49778205D01*
X72518238Y49778205D02*
X72518238Y50578205D01*
X72518238Y50578205D02*
X72784904Y50578205D01*
X72784904Y50578205D02*
X72861095Y50540110D01*
X72861095Y50540110D02*
X72899190Y50502015D01*
X72899190Y50502015D02*
X72937285Y50425824D01*
X72937285Y50425824D02*
X72937285Y50349634D01*
X72937285Y50349634D02*
X72899190Y50273443D01*
X72899190Y50273443D02*
X72861095Y50235348D01*
X72861095Y50235348D02*
X72784904Y50197253D01*
X72784904Y50197253D02*
X72518238Y50197253D01*
X73318238Y50082967D02*
X73927762Y50082967D01*
X71904476Y44000110D02*
X71828286Y44038205D01*
X71828286Y44038205D02*
X71714000Y44038205D01*
X71714000Y44038205D02*
X71599714Y44000110D01*
X71599714Y44000110D02*
X71523524Y43923920D01*
X71523524Y43923920D02*
X71485429Y43847729D01*
X71485429Y43847729D02*
X71447333Y43695348D01*
X71447333Y43695348D02*
X71447333Y43581062D01*
X71447333Y43581062D02*
X71485429Y43428681D01*
X71485429Y43428681D02*
X71523524Y43352491D01*
X71523524Y43352491D02*
X71599714Y43276300D01*
X71599714Y43276300D02*
X71714000Y43238205D01*
X71714000Y43238205D02*
X71790191Y43238205D01*
X71790191Y43238205D02*
X71904476Y43276300D01*
X71904476Y43276300D02*
X71942572Y43314396D01*
X71942572Y43314396D02*
X71942572Y43581062D01*
X71942572Y43581062D02*
X71790191Y43581062D01*
X72285429Y43238205D02*
X72285429Y44038205D01*
X72285429Y44038205D02*
X72742572Y43238205D01*
X72742572Y43238205D02*
X72742572Y44038205D01*
X73123524Y43238205D02*
X73123524Y44038205D01*
X73123524Y44038205D02*
X73314000Y44038205D01*
X73314000Y44038205D02*
X73428286Y44000110D01*
X73428286Y44000110D02*
X73504476Y43923920D01*
X73504476Y43923920D02*
X73542571Y43847729D01*
X73542571Y43847729D02*
X73580667Y43695348D01*
X73580667Y43695348D02*
X73580667Y43581062D01*
X73580667Y43581062D02*
X73542571Y43428681D01*
X73542571Y43428681D02*
X73504476Y43352491D01*
X73504476Y43352491D02*
X73428286Y43276300D01*
X73428286Y43276300D02*
X73314000Y43238205D01*
X73314000Y43238205D02*
X73123524Y43238205D01*
X60988809Y46540110D02*
X60912619Y46578205D01*
X60912619Y46578205D02*
X60798333Y46578205D01*
X60798333Y46578205D02*
X60684047Y46540110D01*
X60684047Y46540110D02*
X60607857Y46463920D01*
X60607857Y46463920D02*
X60569762Y46387729D01*
X60569762Y46387729D02*
X60531666Y46235348D01*
X60531666Y46235348D02*
X60531666Y46121062D01*
X60531666Y46121062D02*
X60569762Y45968681D01*
X60569762Y45968681D02*
X60607857Y45892491D01*
X60607857Y45892491D02*
X60684047Y45816300D01*
X60684047Y45816300D02*
X60798333Y45778205D01*
X60798333Y45778205D02*
X60874524Y45778205D01*
X60874524Y45778205D02*
X60988809Y45816300D01*
X60988809Y45816300D02*
X61026905Y45854396D01*
X61026905Y45854396D02*
X61026905Y46121062D01*
X61026905Y46121062D02*
X60874524Y46121062D01*
X61369762Y45778205D02*
X61369762Y46578205D01*
X61369762Y46578205D02*
X61826905Y45778205D01*
X61826905Y45778205D02*
X61826905Y46578205D01*
X62207857Y45778205D02*
X62207857Y46578205D01*
X62207857Y46578205D02*
X62398333Y46578205D01*
X62398333Y46578205D02*
X62512619Y46540110D01*
X62512619Y46540110D02*
X62588809Y46463920D01*
X62588809Y46463920D02*
X62626904Y46387729D01*
X62626904Y46387729D02*
X62665000Y46235348D01*
X62665000Y46235348D02*
X62665000Y46121062D01*
X62665000Y46121062D02*
X62626904Y45968681D01*
X62626904Y45968681D02*
X62588809Y45892491D01*
X62588809Y45892491D02*
X62512619Y45816300D01*
X62512619Y45816300D02*
X62398333Y45778205D01*
X62398333Y45778205D02*
X62207857Y45778205D01*
X60715809Y23718205D02*
X60791999Y23718205D01*
X60791999Y23718205D02*
X60868190Y23680110D01*
X60868190Y23680110D02*
X60906285Y23642015D01*
X60906285Y23642015D02*
X60944380Y23565824D01*
X60944380Y23565824D02*
X60982475Y23413443D01*
X60982475Y23413443D02*
X60982475Y23222967D01*
X60982475Y23222967D02*
X60944380Y23070586D01*
X60944380Y23070586D02*
X60906285Y22994396D01*
X60906285Y22994396D02*
X60868190Y22956300D01*
X60868190Y22956300D02*
X60791999Y22918205D01*
X60791999Y22918205D02*
X60715809Y22918205D01*
X60715809Y22918205D02*
X60639618Y22956300D01*
X60639618Y22956300D02*
X60601523Y22994396D01*
X60601523Y22994396D02*
X60563428Y23070586D01*
X60563428Y23070586D02*
X60525332Y23222967D01*
X60525332Y23222967D02*
X60525332Y23413443D01*
X60525332Y23413443D02*
X60563428Y23565824D01*
X60563428Y23565824D02*
X60601523Y23642015D01*
X60601523Y23642015D02*
X60639618Y23680110D01*
X60639618Y23680110D02*
X60715809Y23718205D01*
X61744380Y22918205D02*
X61287237Y22918205D01*
X61515809Y22918205D02*
X61515809Y23718205D01*
X61515809Y23718205D02*
X61439618Y23603920D01*
X61439618Y23603920D02*
X61363428Y23527729D01*
X61363428Y23527729D02*
X61287237Y23489634D01*
X62239619Y23718205D02*
X62315809Y23718205D01*
X62315809Y23718205D02*
X62392000Y23680110D01*
X62392000Y23680110D02*
X62430095Y23642015D01*
X62430095Y23642015D02*
X62468190Y23565824D01*
X62468190Y23565824D02*
X62506285Y23413443D01*
X62506285Y23413443D02*
X62506285Y23222967D01*
X62506285Y23222967D02*
X62468190Y23070586D01*
X62468190Y23070586D02*
X62430095Y22994396D01*
X62430095Y22994396D02*
X62392000Y22956300D01*
X62392000Y22956300D02*
X62315809Y22918205D01*
X62315809Y22918205D02*
X62239619Y22918205D01*
X62239619Y22918205D02*
X62163428Y22956300D01*
X62163428Y22956300D02*
X62125333Y22994396D01*
X62125333Y22994396D02*
X62087238Y23070586D01*
X62087238Y23070586D02*
X62049142Y23222967D01*
X62049142Y23222967D02*
X62049142Y23413443D01*
X62049142Y23413443D02*
X62087238Y23565824D01*
X62087238Y23565824D02*
X62125333Y23642015D01*
X62125333Y23642015D02*
X62163428Y23680110D01*
X62163428Y23680110D02*
X62239619Y23718205D01*
X71790190Y46648205D02*
X71866380Y46648205D01*
X71866380Y46648205D02*
X71942571Y46610110D01*
X71942571Y46610110D02*
X71980666Y46572015D01*
X71980666Y46572015D02*
X72018761Y46495824D01*
X72018761Y46495824D02*
X72056856Y46343443D01*
X72056856Y46343443D02*
X72056856Y46152967D01*
X72056856Y46152967D02*
X72018761Y46000586D01*
X72018761Y46000586D02*
X71980666Y45924396D01*
X71980666Y45924396D02*
X71942571Y45886300D01*
X71942571Y45886300D02*
X71866380Y45848205D01*
X71866380Y45848205D02*
X71790190Y45848205D01*
X71790190Y45848205D02*
X71713999Y45886300D01*
X71713999Y45886300D02*
X71675904Y45924396D01*
X71675904Y45924396D02*
X71637809Y46000586D01*
X71637809Y46000586D02*
X71599713Y46152967D01*
X71599713Y46152967D02*
X71599713Y46343443D01*
X71599713Y46343443D02*
X71637809Y46495824D01*
X71637809Y46495824D02*
X71675904Y46572015D01*
X71675904Y46572015D02*
X71713999Y46610110D01*
X71713999Y46610110D02*
X71790190Y46648205D01*
X72552095Y46648205D02*
X72628285Y46648205D01*
X72628285Y46648205D02*
X72704476Y46610110D01*
X72704476Y46610110D02*
X72742571Y46572015D01*
X72742571Y46572015D02*
X72780666Y46495824D01*
X72780666Y46495824D02*
X72818761Y46343443D01*
X72818761Y46343443D02*
X72818761Y46152967D01*
X72818761Y46152967D02*
X72780666Y46000586D01*
X72780666Y46000586D02*
X72742571Y45924396D01*
X72742571Y45924396D02*
X72704476Y45886300D01*
X72704476Y45886300D02*
X72628285Y45848205D01*
X72628285Y45848205D02*
X72552095Y45848205D01*
X72552095Y45848205D02*
X72475904Y45886300D01*
X72475904Y45886300D02*
X72437809Y45924396D01*
X72437809Y45924396D02*
X72399714Y46000586D01*
X72399714Y46000586D02*
X72361618Y46152967D01*
X72361618Y46152967D02*
X72361618Y46343443D01*
X72361618Y46343443D02*
X72399714Y46495824D01*
X72399714Y46495824D02*
X72437809Y46572015D01*
X72437809Y46572015D02*
X72475904Y46610110D01*
X72475904Y46610110D02*
X72552095Y46648205D01*
X73275904Y46305348D02*
X73199714Y46343443D01*
X73199714Y46343443D02*
X73161619Y46381539D01*
X73161619Y46381539D02*
X73123523Y46457729D01*
X73123523Y46457729D02*
X73123523Y46495824D01*
X73123523Y46495824D02*
X73161619Y46572015D01*
X73161619Y46572015D02*
X73199714Y46610110D01*
X73199714Y46610110D02*
X73275904Y46648205D01*
X73275904Y46648205D02*
X73428285Y46648205D01*
X73428285Y46648205D02*
X73504476Y46610110D01*
X73504476Y46610110D02*
X73542571Y46572015D01*
X73542571Y46572015D02*
X73580666Y46495824D01*
X73580666Y46495824D02*
X73580666Y46457729D01*
X73580666Y46457729D02*
X73542571Y46381539D01*
X73542571Y46381539D02*
X73504476Y46343443D01*
X73504476Y46343443D02*
X73428285Y46305348D01*
X73428285Y46305348D02*
X73275904Y46305348D01*
X73275904Y46305348D02*
X73199714Y46267253D01*
X73199714Y46267253D02*
X73161619Y46229158D01*
X73161619Y46229158D02*
X73123523Y46152967D01*
X73123523Y46152967D02*
X73123523Y46000586D01*
X73123523Y46000586D02*
X73161619Y45924396D01*
X73161619Y45924396D02*
X73199714Y45886300D01*
X73199714Y45886300D02*
X73275904Y45848205D01*
X73275904Y45848205D02*
X73428285Y45848205D01*
X73428285Y45848205D02*
X73504476Y45886300D01*
X73504476Y45886300D02*
X73542571Y45924396D01*
X73542571Y45924396D02*
X73580666Y46000586D01*
X73580666Y46000586D02*
X73580666Y46152967D01*
X73580666Y46152967D02*
X73542571Y46229158D01*
X73542571Y46229158D02*
X73504476Y46267253D01*
X73504476Y46267253D02*
X73428285Y46305348D01*
X71904476Y41460110D02*
X71828286Y41498205D01*
X71828286Y41498205D02*
X71714000Y41498205D01*
X71714000Y41498205D02*
X71599714Y41460110D01*
X71599714Y41460110D02*
X71523524Y41383920D01*
X71523524Y41383920D02*
X71485429Y41307729D01*
X71485429Y41307729D02*
X71447333Y41155348D01*
X71447333Y41155348D02*
X71447333Y41041062D01*
X71447333Y41041062D02*
X71485429Y40888681D01*
X71485429Y40888681D02*
X71523524Y40812491D01*
X71523524Y40812491D02*
X71599714Y40736300D01*
X71599714Y40736300D02*
X71714000Y40698205D01*
X71714000Y40698205D02*
X71790191Y40698205D01*
X71790191Y40698205D02*
X71904476Y40736300D01*
X71904476Y40736300D02*
X71942572Y40774396D01*
X71942572Y40774396D02*
X71942572Y41041062D01*
X71942572Y41041062D02*
X71790191Y41041062D01*
X72285429Y40698205D02*
X72285429Y41498205D01*
X72285429Y41498205D02*
X72742572Y40698205D01*
X72742572Y40698205D02*
X72742572Y41498205D01*
X73123524Y40698205D02*
X73123524Y41498205D01*
X73123524Y41498205D02*
X73314000Y41498205D01*
X73314000Y41498205D02*
X73428286Y41460110D01*
X73428286Y41460110D02*
X73504476Y41383920D01*
X73504476Y41383920D02*
X73542571Y41307729D01*
X73542571Y41307729D02*
X73580667Y41155348D01*
X73580667Y41155348D02*
X73580667Y41041062D01*
X73580667Y41041062D02*
X73542571Y40888681D01*
X73542571Y40888681D02*
X73504476Y40812491D01*
X73504476Y40812491D02*
X73428286Y40736300D01*
X73428286Y40736300D02*
X73314000Y40698205D01*
X73314000Y40698205D02*
X73123524Y40698205D01*
X71839666Y22878205D02*
X71382523Y22878205D01*
X71611095Y22878205D02*
X71611095Y23678205D01*
X71611095Y23678205D02*
X71534904Y23563920D01*
X71534904Y23563920D02*
X71458714Y23487729D01*
X71458714Y23487729D02*
X71382523Y23449634D01*
X72334905Y23678205D02*
X72411095Y23678205D01*
X72411095Y23678205D02*
X72487286Y23640110D01*
X72487286Y23640110D02*
X72525381Y23602015D01*
X72525381Y23602015D02*
X72563476Y23525824D01*
X72563476Y23525824D02*
X72601571Y23373443D01*
X72601571Y23373443D02*
X72601571Y23182967D01*
X72601571Y23182967D02*
X72563476Y23030586D01*
X72563476Y23030586D02*
X72525381Y22954396D01*
X72525381Y22954396D02*
X72487286Y22916300D01*
X72487286Y22916300D02*
X72411095Y22878205D01*
X72411095Y22878205D02*
X72334905Y22878205D01*
X72334905Y22878205D02*
X72258714Y22916300D01*
X72258714Y22916300D02*
X72220619Y22954396D01*
X72220619Y22954396D02*
X72182524Y23030586D01*
X72182524Y23030586D02*
X72144428Y23182967D01*
X72144428Y23182967D02*
X72144428Y23373443D01*
X72144428Y23373443D02*
X72182524Y23525824D01*
X72182524Y23525824D02*
X72220619Y23602015D01*
X72220619Y23602015D02*
X72258714Y23640110D01*
X72258714Y23640110D02*
X72334905Y23678205D01*
X73287286Y23411539D02*
X73287286Y22878205D01*
X73096810Y23716300D02*
X72906333Y23144872D01*
X72906333Y23144872D02*
X73401572Y23144872D01*
X71623000Y38958205D02*
X71699190Y38958205D01*
X71699190Y38958205D02*
X71775381Y38920110D01*
X71775381Y38920110D02*
X71813476Y38882015D01*
X71813476Y38882015D02*
X71851571Y38805824D01*
X71851571Y38805824D02*
X71889666Y38653443D01*
X71889666Y38653443D02*
X71889666Y38462967D01*
X71889666Y38462967D02*
X71851571Y38310586D01*
X71851571Y38310586D02*
X71813476Y38234396D01*
X71813476Y38234396D02*
X71775381Y38196300D01*
X71775381Y38196300D02*
X71699190Y38158205D01*
X71699190Y38158205D02*
X71623000Y38158205D01*
X71623000Y38158205D02*
X71546809Y38196300D01*
X71546809Y38196300D02*
X71508714Y38234396D01*
X71508714Y38234396D02*
X71470619Y38310586D01*
X71470619Y38310586D02*
X71432523Y38462967D01*
X71432523Y38462967D02*
X71432523Y38653443D01*
X71432523Y38653443D02*
X71470619Y38805824D01*
X71470619Y38805824D02*
X71508714Y38882015D01*
X71508714Y38882015D02*
X71546809Y38920110D01*
X71546809Y38920110D02*
X71623000Y38958205D01*
X72651571Y38158205D02*
X72194428Y38158205D01*
X72423000Y38158205D02*
X72423000Y38958205D01*
X72423000Y38958205D02*
X72346809Y38843920D01*
X72346809Y38843920D02*
X72270619Y38767729D01*
X72270619Y38767729D02*
X72194428Y38729634D01*
X72918238Y38958205D02*
X73451572Y38958205D01*
X73451572Y38958205D02*
X73108714Y38158205D01*
X61026904Y48318205D02*
X60760237Y48699158D01*
X60569761Y48318205D02*
X60569761Y49118205D01*
X60569761Y49118205D02*
X60874523Y49118205D01*
X60874523Y49118205D02*
X60950713Y49080110D01*
X60950713Y49080110D02*
X60988808Y49042015D01*
X60988808Y49042015D02*
X61026904Y48965824D01*
X61026904Y48965824D02*
X61026904Y48851539D01*
X61026904Y48851539D02*
X60988808Y48775348D01*
X60988808Y48775348D02*
X60950713Y48737253D01*
X60950713Y48737253D02*
X60874523Y48699158D01*
X60874523Y48699158D02*
X60569761Y48699158D01*
X61331665Y48546777D02*
X61712618Y48546777D01*
X61255475Y48318205D02*
X61522142Y49118205D01*
X61522142Y49118205D02*
X61788808Y48318205D01*
X61979284Y49118205D02*
X62169760Y48318205D01*
X62169760Y48318205D02*
X62322141Y48889634D01*
X62322141Y48889634D02*
X62474522Y48318205D01*
X62474522Y48318205D02*
X62664999Y49118205D01*
X60715809Y33878205D02*
X60791999Y33878205D01*
X60791999Y33878205D02*
X60868190Y33840110D01*
X60868190Y33840110D02*
X60906285Y33802015D01*
X60906285Y33802015D02*
X60944380Y33725824D01*
X60944380Y33725824D02*
X60982475Y33573443D01*
X60982475Y33573443D02*
X60982475Y33382967D01*
X60982475Y33382967D02*
X60944380Y33230586D01*
X60944380Y33230586D02*
X60906285Y33154396D01*
X60906285Y33154396D02*
X60868190Y33116300D01*
X60868190Y33116300D02*
X60791999Y33078205D01*
X60791999Y33078205D02*
X60715809Y33078205D01*
X60715809Y33078205D02*
X60639618Y33116300D01*
X60639618Y33116300D02*
X60601523Y33154396D01*
X60601523Y33154396D02*
X60563428Y33230586D01*
X60563428Y33230586D02*
X60525332Y33382967D01*
X60525332Y33382967D02*
X60525332Y33573443D01*
X60525332Y33573443D02*
X60563428Y33725824D01*
X60563428Y33725824D02*
X60601523Y33802015D01*
X60601523Y33802015D02*
X60639618Y33840110D01*
X60639618Y33840110D02*
X60715809Y33878205D01*
X61477714Y33878205D02*
X61553904Y33878205D01*
X61553904Y33878205D02*
X61630095Y33840110D01*
X61630095Y33840110D02*
X61668190Y33802015D01*
X61668190Y33802015D02*
X61706285Y33725824D01*
X61706285Y33725824D02*
X61744380Y33573443D01*
X61744380Y33573443D02*
X61744380Y33382967D01*
X61744380Y33382967D02*
X61706285Y33230586D01*
X61706285Y33230586D02*
X61668190Y33154396D01*
X61668190Y33154396D02*
X61630095Y33116300D01*
X61630095Y33116300D02*
X61553904Y33078205D01*
X61553904Y33078205D02*
X61477714Y33078205D01*
X61477714Y33078205D02*
X61401523Y33116300D01*
X61401523Y33116300D02*
X61363428Y33154396D01*
X61363428Y33154396D02*
X61325333Y33230586D01*
X61325333Y33230586D02*
X61287237Y33382967D01*
X61287237Y33382967D02*
X61287237Y33573443D01*
X61287237Y33573443D02*
X61325333Y33725824D01*
X61325333Y33725824D02*
X61363428Y33802015D01*
X61363428Y33802015D02*
X61401523Y33840110D01*
X61401523Y33840110D02*
X61477714Y33878205D01*
X62049142Y33802015D02*
X62087238Y33840110D01*
X62087238Y33840110D02*
X62163428Y33878205D01*
X62163428Y33878205D02*
X62353904Y33878205D01*
X62353904Y33878205D02*
X62430095Y33840110D01*
X62430095Y33840110D02*
X62468190Y33802015D01*
X62468190Y33802015D02*
X62506285Y33725824D01*
X62506285Y33725824D02*
X62506285Y33649634D01*
X62506285Y33649634D02*
X62468190Y33535348D01*
X62468190Y33535348D02*
X62011047Y33078205D01*
X62011047Y33078205D02*
X62506285Y33078205D01*
X60715809Y38958205D02*
X60791999Y38958205D01*
X60791999Y38958205D02*
X60868190Y38920110D01*
X60868190Y38920110D02*
X60906285Y38882015D01*
X60906285Y38882015D02*
X60944380Y38805824D01*
X60944380Y38805824D02*
X60982475Y38653443D01*
X60982475Y38653443D02*
X60982475Y38462967D01*
X60982475Y38462967D02*
X60944380Y38310586D01*
X60944380Y38310586D02*
X60906285Y38234396D01*
X60906285Y38234396D02*
X60868190Y38196300D01*
X60868190Y38196300D02*
X60791999Y38158205D01*
X60791999Y38158205D02*
X60715809Y38158205D01*
X60715809Y38158205D02*
X60639618Y38196300D01*
X60639618Y38196300D02*
X60601523Y38234396D01*
X60601523Y38234396D02*
X60563428Y38310586D01*
X60563428Y38310586D02*
X60525332Y38462967D01*
X60525332Y38462967D02*
X60525332Y38653443D01*
X60525332Y38653443D02*
X60563428Y38805824D01*
X60563428Y38805824D02*
X60601523Y38882015D01*
X60601523Y38882015D02*
X60639618Y38920110D01*
X60639618Y38920110D02*
X60715809Y38958205D01*
X61249142Y38958205D02*
X61744380Y38958205D01*
X61744380Y38958205D02*
X61477714Y38653443D01*
X61477714Y38653443D02*
X61591999Y38653443D01*
X61591999Y38653443D02*
X61668190Y38615348D01*
X61668190Y38615348D02*
X61706285Y38577253D01*
X61706285Y38577253D02*
X61744380Y38501062D01*
X61744380Y38501062D02*
X61744380Y38310586D01*
X61744380Y38310586D02*
X61706285Y38234396D01*
X61706285Y38234396D02*
X61668190Y38196300D01*
X61668190Y38196300D02*
X61591999Y38158205D01*
X61591999Y38158205D02*
X61363428Y38158205D01*
X61363428Y38158205D02*
X61287237Y38196300D01*
X61287237Y38196300D02*
X61249142Y38234396D01*
X62506285Y38158205D02*
X62049142Y38158205D01*
X62277714Y38158205D02*
X62277714Y38958205D01*
X62277714Y38958205D02*
X62201523Y38843920D01*
X62201523Y38843920D02*
X62125333Y38767729D01*
X62125333Y38767729D02*
X62049142Y38729634D01*
D12*
%TO.C,G\u002A\u002A\u002A*%
X-14082263Y2010064D02*
X-13936200Y1993539D01*
X-13936200Y1622771D01*
X-14069550Y1636432D01*
X-14253649Y1631361D01*
X-14423048Y1579578D01*
X-14571619Y1484444D01*
X-14693234Y1349321D01*
X-14742111Y1267631D01*
X-14825200Y1106662D01*
X-14825200Y-285900D01*
X-15257000Y-285900D01*
X-15257000Y1976755D01*
X-15047450Y1969378D01*
X-14837900Y1962000D01*
X-14812500Y1740142D01*
X-14761731Y1796554D01*
X-14643554Y1893143D01*
X-14491702Y1964233D01*
X-14318458Y2005964D01*
X-14136110Y2014475D01*
X-14082263Y2010064D01*
G36*
X-14082263Y2010064D02*
G01*
X-13936200Y1993539D01*
X-13936200Y1622771D01*
X-14069550Y1636432D01*
X-14253649Y1631361D01*
X-14423048Y1579578D01*
X-14571619Y1484444D01*
X-14693234Y1349321D01*
X-14742111Y1267631D01*
X-14825200Y1106662D01*
X-14825200Y-285900D01*
X-15257000Y-285900D01*
X-15257000Y1976755D01*
X-15047450Y1969378D01*
X-14837900Y1962000D01*
X-14812500Y1740142D01*
X-14761731Y1796554D01*
X-14643554Y1893143D01*
X-14491702Y1964233D01*
X-14318458Y2005964D01*
X-14136110Y2014475D01*
X-14082263Y2010064D01*
G37*
X-12420009Y1986709D02*
X-12325925Y1983049D01*
X-12255510Y1974045D01*
X-12195199Y1957319D01*
X-12131430Y1930495D01*
X-12077249Y1904329D01*
X-11906202Y1795987D01*
X-11772952Y1656827D01*
X-11675621Y1484122D01*
X-11612332Y1275146D01*
X-11600925Y1212700D01*
X-11593636Y1141730D01*
X-11587097Y1028975D01*
X-11581597Y883451D01*
X-11577426Y714170D01*
X-11574873Y530147D01*
X-11574192Y380850D01*
X-11574000Y-285900D01*
X-12005800Y-285900D01*
X-12005800Y433390D01*
X-12006407Y662043D01*
X-12008400Y845742D01*
X-12012037Y990323D01*
X-12017578Y1101618D01*
X-12025281Y1185463D01*
X-12035405Y1247691D01*
X-12043303Y1278966D01*
X-12108063Y1417193D01*
X-12208970Y1520394D01*
X-12344397Y1587516D01*
X-12512720Y1617501D01*
X-12567188Y1619100D01*
X-12729659Y1608683D01*
X-12859638Y1573806D01*
X-12971736Y1509028D01*
X-13051640Y1438774D01*
X-13105827Y1381769D01*
X-13149209Y1325999D01*
X-13182977Y1265135D01*
X-13208321Y1192848D01*
X-13226433Y1102811D01*
X-13238504Y988695D01*
X-13245723Y844173D01*
X-13249283Y662915D01*
X-13250374Y438593D01*
X-13250400Y382590D01*
X-13250400Y-285900D01*
X-13682200Y-285900D01*
X-13682200Y1974700D01*
X-13250400Y1974700D01*
X-13250400Y1716793D01*
X-13168136Y1799058D01*
X-13081748Y1874664D01*
X-12991045Y1927931D01*
X-12885022Y1962218D01*
X-12752676Y1980884D01*
X-12583005Y1987289D01*
X-12551326Y1987400D01*
X-12420009Y1986709D01*
G36*
X-12420009Y1986709D02*
G01*
X-12325925Y1983049D01*
X-12255510Y1974045D01*
X-12195199Y1957319D01*
X-12131430Y1930495D01*
X-12077249Y1904329D01*
X-11906202Y1795987D01*
X-11772952Y1656827D01*
X-11675621Y1484122D01*
X-11612332Y1275146D01*
X-11600925Y1212700D01*
X-11593636Y1141730D01*
X-11587097Y1028975D01*
X-11581597Y883451D01*
X-11577426Y714170D01*
X-11574873Y530147D01*
X-11574192Y380850D01*
X-11574000Y-285900D01*
X-12005800Y-285900D01*
X-12005800Y433390D01*
X-12006407Y662043D01*
X-12008400Y845742D01*
X-12012037Y990323D01*
X-12017578Y1101618D01*
X-12025281Y1185463D01*
X-12035405Y1247691D01*
X-12043303Y1278966D01*
X-12108063Y1417193D01*
X-12208970Y1520394D01*
X-12344397Y1587516D01*
X-12512720Y1617501D01*
X-12567188Y1619100D01*
X-12729659Y1608683D01*
X-12859638Y1573806D01*
X-12971736Y1509028D01*
X-13051640Y1438774D01*
X-13105827Y1381769D01*
X-13149209Y1325999D01*
X-13182977Y1265135D01*
X-13208321Y1192848D01*
X-13226433Y1102811D01*
X-13238504Y988695D01*
X-13245723Y844173D01*
X-13249283Y662915D01*
X-13250374Y438593D01*
X-13250400Y382590D01*
X-13250400Y-285900D01*
X-13682200Y-285900D01*
X-13682200Y1974700D01*
X-13250400Y1974700D01*
X-13250400Y1716793D01*
X-13168136Y1799058D01*
X-13081748Y1874664D01*
X-12991045Y1927931D01*
X-12885022Y1962218D01*
X-12752676Y1980884D01*
X-12583005Y1987289D01*
X-12551326Y1987400D01*
X-12420009Y1986709D01*
G37*
X-16679514Y1993660D02*
X-16426060Y1958389D01*
X-16197975Y1881693D01*
X-15998325Y1765635D01*
X-15830175Y1612278D01*
X-15696592Y1423684D01*
X-15632044Y1288900D01*
X-15600482Y1174795D01*
X-15580215Y1027129D01*
X-15571470Y861920D01*
X-15574475Y695187D01*
X-15589457Y542949D01*
X-15616644Y421225D01*
X-15619595Y412600D01*
X-15715981Y215328D01*
X-15855225Y38926D01*
X-16031821Y-111269D01*
X-16240259Y-229921D01*
X-16315160Y-261270D01*
X-16447179Y-297519D01*
X-16610165Y-320967D01*
X-16785719Y-330787D01*
X-16955440Y-326150D01*
X-17100926Y-306229D01*
X-17133747Y-298099D01*
X-17347647Y-215901D01*
X-17542379Y-97593D01*
X-17709345Y49865D01*
X-17839944Y219514D01*
X-17890818Y314605D01*
X-17929163Y417398D01*
X-17963349Y541624D01*
X-17983401Y644872D01*
X-17990752Y786276D01*
X-17566426Y786276D01*
X-17552091Y638634D01*
X-17531959Y557293D01*
X-17478706Y444559D01*
X-17398305Y329167D01*
X-17304322Y227798D01*
X-17210326Y157135D01*
X-17203542Y153480D01*
X-17006802Y77382D01*
X-16801811Y47037D01*
X-16598396Y63257D01*
X-16485836Y94032D01*
X-16308556Y181153D01*
X-16164090Y304823D01*
X-16056913Y461159D01*
X-16052480Y470034D01*
X-15999490Y626099D01*
X-15977507Y803202D01*
X-15986861Y982483D01*
X-16027879Y1145079D01*
X-16040211Y1174600D01*
X-16137542Y1333594D01*
X-16265239Y1458408D01*
X-16415936Y1548877D01*
X-16582264Y1604834D01*
X-16756858Y1626114D01*
X-16932351Y1612551D01*
X-17101376Y1563978D01*
X-17256566Y1480230D01*
X-17390555Y1361140D01*
X-17495535Y1207399D01*
X-17537081Y1089693D01*
X-17561067Y942974D01*
X-17566426Y786276D01*
X-17990752Y786276D01*
X-17996262Y892264D01*
X-17963850Y1126807D01*
X-17888650Y1343448D01*
X-17773143Y1537135D01*
X-17619813Y1702813D01*
X-17431140Y1835431D01*
X-17387081Y1858697D01*
X-17212795Y1933447D01*
X-17041470Y1978219D01*
X-16855595Y1996353D01*
X-16679514Y1993660D01*
G36*
X-16679514Y1993660D02*
G01*
X-16426060Y1958389D01*
X-16197975Y1881693D01*
X-15998325Y1765635D01*
X-15830175Y1612278D01*
X-15696592Y1423684D01*
X-15632044Y1288900D01*
X-15600482Y1174795D01*
X-15580215Y1027129D01*
X-15571470Y861920D01*
X-15574475Y695187D01*
X-15589457Y542949D01*
X-15616644Y421225D01*
X-15619595Y412600D01*
X-15715981Y215328D01*
X-15855225Y38926D01*
X-16031821Y-111269D01*
X-16240259Y-229921D01*
X-16315160Y-261270D01*
X-16447179Y-297519D01*
X-16610165Y-320967D01*
X-16785719Y-330787D01*
X-16955440Y-326150D01*
X-17100926Y-306229D01*
X-17133747Y-298099D01*
X-17347647Y-215901D01*
X-17542379Y-97593D01*
X-17709345Y49865D01*
X-17839944Y219514D01*
X-17890818Y314605D01*
X-17929163Y417398D01*
X-17963349Y541624D01*
X-17983401Y644872D01*
X-17990752Y786276D01*
X-17566426Y786276D01*
X-17552091Y638634D01*
X-17531959Y557293D01*
X-17478706Y444559D01*
X-17398305Y329167D01*
X-17304322Y227798D01*
X-17210326Y157135D01*
X-17203542Y153480D01*
X-17006802Y77382D01*
X-16801811Y47037D01*
X-16598396Y63257D01*
X-16485836Y94032D01*
X-16308556Y181153D01*
X-16164090Y304823D01*
X-16056913Y461159D01*
X-16052480Y470034D01*
X-15999490Y626099D01*
X-15977507Y803202D01*
X-15986861Y982483D01*
X-16027879Y1145079D01*
X-16040211Y1174600D01*
X-16137542Y1333594D01*
X-16265239Y1458408D01*
X-16415936Y1548877D01*
X-16582264Y1604834D01*
X-16756858Y1626114D01*
X-16932351Y1612551D01*
X-17101376Y1563978D01*
X-17256566Y1480230D01*
X-17390555Y1361140D01*
X-17495535Y1207399D01*
X-17537081Y1089693D01*
X-17561067Y942974D01*
X-17566426Y786276D01*
X-17990752Y786276D01*
X-17996262Y892264D01*
X-17963850Y1126807D01*
X-17888650Y1343448D01*
X-17773143Y1537135D01*
X-17619813Y1702813D01*
X-17431140Y1835431D01*
X-17387081Y1858697D01*
X-17212795Y1933447D01*
X-17041470Y1978219D01*
X-16855595Y1996353D01*
X-16679514Y1993660D01*
G37*
X-19062451Y1979512D02*
X-18947752Y1953398D01*
X-18726650Y1862861D01*
X-18535207Y1736464D01*
X-18378278Y1578512D01*
X-18260718Y1393312D01*
X-18226063Y1313246D01*
X-18192036Y1219769D01*
X-18180417Y1160739D01*
X-18197702Y1128239D01*
X-18250388Y1114351D01*
X-18344971Y1111157D01*
X-18391931Y1111100D01*
X-18605861Y1111101D01*
X-18636767Y1204746D01*
X-18703357Y1330606D01*
X-18809862Y1441997D01*
X-18946037Y1532488D01*
X-19101636Y1595646D01*
X-19266415Y1625039D01*
X-19308301Y1626358D01*
X-19490631Y1603590D01*
X-19660935Y1539279D01*
X-19810484Y1439411D01*
X-19930547Y1309974D01*
X-20012395Y1156953D01*
X-20018593Y1139233D01*
X-20052144Y980576D01*
X-20057927Y805098D01*
X-20037241Y631173D01*
X-19991387Y477178D01*
X-19968325Y428969D01*
X-19862596Y278362D01*
X-19727721Y166197D01*
X-19580398Y94585D01*
X-19401711Y51574D01*
X-19222241Y51727D01*
X-19050428Y91715D01*
X-18894710Y168209D01*
X-18763526Y277878D01*
X-18665316Y417394D01*
X-18643733Y464111D01*
X-18597100Y577510D01*
X-18387550Y577605D01*
X-18284832Y576939D01*
X-18222716Y572880D01*
X-18191005Y562508D01*
X-18179503Y542906D01*
X-18178000Y517613D01*
X-18193525Y442598D01*
X-18235076Y342719D01*
X-18295122Y231248D01*
X-18366131Y121459D01*
X-18440571Y26624D01*
X-18479462Y-13619D01*
X-18659236Y-148631D01*
X-18868093Y-249311D01*
X-19094940Y-312413D01*
X-19328682Y-334694D01*
X-19524200Y-319164D01*
X-19717413Y-268443D01*
X-19905049Y-185377D01*
X-20074740Y-77360D01*
X-20214117Y48211D01*
X-20281011Y133335D01*
X-20362340Y267659D01*
X-20418230Y392613D01*
X-20452809Y523362D01*
X-20470207Y675070D01*
X-20474586Y844400D01*
X-20473081Y985306D01*
X-20467379Y1089312D01*
X-20455702Y1170264D01*
X-20436270Y1242006D01*
X-20416649Y1295303D01*
X-20311003Y1494957D01*
X-20164738Y1671474D01*
X-19985624Y1817184D01*
X-19781431Y1924415D01*
X-19778200Y1925698D01*
X-19622217Y1969586D01*
X-19438245Y1993608D01*
X-19245313Y1997128D01*
X-19062451Y1979512D01*
G36*
X-19062451Y1979512D02*
G01*
X-18947752Y1953398D01*
X-18726650Y1862861D01*
X-18535207Y1736464D01*
X-18378278Y1578512D01*
X-18260718Y1393312D01*
X-18226063Y1313246D01*
X-18192036Y1219769D01*
X-18180417Y1160739D01*
X-18197702Y1128239D01*
X-18250388Y1114351D01*
X-18344971Y1111157D01*
X-18391931Y1111100D01*
X-18605861Y1111101D01*
X-18636767Y1204746D01*
X-18703357Y1330606D01*
X-18809862Y1441997D01*
X-18946037Y1532488D01*
X-19101636Y1595646D01*
X-19266415Y1625039D01*
X-19308301Y1626358D01*
X-19490631Y1603590D01*
X-19660935Y1539279D01*
X-19810484Y1439411D01*
X-19930547Y1309974D01*
X-20012395Y1156953D01*
X-20018593Y1139233D01*
X-20052144Y980576D01*
X-20057927Y805098D01*
X-20037241Y631173D01*
X-19991387Y477178D01*
X-19968325Y428969D01*
X-19862596Y278362D01*
X-19727721Y166197D01*
X-19580398Y94585D01*
X-19401711Y51574D01*
X-19222241Y51727D01*
X-19050428Y91715D01*
X-18894710Y168209D01*
X-18763526Y277878D01*
X-18665316Y417394D01*
X-18643733Y464111D01*
X-18597100Y577510D01*
X-18387550Y577605D01*
X-18284832Y576939D01*
X-18222716Y572880D01*
X-18191005Y562508D01*
X-18179503Y542906D01*
X-18178000Y517613D01*
X-18193525Y442598D01*
X-18235076Y342719D01*
X-18295122Y231248D01*
X-18366131Y121459D01*
X-18440571Y26624D01*
X-18479462Y-13619D01*
X-18659236Y-148631D01*
X-18868093Y-249311D01*
X-19094940Y-312413D01*
X-19328682Y-334694D01*
X-19524200Y-319164D01*
X-19717413Y-268443D01*
X-19905049Y-185377D01*
X-20074740Y-77360D01*
X-20214117Y48211D01*
X-20281011Y133335D01*
X-20362340Y267659D01*
X-20418230Y392613D01*
X-20452809Y523362D01*
X-20470207Y675070D01*
X-20474586Y844400D01*
X-20473081Y985306D01*
X-20467379Y1089312D01*
X-20455702Y1170264D01*
X-20436270Y1242006D01*
X-20416649Y1295303D01*
X-20311003Y1494957D01*
X-20164738Y1671474D01*
X-19985624Y1817184D01*
X-19781431Y1924415D01*
X-19778200Y1925698D01*
X-19622217Y1969586D01*
X-19438245Y1993608D01*
X-19245313Y1997128D01*
X-19062451Y1979512D01*
G37*
X-9887970Y1977094D02*
X-9665606Y1910795D01*
X-9467367Y1805287D01*
X-9297421Y1664653D01*
X-9159941Y1492976D01*
X-9059096Y1294338D01*
X-8999057Y1072822D01*
X-8983200Y877164D01*
X-8983200Y730100D01*
X-10888200Y730100D01*
X-10888200Y657002D01*
X-10865283Y533851D01*
X-10801845Y406328D01*
X-10705857Y285202D01*
X-10585289Y181244D01*
X-10496112Y127261D01*
X-10360258Y75853D01*
X-10199596Y50817D01*
X-10186628Y49904D01*
X-10004371Y52373D01*
X-9850697Y89171D01*
X-9713005Y164886D01*
X-9598307Y264081D01*
X-9462487Y399900D01*
X-9259232Y399900D01*
X-9158689Y399254D01*
X-9099467Y395378D01*
X-9072090Y385367D01*
X-9067081Y366318D01*
X-9072770Y342750D01*
X-9111083Y257102D01*
X-9176001Y154414D01*
X-9255726Y50894D01*
X-9338456Y-37246D01*
X-9368643Y-63673D01*
X-9567510Y-193273D01*
X-9790198Y-282737D01*
X-10026904Y-330009D01*
X-10267827Y-333035D01*
X-10479143Y-296504D01*
X-10700255Y-212379D01*
X-10895075Y-88523D01*
X-11058675Y69946D01*
X-11186126Y257910D01*
X-11272499Y470251D01*
X-11291656Y547201D01*
X-11322192Y797258D01*
X-11308459Y1036839D01*
X-11296278Y1085700D01*
X-10886943Y1085700D01*
X-10163672Y1085700D01*
X-9951086Y1085972D01*
X-9784001Y1086979D01*
X-9657121Y1089006D01*
X-9565149Y1092342D01*
X-9502788Y1097271D01*
X-9464741Y1104080D01*
X-9445712Y1113056D01*
X-9440403Y1124486D01*
X-9440400Y1124812D01*
X-9460777Y1206742D01*
X-9515475Y1302327D01*
X-9594848Y1399778D01*
X-9689252Y1487305D01*
X-9789039Y1553117D01*
X-9792097Y1554674D01*
X-9931153Y1602223D01*
X-10095267Y1623486D01*
X-10266072Y1618540D01*
X-10425202Y1587461D01*
X-10516940Y1551656D01*
X-10663474Y1450014D01*
X-10782351Y1308703D01*
X-10862735Y1149373D01*
X-10886943Y1085700D01*
X-11296278Y1085700D01*
X-11252633Y1260765D01*
X-11156894Y1463857D01*
X-11023421Y1640937D01*
X-10854392Y1786828D01*
X-10741501Y1854811D01*
X-10546897Y1938754D01*
X-10349574Y1985599D01*
X-10130287Y2000100D01*
X-9887970Y1977094D01*
G36*
X-9887970Y1977094D02*
G01*
X-9665606Y1910795D01*
X-9467367Y1805287D01*
X-9297421Y1664653D01*
X-9159941Y1492976D01*
X-9059096Y1294338D01*
X-8999057Y1072822D01*
X-8983200Y877164D01*
X-8983200Y730100D01*
X-10888200Y730100D01*
X-10888200Y657002D01*
X-10865283Y533851D01*
X-10801845Y406328D01*
X-10705857Y285202D01*
X-10585289Y181244D01*
X-10496112Y127261D01*
X-10360258Y75853D01*
X-10199596Y50817D01*
X-10186628Y49904D01*
X-10004371Y52373D01*
X-9850697Y89171D01*
X-9713005Y164886D01*
X-9598307Y264081D01*
X-9462487Y399900D01*
X-9259232Y399900D01*
X-9158689Y399254D01*
X-9099467Y395378D01*
X-9072090Y385367D01*
X-9067081Y366318D01*
X-9072770Y342750D01*
X-9111083Y257102D01*
X-9176001Y154414D01*
X-9255726Y50894D01*
X-9338456Y-37246D01*
X-9368643Y-63673D01*
X-9567510Y-193273D01*
X-9790198Y-282737D01*
X-10026904Y-330009D01*
X-10267827Y-333035D01*
X-10479143Y-296504D01*
X-10700255Y-212379D01*
X-10895075Y-88523D01*
X-11058675Y69946D01*
X-11186126Y257910D01*
X-11272499Y470251D01*
X-11291656Y547201D01*
X-11322192Y797258D01*
X-11308459Y1036839D01*
X-11296278Y1085700D01*
X-10886943Y1085700D01*
X-10163672Y1085700D01*
X-9951086Y1085972D01*
X-9784001Y1086979D01*
X-9657121Y1089006D01*
X-9565149Y1092342D01*
X-9502788Y1097271D01*
X-9464741Y1104080D01*
X-9445712Y1113056D01*
X-9440403Y1124486D01*
X-9440400Y1124812D01*
X-9460777Y1206742D01*
X-9515475Y1302327D01*
X-9594848Y1399778D01*
X-9689252Y1487305D01*
X-9789039Y1553117D01*
X-9792097Y1554674D01*
X-9931153Y1602223D01*
X-10095267Y1623486D01*
X-10266072Y1618540D01*
X-10425202Y1587461D01*
X-10516940Y1551656D01*
X-10663474Y1450014D01*
X-10782351Y1308703D01*
X-10862735Y1149373D01*
X-10886943Y1085700D01*
X-11296278Y1085700D01*
X-11252633Y1260765D01*
X-11156894Y1463857D01*
X-11023421Y1640937D01*
X-10854392Y1786828D01*
X-10741501Y1854811D01*
X-10546897Y1938754D01*
X-10349574Y1985599D01*
X-10130287Y2000100D01*
X-9887970Y1977094D01*
G37*
X184475390Y1930064D02*
X184621453Y1913539D01*
X184621453Y1542771D01*
X184488103Y1556432D01*
X184304004Y1551361D01*
X184134605Y1499578D01*
X183986034Y1404444D01*
X183864419Y1269321D01*
X183815542Y1187631D01*
X183732453Y1026662D01*
X183732453Y-365900D01*
X183300653Y-365900D01*
X183300653Y1896755D01*
X183510203Y1889378D01*
X183719753Y1882000D01*
X183745153Y1660142D01*
X183795922Y1716554D01*
X183914099Y1813143D01*
X184065951Y1884233D01*
X184239195Y1925964D01*
X184421543Y1934475D01*
X184475390Y1930064D01*
G36*
X184475390Y1930064D02*
G01*
X184621453Y1913539D01*
X184621453Y1542771D01*
X184488103Y1556432D01*
X184304004Y1551361D01*
X184134605Y1499578D01*
X183986034Y1404444D01*
X183864419Y1269321D01*
X183815542Y1187631D01*
X183732453Y1026662D01*
X183732453Y-365900D01*
X183300653Y-365900D01*
X183300653Y1896755D01*
X183510203Y1889378D01*
X183719753Y1882000D01*
X183745153Y1660142D01*
X183795922Y1716554D01*
X183914099Y1813143D01*
X184065951Y1884233D01*
X184239195Y1925964D01*
X184421543Y1934475D01*
X184475390Y1930064D01*
G37*
X186137644Y1906709D02*
X186231728Y1903049D01*
X186302143Y1894045D01*
X186362454Y1877319D01*
X186426223Y1850495D01*
X186480404Y1824329D01*
X186651451Y1715987D01*
X186784701Y1576827D01*
X186882032Y1404122D01*
X186945321Y1195146D01*
X186956728Y1132700D01*
X186964017Y1061730D01*
X186970556Y948975D01*
X186976056Y803451D01*
X186980227Y634170D01*
X186982780Y450147D01*
X186983461Y300850D01*
X186983653Y-365900D01*
X186551853Y-365900D01*
X186551853Y353390D01*
X186551246Y582043D01*
X186549253Y765742D01*
X186545616Y910323D01*
X186540075Y1021618D01*
X186532372Y1105463D01*
X186522248Y1167691D01*
X186514350Y1198966D01*
X186449590Y1337193D01*
X186348683Y1440394D01*
X186213256Y1507516D01*
X186044933Y1537501D01*
X185990465Y1539100D01*
X185827994Y1528683D01*
X185698015Y1493806D01*
X185585917Y1429028D01*
X185506013Y1358774D01*
X185451826Y1301769D01*
X185408444Y1245999D01*
X185374676Y1185135D01*
X185349332Y1112848D01*
X185331220Y1022811D01*
X185319149Y908695D01*
X185311930Y764173D01*
X185308370Y582915D01*
X185307279Y358593D01*
X185307253Y302590D01*
X185307253Y-365900D01*
X184875453Y-365900D01*
X184875453Y1894700D01*
X185307253Y1894700D01*
X185307253Y1636793D01*
X185389517Y1719058D01*
X185475905Y1794664D01*
X185566608Y1847931D01*
X185672631Y1882218D01*
X185804977Y1900884D01*
X185974648Y1907289D01*
X186006327Y1907400D01*
X186137644Y1906709D01*
G36*
X186137644Y1906709D02*
G01*
X186231728Y1903049D01*
X186302143Y1894045D01*
X186362454Y1877319D01*
X186426223Y1850495D01*
X186480404Y1824329D01*
X186651451Y1715987D01*
X186784701Y1576827D01*
X186882032Y1404122D01*
X186945321Y1195146D01*
X186956728Y1132700D01*
X186964017Y1061730D01*
X186970556Y948975D01*
X186976056Y803451D01*
X186980227Y634170D01*
X186982780Y450147D01*
X186983461Y300850D01*
X186983653Y-365900D01*
X186551853Y-365900D01*
X186551853Y353390D01*
X186551246Y582043D01*
X186549253Y765742D01*
X186545616Y910323D01*
X186540075Y1021618D01*
X186532372Y1105463D01*
X186522248Y1167691D01*
X186514350Y1198966D01*
X186449590Y1337193D01*
X186348683Y1440394D01*
X186213256Y1507516D01*
X186044933Y1537501D01*
X185990465Y1539100D01*
X185827994Y1528683D01*
X185698015Y1493806D01*
X185585917Y1429028D01*
X185506013Y1358774D01*
X185451826Y1301769D01*
X185408444Y1245999D01*
X185374676Y1185135D01*
X185349332Y1112848D01*
X185331220Y1022811D01*
X185319149Y908695D01*
X185311930Y764173D01*
X185308370Y582915D01*
X185307279Y358593D01*
X185307253Y302590D01*
X185307253Y-365900D01*
X184875453Y-365900D01*
X184875453Y1894700D01*
X185307253Y1894700D01*
X185307253Y1636793D01*
X185389517Y1719058D01*
X185475905Y1794664D01*
X185566608Y1847931D01*
X185672631Y1882218D01*
X185804977Y1900884D01*
X185974648Y1907289D01*
X186006327Y1907400D01*
X186137644Y1906709D01*
G37*
X181878139Y1913660D02*
X182131593Y1878389D01*
X182359678Y1801693D01*
X182559328Y1685635D01*
X182727478Y1532278D01*
X182861061Y1343684D01*
X182925609Y1208900D01*
X182957171Y1094795D01*
X182977438Y947129D01*
X182986183Y781920D01*
X182983178Y615187D01*
X182968196Y462949D01*
X182941009Y341225D01*
X182938058Y332600D01*
X182841672Y135328D01*
X182702428Y-41074D01*
X182525832Y-191269D01*
X182317394Y-309921D01*
X182242493Y-341270D01*
X182110474Y-377519D01*
X181947488Y-400967D01*
X181771934Y-410787D01*
X181602213Y-406150D01*
X181456727Y-386229D01*
X181423906Y-378099D01*
X181210006Y-295901D01*
X181015274Y-177593D01*
X180848308Y-30135D01*
X180717709Y139514D01*
X180666835Y234605D01*
X180628490Y337398D01*
X180594304Y461624D01*
X180574252Y564872D01*
X180566901Y706276D01*
X180991227Y706276D01*
X181005562Y558634D01*
X181025694Y477293D01*
X181078947Y364559D01*
X181159348Y249167D01*
X181253331Y147798D01*
X181347327Y77135D01*
X181354111Y73480D01*
X181550851Y-2618D01*
X181755842Y-32963D01*
X181959257Y-16743D01*
X182071817Y14032D01*
X182249097Y101153D01*
X182393563Y224823D01*
X182500740Y381159D01*
X182505173Y390034D01*
X182558163Y546099D01*
X182580146Y723202D01*
X182570792Y902483D01*
X182529774Y1065079D01*
X182517442Y1094600D01*
X182420111Y1253594D01*
X182292414Y1378408D01*
X182141717Y1468877D01*
X181975389Y1524834D01*
X181800795Y1546114D01*
X181625302Y1532551D01*
X181456277Y1483978D01*
X181301087Y1400230D01*
X181167098Y1281140D01*
X181062118Y1127399D01*
X181020572Y1009693D01*
X180996586Y862974D01*
X180991227Y706276D01*
X180566901Y706276D01*
X180561391Y812264D01*
X180593803Y1046807D01*
X180669003Y1263448D01*
X180784510Y1457135D01*
X180937840Y1622813D01*
X181126513Y1755431D01*
X181170572Y1778697D01*
X181344858Y1853447D01*
X181516183Y1898219D01*
X181702058Y1916353D01*
X181878139Y1913660D01*
G36*
X181878139Y1913660D02*
G01*
X182131593Y1878389D01*
X182359678Y1801693D01*
X182559328Y1685635D01*
X182727478Y1532278D01*
X182861061Y1343684D01*
X182925609Y1208900D01*
X182957171Y1094795D01*
X182977438Y947129D01*
X182986183Y781920D01*
X182983178Y615187D01*
X182968196Y462949D01*
X182941009Y341225D01*
X182938058Y332600D01*
X182841672Y135328D01*
X182702428Y-41074D01*
X182525832Y-191269D01*
X182317394Y-309921D01*
X182242493Y-341270D01*
X182110474Y-377519D01*
X181947488Y-400967D01*
X181771934Y-410787D01*
X181602213Y-406150D01*
X181456727Y-386229D01*
X181423906Y-378099D01*
X181210006Y-295901D01*
X181015274Y-177593D01*
X180848308Y-30135D01*
X180717709Y139514D01*
X180666835Y234605D01*
X180628490Y337398D01*
X180594304Y461624D01*
X180574252Y564872D01*
X180566901Y706276D01*
X180991227Y706276D01*
X181005562Y558634D01*
X181025694Y477293D01*
X181078947Y364559D01*
X181159348Y249167D01*
X181253331Y147798D01*
X181347327Y77135D01*
X181354111Y73480D01*
X181550851Y-2618D01*
X181755842Y-32963D01*
X181959257Y-16743D01*
X182071817Y14032D01*
X182249097Y101153D01*
X182393563Y224823D01*
X182500740Y381159D01*
X182505173Y390034D01*
X182558163Y546099D01*
X182580146Y723202D01*
X182570792Y902483D01*
X182529774Y1065079D01*
X182517442Y1094600D01*
X182420111Y1253594D01*
X182292414Y1378408D01*
X182141717Y1468877D01*
X181975389Y1524834D01*
X181800795Y1546114D01*
X181625302Y1532551D01*
X181456277Y1483978D01*
X181301087Y1400230D01*
X181167098Y1281140D01*
X181062118Y1127399D01*
X181020572Y1009693D01*
X180996586Y862974D01*
X180991227Y706276D01*
X180566901Y706276D01*
X180561391Y812264D01*
X180593803Y1046807D01*
X180669003Y1263448D01*
X180784510Y1457135D01*
X180937840Y1622813D01*
X181126513Y1755431D01*
X181170572Y1778697D01*
X181344858Y1853447D01*
X181516183Y1898219D01*
X181702058Y1916353D01*
X181878139Y1913660D01*
G37*
X179495202Y1899512D02*
X179609901Y1873398D01*
X179831003Y1782861D01*
X180022446Y1656464D01*
X180179375Y1498512D01*
X180296935Y1313312D01*
X180331590Y1233246D01*
X180365617Y1139769D01*
X180377236Y1080739D01*
X180359951Y1048239D01*
X180307265Y1034351D01*
X180212682Y1031157D01*
X180165722Y1031100D01*
X179951792Y1031101D01*
X179920886Y1124746D01*
X179854296Y1250606D01*
X179747791Y1361997D01*
X179611616Y1452488D01*
X179456017Y1515646D01*
X179291238Y1545039D01*
X179249352Y1546358D01*
X179067022Y1523590D01*
X178896718Y1459279D01*
X178747169Y1359411D01*
X178627106Y1229974D01*
X178545258Y1076953D01*
X178539060Y1059233D01*
X178505509Y900576D01*
X178499726Y725098D01*
X178520412Y551173D01*
X178566266Y397178D01*
X178589328Y348969D01*
X178695057Y198362D01*
X178829932Y86197D01*
X178977255Y14585D01*
X179155942Y-28426D01*
X179335412Y-28273D01*
X179507225Y11715D01*
X179662943Y88209D01*
X179794127Y197878D01*
X179892337Y337394D01*
X179913920Y384111D01*
X179960553Y497510D01*
X180170103Y497605D01*
X180272821Y496939D01*
X180334937Y492880D01*
X180366648Y482508D01*
X180378150Y462906D01*
X180379653Y437613D01*
X180364128Y362598D01*
X180322577Y262719D01*
X180262531Y151248D01*
X180191522Y41459D01*
X180117082Y-53376D01*
X180078191Y-93619D01*
X179898417Y-228631D01*
X179689560Y-329311D01*
X179462713Y-392413D01*
X179228971Y-414694D01*
X179033453Y-399164D01*
X178840240Y-348443D01*
X178652604Y-265377D01*
X178482913Y-157360D01*
X178343536Y-31789D01*
X178276642Y53335D01*
X178195313Y187659D01*
X178139423Y312613D01*
X178104844Y443362D01*
X178087446Y595070D01*
X178083067Y764400D01*
X178084572Y905306D01*
X178090274Y1009312D01*
X178101951Y1090264D01*
X178121383Y1162006D01*
X178141004Y1215303D01*
X178246650Y1414957D01*
X178392915Y1591474D01*
X178572029Y1737184D01*
X178776222Y1844415D01*
X178779453Y1845698D01*
X178935436Y1889586D01*
X179119408Y1913608D01*
X179312340Y1917128D01*
X179495202Y1899512D01*
G36*
X179495202Y1899512D02*
G01*
X179609901Y1873398D01*
X179831003Y1782861D01*
X180022446Y1656464D01*
X180179375Y1498512D01*
X180296935Y1313312D01*
X180331590Y1233246D01*
X180365617Y1139769D01*
X180377236Y1080739D01*
X180359951Y1048239D01*
X180307265Y1034351D01*
X180212682Y1031157D01*
X180165722Y1031100D01*
X179951792Y1031101D01*
X179920886Y1124746D01*
X179854296Y1250606D01*
X179747791Y1361997D01*
X179611616Y1452488D01*
X179456017Y1515646D01*
X179291238Y1545039D01*
X179249352Y1546358D01*
X179067022Y1523590D01*
X178896718Y1459279D01*
X178747169Y1359411D01*
X178627106Y1229974D01*
X178545258Y1076953D01*
X178539060Y1059233D01*
X178505509Y900576D01*
X178499726Y725098D01*
X178520412Y551173D01*
X178566266Y397178D01*
X178589328Y348969D01*
X178695057Y198362D01*
X178829932Y86197D01*
X178977255Y14585D01*
X179155942Y-28426D01*
X179335412Y-28273D01*
X179507225Y11715D01*
X179662943Y88209D01*
X179794127Y197878D01*
X179892337Y337394D01*
X179913920Y384111D01*
X179960553Y497510D01*
X180170103Y497605D01*
X180272821Y496939D01*
X180334937Y492880D01*
X180366648Y482508D01*
X180378150Y462906D01*
X180379653Y437613D01*
X180364128Y362598D01*
X180322577Y262719D01*
X180262531Y151248D01*
X180191522Y41459D01*
X180117082Y-53376D01*
X180078191Y-93619D01*
X179898417Y-228631D01*
X179689560Y-329311D01*
X179462713Y-392413D01*
X179228971Y-414694D01*
X179033453Y-399164D01*
X178840240Y-348443D01*
X178652604Y-265377D01*
X178482913Y-157360D01*
X178343536Y-31789D01*
X178276642Y53335D01*
X178195313Y187659D01*
X178139423Y312613D01*
X178104844Y443362D01*
X178087446Y595070D01*
X178083067Y764400D01*
X178084572Y905306D01*
X178090274Y1009312D01*
X178101951Y1090264D01*
X178121383Y1162006D01*
X178141004Y1215303D01*
X178246650Y1414957D01*
X178392915Y1591474D01*
X178572029Y1737184D01*
X178776222Y1844415D01*
X178779453Y1845698D01*
X178935436Y1889586D01*
X179119408Y1913608D01*
X179312340Y1917128D01*
X179495202Y1899512D01*
G37*
X188669683Y1897094D02*
X188892047Y1830795D01*
X189090286Y1725287D01*
X189260232Y1584653D01*
X189397712Y1412976D01*
X189498557Y1214338D01*
X189558596Y992822D01*
X189574453Y797164D01*
X189574453Y650100D01*
X187669453Y650100D01*
X187669453Y577002D01*
X187692370Y453851D01*
X187755808Y326328D01*
X187851796Y205202D01*
X187972364Y101244D01*
X188061541Y47261D01*
X188197395Y-4147D01*
X188358057Y-29183D01*
X188371025Y-30096D01*
X188553282Y-27627D01*
X188706956Y9171D01*
X188844648Y84886D01*
X188959346Y184081D01*
X189095166Y319900D01*
X189298421Y319900D01*
X189398964Y319254D01*
X189458186Y315378D01*
X189485563Y305367D01*
X189490572Y286318D01*
X189484883Y262750D01*
X189446570Y177102D01*
X189381652Y74414D01*
X189301927Y-29106D01*
X189219197Y-117246D01*
X189189010Y-143673D01*
X188990143Y-273273D01*
X188767455Y-362737D01*
X188530749Y-410009D01*
X188289826Y-413035D01*
X188078510Y-376504D01*
X187857398Y-292379D01*
X187662578Y-168523D01*
X187498978Y-10054D01*
X187371527Y177910D01*
X187285154Y390251D01*
X187265997Y467201D01*
X187235461Y717258D01*
X187249194Y956839D01*
X187261375Y1005700D01*
X187670710Y1005700D01*
X188393981Y1005700D01*
X188606567Y1005972D01*
X188773652Y1006979D01*
X188900532Y1009006D01*
X188992504Y1012342D01*
X189054865Y1017271D01*
X189092912Y1024080D01*
X189111941Y1033056D01*
X189117250Y1044486D01*
X189117253Y1044812D01*
X189096876Y1126742D01*
X189042178Y1222327D01*
X188962805Y1319778D01*
X188868401Y1407305D01*
X188768614Y1473117D01*
X188765556Y1474674D01*
X188626500Y1522223D01*
X188462386Y1543486D01*
X188291581Y1538540D01*
X188132451Y1507461D01*
X188040713Y1471656D01*
X187894179Y1370014D01*
X187775302Y1228703D01*
X187694918Y1069373D01*
X187670710Y1005700D01*
X187261375Y1005700D01*
X187305020Y1180765D01*
X187400759Y1383857D01*
X187534232Y1560937D01*
X187703261Y1706828D01*
X187816152Y1774811D01*
X188010756Y1858754D01*
X188208079Y1905599D01*
X188427366Y1920100D01*
X188669683Y1897094D01*
G36*
X188669683Y1897094D02*
G01*
X188892047Y1830795D01*
X189090286Y1725287D01*
X189260232Y1584653D01*
X189397712Y1412976D01*
X189498557Y1214338D01*
X189558596Y992822D01*
X189574453Y797164D01*
X189574453Y650100D01*
X187669453Y650100D01*
X187669453Y577002D01*
X187692370Y453851D01*
X187755808Y326328D01*
X187851796Y205202D01*
X187972364Y101244D01*
X188061541Y47261D01*
X188197395Y-4147D01*
X188358057Y-29183D01*
X188371025Y-30096D01*
X188553282Y-27627D01*
X188706956Y9171D01*
X188844648Y84886D01*
X188959346Y184081D01*
X189095166Y319900D01*
X189298421Y319900D01*
X189398964Y319254D01*
X189458186Y315378D01*
X189485563Y305367D01*
X189490572Y286318D01*
X189484883Y262750D01*
X189446570Y177102D01*
X189381652Y74414D01*
X189301927Y-29106D01*
X189219197Y-117246D01*
X189189010Y-143673D01*
X188990143Y-273273D01*
X188767455Y-362737D01*
X188530749Y-410009D01*
X188289826Y-413035D01*
X188078510Y-376504D01*
X187857398Y-292379D01*
X187662578Y-168523D01*
X187498978Y-10054D01*
X187371527Y177910D01*
X187285154Y390251D01*
X187265997Y467201D01*
X187235461Y717258D01*
X187249194Y956839D01*
X187261375Y1005700D01*
X187670710Y1005700D01*
X188393981Y1005700D01*
X188606567Y1005972D01*
X188773652Y1006979D01*
X188900532Y1009006D01*
X188992504Y1012342D01*
X189054865Y1017271D01*
X189092912Y1024080D01*
X189111941Y1033056D01*
X189117250Y1044486D01*
X189117253Y1044812D01*
X189096876Y1126742D01*
X189042178Y1222327D01*
X188962805Y1319778D01*
X188868401Y1407305D01*
X188768614Y1473117D01*
X188765556Y1474674D01*
X188626500Y1522223D01*
X188462386Y1543486D01*
X188291581Y1538540D01*
X188132451Y1507461D01*
X188040713Y1471656D01*
X187894179Y1370014D01*
X187775302Y1228703D01*
X187694918Y1069373D01*
X187670710Y1005700D01*
X187261375Y1005700D01*
X187305020Y1180765D01*
X187400759Y1383857D01*
X187534232Y1560937D01*
X187703261Y1706828D01*
X187816152Y1774811D01*
X188010756Y1858754D01*
X188208079Y1905599D01*
X188427366Y1920100D01*
X188669683Y1897094D01*
G37*
D13*
%TO.C,J3*%
X64163000Y6330500D02*
X64163000Y1650500D01*
X67733000Y8050500D02*
X71983000Y8050500D01*
X67733000Y-69500D02*
X71983000Y-69500D01*
X70383000Y7030500D02*
X70383000Y5750500D01*
X70383000Y5750500D02*
X73273000Y5750500D01*
X70383000Y950500D02*
X70383000Y2230500D01*
X71983000Y8050500D02*
X71983000Y7030500D01*
X71983000Y7030500D02*
X70383000Y7030500D01*
X71983000Y950500D02*
X70383000Y950500D01*
X71983000Y-69500D02*
X71983000Y950500D01*
X96773000Y7930500D02*
X96773000Y6910500D01*
X96773000Y6910500D02*
X98373000Y6910500D01*
X96773000Y830500D02*
X98373000Y830500D01*
X96773000Y-189500D02*
X96773000Y830500D01*
X98373000Y6910500D02*
X98373000Y5630500D01*
X98373000Y2110500D02*
X95483000Y2110500D01*
X98373000Y830500D02*
X98373000Y2110500D01*
X101023000Y7930500D02*
X96773000Y7930500D01*
X101023000Y-189500D02*
X96773000Y-189500D01*
X104593000Y1530500D02*
X104593000Y6210500D01*
D14*
%TO.C,U1*%
X93113000Y52550500D02*
X93113000Y19530500D01*
X93113000Y19530500D02*
X110893000Y19530500D01*
X110893000Y52550500D02*
X93113000Y52550500D01*
X110893000Y19530500D02*
X110893000Y52550500D01*
X58163000Y52490500D02*
X58163000Y19470500D01*
X58163000Y19470500D02*
X75943000Y19470500D01*
X75943000Y52490500D02*
X58163000Y52490500D01*
X75943000Y19470500D02*
X75943000Y52490500D01*
%TD*%
D15*
%TO.C,U1*%
X109623000Y51280500D03*
X109623000Y48740500D03*
X109623000Y46200500D03*
X109623000Y43660500D03*
X109623000Y41120500D03*
X109623000Y38580500D03*
X109623000Y36040500D03*
X109623000Y33500500D03*
X109623000Y30960500D03*
X109623000Y28420500D03*
X109623000Y25880500D03*
X109623000Y23340500D03*
X109623000Y20800500D03*
X94383000Y20800500D03*
X94383000Y23340500D03*
X94383000Y25880500D03*
X94383000Y28420500D03*
X94383000Y30960500D03*
X94383000Y33500500D03*
X94383000Y36040500D03*
X94383000Y38580500D03*
X94383000Y41120500D03*
X94383000Y43660500D03*
X94383000Y46200500D03*
X94383000Y48740500D03*
X94356715Y51280500D03*
X107083000Y25880500D03*
X104543000Y25880500D03*
X102003000Y25880500D03*
%TD*%
%TO.C,U1*%
X74673000Y51220500D03*
X74673000Y48680500D03*
X74673000Y46140500D03*
X74673000Y43600500D03*
X74673000Y41060500D03*
X74673000Y38520500D03*
X74673000Y35980500D03*
X74673000Y33440500D03*
X74673000Y30900500D03*
X74673000Y28360500D03*
X74673000Y25820500D03*
X74673000Y23280500D03*
X74673000Y20740500D03*
X59433000Y20740500D03*
X59433000Y23280500D03*
X59433000Y25820500D03*
X59433000Y28360500D03*
X59433000Y30900500D03*
X59433000Y33440500D03*
X59433000Y35980500D03*
X59433000Y38520500D03*
X59433000Y41060500D03*
X59433000Y43600500D03*
X59433000Y46140500D03*
X59433000Y48680500D03*
X59406715Y51220500D03*
X72133000Y25820500D03*
X69593000Y25820500D03*
X67053000Y25820500D03*
%TD*%
%LPC*%
D16*
%TO.C,J5*%
X-55018250Y-1694500D03*
X-54424500Y-1694500D03*
X-53830750Y-1694500D03*
X-53237000Y-1694500D03*
X-52643250Y-1694500D03*
X-52049500Y-1694500D03*
X-51455750Y-1694500D03*
X-50862000Y-1694500D03*
X-50268250Y-1694500D03*
%TD*%
%TO.C,J5*%
X-17030000Y-1694500D03*
X-16436250Y-1694500D03*
X-15842500Y-1694500D03*
X-15248750Y-1694500D03*
X-14655000Y-1694500D03*
X-14061250Y-1694500D03*
X-13467500Y-1694500D03*
X-12873750Y-1694500D03*
X-12280000Y-1694500D03*
%TD*%
%TO.C,J5*%
X-16927000Y59715500D03*
X-16333250Y59715500D03*
X-15739500Y59715500D03*
X-15145750Y59715500D03*
X-14552000Y59715500D03*
X-13958250Y59715500D03*
X-13364500Y59715500D03*
X-12770750Y59715500D03*
X-12177000Y59715500D03*
%TD*%
%TO.C,J5*%
X21043000Y59715500D03*
X21636750Y59715500D03*
X22230500Y59715500D03*
X22824250Y59715500D03*
X23418000Y59715500D03*
X24011750Y59715500D03*
X24605500Y59715500D03*
X25199250Y59715500D03*
X25793000Y59715500D03*
%TD*%
%TO.C,J5*%
X143340653Y59705500D03*
X143934403Y59705500D03*
X144528153Y59705500D03*
X145121903Y59705500D03*
X145715653Y59705500D03*
X146309403Y59705500D03*
X146903153Y59705500D03*
X147496903Y59705500D03*
X148090653Y59705500D03*
%TD*%
%TO.C,J5*%
X181360653Y59715500D03*
X181954403Y59715500D03*
X182548153Y59715500D03*
X183141903Y59715500D03*
X183735653Y59715500D03*
X184329403Y59715500D03*
X184923153Y59715500D03*
X185516903Y59715500D03*
X186110653Y59715500D03*
%TD*%
%TO.C,J5*%
X219390653Y-1704500D03*
X219984403Y-1704500D03*
X220578153Y-1704500D03*
X221171903Y-1704500D03*
X221765653Y-1704500D03*
X222359403Y-1704500D03*
X222953153Y-1704500D03*
X223546903Y-1704500D03*
X224140653Y-1704500D03*
%TD*%
%TO.C,J5*%
X181390653Y-1704500D03*
X181984403Y-1704500D03*
X182578153Y-1704500D03*
X183171903Y-1704500D03*
X183765653Y-1704500D03*
X184359403Y-1704500D03*
X184953153Y-1704500D03*
X185546903Y-1704500D03*
X186140653Y-1704500D03*
%TD*%
D17*
%TO.C,J7*%
X110033000Y17240500D03*
D18*
X107493000Y17240500D03*
X104953000Y17240500D03*
X102413000Y17240500D03*
X99873000Y17240500D03*
X97333000Y17240500D03*
X94793000Y17240500D03*
%TD*%
D19*
%TO.C,REF\u002A\u002A*%
X78673000Y46180500D03*
%TD*%
%TO.C,REF\u002A\u002A*%
X55173000Y21680500D03*
%TD*%
D17*
%TO.C,J7*%
X75083000Y17180500D03*
D18*
X72543000Y17180500D03*
X70003000Y17180500D03*
X67463000Y17180500D03*
X64923000Y17180500D03*
X62383000Y17180500D03*
X59843000Y17180500D03*
%TD*%
D20*
%TO.C,J3*%
X71523000Y4990500D03*
X71523000Y2990500D03*
D21*
X65773000Y7340500D03*
X65773000Y640500D03*
%TD*%
D19*
%TO.C,REF\u002A\u002A*%
X78673000Y21680500D03*
%TD*%
%TO.C,REF\u002A\u002A*%
X55173000Y46180500D03*
%TD*%
%TO.C,REF\u002A\u002A*%
X90123000Y21740500D03*
%TD*%
D22*
%TO.C,RST*%
X87648000Y11315500D03*
X94048000Y11315500D03*
D23*
X93123000Y13040500D03*
X88573000Y13040500D03*
%TD*%
D19*
%TO.C,REF\u002A\u002A*%
X90123000Y46240500D03*
%TD*%
D24*
%TO.C,J3*%
X97233000Y2870500D03*
X97233000Y4870500D03*
D25*
X102983000Y520500D03*
X102983000Y7220500D03*
%TD*%
D22*
%TO.C,RST*%
X74873000Y11690500D03*
X81273000Y11690500D03*
D23*
X80348000Y13415500D03*
X75798000Y13415500D03*
%TD*%
D19*
%TO.C,REF\u002A\u002A*%
X113623000Y46240500D03*
%TD*%
%TO.C,REF\u002A\u002A*%
X113623000Y21740500D03*
%TD*%
D26*
%TO.C,D34*%
X213623000Y4765068D03*
D27*
X213623000Y10765068D03*
%TD*%
D26*
%TO.C,D36*%
X175623000Y9765068D03*
D27*
X175623000Y15765068D03*
%TD*%
D26*
%TO.C,D37*%
X172623000Y9770068D03*
D27*
X172623000Y15770068D03*
%TD*%
D26*
%TO.C,D38*%
X137623000Y9765068D03*
D27*
X137623000Y15765068D03*
%TD*%
D26*
%TO.C,D39*%
X134623000Y9765068D03*
D27*
X134623000Y15765068D03*
%TD*%
D26*
%TO.C,D40*%
X163123000Y-10244932D03*
D27*
X163123000Y-4244932D03*
%TD*%
D26*
%TO.C,D41*%
X147133000Y-10229932D03*
D27*
X147133000Y-4229932D03*
%TD*%
D26*
%TO.C,D42*%
X144133000Y-10229932D03*
D27*
X144133000Y-4229932D03*
%TD*%
D26*
%TO.C,D22*%
X213623000Y42765068D03*
D27*
X213623000Y48765068D03*
%TD*%
D26*
%TO.C,D23*%
X210623000Y42765068D03*
D27*
X210623000Y48765068D03*
%TD*%
D26*
%TO.C,D24*%
X175623000Y47765068D03*
D27*
X175623000Y53765068D03*
%TD*%
D26*
%TO.C,D25*%
X172623000Y47770068D03*
D27*
X172623000Y53770068D03*
%TD*%
D26*
%TO.C,D26*%
X137623000Y47765068D03*
D27*
X137623000Y53765068D03*
%TD*%
D26*
%TO.C,D27*%
X134623000Y47765068D03*
D27*
X134623000Y53765068D03*
%TD*%
D26*
%TO.C,D28*%
X213623000Y23765068D03*
D27*
X213623000Y29765068D03*
%TD*%
D26*
%TO.C,D29*%
X210623000Y23765068D03*
D27*
X210623000Y29765068D03*
%TD*%
D26*
%TO.C,D30*%
X175623000Y28765068D03*
D27*
X175623000Y34765068D03*
%TD*%
D26*
%TO.C,D31*%
X172623000Y28770068D03*
D27*
X172623000Y34770068D03*
%TD*%
D26*
%TO.C,D32*%
X137623000Y28765068D03*
D27*
X137623000Y34765068D03*
%TD*%
D26*
%TO.C,D14*%
X-41652000Y4765500D03*
D27*
X-41652000Y10765500D03*
%TD*%
D26*
%TO.C,D8*%
X-41652000Y23765500D03*
D27*
X-41652000Y29765500D03*
%TD*%
D26*
%TO.C,D2*%
X-41652000Y42765500D03*
D27*
X-41652000Y48765500D03*
%TD*%
D26*
%TO.C,D33*%
X134623000Y28765068D03*
D27*
X134623000Y34765068D03*
%TD*%
D26*
%TO.C,D21*%
X24848000Y-10219500D03*
D27*
X24848000Y-4219500D03*
%TD*%
D26*
%TO.C,D20*%
X21848000Y-10219500D03*
D27*
X21848000Y-4219500D03*
%TD*%
D26*
%TO.C,D19*%
X5668000Y-10224500D03*
D27*
X5668000Y-4224500D03*
%TD*%
D26*
%TO.C,D18*%
X34348000Y9765500D03*
D27*
X34348000Y15765500D03*
%TD*%
D26*
%TO.C,D17*%
X31348000Y9765500D03*
D27*
X31348000Y15765500D03*
%TD*%
D26*
%TO.C,D16*%
X-3652000Y9770500D03*
D27*
X-3652000Y15770500D03*
%TD*%
D26*
%TO.C,D15*%
X-6652000Y9765500D03*
D27*
X-6652000Y15765500D03*
%TD*%
D26*
%TO.C,D13*%
X-44652000Y4768625D03*
D27*
X-44652000Y10768625D03*
%TD*%
D26*
%TO.C,D12*%
X34348000Y28765500D03*
D27*
X34348000Y34765500D03*
%TD*%
D26*
%TO.C,D11*%
X31348000Y28765500D03*
D27*
X31348000Y34765500D03*
%TD*%
D26*
%TO.C,D10*%
X-3652000Y28770500D03*
D27*
X-3652000Y34770500D03*
%TD*%
D26*
%TO.C,D9*%
X-6652000Y28765500D03*
D27*
X-6652000Y34765500D03*
%TD*%
D26*
%TO.C,D7*%
X-44652000Y23768625D03*
D27*
X-44652000Y29768625D03*
%TD*%
D26*
%TO.C,D6*%
X34348000Y47765500D03*
D27*
X34348000Y53765500D03*
%TD*%
D26*
%TO.C,D5*%
X31348000Y47765500D03*
D27*
X31348000Y53765500D03*
%TD*%
D26*
%TO.C,D4*%
X-3652000Y47770500D03*
D27*
X-3652000Y53770500D03*
%TD*%
D26*
%TO.C,D3*%
X-6652000Y47765500D03*
D27*
X-6652000Y53765500D03*
%TD*%
D26*
%TO.C,D1*%
X-44652000Y42768625D03*
D27*
X-44652000Y48768625D03*
%TD*%
D26*
%TO.C,D35*%
X210623000Y4765068D03*
D27*
X210623000Y10765068D03*
%TD*%
D28*
%TO.C,Ref\u002A\u002A*%
X-43144000Y17265000D03*
%TD*%
%TO.C,Ref\u002A\u002A*%
X32811000Y39755000D03*
%TD*%
%TO.C,Ref\u002A\u002A*%
X-43144000Y36265000D03*
%TD*%
%TO.C,Ref\u002A\u002A*%
X0Y0D03*
%TD*%
%TO.C,Ref\u002A\u002A*%
X46566000Y-7614500D03*
%TD*%
%TO.C,Ref\u002A\u002A*%
X136174000Y39748568D03*
%TD*%
%TO.C,Ref\u002A\u002A*%
X122424000Y-7761432D03*
%TD*%
%TO.C,Ref\u002A\u002A*%
X168994000Y-11432D03*
%TD*%
%TO.C,Ref\u002A\u002A*%
X212134000Y36258568D03*
%TD*%
%TO.C,Ref\u002A\u002A*%
X212134000Y17258568D03*
%TD*%
%TO.C,Ref\u002A\u002A*%
X-24127000Y17240500D03*
%TD*%
%TO.C,Ref\u002A\u002A*%
X-24127000Y36240500D03*
%TD*%
%TO.C,Ref\u002A\u002A*%
X193150653Y17258568D03*
%TD*%
%TO.C,Ref\u002A\u002A*%
X193150653Y36258568D03*
%TD*%
D29*
%TO.C,U1*%
X109623000Y51280500D03*
X109623000Y48740500D03*
X109623000Y46200500D03*
X109623000Y43660500D03*
X109623000Y41120500D03*
X109623000Y38580500D03*
X109623000Y36040500D03*
X109623000Y33500500D03*
X109623000Y30960500D03*
X109623000Y28420500D03*
X109623000Y25880500D03*
X109623000Y23340500D03*
X109623000Y20800500D03*
X94383000Y20800500D03*
X94383000Y23340500D03*
X94383000Y25880500D03*
X94383000Y28420500D03*
X94383000Y30960500D03*
X94383000Y33500500D03*
X94383000Y36040500D03*
X94383000Y38580500D03*
X94383000Y41120500D03*
X94383000Y43660500D03*
X94383000Y46200500D03*
X94383000Y48740500D03*
X94356715Y51280500D03*
X107083000Y25880500D03*
X104543000Y25880500D03*
X102003000Y25880500D03*
%TD*%
D30*
%TO.C,PSW2*%
X100373000Y52740500D03*
X103373000Y52740500D03*
%TD*%
D29*
%TO.C,U1*%
X74673000Y51220500D03*
X74673000Y48680500D03*
X74673000Y46140500D03*
X74673000Y43600500D03*
X74673000Y41060500D03*
X74673000Y38520500D03*
X74673000Y35980500D03*
X74673000Y33440500D03*
X74673000Y30900500D03*
X74673000Y28360500D03*
X74673000Y25820500D03*
X74673000Y23280500D03*
X74673000Y20740500D03*
X59433000Y20740500D03*
X59433000Y23280500D03*
X59433000Y25820500D03*
X59433000Y28360500D03*
X59433000Y30900500D03*
X59433000Y33440500D03*
X59433000Y35980500D03*
X59433000Y38520500D03*
X59433000Y41060500D03*
X59433000Y43600500D03*
X59433000Y46140500D03*
X59433000Y48680500D03*
X59406715Y51220500D03*
X72133000Y25820500D03*
X69593000Y25820500D03*
X67053000Y25820500D03*
%TD*%
D30*
%TO.C,PSW2*%
X65723000Y52680500D03*
X68723000Y52680500D03*
%TD*%
%LPD*%
M02*
