M48
; DRILL file {KiCad 8.0.3} date 2024-08-02T01:30:14+0100
; FORMAT={-:-/ absolute / inch / decimal}
; #@! TF.CreationDate,2024-08-02T01:30:14+01:00
; #@! TF.GenerationSoftware,Kicad,Pcbnew,8.0.3
; #@! TF.FileFunction,Plated,1,2,PTH
FMAT,2
INCH
; #@! TA.AperFunction,Plated,PTH,ComponentDrill
T1C0.0118
; #@! TA.AperFunction,Plated,PTH,ViaDrill
T2C0.0157
; #@! TA.AperFunction,Plated,PTH,ComponentDrill
T3C0.0157
; #@! TA.AperFunction,Plated,PTH,ComponentDrill
T4C0.0320
; #@! TA.AperFunction,Plated,PTH,ComponentDrill
T5C0.0394
; #@! TA.AperFunction,Plated,PTH,ComponentDrill
T6C0.0430
; #@! TA.AperFunction,Plated,PTH,ComponentDrill
T7C0.0551
%
G90
G05
T2
X-1.5804Y0.9557
X-1.451Y0.8737
X-0.7069Y0.7962
X0.0314Y0.8069
X0.7857Y0.8294
X1.5411Y0.7421
X2.5993Y0.9347
X2.7371Y0.3225
X3.5836Y0.5606
X3.7371Y0.5606
X3.8572Y1.5547
X4.1958Y0.8205
X4.3277Y2.1276
X4.8379Y0.7262
X5.5694Y0.8209
X6.3143Y0.8419
X7.0599Y0.8598
X8.2119Y0.9043
T4
X-1.758Y1.92
X-1.758Y1.6838
X-1.758Y1.172
X-1.758Y0.9358
X-1.758Y0.424
X-1.758Y0.1877
X-1.6398Y1.9199
X-1.6398Y1.6837
X-1.6398Y1.1719
X-1.6398Y0.9356
X-1.6398Y0.4238
X-1.6398Y0.1876
X-0.2619Y2.1168
X-0.2619Y1.8805
X-0.2619Y1.3687
X-0.2619Y1.1325
X-0.2619Y0.6207
X-0.2619Y0.3845
X-0.1438Y2.1169
X-0.1438Y1.8807
X-0.1438Y1.3689
X-0.1438Y1.1327
X-0.1438Y0.6209
X-0.1438Y0.3847
X0.2231Y-0.1663
X0.2231Y-0.4025
X0.8602Y-0.1661
X0.8602Y-0.4023
X0.9783Y-0.1661
X0.9783Y-0.4023
X1.2342Y2.1168
X1.2342Y1.8805
X1.2342Y1.3687
X1.2342Y1.1325
X1.2342Y0.6207
X1.2342Y0.3845
X1.3523Y2.1168
X1.3523Y1.8805
X1.3523Y1.3687
X1.3523Y1.1325
X1.3523Y0.6207
X1.3523Y0.3845
X5.3001Y2.1167
X5.3001Y1.8805
X5.3001Y1.3687
X5.3001Y1.1325
X5.3001Y0.6207
X5.3001Y0.3845
X5.4182Y2.1167
X5.4182Y1.8805
X5.4182Y1.3687
X5.4182Y1.1325
X5.4182Y0.6207
X5.4182Y0.3845
X5.6745Y-0.1665
X5.6745Y-0.4028
X5.7926Y-0.1665
X5.7926Y-0.4028
X6.4222Y-0.1671
X6.4222Y-0.4033
X6.7962Y2.1169
X6.7962Y1.8807
X6.7962Y1.3689
X6.7962Y1.1327
X6.7962Y0.6209
X6.7962Y0.3846
X6.9143Y2.1167
X6.9143Y1.8805
X6.9143Y1.3687
X6.9143Y1.1325
X6.9143Y0.6207
X6.9143Y0.3845
X8.2922Y1.9199
X8.2922Y1.6837
X8.2922Y1.1719
X8.2922Y0.9356
X8.2922Y0.4238
X8.2922Y0.1876
X8.4104Y1.9199
X8.4104Y1.6837
X8.4104Y1.1719
X8.4104Y0.9356
X8.4104Y0.4238
X8.4104Y0.1876
T5
X2.356Y0.6764
X2.456Y0.6764
X2.556Y0.6764
X2.656Y0.6764
X2.756Y0.6764
X2.856Y0.6764
X2.956Y0.6764
X3.732Y0.6788
X3.832Y0.6788
X3.932Y0.6788
X4.032Y0.6788
X4.132Y0.6788
X4.232Y0.6788
X4.332Y0.6788
T6
X2.3388Y2.0166
X2.3399Y1.9166
X2.3399Y1.8166
X2.3399Y1.7166
X2.3399Y1.6166
X2.3399Y1.5166
X2.3399Y1.4166
X2.3399Y1.3166
X2.3399Y1.2166
X2.3399Y1.1166
X2.3399Y1.0166
X2.3399Y0.9166
X2.3399Y0.8166
X2.6399Y1.0166
X2.7399Y1.0166
X2.8399Y1.0166
X2.9399Y2.0166
X2.9399Y1.9166
X2.9399Y1.8166
X2.9399Y1.7166
X2.9399Y1.6166
X2.9399Y1.5166
X2.9399Y1.4166
X2.9399Y1.3166
X2.9399Y1.2166
X2.9399Y1.1166
X2.9399Y1.0166
X2.9399Y0.9166
X2.9399Y0.8166
X3.7148Y2.0189
X3.7159Y1.9189
X3.7159Y1.8189
X3.7159Y1.7189
X3.7159Y1.6189
X3.7159Y1.5189
X3.7159Y1.4189
X3.7159Y1.3189
X3.7159Y1.2189
X3.7159Y1.1189
X3.7159Y1.0189
X3.7159Y0.9189
X3.7159Y0.8189
X4.0159Y1.0189
X4.1159Y1.0189
X4.2159Y1.0189
X4.3159Y2.0189
X4.3159Y1.9189
X4.3159Y1.8189
X4.3159Y1.7189
X4.3159Y1.6189
X4.3159Y1.5189
X4.3159Y1.4189
X4.3159Y1.3189
X4.3159Y1.2189
X4.3159Y1.1189
X4.3159Y1.0189
X4.3159Y0.9189
X4.3159Y0.8189
T7
X-2.2225Y1.9022
X-2.2225Y1.1542
X-2.2225Y0.4061
X-2.1713Y1.9593
X-2.1713Y1.2112
X-2.1713Y0.4632
X-1.4745Y1.9022
X-1.4745Y1.1542
X-1.4745Y0.4061
X-1.4233Y1.9593
X-1.4233Y1.2112
X-1.4233Y0.4632
X-0.7265Y2.0892
X-0.7265Y1.3412
X-0.7265Y0.5931
X-0.6753Y2.1463
X-0.6753Y1.3982
X-0.6753Y0.6502
X0.0216Y2.1827
X0.0216Y1.4347
X0.0216Y0.6866
X0.0728Y2.2398
X0.0728Y1.4918
X0.0728Y0.7437
X0.3956Y-0.1795
X0.4468Y-0.1224
X0.7696Y2.0892
X0.7696Y1.3412
X0.7696Y0.5931
X0.8208Y2.1463
X0.8208Y1.3982
X0.8208Y0.6502
X1.2534Y-0.2525
X1.3177Y-0.2106
X1.5176Y1.9957
X1.5176Y1.2477
X1.5176Y0.4996
X1.5688Y2.0528
X1.5688Y1.3047
X1.5688Y0.5567
X2.0624Y-0.5423
X2.0862Y-0.6152
X4.4166Y-0.3561
X4.4916Y-0.3718
X4.8356Y1.9957
X4.8356Y1.2476
X4.8356Y0.4996
X4.8867Y2.0528
X4.8867Y1.3047
X4.8867Y0.5567
X5.1099Y-0.3299
X5.1446Y-0.2615
X5.5836Y2.0892
X5.5836Y1.3411
X5.5836Y0.5931
X5.6348Y2.1463
X5.6348Y1.3982
X5.6348Y0.6502
X5.9576Y-0.1795
X6.0088Y-0.1224
X6.3316Y2.1827
X6.3316Y1.4346
X6.3316Y0.6866
X6.3828Y2.2398
X6.3828Y1.4917
X6.3828Y0.7437
X7.0796Y2.0892
X7.0796Y1.3411
X7.0796Y0.5931
X7.1308Y2.1463
X7.1308Y1.3982
X7.1308Y0.6502
X7.8277Y1.9022
X7.8277Y1.1541
X7.8277Y0.4061
X7.8789Y1.9593
X7.8789Y1.2112
X7.8789Y0.4632
X8.5757Y1.9022
X8.5757Y1.1541
X8.5757Y0.4061
X8.6269Y1.9593
X8.6269Y1.2112
X8.6269Y0.4632
T1
G00X-2.0867Y1.5695
M15
G01X-2.0591Y1.5695
M16
G05
G00X-2.0867Y0.8215
M15
G01X-2.0591Y0.8215
M16
G05
G00X-2.0867Y0.0734
M15
G01X-2.0591Y0.0734
M16
G05
G00X-1.8898Y2.0202
M15
G01X-1.8623Y2.0204
M16
G05
G00X-1.8898Y1.2721
M15
G01X-1.8623Y1.2724
M16
G05
G00X-1.8898Y0.5241
M15
G01X-1.8623Y0.5244
M16
G05
G00X-1.3387Y1.5695
M15
G01X-1.3111Y1.5695
M16
G05
G00X-1.3387Y0.8215
M15
G01X-1.3111Y0.8215
M16
G05
G00X-1.3387Y0.0734
M15
G01X-1.3111Y0.0734
M16
G05
G00X-1.1418Y2.0202
M15
G01X-1.1143Y2.0204
M16
G05
G00X-1.1418Y1.2721
M15
G01X-1.1143Y1.2724
M16
G05
G00X-1.1418Y0.5241
M15
G01X-1.1143Y0.5244
M16
G05
G00X-0.5906Y1.7565
M15
G01X-0.5631Y1.7565
M16
G05
G00X-0.5906Y1.0085
M15
G01X-0.5631Y1.0085
M16
G05
G00X-0.5906Y0.2605
M15
G01X-0.5631Y0.2605
M16
G05
G00X-0.3938Y2.2072
M15
G01X-0.3662Y2.2074
M16
G05
G00X-0.3938Y1.4592
M15
G01X-0.3662Y1.4594
M16
G05
G00X-0.3938Y0.7111
M15
G01X-0.3662Y0.7114
M16
G05
G00X0.1574Y1.85
M15
G01X0.185Y1.85
M16
G05
G00X0.1574Y1.102
M15
G01X0.185Y1.102
M16
G05
G00X0.1574Y0.354
M15
G01X0.185Y0.354
M16
G05
G00X0.3543Y2.3007
M15
G01X0.3818Y2.3009
M16
G05
G00X0.3543Y1.5527
M15
G01X0.3818Y1.5529
M16
G05
G00X0.3543Y0.8046
M15
G01X0.3818Y0.8049
M16
G05
G00X0.5314Y-0.5122
M15
G01X0.559Y-0.5122
M16
G05
G00X0.7283Y-0.0615
M15
G01X0.7558Y-0.0613
M16
G05
G00X0.9054Y1.7565
M15
G01X0.933Y1.7565
M16
G05
G00X0.9054Y1.0085
M15
G01X0.933Y1.0085
M16
G05
G00X0.9054Y0.2605
M15
G01X0.933Y0.2605
M16
G05
G00X1.1023Y2.2072
M15
G01X1.1298Y2.2074
M16
G05
G00X1.1023Y1.4592
M15
G01X1.1298Y1.4594
M16
G05
G00X1.1023Y0.7111
M15
G01X1.1298Y0.7114
M16
G05
G00X1.2985Y-0.609
M15
G01X1.3252Y-0.6161
M16
G05
G00X1.6053Y-0.2246
M15
G01X1.632Y-0.2315
M16
G05
G00X1.6535Y1.663
M15
G01X1.681Y1.663
M16
G05
G00X1.6535Y0.915
M15
G01X1.681Y0.915
M16
G05
G00X1.6535Y0.1669
M15
G01X1.681Y0.1669
M16
G05
G00X1.8503Y2.1137
M15
G01X1.8779Y2.1139
M16
G05
G00X1.8503Y1.3656
M15
G01X1.8779Y1.3659
M16
G05
G00X1.8503Y0.6176
M15
G01X1.8779Y0.6179
M16
G05
G00X2.1504Y-0.2681
M15
G01X2.1639Y-0.2441
M16
G05
G00X2.4422Y-0.6639
M15
G01X2.456Y-0.64
M16
G05
G00X4.1964Y-0.64
M15
G01X4.2102Y-0.6639
M16
G05
G00X4.6851Y-0.5852
M15
G01X4.6991Y-0.6089
M16
G05
G00X4.9714Y1.663
M15
G01X4.9989Y1.663
M16
G05
G00X4.9714Y0.915
M15
G01X4.9989Y0.915
M16
G05
G00X4.9714Y0.1669
M15
G01X4.9989Y0.1669
M16
G05
G00X5.1682Y2.1137
M15
G01X5.1958Y2.1139
M16
G05
G00X5.1682Y1.3656
M15
G01X5.1958Y1.3659
M16
G05
G00X5.1682Y0.6176
M15
G01X5.1958Y0.6178
M16
G05
G00X5.3272Y-0.6161
M15
G01X5.3539Y-0.609
M16
G05
G00X5.4007Y-0.1299
M15
G01X5.4273Y-0.1225
M16
G05
G00X5.7194Y1.7565
M15
G01X5.747Y1.7565
M16
G05
G00X5.7194Y1.0085
M15
G01X5.747Y1.0085
M16
G05
G00X5.7194Y0.2604
M15
G01X5.747Y0.2604
M16
G05
G00X5.9163Y2.2072
M15
G01X5.9438Y2.2074
M16
G05
G00X5.9163Y1.4591
M15
G01X5.9438Y1.4594
M16
G05
G00X5.9163Y0.7111
M15
G01X5.9438Y0.7113
M16
G05
G00X6.0934Y-0.5122
M15
G01X6.121Y-0.5122
M16
G05
G00X6.2903Y-0.0615
M15
G01X6.3178Y-0.0613
M16
G05
G00X6.4674Y1.85
M15
G01X6.495Y1.85
M16
G05
G00X6.4674Y1.102
M15
G01X6.495Y1.102
M16
G05
G00X6.4674Y0.3539
M15
G01X6.495Y0.3539
M16
G05
G00X6.6643Y2.3007
M15
G01X6.6918Y2.3009
M16
G05
G00X6.6643Y1.5526
M15
G01X6.6918Y1.5529
M16
G05
G00X6.6643Y0.8046
M15
G01X6.6918Y0.8048
M16
G05
G00X7.2155Y1.7565
M15
G01X7.243Y1.7565
M16
G05
G00X7.2155Y1.0085
M15
G01X7.243Y1.0085
M16
G05
G00X7.2155Y0.2604
M15
G01X7.243Y0.2604
M16
G05
G00X7.4123Y2.2072
M15
G01X7.4399Y2.2074
M16
G05
G00X7.4123Y1.4591
M15
G01X7.4399Y1.4594
M16
G05
G00X7.4123Y0.7111
M15
G01X7.4399Y0.7113
M16
G05
G00X7.9635Y1.5695
M15
G01X7.9911Y1.5695
M16
G05
G00X7.9635Y0.8215
M15
G01X7.9911Y0.8215
M16
G05
G00X7.9635Y0.0734
M15
G01X7.9911Y0.0734
M16
G05
G00X8.1604Y2.0202
M15
G01X8.1879Y2.0204
M16
G05
G00X8.1604Y1.2721
M15
G01X8.1879Y1.2724
M16
G05
G00X8.1604Y0.5241
M15
G01X8.1879Y0.5243
M16
G05
G00X8.7115Y1.5695
M15
G01X8.7391Y1.5695
M16
G05
G00X8.7115Y0.8215
M15
G01X8.7391Y0.8215
M16
G05
G00X8.7115Y0.0734
M15
G01X8.7391Y0.0734
M16
G05
G00X8.9084Y2.0202
M15
G01X8.9359Y2.0204
M16
G05
G00X8.9084Y1.2721
M15
G01X8.9359Y1.2724
M16
G05
G00X8.9084Y0.5241
M15
G01X8.9359Y0.5243
M16
G05
T3
G00X-2.2855Y1.6482
M15
G01X-2.2619Y1.6482
M16
G05
G00X-2.2855Y0.9002
M15
G01X-2.2619Y0.9002
M16
G05
G00X-2.2855Y0.1522
M15
G01X-2.2619Y0.1522
M16
G05
G00X-1.5375Y1.6482
M15
G01X-1.5139Y1.6482
M16
G05
G00X-1.5375Y0.9002
M15
G01X-1.5139Y0.9002
M16
G05
G00X-1.5375Y0.1522
M15
G01X-1.5139Y0.1522
M16
G05
G00X-0.7894Y1.8353
M15
G01X-0.7658Y1.8353
M16
G05
G00X-0.7894Y1.0872
M15
G01X-0.7658Y1.0872
M16
G05
G00X-0.7894Y0.3392
M15
G01X-0.7658Y0.3392
M16
G05
G00X-0.0414Y1.9288
M15
G01X-0.0178Y1.9288
M16
G05
G00X-0.0414Y1.1807
M15
G01X-0.0178Y1.1807
M16
G05
G00X-0.0414Y0.4327
M15
G01X-0.0178Y0.4327
M16
G05
G00X0.3326Y-0.4334
M15
G01X0.3562Y-0.4334
M16
G05
G00X0.7066Y1.8353
M15
G01X0.7302Y1.8353
M16
G05
G00X0.7066Y1.0872
M15
G01X0.7302Y1.0872
M16
G05
G00X0.7066Y0.3392
M15
G01X0.7302Y0.3392
M16
G05
G00X1.1269Y-0.4815
M15
G01X1.1497Y-0.4876
M16
G05
G00X1.4546Y1.7418
M15
G01X1.4783Y1.7418
M16
G05
G00X1.4546Y0.9937
M15
G01X1.4783Y0.9937
M16
G05
G00X1.4546Y0.2457
M15
G01X1.4783Y0.2457
M16
G05
G00X2.2746Y-0.7967
M15
G01X2.2864Y-0.7762
M16
G05
G00X4.1652Y-0.4285
M15
G01X4.177Y-0.4489
M16
G05
G00X4.7726Y1.7417
M15
G01X4.7962Y1.7417
M16
G05
G00X4.7726Y0.9937
M15
G01X4.7962Y0.9937
M16
G05
G00X4.7726Y0.2457
M15
G01X4.7962Y0.2457
M16
G05
G00X5.1148Y-0.5915
M15
G01X5.1376Y-0.5854
M16
G05
G00X5.5206Y1.8352
M15
G01X5.5442Y1.8352
M16
G05
G00X5.5206Y1.0872
M15
G01X5.5442Y1.0872
M16
G05
G00X5.5206Y0.3392
M15
G01X5.5442Y0.3392
M16
G05
G00X5.8946Y-0.4335
M15
G01X5.9182Y-0.4335
M16
G05
G00X6.2686Y1.9287
M15
G01X6.2922Y1.9287
M16
G05
G00X6.2686Y1.1807
M15
G01X6.2922Y1.1807
M16
G05
G00X6.2686Y0.4327
M15
G01X6.2922Y0.4327
M16
G05
G00X7.0167Y1.8352
M15
G01X7.0403Y1.8352
M16
G05
G00X7.0167Y1.0872
M15
G01X7.0403Y1.0872
M16
G05
G00X7.0167Y0.3392
M15
G01X7.0403Y0.3392
M16
G05
G00X7.7647Y1.6482
M15
G01X7.7883Y1.6482
M16
G05
G00X7.7647Y0.9002
M15
G01X7.7883Y0.9002
M16
G05
G00X7.7647Y0.1522
M15
G01X7.7883Y0.1522
M16
G05
G00X8.5127Y1.6482
M15
G01X8.5363Y1.6482
M16
G05
G00X8.5127Y0.9002
M15
G01X8.5363Y0.9002
M16
G05
G00X8.5127Y0.1522
M15
G01X8.5363Y0.1522
M16
G05
T7
G00X-1.9745Y2.0016
M15
G01X-1.9745Y1.9799
M16
G05
G00X-1.9745Y1.2536
M15
G01X-1.9745Y1.2319
M16
G05
G00X-1.9745Y0.5055
M15
G01X-1.9745Y0.4839
M16
G05
G00X-1.2265Y2.0016
M15
G01X-1.2265Y1.9799
M16
G05
G00X-1.2265Y1.2536
M15
G01X-1.2265Y1.2319
M16
G05
G00X-1.2265Y0.5055
M15
G01X-1.2265Y0.4839
M16
G05
G00X-0.4784Y2.1886
M15
G01X-0.4784Y2.1669
M16
G05
G00X-0.4784Y1.4406
M15
G01X-0.4784Y1.4189
M16
G05
G00X-0.4784Y0.6925
M15
G01X-0.4784Y0.6709
M16
G05
G00X0.2696Y2.2821
M15
G01X0.2696Y2.2605
M16
G05
G00X0.2696Y1.5341
M15
G01X0.2696Y1.5124
M16
G05
G00X0.2696Y0.786
M15
G01X0.2696Y0.7644
M16
G05
G00X0.6436Y-0.0801
M15
G01X0.6436Y-0.1018
M16
G05
G00X1.0176Y2.1886
M15
G01X1.0176Y2.1669
M16
G05
G00X1.0176Y1.4406
M15
G01X1.0176Y1.4189
M16
G05
G00X1.0176Y0.6925
M15
G01X1.0176Y0.6709
M16
G05
G00X1.5188Y-0.2206
M15
G01X1.5131Y-0.2416
M16
G05
G00X1.7657Y2.0951
M15
G01X1.7657Y2.0734
M16
G05
G00X1.7657Y1.3471
M15
G01X1.7657Y1.3254
M16
G05
G00X1.7657Y0.599
M15
G01X1.7657Y0.5774
M16
G05
G00X2.1241Y-0.3507
M15
G01X2.1429Y-0.3615
M16
G05
G00X4.6267Y-0.5212
M15
G01X4.6079Y-0.532
M16
G05
G00X5.0836Y2.0951
M15
G01X5.0836Y2.0734
M16
G05
G00X5.0836Y1.347
M15
G01X5.0836Y1.3254
M16
G05
G00X5.0836Y0.599
M15
G01X5.0836Y0.5774
M16
G05
G00X5.3238Y-0.1697
M15
G01X5.3294Y-0.1906
M16
G05
G00X5.8316Y2.1886
M15
G01X5.8316Y2.1669
M16
G05
G00X5.8316Y1.4406
M15
G01X5.8316Y1.4189
M16
G05
G00X5.8316Y0.6925
M15
G01X5.8316Y0.6709
M16
G05
G00X6.2056Y-0.0801
M15
G01X6.2056Y-0.1018
M16
G05
G00X6.5796Y2.2821
M15
G01X6.5796Y2.2604
M16
G05
G00X6.5796Y1.5341
M15
G01X6.5796Y1.5124
M16
G05
G00X6.5796Y0.786
M15
G01X6.5796Y0.7644
M16
G05
G00X7.3277Y2.1886
M15
G01X7.3277Y2.1669
M16
G05
G00X7.3277Y1.4406
M15
G01X7.3277Y1.4189
M16
G05
G00X7.3277Y0.6925
M15
G01X7.3277Y0.6709
M16
G05
G00X8.0757Y2.0016
M15
G01X8.0757Y1.9799
M16
G05
G00X8.0757Y1.2535
M15
G01X8.0757Y1.2319
M16
G05
G00X8.0757Y0.5055
M15
G01X8.0757Y0.4839
M16
G05
G00X8.8237Y2.0016
M15
G01X8.8237Y1.9799
M16
G05
G00X8.8237Y1.2535
M15
G01X8.8237Y1.2319
M16
G05
G00X8.8237Y0.5055
M15
G01X8.8237Y0.4839
M16
G05
M30
