%TF.GenerationSoftware,KiCad,Pcbnew,8.0.3*%
%TF.CreationDate,2024-08-02T01:48:42+01:00*%
%TF.ProjectId,corne-top-plate,636f726e-652d-4746-9f70-2d706c617465,2.1*%
%TF.SameCoordinates,Original*%
%TF.FileFunction,Legend,Top*%
%TF.FilePolarity,Positive*%
%FSLAX46Y46*%
G04 Gerber Fmt 4.6, Leading zero omitted, Abs format (unit mm)*
G04 Created by KiCad (PCBNEW 8.0.3) date 2024-08-02 01:48:42*
%MOMM*%
%LPD*%
G01*
G04 APERTURE LIST*
%ADD10C,0.010000*%
%ADD11C,4.600000*%
G04 APERTURE END LIST*
%LPC*%
D10*
%TO.C,G\u002A\u002A\u002A*%
X-65125263Y-54970436D02*
X-64979200Y-54986961D01*
X-64979200Y-55357729D01*
X-65112550Y-55344068D01*
X-65296649Y-55349139D01*
X-65466048Y-55400922D01*
X-65614619Y-55496056D01*
X-65736234Y-55631179D01*
X-65785111Y-55712869D01*
X-65868200Y-55873838D01*
X-65868200Y-57266400D01*
X-66300000Y-57266400D01*
X-66300000Y-55003745D01*
X-66090450Y-55011122D01*
X-65880900Y-55018500D01*
X-65855500Y-55240358D01*
X-65804731Y-55183946D01*
X-65686554Y-55087357D01*
X-65534702Y-55016267D01*
X-65361458Y-54974536D01*
X-65179110Y-54966025D01*
X-65125263Y-54970436D01*
G36*
X-65125263Y-54970436D02*
G01*
X-64979200Y-54986961D01*
X-64979200Y-55357729D01*
X-65112550Y-55344068D01*
X-65296649Y-55349139D01*
X-65466048Y-55400922D01*
X-65614619Y-55496056D01*
X-65736234Y-55631179D01*
X-65785111Y-55712869D01*
X-65868200Y-55873838D01*
X-65868200Y-57266400D01*
X-66300000Y-57266400D01*
X-66300000Y-55003745D01*
X-66090450Y-55011122D01*
X-65880900Y-55018500D01*
X-65855500Y-55240358D01*
X-65804731Y-55183946D01*
X-65686554Y-55087357D01*
X-65534702Y-55016267D01*
X-65361458Y-54974536D01*
X-65179110Y-54966025D01*
X-65125263Y-54970436D01*
G37*
X-63463009Y-54993791D02*
X-63368925Y-54997451D01*
X-63298510Y-55006455D01*
X-63238199Y-55023181D01*
X-63174430Y-55050005D01*
X-63120249Y-55076171D01*
X-62949202Y-55184513D01*
X-62815952Y-55323673D01*
X-62718621Y-55496378D01*
X-62655332Y-55705354D01*
X-62643925Y-55767800D01*
X-62636636Y-55838770D01*
X-62630097Y-55951525D01*
X-62624597Y-56097049D01*
X-62620426Y-56266330D01*
X-62617873Y-56450353D01*
X-62617192Y-56599650D01*
X-62617000Y-57266400D01*
X-63048800Y-57266400D01*
X-63048800Y-56547110D01*
X-63049407Y-56318457D01*
X-63051400Y-56134758D01*
X-63055037Y-55990177D01*
X-63060578Y-55878882D01*
X-63068281Y-55795037D01*
X-63078405Y-55732809D01*
X-63086303Y-55701534D01*
X-63151063Y-55563307D01*
X-63251970Y-55460106D01*
X-63387397Y-55392984D01*
X-63555720Y-55362999D01*
X-63610188Y-55361400D01*
X-63772659Y-55371817D01*
X-63902638Y-55406694D01*
X-64014736Y-55471472D01*
X-64094640Y-55541726D01*
X-64148827Y-55598731D01*
X-64192209Y-55654501D01*
X-64225977Y-55715365D01*
X-64251321Y-55787652D01*
X-64269433Y-55877689D01*
X-64281504Y-55991805D01*
X-64288723Y-56136327D01*
X-64292283Y-56317585D01*
X-64293374Y-56541907D01*
X-64293400Y-56597910D01*
X-64293400Y-57266400D01*
X-64725200Y-57266400D01*
X-64725200Y-55005800D01*
X-64293400Y-55005800D01*
X-64293400Y-55263707D01*
X-64211136Y-55181442D01*
X-64124748Y-55105836D01*
X-64034045Y-55052569D01*
X-63928022Y-55018282D01*
X-63795676Y-54999616D01*
X-63626005Y-54993211D01*
X-63594326Y-54993100D01*
X-63463009Y-54993791D01*
G36*
X-63463009Y-54993791D02*
G01*
X-63368925Y-54997451D01*
X-63298510Y-55006455D01*
X-63238199Y-55023181D01*
X-63174430Y-55050005D01*
X-63120249Y-55076171D01*
X-62949202Y-55184513D01*
X-62815952Y-55323673D01*
X-62718621Y-55496378D01*
X-62655332Y-55705354D01*
X-62643925Y-55767800D01*
X-62636636Y-55838770D01*
X-62630097Y-55951525D01*
X-62624597Y-56097049D01*
X-62620426Y-56266330D01*
X-62617873Y-56450353D01*
X-62617192Y-56599650D01*
X-62617000Y-57266400D01*
X-63048800Y-57266400D01*
X-63048800Y-56547110D01*
X-63049407Y-56318457D01*
X-63051400Y-56134758D01*
X-63055037Y-55990177D01*
X-63060578Y-55878882D01*
X-63068281Y-55795037D01*
X-63078405Y-55732809D01*
X-63086303Y-55701534D01*
X-63151063Y-55563307D01*
X-63251970Y-55460106D01*
X-63387397Y-55392984D01*
X-63555720Y-55362999D01*
X-63610188Y-55361400D01*
X-63772659Y-55371817D01*
X-63902638Y-55406694D01*
X-64014736Y-55471472D01*
X-64094640Y-55541726D01*
X-64148827Y-55598731D01*
X-64192209Y-55654501D01*
X-64225977Y-55715365D01*
X-64251321Y-55787652D01*
X-64269433Y-55877689D01*
X-64281504Y-55991805D01*
X-64288723Y-56136327D01*
X-64292283Y-56317585D01*
X-64293374Y-56541907D01*
X-64293400Y-56597910D01*
X-64293400Y-57266400D01*
X-64725200Y-57266400D01*
X-64725200Y-55005800D01*
X-64293400Y-55005800D01*
X-64293400Y-55263707D01*
X-64211136Y-55181442D01*
X-64124748Y-55105836D01*
X-64034045Y-55052569D01*
X-63928022Y-55018282D01*
X-63795676Y-54999616D01*
X-63626005Y-54993211D01*
X-63594326Y-54993100D01*
X-63463009Y-54993791D01*
G37*
X-67722514Y-54986840D02*
X-67469060Y-55022111D01*
X-67240975Y-55098807D01*
X-67041325Y-55214865D01*
X-66873175Y-55368222D01*
X-66739592Y-55556816D01*
X-66675044Y-55691600D01*
X-66643482Y-55805705D01*
X-66623215Y-55953371D01*
X-66614470Y-56118580D01*
X-66617475Y-56285313D01*
X-66632457Y-56437551D01*
X-66659644Y-56559275D01*
X-66662595Y-56567900D01*
X-66758981Y-56765172D01*
X-66898225Y-56941574D01*
X-67074821Y-57091769D01*
X-67283259Y-57210421D01*
X-67358160Y-57241770D01*
X-67490179Y-57278019D01*
X-67653165Y-57301467D01*
X-67828719Y-57311287D01*
X-67998440Y-57306650D01*
X-68143926Y-57286729D01*
X-68176747Y-57278599D01*
X-68390647Y-57196401D01*
X-68585379Y-57078093D01*
X-68752345Y-56930635D01*
X-68882944Y-56760986D01*
X-68933818Y-56665895D01*
X-68972163Y-56563102D01*
X-69006349Y-56438876D01*
X-69026401Y-56335628D01*
X-69033752Y-56194224D01*
X-68609426Y-56194224D01*
X-68595091Y-56341866D01*
X-68574959Y-56423207D01*
X-68521706Y-56535941D01*
X-68441305Y-56651333D01*
X-68347322Y-56752702D01*
X-68253326Y-56823365D01*
X-68246542Y-56827020D01*
X-68049802Y-56903118D01*
X-67844811Y-56933463D01*
X-67641396Y-56917243D01*
X-67528836Y-56886468D01*
X-67351556Y-56799347D01*
X-67207090Y-56675677D01*
X-67099913Y-56519341D01*
X-67095480Y-56510466D01*
X-67042490Y-56354401D01*
X-67020507Y-56177298D01*
X-67029861Y-55998017D01*
X-67070879Y-55835421D01*
X-67083211Y-55805900D01*
X-67180542Y-55646906D01*
X-67308239Y-55522092D01*
X-67458936Y-55431623D01*
X-67625264Y-55375666D01*
X-67799858Y-55354386D01*
X-67975351Y-55367949D01*
X-68144376Y-55416522D01*
X-68299566Y-55500270D01*
X-68433555Y-55619360D01*
X-68538535Y-55773101D01*
X-68580081Y-55890807D01*
X-68604067Y-56037526D01*
X-68609426Y-56194224D01*
X-69033752Y-56194224D01*
X-69039262Y-56088236D01*
X-69006850Y-55853693D01*
X-68931650Y-55637052D01*
X-68816143Y-55443365D01*
X-68662813Y-55277687D01*
X-68474140Y-55145069D01*
X-68430081Y-55121803D01*
X-68255795Y-55047053D01*
X-68084470Y-55002281D01*
X-67898595Y-54984147D01*
X-67722514Y-54986840D01*
G36*
X-67722514Y-54986840D02*
G01*
X-67469060Y-55022111D01*
X-67240975Y-55098807D01*
X-67041325Y-55214865D01*
X-66873175Y-55368222D01*
X-66739592Y-55556816D01*
X-66675044Y-55691600D01*
X-66643482Y-55805705D01*
X-66623215Y-55953371D01*
X-66614470Y-56118580D01*
X-66617475Y-56285313D01*
X-66632457Y-56437551D01*
X-66659644Y-56559275D01*
X-66662595Y-56567900D01*
X-66758981Y-56765172D01*
X-66898225Y-56941574D01*
X-67074821Y-57091769D01*
X-67283259Y-57210421D01*
X-67358160Y-57241770D01*
X-67490179Y-57278019D01*
X-67653165Y-57301467D01*
X-67828719Y-57311287D01*
X-67998440Y-57306650D01*
X-68143926Y-57286729D01*
X-68176747Y-57278599D01*
X-68390647Y-57196401D01*
X-68585379Y-57078093D01*
X-68752345Y-56930635D01*
X-68882944Y-56760986D01*
X-68933818Y-56665895D01*
X-68972163Y-56563102D01*
X-69006349Y-56438876D01*
X-69026401Y-56335628D01*
X-69033752Y-56194224D01*
X-68609426Y-56194224D01*
X-68595091Y-56341866D01*
X-68574959Y-56423207D01*
X-68521706Y-56535941D01*
X-68441305Y-56651333D01*
X-68347322Y-56752702D01*
X-68253326Y-56823365D01*
X-68246542Y-56827020D01*
X-68049802Y-56903118D01*
X-67844811Y-56933463D01*
X-67641396Y-56917243D01*
X-67528836Y-56886468D01*
X-67351556Y-56799347D01*
X-67207090Y-56675677D01*
X-67099913Y-56519341D01*
X-67095480Y-56510466D01*
X-67042490Y-56354401D01*
X-67020507Y-56177298D01*
X-67029861Y-55998017D01*
X-67070879Y-55835421D01*
X-67083211Y-55805900D01*
X-67180542Y-55646906D01*
X-67308239Y-55522092D01*
X-67458936Y-55431623D01*
X-67625264Y-55375666D01*
X-67799858Y-55354386D01*
X-67975351Y-55367949D01*
X-68144376Y-55416522D01*
X-68299566Y-55500270D01*
X-68433555Y-55619360D01*
X-68538535Y-55773101D01*
X-68580081Y-55890807D01*
X-68604067Y-56037526D01*
X-68609426Y-56194224D01*
X-69033752Y-56194224D01*
X-69039262Y-56088236D01*
X-69006850Y-55853693D01*
X-68931650Y-55637052D01*
X-68816143Y-55443365D01*
X-68662813Y-55277687D01*
X-68474140Y-55145069D01*
X-68430081Y-55121803D01*
X-68255795Y-55047053D01*
X-68084470Y-55002281D01*
X-67898595Y-54984147D01*
X-67722514Y-54986840D01*
G37*
X-70105451Y-55000988D02*
X-69990752Y-55027102D01*
X-69769650Y-55117639D01*
X-69578207Y-55244036D01*
X-69421278Y-55401988D01*
X-69303718Y-55587188D01*
X-69269063Y-55667254D01*
X-69235036Y-55760731D01*
X-69223417Y-55819761D01*
X-69240702Y-55852261D01*
X-69293388Y-55866149D01*
X-69387971Y-55869343D01*
X-69434931Y-55869400D01*
X-69648861Y-55869399D01*
X-69679767Y-55775754D01*
X-69746357Y-55649894D01*
X-69852862Y-55538503D01*
X-69989037Y-55448012D01*
X-70144636Y-55384854D01*
X-70309415Y-55355461D01*
X-70351301Y-55354142D01*
X-70533631Y-55376910D01*
X-70703935Y-55441221D01*
X-70853484Y-55541089D01*
X-70973547Y-55670526D01*
X-71055395Y-55823547D01*
X-71061593Y-55841267D01*
X-71095144Y-55999924D01*
X-71100927Y-56175402D01*
X-71080241Y-56349327D01*
X-71034387Y-56503322D01*
X-71011325Y-56551531D01*
X-70905596Y-56702138D01*
X-70770721Y-56814303D01*
X-70623398Y-56885915D01*
X-70444711Y-56928926D01*
X-70265241Y-56928773D01*
X-70093428Y-56888785D01*
X-69937710Y-56812291D01*
X-69806526Y-56702622D01*
X-69708316Y-56563106D01*
X-69686733Y-56516389D01*
X-69640100Y-56402990D01*
X-69430550Y-56402895D01*
X-69327832Y-56403561D01*
X-69265716Y-56407620D01*
X-69234005Y-56417992D01*
X-69222503Y-56437594D01*
X-69221000Y-56462887D01*
X-69236525Y-56537902D01*
X-69278076Y-56637781D01*
X-69338122Y-56749252D01*
X-69409131Y-56859041D01*
X-69483571Y-56953876D01*
X-69522462Y-56994119D01*
X-69702236Y-57129131D01*
X-69911093Y-57229811D01*
X-70137940Y-57292913D01*
X-70371682Y-57315194D01*
X-70567200Y-57299664D01*
X-70760413Y-57248943D01*
X-70948049Y-57165877D01*
X-71117740Y-57057860D01*
X-71257117Y-56932289D01*
X-71324011Y-56847165D01*
X-71405340Y-56712841D01*
X-71461230Y-56587887D01*
X-71495809Y-56457138D01*
X-71513207Y-56305430D01*
X-71517586Y-56136100D01*
X-71516081Y-55995194D01*
X-71510379Y-55891188D01*
X-71498702Y-55810236D01*
X-71479270Y-55738494D01*
X-71459649Y-55685197D01*
X-71354003Y-55485543D01*
X-71207738Y-55309026D01*
X-71028624Y-55163316D01*
X-70824431Y-55056085D01*
X-70821200Y-55054802D01*
X-70665217Y-55010914D01*
X-70481245Y-54986892D01*
X-70288313Y-54983372D01*
X-70105451Y-55000988D01*
G36*
X-70105451Y-55000988D02*
G01*
X-69990752Y-55027102D01*
X-69769650Y-55117639D01*
X-69578207Y-55244036D01*
X-69421278Y-55401988D01*
X-69303718Y-55587188D01*
X-69269063Y-55667254D01*
X-69235036Y-55760731D01*
X-69223417Y-55819761D01*
X-69240702Y-55852261D01*
X-69293388Y-55866149D01*
X-69387971Y-55869343D01*
X-69434931Y-55869400D01*
X-69648861Y-55869399D01*
X-69679767Y-55775754D01*
X-69746357Y-55649894D01*
X-69852862Y-55538503D01*
X-69989037Y-55448012D01*
X-70144636Y-55384854D01*
X-70309415Y-55355461D01*
X-70351301Y-55354142D01*
X-70533631Y-55376910D01*
X-70703935Y-55441221D01*
X-70853484Y-55541089D01*
X-70973547Y-55670526D01*
X-71055395Y-55823547D01*
X-71061593Y-55841267D01*
X-71095144Y-55999924D01*
X-71100927Y-56175402D01*
X-71080241Y-56349327D01*
X-71034387Y-56503322D01*
X-71011325Y-56551531D01*
X-70905596Y-56702138D01*
X-70770721Y-56814303D01*
X-70623398Y-56885915D01*
X-70444711Y-56928926D01*
X-70265241Y-56928773D01*
X-70093428Y-56888785D01*
X-69937710Y-56812291D01*
X-69806526Y-56702622D01*
X-69708316Y-56563106D01*
X-69686733Y-56516389D01*
X-69640100Y-56402990D01*
X-69430550Y-56402895D01*
X-69327832Y-56403561D01*
X-69265716Y-56407620D01*
X-69234005Y-56417992D01*
X-69222503Y-56437594D01*
X-69221000Y-56462887D01*
X-69236525Y-56537902D01*
X-69278076Y-56637781D01*
X-69338122Y-56749252D01*
X-69409131Y-56859041D01*
X-69483571Y-56953876D01*
X-69522462Y-56994119D01*
X-69702236Y-57129131D01*
X-69911093Y-57229811D01*
X-70137940Y-57292913D01*
X-70371682Y-57315194D01*
X-70567200Y-57299664D01*
X-70760413Y-57248943D01*
X-70948049Y-57165877D01*
X-71117740Y-57057860D01*
X-71257117Y-56932289D01*
X-71324011Y-56847165D01*
X-71405340Y-56712841D01*
X-71461230Y-56587887D01*
X-71495809Y-56457138D01*
X-71513207Y-56305430D01*
X-71517586Y-56136100D01*
X-71516081Y-55995194D01*
X-71510379Y-55891188D01*
X-71498702Y-55810236D01*
X-71479270Y-55738494D01*
X-71459649Y-55685197D01*
X-71354003Y-55485543D01*
X-71207738Y-55309026D01*
X-71028624Y-55163316D01*
X-70824431Y-55056085D01*
X-70821200Y-55054802D01*
X-70665217Y-55010914D01*
X-70481245Y-54986892D01*
X-70288313Y-54983372D01*
X-70105451Y-55000988D01*
G37*
X-60930970Y-55003406D02*
X-60708606Y-55069705D01*
X-60510367Y-55175213D01*
X-60340421Y-55315847D01*
X-60202941Y-55487524D01*
X-60102096Y-55686162D01*
X-60042057Y-55907678D01*
X-60026200Y-56103336D01*
X-60026200Y-56250400D01*
X-61931200Y-56250400D01*
X-61931200Y-56323498D01*
X-61908283Y-56446649D01*
X-61844845Y-56574172D01*
X-61748857Y-56695298D01*
X-61628289Y-56799256D01*
X-61539112Y-56853239D01*
X-61403258Y-56904647D01*
X-61242596Y-56929683D01*
X-61229628Y-56930596D01*
X-61047371Y-56928127D01*
X-60893697Y-56891329D01*
X-60756005Y-56815614D01*
X-60641307Y-56716419D01*
X-60505487Y-56580600D01*
X-60302232Y-56580600D01*
X-60201689Y-56581246D01*
X-60142467Y-56585122D01*
X-60115090Y-56595133D01*
X-60110081Y-56614182D01*
X-60115770Y-56637750D01*
X-60154083Y-56723398D01*
X-60219001Y-56826086D01*
X-60298726Y-56929606D01*
X-60381456Y-57017746D01*
X-60411643Y-57044173D01*
X-60610510Y-57173773D01*
X-60833198Y-57263237D01*
X-61069904Y-57310509D01*
X-61310827Y-57313535D01*
X-61522143Y-57277004D01*
X-61743255Y-57192879D01*
X-61938075Y-57069023D01*
X-62101675Y-56910554D01*
X-62229126Y-56722590D01*
X-62315499Y-56510249D01*
X-62334656Y-56433299D01*
X-62365192Y-56183242D01*
X-62351459Y-55943661D01*
X-62339278Y-55894800D01*
X-61929943Y-55894800D01*
X-61206672Y-55894800D01*
X-60994086Y-55894528D01*
X-60827001Y-55893521D01*
X-60700121Y-55891494D01*
X-60608149Y-55888158D01*
X-60545788Y-55883229D01*
X-60507741Y-55876420D01*
X-60488712Y-55867444D01*
X-60483403Y-55856014D01*
X-60483400Y-55855688D01*
X-60503777Y-55773758D01*
X-60558475Y-55678173D01*
X-60637848Y-55580722D01*
X-60732252Y-55493195D01*
X-60832039Y-55427383D01*
X-60835097Y-55425826D01*
X-60974153Y-55378277D01*
X-61138267Y-55357014D01*
X-61309072Y-55361960D01*
X-61468202Y-55393039D01*
X-61559940Y-55428844D01*
X-61706474Y-55530486D01*
X-61825351Y-55671797D01*
X-61905735Y-55831127D01*
X-61929943Y-55894800D01*
X-62339278Y-55894800D01*
X-62295633Y-55719735D01*
X-62199894Y-55516643D01*
X-62066421Y-55339563D01*
X-61897392Y-55193672D01*
X-61784501Y-55125689D01*
X-61589897Y-55041746D01*
X-61392574Y-54994901D01*
X-61173287Y-54980400D01*
X-60930970Y-55003406D01*
G36*
X-60930970Y-55003406D02*
G01*
X-60708606Y-55069705D01*
X-60510367Y-55175213D01*
X-60340421Y-55315847D01*
X-60202941Y-55487524D01*
X-60102096Y-55686162D01*
X-60042057Y-55907678D01*
X-60026200Y-56103336D01*
X-60026200Y-56250400D01*
X-61931200Y-56250400D01*
X-61931200Y-56323498D01*
X-61908283Y-56446649D01*
X-61844845Y-56574172D01*
X-61748857Y-56695298D01*
X-61628289Y-56799256D01*
X-61539112Y-56853239D01*
X-61403258Y-56904647D01*
X-61242596Y-56929683D01*
X-61229628Y-56930596D01*
X-61047371Y-56928127D01*
X-60893697Y-56891329D01*
X-60756005Y-56815614D01*
X-60641307Y-56716419D01*
X-60505487Y-56580600D01*
X-60302232Y-56580600D01*
X-60201689Y-56581246D01*
X-60142467Y-56585122D01*
X-60115090Y-56595133D01*
X-60110081Y-56614182D01*
X-60115770Y-56637750D01*
X-60154083Y-56723398D01*
X-60219001Y-56826086D01*
X-60298726Y-56929606D01*
X-60381456Y-57017746D01*
X-60411643Y-57044173D01*
X-60610510Y-57173773D01*
X-60833198Y-57263237D01*
X-61069904Y-57310509D01*
X-61310827Y-57313535D01*
X-61522143Y-57277004D01*
X-61743255Y-57192879D01*
X-61938075Y-57069023D01*
X-62101675Y-56910554D01*
X-62229126Y-56722590D01*
X-62315499Y-56510249D01*
X-62334656Y-56433299D01*
X-62365192Y-56183242D01*
X-62351459Y-55943661D01*
X-62339278Y-55894800D01*
X-61929943Y-55894800D01*
X-61206672Y-55894800D01*
X-60994086Y-55894528D01*
X-60827001Y-55893521D01*
X-60700121Y-55891494D01*
X-60608149Y-55888158D01*
X-60545788Y-55883229D01*
X-60507741Y-55876420D01*
X-60488712Y-55867444D01*
X-60483403Y-55856014D01*
X-60483400Y-55855688D01*
X-60503777Y-55773758D01*
X-60558475Y-55678173D01*
X-60637848Y-55580722D01*
X-60732252Y-55493195D01*
X-60832039Y-55427383D01*
X-60835097Y-55425826D01*
X-60974153Y-55378277D01*
X-61138267Y-55357014D01*
X-61309072Y-55361960D01*
X-61468202Y-55393039D01*
X-61559940Y-55428844D01*
X-61706474Y-55530486D01*
X-61825351Y-55671797D01*
X-61905735Y-55831127D01*
X-61929943Y-55894800D01*
X-62339278Y-55894800D01*
X-62295633Y-55719735D01*
X-62199894Y-55516643D01*
X-62066421Y-55339563D01*
X-61897392Y-55193672D01*
X-61784501Y-55125689D01*
X-61589897Y-55041746D01*
X-61392574Y-54994901D01*
X-61173287Y-54980400D01*
X-60930970Y-55003406D01*
G37*
%TD*%
D11*
%TO.C,*%
X-94500000Y-21050000D03*
%TD*%
%TO.C,*%
X-94500000Y-39800000D03*
%TD*%
%TO.C,*%
X-18500000Y-17300000D03*
%TD*%
%TO.C,*%
X-51250000Y-57050000D03*
%TD*%
%TO.C,*%
X-4750000Y-64800000D03*
%TD*%
%LPD*%
M02*
