%TF.GenerationSoftware,KiCad,Pcbnew,8.0.3*%
%TF.CreationDate,2024-08-02T01:48:42+01:00*%
%TF.ProjectId,corne-top-plate,636f726e-652d-4746-9f70-2d706c617465,2.1*%
%TF.SameCoordinates,Original*%
%TF.FileFunction,Profile,NP*%
%FSLAX46Y46*%
G04 Gerber Fmt 4.6, Leading zero omitted, Abs format (unit mm)*
G04 Created by KiCad (PCBNEW 8.0.3) date 2024-08-02 01:48:42*
%MOMM*%
%LPD*%
G01*
G04 APERTURE LIST*
%TA.AperFunction,Profile*%
%ADD10C,0.150000*%
%TD*%
%TA.AperFunction,Profile*%
%ADD11C,0.120000*%
%TD*%
G04 APERTURE END LIST*
D10*
X19270509Y-62696988D02*
G75*
G02*
X19649999Y-64624999I-770509J-1153012D01*
G01*
X-38500000Y4700000D02*
G75*
G02*
X-38000000Y4200000I0J-500000D01*
G01*
X-56000000Y4200000D02*
X-56000000Y2950000D01*
X-112500000Y-58550000D02*
G75*
G02*
X-113000000Y-58050000I0J500000D01*
G01*
X350000Y-51775000D02*
G75*
G02*
X-2704Y-51110192I497300J689800D01*
G01*
X-38500000Y4700000D02*
X-55500000Y4700000D01*
X-46250000Y-73300000D02*
X-9579444Y-78070344D01*
X-19500000Y2450000D02*
X-37500000Y2450000D01*
X-75000000Y1950000D02*
X-75000000Y-1800000D01*
X-56500000Y2450000D02*
X-74500000Y2450000D01*
X-113000000Y-2800000D02*
G75*
G02*
X-112500000Y-2300000I500000J0D01*
G01*
X-500000Y-50000D02*
G75*
G02*
X0Y-550000I0J-500000D01*
G01*
X0Y-550000D02*
X-2718Y-51110192D01*
X-19000000Y450000D02*
X-19000000Y1950000D01*
X-75500000Y-2300000D02*
X-112500000Y-2300000D01*
X-8925000Y-78200000D02*
X5369251Y-86460956D01*
X-57500000Y-58550000D02*
X-112500000Y-58550000D01*
X-500000Y-50000D02*
X-18500000Y-50000D01*
X-19500000Y2450000D02*
G75*
G02*
X-19000000Y1950000I0J-500000D01*
G01*
X-18500000Y-50000D02*
G75*
G02*
X-19000000Y450000I0J500000D01*
G01*
X-9579444Y-78070344D02*
G75*
G02*
X-8925001Y-78200002I-333156J-3398056D01*
G01*
X-37500000Y2450000D02*
G75*
G02*
X-38000000Y2950000I0J500000D01*
G01*
X-75000000Y-1800000D02*
G75*
G02*
X-75500000Y-2300000I-500000J0D01*
G01*
X19270509Y-62696988D02*
X350000Y-51775000D01*
X-56000000Y4200000D02*
G75*
G02*
X-55500000Y4700000I500000J0D01*
G01*
X-113000000Y-2800000D02*
X-113000000Y-58050000D01*
X-57146447Y-58696447D02*
X-46603553Y-73153553D01*
X-46250000Y-73300000D02*
G75*
G02*
X-46603553Y-73153553I0J500000D01*
G01*
X7297263Y-86081465D02*
X19650000Y-64625000D01*
X7297263Y-86081465D02*
G75*
G02*
X5369283Y-86460908I-1152963J770465D01*
G01*
X-38000000Y2950000D02*
X-38000000Y4200000D01*
X-75000000Y1950000D02*
G75*
G02*
X-74500000Y2450000I500000J0D01*
G01*
X-57500000Y-58550000D02*
G75*
G02*
X-57146447Y-58696447I0J-500000D01*
G01*
X-56000000Y2950000D02*
G75*
G02*
X-56500000Y2450000I-500000J0D01*
G01*
D11*
%TO.C,SW2*%
X-110990000Y-4425000D02*
X-110990000Y-18425000D01*
X-110990000Y-18425000D02*
X-96990000Y-18425000D01*
X-96990000Y-4425000D02*
X-110990000Y-4425000D01*
X-96990000Y-18425000D02*
X-96990000Y-4425000D01*
X-110990000Y-23425000D02*
X-110990000Y-37425000D01*
X-110990000Y-37425000D02*
X-96990000Y-37425000D01*
X-96990000Y-23425000D02*
X-110990000Y-23425000D01*
X-96990000Y-37425000D02*
X-96990000Y-23425000D01*
X-110990000Y-42425000D02*
X-110990000Y-56425000D01*
X-110990000Y-56425000D02*
X-96990000Y-56425000D01*
X-96990000Y-42425000D02*
X-110990000Y-42425000D01*
X-96990000Y-56425000D02*
X-96990000Y-42425000D01*
X-91990000Y-4425000D02*
X-91990000Y-18425000D01*
X-91990000Y-18425000D02*
X-77990000Y-18425000D01*
X-77990000Y-4425000D02*
X-91990000Y-4425000D01*
X-77990000Y-18425000D02*
X-77990000Y-4425000D01*
X-91990000Y-42425000D02*
X-91990000Y-56425000D01*
X-91990000Y-56425000D02*
X-77990000Y-56425000D01*
X-77990000Y-42425000D02*
X-91990000Y-42425000D01*
X-77990000Y-56425000D02*
X-77990000Y-42425000D01*
X-91990000Y-23425000D02*
X-91990000Y-37425000D01*
X-91990000Y-37425000D02*
X-77990000Y-37425000D01*
X-77990000Y-23425000D02*
X-91990000Y-23425000D01*
X-77990000Y-37425000D02*
X-77990000Y-23425000D01*
X-72990000Y325000D02*
X-72990000Y-13675000D01*
X-72990000Y-13675000D02*
X-58990000Y-13675000D01*
X-58990000Y325000D02*
X-72990000Y325000D01*
X-58990000Y-13675000D02*
X-58990000Y325000D01*
X-72990000Y-37675000D02*
X-72990000Y-51675000D01*
X-72990000Y-51675000D02*
X-58990000Y-51675000D01*
X-58990000Y-37675000D02*
X-72990000Y-37675000D01*
X-58990000Y-51675000D02*
X-58990000Y-37675000D01*
X-72990000Y-18675000D02*
X-72990000Y-32675000D01*
X-72990000Y-32675000D02*
X-58990000Y-32675000D01*
X-58990000Y-18675000D02*
X-72990000Y-18675000D01*
X-58990000Y-32675000D02*
X-58990000Y-18675000D01*
X-53990000Y2700000D02*
X-53990000Y-11300000D01*
X-53990000Y-11300000D02*
X-39990000Y-11300000D01*
X-39990000Y2700000D02*
X-53990000Y2700000D01*
X-39990000Y-11300000D02*
X-39990000Y2700000D01*
X-53990000Y-35300000D02*
X-53990000Y-49300000D01*
X-53990000Y-49300000D02*
X-39990000Y-49300000D01*
X-39990000Y-35300000D02*
X-53990000Y-35300000D01*
X-39990000Y-49300000D02*
X-39990000Y-35300000D01*
X-53990000Y-16300000D02*
X-53990000Y-30300000D01*
X-53990000Y-30300000D02*
X-39990000Y-30300000D01*
X-39990000Y-16300000D02*
X-53990000Y-16300000D01*
X-39990000Y-30300000D02*
X-39990000Y-16300000D01*
X-34990000Y-37675000D02*
X-34990000Y-51675000D01*
X-34990000Y-51675000D02*
X-20990000Y-51675000D01*
X-20990000Y-37675000D02*
X-34990000Y-37675000D01*
X-20990000Y-51675000D02*
X-20990000Y-37675000D01*
X-34990000Y325000D02*
X-34990000Y-13675000D01*
X-34990000Y-13675000D02*
X-20990000Y-13675000D01*
X-20990000Y325000D02*
X-34990000Y325000D01*
X-20990000Y-13675000D02*
X-20990000Y325000D01*
X-34990000Y-18675000D02*
X-34990000Y-32675000D01*
X-34990000Y-32675000D02*
X-20990000Y-32675000D01*
X-20990000Y-18675000D02*
X-34990000Y-18675000D01*
X-20990000Y-32675000D02*
X-20990000Y-18675000D01*
X-15990000Y-21050000D02*
X-15990000Y-35050000D01*
X-15990000Y-35050000D02*
X-1990000Y-35050000D01*
X-1990000Y-21050000D02*
X-15990000Y-21050000D01*
X-1990000Y-35050000D02*
X-1990000Y-21050000D01*
X-15990000Y-2050000D02*
X-15990000Y-16050000D01*
X-15990000Y-16050000D02*
X-1990000Y-16050000D01*
X-1990000Y-2050000D02*
X-15990000Y-2050000D01*
X-1990000Y-16050000D02*
X-1990000Y-2050000D01*
X-15990000Y-40050000D02*
X-15990000Y-54050000D01*
X-15990000Y-54050000D02*
X-1990000Y-54050000D01*
X-1990000Y-40050000D02*
X-15990000Y-40050000D01*
X-1990000Y-54050000D02*
X-1990000Y-40050000D01*
X-44470000Y-57335000D02*
X-44470000Y-71335000D01*
X-44470000Y-71335000D02*
X-30470000Y-71335000D01*
X-30470000Y-57335000D02*
X-44470000Y-57335000D01*
X-30470000Y-71335000D02*
X-30470000Y-57335000D01*
X-25081214Y-71993747D02*
X-11558253Y-75617214D01*
X-21457747Y-58470786D02*
X-25081214Y-71993747D01*
X-11558253Y-75617214D02*
X-7934786Y-62094253D01*
X-7934786Y-62094253D02*
X-21457747Y-58470786D01*
X-3812178Y-73347178D02*
X8312178Y-80347178D01*
X3187822Y-61222822D02*
X-3812178Y-73347178D01*
X8312178Y-80347178D02*
X15312178Y-68222822D01*
X15312178Y-68222822D02*
X3187822Y-61222822D01*
%TD*%
M02*
