%TF.GenerationSoftware,KiCad,Pcbnew,8.0.3*%
%TF.CreationDate,2024-08-02T01:48:42+01:00*%
%TF.ProjectId,corne-top-plate,636f726e-652d-4746-9f70-2d706c617465,2.1*%
%TF.SameCoordinates,Original*%
%TF.FileFunction,Copper,L1,Top*%
%TF.FilePolarity,Positive*%
%FSLAX46Y46*%
G04 Gerber Fmt 4.6, Leading zero omitted, Abs format (unit mm)*
G04 Created by KiCad (PCBNEW 8.0.3) date 2024-08-02 01:48:42*
%MOMM*%
%LPD*%
G01*
G04 APERTURE LIST*
%TA.AperFunction,ComponentPad*%
%ADD10C,4.200000*%
%TD*%
G04 APERTURE END LIST*
D10*
%TO.P,,*%
%TO.N,*%
X-94500000Y-21050000D03*
%TD*%
%TO.P,,*%
%TO.N,*%
X-94500000Y-39800000D03*
%TD*%
%TO.P,,*%
%TO.N,*%
X-18500000Y-17300000D03*
%TD*%
%TO.P,,*%
%TO.N,*%
X-51250000Y-57050000D03*
%TD*%
%TO.P,,*%
%TO.N,*%
X-4750000Y-64800000D03*
%TD*%
%TA.AperFunction,NonConductor*%
G36*
X-38491812Y4623422D02*
G01*
X-38479196Y4621762D01*
X-38406579Y4612202D01*
X-38374807Y4603688D01*
X-38303075Y4573975D01*
X-38274590Y4557530D01*
X-38212994Y4510266D01*
X-38189735Y4487007D01*
X-38142471Y4425411D01*
X-38126026Y4396926D01*
X-38096313Y4325194D01*
X-38087799Y4293421D01*
X-38076578Y4208189D01*
X-38075500Y4191743D01*
X-38075500Y2974531D01*
X-38075500Y2950000D01*
X-38075500Y2885157D01*
X-38065223Y2840131D01*
X-38046642Y2758722D01*
X-38046639Y2758714D01*
X-37990376Y2641881D01*
X-37990375Y2641880D01*
X-37990374Y2641878D01*
X-37909515Y2540485D01*
X-37808122Y2459626D01*
X-37808121Y2459626D01*
X-37808120Y2459625D01*
X-37691287Y2403362D01*
X-37691284Y2403361D01*
X-37691278Y2403358D01*
X-37564843Y2374500D01*
X-37515018Y2374500D01*
X-19524531Y2374500D01*
X-19508257Y2374500D01*
X-19491812Y2373422D01*
X-19479196Y2371762D01*
X-19406579Y2362202D01*
X-19374807Y2353688D01*
X-19303075Y2323975D01*
X-19274590Y2307530D01*
X-19212994Y2260266D01*
X-19189735Y2237007D01*
X-19142471Y2175411D01*
X-19126026Y2146926D01*
X-19096313Y2075194D01*
X-19087799Y2043421D01*
X-19076578Y1958189D01*
X-19075500Y1941743D01*
X-19075500Y474531D01*
X-19075500Y450000D01*
X-19075500Y385157D01*
X-19065197Y340018D01*
X-19046642Y258722D01*
X-19046639Y258714D01*
X-18990376Y141881D01*
X-18990375Y141880D01*
X-18990374Y141878D01*
X-18909515Y40485D01*
X-18808122Y-40374D01*
X-18808121Y-40374D01*
X-18808120Y-40375D01*
X-18691287Y-96638D01*
X-18691284Y-96639D01*
X-18691278Y-96642D01*
X-18564843Y-125500D01*
X-18515018Y-125500D01*
X-524531Y-125500D01*
X-508257Y-125500D01*
X-491812Y-126578D01*
X-479196Y-128238D01*
X-406579Y-137798D01*
X-374807Y-146312D01*
X-303075Y-176025D01*
X-274590Y-192470D01*
X-212994Y-239734D01*
X-189735Y-262993D01*
X-142471Y-324589D01*
X-126026Y-353074D01*
X-96313Y-424806D01*
X-87799Y-456580D01*
X-76579Y-541809D01*
X-75501Y-558261D01*
X-78216Y-51067484D01*
X-79286Y-51074948D01*
X-78273Y-51109441D01*
X-78219Y-51113139D01*
X-78219Y-51131249D01*
X-77432Y-51138219D01*
X-75733Y-51197498D01*
X-39786Y-51363907D01*
X-39784Y-51363912D01*
X25900Y-51520976D01*
X25901Y-51520979D01*
X25902Y-51520980D01*
X119125Y-51663439D01*
X119127Y-51663441D01*
X119129Y-51663444D01*
X236758Y-51786512D01*
X285502Y-51821598D01*
X294963Y-51829122D01*
X299245Y-51832877D01*
X299247Y-51832878D01*
X299248Y-51832879D01*
X303424Y-51835289D01*
X314107Y-51842198D01*
X325747Y-51850589D01*
X325747Y-51850588D01*
X327253Y-51851674D01*
X346829Y-51860345D01*
X8385118Y-56500500D01*
X19036920Y-62649323D01*
X19221556Y-62755905D01*
X19236593Y-62766098D01*
X19335293Y-62843947D01*
X19382710Y-62881347D01*
X19397258Y-62894807D01*
X19523692Y-63031758D01*
X19535950Y-63047334D01*
X19639343Y-63202417D01*
X19649007Y-63219723D01*
X19726799Y-63389100D01*
X19733629Y-63407706D01*
X19783899Y-63587191D01*
X19787727Y-63606638D01*
X19809228Y-63791779D01*
X19809959Y-63811587D01*
X19802158Y-63997819D01*
X19799773Y-64017495D01*
X19762867Y-64200191D01*
X19757426Y-64219251D01*
X19692325Y-64393899D01*
X19683963Y-64411869D01*
X19598749Y-64562697D01*
X19598155Y-64563565D01*
X19598228Y-64563607D01*
X19588113Y-64581172D01*
X19583416Y-64588701D01*
X19570482Y-64607896D01*
X19564231Y-64622654D01*
X7238353Y-86032468D01*
X7228087Y-86047632D01*
X7112906Y-86193665D01*
X7099445Y-86208214D01*
X6962498Y-86334644D01*
X6946921Y-86346903D01*
X6791837Y-86450294D01*
X6774531Y-86459957D01*
X6605163Y-86537743D01*
X6586556Y-86544574D01*
X6407068Y-86594841D01*
X6387620Y-86598668D01*
X6202480Y-86620164D01*
X6182672Y-86620894D01*
X5996453Y-86613089D01*
X5976775Y-86610704D01*
X5794084Y-86573792D01*
X5775025Y-86568351D01*
X5600375Y-86503242D01*
X5582404Y-86494878D01*
X5422979Y-86404797D01*
X5421920Y-86404192D01*
X5413053Y-86399068D01*
X5405682Y-86394462D01*
X5398414Y-86389564D01*
X5386162Y-86381306D01*
X5371678Y-86375157D01*
X-8852064Y-78154950D01*
X-8862789Y-78145487D01*
X-8863295Y-78146216D01*
X-8879679Y-78134823D01*
X-8879680Y-78134822D01*
X-8879681Y-78134822D01*
X-8880833Y-78134474D01*
X-8889039Y-78130919D01*
X-8901123Y-78126811D01*
X-8918850Y-78122987D01*
X-9012169Y-78094778D01*
X-9233997Y-78043259D01*
X-9234011Y-78043256D01*
X-9308923Y-78030938D01*
X-9458744Y-78006304D01*
X-9458750Y-78006303D01*
X-9458759Y-78006302D01*
X-9568882Y-77995517D01*
X-9572854Y-77995064D01*
X-46200778Y-73230266D01*
X-46223453Y-73225154D01*
X-46225466Y-73224500D01*
X-46225469Y-73224500D01*
X-46236954Y-73224500D01*
X-46253208Y-73223447D01*
X-46259173Y-73222671D01*
X-46270342Y-73222495D01*
X-46320463Y-73217559D01*
X-46344688Y-73212741D01*
X-46400574Y-73195789D01*
X-46423396Y-73186336D01*
X-46474895Y-73158809D01*
X-46495432Y-73145087D01*
X-46534955Y-73112651D01*
X-46556824Y-73089495D01*
X-47288159Y-72086641D01*
X-47359572Y-71988715D01*
X-25158029Y-71988715D01*
X-25154110Y-72018487D01*
X-25154109Y-72018488D01*
X-25154109Y-72018489D01*
X-25154108Y-72018491D01*
X-25139090Y-72044503D01*
X-25115261Y-72062787D01*
X-25086249Y-72070561D01*
X-25026239Y-72086641D01*
X-25026231Y-72086641D01*
X-11633962Y-75675090D01*
X-11608326Y-75681959D01*
X-11608323Y-75681960D01*
X-11592301Y-75686253D01*
X-11592300Y-75686254D01*
X-11567251Y-75692966D01*
X-11559379Y-75695355D01*
X-11550738Y-75698288D01*
X-11544689Y-75695783D01*
X-11545261Y-75694098D01*
X-11533514Y-75690110D01*
X-11533511Y-75690108D01*
X-11533509Y-75690108D01*
X-11507496Y-75675090D01*
X-11489212Y-75651261D01*
X-11481438Y-75622249D01*
X-11481439Y-75622247D01*
X-11477287Y-75606754D01*
X-11477285Y-75606741D01*
X-10873185Y-73352208D01*
X-3888993Y-73352208D01*
X-3888992Y-73352212D01*
X-3881218Y-73381225D01*
X-3862934Y-73405054D01*
X8261421Y-80405053D01*
X8261422Y-80405054D01*
X8287434Y-80420072D01*
X8287436Y-80420072D01*
X8287437Y-80420073D01*
X8317208Y-80423992D01*
X8317209Y-80423991D01*
X8317212Y-80423992D01*
X8346225Y-80416218D01*
X8370054Y-80397934D01*
X15385072Y-68247566D01*
X15388992Y-68217788D01*
X15381218Y-68188775D01*
X15362934Y-68164946D01*
X15362933Y-68164945D01*
X15349928Y-68157437D01*
X15336922Y-68149928D01*
X3212566Y-61149928D01*
X3212565Y-61149927D01*
X3212564Y-61149927D01*
X3212562Y-61149926D01*
X3182791Y-61146007D01*
X3182787Y-61146008D01*
X3153777Y-61153781D01*
X3153774Y-61153782D01*
X3129946Y-61172065D01*
X3129944Y-61172068D01*
X-3878347Y-73310783D01*
X-3878346Y-73310784D01*
X-3885073Y-73322435D01*
X-3885074Y-73322437D01*
X-3888993Y-73352208D01*
X-10873185Y-73352208D01*
X-8581626Y-64799998D01*
X-7363268Y-64799998D01*
X-7363268Y-64800001D01*
X-7344215Y-65114992D01*
X-7344214Y-65114995D01*
X-7287332Y-65425395D01*
X-7193447Y-65726682D01*
X-7063940Y-66014435D01*
X-7063934Y-66014446D01*
X-6900681Y-66284499D01*
X-6900678Y-66284504D01*
X-6706065Y-66532911D01*
X-6706053Y-66532924D01*
X-6482925Y-66756052D01*
X-6482912Y-66756064D01*
X-6234505Y-66950677D01*
X-5964446Y-67113934D01*
X-5964442Y-67113936D01*
X-5964436Y-67113939D01*
X-5676683Y-67243446D01*
X-5676682Y-67243446D01*
X-5676678Y-67243448D01*
X-5375396Y-67337331D01*
X-5064995Y-67394214D01*
X-4854999Y-67406916D01*
X-4750001Y-67413268D01*
X-4750000Y-67413268D01*
X-4749999Y-67413268D01*
X-4671252Y-67408504D01*
X-4435005Y-67394214D01*
X-4124604Y-67337331D01*
X-3823322Y-67243448D01*
X-3535554Y-67113934D01*
X-3265495Y-66950677D01*
X-3017083Y-66756059D01*
X-2793941Y-66532917D01*
X-2599323Y-66284505D01*
X-2436066Y-66014446D01*
X-2306552Y-65726678D01*
X-2212669Y-65425396D01*
X-2155786Y-65114995D01*
X-2136732Y-64800000D01*
X-2155786Y-64485005D01*
X-2212669Y-64174604D01*
X-2306552Y-63873322D01*
X-2306554Y-63873317D01*
X-2436061Y-63585564D01*
X-2436067Y-63585553D01*
X-2599320Y-63315500D01*
X-2599323Y-63315495D01*
X-2793936Y-63067088D01*
X-2793948Y-63067075D01*
X-3017076Y-62843947D01*
X-3017089Y-62843935D01*
X-3265496Y-62649322D01*
X-3265501Y-62649319D01*
X-3535554Y-62486066D01*
X-3535565Y-62486060D01*
X-3823318Y-62356553D01*
X-4124605Y-62262668D01*
X-4435005Y-62205786D01*
X-4435008Y-62205785D01*
X-4749999Y-62186732D01*
X-4750001Y-62186732D01*
X-5064993Y-62205785D01*
X-5064996Y-62205786D01*
X-5375396Y-62262668D01*
X-5676683Y-62356553D01*
X-5964436Y-62486060D01*
X-5964447Y-62486066D01*
X-6234500Y-62649319D01*
X-6234505Y-62649322D01*
X-6482912Y-62843935D01*
X-6482925Y-62843947D01*
X-6706053Y-63067075D01*
X-6706065Y-63067088D01*
X-6900678Y-63315495D01*
X-6900681Y-63315500D01*
X-7063934Y-63585553D01*
X-7063940Y-63585564D01*
X-7193447Y-63873317D01*
X-7287332Y-64174604D01*
X-7344214Y-64485004D01*
X-7344215Y-64485007D01*
X-7363268Y-64799998D01*
X-8581626Y-64799998D01*
X-7870038Y-62144318D01*
X-7857971Y-62099289D01*
X-7857971Y-62099288D01*
X-7861892Y-62069509D01*
X-7861893Y-62069507D01*
X-7876910Y-62043495D01*
X-7900739Y-62025212D01*
X-7929751Y-62017438D01*
X-7929752Y-62017438D01*
X-7937728Y-62015301D01*
X-7937728Y-62015300D01*
X-7937732Y-62015300D01*
X-21407675Y-58406039D01*
X-21407675Y-58406038D01*
X-21407678Y-58406038D01*
X-21452712Y-58393970D01*
X-21482490Y-58397891D01*
X-21508505Y-58412911D01*
X-21526787Y-58436738D01*
X-21526788Y-58436738D01*
X-23316220Y-65114992D01*
X-25158028Y-71988712D01*
X-25158028Y-71988713D01*
X-25158028Y-71988714D01*
X-25158029Y-71988715D01*
X-47359572Y-71988715D01*
X-57061526Y-58684763D01*
X-57071991Y-58667716D01*
X-57075714Y-58660407D01*
X-57078308Y-58657813D01*
X-57081976Y-58654145D01*
X-57093973Y-58640123D01*
X-57103421Y-58631419D01*
X-57103351Y-58631342D01*
X-57110049Y-58626071D01*
X-57133140Y-58602980D01*
X-57227398Y-58539998D01*
X-57332133Y-58496616D01*
X-57443316Y-58474500D01*
X-57443318Y-58474500D01*
X-57484982Y-58474500D01*
X-112491743Y-58474500D01*
X-112508189Y-58473422D01*
X-112593421Y-58462201D01*
X-112625194Y-58453687D01*
X-112696926Y-58423974D01*
X-112725411Y-58407529D01*
X-112787007Y-58360265D01*
X-112810266Y-58337006D01*
X-112857530Y-58275410D01*
X-112873975Y-58246925D01*
X-112903688Y-58175193D01*
X-112912202Y-58143419D01*
X-112923422Y-58058187D01*
X-112924500Y-58041742D01*
X-112924500Y-57049998D01*
X-53863268Y-57049998D01*
X-53863268Y-57050001D01*
X-53844215Y-57364992D01*
X-53844214Y-57364995D01*
X-53787332Y-57675395D01*
X-53693447Y-57976682D01*
X-53563940Y-58264435D01*
X-53563934Y-58264446D01*
X-53400681Y-58534499D01*
X-53400678Y-58534504D01*
X-53206065Y-58782911D01*
X-53206053Y-58782924D01*
X-52982925Y-59006052D01*
X-52982912Y-59006064D01*
X-52734505Y-59200677D01*
X-52464446Y-59363934D01*
X-52464442Y-59363936D01*
X-52464436Y-59363939D01*
X-52176683Y-59493446D01*
X-52176682Y-59493446D01*
X-52176678Y-59493448D01*
X-51875396Y-59587331D01*
X-51564995Y-59644214D01*
X-51354999Y-59656916D01*
X-51250001Y-59663268D01*
X-51250000Y-59663268D01*
X-51249999Y-59663268D01*
X-51171252Y-59658504D01*
X-50935005Y-59644214D01*
X-50624604Y-59587331D01*
X-50323322Y-59493448D01*
X-50035554Y-59363934D01*
X-49765495Y-59200677D01*
X-49517083Y-59006059D01*
X-49293941Y-58782917D01*
X-49099323Y-58534505D01*
X-48936066Y-58264446D01*
X-48806552Y-57976678D01*
X-48712669Y-57675396D01*
X-48655786Y-57364995D01*
X-48653063Y-57319981D01*
X-44545500Y-57319981D01*
X-44545500Y-71350018D01*
X-44534007Y-71377766D01*
X-44534004Y-71377770D01*
X-44512771Y-71399003D01*
X-44512767Y-71399006D01*
X-44485018Y-71410500D01*
X-30454982Y-71410500D01*
X-30427233Y-71399006D01*
X-30405994Y-71377767D01*
X-30394500Y-71350018D01*
X-30394500Y-57319982D01*
X-30405994Y-57292233D01*
X-30405997Y-57292229D01*
X-30427230Y-57270996D01*
X-30427234Y-57270993D01*
X-30454982Y-57259500D01*
X-44454982Y-57259500D01*
X-44485018Y-57259500D01*
X-44512767Y-57270993D01*
X-44512771Y-57270996D01*
X-44534004Y-57292229D01*
X-44534007Y-57292233D01*
X-44545500Y-57319981D01*
X-48653063Y-57319981D01*
X-48636732Y-57050000D01*
X-48655786Y-56735005D01*
X-48712669Y-56424604D01*
X-48806552Y-56123322D01*
X-48936066Y-55835554D01*
X-49099323Y-55565495D01*
X-49293936Y-55317088D01*
X-49293948Y-55317075D01*
X-49517076Y-55093947D01*
X-49517089Y-55093935D01*
X-49765496Y-54899322D01*
X-49765501Y-54899319D01*
X-50035554Y-54736066D01*
X-50035565Y-54736060D01*
X-50323318Y-54606553D01*
X-50624605Y-54512668D01*
X-50935005Y-54455786D01*
X-50935008Y-54455785D01*
X-51249999Y-54436732D01*
X-51250001Y-54436732D01*
X-51564993Y-54455785D01*
X-51564996Y-54455786D01*
X-51875396Y-54512668D01*
X-52176683Y-54606553D01*
X-52464436Y-54736060D01*
X-52464447Y-54736066D01*
X-52734500Y-54899319D01*
X-52734505Y-54899322D01*
X-52982912Y-55093935D01*
X-52982925Y-55093947D01*
X-53206053Y-55317075D01*
X-53206065Y-55317088D01*
X-53400678Y-55565495D01*
X-53400681Y-55565500D01*
X-53563934Y-55835553D01*
X-53563940Y-55835564D01*
X-53693447Y-56123317D01*
X-53787332Y-56424604D01*
X-53844214Y-56735004D01*
X-53844215Y-56735007D01*
X-53863268Y-57049998D01*
X-112924500Y-57049998D01*
X-112924500Y-42409981D01*
X-111065500Y-42409981D01*
X-111065500Y-56440018D01*
X-111054007Y-56467766D01*
X-111054004Y-56467770D01*
X-111032771Y-56489003D01*
X-111032767Y-56489006D01*
X-111005018Y-56500500D01*
X-96974982Y-56500500D01*
X-96947233Y-56489006D01*
X-96925994Y-56467767D01*
X-96914500Y-56440018D01*
X-96914500Y-42409982D01*
X-96925994Y-42382233D01*
X-96925997Y-42382229D01*
X-96947230Y-42360996D01*
X-96947234Y-42360993D01*
X-96974982Y-42349500D01*
X-110974982Y-42349500D01*
X-111005018Y-42349500D01*
X-111032767Y-42360993D01*
X-111032771Y-42360996D01*
X-111054004Y-42382229D01*
X-111054007Y-42382233D01*
X-111065500Y-42409981D01*
X-112924500Y-42409981D01*
X-112924500Y-39799998D01*
X-97113268Y-39799998D01*
X-97113268Y-39800001D01*
X-97094215Y-40114992D01*
X-97094214Y-40114995D01*
X-97037332Y-40425395D01*
X-96943447Y-40726682D01*
X-96813940Y-41014435D01*
X-96813934Y-41014446D01*
X-96650681Y-41284499D01*
X-96650678Y-41284504D01*
X-96456065Y-41532911D01*
X-96456053Y-41532924D01*
X-96232925Y-41756052D01*
X-96232912Y-41756064D01*
X-95984505Y-41950677D01*
X-95714446Y-42113934D01*
X-95714442Y-42113936D01*
X-95714436Y-42113939D01*
X-95426683Y-42243446D01*
X-95426682Y-42243446D01*
X-95426678Y-42243448D01*
X-95125396Y-42337331D01*
X-94814995Y-42394214D01*
X-94604999Y-42406916D01*
X-94500001Y-42413268D01*
X-94500000Y-42413268D01*
X-94499999Y-42413268D01*
X-94445666Y-42409981D01*
X-92065500Y-42409981D01*
X-92065500Y-56440018D01*
X-92054007Y-56467766D01*
X-92054004Y-56467770D01*
X-92032771Y-56489003D01*
X-92032767Y-56489006D01*
X-92005018Y-56500500D01*
X-77974982Y-56500500D01*
X-77947233Y-56489006D01*
X-77925994Y-56467767D01*
X-77914500Y-56440018D01*
X-77914500Y-42409982D01*
X-77925994Y-42382233D01*
X-77925997Y-42382229D01*
X-77947230Y-42360996D01*
X-77947234Y-42360993D01*
X-77974982Y-42349500D01*
X-91974982Y-42349500D01*
X-92005018Y-42349500D01*
X-92032767Y-42360993D01*
X-92032771Y-42360996D01*
X-92054004Y-42382229D01*
X-92054007Y-42382233D01*
X-92065500Y-42409981D01*
X-94445666Y-42409981D01*
X-94421252Y-42408504D01*
X-94185005Y-42394214D01*
X-93874604Y-42337331D01*
X-93573322Y-42243448D01*
X-93285554Y-42113934D01*
X-93015495Y-41950677D01*
X-92767083Y-41756059D01*
X-92543941Y-41532917D01*
X-92349323Y-41284505D01*
X-92186066Y-41014446D01*
X-92056552Y-40726678D01*
X-91962669Y-40425396D01*
X-91905786Y-40114995D01*
X-91886732Y-39800000D01*
X-91905786Y-39485005D01*
X-91962669Y-39174604D01*
X-92056552Y-38873322D01*
X-92186066Y-38585554D01*
X-92349323Y-38315495D01*
X-92543936Y-38067088D01*
X-92543948Y-38067075D01*
X-92767076Y-37843947D01*
X-92767089Y-37843935D01*
X-93001891Y-37659981D01*
X-73065500Y-37659981D01*
X-73065500Y-51690018D01*
X-73054007Y-51717766D01*
X-73054004Y-51717770D01*
X-73032771Y-51739003D01*
X-73032767Y-51739006D01*
X-73005018Y-51750500D01*
X-58974982Y-51750500D01*
X-58947233Y-51739006D01*
X-58925994Y-51717767D01*
X-58914500Y-51690018D01*
X-58914500Y-37659982D01*
X-58918916Y-37649322D01*
X-58925994Y-37632233D01*
X-58925997Y-37632229D01*
X-58947230Y-37610996D01*
X-58947234Y-37610993D01*
X-58974982Y-37599500D01*
X-72974982Y-37599500D01*
X-73005018Y-37599500D01*
X-73032767Y-37610993D01*
X-73032771Y-37610996D01*
X-73054004Y-37632229D01*
X-73054007Y-37632233D01*
X-73065500Y-37659981D01*
X-93001891Y-37659981D01*
X-93015496Y-37649322D01*
X-93015501Y-37649319D01*
X-93285554Y-37486066D01*
X-93285565Y-37486060D01*
X-93573318Y-37356553D01*
X-93874605Y-37262668D01*
X-94185005Y-37205786D01*
X-94185008Y-37205785D01*
X-94499999Y-37186732D01*
X-94500001Y-37186732D01*
X-94814993Y-37205785D01*
X-94814996Y-37205786D01*
X-95125396Y-37262668D01*
X-95426683Y-37356553D01*
X-95714436Y-37486060D01*
X-95714447Y-37486066D01*
X-95984500Y-37649319D01*
X-95984505Y-37649322D01*
X-96232912Y-37843935D01*
X-96232925Y-37843947D01*
X-96456053Y-38067075D01*
X-96456065Y-38067088D01*
X-96650678Y-38315495D01*
X-96650681Y-38315500D01*
X-96813934Y-38585553D01*
X-96813940Y-38585564D01*
X-96943447Y-38873317D01*
X-97037332Y-39174604D01*
X-97094214Y-39485004D01*
X-97094215Y-39485007D01*
X-97113268Y-39799998D01*
X-112924500Y-39799998D01*
X-112924500Y-23409981D01*
X-111065500Y-23409981D01*
X-111065500Y-37440018D01*
X-111054007Y-37467766D01*
X-111054004Y-37467770D01*
X-111032771Y-37489003D01*
X-111032767Y-37489006D01*
X-111005018Y-37500500D01*
X-96974982Y-37500500D01*
X-96947233Y-37489006D01*
X-96925994Y-37467767D01*
X-96914500Y-37440018D01*
X-96914500Y-23409982D01*
X-96925994Y-23382233D01*
X-96925997Y-23382229D01*
X-96947230Y-23360996D01*
X-96947234Y-23360993D01*
X-96974982Y-23349500D01*
X-110974982Y-23349500D01*
X-111005018Y-23349500D01*
X-111032767Y-23360993D01*
X-111032771Y-23360996D01*
X-111054004Y-23382229D01*
X-111054007Y-23382233D01*
X-111065500Y-23409981D01*
X-112924500Y-23409981D01*
X-112924500Y-21049998D01*
X-97113268Y-21049998D01*
X-97113268Y-21050001D01*
X-97094215Y-21364992D01*
X-97094214Y-21364995D01*
X-97037332Y-21675395D01*
X-96943447Y-21976682D01*
X-96813940Y-22264435D01*
X-96813934Y-22264446D01*
X-96650681Y-22534499D01*
X-96650678Y-22534504D01*
X-96456065Y-22782911D01*
X-96456053Y-22782924D01*
X-96232925Y-23006052D01*
X-96232912Y-23006064D01*
X-95984505Y-23200677D01*
X-95714446Y-23363934D01*
X-95714442Y-23363936D01*
X-95714436Y-23363939D01*
X-95426683Y-23493446D01*
X-95426682Y-23493446D01*
X-95426678Y-23493448D01*
X-95125396Y-23587331D01*
X-94814995Y-23644214D01*
X-94604999Y-23656916D01*
X-94500001Y-23663268D01*
X-94500000Y-23663268D01*
X-94499999Y-23663268D01*
X-94421252Y-23658504D01*
X-94185005Y-23644214D01*
X-93874604Y-23587331D01*
X-93573322Y-23493448D01*
X-93387866Y-23409981D01*
X-92065500Y-23409981D01*
X-92065500Y-37440018D01*
X-92054007Y-37467766D01*
X-92054004Y-37467770D01*
X-92032771Y-37489003D01*
X-92032767Y-37489006D01*
X-92005018Y-37500500D01*
X-77974982Y-37500500D01*
X-77947233Y-37489006D01*
X-77925994Y-37467767D01*
X-77914500Y-37440018D01*
X-77914500Y-35284981D01*
X-54065500Y-35284981D01*
X-54065500Y-49315018D01*
X-54054007Y-49342766D01*
X-54054004Y-49342770D01*
X-54032771Y-49364003D01*
X-54032767Y-49364006D01*
X-54005018Y-49375500D01*
X-39974982Y-49375500D01*
X-39947233Y-49364006D01*
X-39925994Y-49342767D01*
X-39914500Y-49315018D01*
X-39914500Y-37659981D01*
X-35065500Y-37659981D01*
X-35065500Y-51690018D01*
X-35054007Y-51717766D01*
X-35054004Y-51717770D01*
X-35032771Y-51739003D01*
X-35032767Y-51739006D01*
X-35005018Y-51750500D01*
X-20974982Y-51750500D01*
X-20947233Y-51739006D01*
X-20925994Y-51717767D01*
X-20914500Y-51690018D01*
X-20914500Y-40034981D01*
X-16065500Y-40034981D01*
X-16065500Y-54065018D01*
X-16054007Y-54092766D01*
X-16054004Y-54092770D01*
X-16032771Y-54114003D01*
X-16032767Y-54114006D01*
X-16005018Y-54125500D01*
X-1974982Y-54125500D01*
X-1947233Y-54114006D01*
X-1925994Y-54092767D01*
X-1914500Y-54065018D01*
X-1914500Y-40034982D01*
X-1925994Y-40007233D01*
X-1925997Y-40007229D01*
X-1947230Y-39985996D01*
X-1947234Y-39985993D01*
X-1974982Y-39974500D01*
X-15974982Y-39974500D01*
X-16005018Y-39974500D01*
X-16032767Y-39985993D01*
X-16032771Y-39985996D01*
X-16054004Y-40007229D01*
X-16054007Y-40007233D01*
X-16065500Y-40034981D01*
X-20914500Y-40034981D01*
X-20914500Y-37659982D01*
X-20918916Y-37649322D01*
X-20925994Y-37632233D01*
X-20925997Y-37632229D01*
X-20947230Y-37610996D01*
X-20947234Y-37610993D01*
X-20974982Y-37599500D01*
X-34974982Y-37599500D01*
X-35005018Y-37599500D01*
X-35032767Y-37610993D01*
X-35032771Y-37610996D01*
X-35054004Y-37632229D01*
X-35054007Y-37632233D01*
X-35065500Y-37659981D01*
X-39914500Y-37659981D01*
X-39914500Y-35284982D01*
X-39925994Y-35257233D01*
X-39925997Y-35257229D01*
X-39947230Y-35235996D01*
X-39947234Y-35235993D01*
X-39974982Y-35224500D01*
X-53974982Y-35224500D01*
X-54005018Y-35224500D01*
X-54032767Y-35235993D01*
X-54032771Y-35235996D01*
X-54054004Y-35257229D01*
X-54054007Y-35257233D01*
X-54065500Y-35284981D01*
X-77914500Y-35284981D01*
X-77914500Y-23409982D01*
X-77925994Y-23382233D01*
X-77925997Y-23382229D01*
X-77947230Y-23360996D01*
X-77947234Y-23360993D01*
X-77974982Y-23349500D01*
X-91974982Y-23349500D01*
X-92005018Y-23349500D01*
X-92032767Y-23360993D01*
X-92032771Y-23360996D01*
X-92054004Y-23382229D01*
X-92054007Y-23382233D01*
X-92065500Y-23409981D01*
X-93387866Y-23409981D01*
X-93285554Y-23363934D01*
X-93015495Y-23200677D01*
X-92767083Y-23006059D01*
X-92543941Y-22782917D01*
X-92349323Y-22534505D01*
X-92186066Y-22264446D01*
X-92056552Y-21976678D01*
X-91962669Y-21675396D01*
X-91905786Y-21364995D01*
X-91886732Y-21050000D01*
X-91905786Y-20735005D01*
X-91962669Y-20424604D01*
X-92056552Y-20123322D01*
X-92056554Y-20123317D01*
X-92186061Y-19835564D01*
X-92186067Y-19835553D01*
X-92241747Y-19743448D01*
X-92349323Y-19565495D01*
X-92543936Y-19317088D01*
X-92543948Y-19317075D01*
X-92767076Y-19093947D01*
X-92767089Y-19093935D01*
X-93015496Y-18899322D01*
X-93015501Y-18899319D01*
X-93285554Y-18736066D01*
X-93285565Y-18736060D01*
X-93454606Y-18659981D01*
X-73065500Y-18659981D01*
X-73065500Y-32690018D01*
X-73054007Y-32717766D01*
X-73054004Y-32717770D01*
X-73032771Y-32739003D01*
X-73032767Y-32739006D01*
X-73005018Y-32750500D01*
X-58974982Y-32750500D01*
X-58947233Y-32739006D01*
X-58925994Y-32717767D01*
X-58914500Y-32690018D01*
X-58914500Y-18659982D01*
X-58925994Y-18632233D01*
X-58925997Y-18632229D01*
X-58947230Y-18610996D01*
X-58947234Y-18610993D01*
X-58974982Y-18599500D01*
X-72974982Y-18599500D01*
X-73005018Y-18599500D01*
X-73032767Y-18610993D01*
X-73032771Y-18610996D01*
X-73054004Y-18632229D01*
X-73054007Y-18632233D01*
X-73065500Y-18659981D01*
X-93454606Y-18659981D01*
X-93573318Y-18606553D01*
X-93874605Y-18512668D01*
X-94185005Y-18455786D01*
X-94185008Y-18455785D01*
X-94499999Y-18436732D01*
X-94500001Y-18436732D01*
X-94814993Y-18455785D01*
X-94814996Y-18455786D01*
X-95125396Y-18512668D01*
X-95426683Y-18606553D01*
X-95714436Y-18736060D01*
X-95714447Y-18736066D01*
X-95984500Y-18899319D01*
X-95984505Y-18899322D01*
X-96232912Y-19093935D01*
X-96232925Y-19093947D01*
X-96456053Y-19317075D01*
X-96456065Y-19317088D01*
X-96650678Y-19565495D01*
X-96650681Y-19565500D01*
X-96813934Y-19835553D01*
X-96813940Y-19835564D01*
X-96943447Y-20123317D01*
X-97037332Y-20424604D01*
X-97094214Y-20735004D01*
X-97094215Y-20735007D01*
X-97113268Y-21049998D01*
X-112924500Y-21049998D01*
X-112924500Y-4409981D01*
X-111065500Y-4409981D01*
X-111065500Y-18440018D01*
X-111054007Y-18467766D01*
X-111054004Y-18467770D01*
X-111032771Y-18489003D01*
X-111032767Y-18489006D01*
X-111005018Y-18500500D01*
X-96974982Y-18500500D01*
X-96947233Y-18489006D01*
X-96925994Y-18467767D01*
X-96914500Y-18440018D01*
X-96914500Y-4409982D01*
X-96914500Y-4409981D01*
X-92065500Y-4409981D01*
X-92065500Y-18440018D01*
X-92054007Y-18467766D01*
X-92054004Y-18467770D01*
X-92032771Y-18489003D01*
X-92032767Y-18489006D01*
X-92005018Y-18500500D01*
X-77974982Y-18500500D01*
X-77947233Y-18489006D01*
X-77925994Y-18467767D01*
X-77914500Y-18440018D01*
X-77914500Y-16284981D01*
X-54065500Y-16284981D01*
X-54065500Y-30315018D01*
X-54054007Y-30342766D01*
X-54054004Y-30342770D01*
X-54032771Y-30364003D01*
X-54032767Y-30364006D01*
X-54005018Y-30375500D01*
X-39974982Y-30375500D01*
X-39947233Y-30364006D01*
X-39925994Y-30342767D01*
X-39914500Y-30315018D01*
X-39914500Y-18659981D01*
X-35065500Y-18659981D01*
X-35065500Y-32690018D01*
X-35054007Y-32717766D01*
X-35054004Y-32717770D01*
X-35032771Y-32739003D01*
X-35032767Y-32739006D01*
X-35005018Y-32750500D01*
X-20974982Y-32750500D01*
X-20947233Y-32739006D01*
X-20925994Y-32717767D01*
X-20914500Y-32690018D01*
X-20914500Y-21034981D01*
X-16065500Y-21034981D01*
X-16065500Y-35065018D01*
X-16054007Y-35092766D01*
X-16054004Y-35092770D01*
X-16032771Y-35114003D01*
X-16032767Y-35114006D01*
X-16005018Y-35125500D01*
X-1974982Y-35125500D01*
X-1947233Y-35114006D01*
X-1925994Y-35092767D01*
X-1914500Y-35065018D01*
X-1914500Y-21034982D01*
X-1925994Y-21007233D01*
X-1925997Y-21007229D01*
X-1947230Y-20985996D01*
X-1947234Y-20985993D01*
X-1974982Y-20974500D01*
X-15974982Y-20974500D01*
X-16005018Y-20974500D01*
X-16032767Y-20985993D01*
X-16032771Y-20985996D01*
X-16054004Y-21007229D01*
X-16054007Y-21007233D01*
X-16065500Y-21034981D01*
X-20914500Y-21034981D01*
X-20914500Y-18800073D01*
X-20894498Y-18731952D01*
X-20840842Y-18685459D01*
X-20770568Y-18675355D01*
X-20705988Y-18704849D01*
X-20680672Y-18734889D01*
X-20650686Y-18784492D01*
X-20650678Y-18784504D01*
X-20456065Y-19032911D01*
X-20456053Y-19032924D01*
X-20232925Y-19256052D01*
X-20232912Y-19256064D01*
X-19984505Y-19450677D01*
X-19714446Y-19613934D01*
X-19714442Y-19613936D01*
X-19714436Y-19613939D01*
X-19426683Y-19743446D01*
X-19426682Y-19743446D01*
X-19426678Y-19743448D01*
X-19125396Y-19837331D01*
X-18814995Y-19894214D01*
X-18604999Y-19906916D01*
X-18500001Y-19913268D01*
X-18500000Y-19913268D01*
X-18499999Y-19913268D01*
X-18421252Y-19908504D01*
X-18185005Y-19894214D01*
X-17874604Y-19837331D01*
X-17573322Y-19743448D01*
X-17285554Y-19613934D01*
X-17015495Y-19450677D01*
X-16767083Y-19256059D01*
X-16543941Y-19032917D01*
X-16349323Y-18784505D01*
X-16186066Y-18514446D01*
X-16176016Y-18492117D01*
X-16056554Y-18226682D01*
X-16056552Y-18226678D01*
X-15962669Y-17925396D01*
X-15905786Y-17614995D01*
X-15886732Y-17300000D01*
X-15905786Y-16985005D01*
X-15962669Y-16674604D01*
X-16056552Y-16373322D01*
X-16088107Y-16303211D01*
X-16097824Y-16232884D01*
X-16067977Y-16168466D01*
X-16008041Y-16130411D01*
X-15973207Y-16125500D01*
X-1974982Y-16125500D01*
X-1947233Y-16114006D01*
X-1925994Y-16092767D01*
X-1914500Y-16065018D01*
X-1914500Y-2034982D01*
X-1925994Y-2007233D01*
X-1925997Y-2007229D01*
X-1947230Y-1985996D01*
X-1947234Y-1985993D01*
X-1974982Y-1974500D01*
X-15974982Y-1974500D01*
X-16005018Y-1974500D01*
X-16032767Y-1985993D01*
X-16032771Y-1985996D01*
X-16054004Y-2007229D01*
X-16054007Y-2007233D01*
X-16065500Y-2034981D01*
X-16065500Y-15833010D01*
X-16085502Y-15901131D01*
X-16139158Y-15947624D01*
X-16209432Y-15957728D01*
X-16274012Y-15928234D01*
X-16299328Y-15898195D01*
X-16349320Y-15815500D01*
X-16349323Y-15815495D01*
X-16543936Y-15567088D01*
X-16543948Y-15567075D01*
X-16767076Y-15343947D01*
X-16767089Y-15343935D01*
X-17015496Y-15149322D01*
X-17015501Y-15149319D01*
X-17285554Y-14986066D01*
X-17285565Y-14986060D01*
X-17573318Y-14856553D01*
X-17874605Y-14762668D01*
X-18185005Y-14705786D01*
X-18185008Y-14705785D01*
X-18499999Y-14686732D01*
X-18500001Y-14686732D01*
X-18814993Y-14705785D01*
X-18814996Y-14705786D01*
X-19125396Y-14762668D01*
X-19426683Y-14856553D01*
X-19714436Y-14986060D01*
X-19714447Y-14986066D01*
X-19984500Y-15149319D01*
X-19984505Y-15149322D01*
X-20232912Y-15343935D01*
X-20232925Y-15343947D01*
X-20456053Y-15567075D01*
X-20456065Y-15567088D01*
X-20650678Y-15815495D01*
X-20650681Y-15815500D01*
X-20813934Y-16085553D01*
X-20813940Y-16085564D01*
X-20943447Y-16373317D01*
X-21037332Y-16674604D01*
X-21094214Y-16985004D01*
X-21094215Y-16985007D01*
X-21113268Y-17299998D01*
X-21113268Y-17300001D01*
X-21094215Y-17614992D01*
X-21094214Y-17614995D01*
X-21037332Y-17925395D01*
X-20943447Y-18226682D01*
X-20855637Y-18421788D01*
X-20845919Y-18492117D01*
X-20875766Y-18556534D01*
X-20935702Y-18594589D01*
X-20970536Y-18599500D01*
X-35005018Y-18599500D01*
X-35032767Y-18610993D01*
X-35032771Y-18610996D01*
X-35054004Y-18632229D01*
X-35054007Y-18632233D01*
X-35065500Y-18659981D01*
X-39914500Y-18659981D01*
X-39914500Y-16284982D01*
X-39925994Y-16257233D01*
X-39925997Y-16257229D01*
X-39947230Y-16235996D01*
X-39947234Y-16235993D01*
X-39974982Y-16224500D01*
X-53974982Y-16224500D01*
X-54005018Y-16224500D01*
X-54032767Y-16235993D01*
X-54032771Y-16235996D01*
X-54054004Y-16257229D01*
X-54054007Y-16257233D01*
X-54065500Y-16284981D01*
X-77914500Y-16284981D01*
X-77914500Y-4409982D01*
X-77925994Y-4382233D01*
X-77925997Y-4382229D01*
X-77947230Y-4360996D01*
X-77947234Y-4360993D01*
X-77974982Y-4349500D01*
X-91974982Y-4349500D01*
X-92005018Y-4349500D01*
X-92032767Y-4360993D01*
X-92032771Y-4360996D01*
X-92054004Y-4382229D01*
X-92054007Y-4382233D01*
X-92065500Y-4409981D01*
X-96914500Y-4409981D01*
X-96925994Y-4382233D01*
X-96925997Y-4382229D01*
X-96947230Y-4360996D01*
X-96947234Y-4360993D01*
X-96974982Y-4349500D01*
X-110974982Y-4349500D01*
X-111005018Y-4349500D01*
X-111032767Y-4360993D01*
X-111032771Y-4360996D01*
X-111054004Y-4382229D01*
X-111054007Y-4382233D01*
X-111065500Y-4409981D01*
X-112924500Y-4409981D01*
X-112924500Y-2808257D01*
X-112923422Y-2791812D01*
X-112915964Y-2735157D01*
X-112912201Y-2706576D01*
X-112903688Y-2674806D01*
X-112873975Y-2603074D01*
X-112857533Y-2574593D01*
X-112810262Y-2512988D01*
X-112787012Y-2489738D01*
X-112725407Y-2442467D01*
X-112696926Y-2426025D01*
X-112625194Y-2396312D01*
X-112593424Y-2387799D01*
X-112518018Y-2377871D01*
X-112508188Y-2376578D01*
X-112491743Y-2375500D01*
X-75435160Y-2375500D01*
X-75435157Y-2375500D01*
X-75308722Y-2346642D01*
X-75191878Y-2290374D01*
X-75090485Y-2209515D01*
X-75009626Y-2108122D01*
X-74953358Y-1991278D01*
X-74924500Y-1864843D01*
X-74924500Y-1800000D01*
X-74924500Y-1775469D01*
X-74924500Y340019D01*
X-73065500Y340019D01*
X-73065500Y-13690018D01*
X-73054007Y-13717766D01*
X-73054004Y-13717770D01*
X-73032771Y-13739003D01*
X-73032767Y-13739006D01*
X-73005018Y-13750500D01*
X-58974982Y-13750500D01*
X-58947233Y-13739006D01*
X-58925994Y-13717767D01*
X-58914500Y-13690018D01*
X-58914500Y340018D01*
X-58914547Y340131D01*
X-58925994Y367767D01*
X-58925997Y367771D01*
X-58947230Y389004D01*
X-58947234Y389007D01*
X-58974982Y400500D01*
X-72974982Y400500D01*
X-73005018Y400500D01*
X-73032767Y389007D01*
X-73032771Y389004D01*
X-73054004Y367771D01*
X-73054007Y367767D01*
X-73065500Y340019D01*
X-74924500Y340019D01*
X-74924500Y1941743D01*
X-74923422Y1958188D01*
X-74915964Y2014843D01*
X-74912201Y2043424D01*
X-74903688Y2075194D01*
X-74873975Y2146926D01*
X-74857533Y2175407D01*
X-74810262Y2237012D01*
X-74787012Y2260262D01*
X-74725407Y2307533D01*
X-74696926Y2323975D01*
X-74625194Y2353688D01*
X-74593424Y2362201D01*
X-74518018Y2372129D01*
X-74508188Y2373422D01*
X-74491743Y2374500D01*
X-56435160Y2374500D01*
X-56435157Y2374500D01*
X-56308722Y2403358D01*
X-56191878Y2459626D01*
X-56090485Y2540485D01*
X-56009626Y2641878D01*
X-55974404Y2715019D01*
X-54065500Y2715019D01*
X-54065500Y-11315018D01*
X-54054007Y-11342766D01*
X-54054004Y-11342770D01*
X-54032771Y-11364003D01*
X-54032767Y-11364006D01*
X-54005018Y-11375500D01*
X-39974982Y-11375500D01*
X-39947233Y-11364006D01*
X-39925994Y-11342767D01*
X-39914500Y-11315018D01*
X-39914500Y340019D01*
X-35065500Y340019D01*
X-35065500Y-13690018D01*
X-35054007Y-13717766D01*
X-35054004Y-13717770D01*
X-35032771Y-13739003D01*
X-35032767Y-13739006D01*
X-35005018Y-13750500D01*
X-20974982Y-13750500D01*
X-20947233Y-13739006D01*
X-20925994Y-13717767D01*
X-20914500Y-13690018D01*
X-20914500Y340018D01*
X-20914547Y340131D01*
X-20925994Y367767D01*
X-20925997Y367771D01*
X-20947230Y389004D01*
X-20947234Y389007D01*
X-20974982Y400500D01*
X-34974982Y400500D01*
X-35005018Y400500D01*
X-35032767Y389007D01*
X-35032771Y389004D01*
X-35054004Y367771D01*
X-35054007Y367767D01*
X-35065500Y340019D01*
X-39914500Y340019D01*
X-39914500Y2715018D01*
X-39925994Y2742767D01*
X-39925997Y2742771D01*
X-39947230Y2764004D01*
X-39947234Y2764007D01*
X-39974982Y2775500D01*
X-53974982Y2775500D01*
X-54005018Y2775500D01*
X-54032767Y2764007D01*
X-54032771Y2764004D01*
X-54054004Y2742771D01*
X-54054007Y2742767D01*
X-54065500Y2715019D01*
X-55974404Y2715019D01*
X-55953358Y2758722D01*
X-55924500Y2885157D01*
X-55924500Y2950000D01*
X-55924500Y2974531D01*
X-55924500Y4191743D01*
X-55923422Y4208188D01*
X-55915964Y4264843D01*
X-55912201Y4293424D01*
X-55903688Y4325194D01*
X-55873975Y4396926D01*
X-55857533Y4425407D01*
X-55810262Y4487012D01*
X-55787012Y4510262D01*
X-55725407Y4557533D01*
X-55696926Y4573975D01*
X-55625194Y4603688D01*
X-55593424Y4612201D01*
X-55518018Y4622129D01*
X-55508188Y4623422D01*
X-55491743Y4624500D01*
X-55475469Y4624500D01*
X-38524531Y4624500D01*
X-38508257Y4624500D01*
X-38491812Y4623422D01*
G37*
%TD.AperFunction*%
M02*
