%TF.GenerationSoftware,KiCad,Pcbnew,8.0.3*%
%TF.CreationDate,2024-08-02T01:48:42+01:00*%
%TF.ProjectId,corne-top-plate,636f726e-652d-4746-9f70-2d706c617465,2.1*%
%TF.SameCoordinates,Original*%
%TF.FileFunction,Soldermask,Bot*%
%TF.FilePolarity,Negative*%
%FSLAX46Y46*%
G04 Gerber Fmt 4.6, Leading zero omitted, Abs format (unit mm)*
G04 Created by KiCad (PCBNEW 8.0.3) date 2024-08-02 01:48:42*
%MOMM*%
%LPD*%
G01*
G04 APERTURE LIST*
%ADD10C,0.010000*%
%ADD11C,4.600000*%
G04 APERTURE END LIST*
D10*
%TO.C,G\u002A\u002A\u002A*%
X-66218542Y-55024536D02*
X-66045298Y-55066267D01*
X-65893446Y-55137357D01*
X-65775269Y-55233946D01*
X-65724500Y-55290358D01*
X-65699100Y-55068500D01*
X-65489550Y-55061122D01*
X-65280000Y-55053745D01*
X-65280000Y-57316400D01*
X-65711800Y-57316400D01*
X-65711800Y-55923838D01*
X-65794889Y-55762869D01*
X-65843766Y-55681179D01*
X-65965381Y-55546056D01*
X-66113952Y-55450922D01*
X-66283351Y-55399139D01*
X-66467450Y-55394068D01*
X-66600800Y-55407729D01*
X-66600800Y-55036961D01*
X-66454737Y-55020436D01*
X-66400890Y-55016025D01*
X-66218542Y-55024536D01*
G36*
X-66218542Y-55024536D02*
G01*
X-66045298Y-55066267D01*
X-65893446Y-55137357D01*
X-65775269Y-55233946D01*
X-65724500Y-55290358D01*
X-65699100Y-55068500D01*
X-65489550Y-55061122D01*
X-65280000Y-55053745D01*
X-65280000Y-57316400D01*
X-65711800Y-57316400D01*
X-65711800Y-55923838D01*
X-65794889Y-55762869D01*
X-65843766Y-55681179D01*
X-65965381Y-55546056D01*
X-66113952Y-55450922D01*
X-66283351Y-55399139D01*
X-66467450Y-55394068D01*
X-66600800Y-55407729D01*
X-66600800Y-55036961D01*
X-66454737Y-55020436D01*
X-66400890Y-55016025D01*
X-66218542Y-55024536D01*
G37*
X-67953995Y-55043211D02*
X-67784324Y-55049616D01*
X-67651978Y-55068282D01*
X-67545955Y-55102569D01*
X-67455252Y-55155836D01*
X-67368864Y-55231442D01*
X-67286600Y-55313707D01*
X-67286600Y-55055800D01*
X-66854800Y-55055800D01*
X-66854800Y-57316400D01*
X-67286600Y-57316400D01*
X-67286600Y-56647910D01*
X-67286626Y-56591907D01*
X-67287717Y-56367585D01*
X-67291277Y-56186327D01*
X-67298496Y-56041805D01*
X-67310567Y-55927689D01*
X-67328679Y-55837652D01*
X-67354023Y-55765365D01*
X-67387791Y-55704501D01*
X-67431173Y-55648731D01*
X-67485360Y-55591726D01*
X-67565264Y-55521472D01*
X-67677362Y-55456694D01*
X-67807341Y-55421817D01*
X-67969812Y-55411400D01*
X-68024280Y-55412999D01*
X-68192603Y-55442984D01*
X-68328030Y-55510106D01*
X-68428937Y-55613307D01*
X-68493697Y-55751534D01*
X-68501595Y-55782809D01*
X-68511719Y-55845037D01*
X-68519422Y-55928882D01*
X-68524963Y-56040177D01*
X-68528600Y-56184758D01*
X-68530593Y-56368457D01*
X-68531200Y-56597110D01*
X-68531200Y-57316400D01*
X-68963000Y-57316400D01*
X-68962808Y-56649650D01*
X-68962127Y-56500353D01*
X-68959574Y-56316330D01*
X-68955403Y-56147049D01*
X-68949903Y-56001525D01*
X-68943364Y-55888770D01*
X-68936075Y-55817800D01*
X-68924668Y-55755354D01*
X-68861379Y-55546378D01*
X-68764048Y-55373673D01*
X-68630798Y-55234513D01*
X-68459751Y-55126171D01*
X-68405570Y-55100005D01*
X-68341801Y-55073181D01*
X-68281490Y-55056455D01*
X-68211075Y-55047451D01*
X-68116991Y-55043791D01*
X-67985674Y-55043100D01*
X-67953995Y-55043211D01*
G36*
X-67953995Y-55043211D02*
G01*
X-67784324Y-55049616D01*
X-67651978Y-55068282D01*
X-67545955Y-55102569D01*
X-67455252Y-55155836D01*
X-67368864Y-55231442D01*
X-67286600Y-55313707D01*
X-67286600Y-55055800D01*
X-66854800Y-55055800D01*
X-66854800Y-57316400D01*
X-67286600Y-57316400D01*
X-67286600Y-56647910D01*
X-67286626Y-56591907D01*
X-67287717Y-56367585D01*
X-67291277Y-56186327D01*
X-67298496Y-56041805D01*
X-67310567Y-55927689D01*
X-67328679Y-55837652D01*
X-67354023Y-55765365D01*
X-67387791Y-55704501D01*
X-67431173Y-55648731D01*
X-67485360Y-55591726D01*
X-67565264Y-55521472D01*
X-67677362Y-55456694D01*
X-67807341Y-55421817D01*
X-67969812Y-55411400D01*
X-68024280Y-55412999D01*
X-68192603Y-55442984D01*
X-68328030Y-55510106D01*
X-68428937Y-55613307D01*
X-68493697Y-55751534D01*
X-68501595Y-55782809D01*
X-68511719Y-55845037D01*
X-68519422Y-55928882D01*
X-68524963Y-56040177D01*
X-68528600Y-56184758D01*
X-68530593Y-56368457D01*
X-68531200Y-56597110D01*
X-68531200Y-57316400D01*
X-68963000Y-57316400D01*
X-68962808Y-56649650D01*
X-68962127Y-56500353D01*
X-68959574Y-56316330D01*
X-68955403Y-56147049D01*
X-68949903Y-56001525D01*
X-68943364Y-55888770D01*
X-68936075Y-55817800D01*
X-68924668Y-55755354D01*
X-68861379Y-55546378D01*
X-68764048Y-55373673D01*
X-68630798Y-55234513D01*
X-68459751Y-55126171D01*
X-68405570Y-55100005D01*
X-68341801Y-55073181D01*
X-68281490Y-55056455D01*
X-68211075Y-55047451D01*
X-68116991Y-55043791D01*
X-67985674Y-55043100D01*
X-67953995Y-55043211D01*
G37*
X-62553599Y-56385628D02*
X-62573651Y-56488876D01*
X-62607837Y-56613102D01*
X-62646182Y-56715895D01*
X-62697056Y-56810986D01*
X-62827655Y-56980635D01*
X-62994621Y-57128093D01*
X-63189353Y-57246401D01*
X-63403253Y-57328599D01*
X-63436074Y-57336729D01*
X-63581560Y-57356650D01*
X-63751281Y-57361287D01*
X-63926835Y-57351467D01*
X-64089821Y-57328019D01*
X-64221840Y-57291770D01*
X-64296741Y-57260421D01*
X-64505179Y-57141769D01*
X-64681775Y-56991574D01*
X-64821019Y-56815172D01*
X-64917405Y-56617900D01*
X-64920356Y-56609275D01*
X-64947543Y-56487551D01*
X-64962525Y-56335313D01*
X-64964472Y-56227298D01*
X-64559493Y-56227298D01*
X-64537510Y-56404401D01*
X-64484520Y-56560466D01*
X-64480087Y-56569341D01*
X-64372910Y-56725677D01*
X-64228444Y-56849347D01*
X-64051164Y-56936468D01*
X-63938604Y-56967243D01*
X-63735189Y-56983463D01*
X-63530198Y-56953118D01*
X-63333458Y-56877020D01*
X-63326674Y-56873365D01*
X-63232678Y-56802702D01*
X-63138695Y-56701333D01*
X-63058294Y-56585941D01*
X-63005041Y-56473207D01*
X-62984909Y-56391866D01*
X-62970574Y-56244224D01*
X-62975933Y-56087526D01*
X-62999919Y-55940807D01*
X-63041465Y-55823101D01*
X-63146445Y-55669360D01*
X-63280434Y-55550270D01*
X-63435624Y-55466522D01*
X-63604649Y-55417949D01*
X-63780142Y-55404386D01*
X-63954736Y-55425666D01*
X-64121064Y-55481623D01*
X-64271761Y-55572092D01*
X-64399458Y-55696906D01*
X-64496789Y-55855900D01*
X-64509121Y-55885421D01*
X-64550139Y-56048017D01*
X-64559493Y-56227298D01*
X-64964472Y-56227298D01*
X-64965530Y-56168580D01*
X-64956785Y-56003371D01*
X-64936518Y-55855705D01*
X-64904956Y-55741600D01*
X-64840408Y-55606816D01*
X-64706825Y-55418222D01*
X-64538675Y-55264865D01*
X-64339025Y-55148807D01*
X-64110940Y-55072111D01*
X-63857486Y-55036840D01*
X-63681405Y-55034147D01*
X-63495530Y-55052281D01*
X-63324205Y-55097053D01*
X-63149919Y-55171803D01*
X-63105860Y-55195069D01*
X-62917187Y-55327687D01*
X-62763857Y-55493365D01*
X-62648350Y-55687052D01*
X-62573150Y-55903693D01*
X-62540738Y-56138236D01*
X-62546248Y-56244224D01*
X-62553599Y-56385628D01*
G36*
X-62553599Y-56385628D02*
G01*
X-62573651Y-56488876D01*
X-62607837Y-56613102D01*
X-62646182Y-56715895D01*
X-62697056Y-56810986D01*
X-62827655Y-56980635D01*
X-62994621Y-57128093D01*
X-63189353Y-57246401D01*
X-63403253Y-57328599D01*
X-63436074Y-57336729D01*
X-63581560Y-57356650D01*
X-63751281Y-57361287D01*
X-63926835Y-57351467D01*
X-64089821Y-57328019D01*
X-64221840Y-57291770D01*
X-64296741Y-57260421D01*
X-64505179Y-57141769D01*
X-64681775Y-56991574D01*
X-64821019Y-56815172D01*
X-64917405Y-56617900D01*
X-64920356Y-56609275D01*
X-64947543Y-56487551D01*
X-64962525Y-56335313D01*
X-64964472Y-56227298D01*
X-64559493Y-56227298D01*
X-64537510Y-56404401D01*
X-64484520Y-56560466D01*
X-64480087Y-56569341D01*
X-64372910Y-56725677D01*
X-64228444Y-56849347D01*
X-64051164Y-56936468D01*
X-63938604Y-56967243D01*
X-63735189Y-56983463D01*
X-63530198Y-56953118D01*
X-63333458Y-56877020D01*
X-63326674Y-56873365D01*
X-63232678Y-56802702D01*
X-63138695Y-56701333D01*
X-63058294Y-56585941D01*
X-63005041Y-56473207D01*
X-62984909Y-56391866D01*
X-62970574Y-56244224D01*
X-62975933Y-56087526D01*
X-62999919Y-55940807D01*
X-63041465Y-55823101D01*
X-63146445Y-55669360D01*
X-63280434Y-55550270D01*
X-63435624Y-55466522D01*
X-63604649Y-55417949D01*
X-63780142Y-55404386D01*
X-63954736Y-55425666D01*
X-64121064Y-55481623D01*
X-64271761Y-55572092D01*
X-64399458Y-55696906D01*
X-64496789Y-55855900D01*
X-64509121Y-55885421D01*
X-64550139Y-56048017D01*
X-64559493Y-56227298D01*
X-64964472Y-56227298D01*
X-64965530Y-56168580D01*
X-64956785Y-56003371D01*
X-64936518Y-55855705D01*
X-64904956Y-55741600D01*
X-64840408Y-55606816D01*
X-64706825Y-55418222D01*
X-64538675Y-55264865D01*
X-64339025Y-55148807D01*
X-64110940Y-55072111D01*
X-63857486Y-55036840D01*
X-63681405Y-55034147D01*
X-63495530Y-55052281D01*
X-63324205Y-55097053D01*
X-63149919Y-55171803D01*
X-63105860Y-55195069D01*
X-62917187Y-55327687D01*
X-62763857Y-55493365D01*
X-62648350Y-55687052D01*
X-62573150Y-55903693D01*
X-62540738Y-56138236D01*
X-62546248Y-56244224D01*
X-62553599Y-56385628D01*
G37*
X-61098755Y-55036892D02*
X-60914783Y-55060914D01*
X-60758800Y-55104802D01*
X-60755569Y-55106085D01*
X-60551376Y-55213316D01*
X-60372262Y-55359026D01*
X-60225997Y-55535543D01*
X-60120351Y-55735197D01*
X-60100730Y-55788494D01*
X-60081298Y-55860236D01*
X-60069621Y-55941188D01*
X-60063919Y-56045194D01*
X-60062414Y-56186100D01*
X-60066793Y-56355430D01*
X-60084191Y-56507138D01*
X-60118770Y-56637887D01*
X-60174660Y-56762841D01*
X-60255989Y-56897165D01*
X-60322883Y-56982289D01*
X-60462260Y-57107860D01*
X-60631951Y-57215877D01*
X-60819587Y-57298943D01*
X-61012800Y-57349664D01*
X-61208318Y-57365194D01*
X-61442060Y-57342913D01*
X-61668907Y-57279811D01*
X-61877764Y-57179131D01*
X-62057538Y-57044119D01*
X-62096429Y-57003876D01*
X-62170869Y-56909041D01*
X-62241878Y-56799252D01*
X-62301924Y-56687781D01*
X-62343475Y-56587902D01*
X-62359000Y-56512887D01*
X-62357497Y-56487594D01*
X-62345995Y-56467992D01*
X-62314284Y-56457620D01*
X-62252168Y-56453561D01*
X-62149450Y-56452895D01*
X-61939900Y-56452990D01*
X-61893267Y-56566389D01*
X-61871684Y-56613106D01*
X-61773474Y-56752622D01*
X-61642290Y-56862291D01*
X-61486572Y-56938785D01*
X-61314759Y-56978773D01*
X-61135289Y-56978926D01*
X-60956602Y-56935915D01*
X-60809279Y-56864303D01*
X-60674404Y-56752138D01*
X-60568675Y-56601531D01*
X-60545613Y-56553322D01*
X-60499759Y-56399327D01*
X-60479073Y-56225402D01*
X-60484856Y-56049924D01*
X-60518407Y-55891267D01*
X-60524605Y-55873547D01*
X-60606453Y-55720526D01*
X-60726516Y-55591089D01*
X-60876065Y-55491221D01*
X-61046369Y-55426910D01*
X-61228699Y-55404142D01*
X-61270585Y-55405461D01*
X-61435364Y-55434854D01*
X-61590963Y-55498012D01*
X-61727138Y-55588503D01*
X-61833643Y-55699894D01*
X-61900233Y-55825754D01*
X-61931139Y-55919399D01*
X-62145069Y-55919400D01*
X-62192029Y-55919343D01*
X-62286612Y-55916149D01*
X-62339298Y-55902261D01*
X-62356583Y-55869761D01*
X-62344964Y-55810731D01*
X-62310937Y-55717254D01*
X-62276282Y-55637188D01*
X-62158722Y-55451988D01*
X-62001793Y-55294036D01*
X-61810350Y-55167639D01*
X-61589248Y-55077102D01*
X-61474549Y-55050988D01*
X-61291687Y-55033372D01*
X-61098755Y-55036892D01*
G36*
X-61098755Y-55036892D02*
G01*
X-60914783Y-55060914D01*
X-60758800Y-55104802D01*
X-60755569Y-55106085D01*
X-60551376Y-55213316D01*
X-60372262Y-55359026D01*
X-60225997Y-55535543D01*
X-60120351Y-55735197D01*
X-60100730Y-55788494D01*
X-60081298Y-55860236D01*
X-60069621Y-55941188D01*
X-60063919Y-56045194D01*
X-60062414Y-56186100D01*
X-60066793Y-56355430D01*
X-60084191Y-56507138D01*
X-60118770Y-56637887D01*
X-60174660Y-56762841D01*
X-60255989Y-56897165D01*
X-60322883Y-56982289D01*
X-60462260Y-57107860D01*
X-60631951Y-57215877D01*
X-60819587Y-57298943D01*
X-61012800Y-57349664D01*
X-61208318Y-57365194D01*
X-61442060Y-57342913D01*
X-61668907Y-57279811D01*
X-61877764Y-57179131D01*
X-62057538Y-57044119D01*
X-62096429Y-57003876D01*
X-62170869Y-56909041D01*
X-62241878Y-56799252D01*
X-62301924Y-56687781D01*
X-62343475Y-56587902D01*
X-62359000Y-56512887D01*
X-62357497Y-56487594D01*
X-62345995Y-56467992D01*
X-62314284Y-56457620D01*
X-62252168Y-56453561D01*
X-62149450Y-56452895D01*
X-61939900Y-56452990D01*
X-61893267Y-56566389D01*
X-61871684Y-56613106D01*
X-61773474Y-56752622D01*
X-61642290Y-56862291D01*
X-61486572Y-56938785D01*
X-61314759Y-56978773D01*
X-61135289Y-56978926D01*
X-60956602Y-56935915D01*
X-60809279Y-56864303D01*
X-60674404Y-56752138D01*
X-60568675Y-56601531D01*
X-60545613Y-56553322D01*
X-60499759Y-56399327D01*
X-60479073Y-56225402D01*
X-60484856Y-56049924D01*
X-60518407Y-55891267D01*
X-60524605Y-55873547D01*
X-60606453Y-55720526D01*
X-60726516Y-55591089D01*
X-60876065Y-55491221D01*
X-61046369Y-55426910D01*
X-61228699Y-55404142D01*
X-61270585Y-55405461D01*
X-61435364Y-55434854D01*
X-61590963Y-55498012D01*
X-61727138Y-55588503D01*
X-61833643Y-55699894D01*
X-61900233Y-55825754D01*
X-61931139Y-55919399D01*
X-62145069Y-55919400D01*
X-62192029Y-55919343D01*
X-62286612Y-55916149D01*
X-62339298Y-55902261D01*
X-62356583Y-55869761D01*
X-62344964Y-55810731D01*
X-62310937Y-55717254D01*
X-62276282Y-55637188D01*
X-62158722Y-55451988D01*
X-62001793Y-55294036D01*
X-61810350Y-55167639D01*
X-61589248Y-55077102D01*
X-61474549Y-55050988D01*
X-61291687Y-55033372D01*
X-61098755Y-55036892D01*
G37*
X-69228541Y-55993661D02*
X-69214808Y-56233242D01*
X-69245344Y-56483299D01*
X-69264501Y-56560249D01*
X-69350874Y-56772590D01*
X-69478325Y-56960554D01*
X-69641925Y-57119023D01*
X-69836745Y-57242879D01*
X-70057857Y-57327004D01*
X-70269173Y-57363535D01*
X-70510096Y-57360509D01*
X-70746802Y-57313237D01*
X-70969490Y-57223773D01*
X-71168357Y-57094173D01*
X-71198544Y-57067746D01*
X-71281274Y-56979606D01*
X-71360999Y-56876086D01*
X-71425917Y-56773398D01*
X-71464230Y-56687750D01*
X-71469919Y-56664182D01*
X-71464910Y-56645133D01*
X-71437533Y-56635122D01*
X-71378311Y-56631246D01*
X-71277768Y-56630600D01*
X-71074513Y-56630600D01*
X-70938693Y-56766419D01*
X-70823995Y-56865614D01*
X-70686303Y-56941329D01*
X-70532629Y-56978127D01*
X-70350372Y-56980596D01*
X-70337404Y-56979683D01*
X-70176742Y-56954647D01*
X-70040888Y-56903239D01*
X-69951711Y-56849256D01*
X-69831143Y-56745298D01*
X-69735155Y-56624172D01*
X-69671717Y-56496649D01*
X-69648800Y-56373498D01*
X-69648800Y-56300400D01*
X-71553800Y-56300400D01*
X-71553800Y-56153336D01*
X-71537943Y-55957678D01*
X-71523852Y-55905688D01*
X-71096600Y-55905688D01*
X-71096597Y-55906014D01*
X-71091288Y-55917444D01*
X-71072259Y-55926420D01*
X-71034212Y-55933229D01*
X-70971851Y-55938158D01*
X-70879879Y-55941494D01*
X-70752999Y-55943521D01*
X-70585914Y-55944528D01*
X-70373328Y-55944800D01*
X-69650057Y-55944800D01*
X-69674265Y-55881127D01*
X-69754649Y-55721797D01*
X-69873526Y-55580486D01*
X-70020060Y-55478844D01*
X-70111798Y-55443039D01*
X-70270928Y-55411960D01*
X-70441733Y-55407014D01*
X-70605847Y-55428277D01*
X-70744903Y-55475826D01*
X-70747961Y-55477383D01*
X-70847748Y-55543195D01*
X-70942152Y-55630722D01*
X-71021525Y-55728173D01*
X-71076223Y-55823758D01*
X-71096600Y-55905688D01*
X-71523852Y-55905688D01*
X-71477904Y-55736162D01*
X-71377059Y-55537524D01*
X-71239579Y-55365847D01*
X-71069633Y-55225213D01*
X-70871394Y-55119705D01*
X-70649030Y-55053406D01*
X-70406713Y-55030400D01*
X-70187426Y-55044901D01*
X-69990103Y-55091746D01*
X-69795499Y-55175689D01*
X-69682608Y-55243672D01*
X-69513579Y-55389563D01*
X-69380106Y-55566643D01*
X-69284367Y-55769735D01*
X-69240722Y-55944800D01*
X-69228541Y-55993661D01*
G36*
X-69228541Y-55993661D02*
G01*
X-69214808Y-56233242D01*
X-69245344Y-56483299D01*
X-69264501Y-56560249D01*
X-69350874Y-56772590D01*
X-69478325Y-56960554D01*
X-69641925Y-57119023D01*
X-69836745Y-57242879D01*
X-70057857Y-57327004D01*
X-70269173Y-57363535D01*
X-70510096Y-57360509D01*
X-70746802Y-57313237D01*
X-70969490Y-57223773D01*
X-71168357Y-57094173D01*
X-71198544Y-57067746D01*
X-71281274Y-56979606D01*
X-71360999Y-56876086D01*
X-71425917Y-56773398D01*
X-71464230Y-56687750D01*
X-71469919Y-56664182D01*
X-71464910Y-56645133D01*
X-71437533Y-56635122D01*
X-71378311Y-56631246D01*
X-71277768Y-56630600D01*
X-71074513Y-56630600D01*
X-70938693Y-56766419D01*
X-70823995Y-56865614D01*
X-70686303Y-56941329D01*
X-70532629Y-56978127D01*
X-70350372Y-56980596D01*
X-70337404Y-56979683D01*
X-70176742Y-56954647D01*
X-70040888Y-56903239D01*
X-69951711Y-56849256D01*
X-69831143Y-56745298D01*
X-69735155Y-56624172D01*
X-69671717Y-56496649D01*
X-69648800Y-56373498D01*
X-69648800Y-56300400D01*
X-71553800Y-56300400D01*
X-71553800Y-56153336D01*
X-71537943Y-55957678D01*
X-71523852Y-55905688D01*
X-71096600Y-55905688D01*
X-71096597Y-55906014D01*
X-71091288Y-55917444D01*
X-71072259Y-55926420D01*
X-71034212Y-55933229D01*
X-70971851Y-55938158D01*
X-70879879Y-55941494D01*
X-70752999Y-55943521D01*
X-70585914Y-55944528D01*
X-70373328Y-55944800D01*
X-69650057Y-55944800D01*
X-69674265Y-55881127D01*
X-69754649Y-55721797D01*
X-69873526Y-55580486D01*
X-70020060Y-55478844D01*
X-70111798Y-55443039D01*
X-70270928Y-55411960D01*
X-70441733Y-55407014D01*
X-70605847Y-55428277D01*
X-70744903Y-55475826D01*
X-70747961Y-55477383D01*
X-70847748Y-55543195D01*
X-70942152Y-55630722D01*
X-71021525Y-55728173D01*
X-71076223Y-55823758D01*
X-71096600Y-55905688D01*
X-71523852Y-55905688D01*
X-71477904Y-55736162D01*
X-71377059Y-55537524D01*
X-71239579Y-55365847D01*
X-71069633Y-55225213D01*
X-70871394Y-55119705D01*
X-70649030Y-55053406D01*
X-70406713Y-55030400D01*
X-70187426Y-55044901D01*
X-69990103Y-55091746D01*
X-69795499Y-55175689D01*
X-69682608Y-55243672D01*
X-69513579Y-55389563D01*
X-69380106Y-55566643D01*
X-69284367Y-55769735D01*
X-69240722Y-55944800D01*
X-69228541Y-55993661D01*
G37*
%TD*%
D11*
%TO.C,*%
X-94500000Y-21050000D03*
%TD*%
%TO.C,*%
X-94500000Y-39800000D03*
%TD*%
%TO.C,*%
X-18500000Y-17300000D03*
%TD*%
%TO.C,*%
X-51250000Y-57050000D03*
%TD*%
%TO.C,*%
X-4750000Y-64800000D03*
%TD*%
M02*
